<?xml version="1.0" encoding="UTF-8" standalone="no"?>
<svg
   height="252.58063pt"
   version="1.1"
   viewBox="0 0 245.33003 252.58063"
   width="245.33003pt"
   id="svg439"
   sodipodi:docname="Bn.svg"
   inkscape:version="1.1 (c68e22c387, 2021-05-23)"
   xmlns:inkscape="http://www.inkscape.org/namespaces/inkscape"
   xmlns:sodipodi="http://sodipodi.sourceforge.net/DTD/sodipodi-0.dtd"
   xmlns:xlink="http://www.w3.org/1999/xlink"
   xmlns="http://www.w3.org/2000/svg"
   xmlns:svg="http://www.w3.org/2000/svg"
   xmlns:rdf="http://www.w3.org/1999/02/22-rdf-syntax-ns#"
   xmlns:cc="http://creativecommons.org/ns#"
   xmlns:dc="http://purl.org/dc/elements/1.1/">
  <sodipodi:namedview
     id="namedview441"
     pagecolor="#ffffff"
     bordercolor="#666666"
     borderopacity="1.0"
     inkscape:pageshadow="2"
     inkscape:pageopacity="0.0"
     inkscape:pagecheckerboard="0"
     inkscape:document-units="pt"
     showgrid="false"
     lock-margins="true"
     fit-margin-top="10"
     fit-margin-left="10"
     fit-margin-right="10"
     fit-margin-bottom="10"
     inkscape:zoom="1.8524306"
     inkscape:cx="141.70572"
     inkscape:cy="159.79007"
     inkscape:window-width="1920"
     inkscape:window-height="981"
     inkscape:window-x="0"
     inkscape:window-y="28"
     inkscape:window-maximized="1"
     inkscape:current-layer="svg439" />
  <metadata
     id="metadata2">
    <rdf:RDF>
      <cc:Work>
        <dc:type
           rdf:resource="http://purl.org/dc/dcmitype/StillImage" />
        <dc:date>2021-08-14T10:06:42.901333</dc:date>
        <dc:format>image/svg+xml</dc:format>
        <dc:creator>
          <cc:Agent>
            <dc:title>Matplotlib v3.4.2, https://matplotlib.org/</dc:title>
          </cc:Agent>
        </dc:creator>
      </cc:Work>
    </rdf:RDF>
  </metadata>
  <defs
     id="defs6">
    <style
       type="text/css"
       id="style4">*{stroke-linecap:butt;stroke-linejoin:round;}</style>
    <defs
       id="defs279">
      <path
         d="M 1259,2228 V 519 h 1013 q 509,0 754,211 246,211 246,645 0,438 -246,645 -245,208 -754,208 z m 0,1919 V 2741 h 935 q 462,0 688,173 227,174 227,530 0,353 -227,528 -226,175 -688,175 z m -631,519 h 1613 q 722,0 1112,-300 391,-300 391,-853 0,-429 -200,-682 -200,-253 -588,-315 466,-100 724,-418 258,-317 258,-792 0,-625 -425,-966 Q 3088,0 2303,0 H 628 Z"
         id="DejaVuSans-42"
         transform="scale(0.015625)" />
      <path
         d="M 3513,2113 V 0 h -575 v 2094 q 0,497 -194,743 -194,247 -581,247 -466,0 -735,-297 -269,-296 -269,-809 V 0 H 581 v 3500 h 578 v -544 q 207,316 486,472 280,156 646,156 603,0 912,-373 310,-373 310,-1098 z"
         id="DejaVuSans-6e"
         transform="scale(0.015625)" />
    </defs>
  </defs>
  <g
     id="patch_2"
     transform="translate(-109.81767,-24.16)">
    <path
       d="M 150.04111,252 H 292.75889 V 34.56 H 150.04111 Z"
       style="fill:#ffffff"
       id="path11" />
  </g>
  <g
     id="matplotlib.axis_1"
     transform="translate(-109.81767,-24.16)">
    <g
       id="xtick_1">
      <g
         id="line2d_1">
        <defs
           id="defs15">
          <path
             d="M 0,0 V 3.5"
             id="m332796e260"
             style="stroke:#000000;stroke-width:0.8" />
        </defs>
        <g
           id="g19">
          <use
             style="stroke:#000000;stroke-width:0.8"
             x="156.52829"
             xlink:href="#m332796e260"
             y="252"
             id="use17"
             width="100%"
             height="100%" />
        </g>
      </g>
      <g
         id="text_1">
        <!-- 0.0 -->
        <g
           transform="matrix(0.1,0,0,-0.1,148.57672,266.59844)"
           id="g32">
          <defs
             id="defs24">
            <path
               d="m 2034,4250 q -487,0 -733,-480 -245,-479 -245,-1442 0,-959 245,-1439 246,-480 733,-480 491,0 736,480 246,480 246,1439 0,963 -246,1442 -245,480 -736,480 z m 0,500 q 785,0 1199,-621 414,-620 414,-1801 0,-1178 -414,-1799 -414,-620 -1199,-620 -784,0 -1198,620 -414,621 -414,1799 0,1181 414,1801 414,621 1198,621 z"
               id="DejaVuSans-30"
               transform="scale(0.015625)" />
            <path
               d="m 684,794 h 660 V 0 H 684 Z"
               id="DejaVuSans-2e"
               transform="scale(0.015625)" />
          </defs>
          <use
             xlink:href="#DejaVuSans-30"
             id="use26"
             x="0"
             y="0"
             width="100%"
             height="100%" />
          <use
             x="63.623047"
             xlink:href="#DejaVuSans-2e"
             id="use28"
             y="0"
             width="100%"
             height="100%" />
          <use
             x="95.410156"
             xlink:href="#DejaVuSans-30"
             id="use30"
             y="0"
             width="100%"
             height="100%" />
        </g>
      </g>
    </g>
    <g
       id="xtick_2">
      <g
         id="line2d_2">
        <g
           id="g38">
          <use
             style="stroke:#000000;stroke-width:0.8"
             x="221.39999"
             xlink:href="#m332796e260"
             y="252"
             id="use36"
             width="100%"
             height="100%" />
        </g>
      </g>
      <g
         id="text_2">
        <!-- 0.5 -->
        <g
           transform="matrix(0.1,0,0,-0.1,213.44844,266.59844)"
           id="g50">
          <defs
             id="defs42">
            <path
               d="M 691,4666 H 3169 V 4134 H 1269 V 2991 q 137,47 274,70 138,23 276,23 781,0 1237,-428 457,-428 457,-1159 Q 3513,744 3044,326 2575,-91 1722,-91 1428,-91 1123,-41 819,9 494,109 v 635 q 281,-153 581,-228 300,-75 634,-75 541,0 856,284 316,284 316,772 0,487 -316,771 -315,285 -856,285 -253,0 -505,-56 -251,-56 -513,-175 z"
               id="DejaVuSans-35"
               transform="scale(0.015625)" />
          </defs>
          <use
             xlink:href="#DejaVuSans-30"
             id="use44"
             x="0"
             y="0"
             width="100%"
             height="100%" />
          <use
             x="63.623047"
             xlink:href="#DejaVuSans-2e"
             id="use46"
             y="0"
             width="100%"
             height="100%" />
          <use
             x="95.410156"
             xlink:href="#DejaVuSans-35"
             id="use48"
             y="0"
             width="100%"
             height="100%" />
        </g>
      </g>
    </g>
    <g
       id="xtick_3">
      <g
         id="line2d_3">
        <g
           id="g56">
          <use
             style="stroke:#000000;stroke-width:0.8"
             x="286.27173"
             xlink:href="#m332796e260"
             y="252"
             id="use54"
             width="100%"
             height="100%" />
        </g>
      </g>
      <g
         id="text_3">
        <!-- 1.0 -->
        <g
           transform="matrix(0.1,0,0,-0.1,278.32015,266.59844)"
           id="g68">
          <defs
             id="defs60">
            <path
               d="M 794,531 H 1825 V 4091 L 703,3866 v 575 l 1116,225 h 631 V 531 H 3481 V 0 H 794 Z"
               id="DejaVuSans-31"
               transform="scale(0.015625)" />
          </defs>
          <use
             xlink:href="#DejaVuSans-31"
             id="use62"
             x="0"
             y="0"
             width="100%"
             height="100%" />
          <use
             x="63.623047"
             xlink:href="#DejaVuSans-2e"
             id="use64"
             y="0"
             width="100%"
             height="100%" />
          <use
             x="95.410156"
             xlink:href="#DejaVuSans-30"
             id="use66"
             y="0"
             width="100%"
             height="100%" />
        </g>
      </g>
    </g>
  </g>
  <g
     id="matplotlib.axis_2"
     transform="translate(-109.81767,-24.16)">
    <g
       id="ytick_1">
      <g
         id="line2d_4">
        <defs
           id="defs74">
          <path
             d="M 0,0 H -3.5"
             id="m06657ad4e0"
             style="stroke:#000000;stroke-width:0.8" />
        </defs>
        <g
           id="g78">
          <use
             style="stroke:#000000;stroke-width:0.8"
             x="150.04111"
             xlink:href="#m06657ad4e0"
             y="226.08444"
             id="use76"
             width="100%"
             height="100%" />
        </g>
      </g>
      <g
         id="text_4">
        <!-- −0.4 -->
        <g
           transform="matrix(0.1,0,0,-0.1,118.7583,229.88366)"
           id="g93">
          <defs
             id="defs83">
            <path
               d="M 678,2272 H 4684 V 1741 H 678 Z"
               id="DejaVuSans-2212"
               transform="scale(0.015625)" />
            <path
               d="M 2419,4116 825,1625 h 1594 z m -166,550 h 794 V 1625 h 666 V 1100 H 3047 V 0 H 2419 V 1100 H 313 v 609 z"
               id="DejaVuSans-34"
               transform="scale(0.015625)" />
          </defs>
          <use
             xlink:href="#DejaVuSans-2212"
             id="use85"
             x="0"
             y="0"
             width="100%"
             height="100%" />
          <use
             x="83.789062"
             xlink:href="#DejaVuSans-30"
             id="use87"
             y="0"
             width="100%"
             height="100%" />
          <use
             x="147.41211"
             xlink:href="#DejaVuSans-2e"
             id="use89"
             y="0"
             width="100%"
             height="100%" />
          <use
             x="179.19922"
             xlink:href="#DejaVuSans-34"
             id="use91"
             y="0"
             width="100%"
             height="100%" />
        </g>
      </g>
    </g>
    <g
       id="ytick_2">
      <g
         id="line2d_5">
        <g
           id="g99">
          <use
             style="stroke:#000000;stroke-width:0.8"
             x="150.04111"
             xlink:href="#m06657ad4e0"
             y="200.13576"
             id="use97"
             width="100%"
             height="100%" />
        </g>
      </g>
      <g
         id="text_5">
        <!-- −0.2 -->
        <g
           transform="matrix(0.1,0,0,-0.1,118.7583,203.93497)"
           id="g113">
          <defs
             id="defs103">
            <path
               d="M 1228,531 H 3431 V 0 H 469 v 531 q 359,372 979,998 621,627 780,809 303,340 423,576 121,236 121,464 0,372 -261,606 -261,235 -680,235 -297,0 -627,-103 -329,-103 -704,-313 v 638 q 381,153 712,231 332,78 607,78 725,0 1156,-363 431,-362 431,-968 0,-288 -108,-546 -107,-257 -392,-607 -78,-91 -497,-524 Q 1991,1309 1228,531 Z"
               id="DejaVuSans-32"
               transform="scale(0.015625)" />
          </defs>
          <use
             xlink:href="#DejaVuSans-2212"
             id="use105"
             x="0"
             y="0"
             width="100%"
             height="100%" />
          <use
             x="83.789062"
             xlink:href="#DejaVuSans-30"
             id="use107"
             y="0"
             width="100%"
             height="100%" />
          <use
             x="147.41211"
             xlink:href="#DejaVuSans-2e"
             id="use109"
             y="0"
             width="100%"
             height="100%" />
          <use
             x="179.19922"
             xlink:href="#DejaVuSans-32"
             id="use111"
             y="0"
             width="100%"
             height="100%" />
        </g>
      </g>
    </g>
    <g
       id="ytick_3">
      <g
         id="line2d_6">
        <g
           id="g119">
          <use
             style="stroke:#000000;stroke-width:0.8"
             x="150.04111"
             xlink:href="#m06657ad4e0"
             y="174.18707"
             id="use117"
             width="100%"
             height="100%" />
        </g>
      </g>
      <g
         id="text_6">
        <!-- 0.0 -->
        <g
           transform="matrix(0.1,0,0,-0.1,127.13799,177.98628)"
           id="g128">
          <use
             xlink:href="#DejaVuSans-30"
             id="use122"
             x="0"
             y="0"
             width="100%"
             height="100%" />
          <use
             x="63.623047"
             xlink:href="#DejaVuSans-2e"
             id="use124"
             y="0"
             width="100%"
             height="100%" />
          <use
             x="95.410156"
             xlink:href="#DejaVuSans-30"
             id="use126"
             y="0"
             width="100%"
             height="100%" />
        </g>
      </g>
    </g>
    <g
       id="ytick_4">
      <g
         id="line2d_7">
        <g
           id="g134">
          <use
             style="stroke:#000000;stroke-width:0.8"
             x="150.04111"
             xlink:href="#m06657ad4e0"
             y="148.23837"
             id="use132"
             width="100%"
             height="100%" />
        </g>
      </g>
      <g
         id="text_7">
        <!-- 0.2 -->
        <g
           transform="matrix(0.1,0,0,-0.1,127.13799,152.0376)"
           id="g143">
          <use
             xlink:href="#DejaVuSans-30"
             id="use137"
             x="0"
             y="0"
             width="100%"
             height="100%" />
          <use
             x="63.623047"
             xlink:href="#DejaVuSans-2e"
             id="use139"
             y="0"
             width="100%"
             height="100%" />
          <use
             x="95.410156"
             xlink:href="#DejaVuSans-32"
             id="use141"
             y="0"
             width="100%"
             height="100%" />
        </g>
      </g>
    </g>
    <g
       id="ytick_5">
      <g
         id="line2d_8">
        <g
           id="g149">
          <use
             style="stroke:#000000;stroke-width:0.8"
             x="150.04111"
             xlink:href="#m06657ad4e0"
             y="122.2897"
             id="use147"
             width="100%"
             height="100%" />
        </g>
      </g>
      <g
         id="text_8">
        <!-- 0.4 -->
        <g
           transform="matrix(0.1,0,0,-0.1,127.13799,126.08891)"
           id="g158">
          <use
             xlink:href="#DejaVuSans-30"
             id="use152"
             x="0"
             y="0"
             width="100%"
             height="100%" />
          <use
             x="63.623047"
             xlink:href="#DejaVuSans-2e"
             id="use154"
             y="0"
             width="100%"
             height="100%" />
          <use
             x="95.410156"
             xlink:href="#DejaVuSans-34"
             id="use156"
             y="0"
             width="100%"
             height="100%" />
        </g>
      </g>
    </g>
    <g
       id="ytick_6">
      <g
         id="line2d_9">
        <g
           id="g164">
          <use
             style="stroke:#000000;stroke-width:0.8"
             x="150.04111"
             xlink:href="#m06657ad4e0"
             y="96.341011"
             id="use162"
             width="100%"
             height="100%" />
        </g>
      </g>
      <g
         id="text_9">
        <!-- 0.6 -->
        <g
           transform="matrix(0.1,0,0,-0.1,127.13799,100.14023)"
           id="g176">
          <defs
             id="defs168">
            <path
               d="m 2113,2584 q -425,0 -674,-291 -248,-290 -248,-796 0,-503 248,-796 249,-292 674,-292 425,0 673,292 248,293 248,796 0,506 -248,796 -248,291 -673,291 z m 1253,1979 v -575 q -238,112 -480,171 -242,60 -480,60 -625,0 -955,-422 -329,-422 -376,-1275 184,272 462,417 279,145 613,145 703,0 1111,-427 408,-426 408,-1160 0,-719 -425,-1154 -425,-434 -1131,-434 -810,0 -1238,620 -428,621 -428,1799 0,1106 525,1764 525,658 1409,658 238,0 480,-47 242,-47 505,-140 z"
               id="DejaVuSans-36"
               transform="scale(0.015625)" />
          </defs>
          <use
             xlink:href="#DejaVuSans-30"
             id="use170"
             x="0"
             y="0"
             width="100%"
             height="100%" />
          <use
             x="63.623047"
             xlink:href="#DejaVuSans-2e"
             id="use172"
             y="0"
             width="100%"
             height="100%" />
          <use
             x="95.410156"
             xlink:href="#DejaVuSans-36"
             id="use174"
             y="0"
             width="100%"
             height="100%" />
        </g>
      </g>
    </g>
    <g
       id="ytick_7">
      <g
         id="line2d_10">
        <g
           id="g182">
          <use
             style="stroke:#000000;stroke-width:0.8"
             x="150.04111"
             xlink:href="#m06657ad4e0"
             y="70.392319"
             id="use180"
             width="100%"
             height="100%" />
        </g>
      </g>
      <g
         id="text_10">
        <!-- 0.8 -->
        <g
           transform="matrix(0.1,0,0,-0.1,127.13799,74.191541)"
           id="g194">
          <defs
             id="defs186">
            <path
               d="m 2034,2216 q -450,0 -708,-241 -257,-241 -257,-662 0,-422 257,-663 258,-241 708,-241 450,0 709,242 260,243 260,662 0,421 -258,662 -257,241 -711,241 z m -631,268 q -406,100 -633,378 -226,279 -226,679 0,559 398,884 399,325 1092,325 697,0 1094,-325 397,-325 397,-884 0,-400 -227,-679 -226,-278 -629,-378 456,-106 710,-416 255,-309 255,-755 Q 3634,634 3220,271 2806,-91 2034,-91 1263,-91 848,271 434,634 434,1313 q 0,446 256,755 257,310 713,416 z m -231,997 q 0,-362 226,-565 227,-203 636,-203 407,0 636,203 230,203 230,565 0,363 -230,566 -229,203 -636,203 -409,0 -636,-203 -226,-203 -226,-566 z"
               id="DejaVuSans-38"
               transform="scale(0.015625)" />
          </defs>
          <use
             xlink:href="#DejaVuSans-30"
             id="use188"
             x="0"
             y="0"
             width="100%"
             height="100%" />
          <use
             x="63.623047"
             xlink:href="#DejaVuSans-2e"
             id="use190"
             y="0"
             width="100%"
             height="100%" />
          <use
             x="95.410156"
             xlink:href="#DejaVuSans-38"
             id="use192"
             y="0"
             width="100%"
             height="100%" />
        </g>
      </g>
    </g>
    <g
       id="ytick_8">
      <g
         id="line2d_11">
        <g
           id="g200">
          <use
             style="stroke:#000000;stroke-width:0.8"
             x="150.04111"
             xlink:href="#m06657ad4e0"
             y="44.443638"
             id="use198"
             width="100%"
             height="100%" />
        </g>
      </g>
      <g
         id="text_11">
        <!-- 1.0 -->
        <g
           transform="matrix(0.1,0,0,-0.1,127.13799,48.242855)"
           id="g209">
          <use
             xlink:href="#DejaVuSans-31"
             id="use203"
             x="0"
             y="0"
             width="100%"
             height="100%" />
          <use
             x="63.623047"
             xlink:href="#DejaVuSans-2e"
             id="use205"
             y="0"
             width="100%"
             height="100%" />
          <use
             x="95.410156"
             xlink:href="#DejaVuSans-30"
             id="use207"
             y="0"
             width="100%"
             height="100%" />
        </g>
      </g>
    </g>
  </g>
  <g
     id="line2d_12"
     transform="translate(-109.81767,-24.16)">
    <path
       clip-path="url(#p5fad704e42)"
       d="M 150.04111,174.18707 H 292.75889"
       style="fill:none;stroke:#000000;stroke-width:1.5;stroke-linecap:square"
       id="path214" />
  </g>
  <g
     id="line2d_13"
     transform="translate(-109.81767,-24.16)">
    <path
       clip-path="url(#p5fad704e42)"
       d="M 156.52828,252 V 34.56"
       style="fill:none;stroke:#000000;stroke-width:1.5;stroke-linecap:square"
       id="path217" />
  </g>
  <g
     id="line2d_14"
     transform="translate(-109.81767,-24.16)">
    <path
       clip-path="url(#p5fad704e42)"
       d="m 156.52828,44.443636 h 129.74343 v 0"
       style="fill:none;stroke:#1f77b4;stroke-width:1.5;stroke-linecap:square"
       id="path220" />
  </g>
  <g
     id="line2d_15"
     transform="translate(-109.81767,-24.16)">
    <path
       clip-path="url(#p5fad704e42)"
       d="M 156.52828,239.05878 286.27171,109.31535 v 0"
       style="fill:none;stroke:#ff7f0e;stroke-width:1.5;stroke-linecap:square"
       id="path223" />
  </g>
  <g
     id="line2d_16"
     transform="translate(-109.81767,-24.16)">
    <path
       clip-path="url(#p5fad704e42)"
       d="m 156.52828,152.56316 4.54103,4.38208 4.54101,4.06422 4.54102,3.74634 4.54102,3.42847 4.54102,3.1106 3.89231,2.41323 3.8923,2.17969 3.8923,1.94615 3.89231,1.71261 3.8923,1.47908 3.8923,1.24553 3.89231,1.012 3.8923,0.77846 3.8923,0.54492 3.8923,0.31139 3.89231,0.0778 3.8923,-0.15569 3.8923,-0.38923 3.89231,-0.62277 3.8923,-0.8563 3.8923,-1.08985 3.8923,-1.32338 3.89231,-1.55692 3.8923,-1.79046 3.8923,-2.024 3.89231,-2.25753 3.8923,-2.49108 3.8923,-2.72461 4.54102,-3.47388 4.54102,-3.79175 4.54102,-4.10963 3.8923,-3.77553 v 0"
       style="fill:none;stroke:#2ca02c;stroke-width:1.5;stroke-linecap:square"
       id="path226" />
  </g>
  <g
     id="line2d_17"
     transform="translate(-109.81767,-24.16)">
    <path
       clip-path="url(#p5fad704e42)"
       d="m 156.52828,174.18707 3.24359,-1.50219 3.24359,-1.27108 3.24358,-1.05214 3.24359,-0.84536 3.8923,-0.75861 3.8923,-0.49938 3.89231,-0.26117 3.8923,-0.044 4.54102,0.19515 4.54102,0.42879 5.18974,0.73331 5.83845,1.07559 7.13589,1.57507 11.67691,2.87368 10.37947,2.46617 6.48717,1.31365 5.18974,0.84541 5.18974,0.60875 4.54102,0.29937 3.8923,0.0567 3.89231,-0.14995 3.8923,-0.37765 3.8923,-0.62637 3.24359,-0.72713 3.24358,-0.92661 3.24359,-1.13826 3.24358,-1.36206 1.94615,-0.92972 v 0"
       style="fill:none;stroke:#d62728;stroke-width:1.5;stroke-linecap:square"
       id="path229" />
  </g>
  <g
     id="line2d_18"
     transform="translate(-109.81767,-24.16)">
    <path
       clip-path="url(#p5fad704e42)"
       d="m 156.52828,178.51185 3.89231,-0.10987 4.54102,-0.36935 5.18973,-0.66659 6.48718,-1.07987 25.29997,-4.48936 5.83845,-0.69449 5.83845,-0.46758 5.18974,-0.20593 h 5.18974 l 5.18974,0.20593 5.83845,0.46758 5.83845,0.69449 6.48718,0.99335 8.43332,1.5285 14.92049,2.74637 5.83846,0.82238 4.54102,0.43312 3.8923,0.1786 1.29743,0.0127 v 0"
       style="fill:none;stroke:#9467bd;stroke-width:1.5;stroke-linecap:square"
       id="path232" />
  </g>
  <g
     id="line2d_19"
     transform="translate(-109.81767,-24.16)">
    <path
       clip-path="url(#p5fad704e42)"
       d="m 156.52828,174.18707 10.37948,1.63205 6.48717,0.7918 5.83845,0.48434 5.18974,0.22535 5.18974,0.0266 5.83845,-0.19939 5.83846,-0.41902 7.13589,-0.75646 9.08204,-1.22055 18.16408,-2.5042 7.13589,-0.71265 5.83845,-0.37295 5.83845,-0.14687 5.18974,0.0761 5.83846,0.32277 5.83845,0.56108 6.48717,0.86019 8.43332,1.35181 v 0"
       style="fill:none;stroke:#8c564b;stroke-width:1.5;stroke-linecap:square"
       id="path235" />
  </g>
  <g
     id="line2d_20"
     transform="translate(-109.81767,-24.16)">
    <path
       clip-path="url(#p5fad704e42)"
       d="m 156.52828,171.09794 5.18974,0.103 5.83846,0.35044 6.48717,0.63778 7.7846,1.00914 21.40767,2.93014 6.48717,0.60201 5.83846,0.33493 5.83845,0.11428 5.83845,-0.11428 5.83846,-0.33493 6.48717,-0.60201 7.78461,-0.96811 25.29997,-3.38182 5.83845,-0.45094 5.83845,-0.21505 1.94615,-0.0146 v 0"
       style="fill:none;stroke:#e377c2;stroke-width:1.5;stroke-linecap:square"
       id="path238" />
  </g>
  <g
     id="line2d_21"
     transform="translate(-109.81767,-24.16)">
    <path
       clip-path="url(#p5fad704e42)"
       d="m 156.52828,174.18707 11.67691,-1.83826 6.48717,-0.79488 5.83846,-0.49005 5.18974,-0.22475 5.18973,-0.0136 5.18974,0.19609 5.83846,0.45321 6.48717,0.74761 7.7846,1.13515 19.46152,2.96112 6.48717,0.70102 5.83845,0.4009 5.18974,0.14451 5.18974,-0.0668 5.18974,-0.27622 5.83845,-0.54179 6.48717,-0.83952 9.08204,-1.4377 1.29743,-0.21608 v 0"
       style="fill:none;stroke:#7f7f7f;stroke-width:1.5;stroke-linecap:square"
       id="path241" />
  </g>
  <g
     id="line2d_22"
     transform="translate(-109.81767,-24.16)">
    <path
       clip-path="url(#p5fad704e42)"
       d="m 156.52828,178.51185 4.54103,-0.10551 4.54101,-0.31112 5.18974,-0.58662 5.83846,-0.9074 7.13588,-1.35812 18.16409,-3.59236 5.83845,-0.86263 5.18974,-0.5427 4.54102,-0.27412 4.54102,-0.0731 4.54102,0.13129 5.18973,0.39211 5.18974,0.62709 5.83846,0.93837 7.7846,1.51058 15.56921,3.10359 5.83846,0.9074 5.18974,0.58662 4.54102,0.31112 4.54101,0.10551 v 0"
       style="fill:none;stroke:#bcbd22;stroke-width:1.5;stroke-linecap:square"
       id="path244" />
  </g>
  <g
     id="line2d_23"
     transform="translate(-109.81767,-24.16)">
    <path
       clip-path="url(#p5fad704e42)"
       d="m 156.52828,174.18707 9.73076,2.81103 5.18974,1.28124 4.54102,0.91061 4.54102,0.66798 3.8923,0.35505 3.8923,0.14112 3.89231,-0.0773 3.8923,-0.29262 3.8923,-0.49714 4.54102,-0.81429 5.18974,-1.1904 5.83846,-1.58021 19.46151,-5.48505 4.54102,-0.97209 4.54102,-0.7453 3.8923,-0.43061 3.89231,-0.22169 3.8923,-0.005 3.8923,0.21331 3.89231,0.42403 4.54102,0.7411 4.54102,0.97238 5.18973,1.33402 7.78461,2.26478 0.64871,0.19459 v 0"
       style="fill:none;stroke:#17becf;stroke-width:1.5;stroke-linecap:square"
       id="path247" />
  </g>
  <g
     id="line2d_24"
     transform="translate(-109.81767,-24.16)">
    <path
       clip-path="url(#p5fad704e42)"
       d="m 156.52828,164.35802 3.24359,0.12138 3.24359,0.36112 3.24358,0.59184 3.24359,0.80784 3.8923,1.22584 3.8923,1.46385 4.54102,1.93854 7.13589,3.32822 8.43333,3.89653 4.54102,1.86833 3.8923,1.3828 3.8923,1.12935 3.24359,0.71859 3.24358,0.49732 3.24359,0.26393 3.24358,0.0241 3.24359,-0.21629 3.24359,-0.45144 3.24358,-0.67557 3.24359,-0.88323 3.8923,-1.30331 4.54102,-1.79737 5.18974,-2.31276 15.56921,-7.14421 4.54102,-1.72739 3.8923,-1.22584 3.24359,-0.80784 3.24358,-0.59184 3.24359,-0.36112 3.24358,-0.12138 v 0"
       style="fill:none;stroke:#1f77b4;stroke-width:1.5;stroke-linecap:square"
       id="path250" />
  </g>
  <g
     id="line2d_25"
     transform="translate(-109.81767,-24.16)">
    <path
       clip-path="url(#p5fad704e42)"
       d="m 156.52828,174.18707 7.13589,-5.82857 3.89231,-2.92965 3.24358,-2.20785 3.24359,-1.93722 2.59487,-1.3226 2.59486,-1.09788 2.59487,-0.85589 2.59487,-0.60049 2.59487,-0.3357 2.59487,-0.0657 2.59487,0.20522 2.59487,0.47281 2.59487,0.73287 2.59486,0.98128 2.59487,1.21418 2.59487,1.42789 3.24359,2.05078 3.8923,2.78348 4.54102,3.56654 14.92049,12.02117 3.24359,2.25357 3.24359,1.9949 2.59486,1.37645 2.59487,1.15762 2.59487,0.92048 2.59487,0.66879 2.59487,0.40646 2.59487,0.13763 2.59487,-0.13346 2.59486,-0.40255 2.59487,-0.66538 2.59487,-0.91781 2.59487,-1.15582 2.59487,-1.37565 3.24359,-1.9954 3.24358,-2.25564 3.8923,-2.97163 5.83846,-4.77672 0.64871,-0.5405 v 0"
       style="fill:none;stroke:#ff7f0e;stroke-width:1.5;stroke-linecap:square"
       id="path253" />
  </g>
  <g
     id="line2d_26"
     transform="translate(-109.81767,-24.16)">
    <path
       clip-path="url(#p5fad704e42)"
       d="m 156.52828,207.02689 1.94616,-0.14586 1.94615,-0.43626 1.94615,-0.72278 1.94615,-1.00287 1.94615,-1.27404 1.94615,-1.53386 1.94615,-1.78002 2.59487,-2.72863 2.59487,-3.09475 2.59487,-3.41196 3.24359,-4.62852 4.54102,-6.95191 11.02819,-17.22032 3.24358,-4.62456 3.24359,-4.21267 2.59487,-3.00358 2.59487,-2.62618 1.94615,-1.69685 1.94615,-1.44616 1.94615,-1.18265 1.94615,-0.90869 1.94615,-0.62666 1.94616,-0.33911 1.94615,-0.0485 1.94615,0.24246 1.94615,0.5313 1.94615,0.81545 1.94615,1.09238 1.94615,1.35963 1.94616,1.61485 1.94615,1.85577 2.59487,2.82043 2.59486,3.1749 3.24359,4.39049 3.8923,5.74346 5.18974,8.12722 7.13589,11.1783 3.8923,5.67342 3.24359,4.3083 2.59487,3.09475 2.59487,2.72863 1.94615,1.78002 1.94615,1.53386 1.94615,1.27404 1.94615,1.00287 1.94615,0.72278 1.94615,0.43626 1.94615,0.14586 v 0"
       style="fill:none;stroke:#2ca02c;stroke-width:1.5;stroke-linecap:square"
       id="path256" />
  </g>
  <g
     id="line2d_27"
     transform="translate(-109.81767,-24.16)">
    <path
       clip-path="url(#p5fad704e42)"
       d="m 156.52828,174.18707 6.48718,20.99623 3.24358,9.84979 3.24359,9.08977 2.59487,6.57335 1.94615,4.45366 1.94615,4.00108 1.94615,3.51302 1.94615,2.99378 1.94615,2.44799 1.29744,1.31786 1.29743,1.06034 1.29744,0.79867 1.29743,0.53384 1.29743,0.26691 1.29744,-0.001 1.29743,-0.26898 1.29744,-0.53586 1.29743,-0.8006 1.29744,-1.06217 1.29743,-1.31954 1.29744,-1.5717 1.94615,-2.81647 1.94615,-3.3446 1.94615,-3.843 1.94615,-4.3073 2.59487,-6.39866 2.59487,-7.05475 3.24358,-9.57081 3.89231,-12.27516 12.32562,-39.69764 3.24359,-9.41891 2.59487,-6.90079 2.59487,-6.21842 1.94615,-4.15659 1.94615,-3.68045 1.94615,-3.17162 1.94615,-2.63464 1.29744,-1.44634 1.29743,-1.19144 1.29743,-0.93185 1.29744,-0.66856 1.29743,-0.40262 1.29744,-0.13508 1.29743,0.133 1.29744,0.40058 1.29743,0.66658 1.29743,0.92996 1.29744,1.18969 1.29743,1.44473 1.29744,1.69407 1.94615,2.99378 1.94615,3.51302 1.94615,4.00109 1.94615,4.45365 2.59487,6.57335 2.59487,7.20354 3.24359,9.71669 3.8923,12.38649 3.24358,10.62908 v 0"
       style="fill:none;stroke:#d62728;stroke-width:1.5;stroke-linecap:square"
       id="path259" />
  </g>
  <g
     id="patch_3"
     transform="translate(-109.81767,-24.16)">
    <path
       d="M 150.04111,252 V 34.56"
       style="fill:none;stroke:#000000;stroke-width:0.8;stroke-linecap:square;stroke-linejoin:miter"
       id="path262" />
  </g>
  <g
     id="patch_4"
     transform="translate(-109.81767,-24.16)">
    <path
       d="M 292.75889,252 V 34.56"
       style="fill:none;stroke:#000000;stroke-width:0.8;stroke-linecap:square;stroke-linejoin:miter"
       id="path265" />
  </g>
  <g
     id="patch_5"
     transform="translate(-109.81767,-24.16)">
    <path
       d="M 150.04111,252 H 292.75889"
       style="fill:none;stroke:#000000;stroke-width:0.8;stroke-linecap:square;stroke-linejoin:miter"
       id="path268" />
  </g>
  <g
     id="patch_6"
     transform="translate(-109.81767,-24.16)">
    <path
       d="M 150.04111,34.56 H 292.75889"
       style="fill:none;stroke:#000000;stroke-width:0.8;stroke-linecap:square;stroke-linejoin:miter"
       id="path271" />
  </g>
  <g
     id="patch_7"
     transform="translate(-109.81767,-24.16)">
    <path
       d="m 305.72577,226.24342 h 37.25593 q 1.666,0 1.666,-1.666 V 40.391 q 0,-1.666 -1.666,-1.666 h -37.25593 q -1.666,0 -1.666,1.666 v 184.18642 q 0,1.666 1.666,1.666 z"
       style="opacity:0.8;fill:#ffffff;stroke:#cccccc;stroke-linejoin:miter"
       id="path274" />
  </g>
  <g
     id="g4209"
     transform="translate(-108.7902,-24.16)">
    <use
       xlink:href="#DejaVuSans-42"
       id="use281"
       x="0"
       y="0"
       width="100%"
       height="100%"
       transform="matrix(0.1,0,0,-0.1,317.75452,49.655437)" />
    <use
       x="68.603516"
       xlink:href="#DejaVuSans-6e"
       id="use283"
       y="0"
       width="100%"
       height="100%"
       transform="matrix(0.07,0,0,-0.07,319.27216,51.815437)" />
  </g>
  <g
     id="line2d_28"
     transform="translate(-109.81767,-24.16)">
    <path
       d="m 307.39177,59.314123 h 16.66001"
       style="fill:none;stroke:#1f77b4;stroke-width:1.5;stroke-linecap:square"
       id="path288" />
  </g>
  <g
     id="line2d_29"
     transform="translate(-109.81767,-24.16)" />
  <g
     id="text_13"
     transform="translate(-109.81767,-24.16)">
    <!-- 0 -->
    <g
       transform="matrix(0.0833,0,0,-0.0833,330.71577,62.229623)"
       id="g294">
      <use
         xlink:href="#DejaVuSans-30"
         id="use292"
         x="0"
         y="0"
         width="100%"
         height="100%" />
    </g>
  </g>
  <g
     id="line2d_30"
     transform="translate(-109.81767,-24.16)">
    <path
       d="m 307.39177,71.541002 h 16.66001"
       style="fill:none;stroke:#ff7f0e;stroke-width:1.5;stroke-linecap:square"
       id="path297" />
  </g>
  <g
     id="line2d_31"
     transform="translate(-109.81767,-24.16)" />
  <g
     id="text_14"
     transform="translate(-109.81767,-24.16)">
    <!-- 1 -->
    <g
       transform="matrix(0.0833,0,0,-0.0833,330.71577,74.456502)"
       id="g303">
      <use
         xlink:href="#DejaVuSans-31"
         id="use301"
         x="0"
         y="0"
         width="100%"
         height="100%" />
    </g>
  </g>
  <g
     id="line2d_32"
     transform="translate(-109.81767,-24.16)">
    <path
       d="m 307.39177,83.76788 h 16.66001"
       style="fill:none;stroke:#2ca02c;stroke-width:1.5;stroke-linecap:square"
       id="path306" />
  </g>
  <g
     id="line2d_33"
     transform="translate(-109.81767,-24.16)" />
  <g
     id="text_15"
     transform="translate(-109.81767,-24.16)">
    <!-- 2 -->
    <g
       transform="matrix(0.0833,0,0,-0.0833,330.71577,86.68338)"
       id="g312">
      <use
         xlink:href="#DejaVuSans-32"
         id="use310"
         x="0"
         y="0"
         width="100%"
         height="100%" />
    </g>
  </g>
  <g
     id="line2d_34"
     transform="translate(-109.81767,-24.16)">
    <path
       d="m 307.39177,95.994758 h 16.66001"
       style="fill:none;stroke:#d62728;stroke-width:1.5;stroke-linecap:square"
       id="path315" />
  </g>
  <g
     id="line2d_35"
     transform="translate(-109.81767,-24.16)" />
  <g
     id="text_16"
     transform="translate(-109.81767,-24.16)">
    <!-- 3 -->
    <g
       transform="matrix(0.0833,0,0,-0.0833,330.71577,98.910258)"
       id="g324">
      <defs
         id="defs320">
        <path
           d="m 2597,2516 q 453,-97 707,-404 255,-306 255,-756 0,-690 -475,-1069 -475,-378 -1350,-378 -293,0 -604,58 -311,58 -642,174 v 609 q 262,-153 574,-231 313,-78 654,-78 593,0 904,234 311,234 311,681 0,413 -289,645 -289,233 -804,233 h -544 v 519 h 569 q 465,0 712,186 247,186 247,536 0,359 -255,551 -254,193 -729,193 -260,0 -557,-57 -297,-56 -653,-174 v 562 q 360,100 674,150 314,50 592,50 719,0 1137,-327 419,-326 419,-882 0,-388 -222,-655 -222,-267 -631,-370 z"
           id="DejaVuSans-33"
           transform="scale(0.015625)" />
      </defs>
      <use
         xlink:href="#DejaVuSans-33"
         id="use322"
         x="0"
         y="0"
         width="100%"
         height="100%" />
    </g>
  </g>
  <g
     id="line2d_36"
     transform="translate(-109.81767,-24.16)">
    <path
       d="m 307.39177,108.22164 h 16.66001"
       style="fill:none;stroke:#9467bd;stroke-width:1.5;stroke-linecap:square"
       id="path327" />
  </g>
  <g
     id="line2d_37"
     transform="translate(-109.81767,-24.16)" />
  <g
     id="text_17"
     transform="translate(-109.81767,-24.16)">
    <!-- 4 -->
    <g
       transform="matrix(0.0833,0,0,-0.0833,330.71577,111.13714)"
       id="g333">
      <use
         xlink:href="#DejaVuSans-34"
         id="use331"
         x="0"
         y="0"
         width="100%"
         height="100%" />
    </g>
  </g>
  <g
     id="line2d_38"
     transform="translate(-109.81767,-24.16)">
    <path
       d="m 307.39177,120.44851 h 16.66001"
       style="fill:none;stroke:#8c564b;stroke-width:1.5;stroke-linecap:square"
       id="path336" />
  </g>
  <g
     id="line2d_39"
     transform="translate(-109.81767,-24.16)" />
  <g
     id="text_18"
     transform="translate(-109.81767,-24.16)">
    <!-- 5 -->
    <g
       transform="matrix(0.0833,0,0,-0.0833,330.71577,123.36401)"
       id="g342">
      <use
         xlink:href="#DejaVuSans-35"
         id="use340"
         x="0"
         y="0"
         width="100%"
         height="100%" />
    </g>
  </g>
  <g
     id="line2d_40"
     transform="translate(-109.81767,-24.16)">
    <path
       d="m 307.39177,132.67539 h 16.66001"
       style="fill:none;stroke:#e377c2;stroke-width:1.5;stroke-linecap:square"
       id="path345" />
  </g>
  <g
     id="line2d_41"
     transform="translate(-109.81767,-24.16)" />
  <g
     id="text_19"
     transform="translate(-109.81767,-24.16)">
    <!-- 6 -->
    <g
       transform="matrix(0.0833,0,0,-0.0833,330.71577,135.59089)"
       id="g351">
      <use
         xlink:href="#DejaVuSans-36"
         id="use349"
         x="0"
         y="0"
         width="100%"
         height="100%" />
    </g>
  </g>
  <g
     id="line2d_42"
     transform="translate(-109.81767,-24.16)">
    <path
       d="m 307.39177,144.90227 h 16.66001"
       style="fill:none;stroke:#7f7f7f;stroke-width:1.5;stroke-linecap:square"
       id="path354" />
  </g>
  <g
     id="line2d_43"
     transform="translate(-109.81767,-24.16)" />
  <g
     id="text_20"
     transform="translate(-109.81767,-24.16)">
    <!-- 7 -->
    <g
       transform="matrix(0.0833,0,0,-0.0833,330.71577,147.81777)"
       id="g363">
      <defs
         id="defs359">
        <path
           d="M 525,4666 H 3525 V 4397 L 1831,0 H 1172 L 2766,4134 H 525 Z"
           id="DejaVuSans-37"
           transform="scale(0.015625)" />
      </defs>
      <use
         xlink:href="#DejaVuSans-37"
         id="use361"
         x="0"
         y="0"
         width="100%"
         height="100%" />
    </g>
  </g>
  <g
     id="line2d_44"
     transform="translate(-109.81767,-24.16)">
    <path
       d="m 307.39177,157.12915 h 16.66001"
       style="fill:none;stroke:#bcbd22;stroke-width:1.5;stroke-linecap:square"
       id="path366" />
  </g>
  <g
     id="line2d_45"
     transform="translate(-109.81767,-24.16)" />
  <g
     id="text_21"
     transform="translate(-109.81767,-24.16)">
    <!-- 8 -->
    <g
       transform="matrix(0.0833,0,0,-0.0833,330.71577,160.04465)"
       id="g372">
      <use
         xlink:href="#DejaVuSans-38"
         id="use370"
         x="0"
         y="0"
         width="100%"
         height="100%" />
    </g>
  </g>
  <g
     id="line2d_46"
     transform="translate(-109.81767,-24.16)">
    <path
       d="m 307.39177,169.35603 h 16.66001"
       style="fill:none;stroke:#17becf;stroke-width:1.5;stroke-linecap:square"
       id="path375" />
  </g>
  <g
     id="line2d_47"
     transform="translate(-109.81767,-24.16)" />
  <g
     id="text_22"
     transform="translate(-109.81767,-24.16)">
    <!-- 9 -->
    <g
       transform="matrix(0.0833,0,0,-0.0833,330.71577,172.27153)"
       id="g384">
      <defs
         id="defs380">
        <path
           d="m 703,97 v 575 q 238,-113 481,-172 244,-59 479,-59 625,0 954,420 330,420 377,1277 -181,-269 -460,-413 -278,-144 -615,-144 -700,0 -1108,423 -408,424 -408,1159 0,718 425,1152 425,435 1131,435 810,0 1236,-621 427,-620 427,-1801 Q 3622,1225 3098,567 2575,-91 1691,-91 1453,-91 1209,-44 966,3 703,97 Z m 1256,1978 q 425,0 673,290 249,291 249,798 0,503 -249,795 -248,292 -673,292 -425,0 -673,-292 -248,-292 -248,-795 0,-507 248,-798 248,-290 673,-290 z"
           id="DejaVuSans-39"
           transform="scale(0.015625)" />
      </defs>
      <use
         xlink:href="#DejaVuSans-39"
         id="use382"
         x="0"
         y="0"
         width="100%"
         height="100%" />
    </g>
  </g>
  <g
     id="line2d_48"
     transform="translate(-109.81767,-24.16)">
    <path
       d="m 307.39177,181.5829 h 16.66001"
       style="fill:none;stroke:#1f77b4;stroke-width:1.5;stroke-linecap:square"
       id="path387" />
  </g>
  <g
     id="line2d_49"
     transform="translate(-109.81767,-24.16)" />
  <g
     id="text_23"
     transform="translate(-109.81767,-24.16)">
    <!-- 10 -->
    <g
       transform="matrix(0.0833,0,0,-0.0833,330.71577,184.4984)"
       id="g395">
      <use
         xlink:href="#DejaVuSans-31"
         id="use391"
         x="0"
         y="0"
         width="100%"
         height="100%" />
      <use
         x="63.623047"
         xlink:href="#DejaVuSans-30"
         id="use393"
         y="0"
         width="100%"
         height="100%" />
    </g>
  </g>
  <g
     id="line2d_50"
     transform="translate(-109.81767,-24.16)">
    <path
       d="m 307.39177,193.80978 h 16.66001"
       style="fill:none;stroke:#ff7f0e;stroke-width:1.5;stroke-linecap:square"
       id="path398" />
  </g>
  <g
     id="line2d_51"
     transform="translate(-109.81767,-24.16)" />
  <g
     id="text_24"
     transform="translate(-109.81767,-24.16)">
    <!-- 11 -->
    <g
       transform="matrix(0.0833,0,0,-0.0833,330.71577,196.72528)"
       id="g406">
      <use
         xlink:href="#DejaVuSans-31"
         id="use402"
         x="0"
         y="0"
         width="100%"
         height="100%" />
      <use
         x="63.623047"
         xlink:href="#DejaVuSans-31"
         id="use404"
         y="0"
         width="100%"
         height="100%" />
    </g>
  </g>
  <g
     id="line2d_52"
     transform="translate(-109.81767,-24.16)">
    <path
       d="m 307.39177,206.03666 h 16.66001"
       style="fill:none;stroke:#2ca02c;stroke-width:1.5;stroke-linecap:square"
       id="path409" />
  </g>
  <g
     id="line2d_53"
     transform="translate(-109.81767,-24.16)" />
  <g
     id="text_25"
     transform="translate(-109.81767,-24.16)">
    <!-- 12 -->
    <g
       transform="matrix(0.0833,0,0,-0.0833,330.71577,208.95216)"
       id="g417">
      <use
         xlink:href="#DejaVuSans-31"
         id="use413"
         x="0"
         y="0"
         width="100%"
         height="100%" />
      <use
         x="63.623047"
         xlink:href="#DejaVuSans-32"
         id="use415"
         y="0"
         width="100%"
         height="100%" />
    </g>
  </g>
  <g
     id="line2d_54"
     transform="translate(-109.81767,-24.16)">
    <path
       d="m 307.39177,218.26354 h 16.66001"
       style="fill:none;stroke:#d62728;stroke-width:1.5;stroke-linecap:square"
       id="path420" />
  </g>
  <g
     id="line2d_55"
     transform="translate(-109.81767,-24.16)" />
  <g
     id="text_26"
     transform="translate(-109.81767,-24.16)">
    <!-- 13 -->
    <g
       transform="matrix(0.0833,0,0,-0.0833,330.71577,221.17904)"
       id="g428">
      <use
         xlink:href="#DejaVuSans-31"
         id="use424"
         x="0"
         y="0"
         width="100%"
         height="100%" />
      <use
         x="63.623047"
         xlink:href="#DejaVuSans-33"
         id="use426"
         y="0"
         width="100%"
         height="100%" />
    </g>
  </g>
  <defs
     id="defs437">
    <clipPath
       id="p5fad704e42">
      <rect
         height="217.44"
         width="142.71777"
         x="150.04111"
         y="34.560001"
         id="rect434" />
    </clipPath>
  </defs>
</svg>
