<?xml version="1.0" encoding="UTF-8"?>
<!DOCTYPE svg PUBLIC "-//W3C//DTD SVG 1.1//EN" "http://www.w3.org/Graphics/SVG/1.1/DTD/svg11.dtd">
<svg width="900" height="425" viewBox="-150 0 750 425" xmlns="http://www.w3.org/2000/svg">
<line x1="0" y1="0" x2="0" y2="300" style="stroke:black;stroke-width:1"></line>
<text x="0" y="350" fill="black" text-anchor="middle" alignment-baseline="central" font-family="Arial" font-size="30">0</text>
<text x="0" y="400" fill="black" text-anchor="middle" alignment-baseline="central" font-family="Arial" font-size="30">1</text>
<line x1="0" y1="150" x2="200" y2="75" style="stroke:black;stroke-width:2"></line>
<circle cx="0" cy="150" r="5" fill="red"></circle>
<line x1="0" y1="150" x2="200" y2="225" style="stroke:black;stroke-width:2"></line>
<circle cx="0" cy="150" r="5" fill="red"></circle>
<line x1="200" y1="0" x2="200" y2="300" style="stroke:black;stroke-width:1"></line>
<text x="200" y="350" fill="black" text-anchor="middle" alignment-baseline="central" font-family="Arial" font-size="30">1</text>
<text x="200" y="400" fill="black" text-anchor="middle" alignment-baseline="central" font-family="Arial" font-size="30">2</text>
<line x1="200" y1="75" x2="400" y2="37.5" style="stroke:black;stroke-width:2"></line>
<circle cx="200" cy="75" r="5" fill="red"></circle>
<line x1="200" y1="75" x2="400" y2="112.5" style="stroke:black;stroke-width:2"></line>
<circle cx="200" cy="75" r="5" fill="red"></circle>
<line x1="200" y1="225" x2="400" y2="187.5" style="stroke:black;stroke-width:2"></line>
<circle cx="200" cy="225" r="5" fill="red"></circle>
<line x1="200" y1="225" x2="400" y2="262.5" style="stroke:black;stroke-width:2"></line>
<circle cx="200" cy="225" r="5" fill="red"></circle>
<line x1="400" y1="0" x2="400" y2="300" style="stroke:black;stroke-width:1"></line>
<text x="400" y="350" fill="black" text-anchor="middle" alignment-baseline="central" font-family="Arial" font-size="30">2</text>
<text x="400" y="400" fill="black" text-anchor="middle" alignment-baseline="central" font-family="Arial" font-size="30">4</text>
<line x1="400" y1="37.5" x2="600" y2="18.75" style="stroke:black;stroke-width:2"></line>
<circle cx="400" cy="37.5" r="5" fill="red"></circle>
<line x1="400" y1="37.5" x2="600" y2="56.25" style="stroke:black;stroke-width:2"></line>
<circle cx="400" cy="37.5" r="5" fill="red"></circle>
<line x1="400" y1="112.5" x2="600" y2="93.75" style="stroke:black;stroke-width:2"></line>
<circle cx="400" cy="112.5" r="5" fill="red"></circle>
<line x1="400" y1="112.5" x2="600" y2="131.25" style="stroke:black;stroke-width:2"></line>
<circle cx="400" cy="112.5" r="5" fill="red"></circle>
<line x1="400" y1="187.5" x2="600" y2="168.75" style="stroke:black;stroke-width:2"></line>
<circle cx="400" cy="187.5" r="5" fill="red"></circle>
<line x1="400" y1="187.5" x2="600" y2="206.25" style="stroke:black;stroke-width:2"></line>
<circle cx="400" cy="187.5" r="5" fill="red"></circle>
<line x1="400" y1="262.5" x2="600" y2="243.75" style="stroke:black;stroke-width:2"></line>
<circle cx="400" cy="262.5" r="5" fill="red"></circle>
<line x1="400" y1="262.5" x2="600" y2="281.25" style="stroke:black;stroke-width:2"></line>
<circle cx="400" cy="262.5" r="5" fill="red"></circle>
<line x1="600" y1="0" x2="600" y2="300" style="stroke:black;stroke-width:1"></line>
<text x="600" y="350" fill="black" text-anchor="middle" alignment-baseline="central" font-family="Arial" font-size="30">3</text>
<text x="600" y="400" fill="black" text-anchor="middle" alignment-baseline="central" font-family="Arial" font-size="30">8</text>
<circle cx="600" cy="18.75" r="5" fill="red"></circle>
<circle cx="600" cy="56.25" r="5" fill="red"></circle>
<circle cx="600" cy="93.75" r="5" fill="red"></circle>
<circle cx="600" cy="131.25" r="5" fill="red"></circle>
<circle cx="600" cy="168.75" r="5" fill="red"></circle>
<circle cx="600" cy="206.25" r="5" fill="red"></circle>
<circle cx="600" cy="243.75" r="5" fill="red"></circle>
<circle cx="600" cy="281.25" r="5" fill="red"></circle>
<text x="-20" y="350" fill="black" text-anchor="end" alignment-baseline="central" font-family="Arial" font-size="30">Generations: </text>
<text x="-20" y="400" fill="black" text-anchor="end" alignment-baseline="central" font-family="Arial" font-size="30">Nodes: </text>
</svg>