<?xml version="1.0" encoding="utf-8" ?>
<svg baseProfile="tiny" height="100%" version="1.2" width="100%" xmlns="http://www.w3.org/2000/svg" xmlns:ev="http://www.w3.org/2001/xml-events" xmlns:xlink="http://www.w3.org/1999/xlink"><defs><line id="ltick" stroke="green" stroke-width="2" x1="0" x2="0" y1="0" y2="20" /><line id="stick" stroke="green" stroke-width="1" x1="0" x2="0" y1="0" y2="10" /></defs><rect fill="beige" height="70" width="1050" x="0" y="0" /><use x="25" xlink:href="#ltick" y="0" /><use x="25" xlink:href="#ltick" y="50" /><text text-anchor="middle" x="25" y="40">0</text><use x="30" xlink:href="#stick" y="0" /><use x="30" xlink:href="#stick" y="60" /><use x="35" xlink:href="#stick" y="0" /><use x="35" xlink:href="#stick" y="60" /><use x="40" xlink:href="#stick" y="0" /><use x="40" xlink:href="#stick" y="60" /><use x="45" xlink:href="#stick" y="0" /><use x="45" xlink:href="#stick" y="60" /><use x="50" xlink:href="#stick" y="0" /><use x="50" xlink:href="#stick" y="60" /><use x="55" xlink:href="#stick" y="0" /><use x="55" xlink:href="#stick" y="60" /><use x="60" xlink:href="#stick" y="0" /><use x="60" xlink:href="#stick" y="60" /><use x="65" xlink:href="#stick" y="0" /><use x="65" xlink:href="#stick" y="60" /><use x="70" xlink:href="#stick" y="0" /><use x="70" xlink:href="#stick" y="60" /><use x="75" xlink:href="#ltick" y="0" /><use x="75" xlink:href="#ltick" y="50" /><text text-anchor="middle" x="75" y="40">1</text><use x="80" xlink:href="#stick" y="0" /><use x="80" xlink:href="#stick" y="60" /><use x="85" xlink:href="#stick" y="0" /><use x="85" xlink:href="#stick" y="60" /><use x="90" xlink:href="#stick" y="0" /><use x="90" xlink:href="#stick" y="60" /><use x="95" xlink:href="#stick" y="0" /><use x="95" xlink:href="#stick" y="60" /><use x="100" xlink:href="#stick" y="0" /><use x="100" xlink:href="#stick" y="60" /><use x="105" xlink:href="#stick" y="0" /><use x="105" xlink:href="#stick" y="60" /><use x="110" xlink:href="#stick" y="0" /><use x="110" xlink:href="#stick" y="60" /><use x="115" xlink:href="#stick" y="0" /><use x="115" xlink:href="#stick" y="60" /><use x="120" xlink:href="#stick" y="0" /><use x="120" xlink:href="#stick" y="60" /><use x="125" xlink:href="#ltick" y="0" /><use x="125" xlink:href="#ltick" y="50" /><text text-anchor="middle" x="125" y="40">2</text><use x="130" xlink:href="#stick" y="0" /><use x="130" xlink:href="#stick" y="60" /><use x="135" xlink:href="#stick" y="0" /><use x="135" xlink:href="#stick" y="60" /><use x="140" xlink:href="#stick" y="0" /><use x="140" xlink:href="#stick" y="60" /><use x="145" xlink:href="#stick" y="0" /><use x="145" xlink:href="#stick" y="60" /><use x="150" xlink:href="#stick" y="0" /><use x="150" xlink:href="#stick" y="60" /><use x="155" xlink:href="#stick" y="0" /><use x="155" xlink:href="#stick" y="60" /><use x="160" xlink:href="#stick" y="0" /><use x="160" xlink:href="#stick" y="60" /><use x="165" xlink:href="#stick" y="0" /><use x="165" xlink:href="#stick" y="60" /><use x="170" xlink:href="#stick" y="0" /><use x="170" xlink:href="#stick" y="60" /><use x="175" xlink:href="#ltick" y="0" /><use x="175" xlink:href="#ltick" y="50" /><text text-anchor="middle" x="175" y="40">3</text><use x="180" xlink:href="#stick" y="0" /><use x="180" xlink:href="#stick" y="60" /><use x="185" xlink:href="#stick" y="0" /><use x="185" xlink:href="#stick" y="60" /><use x="190" xlink:href="#stick" y="0" /><use x="190" xlink:href="#stick" y="60" /><use x="195" xlink:href="#stick" y="0" /><use x="195" xlink:href="#stick" y="60" /><use x="200" xlink:href="#stick" y="0" /><use x="200" xlink:href="#stick" y="60" /><use x="205" xlink:href="#stick" y="0" /><use x="205" xlink:href="#stick" y="60" /><use x="210" xlink:href="#stick" y="0" /><use x="210" xlink:href="#stick" y="60" /><use x="215" xlink:href="#stick" y="0" /><use x="215" xlink:href="#stick" y="60" /><use x="220" xlink:href="#stick" y="0" /><use x="220" xlink:href="#stick" y="60" /><use x="225" xlink:href="#ltick" y="0" /><use x="225" xlink:href="#ltick" y="50" /><text text-anchor="middle" x="225" y="40">4</text><use x="230" xlink:href="#stick" y="0" /><use x="230" xlink:href="#stick" y="60" /><use x="235" xlink:href="#stick" y="0" /><use x="235" xlink:href="#stick" y="60" /><use x="240" xlink:href="#stick" y="0" /><use x="240" xlink:href="#stick" y="60" /><use x="245" xlink:href="#stick" y="0" /><use x="245" xlink:href="#stick" y="60" /><use x="250" xlink:href="#stick" y="0" /><use x="250" xlink:href="#stick" y="60" /><use x="255" xlink:href="#stick" y="0" /><use x="255" xlink:href="#stick" y="60" /><use x="260" xlink:href="#stick" y="0" /><use x="260" xlink:href="#stick" y="60" /><use x="265" xlink:href="#stick" y="0" /><use x="265" xlink:href="#stick" y="60" /><use x="270" xlink:href="#stick" y="0" /><use x="270" xlink:href="#stick" y="60" /><use x="275" xlink:href="#ltick" y="0" /><use x="275" xlink:href="#ltick" y="50" /><text text-anchor="middle" x="275" y="40">5</text><use x="280" xlink:href="#stick" y="0" /><use x="280" xlink:href="#stick" y="60" /><use x="285" xlink:href="#stick" y="0" /><use x="285" xlink:href="#stick" y="60" /><use x="290" xlink:href="#stick" y="0" /><use x="290" xlink:href="#stick" y="60" /><use x="295" xlink:href="#stick" y="0" /><use x="295" xlink:href="#stick" y="60" /><use x="300" xlink:href="#stick" y="0" /><use x="300" xlink:href="#stick" y="60" /><use x="305" xlink:href="#stick" y="0" /><use x="305" xlink:href="#stick" y="60" /><use x="310" xlink:href="#stick" y="0" /><use x="310" xlink:href="#stick" y="60" /><use x="315" xlink:href="#stick" y="0" /><use x="315" xlink:href="#stick" y="60" /><use x="320" xlink:href="#stick" y="0" /><use x="320" xlink:href="#stick" y="60" /><use x="325" xlink:href="#ltick" y="0" /><use x="325" xlink:href="#ltick" y="50" /><text text-anchor="middle" x="325" y="40">6</text><use x="330" xlink:href="#stick" y="0" /><use x="330" xlink:href="#stick" y="60" /><use x="335" xlink:href="#stick" y="0" /><use x="335" xlink:href="#stick" y="60" /><use x="340" xlink:href="#stick" y="0" /><use x="340" xlink:href="#stick" y="60" /><use x="345" xlink:href="#stick" y="0" /><use x="345" xlink:href="#stick" y="60" /><use x="350" xlink:href="#stick" y="0" /><use x="350" xlink:href="#stick" y="60" /><use x="355" xlink:href="#stick" y="0" /><use x="355" xlink:href="#stick" y="60" /><use x="360" xlink:href="#stick" y="0" /><use x="360" xlink:href="#stick" y="60" /><use x="365" xlink:href="#stick" y="0" /><use x="365" xlink:href="#stick" y="60" /><use x="370" xlink:href="#stick" y="0" /><use x="370" xlink:href="#stick" y="60" /><use x="375" xlink:href="#ltick" y="0" /><use x="375" xlink:href="#ltick" y="50" /><text text-anchor="middle" x="375" y="40">7</text><use x="380" xlink:href="#stick" y="0" /><use x="380" xlink:href="#stick" y="60" /><use x="385" xlink:href="#stick" y="0" /><use x="385" xlink:href="#stick" y="60" /><use x="390" xlink:href="#stick" y="0" /><use x="390" xlink:href="#stick" y="60" /><use x="395" xlink:href="#stick" y="0" /><use x="395" xlink:href="#stick" y="60" /><use x="400" xlink:href="#stick" y="0" /><use x="400" xlink:href="#stick" y="60" /><use x="405" xlink:href="#stick" y="0" /><use x="405" xlink:href="#stick" y="60" /><use x="410" xlink:href="#stick" y="0" /><use x="410" xlink:href="#stick" y="60" /><use x="415" xlink:href="#stick" y="0" /><use x="415" xlink:href="#stick" y="60" /><use x="420" xlink:href="#stick" y="0" /><use x="420" xlink:href="#stick" y="60" /><use x="425" xlink:href="#ltick" y="0" /><use x="425" xlink:href="#ltick" y="50" /><text text-anchor="middle" x="425" y="40">8</text><use x="430" xlink:href="#stick" y="0" /><use x="430" xlink:href="#stick" y="60" /><use x="435" xlink:href="#stick" y="0" /><use x="435" xlink:href="#stick" y="60" /><use x="440" xlink:href="#stick" y="0" /><use x="440" xlink:href="#stick" y="60" /><use x="445" xlink:href="#stick" y="0" /><use x="445" xlink:href="#stick" y="60" /><use x="450" xlink:href="#stick" y="0" /><use x="450" xlink:href="#stick" y="60" /><use x="455" xlink:href="#stick" y="0" /><use x="455" xlink:href="#stick" y="60" /><use x="460" xlink:href="#stick" y="0" /><use x="460" xlink:href="#stick" y="60" /><use x="465" xlink:href="#stick" y="0" /><use x="465" xlink:href="#stick" y="60" /><use x="470" xlink:href="#stick" y="0" /><use x="470" xlink:href="#stick" y="60" /><use x="475" xlink:href="#ltick" y="0" /><use x="475" xlink:href="#ltick" y="50" /><text text-anchor="middle" x="475" y="40">9</text><use x="480" xlink:href="#stick" y="0" /><use x="480" xlink:href="#stick" y="60" /><use x="485" xlink:href="#stick" y="0" /><use x="485" xlink:href="#stick" y="60" /><use x="490" xlink:href="#stick" y="0" /><use x="490" xlink:href="#stick" y="60" /><use x="495" xlink:href="#stick" y="0" /><use x="495" xlink:href="#stick" y="60" /><use x="500" xlink:href="#stick" y="0" /><use x="500" xlink:href="#stick" y="60" /><use x="505" xlink:href="#stick" y="0" /><use x="505" xlink:href="#stick" y="60" /><use x="510" xlink:href="#stick" y="0" /><use x="510" xlink:href="#stick" y="60" /><use x="515" xlink:href="#stick" y="0" /><use x="515" xlink:href="#stick" y="60" /><use x="520" xlink:href="#stick" y="0" /><use x="520" xlink:href="#stick" y="60" /><use x="525" xlink:href="#ltick" y="0" /><use x="525" xlink:href="#ltick" y="50" /><text text-anchor="middle" x="525" y="40">10</text><use x="530" xlink:href="#stick" y="0" /><use x="530" xlink:href="#stick" y="60" /><use x="535" xlink:href="#stick" y="0" /><use x="535" xlink:href="#stick" y="60" /><use x="540" xlink:href="#stick" y="0" /><use x="540" xlink:href="#stick" y="60" /><use x="545" xlink:href="#stick" y="0" /><use x="545" xlink:href="#stick" y="60" /><use x="550" xlink:href="#stick" y="0" /><use x="550" xlink:href="#stick" y="60" /><use x="555" xlink:href="#stick" y="0" /><use x="555" xlink:href="#stick" y="60" /><use x="560" xlink:href="#stick" y="0" /><use x="560" xlink:href="#stick" y="60" /><use x="565" xlink:href="#stick" y="0" /><use x="565" xlink:href="#stick" y="60" /><use x="570" xlink:href="#stick" y="0" /><use x="570" xlink:href="#stick" y="60" /><use x="575" xlink:href="#ltick" y="0" /><use x="575" xlink:href="#ltick" y="50" /><text text-anchor="middle" x="575" y="40">11</text><use x="580" xlink:href="#stick" y="0" /><use x="580" xlink:href="#stick" y="60" /><use x="585" xlink:href="#stick" y="0" /><use x="585" xlink:href="#stick" y="60" /><use x="590" xlink:href="#stick" y="0" /><use x="590" xlink:href="#stick" y="60" /><use x="595" xlink:href="#stick" y="0" /><use x="595" xlink:href="#stick" y="60" /><use x="600" xlink:href="#stick" y="0" /><use x="600" xlink:href="#stick" y="60" /><use x="605" xlink:href="#stick" y="0" /><use x="605" xlink:href="#stick" y="60" /><use x="610" xlink:href="#stick" y="0" /><use x="610" xlink:href="#stick" y="60" /><use x="615" xlink:href="#stick" y="0" /><use x="615" xlink:href="#stick" y="60" /><use x="620" xlink:href="#stick" y="0" /><use x="620" xlink:href="#stick" y="60" /><use x="625" xlink:href="#ltick" y="0" /><use x="625" xlink:href="#ltick" y="50" /><text text-anchor="middle" x="625" y="40">12</text><use x="630" xlink:href="#stick" y="0" /><use x="630" xlink:href="#stick" y="60" /><use x="635" xlink:href="#stick" y="0" /><use x="635" xlink:href="#stick" y="60" /><use x="640" xlink:href="#stick" y="0" /><use x="640" xlink:href="#stick" y="60" /><use x="645" xlink:href="#stick" y="0" /><use x="645" xlink:href="#stick" y="60" /><use x="650" xlink:href="#stick" y="0" /><use x="650" xlink:href="#stick" y="60" /><use x="655" xlink:href="#stick" y="0" /><use x="655" xlink:href="#stick" y="60" /><use x="660" xlink:href="#stick" y="0" /><use x="660" xlink:href="#stick" y="60" /><use x="665" xlink:href="#stick" y="0" /><use x="665" xlink:href="#stick" y="60" /><use x="670" xlink:href="#stick" y="0" /><use x="670" xlink:href="#stick" y="60" /><use x="675" xlink:href="#ltick" y="0" /><use x="675" xlink:href="#ltick" y="50" /><text text-anchor="middle" x="675" y="40">13</text><use x="680" xlink:href="#stick" y="0" /><use x="680" xlink:href="#stick" y="60" /><use x="685" xlink:href="#stick" y="0" /><use x="685" xlink:href="#stick" y="60" /><use x="690" xlink:href="#stick" y="0" /><use x="690" xlink:href="#stick" y="60" /><use x="695" xlink:href="#stick" y="0" /><use x="695" xlink:href="#stick" y="60" /><use x="700" xlink:href="#stick" y="0" /><use x="700" xlink:href="#stick" y="60" /><use x="705" xlink:href="#stick" y="0" /><use x="705" xlink:href="#stick" y="60" /><use x="710" xlink:href="#stick" y="0" /><use x="710" xlink:href="#stick" y="60" /><use x="715" xlink:href="#stick" y="0" /><use x="715" xlink:href="#stick" y="60" /><use x="720" xlink:href="#stick" y="0" /><use x="720" xlink:href="#stick" y="60" /><use x="725" xlink:href="#ltick" y="0" /><use x="725" xlink:href="#ltick" y="50" /><text text-anchor="middle" x="725" y="40">14</text><use x="730" xlink:href="#stick" y="0" /><use x="730" xlink:href="#stick" y="60" /><use x="735" xlink:href="#stick" y="0" /><use x="735" xlink:href="#stick" y="60" /><use x="740" xlink:href="#stick" y="0" /><use x="740" xlink:href="#stick" y="60" /><use x="745" xlink:href="#stick" y="0" /><use x="745" xlink:href="#stick" y="60" /><use x="750" xlink:href="#stick" y="0" /><use x="750" xlink:href="#stick" y="60" /><use x="755" xlink:href="#stick" y="0" /><use x="755" xlink:href="#stick" y="60" /><use x="760" xlink:href="#stick" y="0" /><use x="760" xlink:href="#stick" y="60" /><use x="765" xlink:href="#stick" y="0" /><use x="765" xlink:href="#stick" y="60" /><use x="770" xlink:href="#stick" y="0" /><use x="770" xlink:href="#stick" y="60" /><use x="775" xlink:href="#ltick" y="0" /><use x="775" xlink:href="#ltick" y="50" /><text text-anchor="middle" x="775" y="40">15</text><use x="780" xlink:href="#stick" y="0" /><use x="780" xlink:href="#stick" y="60" /><use x="785" xlink:href="#stick" y="0" /><use x="785" xlink:href="#stick" y="60" /><use x="790" xlink:href="#stick" y="0" /><use x="790" xlink:href="#stick" y="60" /><use x="795" xlink:href="#stick" y="0" /><use x="795" xlink:href="#stick" y="60" /><use x="800" xlink:href="#stick" y="0" /><use x="800" xlink:href="#stick" y="60" /><use x="805" xlink:href="#stick" y="0" /><use x="805" xlink:href="#stick" y="60" /><use x="810" xlink:href="#stick" y="0" /><use x="810" xlink:href="#stick" y="60" /><use x="815" xlink:href="#stick" y="0" /><use x="815" xlink:href="#stick" y="60" /><use x="820" xlink:href="#stick" y="0" /><use x="820" xlink:href="#stick" y="60" /><use x="825" xlink:href="#ltick" y="0" /><use x="825" xlink:href="#ltick" y="50" /><text text-anchor="middle" x="825" y="40">16</text><use x="830" xlink:href="#stick" y="0" /><use x="830" xlink:href="#stick" y="60" /><use x="835" xlink:href="#stick" y="0" /><use x="835" xlink:href="#stick" y="60" /><use x="840" xlink:href="#stick" y="0" /><use x="840" xlink:href="#stick" y="60" /><use x="845" xlink:href="#stick" y="0" /><use x="845" xlink:href="#stick" y="60" /><use x="850" xlink:href="#stick" y="0" /><use x="850" xlink:href="#stick" y="60" /><use x="855" xlink:href="#stick" y="0" /><use x="855" xlink:href="#stick" y="60" /><use x="860" xlink:href="#stick" y="0" /><use x="860" xlink:href="#stick" y="60" /><use x="865" xlink:href="#stick" y="0" /><use x="865" xlink:href="#stick" y="60" /><use x="870" xlink:href="#stick" y="0" /><use x="870" xlink:href="#stick" y="60" /><use x="875" xlink:href="#ltick" y="0" /><use x="875" xlink:href="#ltick" y="50" /><text text-anchor="middle" x="875" y="40">17</text><use x="880" xlink:href="#stick" y="0" /><use x="880" xlink:href="#stick" y="60" /><use x="885" xlink:href="#stick" y="0" /><use x="885" xlink:href="#stick" y="60" /><use x="890" xlink:href="#stick" y="0" /><use x="890" xlink:href="#stick" y="60" /><use x="895" xlink:href="#stick" y="0" /><use x="895" xlink:href="#stick" y="60" /><use x="900" xlink:href="#stick" y="0" /><use x="900" xlink:href="#stick" y="60" /><use x="905" xlink:href="#stick" y="0" /><use x="905" xlink:href="#stick" y="60" /><use x="910" xlink:href="#stick" y="0" /><use x="910" xlink:href="#stick" y="60" /><use x="915" xlink:href="#stick" y="0" /><use x="915" xlink:href="#stick" y="60" /><use x="920" xlink:href="#stick" y="0" /><use x="920" xlink:href="#stick" y="60" /><use x="925" xlink:href="#ltick" y="0" /><use x="925" xlink:href="#ltick" y="50" /><text text-anchor="middle" x="925" y="40">18</text><use x="930" xlink:href="#stick" y="0" /><use x="930" xlink:href="#stick" y="60" /><use x="935" xlink:href="#stick" y="0" /><use x="935" xlink:href="#stick" y="60" /><use x="940" xlink:href="#stick" y="0" /><use x="940" xlink:href="#stick" y="60" /><use x="945" xlink:href="#stick" y="0" /><use x="945" xlink:href="#stick" y="60" /><use x="950" xlink:href="#stick" y="0" /><use x="950" xlink:href="#stick" y="60" /><use x="955" xlink:href="#stick" y="0" /><use x="955" xlink:href="#stick" y="60" /><use x="960" xlink:href="#stick" y="0" /><use x="960" xlink:href="#stick" y="60" /><use x="965" xlink:href="#stick" y="0" /><use x="965" xlink:href="#stick" y="60" /><use x="970" xlink:href="#stick" y="0" /><use x="970" xlink:href="#stick" y="60" /><use x="975" xlink:href="#ltick" y="0" /><use x="975" xlink:href="#ltick" y="50" /><text text-anchor="middle" x="975" y="40">19</text><use x="980" xlink:href="#stick" y="0" /><use x="980" xlink:href="#stick" y="60" /><use x="985" xlink:href="#stick" y="0" /><use x="985" xlink:href="#stick" y="60" /><use x="990" xlink:href="#stick" y="0" /><use x="990" xlink:href="#stick" y="60" /><use x="995" xlink:href="#stick" y="0" /><use x="995" xlink:href="#stick" y="60" /><use x="1000" xlink:href="#stick" y="0" /><use x="1000" xlink:href="#stick" y="60" /><use x="1005" xlink:href="#stick" y="0" /><use x="1005" xlink:href="#stick" y="60" /><use x="1010" xlink:href="#stick" y="0" /><use x="1010" xlink:href="#stick" y="60" /><use x="1015" xlink:href="#stick" y="0" /><use x="1015" xlink:href="#stick" y="60" /><use x="1020" xlink:href="#stick" y="0" /><use x="1020" xlink:href="#stick" y="60" /><use x="1025" xlink:href="#ltick" y="0" /><use x="1025" xlink:href="#ltick" y="50" /><text text-anchor="middle" x="1025" y="40">20</text></svg>