<?xml version="1.0" encoding="utf-8" ?>
<svg baseProfile="tiny" height="100%" version="1.2" width="100%" xmlns="http://www.w3.org/2000/svg" xmlns:ev="http://www.w3.org/2001/xml-events" xmlns:xlink="http://www.w3.org/1999/xlink"><defs><line id="ltick" stroke="green" stroke-width="2" x1="0" x2="0" y1="0" y2="20" /><line id="stick" stroke="green" stroke-width="1" x1="0" x2="0" y1="0" y2="10" /></defs><rect fill="beige" height="70" width="1050" x="0" y="0" /><use x="25.0" xlink:href="#ltick" y="0" /><use x="25.0" xlink:href="#ltick" y="50" /><text text-anchor="middle" x="25.0" y="40">1</text><use x="66.3927" xlink:href="#stick" y="0" /><use x="66.3927" xlink:href="#stick" y="60" /><use x="104.1812" xlink:href="#stick" y="0" /><use x="104.1812" xlink:href="#stick" y="60" /><use x="138.9434" xlink:href="#stick" y="0" /><use x="138.9434" xlink:href="#stick" y="60" /><use x="171.128" xlink:href="#stick" y="0" /><use x="171.128" xlink:href="#stick" y="60" /><use x="201.0913" xlink:href="#stick" y="0" /><use x="201.0913" xlink:href="#stick" y="60" /><use x="229.12" xlink:href="#stick" y="0" /><use x="229.12" xlink:href="#stick" y="60" /><use x="255.4489" xlink:href="#stick" y="0" /><use x="255.4489" xlink:href="#stick" y="60" /><use x="280.2725" xlink:href="#stick" y="0" /><use x="280.2725" xlink:href="#stick" y="60" /><use x="303.7536" xlink:href="#stick" y="0" /><use x="303.7536" xlink:href="#stick" y="60" /><use x="326.03" xlink:href="#ltick" y="0" /><use x="326.03" xlink:href="#ltick" y="50" /><text text-anchor="middle" x="326.02999566398114" y="40">2</text><use x="347.2193" xlink:href="#stick" y="0" /><use x="347.2193" xlink:href="#stick" y="60" /><use x="367.4227" xlink:href="#stick" y="0" /><use x="367.4227" xlink:href="#stick" y="60" /><use x="386.7278" xlink:href="#stick" y="0" /><use x="386.7278" xlink:href="#stick" y="60" /><use x="405.2112" xlink:href="#stick" y="0" /><use x="405.2112" xlink:href="#stick" y="60" /><use x="422.94" xlink:href="#stick" y="0" /><use x="422.94" xlink:href="#stick" y="60" /><use x="439.9733" xlink:href="#stick" y="0" /><use x="439.9733" xlink:href="#stick" y="60" /><use x="456.3638" xlink:href="#stick" y="0" /><use x="456.3638" xlink:href="#stick" y="60" /><use x="472.158" xlink:href="#stick" y="0" /><use x="472.158" xlink:href="#stick" y="60" /><use x="487.398" xlink:href="#stick" y="0" /><use x="487.398" xlink:href="#stick" y="60" /><use x="502.1213" xlink:href="#ltick" y="0" /><use x="502.1213" xlink:href="#ltick" y="50" /><text text-anchor="middle" x="502.12125471966243" y="40">3</text><use x="516.3617" xlink:href="#stick" y="0" /><use x="516.3617" xlink:href="#stick" y="60" /><use x="530.15" xlink:href="#stick" y="0" /><use x="530.15" xlink:href="#stick" y="60" /><use x="543.5139" xlink:href="#stick" y="0" /><use x="543.5139" xlink:href="#stick" y="60" /><use x="556.4789" xlink:href="#stick" y="0" /><use x="556.4789" xlink:href="#stick" y="60" /><use x="569.068" xlink:href="#stick" y="0" /><use x="569.068" xlink:href="#stick" y="60" /><use x="581.3025" xlink:href="#stick" y="0" /><use x="581.3025" xlink:href="#stick" y="60" /><use x="593.2017" xlink:href="#stick" y="0" /><use x="593.2017" xlink:href="#stick" y="60" /><use x="604.7836" xlink:href="#stick" y="0" /><use x="604.7836" xlink:href="#stick" y="60" /><use x="616.0646" xlink:href="#stick" y="0" /><use x="616.0646" xlink:href="#stick" y="60" /><use x="627.06" xlink:href="#ltick" y="0" /><use x="627.06" xlink:href="#ltick" y="50" /><text text-anchor="middle" x="627.0599913279623" y="40">4</text><use x="637.7839" xlink:href="#stick" y="0" /><use x="637.7839" xlink:href="#stick" y="60" /><use x="648.2493" xlink:href="#stick" y="0" /><use x="648.2493" xlink:href="#stick" y="60" /><use x="658.4685" xlink:href="#stick" y="0" /><use x="658.4685" xlink:href="#stick" y="60" /><use x="668.4527" xlink:href="#stick" y="0" /><use x="668.4527" xlink:href="#stick" y="60" /><use x="678.2125" xlink:href="#stick" y="0" /><use x="678.2125" xlink:href="#stick" y="60" /><use x="687.7578" xlink:href="#stick" y="0" /><use x="687.7578" xlink:href="#stick" y="60" /><use x="697.0979" xlink:href="#stick" y="0" /><use x="697.0979" xlink:href="#stick" y="60" /><use x="706.2412" xlink:href="#stick" y="0" /><use x="706.2412" xlink:href="#stick" y="60" /><use x="715.1961" xlink:href="#stick" y="0" /><use x="715.1961" xlink:href="#stick" y="60" /><use x="723.97" xlink:href="#ltick" y="0" /><use x="723.97" xlink:href="#ltick" y="50" /><text text-anchor="middle" x="723.9700043360187" y="40">5</text><use x="732.5702" xlink:href="#stick" y="0" /><use x="732.5702" xlink:href="#stick" y="60" /><use x="741.0033" xlink:href="#stick" y="0" /><use x="741.0033" xlink:href="#stick" y="60" /><use x="749.2759" xlink:href="#stick" y="0" /><use x="749.2759" xlink:href="#stick" y="60" /><use x="757.3938" xlink:href="#stick" y="0" /><use x="757.3938" xlink:href="#stick" y="60" /><use x="765.3627" xlink:href="#stick" y="0" /><use x="765.3627" xlink:href="#stick" y="60" /><use x="773.188" xlink:href="#stick" y="0" /><use x="773.188" xlink:href="#stick" y="60" /><use x="780.8749" xlink:href="#stick" y="0" /><use x="780.8749" xlink:href="#stick" y="60" /><use x="788.428" xlink:href="#stick" y="0" /><use x="788.428" xlink:href="#stick" y="60" /><use x="795.852" xlink:href="#stick" y="0" /><use x="795.852" xlink:href="#stick" y="60" /><use x="803.1513" xlink:href="#ltick" y="0" /><use x="803.1513" xlink:href="#ltick" y="50" /><text text-anchor="middle" x="803.1512503836435" y="40">6</text><use x="810.3298" xlink:href="#stick" y="0" /><use x="810.3298" xlink:href="#stick" y="60" /><use x="817.3917" xlink:href="#stick" y="0" /><use x="817.3917" xlink:href="#stick" y="60" /><use x="824.3405" xlink:href="#stick" y="0" /><use x="824.3405" xlink:href="#stick" y="60" /><use x="831.18" xlink:href="#stick" y="0" /><use x="831.18" xlink:href="#stick" y="60" /><use x="837.9134" xlink:href="#stick" y="0" /><use x="837.9134" xlink:href="#stick" y="60" /><use x="844.5439" xlink:href="#stick" y="0" /><use x="844.5439" xlink:href="#stick" y="60" /><use x="851.0748" xlink:href="#stick" y="0" /><use x="851.0748" xlink:href="#stick" y="60" /><use x="857.5089" xlink:href="#stick" y="0" /><use x="857.5089" xlink:href="#stick" y="60" /><use x="863.8491" xlink:href="#stick" y="0" /><use x="863.8491" xlink:href="#stick" y="60" /><use x="870.098" xlink:href="#ltick" y="0" /><use x="870.098" xlink:href="#ltick" y="50" /><text text-anchor="middle" x="870.0980400142568" y="40">7</text><use x="876.2583" xlink:href="#stick" y="0" /><use x="876.2583" xlink:href="#stick" y="60" /><use x="882.3325" xlink:href="#stick" y="0" /><use x="882.3325" xlink:href="#stick" y="60" /><use x="888.3229" xlink:href="#stick" y="0" /><use x="888.3229" xlink:href="#stick" y="60" /><use x="894.2317" xlink:href="#stick" y="0" /><use x="894.2317" xlink:href="#stick" y="60" /><use x="900.0613" xlink:href="#stick" y="0" /><use x="900.0613" xlink:href="#stick" y="60" /><use x="905.8136" xlink:href="#stick" y="0" /><use x="905.8136" xlink:href="#stick" y="60" /><use x="911.4907" xlink:href="#stick" y="0" /><use x="911.4907" xlink:href="#stick" y="60" /><use x="917.0946" xlink:href="#stick" y="0" /><use x="917.0946" xlink:href="#stick" y="60" /><use x="922.6271" xlink:href="#stick" y="0" /><use x="922.6271" xlink:href="#stick" y="60" /><use x="928.09" xlink:href="#ltick" y="0" /><use x="928.09" xlink:href="#ltick" y="50" /><text text-anchor="middle" x="928.0899869919434" y="40">8</text><use x="933.485" xlink:href="#stick" y="0" /><use x="933.485" xlink:href="#stick" y="60" /><use x="938.8139" xlink:href="#stick" y="0" /><use x="938.8139" xlink:href="#stick" y="60" /><use x="944.0781" xlink:href="#stick" y="0" /><use x="944.0781" xlink:href="#stick" y="60" /><use x="949.2793" xlink:href="#stick" y="0" /><use x="949.2793" xlink:href="#stick" y="60" /><use x="954.4189" xlink:href="#stick" y="0" /><use x="954.4189" xlink:href="#stick" y="60" /><use x="959.4985" xlink:href="#stick" y="0" /><use x="959.4985" xlink:href="#stick" y="60" /><use x="964.5193" xlink:href="#stick" y="0" /><use x="964.5193" xlink:href="#stick" y="60" /><use x="969.4827" xlink:href="#stick" y="0" /><use x="969.4827" xlink:href="#stick" y="60" /><use x="974.39" xlink:href="#stick" y="0" /><use x="974.39" xlink:href="#stick" y="60" /><use x="979.2425" xlink:href="#ltick" y="0" /><use x="979.2425" xlink:href="#ltick" y="50" /><text text-anchor="middle" x="979.2425094393249" y="40">9</text><use x="984.0414" xlink:href="#stick" y="0" /><use x="984.0414" xlink:href="#stick" y="60" /><use x="988.7878" xlink:href="#stick" y="0" /><use x="988.7878" xlink:href="#stick" y="60" /><use x="993.4829" xlink:href="#stick" y="0" /><use x="993.4829" xlink:href="#stick" y="60" /><use x="998.1279" xlink:href="#stick" y="0" /><use x="998.1279" xlink:href="#stick" y="60" /><use x="1002.7236" xlink:href="#stick" y="0" /><use x="1002.7236" xlink:href="#stick" y="60" /><use x="1007.2712" xlink:href="#stick" y="0" /><use x="1007.2712" xlink:href="#stick" y="60" /><use x="1011.7717" xlink:href="#stick" y="0" /><use x="1011.7717" xlink:href="#stick" y="60" /><use x="1016.2261" xlink:href="#stick" y="0" /><use x="1016.2261" xlink:href="#stick" y="60" /><use x="1020.6352" xlink:href="#stick" y="0" /><use x="1020.6352" xlink:href="#stick" y="60" /><use x="1025.0" xlink:href="#ltick" y="0" /><use x="1025.0" xlink:href="#ltick" y="50" /><text text-anchor="middle" x="1025.0" y="40">10</text></svg>