<?xml version="1.0" encoding="utf-8" ?>
<svg baseProfile="full" version="1.2" viewBox="0 0 840 70" width="100%" xmlns="http://www.w3.org/2000/svg" xmlns:ev="http://www.w3.org/2001/xml-events" xmlns:xlink="http://www.w3.org/1999/xlink"><defs /><rect fill="beige" height="70" width="840" x="0" y="0" /><line stroke="green" stroke-width="2" x1="20" x2="20" y1="0" y2="20" /><text text-anchor="middle" x="20" y="40">0</text><line stroke="green" stroke-width="2" x1="20" x2="20" y1="50" y2="70" /><line stroke="green" stroke-width="2" x1="60" x2="60" y1="0" y2="20" /><text text-anchor="middle" x="60" y="40">1</text><line stroke="green" stroke-width="2" x1="60" x2="60" y1="50" y2="70" /><line stroke="green" stroke-width="2" x1="100" x2="100" y1="0" y2="20" /><text text-anchor="middle" x="100" y="40">2</text><line stroke="green" stroke-width="2" x1="100" x2="100" y1="50" y2="70" /><line stroke="green" stroke-width="2" x1="140" x2="140" y1="0" y2="20" /><text text-anchor="middle" x="140" y="40">3</text><line stroke="green" stroke-width="2" x1="140" x2="140" y1="50" y2="70" /><line stroke="green" stroke-width="2" x1="180" x2="180" y1="0" y2="20" /><text text-anchor="middle" x="180" y="40">4</text><line stroke="green" stroke-width="2" x1="180" x2="180" y1="50" y2="70" /><line stroke="green" stroke-width="2" x1="220" x2="220" y1="0" y2="20" /><text text-anchor="middle" x="220" y="40">5</text><line stroke="green" stroke-width="2" x1="220" x2="220" y1="50" y2="70" /><line stroke="green" stroke-width="2" x1="260" x2="260" y1="0" y2="20" /><text text-anchor="middle" x="260" y="40">6</text><line stroke="green" stroke-width="2" x1="260" x2="260" y1="50" y2="70" /><line stroke="green" stroke-width="2" x1="300" x2="300" y1="0" y2="20" /><text text-anchor="middle" x="300" y="40">7</text><line stroke="green" stroke-width="2" x1="300" x2="300" y1="50" y2="70" /><line stroke="green" stroke-width="2" x1="340" x2="340" y1="0" y2="20" /><text text-anchor="middle" x="340" y="40">8</text><line stroke="green" stroke-width="2" x1="340" x2="340" y1="50" y2="70" /><line stroke="green" stroke-width="2" x1="380" x2="380" y1="0" y2="20" /><text text-anchor="middle" x="380" y="40">9</text><line stroke="green" stroke-width="2" x1="380" x2="380" y1="50" y2="70" /><line stroke="green" stroke-width="2" x1="420" x2="420" y1="0" y2="20" /><text text-anchor="middle" x="420" y="40">10</text><line stroke="green" stroke-width="2" x1="420" x2="420" y1="50" y2="70" /><line stroke="green" stroke-width="2" x1="460" x2="460" y1="0" y2="20" /><text text-anchor="middle" x="460" y="40">11</text><line stroke="green" stroke-width="2" x1="460" x2="460" y1="50" y2="70" /><line stroke="green" stroke-width="2" x1="500" x2="500" y1="0" y2="20" /><text text-anchor="middle" x="500" y="40">12</text><line stroke="green" stroke-width="2" x1="500" x2="500" y1="50" y2="70" /><line stroke="green" stroke-width="2" x1="540" x2="540" y1="0" y2="20" /><text text-anchor="middle" x="540" y="40">13</text><line stroke="green" stroke-width="2" x1="540" x2="540" y1="50" y2="70" /><line stroke="green" stroke-width="2" x1="580" x2="580" y1="0" y2="20" /><text text-anchor="middle" x="580" y="40">14</text><line stroke="green" stroke-width="2" x1="580" x2="580" y1="50" y2="70" /><line stroke="green" stroke-width="2" x1="620" x2="620" y1="0" y2="20" /><text text-anchor="middle" x="620" y="40">15</text><line stroke="green" stroke-width="2" x1="620" x2="620" y1="50" y2="70" /><line stroke="green" stroke-width="2" x1="660" x2="660" y1="0" y2="20" /><text text-anchor="middle" x="660" y="40">16</text><line stroke="green" stroke-width="2" x1="660" x2="660" y1="50" y2="70" /><line stroke="green" stroke-width="2" x1="700" x2="700" y1="0" y2="20" /><text text-anchor="middle" x="700" y="40">17</text><line stroke="green" stroke-width="2" x1="700" x2="700" y1="50" y2="70" /><line stroke="green" stroke-width="2" x1="740" x2="740" y1="0" y2="20" /><text text-anchor="middle" x="740" y="40">18</text><line stroke="green" stroke-width="2" x1="740" x2="740" y1="50" y2="70" /><line stroke="green" stroke-width="2" x1="780" x2="780" y1="0" y2="20" /><text text-anchor="middle" x="780" y="40">19</text><line stroke="green" stroke-width="2" x1="780" x2="780" y1="50" y2="70" /><line stroke="green" stroke-width="2" x1="820" x2="820" y1="0" y2="20" /><text text-anchor="middle" x="820" y="40">20</text><line stroke="green" stroke-width="2" x1="820" x2="820" y1="50" y2="70" /></svg>
