<?xml version="1.0" encoding="UTF-8"?>
<svg width="247.44" height="140.7" version="1.1" viewBox="0 0 247.44 140.7" xml:space="preserve" xmlns="http://www.w3.org/2000/svg" xmlns:cc="http://creativecommons.org/ns#" xmlns:dc="http://purl.org/dc/elements/1.1/" xmlns:rdf="http://www.w3.org/1999/02/22-rdf-syntax-ns#"><metadata><rdf:RDF><cc:Work rdf:about=""><dc:format>image/svg+xml</dc:format><dc:type rdf:resource="http://purl.org/dc/dcmitype/StillImage"/><dc:title/></cc:Work></rdf:RDF></metadata><g transform="matrix(1.3333 0 0 -1.3333 -397.62 507.52)"><path d="m316.85 342.86h77.57v-39.07h-77.57z" fill="#99c2c5"/><path d="m316.85 342.86h77.57v-39.07h-77.57z" fill="#99c2c5"/><path d="m316.85 342.86h77.57v-39.07h-77.57z" fill="#b3d9f3"/><path d="m298.22 296.46h185.58v-21.348h-185.58z" fill="#99c2c5"/><path d="m298.22 296.46h185.58v-21.348h-185.58z" fill="#99c2c5"/><path d="m298.22 296.46h185.58v-21.348h-185.58z" fill="#bfe6eb"/><path d="m316.85 359.77h77.57v-18.812h-77.57z" fill="#99c2c5"/><path d="m316.85 359.77h77.57v-18.812h-77.57z" fill="#99c2c5"/><path d="m316.85 359.77h77.57v-18.812h-77.57z" fill="#faf061"/><path d="m403.12 322.6h69.758v-18.281h-69.758z" fill="#99c2c5"/><path d="m403.12 322.6h69.758v-18.281h-69.758z" fill="#99c2c5"/><path d="m403.12 322.6h69.758v-18.281h-69.758z" fill="#faf061"/><g><path d="m330.64 284.75c0.328 1.66-0.852 2.23-1.707 2.23-0.942 0-1.77-0.746-1.969-0.984h0.328l0.152 0.809h-1.312l-1.246-6.192h1.379l0.679 3.371c0.305 1.551 1.047 1.703 1.575 1.703 0.894 0 0.875-0.304 0.656-1.312l-0.746-3.762h1.379z"/><path d="m333.94 284.6h-2.801v-1.422h3.019v1.422z"/><path d="m337.3 285.8v1.008h-0.875v1.617h-1.379v-1.617h-0.746v-1.227h0.746v-3.586c0-0.699 0.437-1.465 1.355-1.465 0.086 0 0.352 0.043 0.899 0.11v1.16h-0.547c-0.176 0-0.328-0.219-0.328 0.238v3.543h0.875z"/><path d="m339.96 282.1h0.129l-1.465 4.704h-1.508l2.121-6.125c-0.437-1.204-0.261-1.137-0.746-1.137-0.262 0-0.437 0.066-0.785 0.195v-1.332c0.371-0.109 0.481-0.156 0.613-0.156 1.18 0 1.508 0.351 2.383 2.691 0.699 1.883 1.336 3.762 2.035 5.864h-1.488l-1.465-4.704z"/><path d="m344.27 283.44c0 0.938-0.067 2.25 1.269 2.25 1.422 0 1.266-1.222 1.266-1.968 0-1.266-0.239-2.012-1.246-2.012-0.59 0-1.289 0.199-1.289 1.73zm-1.094-5.121h1.136v2.91h-0.328c0.196-0.351 0.852-0.789 1.598-0.789 1.859 0 2.625 2.059 2.625 3.438 0 1.641-1.051 3.105-2.496 3.105-1.004 0-1.594-0.722-1.77-0.984h0.329v0.809h-1.336v-8.489z"/><path d="m352.6 282.63c-0.043-0.414-0.329-0.918-1.204-0.918-1.05 0-1.378 0.48-1.378 1.488h4.023c0 2.254-1.004 3.785-2.578 3.785-1.817 0-2.867-1.64-2.867-3.433 0-1.664 1.136-3.11 2.691-3.11 0.875 0 1.379 0.286 1.641 0.461 0.699 0.481 1.004 1.465 1.07 1.946h-1.398zm-2.582 1.555c0 0.898 0.46 1.507 1.312 1.507 1.117 0 1.246-0.609 1.289-1.312h-2.601z"/><path d="m358.95 287.64h1.859c1.114 0 1.333-0.219 1.333-0.965 0-0.961-0.372-1.071-1.356-1.071h-1.617v2.036zm-1.008-7.024h3.239c1.66 0 2.777 1.293 2.777 2.559 0 1.359-1.094 1.926-1.574 2.144v-0.437c0.808 0.418 1.222 1.355 1.222 1.883 0 1.07-0.937 2.207-2.359 2.207h-3.547v-8.356zm1.008 3.699h2.012c0.832 0 1.531 0 1.531-1.117 0-0.898-0.308-1.246-1.379-1.246h-1.945v2.363z"/><path d="m369.52 280.84v5.973h-1.379v-3.391c0-0.832-0.11-1.707-1.289-1.707-0.59 0-0.832 0.109-0.832 1.051v4.047h-1.379v-4.352c0-1.379 1.203-2.016 2.015-2.016 0.895 0 1.508 0.418 1.77 0.875l-0.238 0.266v-0.965h1.332z"/><path d="m371.62 288.97h-1.137v-8.356h1.356v8.356z"/><path d="m375.52 284.29 2.45 2.516h-1.793l-2.035-2.102v4.266h-1.333v-8.356h1.333v2.321l0.503 0.457 1.618-2.778h1.707l-2.34 3.809z"/><path d="m384.59 283.94h2.121c0-0.632-0.109-1.203-0.766-1.75-0.566-0.457-1.004-0.437-1.379-0.437-2.011 0-2.296 1.445-2.296 3.043 0 2.078 0.898 3.019 2.253 3.019 0.832 0 1.707-0.089 2.059-1.664h1.441c-0.261 1.969-2.035 3.02-3.457 3.02-2.449 0-3.804-2.387-3.804-4.309 0-0.832 0.109-2.363 1.269-3.5 0.371-0.394 1.18-0.965 2.473-0.965 1.027 0 2.121 0.547 2.383 0.918l0.152-0.699h1.074v4.66h-3.765v-1.336z"/><path d="m390.4 284.84c0.066 0.461-0.02 0.918 1.031 0.918 0.875 0 1.07-0.129 1.07-0.742 0-0.571-0.043-0.438-0.262-0.461l-1.511-0.196c-1.532-0.199-1.903-1.554-1.903-2.035 0-0.984 0.942-1.883 1.95-1.883 1.07 0 1.792 0.594 1.792 0.614 0 0.109 0.348-0.547 1.161-0.547 0.218 0 0.347 0.066 0.718 0.176v1.117c-0.304-0.067-0.437-0.11-0.523-0.11-0.176 0-0.066-0.109-0.066 0.153v3.324c0 1.465-1.817 1.816-2.274 1.816-1.336 0-2.449-0.746-2.496-2.339h1.27zm2.078-2.012c0-0.766-0.61-1.16-1.465-1.16-0.699 0-0.785 0.176-0.785 0.809 0 0.722 0.5 0.656 0.961 0.722 1.136 0.153 1.531 0.305 1.289 0.11z"/><path d="m400.3 282.57h0.086l-3.762 6.407h-1.555v-8.356h1.446v6.41h-0.329l3.829-6.41h1.488v8.356h-1.446v-6.407z"/><path d="m411.52 286.44c-0.043 0.874-0.523 2.734-3.148 2.734-1.836 0-2.844-1.422-2.844-2.649 0-1.378 1.356-1.968 1.836-2.078l1.555-0.371c1.246-0.328 1.379-0.371 1.379-1.203 0-1.137-1.008-1.117-1.75-1.117-0.965 0-1.86 0.199-1.86 1.84h-1.402c0-0.942 0.199-1.75 0.832-2.364 0.328-0.328 1.051-0.832 2.449-0.832 1.293 0 3.172 0.747 3.172 2.625 0 1.247-0.961 2.079-1.945 2.321l-2.145 0.523c-0.437 0.11-0.675 0.11-0.675 0.789 0 1.203 0.875 1.18 1.507 1.18 0.852 0 1.575-0.176 1.641-1.598h1.422z"/><path d="m417.37 280.84v5.973h-1.375v-3.391c0-0.832-0.109-1.707-1.293-1.707-0.59 0-0.832 0.109-0.832 1.051v4.047h-1.375v-4.352c0-1.379 1.203-2.016 2.012-2.016 0.894 0 1.508 0.418 1.769 0.875l-0.238 0.266v-0.965h1.332z"/><path d="m419.56 280.84v0.504h-0.328c0.152-0.262 0.699-0.899 1.64-0.899 1.86 0 2.625 2.059 2.625 3.438 0 1.641-1.051 3.105-2.496 3.105-0.656-0.023-1.355-0.351-1.726-0.898h0.328v2.887h-1.379v-8.356h1.336zm2.535 2.887c0-1.266-0.238-2.012-1.246-2.012-0.59 0-1.289 0.199-1.289 1.73 0 0.938-0.067 2.25 1.269 2.25 1.422 0 1.266-1.222 1.266-1.968z"/><path d="m428.6 284.95c0 0.305-0.371 2.035-2.316 2.035-1.094 0-2.32-0.789-2.32-2.058 0-0.785 0.746-1.422 1.511-1.617l1.071-0.262c0.789-0.219 0.851-0.152 0.851-0.637 0-0.633-0.371-0.699-1.027-0.699-1.313 0-1.203 0.527-1.246 1.184h-1.356c0.043-0.899 0.438-2.454 2.602-2.454 1.246 0 2.406 0.942 2.406 2.125 0 0.786-0.633 1.442-1.769 1.75l-0.922 0.239c-0.719 0.175-0.785 0.09-0.785 0.57 0 0.699 0.59 0.59 0.875 0.59 1.179 0 1.07-0.395 1.07-0.961h1.355z"/><path d="m431.84 285.8v1.008h-0.875v1.617h-1.379v-1.617h-0.742v-1.227h0.742v-3.586c0-0.699 0.437-1.465 1.359-1.465 0.086 0 0.348 0.043 0.895 0.11v1.16h-0.547c-0.176 0-0.328-0.219-0.328 0.238v3.543h0.875z"/><path d="m433.8 284.18c0 0.832 0.328 1.336 1.203 1.336h0.547v1.355c-0.285 0.086-0.328 0.109-0.457 0.109-0.68 0-1.336-0.527-1.664-1.136h0.328v0.961h-1.336v-6.192h1.379z"/><path d="m437.08 284.84c0.067 0.461-0.019 0.918 1.027 0.918 0.875 0 1.075-0.129 1.075-0.742 0-0.571-0.043-0.438-0.262-0.461l-1.512-0.196c-1.531-0.199-1.902-1.554-1.902-2.035 0-0.984 0.941-1.883 1.945-1.883 1.074 0 1.797 0.594 1.797 0.614 0 0.109 0.348-0.547 1.156-0.547 0.219 0 0.352 0.066 0.723 0.176v1.117c-0.305-0.067-0.437-0.11-0.523-0.11-0.176 0-0.067-0.109-0.067 0.153v3.324c0 1.465-1.816 1.816-2.273 1.816-1.336 0-2.453-0.746-2.496-2.339h1.269zm2.078-2.012c0-0.766-0.613-1.16-1.465-1.16-0.699 0-0.789 0.176-0.789 0.809 0 0.722 0.504 0.656 0.965 0.722 1.137 0.153 1.531 0.305 1.289 0.11z"/><path d="m444.1 285.8v1.008h-0.875v1.617h-1.379v-1.617h-0.742v-1.227h0.742v-3.586c0-0.699 0.437-1.465 1.359-1.465 0.086 0 0.348 0.043 0.895 0.11v1.16h-0.547c-0.176 0-0.328-0.219-0.328 0.238v3.543h0.875z"/><path d="m448.31 282.63c-0.043-0.414-0.329-0.918-1.204-0.918-1.05 0-1.378 0.48-1.378 1.488h4.023c0 2.254-1.004 3.785-2.578 3.785-1.817 0-2.867-1.64-2.867-3.433 0-1.664 1.136-3.11 2.691-3.11 0.875 0 1.379 0.286 1.641 0.461 0.699 0.481 1.004 1.465 1.07 1.946h-1.398zm-2.582 1.555c0 0.898 0.461 1.507 1.312 1.507 1.117 0 1.246-0.609 1.289-1.312h-2.601z"/><path d="m340.85 351.93c-0.153 1.336-1.375 2.8-3.325 2.8-2.187 0-3.738-1.879-3.738-4.332 0-3.039 1.903-4.437 3.61-4.437 0.566 0 3.105 0.347 3.543 3.562h-1.422c-0.395-2.054-1.293-2.187-1.969-2.187-1.859 0-2.277 1.226-2.277 3.086 0 2.101 0.898 2.953 2.253 2.953 0.723 0 1.598-0.043 1.926-1.641h1.422z"/><path d="m341.25 349.29c0-1.488 1.031-3.262 2.781-3.262 1.77 0 2.777 1.774 2.777 3.262s-1.007 3.258-2.777 3.258c-1.75 0-2.781-1.77-2.781-3.258zm1.422 0c0 0.766 0.047 1.988 1.359 1.988 1.332 0 1.375-1.222 1.375-1.988s-0.043-1.992-1.375-1.992c-1.312 0-1.359 1.226-1.359 1.992z"/><path d="m348.58 354.54h-1.141v-8.355h1.36v8.355z"/><path d="m350.91 354.54h-1.137v-8.355h1.356v8.355z"/><path d="m355.82 348.2c-0.043-0.418-0.328-0.918-1.203-0.918-1.051 0-1.379 0.481-1.379 1.485h4.028c0 2.254-1.008 3.785-2.582 3.785-1.817 0-2.868-1.641-2.868-3.434 0-1.664 1.137-3.105 2.692-3.105 0.875 0 1.379 0.285 1.64 0.457 0.7 0.484 1.008 1.469 1.071 1.949h-1.399zm-2.582 1.551c0 0.899 0.461 1.512 1.313 1.512 1.117 0 1.246-0.613 1.293-1.313h-2.606z"/><path d="m362.69 350.23c-0.066 1.004-0.832 2.317-2.277 2.317-1.816 0-2.863-1.641-2.863-3.434 0-1.664 1.137-3.105 2.687-3.105 1.598 0 2.364 1.508 2.473 2.644h-1.332c-0.199-1.093-0.504-1.375-1.117-1.375-1.27 0-1.27 1.004-1.27 2.012 0 1.027 0.133 1.969 1.293 1.969 0.766 0 0.938-0.262 1.094-1.246h1.332z"/><path d="m365.62 351.37v1.004h-0.875v1.621h-1.379v-1.621h-0.742v-1.223h0.742v-3.589c0-0.7 0.438-1.465 1.356-1.465 0.089 0 0.351 0.043 0.898 0.109v1.16h-0.547c-0.176 0-0.328-0.218-0.328 0.242v3.543h0.875z"/><path d="m365.76 349.29c0-1.488 1.027-3.262 2.777-3.262 1.773 0 2.781 1.774 2.781 3.262s-1.008 3.258-2.781 3.258c-1.75 0-2.777-1.77-2.777-3.258zm1.422 0c0 0.766 0.043 1.988 1.355 1.988 1.336 0 1.379-1.222 1.379-1.988s-0.043-1.992-1.379-1.992c-1.312 0-1.355 1.226-1.355 1.992z"/><path d="m373.41 349.75c0 0.832 0.328 1.336 1.203 1.336h0.547v1.356c-0.281 0.089-0.328 0.109-0.457 0.109-0.68 0-1.336-0.524-1.664-1.137h0.328v0.961h-1.332v-6.187h1.375z"/><path d="m426.74 310.39h-4.328v2.23h4.133v1.356h-4.133v2.011h4.461v1.379h-5.93v-8.355h6.016v1.379z"/><path d="m427.95 309.01h1.16v3.367c0 1.555 0.7 1.707 1.227 1.707 0.676 0 0.613-0.371 0.613-0.875v-4.199h1.375v3.738c0 0.766 0.309 1.336 1.074 1.336 0.786 0 0.786-0.328 0.786-1.137v-3.937h1.378v4.199c0 1.641-1.332 2.164-1.925 2.164-0.852 0-1.375-0.457-1.641-0.766-0.019 0.067-0.5 0.766-1.484 0.766-0.985 0-1.641-0.742-1.797-0.984h0.328v0.812h-1.313v-6.191z"/><path d="m437.64 315.2h-1.137v-6.191h1.355v6.191zm0.218 0.852v1.312h-1.355v-1.531h1.355z"/><path d="m441.26 314.2v1.008h-0.875v1.617h-1.375v-1.617h-0.746v-1.226h0.746v-3.586c0-0.703 0.437-1.469 1.355-1.469 0.086 0 0.348 0.047 0.895 0.109v1.16h-0.547c-0.172 0-0.328-0.218-0.328 0.243v3.543h0.875z"/><path d="m444.18 314.2v1.008h-0.875v1.617h-1.379v-1.617h-0.746v-1.226h0.746v-3.586c0-0.703 0.437-1.469 1.355-1.469 0.086 0 0.352 0.047 0.899 0.109v1.16h-0.547c-0.176 0-0.328-0.218-0.328 0.243v3.543h0.875z"/><path d="m448.39 311.02c-0.043-0.414-0.328-0.918-1.203-0.918-1.051 0-1.379 0.481-1.379 1.489h4.027c0 2.25-1.008 3.781-2.582 3.781-1.816 0-2.867-1.641-2.867-3.434 0-1.66 1.14-3.105 2.691-3.105 0.875 0 1.379 0.285 1.641 0.461 0.699 0.48 1.008 1.465 1.074 1.945h-1.402zm-2.582 1.555c0 0.895 0.461 1.508 1.312 1.508 1.117 0 1.25-0.613 1.293-1.313h-2.605z"/><path d="m451.97 312.58c0 0.828 0.328 1.332 1.203 1.332h0.547v1.356c-0.285 0.089-0.328 0.109-0.461 0.109-0.676 0-1.332-0.523-1.66-1.137h0.328v0.965h-1.336v-6.191h1.379z"/></g><path d="m316.85 328.53h77.57v-3.637h-77.57z" fill="#4573a1"/><path d="m316.85 322.26h77.57v-3.637h-77.57z" fill="#4573a1"/><path d="m298.22 288.89 2.473 1.992-2.473-1.992m7.191 5.793 2.215 1.781-2.215-1.781" fill="#bfd9e1"/><path d="m300.99 290.5-0.304 0.379-0.301 0.379 4.718 3.801 0.301-0.379 0.309-0.379-4.723-3.801" fill="#b8d1d7"/><path d="m307.62 305.32h171.1v-8.863h-171.1z" fill="#99c2c5"/><path d="m307.62 305.32h171.1v-8.863h-171.1z" fill="#99c2c5"/><path d="m307.62 305.32h171.1v-8.863h-171.1z" fill="#b3d9f3"/><g><path d="m455.04 357.87h0.133l-1.094 8.906h-2.035l1.66-10.828h1.817l6.257 10.828h-2.035l-4.855-8.906z"/><path d="m460.49 348.59v0.984h-9.144v-1.179h9.144z"/><path d="m454.7 377.48h-3.39v-1.441h3.171v-3.152h1.508v3.152h3.129v1.441h-3.129v3.153h-1.508v-3.153z"/><path d="m356.29 359.77v17.454h81.035v-11.907h1.332v13.239h-83.695v-18.786h1.328"/><path d="m437.33 359.77h1.332v-36.934h-1.332z"/><path d="m429.31 366.04h17.363v-1.332h-17.363z"/><path d="m432.71 359.48h10.574v-1.336h-10.574z"/></g></g></svg>
