<?xml version="1.0" encoding="UTF-8"?>
<!DOCTYPE svg PUBLIC "-//W3C//DTD SVG 1.1//EN" "http://www.w3.org/Graphics/SVG/1.1/DTD/svg11.dtd">
<svg width="160mm" height="90mm" viewBox="0 0 16000 9000" version="1.1" xmlns="http://www.w3.org/2000/svg" stroke-width="28.222" stroke-linejoin="round" xml:space="preserve">
 <path fill="rgb(255,255,255)" stroke="none" d="M 7994,8998 L -6,8998 -6,-1 15993,-1 15993,8998 7994,8998 Z"/>
 <path fill="none" stroke="rgb(179,179,179)" stroke-linejoin="round" d="M 8489,8171 L 1676,8171 1676,378 15302,378 15302,8171 8489,8171 Z"/>
 <path fill="none" stroke="rgb(179,179,179)" stroke-linejoin="round" d="M 15301,8170 L 1676,8170"/>
 <path fill="none" stroke="rgb(179,179,179)" stroke-linejoin="round" d="M 15301,7056 L 1676,7056"/>
 <path fill="none" stroke="rgb(179,179,179)" stroke-linejoin="round" d="M 15301,5943 L 1676,5943"/>
 <path fill="none" stroke="rgb(179,179,179)" stroke-linejoin="round" d="M 15301,4829 L 1676,4829"/>
 <path fill="none" stroke="rgb(179,179,179)" stroke-linejoin="round" d="M 15301,3717 L 1676,3717"/>
 <path fill="none" stroke="rgb(179,179,179)" stroke-linejoin="round" d="M 15301,2603 L 1676,2603"/>
 <path fill="none" stroke="rgb(179,179,179)" stroke-linejoin="round" d="M 15301,1490 L 1676,1490"/>
 <path fill="none" stroke="rgb(179,179,179)" stroke-linejoin="round" d="M 15301,377 L 1676,377"/>
 <path fill="none" stroke="rgb(179,179,179)" stroke-linejoin="round" d="M 1676,8320 L 1676,8170"/>
 <path fill="none" stroke="rgb(179,179,179)" stroke-linejoin="round" d="M 3947,8320 L 3947,8170"/>
 <path fill="none" stroke="rgb(179,179,179)" stroke-linejoin="round" d="M 6218,8320 L 6218,8170"/>
 <path fill="none" stroke="rgb(179,179,179)" stroke-linejoin="round" d="M 8488,8320 L 8488,8170"/>
 <path fill="none" stroke="rgb(179,179,179)" stroke-linejoin="round" d="M 10759,8320 L 10759,8170"/>
 <path fill="none" stroke="rgb(179,179,179)" stroke-linejoin="round" d="M 13030,8320 L 13030,8170"/>
 <path fill="none" stroke="rgb(179,179,179)" stroke-linejoin="round" d="M 15301,8320 L 15301,8170"/>
 <path fill="none" stroke="rgb(179,179,179)" stroke-linejoin="round" d="M 1676,8170 L 15301,8170"/>
 <path fill="none" stroke="rgb(179,179,179)" stroke-linejoin="round" d="M 1526,8170 L 1676,8170"/>
 <path fill="none" stroke="rgb(179,179,179)" stroke-linejoin="round" d="M 1526,7056 L 1676,7056"/>
 <path fill="none" stroke="rgb(179,179,179)" stroke-linejoin="round" d="M 1526,5943 L 1676,5943"/>
 <path fill="none" stroke="rgb(179,179,179)" stroke-linejoin="round" d="M 1526,4829 L 1676,4829"/>
 <path fill="none" stroke="rgb(179,179,179)" stroke-linejoin="round" d="M 1526,3717 L 1676,3717"/>
 <path fill="none" stroke="rgb(179,179,179)" stroke-linejoin="round" d="M 1526,2603 L 1676,2603"/>
 <path fill="none" stroke="rgb(179,179,179)" stroke-linejoin="round" d="M 1526,1490 L 1676,1490"/>
 <path fill="none" stroke="rgb(179,179,179)" stroke-linejoin="round" d="M 1526,377 L 1676,377"/>
 <path fill="none" stroke="rgb(179,179,179)" stroke-linejoin="round" d="M 1676,8170 L 1676,377"/>
 <path fill="none" stroke="rgb(255,66,14)" stroke-width="80" stroke-linejoin="round" d="M 1676,8169 L 1903,8169 2130,8169 2357,8169 2584,8169 2811,8169 3038,8169 3265,8169 3492,8169 3720,8169 3947,8169 4174,8169 4401,8169 4628,8169 4855,8169 5082,8169 5309,8169 5536,8169 5764,8169 5991,8169 6218,8168 6445,8168 6672,8168 6899,8167 7126,8166 7353,8165 7581,8163 7808,8161 8034,8158 8261,8154 8488,8148 8715,8141 8942,8131 9169,8117 9396,8098 9624,8073 9851,8040 10078,7994 10305,7932 10532,7849 10759,7736 10986,7583 11213,7377 11441,7098 11668,6720 11895,6211 12122,5521 12349,4589 12576,3330 12803,1627"/>
 <path fill="none" stroke="rgb(0,69,134)" stroke-width="80" stroke-linejoin="round" d="M 1676,8169 L 1903,8169 2130,8169 2357,8169 2584,8169 2811,8169 3038,8169 3265,8169 3492,8169 3720,8169 3947,8169 4174,8169 4401,8169 4628,8169 4855,8169 5082,8169 5309,8169 5536,8169 5764,8169 5991,8169 6218,8168 6445,8168 6672,8168 6899,8167 7126,8166 7353,8165 7581,8163 7808,8161 8034,8158 8261,8154 8488,8148 8715,8141 8942,8131 9169,8117 9396,8098 9624,8073 9851,8040 10078,7994 10305,7932 10532,7849 10759,7736 10986,7583 11213,7377 11441,7098 11668,6720 11895,6211 12122,5521 12349,4589 12576,3330 12803,1627"/>
 <text class="TextShape"><tspan class="TextParagraph" font-family="Liberation Sans, sans-serif" font-size="353px" font-weight="400"><tspan class="TextPosition" x="1583" y="8738"><tspan fill="rgb(0,0,0)" stroke="none">0</tspan></tspan></tspan></text>
 <text class="TextShape"><tspan class="TextParagraph" font-family="Liberation Sans, sans-serif" font-size="353px" font-weight="400"><tspan class="TextPosition" x="3762" y="8738"><tspan fill="rgb(0,0,0)" stroke="none">10</tspan></tspan></tspan></text>
 <text class="TextShape"><tspan class="TextParagraph" font-family="Liberation Sans, sans-serif" font-size="353px" font-weight="400"><tspan class="TextPosition" x="6033" y="8738"><tspan fill="rgb(0,0,0)" stroke="none">20</tspan></tspan></tspan></text>
 <text class="TextShape"><tspan class="TextParagraph" font-family="Liberation Sans, sans-serif" font-size="353px" font-weight="400"><tspan class="TextPosition" x="8304" y="8738"><tspan fill="rgb(0,0,0)" stroke="none">30</tspan></tspan></tspan></text>
 <text class="TextShape"><tspan class="TextParagraph" font-family="Liberation Sans, sans-serif" font-size="353px" font-weight="400"><tspan class="TextPosition" x="10575" y="8738"><tspan fill="rgb(0,0,0)" stroke="none">40</tspan></tspan></tspan></text>
 <text class="TextShape"><tspan class="TextParagraph" font-family="Liberation Sans, sans-serif" font-size="353px" font-weight="400"><tspan class="TextPosition" x="12846" y="8738"><tspan fill="rgb(0,0,0)" stroke="none">50</tspan></tspan></tspan></text>
 <text class="TextShape"><tspan class="TextParagraph" font-family="Liberation Sans, sans-serif" font-size="353px" font-weight="400"><tspan class="TextPosition" x="15117" y="8738"><tspan fill="rgb(0,0,0)" stroke="none">60</tspan></tspan></tspan></text>
 <text class="TextShape"><tspan class="TextParagraph" font-family="Liberation Sans, sans-serif" font-size="353px" font-weight="400"><tspan class="TextPosition" x="1241" y="8291"><tspan fill="rgb(0,0,0)" stroke="none">0</tspan></tspan></tspan></text>
 <text class="TextShape"><tspan class="TextParagraph" font-family="Liberation Sans, sans-serif" font-size="353px" font-weight="400"><tspan class="TextPosition" x="315" y="7177"><tspan fill="rgb(0,0,0)" stroke="none">200000</tspan></tspan></tspan></text>
 <text class="TextShape"><tspan class="TextParagraph" font-family="Liberation Sans, sans-serif" font-size="353px" font-weight="400"><tspan class="TextPosition" x="315" y="6064"><tspan fill="rgb(0,0,0)" stroke="none">400000</tspan></tspan></tspan></text>
 <text class="TextShape"><tspan class="TextParagraph" font-family="Liberation Sans, sans-serif" font-size="353px" font-weight="400"><tspan class="TextPosition" x="315" y="4950"><tspan fill="rgb(0,0,0)" stroke="none">600000</tspan></tspan></tspan></text>
 <text class="TextShape"><tspan class="TextParagraph" font-family="Liberation Sans, sans-serif" font-size="353px" font-weight="400"><tspan class="TextPosition" x="315" y="3837"><tspan fill="rgb(0,0,0)" stroke="none">800000</tspan></tspan></tspan></text>
 <text class="TextShape"><tspan class="TextParagraph" font-family="Liberation Sans, sans-serif" font-size="353px" font-weight="400"><tspan class="TextPosition" x="130" y="2723"><tspan fill="rgb(0,0,0)" stroke="none">1000000</tspan></tspan></tspan></text>
 <text class="TextShape"><tspan class="TextParagraph" font-family="Liberation Sans, sans-serif" font-size="353px" font-weight="400"><tspan class="TextPosition" x="130" y="1610"><tspan fill="rgb(0,0,0)" stroke="none">1200000</tspan></tspan></tspan></text>
 <text class="TextShape"><tspan class="TextParagraph" font-family="Liberation Sans, sans-serif" font-size="353px" font-weight="400"><tspan class="TextPosition" x="130" y="497"><tspan fill="rgb(0,0,0)" stroke="none">1400000</tspan></tspan></tspan></text>
</svg>