<?xml version="1.0" encoding="UTF-8" standalone="no"?>
<svg
   xmlns:dc="http://purl.org/dc/elements/1.1/"
   xmlns:cc="http://creativecommons.org/ns#"
   xmlns:rdf="http://www.w3.org/1999/02/22-rdf-syntax-ns#"
   xmlns:svg="http://www.w3.org/2000/svg"
   xmlns="http://www.w3.org/2000/svg"
   version="1.1"
   id="svg41961"
   xml:space="preserve"
   width="617.27808"
   height="510.67609"
   viewBox="0 0 617.27808 510.67611"><metadata
     id="metadata41967"><rdf:RDF><cc:Work
         rdf:about=""><dc:format>image/svg+xml</dc:format><dc:type
           rdf:resource="http://purl.org/dc/dcmitype/StillImage" /><dc:title></dc:title></cc:Work></rdf:RDF></metadata><defs
     id="defs41965"><clipPath
       clipPathUnits="userSpaceOnUse"
       id="clipPath42207"><path
         d="M 0,0 H 168.1021 V 5.5979 H 0 Z"
         id="path42205" /></clipPath><linearGradient
       x1="0"
       y1="0"
       x2="1"
       y2="0"
       gradientUnits="userSpaceOnUse"
       gradientTransform="matrix(0,-5.59928,168.10214,0,0,5.5979)"
       spreadMethod="pad"
       id="linearGradient42227"><stop
         style="stop-opacity:1;stop-color:#abcee7"
         offset="0"
         id="stop42219" /><stop
         style="stop-opacity:1;stop-color:#cbd9e4"
         offset="0.74"
         id="stop42221" /><stop
         style="stop-opacity:1;stop-color:#d6eabf"
         offset="0.83"
         id="stop42223" /><stop
         style="stop-opacity:1;stop-color:#d6eabf"
         offset="1"
         id="stop42225" /></linearGradient></defs><g
     id="g41969"
     transform="matrix(1.3333333,0,0,-1.3333333,-88.82554,816.87846)"><path
       d="m 192.9189,387.4479 h 11.2068 v -5.605 h -11.2068 z"
       style="fill:#f6c033;fill-opacity:1;fill-rule:nonzero;stroke:none"
       id="path41971" /><path
       d="m 192.9189,387.4479 h 11.2068 v -5.605 h -11.2068 z"
       style="fill:none;stroke:#2a2a2b;stroke-width:0.934;stroke-linecap:butt;stroke-linejoin:miter;stroke-miterlimit:8;stroke-dasharray:none;stroke-opacity:1"
       id="path41973" /><path
       d="m 216.7319,387.4479 h 11.2068 v -5.605 h -11.2068 z"
       style="fill:#f6c033;fill-opacity:1;fill-rule:nonzero;stroke:none"
       id="path41975" /><path
       d="m 216.7319,387.4479 h 11.2068 v -5.605 h -11.2068 z"
       style="fill:none;stroke:#2a2a2b;stroke-width:0.934;stroke-linecap:butt;stroke-linejoin:miter;stroke-miterlimit:8;stroke-dasharray:none;stroke-opacity:1"
       id="path41977" /><path
       d="m 243.3489,387.4479 h 11.2068 v -5.605 h -11.2068 z"
       style="fill:#f6c033;fill-opacity:1;fill-rule:nonzero;stroke:none"
       id="path41979" /><path
       d="m 243.3489,387.4479 h 11.2068 v -5.605 h -11.2068 z"
       style="fill:none;stroke:#2a2a2b;stroke-width:0.934;stroke-linecap:butt;stroke-linejoin:miter;stroke-miterlimit:8;stroke-dasharray:none;stroke-opacity:1"
       id="path41981" /><path
       d="m 269.5008,387.4479 h 11.2031 v -5.605 h -11.2031 z"
       style="fill:#f6c033;fill-opacity:1;fill-rule:nonzero;stroke:none"
       id="path41983" /><path
       d="m 269.5008,387.4479 h 11.2071 v -5.605 h -11.2071 z"
       style="fill:none;stroke:#2a2a2b;stroke-width:0.934;stroke-linecap:butt;stroke-linejoin:miter;stroke-miterlimit:8;stroke-dasharray:none;stroke-opacity:1"
       id="path41985" /><path
       d="m 295.6499,387.4479 h 11.207 v -5.605 h -11.207 z"
       style="fill:#f6c033;fill-opacity:1;fill-rule:nonzero;stroke:none"
       id="path41987" /><path
       d="m 295.6459,387.4479 h 11.211 v -5.605 h -11.211 z"
       style="fill:none;stroke:#2a2a2b;stroke-width:0.934;stroke-linecap:butt;stroke-linejoin:miter;stroke-miterlimit:8;stroke-dasharray:none;stroke-opacity:1"
       id="path41989" /><path
       d="m 321.7978,387.4479 h 11.207 v -5.605 h -11.207 z"
       style="fill:#f6c033;fill-opacity:1;fill-rule:nonzero;stroke:none"
       id="path41991" /><path
       d="m 321.7978,387.4479 h 11.207 v -5.605 h -11.207 z"
       style="fill:none;stroke:#2a2a2b;stroke-width:0.934;stroke-linecap:butt;stroke-linejoin:miter;stroke-miterlimit:8;stroke-dasharray:none;stroke-opacity:1"
       id="path41993" /><path
       d="m 348.4148,387.4479 h 11.2071 v -5.605 h -11.2071 z"
       style="fill:#f6c033;fill-opacity:1;fill-rule:nonzero;stroke:none"
       id="path41995" /><path
       d="m 348.4148,387.4479 h 11.2071 v -5.605 h -11.2071 z"
       style="fill:none;stroke:#2a2a2b;stroke-width:0.934;stroke-linecap:butt;stroke-linejoin:miter;stroke-miterlimit:8;stroke-dasharray:none;stroke-opacity:1"
       id="path41997" /><path
       d="m 374.0987,387.4479 h 11.2031 v -5.605 h -11.2031 z"
       style="fill:#f6c033;fill-opacity:1;fill-rule:nonzero;stroke:none"
       id="path41999" /><path
       d="m 374.0987,387.4479 h 11.207 v -5.605 h -11.207 z"
       style="fill:none;stroke:#2a2a2b;stroke-width:0.934;stroke-linecap:butt;stroke-linejoin:miter;stroke-miterlimit:8;stroke-dasharray:none;stroke-opacity:1"
       id="path42001" /><path
       d="M 400.2429,387.4479 H 411.45 v -5.605 h -11.2071 z"
       style="fill:#f6c033;fill-opacity:1;fill-rule:nonzero;stroke:none"
       id="path42003" /><path
       d="m 400.2469,387.4479 h 11.207 v -5.605 h -11.207 z"
       style="fill:none;stroke:#2a2a2b;stroke-width:0.934;stroke-linecap:butt;stroke-linejoin:miter;stroke-miterlimit:8;stroke-dasharray:none;stroke-opacity:1"
       id="path42005" /><path
       d="m 426.3959,387.4479 h 11.2068 v -5.605 h -11.2068 z"
       style="fill:#f6c033;fill-opacity:1;fill-rule:nonzero;stroke:none"
       id="path42007" /><path
       d="m 426.3959,387.4479 h 11.211 v -5.605 h -11.211 z"
       style="fill:none;stroke:#2a2a2b;stroke-width:0.934;stroke-linecap:butt;stroke-linejoin:miter;stroke-miterlimit:8;stroke-dasharray:none;stroke-opacity:1"
       id="path42009" /><path
       d="m 231.2079,569.5138 h 168.1018 v -6.9999 H 231.2079 Z"
       style="fill:#364d86;fill-opacity:1;fill-rule:nonzero;stroke:none"
       id="path42011" /><path
       d="m 231.2079,569.5138 h 168.1018 v -7.0039 H 231.2079 Z"
       style="fill:none;stroke:#2a2a2b;stroke-width:0.934;stroke-linecap:butt;stroke-linejoin:miter;stroke-miterlimit:8;stroke-dasharray:none;stroke-opacity:1"
       id="path42013" /><path
       d="m 190.5829,362.2368 h 249.355 v -88.234 h -249.355 z"
       style="fill:#f1a5c0;fill-opacity:1;fill-rule:nonzero;stroke:none"
       id="path42015" /><path
       d="m 190.5829,362.2408 h 249.355 v -88.234 h -249.355 z"
       style="fill:none;stroke:#2a2a2b;stroke-width:0.934;stroke-linecap:butt;stroke-linejoin:miter;stroke-miterlimit:8;stroke-dasharray:none;stroke-opacity:1"
       id="path42017" /><text
       transform="matrix(1,0,0,-1,302.3005,321.3332)"
       style="font-style:italic;font-variant:normal;font-weight:bold;font-size:14.005px;font-family:Arial;-inkscape-font-specification:'ArialMT, BoldItalic';writing-mode:lr-tb;fill:#2a2a2b;fill-opacity:1;fill-rule:nonzero;stroke:none"
       id="text42021"><tspan
         x="0"
         y="0"
         id="tspan42019">p</tspan></text><text
       transform="matrix(1,0,0,-1,310.7154,321.3332)"
       style="font-variant:normal;font-weight:bold;font-size:14.005px;font-family:Arial;-inkscape-font-specification:'ArialMT Bold';writing-mode:lr-tb;fill:#2a2a2b;fill-opacity:1;fill-rule:nonzero;stroke:none"
       id="text42025"><tspan
         x="0 4.6636648 14.005"
         y="0"
         id="tspan42023">-Si</tspan></text><text
       transform="matrix(1,0,0,-1,261.2086,304.5229)"
       style="font-variant:normal;font-weight:bold;font-size:14.005px;font-family:Arial;-inkscape-font-specification:'ArialMT Bold';writing-mode:lr-tb;fill:#2a2a2b;fill-opacity:1;fill-rule:nonzero;stroke:none"
       id="text42029"><tspan
         x="0 4.6636648 12.5932 16.344299 24.273701 32.202801 40.132198 46.7868 50.537601 54.288399 62.2178 70.147202 78.076599"
         y="0"
         id="tspan42027">(1.12eV, 400 </tspan></text><text
       transform="matrix(1,0,0,-1,342.6156,304.5229)"
       style="font-variant:normal;font-weight:bold;font-size:14.005px;font-family:Arial;-inkscape-font-specification:'ArialMT Bold';writing-mode:lr-tb;fill:#2a2a2b;fill-opacity:1;fill-rule:nonzero;stroke:none"
       id="text42033"><tspan
         x="0"
         y="0"
         id="tspan42031">ì</tspan></text><text
       transform="matrix(1,0,0,-1,350.9044,304.5229)"
       style="font-variant:normal;font-weight:bold;font-size:14.005px;font-family:Arial;-inkscape-font-specification:'ArialMT Bold';writing-mode:lr-tb;fill:#2a2a2b;fill-opacity:1;fill-rule:nonzero;stroke:none"
       id="text42037"><tspan
         x="0 12.1728"
         y="0"
         id="tspan42035">m)</tspan></text><path
       d="m 190.5829,274.0059 h 249.355 v -20.0781 h -249.355 z"
       style="fill:#f1c4d6;fill-opacity:1;fill-rule:nonzero;stroke:none"
       id="path42039" /><path
       d="m 190.5829,274.0059 h 249.355 v -20.0781 h -249.355 z"
       style="fill:none;stroke:#2a2a2b;stroke-width:0.934;stroke-linecap:butt;stroke-linejoin:miter;stroke-miterlimit:8;stroke-dasharray:none;stroke-opacity:1"
       id="path42041" /><text
       transform="matrix(1,0,0,-1,292.0266,258.8723)"
       style="font-style:italic;font-variant:normal;font-weight:bold;font-size:14.005px;font-family:Arial;-inkscape-font-specification:'ArialMT, BoldItalic';writing-mode:lr-tb;fill:#2a2a2b;fill-opacity:1;fill-rule:nonzero;stroke:none"
       id="text42045"><tspan
         x="0"
         y="0"
         id="tspan42043">p</tspan></text><text
       transform="matrix(1,0,0,-1,300.4328,263.0795)"
       style="font-variant:normal;font-weight:bold;font-size:9.337px;font-family:Arial;-inkscape-font-specification:'ArialMT Bold';writing-mode:lr-tb;fill:#2a2a2b;fill-opacity:1;fill-rule:nonzero;stroke:none"
       id="text42049"><tspan
         x="0"
         y="0"
         id="tspan42047">+</tspan></text><text
       transform="matrix(1,0,0,-1,306.0366,258.8723)"
       style="font-variant:normal;font-weight:bold;font-size:14.005px;font-family:Arial;-inkscape-font-specification:'ArialMT Bold';writing-mode:lr-tb;fill:#2a2a2b;fill-opacity:1;fill-rule:nonzero;stroke:none"
       id="text42053"><tspan
         x="0 4.6636648 14.4978 23.839134"
         y="0"
         id="tspan42051">-BSF</tspan></text><path
       d="m 190.5829,381.8418 h 249.355 v -20.0699 h -249.355 z"
       style="fill:#f1a5c0;fill-opacity:1;fill-rule:nonzero;stroke:none"
       id="path42055" /><path
       d="m 190.5829,381.8418 h 249.355 v -20.0699 h -249.355 z"
       style="fill:none;stroke:#2a2a2b;stroke-width:0.934;stroke-linecap:butt;stroke-linejoin:miter;stroke-miterlimit:8;stroke-dasharray:none;stroke-opacity:1"
       id="path42057" /><text
       transform="matrix(1,0,0,-1,299.4987,366.834)"
       style="font-style:italic;font-variant:normal;font-weight:bold;font-size:14.005px;font-family:Arial;-inkscape-font-specification:'ArialMT, BoldItalic';writing-mode:lr-tb;fill:#2a2a2b;fill-opacity:1;fill-rule:nonzero;stroke:none"
       id="text42061"><tspan
         x="0"
         y="0"
         id="tspan42059">n</tspan></text><text
       transform="matrix(1,0,0,-1,307.9026,371.0424)"
       style="font-variant:normal;font-weight:bold;font-size:9.337px;font-family:Arial;-inkscape-font-specification:'ArialMT Bold';writing-mode:lr-tb;fill:#2a2a2b;fill-opacity:1;fill-rule:nonzero;stroke:none"
       id="text42065"><tspan
         x="0"
         y="0"
         id="tspan42063">+</tspan></text><text
       transform="matrix(1,0,0,-1,313.5067,366.834)"
       style="font-variant:normal;font-weight:bold;font-size:14.005px;font-family:Arial;-inkscape-font-specification:'ArialMT Bold';writing-mode:lr-tb;fill:#2a2a2b;fill-opacity:1;fill-rule:nonzero;stroke:none"
       id="text42069"><tspan
         x="0 4.6636648 14.005"
         y="0"
         id="tspan42067">-Si</tspan></text><path
       d="M 231.2079,489.6859 H 399.3097 V 478.4828 H 231.2079 Z"
       style="fill:#cbd9e4;fill-opacity:1;fill-rule:nonzero;stroke:none"
       id="path42071" /><path
       d="M 231.2079,489.6859 H 399.3097 V 478.4828 H 231.2079 Z"
       style="fill:none;stroke:#2a2a2b;stroke-width:0.934;stroke-linecap:butt;stroke-linejoin:miter;stroke-miterlimit:8;stroke-dasharray:none;stroke-opacity:1"
       id="path42073" /><path
       d="M 231.2079,537.772 H 399.3097 V 489.2168 H 231.2079 Z"
       style="fill:#7ab6e0;fill-opacity:1;fill-rule:nonzero;stroke:none"
       id="path42075" /><path
       d="M 231.2079,537.772 H 399.3097 V 489.2168 H 231.2079 Z"
       style="fill:none;stroke:#2a2a2b;stroke-width:0.934;stroke-linecap:butt;stroke-linejoin:miter;stroke-miterlimit:8;stroke-dasharray:none;stroke-opacity:1"
       id="path42077" /><text
       transform="matrix(1,0,0,-1,288.7466,516.7457)"
       style="font-style:italic;font-variant:normal;font-weight:bold;font-size:14.005px;font-family:Arial;-inkscape-font-specification:'ArialMT, BoldItalic';writing-mode:lr-tb;fill:#2a2a2b;fill-opacity:1;fill-rule:nonzero;stroke:none"
       id="text42081"><tspan
         x="0"
         y="0"
         id="tspan42079">p</tspan></text><text
       transform="matrix(1,0,0,-1,297.1615,516.7457)"
       style="font-variant:normal;font-weight:bold;font-size:14.005px;font-family:Arial;-inkscape-font-specification:'ArialMT Bold';writing-mode:lr-tb;fill:#2a2a2b;fill-opacity:1;fill-rule:nonzero;stroke:none"
       id="text42085"><tspan
         x="0 4.6636648 8.4146004 16.8295 27.5833 35.512699"
         y="0"
         id="tspan42083">-InGaP</tspan></text><text
       transform="matrix(1,0,0,-1,257.4592,499.9351)"
       style="font-variant:normal;font-weight:bold;font-size:14.005px;font-family:Arial;-inkscape-font-specification:'ArialMT Bold';writing-mode:lr-tb;fill:#2a2a2b;fill-opacity:1;fill-rule:nonzero;stroke:none"
       id="text42089"><tspan
         x="0 4.6636648 12.5932 16.344299 24.273701 32.202801 35.953899 43.883301 50.537899 54.2887 58.039501 65.968903 69.720001 77.649101 85.578499"
         y="0"
         id="tspan42087">(1.89 eV, 0.35 </tspan></text><text
       transform="matrix(1,0,0,-1,346.7885,499.9351)"
       style="font-variant:normal;font-weight:bold;font-size:14.005px;font-family:Arial;-inkscape-font-specification:'ArialMT Bold';writing-mode:lr-tb;fill:#2a2a2b;fill-opacity:1;fill-rule:nonzero;stroke:none"
       id="text42093"><tspan
         x="0"
         y="0"
         id="tspan42091">ì</tspan></text><text
       transform="matrix(1,0,0,-1,355.217,499.9351)"
       style="font-variant:normal;font-weight:bold;font-size:14.005px;font-family:Arial;-inkscape-font-specification:'ArialMT Bold';writing-mode:lr-tb;fill:#2a2a2b;fill-opacity:1;fill-rule:nonzero;stroke:none"
       id="text42097"><tspan
         x="0 12.0331"
         y="0"
         id="tspan42095">m)</tspan></text><path
       d="M 231.2079,553.1737 H 399.3097 V 537.772 H 231.2079 Z"
       style="fill:#7ab6e0;fill-opacity:1;fill-rule:nonzero;stroke:none"
       id="path42099" /><path
       d="M 231.2079,553.1737 H 399.3097 V 537.772 H 231.2079 Z"
       style="fill:none;stroke:#2a2a2b;stroke-width:0.934;stroke-linecap:butt;stroke-linejoin:miter;stroke-miterlimit:8;stroke-dasharray:none;stroke-opacity:1"
       id="path42101" /><text
       transform="matrix(1,0,0,-1,288.7466,540.5553)"
       style="font-style:italic;font-variant:normal;font-weight:bold;font-size:14.005px;font-family:Arial;-inkscape-font-specification:'ArialMT, BoldItalic';writing-mode:lr-tb;fill:#2a2a2b;fill-opacity:1;fill-rule:nonzero;stroke:none"
       id="text42105"><tspan
         x="0"
         y="0"
         id="tspan42103">n</tspan></text><text
       transform="matrix(1,0,0,-1,297.1615,540.5553)"
       style="font-variant:normal;font-weight:bold;font-size:14.005px;font-family:Arial;-inkscape-font-specification:'ArialMT Bold';writing-mode:lr-tb;fill:#2a2a2b;fill-opacity:1;fill-rule:nonzero;stroke:none"
       id="text42109"><tspan
         x="0 4.6636648 8.4146004 16.8295 27.5833 35.512699"
         y="0"
         id="tspan42107">-InGaP</tspan></text><path
       d="m 253.1537,575.119 h 26.617 v -11.2071 h -26.617 z"
       style="fill:#cbd9e4;fill-opacity:1;fill-rule:nonzero;stroke:none"
       id="path42111" /><path
       d="m 253.1537,575.119 h 26.617 v -11.2071 h -26.617 z"
       style="fill:none;stroke:#2a2a2b;stroke-width:0.934;stroke-linecap:butt;stroke-linejoin:miter;stroke-miterlimit:8;stroke-dasharray:none;stroke-opacity:1"
       id="path42113" /><path
       d="m 351.2157,575.119 h 26.1522 v -11.2071 h -26.1522 z"
       style="fill:#cbd9e4;fill-opacity:1;fill-rule:nonzero;stroke:none"
       id="path42115" /><path
       d="m 351.2157,575.119 h 26.1522 v -11.2071 h -26.1522 z"
       style="fill:none;stroke:#2a2a2b;stroke-width:0.934;stroke-linecap:butt;stroke-linejoin:miter;stroke-miterlimit:8;stroke-dasharray:none;stroke-opacity:1"
       id="path42117" /><path
       d="m 253.1537,585.8538 h 26.617 V 574.651 h -26.617 z"
       style="fill:#e8e819;fill-opacity:1;fill-rule:nonzero;stroke:none"
       id="path42119" /><path
       d="m 253.1537,585.8538 h 26.617 V 574.651 h -26.617 z"
       style="fill:none;stroke:#2a2a2b;stroke-width:0.934;stroke-linecap:butt;stroke-linejoin:miter;stroke-miterlimit:8;stroke-dasharray:none;stroke-opacity:1"
       id="path42121" /><path
       d="m 351.2157,585.8538 h 26.1522 V 574.651 h -26.1522 z"
       style="fill:#e8e819;fill-opacity:1;fill-rule:nonzero;stroke:none"
       id="path42123" /><path
       d="m 351.2157,585.8538 h 26.1522 V 574.651 h -26.1522 z"
       style="fill:none;stroke:#2a2a2b;stroke-width:0.934;stroke-linecap:butt;stroke-linejoin:miter;stroke-miterlimit:8;stroke-dasharray:none;stroke-opacity:1"
       id="path42125" /><path
       d="m 190.5829,253.9278 h 249.355 V 231.522 h -249.355 z"
       style="fill:#c4c3c2;fill-opacity:1;fill-rule:nonzero;stroke:none"
       id="path42127" /><path
       d="m 190.5829,253.9278 h 249.355 V 231.522 h -249.355 z"
       style="fill:none;stroke:#2a2a2b;stroke-width:0.934;stroke-linecap:butt;stroke-linejoin:miter;stroke-miterlimit:8;stroke-dasharray:none;stroke-opacity:1"
       id="path42129" /><text
       transform="matrix(1,0,0,-1,253.2696,237.6133)"
       style="font-variant:normal;font-weight:bold;font-size:14.005px;font-family:Arial;-inkscape-font-specification:'ArialMT Bold';writing-mode:lr-tb;fill:#2a2a2b;fill-opacity:1;fill-rule:nonzero;stroke:none"
       id="text42133"><tspan
         x="0 10.2543 18.183399 26.112801 31.702999 35.033699 42.82048 46.713871 54.500648 62.432499 67.096169 72.686501 81.101402 89.516296 97.445396 101.33879 106.00246 115.6946 119.4454"
         y="0"
         id="tspan42131">Rear electrode (Al)</tspan></text><path
       d="m 231.2079,563.9159 h 168.1018 v -11.207 H 231.2079 Z"
       style="fill:#cbd9e4;fill-opacity:1;fill-rule:nonzero;stroke:none"
       id="path42135" /><path
       d="m 231.2079,563.9119 h 168.1018 v -11.203 H 231.2079 Z"
       style="fill:none;stroke:#2a2a2b;stroke-width:0.934;stroke-linecap:butt;stroke-linejoin:miter;stroke-miterlimit:8;stroke-dasharray:none;stroke-opacity:1"
       id="path42137" /><text
       transform="matrix(1,0,0,-1,420.7799,583.2675)"
       style="font-variant:normal;font-weight:bold;font-size:14.005px;font-family:Arial;-inkscape-font-specification:'ArialMT Bold';writing-mode:lr-tb;fill:#2a2a2b;fill-opacity:1;fill-rule:nonzero;stroke:none"
       id="text42141"><tspan
         x="0 10.2543 18.183701"
         y="0"
         id="tspan42139">Cap</tspan></text><path
       d="m 231.2079,398.6549 h 168.1018 v -11.207 H 231.2079 Z"
       style="fill:#d6eabf;fill-opacity:1;fill-rule:nonzero;stroke:none"
       id="path42143" /><path
       d="M 231.2079,398.6549 H 399.3097 V 387.4518 H 231.2079 Z"
       style="fill:none;stroke:#2a2a2b;stroke-width:0.934;stroke-linecap:butt;stroke-linejoin:miter;stroke-miterlimit:8;stroke-dasharray:none;stroke-opacity:1"
       id="path42145" /><path
       d="M 231.2079,444.4007 H 399.3097 V 398.1818 H 231.2079 Z"
       style="fill:#b8e191;fill-opacity:1;fill-rule:nonzero;stroke:none"
       id="path42147" /><path
       d="M 231.2079,444.4007 H 399.3097 V 398.1818 H 231.2079 Z"
       style="fill:none;stroke:#2a2a2b;stroke-width:0.934;stroke-linecap:butt;stroke-linejoin:miter;stroke-miterlimit:8;stroke-dasharray:none;stroke-opacity:1"
       id="path42149" /><path
       d="M 231.2079,462.1428 H 399.3097 V 444.8699 H 231.2079 Z"
       style="fill:#b8e191;fill-opacity:1;fill-rule:nonzero;stroke:none"
       id="path42151" /><path
       d="M 231.2079,462.1428 H 399.3097 V 444.8699 H 231.2079 Z"
       style="fill:none;stroke:#2a2a2b;stroke-width:0.934;stroke-linecap:butt;stroke-linejoin:miter;stroke-miterlimit:8;stroke-dasharray:none;stroke-opacity:1"
       id="path42153" /><text
       transform="matrix(1,0,0,-1,290.6147,448.5098)"
       style="font-style:italic;font-variant:normal;font-weight:bold;font-size:14.005px;font-family:Arial;-inkscape-font-specification:'ArialMT, BoldItalic';writing-mode:lr-tb;fill:#2a2a2b;fill-opacity:1;fill-rule:nonzero;stroke:none"
       id="text42157"><tspan
         x="0"
         y="0"
         id="tspan42155">n</tspan></text><text
       transform="matrix(1,0,0,-1,299.0293,448.5098)"
       style="font-variant:normal;font-weight:bold;font-size:14.005px;font-family:Arial;-inkscape-font-specification:'ArialMT Bold';writing-mode:lr-tb;fill:#2a2a2b;fill-opacity:1;fill-rule:nonzero;stroke:none"
       id="text42161"><tspan
         x="0 4.6636648 15.4176 23.347 33.181"
         y="0"
         id="tspan42159">-GaAs</tspan></text><path
       d="M 231.2079,472.881 H 399.3097 V 461.6739 H 231.2079 Z"
       style="fill:#d6eabf;fill-opacity:1;fill-rule:nonzero;stroke:none"
       id="path42163" /><path
       d="M 231.2079,472.881 H 399.3097 V 461.6739 H 231.2079 Z"
       style="fill:none;stroke:#2a2a2b;stroke-width:0.934;stroke-linecap:butt;stroke-linejoin:miter;stroke-miterlimit:8;stroke-dasharray:none;stroke-opacity:1"
       id="path42165" /><text
       transform="matrix(1,0,0,-1,420.7799,562.8574)"
       style="font-variant:normal;font-weight:bold;font-size:14.005px;font-family:Arial;-inkscape-font-specification:'ArialMT Bold';writing-mode:lr-tb;fill:#2a2a2b;fill-opacity:1;fill-rule:nonzero;stroke:none"
       id="text42169"><tspan
         x="0 9.8341999 20.088499"
         y="0"
         id="tspan42167">ARC</tspan></text><text
       transform="matrix(1,0,0,-1,420.7799,602.6338)"
       style="font-variant:normal;font-weight:bold;font-size:14.005px;font-family:Arial;-inkscape-font-specification:'ArialMT Bold';writing-mode:lr-tb;fill:#2a2a2b;fill-opacity:1;fill-rule:nonzero;stroke:none"
       id="text42173"><tspan
         x="0 8.4148998 14.0054 22.4203 30.8349 35.498566 39.669601 47.598999 51.3498 59.279202 67.208603 71.872269 77.462601 85.877197 94.292099"
         y="0"
         id="tspan42171">Front electrode</tspan></text><text
       transform="matrix(1,0,0,-1,290.4381,428.5789)"
       style="font-style:italic;font-variant:normal;font-weight:bold;font-size:14.005px;font-family:Arial;-inkscape-font-specification:'ArialMT, BoldItalic';writing-mode:lr-tb;fill:#2a2a2b;fill-opacity:1;fill-rule:nonzero;stroke:none"
       id="text42177"><tspan
         x="0"
         y="0"
         id="tspan42175">p</tspan></text><text
       transform="matrix(1,0,0,-1,298.8527,428.5789)"
       style="font-variant:normal;font-weight:bold;font-size:14.005px;font-family:Arial;-inkscape-font-specification:'ArialMT Bold';writing-mode:lr-tb;fill:#2a2a2b;fill-opacity:1;fill-rule:nonzero;stroke:none"
       id="text42181"><tspan
         x="0 4.6636648 15.4176 23.347 33.181198"
         y="0"
         id="tspan42179">-GaAs</tspan></text><text
       transform="matrix(1,0,0,-1,261.4873,411.7697)"
       style="font-variant:normal;font-weight:bold;font-size:14.005px;font-family:Arial;-inkscape-font-specification:'ArialMT Bold';writing-mode:lr-tb;fill:#2a2a2b;fill-opacity:1;fill-rule:nonzero;stroke:none"
       id="text42185"><tspan
         x="0 4.6636648 12.5929 16.3437 24.2728 32.202202 35.952999 43.882099 50.536999 54.288101 58.038898 65.968002 69.719101 77.648499"
         y="0"
         id="tspan42183">(1.42 eV, 0.5 </tspan></text><text
       transform="matrix(1,0,0,-1,342.8866,411.7697)"
       style="font-variant:normal;font-weight:bold;font-size:14.005px;font-family:Arial;-inkscape-font-specification:'ArialMT Bold';writing-mode:lr-tb;fill:#2a2a2b;fill-opacity:1;fill-rule:nonzero;stroke:none"
       id="text42189"><tspan
         x="0"
         y="0"
         id="tspan42187">ì</tspan></text><text
       transform="matrix(1,0,0,-1,351.3151,411.7697)"
       style="font-variant:normal;font-weight:bold;font-size:14.005px;font-family:Arial;-inkscape-font-specification:'ArialMT Bold';writing-mode:lr-tb;fill:#2a2a2b;fill-opacity:1;fill-rule:nonzero;stroke:none"
       id="text42193"><tspan
         x="0 12.0328"
         y="0"
         id="tspan42191">m)</tspan></text><text
       transform="matrix(1,0,0,-1,87.8539,380.6323)"
       style="font-variant:normal;font-weight:bold;font-size:14.005px;font-family:Arial;-inkscape-font-specification:'ArialMT Bold';writing-mode:lr-tb;fill:#2a2a2b;fill-opacity:1;fill-rule:nonzero;stroke:none"
       id="text42197"><tspan
         x="0 9.3413353 17.756201 21.927099 32.181099 40.850601 44.601398 52.530499 58.120998 63.711498 71.6409"
         y="0"
         id="tspan42195">Pd NP array</tspan></text><g
       id="g42199"
       transform="translate(230.4999,472.776)"><g
         id="g42201"><g
           id="g42203"
           clip-path="url(#clipPath42207)"><g
             id="g42209"><g
               id="g42211"><g
                 id="g42217"><path
                   d="M 0,0 H 168.1021 V 5.5979 H 0 Z"
                   style="fill:url(#linearGradient42227);fill-rule:evenodd;stroke:none"
                   id="path42229" /></g></g></g></g></g></g><path
       d="M 231.2079,478.4828 H 399.3097 V 472.881 H 231.2079 Z"
       style="fill:none;stroke:#2a2a2b;stroke-width:0.934;stroke-linecap:butt;stroke-linejoin:miter;stroke-miterlimit:8;stroke-dasharray:none;stroke-opacity:1"
       id="path42231" /><text
       transform="matrix(1,0,0,-1,420.7799,471.9042)"
       style="font-variant:normal;font-weight:bold;font-size:14.005px;font-family:Arial;-inkscape-font-specification:'ArialMT Bold';writing-mode:lr-tb;fill:#2a2a2b;fill-opacity:1;fill-rule:nonzero;stroke:none"
       id="text42235"><tspan
         x="0 6.3958001 14.8107 23.225599 31.6402 39.569599 43.3204 47.631599 51.802799 60.2174 68.632004 76.561096 81.224762 84.9757 93.390297"
         y="0"
         id="tspan42233">Tunnel junction</tspan></text><path
       d="m 371.7629,581.8768 44.121,19.8482"
       style="fill:none;stroke:#2a2a2b;stroke-width:0.934;stroke-linecap:butt;stroke-linejoin:miter;stroke-miterlimit:8;stroke-dasharray:none;stroke-opacity:1"
       id="path42237" /><path
       d="m 182.6459,393.5137 c -2.4492,0 -4.438,3.4101 -4.438,7.6173 v 78.6019 c 0,4.2069 -1.9842,7.617 -4.4331,7.617 2.4489,0 4.4331,3.41 4.4331,7.6169 v 78.6019 c 0,4.2072 1.9888,7.6173 4.438,7.6173"
       style="fill:none;stroke:#2a2a2b;stroke-width:0.934;stroke-linecap:butt;stroke-linejoin:miter;stroke-miterlimit:8;stroke-dasharray:none;stroke-opacity:1"
       id="path42239" /><path
       d="m 182.6459,230.1188 c -2.4492,0 -4.438,3.4109 -4.438,7.6181 v 59.6908 c 0,4.2072 -1.9842,7.617 -4.4331,7.617 2.4489,0 4.4331,3.4101 4.4331,7.6173 v 59.6959 c 0,4.2109 1.9888,7.617 4.438,7.617"
       style="fill:none;stroke:#2a2a2b;stroke-width:0.934;stroke-linecap:butt;stroke-linejoin:miter;stroke-miterlimit:8;stroke-dasharray:none;stroke-opacity:1"
       id="path42241" /><text
       transform="matrix(1,0,0,-1,82.3603,484.164)"
       style="font-variant:normal;font-weight:bold;font-size:14.005px;font-family:Arial;-inkscape-font-specification:'ArialMT Bold';writing-mode:lr-tb;fill:#2a2a2b;fill-opacity:1;fill-rule:nonzero;stroke:none"
       id="text42245"><tspan
         x="0 6.3958001 14.8104 23.225 27.3962 35.325298 43.739899 52.154499 60.0839 68.013 71.764099 75.515198"
         y="0"
         id="tspan42243">Top subcells</tspan></text><text
       transform="matrix(1,0,0,-1,65.5934,300.964)"
       style="font-variant:normal;font-weight:bold;font-size:14.005px;font-family:Arial;-inkscape-font-specification:'ArialMT Bold';writing-mode:lr-tb;fill:#2a2a2b;fill-opacity:1;fill-rule:nonzero;stroke:none"
       id="text42249"><tspan
         x="0 9.8341999 18.2488 22.912464 27.57613 35.9911 48.163898 52.754902 60.683998 69.0989 77.513496 85.442596 93.372002 97.122803"
         y="0"
         id="tspan42247">Bottom subcell</tspan></text><path
       d="m 165.8327,384.647 h 30.8872"
       style="fill:none;stroke:#2a2a2b;stroke-width:0.934;stroke-linecap:butt;stroke-linejoin:miter;stroke-miterlimit:8;stroke-dasharray:none;stroke-opacity:1"
       id="path42251" /><path
       d="m 395.1108,475.6819 h 22.062"
       style="fill:none;stroke:#2a2a2b;stroke-width:0.934;stroke-linecap:butt;stroke-linejoin:miter;stroke-miterlimit:8;stroke-dasharray:none;stroke-opacity:1"
       id="path42253" /><text
       transform="matrix(1,0,0,-1,470.0375,588.7894)"
       style="font-variant:normal;font-weight:bold;font-size:14.005px;font-family:Arial;-inkscape-font-specification:'ArialMT Bold';writing-mode:lr-tb;fill:#2a2a2b;fill-opacity:1;fill-rule:nonzero;stroke:none"
       id="text42257"><tspan
         x="0 4.6636648 14.4981 22.913 33.6665 41.595901 51.850201 55.601299"
         y="0"
         id="tspan42255">(AuGeNi)</tspan></text><path
       d="m 373.1649,566.9399 44.121,19.8471"
       style="fill:none;stroke:#2a2a2b;stroke-width:0.934;stroke-linecap:butt;stroke-linejoin:miter;stroke-miterlimit:8;stroke-dasharray:none;stroke-opacity:1"
       id="path42259" /><path
       d="m 395.1108,566.7129 h 22.062"
       style="fill:none;stroke:#2a2a2b;stroke-width:0.934;stroke-linecap:butt;stroke-linejoin:miter;stroke-miterlimit:8;stroke-dasharray:none;stroke-opacity:1"
       id="path42261" /><text
       transform="matrix(1,0,0,-1,435.0319,548.1439)"
       style="font-variant:normal;font-weight:bold;font-size:14.005px;font-family:Arial;-inkscape-font-specification:'ArialMT Bold';writing-mode:lr-tb;fill:#2a2a2b;fill-opacity:1;fill-rule:nonzero;stroke:none"
       id="text42265"><tspan
         x="0 4.6636648 14.005 17.7565"
         y="0"
         id="tspan42263">(SiO</tspan></text><text
       transform="matrix(1,0,0,-1,463.5159,544.8832)"
       style="font-variant:normal;font-weight:bold;font-size:9.337px;font-family:Arial;-inkscape-font-specification:'ArialMT Bold';writing-mode:lr-tb;fill:#2a2a2b;fill-opacity:1;fill-rule:nonzero;stroke:none"
       id="text42269"><tspan
         x="0"
         y="0"
         id="tspan42267">2</tspan></text><text
       transform="matrix(1,0,0,-1,468.652,548.1439)"
       style="font-variant:normal;font-weight:bold;font-size:14.005px;font-family:Arial;-inkscape-font-specification:'ArialMT Bold';writing-mode:lr-tb;fill:#2a2a2b;fill-opacity:1;fill-rule:nonzero;stroke:none"
       id="text42273"><tspan
         x="0 3.7507999 11.4934 15.2442"
         y="0"
         id="tspan42271">/TiO</tspan></text><text
       transform="matrix(1,0,0,-1,494.8016,544.8832)"
       style="font-variant:normal;font-weight:bold;font-size:9.337px;font-family:Arial;-inkscape-font-specification:'ArialMT Bold';writing-mode:lr-tb;fill:#2a2a2b;fill-opacity:1;fill-rule:nonzero;stroke:none"
       id="text42277"><tspan
         x="0"
         y="0"
         id="tspan42275">2</tspan></text><text
       transform="matrix(1,0,0,-1,499.9397,548.1439)"
       style="font-variant:normal;font-weight:bold;font-size:14.005px;font-family:Arial;-inkscape-font-specification:'ArialMT Bold';writing-mode:lr-tb;fill:#2a2a2b;fill-opacity:1;fill-rule:nonzero;stroke:none"
       id="text42281"><tspan
         x="0"
         y="0"
         id="tspan42279">)</tspan></text><text
       transform="matrix(1,0,0,-1,420.7802,427.5927)"
       style="font-style:italic;font-variant:normal;font-weight:bold;font-size:14.005px;font-family:Arial;-inkscape-font-specification:'ArialMT, BoldItalic';writing-mode:lr-tb;fill:#2a2a2b;fill-opacity:1;fill-rule:nonzero;stroke:none"
       id="text42285"><tspan
         x="0"
         y="0"
         id="tspan42283">p</tspan></text><text
       transform="matrix(1,0,0,-1,429.1838,431.801)"
       style="font-variant:normal;font-weight:bold;font-size:9.337px;font-family:Arial;-inkscape-font-specification:'ArialMT Bold';writing-mode:lr-tb;fill:#2a2a2b;fill-opacity:1;fill-rule:nonzero;stroke:none"
       id="text42289"><tspan
         x="0"
         y="0"
         id="tspan42287">+</tspan></text><text
       transform="matrix(1,0,0,-1,434.7882,427.593)"
       style="font-variant:normal;font-weight:bold;font-size:14.005px;font-family:Arial;-inkscape-font-specification:'ArialMT Bold';writing-mode:lr-tb;fill:#2a2a2b;fill-opacity:1;fill-rule:nonzero;stroke:none"
       id="text42293"><tspan
         x="0 4.6636648 15.4174 23.3465 33.180698 41.109798"
         y="0"
         id="tspan42291">-GaAs </tspan></text><text
       transform="matrix(1,0,0,-1,420.7808,410.7824)"
       style="font-variant:normal;font-weight:bold;font-size:14.005px;font-family:Arial;-inkscape-font-specification:'ArialMT Bold';writing-mode:lr-tb;fill:#2a2a2b;fill-opacity:1;fill-rule:nonzero;stroke:none"
       id="text42297"><tspan
         x="0 4.6636648 13.0785 21.493401 26.157064 34.571899 42.986801 51.401402 59.330502 67.745399"
         y="0"
         id="tspan42295">(Zn-doped,</tspan></text><text
       transform="matrix(1,0,0,-1,420.7808,395.3727)"
       style="font-variant:normal;font-weight:bold;font-size:14.005px;font-family:Arial;-inkscape-font-specification:'ArialMT Bold';writing-mode:lr-tb;fill:#2a2a2b;fill-opacity:1;fill-rule:nonzero;stroke:none"
       id="text42301"><tspan
         x="0 7.9291 11.6802 19.609301 23.502689"
         y="0"
         id="tspan42299">5.0 ×</tspan></text><text
       transform="matrix(1,0,0,-1,455.851,395.373)"
       style="font-variant:normal;font-weight:bold;font-size:14.005px;font-family:Arial;-inkscape-font-specification:'ArialMT Bold';writing-mode:lr-tb;fill:#2a2a2b;fill-opacity:1;fill-rule:nonzero;stroke:none"
       id="text42305"><tspan
         x="0 7.9291"
         y="0"
         id="tspan42303">10</tspan></text><text
       transform="matrix(1,0,0,-1,471.725,399.5813)"
       style="font-variant:normal;font-weight:bold;font-size:9.337px;font-family:Arial;-inkscape-font-specification:'ArialMT Bold';writing-mode:lr-tb;fill:#2a2a2b;fill-opacity:1;fill-rule:nonzero;stroke:none"
       id="text42309"><tspan
         x="0 5.1913719"
         y="0"
         id="tspan42307">18</tspan></text><text
       transform="matrix(1,0,0,-1,485.735,395.373)"
       style="font-variant:normal;font-weight:bold;font-size:14.005px;font-family:Arial;-inkscape-font-specification:'ArialMT Bold';writing-mode:lr-tb;fill:#2a2a2b;fill-opacity:1;fill-rule:nonzero;stroke:none"
       id="text42313"><tspan
         x="0 7.9291"
         y="0"
         id="tspan42311">cm</tspan></text><text
       transform="matrix(1,0,0,-1,505.8147,399.5813)"
       style="font-variant:normal;font-weight:bold;font-size:9.337px;font-family:Arial;-inkscape-font-specification:'ArialMT Bold';writing-mode:lr-tb;fill:#2a2a2b;fill-opacity:1;fill-rule:nonzero;stroke:none"
       id="text42317"><tspan
         x="0 3.2958"
         y="0"
         id="tspan42315">-3</tspan></text><text
       transform="matrix(1,0,0,-1,514.2186,395.373)"
       style="font-variant:normal;font-weight:bold;font-size:14.005px;font-family:Arial;-inkscape-font-specification:'ArialMT Bold';writing-mode:lr-tb;fill:#2a2a2b;fill-opacity:1;fill-rule:nonzero;stroke:none"
       id="text42321"><tspan
         x="0"
         y="0"
         id="tspan42319">)</tspan></text><path
       d="m 393.7079,391.4158 22.0629,15.641"
       style="fill:none;stroke:#2a2a2b;stroke-width:0.934;stroke-linecap:butt;stroke-linejoin:miter;stroke-miterlimit:8;stroke-dasharray:none;stroke-opacity:1"
       id="path42323" /></g></svg>
