<?xml version="1.0" encoding="utf-8" ?>
<svg baseProfile="tiny" height="100%" version="1.2" viewBox="0 0 610 610" width="100%" xmlns="http://www.w3.org/2000/svg" xmlns:ev="http://www.w3.org/2001/xml-events" xmlns:xlink="http://www.w3.org/1999/xlink"><defs><line id="ltick" stroke="green" stroke-width="2" x1="0" x2="0" y1="0" y2="20" /><line id="stick" stroke="green" stroke-width="1" x1="0" x2="0" y1="0" y2="70" /></defs><circle cx="235" cy="235" fill="lightgrey" r="230" /><g transform="rotate(0.0 235 235)"><use x="235" xlink:href="#ltick" y="5" /><use x="235" xlink:href="#ltick" y="55" /><text text-anchor="middle" x="235" y="45">1</text></g><g transform="rotate(14.901366656961025 235 235)"><use x="235" xlink:href="#stick" y="5" /></g><g transform="rotate(28.50524857714493 235 235)"><use x="235" xlink:href="#stick" y="5" /></g><g transform="rotate(41.019606830461235 235 235)"><use x="235" xlink:href="#stick" y="5" /></g><g transform="rotate(52.60609284416567 235 235)"><use x="235" xlink:href="#stick" y="5" /></g><g transform="rotate(63.39285326004524 235 235)"><use x="235" xlink:href="#stick" y="5" /></g><g transform="rotate(73.48319375613292 235 235)"><use x="235" xlink:href="#stick" y="5" /></g><g transform="rotate(82.9616116961786 235 235)"><use x="235" xlink:href="#stick" y="5" /></g><g transform="rotate(91.89810183719018 235 235)"><use x="235" xlink:href="#stick" y="5" /></g><g transform="rotate(100.3512963430184 235 235)"><use x="235" xlink:href="#stick" y="5" /></g><g transform="rotate(108.37079843903321 235 235)"><use x="235" xlink:href="#ltick" y="5" /><use x="235" xlink:href="#ltick" y="55" /><text text-anchor="middle" x="235" y="45">2</text></g><g transform="rotate(115.99894610421093 235 235)"><use x="235" xlink:href="#stick" y="5" /></g><g transform="rotate(123.27216509599424 235 235)"><use x="235" xlink:href="#stick" y="5" /></g><g transform="rotate(130.2220209663334 235 235)"><use x="235" xlink:href="#stick" y="5" /></g><g transform="rotate(136.87604701617815 235 235)"><use x="235" xlink:href="#stick" y="5" /></g><g transform="rotate(143.25840312193353 235 235)"><use x="235" xlink:href="#stick" y="5" /></g><g transform="rotate(149.39040526949444 235 235)"><use x="235" xlink:href="#stick" y="5" /></g><g transform="rotate(155.29095509723544 235 235)"><use x="235" xlink:href="#stick" y="5" /></g><g transform="rotate(160.97689128319888 235 235)"><use x="235" xlink:href="#stick" y="5" /></g><g transform="rotate(166.46327924362416 235 235)"><use x="235" xlink:href="#stick" y="5" /></g><g transform="rotate(171.76365169907848 235 235)"><use x="235" xlink:href="#ltick" y="5" /><use x="235" xlink:href="#ltick" y="55" /><text text-anchor="middle" x="235" y="45">3</text></g><g transform="rotate(176.89020978033815 235 235)"><use x="235" xlink:href="#stick" y="5" /></g><g transform="rotate(181.85399219516614 235 235)"><use x="235" xlink:href="#stick" y="5" /></g><g transform="rotate(186.66501835603947 235 235)"><use x="235" xlink:href="#stick" y="5" /></g><g transform="rotate(191.3324101352118 235 235)"><use x="235" xlink:href="#stick" y="5" /></g><g transform="rotate(195.8644959660992 235 235)"><use x="235" xlink:href="#stick" y="5" /></g><g transform="rotate(200.26890027622338 235 235)"><use x="235" xlink:href="#stick" y="5" /></g><g transform="rotate(204.5526206641182 235 235)"><use x="235" xlink:href="#stick" y="5" /></g><g transform="rotate(208.7220947820516 235 235)"><use x="235" xlink:href="#stick" y="5" /></g><g transform="rotate(212.78325852953967 235 235)"><use x="235" xlink:href="#stick" y="5" /></g><g transform="rotate(216.74159687806642 235 235)"><use x="235" xlink:href="#ltick" y="5" /><use x="235" xlink:href="#ltick" y="55" /><text text-anchor="middle" x="235" y="45">4</text></g><g transform="rotate(220.60218841910478 235 235)"><use x="235" xlink:href="#stick" y="5" /></g><g transform="rotate(224.36974454324417 235 235)"><use x="235" xlink:href="#stick" y="5" /></g><g transform="rotate(228.0486440086511 235 235)"><use x="235" xlink:href="#stick" y="5" /></g><g transform="rotate(231.64296353502746 235 235)"><use x="235" xlink:href="#stick" y="5" /></g><g transform="rotate(235.1565049591237 235 235)"><use x="235" xlink:href="#stick" y="5" /></g><g transform="rotate(238.59281940536664 235 235)"><use x="235" xlink:href="#stick" y="5" /></g><g transform="rotate(241.95522885685827 235 235)"><use x="235" xlink:href="#stick" y="5" /></g><g transform="rotate(245.24684545521137 235 235)"><use x="235" xlink:href="#stick" y="5" /></g><g transform="rotate(248.4705888102649 235 235)"><use x="235" xlink:href="#stick" y="5" /></g><g transform="rotate(251.62920156096675 235 235)"><use x="235" xlink:href="#ltick" y="5" /><use x="235" xlink:href="#ltick" y="55" /><text text-anchor="middle" x="235" y="45">5</text></g><g transform="rotate(254.72526339525706 235 235)"><use x="235" xlink:href="#stick" y="5" /></g><g transform="rotate(257.76120370852766 235 235)"><use x="235" xlink:href="#stick" y="5" /></g><g transform="rotate(260.739313056284 235 235)"><use x="235" xlink:href="#stick" y="5" /></g><g transform="rotate(263.66175353626863 235 235)"><use x="235" xlink:href="#stick" y="5" /></g><g transform="rotate(266.53056821792774 235 235)"><use x="235" xlink:href="#stick" y="5" /></g><g transform="rotate(269.34768972223213 235 235)"><use x="235" xlink:href="#stick" y="5" /></g><g transform="rotate(272.1149480420969 235 235)"><use x="235" xlink:href="#stick" y="5" /></g><g transform="rotate(274.8340776826574 235 235)"><use x="235" xlink:href="#stick" y="5" /></g><g transform="rotate(277.5067241911719 235 235)"><use x="235" xlink:href="#stick" y="5" /></g><g transform="rotate(280.1344501381117 235 235)"><use x="235" xlink:href="#ltick" y="5" /><use x="235" xlink:href="#ltick" y="55" /><text text-anchor="middle" x="235" y="45">6</text></g><g transform="rotate(282.7187406038761 235 235)"><use x="235" xlink:href="#stick" y="5" /></g><g transform="rotate(285.2610082193714 235 235)"><use x="235" xlink:href="#stick" y="5" /></g><g transform="rotate(287.76259780328934 235 235)"><use x="235" xlink:href="#stick" y="5" /></g><g transform="rotate(290.2247906341994 235 235)"><use x="235" xlink:href="#stick" y="5" /></g><g transform="rotate(292.64880839142796 235 235)"><use x="235" xlink:href="#stick" y="5" /></g><g transform="rotate(295.03581679507266 235 235)"><use x="235" xlink:href="#stick" y="5" /></g><g transform="rotate(297.38692897229754 235 235)"><use x="235" xlink:href="#stick" y="5" /></g><g transform="rotate(299.7032085742451 235 235)"><use x="235" xlink:href="#stick" y="5" /></g><g transform="rotate(301.98567266541187 235 235)"><use x="235" xlink:href="#stick" y="5" /></g><g transform="rotate(304.23529440513244 235 235)"><use x="235" xlink:href="#ltick" y="5" /><use x="235" xlink:href="#ltick" y="55" /><text text-anchor="middle" x="235" y="45">7</text></g><g transform="rotate(306.4530055388671 235 235)"><use x="235" xlink:href="#stick" y="5" /></g><g transform="rotate(308.6396987152566 235 235)"><use x="235" xlink:href="#stick" y="5" /></g><g transform="rotate(310.79622964336414 235 235)"><use x="235" xlink:href="#stick" y="5" /></g><g transform="rotate(312.92341910315145 235 235)"><use x="235" xlink:href="#stick" y="5" /></g><g transform="rotate(315.022054821012 235 235)"><use x="235" xlink:href="#stick" y="5" /></g><g transform="rotate(317.0928932210848 235 235)"><use x="235" xlink:href="#stick" y="5" /></g><g transform="rotate(319.1366610620935 235 235)"><use x="235" xlink:href="#stick" y="5" /></g><g transform="rotate(321.15405696857295 235 235)"><use x="235" xlink:href="#stick" y="5" /></g><g transform="rotate(323.1457528645589 235 235)"><use x="235" xlink:href="#stick" y="5" /></g><g transform="rotate(325.11239531709964 235 235)"><use x="235" xlink:href="#ltick" y="5" /><use x="235" xlink:href="#ltick" y="55" /><text text-anchor="middle" x="235" y="45">8</text></g><g transform="rotate(327.0546067963139 235 235)"><use x="235" xlink:href="#stick" y="5" /></g><g transform="rotate(328.972986858138 235 235)"><use x="235" xlink:href="#stick" y="5" /></g><g transform="rotate(330.86811325538656 235 235)"><use x="235" xlink:href="#stick" y="5" /></g><g transform="rotate(332.74054298227736 235 235)"><use x="235" xlink:href="#stick" y="5" /></g><g transform="rotate(334.5908132571453 235 235)"><use x="235" xlink:href="#stick" y="5" /></g><g transform="rotate(336.41944244768433 235 235)"><use x="235" xlink:href="#stick" y="5" /></g><g transform="rotate(338.2269309427026 235 235)"><use x="235" xlink:href="#stick" y="5" /></g><g transform="rotate(340.0137619740607 235 235)"><use x="235" xlink:href="#stick" y="5" /></g><g transform="rotate(341.7804023921686 235 235)"><use x="235" xlink:href="#stick" y="5" /></g><g transform="rotate(343.52730339815696 235 235)"><use x="235" xlink:href="#ltick" y="5" /><use x="235" xlink:href="#ltick" y="55" /><text text-anchor="middle" x="235" y="45">9</text></g><g transform="rotate(345.25490123559365 235 235)"><use x="235" xlink:href="#stick" y="5" /></g><g transform="rotate(346.96361784439983 235 235)"><use x="235" xlink:href="#stick" y="5" /></g><g transform="rotate(348.65386147941666 235 235)"><use x="235" xlink:href="#stick" y="5" /></g><g transform="rotate(350.3260272958915 235 235)"><use x="235" xlink:href="#stick" y="5" /></g><g transform="rotate(351.98049790398517 235 235)"><use x="235" xlink:href="#stick" y="5" /></g><g transform="rotate(353.61764389424457 235 235)"><use x="235" xlink:href="#stick" y="5" /></g><g transform="rotate(355.2378243358481 235 235)"><use x="235" xlink:href="#stick" y="5" /></g><g transform="rotate(356.8413872492982 235 235)"><use x="235" xlink:href="#stick" y="5" /></g><g transform="rotate(358.42867005511795 235 235)"><use x="235" xlink:href="#stick" y="5" /></g></svg>