<?xml version="1.0" encoding="UTF-8"?>
<svg width="576" height="384" version="1.1" viewBox="0 0 576 384" xml:space="preserve" xmlns="http://www.w3.org/2000/svg" xmlns:cc="http://creativecommons.org/ns#" xmlns:dc="http://purl.org/dc/elements/1.1/" xmlns:rdf="http://www.w3.org/1999/02/22-rdf-syntax-ns#"><metadata><rdf:RDF><cc:Work rdf:about=""><dc:format>image/svg+xml</dc:format><dc:type rdf:resource="http://purl.org/dc/dcmitype/StillImage"/><dc:title/></cc:Work></rdf:RDF></metadata><defs><clipPath id="clipPath968"><path d="m54 36h334.8v217.44h-334.8z"/></clipPath><clipPath id="clipPath978"><path d="m54 36h334.8v217.44h-334.8z"/></clipPath></defs><g transform="matrix(1.3333 0 0 -1.3333 0 384)"><g><path d="m54 36h334.8v217.44h-334.8z" fill="#fff"/><path d="m69.218 36v-3.5" stroke="#000" stroke-linejoin="round" stroke-miterlimit="10" stroke-width=".8"/><text transform="matrix(1 0 0 -1 66.038 21.406)" fill="#000000" font-family="'DejaVu Sans'" font-size="10px"><tspan x="0" y="0">0</tspan></text><path d="m127.75 36v-3.5" stroke="#000" stroke-linejoin="round" stroke-miterlimit="10" stroke-width=".8"/><text transform="matrix(1 0 0 -1 121.39 21.406)" fill="#000000" font-family="'DejaVu Sans'" font-size="10px"><tspan x="0 6.3600001" y="0">10</tspan></text><path d="m186.28 36v-3.5" stroke="#000" stroke-linejoin="round" stroke-miterlimit="10" stroke-width=".8"/><text transform="matrix(1 0 0 -1 179.92 21.406)" fill="#000000" font-family="'DejaVu Sans'" font-size="10px"><tspan x="0 6.3600001" y="0">20</tspan></text><path d="m244.81 36v-3.5" stroke="#000" stroke-linejoin="round" stroke-miterlimit="10" stroke-width=".8"/><text transform="matrix(1 0 0 -1 238.45 21.406)" fill="#000000" font-family="'DejaVu Sans'" font-size="10px"><tspan x="0 6.3600001" y="0">30</tspan></text><path d="m303.34 36v-3.5" stroke="#000" stroke-linejoin="round" stroke-miterlimit="10" stroke-width=".8"/><text transform="matrix(1 0 0 -1 296.98 21.406)" fill="#000000" font-family="'DejaVu Sans'" font-size="10px"><tspan x="0 6.3600001" y="0">40</tspan></text><path d="m361.88 36v-3.5" stroke="#000" stroke-linejoin="round" stroke-miterlimit="10" stroke-width=".8"/><text transform="matrix(1 0 0 -1 355.52 21.406)" fill="#000000" font-family="'DejaVu Sans'" font-size="10px"><tspan x="0 6.3600001" y="0">50</tspan></text><path d="m54 45.884h-3.5" stroke="#000" stroke-linejoin="round" stroke-miterlimit="10" stroke-width=".8"/><text transform="matrix(1 0 0 -1 40.641 42.087)" fill="#000000" font-family="'DejaVu Sans'" font-size="10px"><tspan x="0" y="0">0</tspan></text><path d="m54 70.307h-3.5" stroke="#000" stroke-linejoin="round" stroke-miterlimit="10" stroke-width=".8"/><text transform="matrix(1 0 0 -1 15.203 66.51)" fill="#000000" font-family="'DejaVu Sans'" font-size="10px"><tspan x="0 6.3600001 12.72 19.08 25.440001" y="0">25000</tspan></text><path d="m54 94.73h-3.5" stroke="#000" stroke-linejoin="round" stroke-miterlimit="10" stroke-width=".8"/><text transform="matrix(1 0 0 -1 15.203 90.933)" fill="#000000" font-family="'DejaVu Sans'" font-size="10px"><tspan x="0 6.3600001 12.72 19.08 25.440001" y="0">50000</tspan></text><path d="m54 119.15h-3.5" stroke="#000" stroke-linejoin="round" stroke-miterlimit="10" stroke-width=".8"/><text transform="matrix(1 0 0 -1 15.203 115.36)" fill="#000000" font-family="'DejaVu Sans'" font-size="10px"><tspan x="0 6.3600001 12.72 19.08 25.440001" y="0">75000</tspan></text><path d="m54 143.58h-3.5" stroke="#000" stroke-linejoin="round" stroke-miterlimit="10" stroke-width=".8"/><text transform="matrix(1 0 0 -1 8.8438 139.78)" fill="#000000" font-family="'DejaVu Sans'" font-size="10px"><tspan x="0 6.3600001 12.72 19.08 25.440001 31.799999" y="0">100000</tspan></text><path d="m54 168h-3.5" stroke="#000" stroke-linejoin="round" stroke-miterlimit="10" stroke-width=".8"/><text transform="matrix(1 0 0 -1 8.8438 164.2)" fill="#000000" font-family="'DejaVu Sans'" font-size="10px"><tspan x="0 6.3600001 12.72 19.08 25.440001 31.799999" y="0">125000</tspan></text><path d="m54 192.42h-3.5" stroke="#000" stroke-linejoin="round" stroke-miterlimit="10" stroke-width=".8"/><text transform="matrix(1 0 0 -1 8.8438 188.63)" fill="#000000" font-family="'DejaVu Sans'" font-size="10px"><tspan x="0 6.3600001 12.72 19.08 25.440001 31.799999" y="0">150000</tspan></text><path d="m54 216.85h-3.5" stroke="#000" stroke-linejoin="round" stroke-miterlimit="10" stroke-width=".8"/><text transform="matrix(1 0 0 -1 8.8438 213.05)" fill="#000000" font-family="'DejaVu Sans'" font-size="10px"><tspan x="0 6.3600001 12.72 19.08 25.440001 31.799999" y="0">175000</tspan></text><path d="m54 241.27h-3.5" stroke="#000" stroke-linejoin="round" stroke-miterlimit="10" stroke-width=".8"/><text transform="matrix(1 0 0 -1 8.8438 237.47)" fill="#000000" font-family="'DejaVu Sans'" font-size="10px"><tspan x="0 6.3600001 12.72 19.08 25.440001 31.799999" y="0">200000</tspan></text></g><g clip-path="url(#clipPath968)"><path d="m69.218 46.372 5.8531 1.023 5.8531 1.5836 5.8531 2.1472 5.8531 2.6884 5.8531 3.181 5.8531 3.5983 5.8532 3.9152 5.8532 4.1088 5.8531 4.1603 5.8532 4.0561 5.8532 3.7886 5.8531 3.3575 5.8532 2.7705 5.8532 2.0433 5.8531 1.2002 5.8532 0.27299 5.8532-0.69926 5.8531-1.6716 5.8532-2.595 5.8532-3.4178 5.8532-4.0886 5.8531-4.558 5.8532-4.7818 5.8532-4.723 5.8531-4.3549 5.8532-3.6624 5.8532-2.6447 5.8531-1.316 5.8532 0.29352 5.8532 2.1376 5.8531 4.1551 5.8532 6.2708 5.8532 8.3985 5.8531 10.444 5.8532 12.307 5.8532 13.89 5.8531 15.097 5.8532 15.844 5.8532 16.06 5.8532 15.693 5.8531 14.717 5.8532 13.128 5.8532 10.957 5.8531 8.2632 5.8532 5.1358 5.8532 1.6952 5.8531-1.9126 5.8532-5.5191 5.8532-8.9403 5.8531-11.983" fill="none" stroke="#1f77b4" stroke-linecap="square" stroke-linejoin="round" stroke-miterlimit="10" stroke-width="1.5"/></g><g clip-path="url(#clipPath978)"><path d="m69.218 45.884 5.8531 9.77e-4 5.8531-9.77e-4h5.8531l5.8531 2e-3 5.8531 0.0039 5.8531-0.0049 5.8532 0.0029 5.8532 0.05275 5.8531 0.3429 5.8532 2.1258 5.8532 4.574 5.8531 11.81 5.8532 11.454 5.8532 0.9613 5.8531 0.25986 5.8532 0.08499 5.8532-1.6158 5.8531-8.3742 5.8532-2.7598 5.8532-3.4134 5.8532-5.1513 5.8531-2.3573 5.8532-0.94567 5.8532-0.70339 5.8531-1.4156 5.8532-0.9144 5.8532-9.77e-4 5.8531 0.30089 5.8532 0.60472 5.8532 0.381 5.8531 1.0062 5.8532 1.1342 5.8532 0.29015 5.8531 1.4791 5.8532 8.2502 5.8532 4.2379 5.8531 8.6917 5.8532 16.198 5.8532 34.489 5.8532 26.908 5.8531 12.307 5.8532 29.28 5.8532-0.53827 5.8531 13.448 5.8532 1.9763 5.8532-38.259 5.8531-26.195 5.8532 6.0462 5.8532 42.284 5.8531 49.335 5.8532-195.49 5.8532-2.1834" fill="none" stroke="#ff7f0e" stroke-linecap="square" stroke-linejoin="round" stroke-miterlimit="10" stroke-width="1.5"/></g><g fill="none" stroke="#000" stroke-linecap="square" stroke-miterlimit="10" stroke-width=".8"><path d="m54 36v217.44"/><path d="m388.8 36v217.44"/><path d="m54 36h334.8"/><path d="m54 253.44h334.8"/></g></g></svg>
