<?xml version="1.0" encoding="UTF-8"?>
<!DOCTYPE svg PUBLIC "-//W3C//DTD SVG 1.1//EN" "http://www.w3.org/Graphics/SVG/1.1/DTD/svg11.dtd">
<svg width="160mm" height="90mm" viewBox="0 0 16000 9000" version="1.1" xmlns="http://www.w3.org/2000/svg" stroke-width="28.222" stroke-linejoin="round" xml:space="preserve">
 <path fill="rgb(255,255,255)" stroke="none" d="M 8001,9005 L 1,9005 1,6 16000,6 16000,9005 8001,9005 Z"/>
 <path fill="none" stroke="rgb(179,179,179)" stroke-linejoin="round" d="M 8684,7197 L 1874,7197 1874,385 15494,385 15494,7197 8684,7197 Z"/>
 <path fill="none" stroke="rgb(179,179,179)" stroke-linejoin="round" d="M 15494,7196 L 1874,7196"/>
 <path fill="none" stroke="rgb(179,179,179)" stroke-linejoin="round" d="M 15494,6222 L 1874,6222"/>
 <path fill="none" stroke="rgb(179,179,179)" stroke-linejoin="round" d="M 15494,5249 L 1874,5249"/>
 <path fill="none" stroke="rgb(179,179,179)" stroke-linejoin="round" d="M 15494,4277 L 1874,4277"/>
 <path fill="none" stroke="rgb(179,179,179)" stroke-linejoin="round" d="M 15494,3303 L 1874,3303"/>
 <path fill="none" stroke="rgb(179,179,179)" stroke-linejoin="round" d="M 15494,2330 L 1874,2330"/>
 <path fill="none" stroke="rgb(179,179,179)" stroke-linejoin="round" d="M 15494,1357 L 1874,1357"/>
 <path fill="none" stroke="rgb(179,179,179)" stroke-linejoin="round" d="M 15494,384 L 1874,384"/>
 <path fill="none" stroke="rgb(179,179,179)" stroke-linejoin="round" d="M 1874,7346 L 1874,7196"/>
 <path fill="none" stroke="rgb(179,179,179)" stroke-linejoin="round" d="M 4144,7346 L 4144,7196"/>
 <path fill="none" stroke="rgb(179,179,179)" stroke-linejoin="round" d="M 6414,7346 L 6414,7196"/>
 <path fill="none" stroke="rgb(179,179,179)" stroke-linejoin="round" d="M 8683,7346 L 8683,7196"/>
 <path fill="none" stroke="rgb(179,179,179)" stroke-linejoin="round" d="M 10953,7346 L 10953,7196"/>
 <path fill="none" stroke="rgb(179,179,179)" stroke-linejoin="round" d="M 13223,7346 L 13223,7196"/>
 <path fill="none" stroke="rgb(179,179,179)" stroke-linejoin="round" d="M 15494,7346 L 15494,7196"/>
 <path fill="none" stroke="rgb(179,179,179)" stroke-linejoin="round" d="M 1874,7196 L 15494,7196"/>
 <path fill="none" stroke="rgb(179,179,179)" stroke-linejoin="round" d="M 1724,7196 L 1874,7196"/>
 <path fill="none" stroke="rgb(179,179,179)" stroke-linejoin="round" d="M 1724,6222 L 1874,6222"/>
 <path fill="none" stroke="rgb(179,179,179)" stroke-linejoin="round" d="M 1724,5249 L 1874,5249"/>
 <path fill="none" stroke="rgb(179,179,179)" stroke-linejoin="round" d="M 1724,4277 L 1874,4277"/>
 <path fill="none" stroke="rgb(179,179,179)" stroke-linejoin="round" d="M 1724,3303 L 1874,3303"/>
 <path fill="none" stroke="rgb(179,179,179)" stroke-linejoin="round" d="M 1724,2330 L 1874,2330"/>
 <path fill="none" stroke="rgb(179,179,179)" stroke-linejoin="round" d="M 1724,1357 L 1874,1357"/>
 <path fill="none" stroke="rgb(179,179,179)" stroke-linejoin="round" d="M 1724,384 L 1874,384"/>
 <path fill="none" stroke="rgb(179,179,179)" stroke-linejoin="round" d="M 1874,7196 L 1874,384"/>
 <path fill="none" stroke="rgb(0,69,134)" stroke-width="80" stroke-linejoin="round" d="M 2101,384 L 2328,6222 2555,617 2782,3363 3009,824 3236,2460 3463,996 3690,2044 3917,1130 4144,1819 4371,1230 4598,1688 4825,1302 5052,1607 5279,1352 5506,1556 5733,1387 5960,1523 6187,1411 6414,1501 6641,1427 6868,1487 7095,1438 7322,1478 7549,1445 7776,1472 8002,1450 8229,1468 8456,1454 8683,1465 8910,1456 9137,1464 9364,1457 9591,1462 9818,1458 10045,1462 10272,1459 10499,1461 10726,1459 10953,1461 11180,1459 11407,1461 11634,1460 11861,1460 12088,1460 12315,1460 12542,1460 12769,1460 12996,1460"/>
 <text class="TextShape"><tspan class="TextParagraph" font-family="Liberation Sans, sans-serif" font-size="353px" font-weight="400"><tspan class="TextPosition" x="1781" y="7764"><tspan fill="rgb(0,0,0)" stroke="none">0</tspan></tspan></tspan></text>
 <text class="TextShape"><tspan class="TextParagraph" font-family="Liberation Sans, sans-serif" font-size="353px" font-weight="400"><tspan class="TextPosition" x="3959" y="7764"><tspan fill="rgb(0,0,0)" stroke="none">10</tspan></tspan></tspan></text>
 <text class="TextShape"><tspan class="TextParagraph" font-family="Liberation Sans, sans-serif" font-size="353px" font-weight="400"><tspan class="TextPosition" x="6229" y="7764"><tspan fill="rgb(0,0,0)" stroke="none">20</tspan></tspan></tspan></text>
 <text class="TextShape"><tspan class="TextParagraph" font-family="Liberation Sans, sans-serif" font-size="353px" font-weight="400"><tspan class="TextPosition" x="8499" y="7764"><tspan fill="rgb(0,0,0)" stroke="none">30</tspan></tspan></tspan></text>
 <text class="TextShape"><tspan class="TextParagraph" font-family="Liberation Sans, sans-serif" font-size="353px" font-weight="400"><tspan class="TextPosition" x="10769" y="7764"><tspan fill="rgb(0,0,0)" stroke="none">40</tspan></tspan></tspan></text>
 <text class="TextShape"><tspan class="TextParagraph" font-family="Liberation Sans, sans-serif" font-size="353px" font-weight="400"><tspan class="TextPosition" x="13039" y="7764"><tspan fill="rgb(0,0,0)" stroke="none">50</tspan></tspan></tspan></text>
 <text class="TextShape"><tspan class="TextParagraph" font-family="Liberation Sans, sans-serif" font-size="353px" font-weight="400"><tspan class="TextPosition" x="15310" y="7764"><tspan fill="rgb(0,0,0)" stroke="none">60</tspan></tspan></tspan></text>
 <text class="TextShape"><tspan class="TextParagraph" font-family="Liberation Sans, sans-serif" font-size="353px" font-weight="400"><tspan class="TextPosition" x="1333" y="7317"><tspan fill="rgb(0,0,0)" stroke="none">-7</tspan></tspan></tspan></text>
 <text class="TextShape"><tspan class="TextParagraph" font-family="Liberation Sans, sans-serif" font-size="353px" font-weight="400"><tspan class="TextPosition" x="1333" y="6343"><tspan fill="rgb(0,0,0)" stroke="none">-6</tspan></tspan></tspan></text>
 <text class="TextShape"><tspan class="TextParagraph" font-family="Liberation Sans, sans-serif" font-size="353px" font-weight="400"><tspan class="TextPosition" x="1333" y="5370"><tspan fill="rgb(0,0,0)" stroke="none">-5</tspan></tspan></tspan></text>
 <text class="TextShape"><tspan class="TextParagraph" font-family="Liberation Sans, sans-serif" font-size="353px" font-weight="400"><tspan class="TextPosition" x="1333" y="4397"><tspan fill="rgb(0,0,0)" stroke="none">-4</tspan></tspan></tspan></text>
 <text class="TextShape"><tspan class="TextParagraph" font-family="Liberation Sans, sans-serif" font-size="353px" font-weight="400"><tspan class="TextPosition" x="1333" y="3423"><tspan fill="rgb(0,0,0)" stroke="none">-3</tspan></tspan></tspan></text>
 <text class="TextShape"><tspan class="TextParagraph" font-family="Liberation Sans, sans-serif" font-size="353px" font-weight="400"><tspan class="TextPosition" x="1333" y="2450"><tspan fill="rgb(0,0,0)" stroke="none">-2</tspan></tspan></tspan></text>
 <text class="TextShape"><tspan class="TextParagraph" font-family="Liberation Sans, sans-serif" font-size="353px" font-weight="400"><tspan class="TextPosition" x="1333" y="1477"><tspan fill="rgb(0,0,0)" stroke="none">-1</tspan></tspan></tspan></text>
 <text class="TextShape"><tspan class="TextParagraph" font-family="Liberation Sans, sans-serif" font-size="353px" font-weight="400"><tspan class="TextPosition" x="1439" y="504"><tspan fill="rgb(0,0,0)" stroke="none">0</tspan></tspan></tspan></text>
 <text class="TextShape"><tspan class="TextParagraph" font-family="Liberation Sans, sans-serif" font-size="318px" font-weight="400"><tspan class="TextPosition" x="8216" y="8411"><tspan fill="rgb(0,0,0)" stroke="none">Day</tspan></tspan></tspan></text>
 <text class="TextShape" transform="translate(838,4954) rotate(-90) translate(-838,-4954)"><tspan class="TextParagraph" font-family="Liberation Sans, sans-serif" font-size="318px" font-weight="400"><tspan class="TextPosition" x="838" y="4954"><tspan fill="rgb(0,0,0)" stroke="none">I-n prediction</tspan></tspan></tspan></text>
</svg>