<?xml version="1.0" encoding="UTF-8" standalone="no"?>
<svg
   xmlns:dc="http://purl.org/dc/elements/1.1/"
   xmlns:cc="http://creativecommons.org/ns#"
   xmlns:rdf="http://www.w3.org/1999/02/22-rdf-syntax-ns#"
   xmlns:svg="http://www.w3.org/2000/svg"
   xmlns="http://www.w3.org/2000/svg"
   xmlns:sodipodi="http://sodipodi.sourceforge.net/DTD/sodipodi-0.dtd"
   xmlns:inkscape="http://www.inkscape.org/namespaces/inkscape"
   width="85.540001mm"
   height="51.77mm"
   viewBox="0 0 85.540001 51.77"
   version="1.1"
   id="svg7869"
   inkscape:version="1.0.1 (3bc2e813f5, 2020-09-07)"
   sodipodi:docname="5.svg">
  <defs
     id="defs7863" />
  <sodipodi:namedview
     id="base"
     pagecolor="#ffffff"
     bordercolor="#666666"
     borderopacity="1.0"
     inkscape:pageopacity="0.0"
     inkscape:pageshadow="2"
     inkscape:zoom="2"
     inkscape:cx="190.05809"
     inkscape:cy="134.90331"
     inkscape:document-units="mm"
     inkscape:current-layer="layer1"
     inkscape:document-rotation="0"
     showgrid="false"
     fit-margin-top="0"
     fit-margin-left="0"
     fit-margin-right="0"
     fit-margin-bottom="0"
     inkscape:window-width="1920"
     inkscape:window-height="981"
     inkscape:window-x="0"
     inkscape:window-y="28"
     inkscape:window-maximized="1" />
  <metadata
     id="metadata7866">
    <rdf:RDF>
      <cc:Work
         rdf:about="">
        <dc:format>image/svg+xml</dc:format>
        <dc:type
           rdf:resource="http://purl.org/dc/dcmitype/StillImage" />
        <dc:title></dc:title>
      </cc:Work>
    </rdf:RDF>
  </metadata>
  <g
     inkscape:label="Layer 1"
     inkscape:groupmode="layer"
     id="layer1"
     transform="translate(-55.54713,-75.431832)">
    <g
       id="g11089">
      <g
         class="com.sun.star.drawing.ClosedBezierShape"
         id="g8098"
         style="fill-rule:evenodd;stroke-width:28.222;stroke-linejoin:round"
         transform="matrix(0.01,0,0,0.01,36.93713,56.031832)">
      <g
   id="id26">
       <rect
   class="BoundingBox"
   stroke="none"
   fill="none"
   x="3018"
   y="6475"
   width="6"
   height="20"
   id="rect8093" />

       <path
   fill="#ffffff"
   stroke="none"
   d="m 3018,6475 v 19 h 5 c -1,-7 -2,-13 -5,-19 z"
   id="path8095" />

      </g>

     </g>
      <g
         class="com.sun.star.drawing.ClosedBezierShape"
         id="g8105"
         style="fill-rule:evenodd;stroke-width:28.222;stroke-linejoin:round"
         transform="matrix(0.01,0,0,0.01,36.93713,56.031832)">
      <g
   id="id27">
       <rect
   class="BoundingBox"
   stroke="none"
   fill="none"
   x="3014"
   y="6474"
   width="15"
   height="26"
   id="rect8100" />

       <path
   fill="#000000"
   stroke="none"
   d="m 3019,6475 h 4 v 14 h 1 l -1,5 -4,1 c -2,-7 -3,-13 -5,-19 l 5,-1 h 4 -4 l 4,-1 c 1,6 3,12 4,20 l 1,5 -14,-2 v -22 l 9,-1 z"
   id="path8102" />

      </g>

     </g>
      <g
         class="com.sun.star.drawing.PolyPolygonShape"
         id="g8133"
         style="fill-rule:evenodd;stroke-width:28.222;stroke-linejoin:round"
         transform="matrix(0.01,0,0,0.01,36.93713,56.031832)">
      <g
   id="id31">
       <rect
   class="BoundingBox"
   stroke="none"
   fill="none"
   x="2435"
   y="3966"
   width="7967"
   height="27"
   id="rect8128" />

       <path
   fill="#000000"
   stroke="none"
   d="m 2435,3992 h 7966 v -26 H 2435 Z"
   id="path8130" />

      </g>

     </g>
      <g
         class="com.sun.star.drawing.PolyPolygonShape"
         id="g8140"
         style="fill-rule:evenodd;stroke-width:28.222;stroke-linejoin:round"
         transform="matrix(0.01,0,0,0.01,36.93713,56.031832)">
      <g
   id="id32">
       <rect
   class="BoundingBox"
   stroke="none"
   fill="none"
   x="2435"
   y="5372"
   width="36"
   height="27"
   id="rect8135" />

       <path
   fill="#000000"
   stroke="none"
   d="m 2435,5398 h 35 v -26 h -35 z"
   id="path8137" />

      </g>

     </g>
      <g
         class="com.sun.star.drawing.PolyPolygonShape"
         id="g8147"
         style="fill-rule:evenodd;stroke-width:28.222;stroke-linejoin:round"
         transform="matrix(0.01,0,0,0.01,36.93713,56.031832)">
      <g
   id="id33">
       <rect
   class="BoundingBox"
   stroke="none"
   fill="none"
   x="2539"
   y="5372"
   width="7759"
   height="27"
   id="rect8142" />

       <path
   fill="#000000"
   stroke="none"
   d="m 2539,5372 h 70 v 26 h -70 z m 140,0 h 70 v 26 h -70 z m 140,0 h 70 v 26 h -70 z m 140,0 h 69 v 26 h -69 z m 139,0 h 70 v 26 h -70 z m 140,0 h 70 v 26 h -70 z m 140,0 h 70 v 26 h -70 z m 140,0 h 69 v 26 h -69 z m 139,0 h 70 v 26 h -70 z m 140,0 h 70 v 26 h -70 z m 141,0 h 70 v 26 h -70 z m 140,0 h 70 v 26 h -70 z m 139,0 h 70 v 26 h -70 z m 140,0 h 70 v 26 h -70 z m 140,0 h 70 v 26 h -70 z m 140,0 h 70 v 26 h -70 z m 139,0 h 70 v 26 h -70 z m 140,0 h 70 v 26 h -70 z m 140,0 h 70 v 26 h -70 z m 140,0 h 70 v 26 h -70 z m 139,0 h 70 v 26 h -70 z m 140,0 h 70 v 26 h -70 z m 140,0 h 70 v 26 h -70 z m 140,0 h 70 v 26 h -70 z m 139,0 h 70 v 26 h -70 z m 140,0 h 70 v 26 h -70 z m 140,0 h 70 v 26 h -70 z m 140,0 h 70 v 26 h -70 z m 140,0 h 69 v 26 h -69 z m 139,0 h 70 v 26 h -70 z m 140,0 h 70 v 26 h -70 z m 140,0 h 70 v 26 h -70 z m 140,0 h 69 v 26 h -69 z m 139,0 h 70 v 26 h -70 z m 140,0 h 70 v 26 h -70 z m 140,0 h 70 v 26 h -70 z m 140,0 h 69 v 26 h -69 z m 139,0 h 70 v 26 h -70 z m 140,0 h 70 v 26 h -70 z m 140,0 h 70 v 26 h -70 z m 140,0 h 70 v 26 h -70 z m 139,0 h 70 v 26 h -70 z m 140,0 h 70 v 26 h -70 z m 140,0 h 70 v 26 h -70 z m 140,0 h 70 v 26 h -70 z m 139,0 h 70 v 26 h -70 z m 140,0 h 70 v 26 h -70 z m 140,0 h 70 v 26 h -70 z m 140,0 h 70 v 26 h -70 z m 139,0 h 70 v 26 h -70 z m 140,0 h 70 v 26 h -70 z m 140,0 h 70 v 26 h -70 z m 140,0 h 70 v 26 h -70 z m 139,0 h 70 v 26 h -70 z m 140,0 h 70 v 26 h -70 z m 140,0 h 70 v 26 h -70 z"
   id="path8144" />

      </g>

     </g>
      <g
         class="com.sun.star.drawing.PolyPolygonShape"
         id="g8154"
         style="fill-rule:evenodd;stroke-width:28.222;stroke-linejoin:round"
         transform="matrix(0.01,0,0,0.01,36.93713,56.031832)">
      <g
   id="id34">
       <rect
   class="BoundingBox"
   stroke="none"
   fill="none"
   x="10366"
   y="5372"
   width="36"
   height="27"
   id="rect8149" />

       <path
   fill="#000000"
   stroke="none"
   d="m 10366,5398 h 35 v -26 h -35 z"
   id="path8151" />

      </g>

     </g>
      <g
         class="com.sun.star.drawing.ClosedBezierShape"
         id="g8161"
         style="fill-rule:evenodd;stroke-width:28.222;stroke-linejoin:round"
         transform="matrix(0.01,0,0,0.01,36.93713,56.031832)">
      <g
   id="id35">
       <rect
   class="BoundingBox"
   stroke="none"
   fill="none"
   x="2432"
   y="5480"
   width="7972"
   height="387"
   id="rect8156" />

       <path
   fill="#000000"
   stroke="none"
   d="m 2433,5661 c 925,-133 1620,-181 2182,-181 768,0 1287,90 1806,181 518,91 1036,181 1801,181 561,0 1254,-49 2178,-181 l 3,25 c -924,132 -1619,180 -2181,180 -767,0 -1287,-90 -1806,-180 -518,-90 -1035,-181 -1801,-181 -560,0 -1255,48 -2179,181 z"
   id="path8158" />

      </g>

     </g>
      <g
         class="com.sun.star.drawing.ClosedBezierShape"
         id="g8168"
         style="fill-rule:evenodd;stroke-width:28.222;stroke-linejoin:round"
         transform="matrix(0.01,0,0,0.01,36.93713,56.031832)">
      <g
   id="id36">
       <rect
   class="BoundingBox"
   stroke="none"
   fill="none"
   x="2432"
   y="5636"
   width="7972"
   height="387"
   id="rect8163" />

       <path
   fill="#000000"
   stroke="none"
   d="m 2433,5817 c 925,-132 1620,-181 2182,-181 768,0 1287,90 1806,181 518,90 1036,181 1801,181 561,0 1254,-49 2178,-181 l 3,24 c -924,133 -1619,181 -2181,181 -767,0 -1287,-91 -1806,-181 -518,-90 -1035,-180 -1801,-180 -560,0 -1255,48 -2179,180 z"
   id="path8165" />

      </g>

     </g>
      <g
         class="com.sun.star.drawing.PolyPolygonShape"
         id="g8175"
         style="fill-rule:evenodd;stroke-width:28.222;stroke-linejoin:round"
         transform="matrix(0.01,0,0,0.01,36.93713,56.031832)">
      <g
   id="id37">
       <rect
   class="BoundingBox"
   stroke="none"
   fill="none"
   x="2435"
   y="7090"
   width="7967"
   height="27"
   id="rect8170" />

       <path
   fill="#000000"
   stroke="none"
   d="m 2435,7116 h 7966 v -26 H 2435 Z"
   id="path8172" />

      </g>

     </g>
      <g
         class="com.sun.star.drawing.PolyPolygonShape"
         id="g8182"
         style="fill-rule:evenodd;stroke-width:28.222;stroke-linejoin:round"
         transform="matrix(0.01,0,0,0.01,36.93713,56.031832)">
      <g
   id="id38">
       <rect
   class="BoundingBox"
   stroke="none"
   fill="none"
   x="2422"
   y="2417"
   width="27"
   height="3258"
   id="rect8177" />

       <path
   fill="#000000"
   stroke="none"
   d="m 2422,5674 h 26 V 2417 h -26 z"
   id="path8179" />

      </g>

     </g>
      <g
         class="com.sun.star.drawing.PolyPolygonShape"
         id="g8189"
         style="fill-rule:evenodd;stroke-width:28.222;stroke-linejoin:round"
         transform="matrix(0.01,0,0,0.01,36.93713,56.031832)">
      <g
   id="id39">
       <rect
   class="BoundingBox"
   stroke="none"
   fill="none"
   x="2422"
   y="5829"
   width="27"
   height="1276"
   id="rect8184" />

       <path
   fill="#000000"
   stroke="none"
   d="m 2422,7104 h 26 V 5829 h -26 z"
   id="path8186" />

      </g>

     </g>
      <g
         class="com.sun.star.drawing.PolyPolygonShape"
         id="g8196"
         style="fill-rule:evenodd;stroke-width:28.222;stroke-linejoin:round"
         transform="matrix(0.01,0,0,0.01,36.93713,56.031832)">
      <g
   id="id40">
       <rect
   class="BoundingBox"
   stroke="none"
   fill="none"
   x="10388"
   y="5829"
   width="27"
   height="1276"
   id="rect8191" />

       <path
   fill="#000000"
   stroke="none"
   d="m 10388,7104 h 26 V 5829 h -26 z"
   id="path8193" />

      </g>

     </g>
      <g
         class="com.sun.star.drawing.PolyPolygonShape"
         id="g8203"
         style="fill-rule:evenodd;stroke-width:28.222;stroke-linejoin:round"
         transform="matrix(0.01,0,0,0.01,36.93713,56.031832)">
      <g
   id="id41">
       <rect
   class="BoundingBox"
   stroke="none"
   fill="none"
   x="10388"
   y="2417"
   width="27"
   height="3258"
   id="rect8198" />

       <path
   fill="#000000"
   stroke="none"
   d="m 10388,5674 h 26 V 2417 h -26 z"
   id="path8200" />

      </g>

     </g>
      <g
         class="com.sun.star.drawing.ClosedBezierShape"
         id="g8210"
         style="fill-rule:evenodd;stroke-width:28.222;stroke-linejoin:round"
         transform="matrix(0.01,0,0,0.01,36.93713,56.031832)">
      <g
   id="id42">
       <rect
   class="BoundingBox"
   stroke="none"
   fill="none"
   x="5583"
   y="6460"
   width="1836"
   height="179"
   id="rect8205" />

       <path
   fill="#000000"
   stroke="none"
   d="m 5645,6635 c 10,0 19,-1 26,-3 7,-2 13,-5 18,-8 5,-4 9,-10 12,-17 3,-8 5,-15 5,-24 0,-10 -3,-18 -8,-26 -5,-7 -13,-13 -23,-16 8,-4 14,-9 17,-15 4,-7 6,-14 6,-22 0,-8 -2,-15 -6,-22 -5,-8 -11,-13 -18,-17 -8,-3 -18,-5 -30,-5 h -61 v 175 z m -41,-155 h 33 c 12,0 20,1 25,3 5,1 8,4 11,9 2,4 4,9 4,15 0,6 -2,11 -4,15 -3,4 -7,7 -13,9 -4,1 -11,2 -20,2 h -36 z m 0,73 h 38 c 10,0 18,1 24,3 6,2 10,6 13,11 3,4 5,10 5,16 0,6 -2,11 -4,15 -2,6 -5,9 -8,11 -3,2 -7,4 -12,5 -3,0 -8,1 -15,1 h -41 z m 224,82 v -127 h -20 v 67 c 0,11 -1,19 -3,26 -2,6 -6,10 -11,13 -6,3 -11,5 -17,5 -6,0 -11,-2 -15,-5 -4,-3 -7,-7 -8,-13 -1,-5 -1,-12 -1,-23 v -70 h -20 v 78 c 0,9 0,17 1,21 1,6 3,11 6,16 3,4 7,8 13,10 6,3 13,5 20,5 15,0 28,-7 37,-22 v 19 z m 31,0 h 20 v -175 h -20 z m 20,0 z m 51,0 v -51 l 14,-14 39,65 h 25 l -50,-80 45,-47 h -26 l -47,51 v -99 h -20 v 175 z m 152,0 18,-54 h 68 l 19,54 h 25 l -67,-175 h -23 l -63,175 z m 42,-124 c 3,-11 7,-22 9,-33 2,9 6,22 12,36 l 17,48 h -56 z m 102,124 h 20 v -175 h -20 z m 20,0 z m 54,0 v -138 l 85,138 h 22 v -175 h -20 v 137 l -86,-137 h -22 v 175 z m 213,-8 c 8,7 19,11 35,11 9,0 17,-2 25,-5 7,-4 13,-9 16,-15 4,-6 6,-13 6,-21 0,-8 -1,-14 -4,-18 -4,-5 -8,-9 -14,-12 -5,-2 -15,-6 -29,-10 -10,-2 -16,-4 -18,-5 -3,-1 -6,-3 -7,-6 -2,-2 -3,-4 -3,-7 0,-4 2,-8 6,-12 4,-3 10,-4 20,-4 7,0 13,2 18,5 4,4 6,9 7,16 l 20,-3 c -2,-9 -4,-15 -7,-20 -3,-5 -9,-9 -15,-12 -8,-2 -16,-4 -25,-4 -6,0 -12,1 -17,3 -6,1 -10,3 -13,6 -4,3 -7,7 -10,12 -2,5 -3,10 -3,15 0,6 1,12 4,17 3,5 7,9 13,12 6,3 16,7 31,10 10,3 17,6 20,8 4,2 6,6 6,11 0,7 -2,11 -7,15 -4,4 -11,6 -20,6 -9,0 -17,-2 -22,-7 -5,-4 -8,-11 -9,-20 l -20,3 c 3,15 8,25 16,31 z m 201,8 v -127 h -20 v 67 c 0,11 -1,19 -3,26 -2,6 -6,10 -11,13 -5,3 -11,5 -17,5 -6,0 -11,-2 -15,-5 -4,-3 -7,-7 -8,-13 -1,-5 -1,-12 -1,-23 v -70 h -20 v 78 c 0,9 0,17 1,21 1,6 3,11 6,16 3,4 7,8 13,10 6,3 13,5 20,5 16,0 28,-7 37,-22 v 19 z m 50,-16 c 8,13 19,19 33,19 14,0 26,-6 36,-18 10,-12 15,-30 15,-51 0,-9 -1,-18 -4,-26 -2,-8 -5,-14 -10,-20 -4,-6 -9,-10 -16,-13 -6,-3 -13,-5 -20,-5 -13,0 -24,6 -33,17 v -62 h -20 v 175 h 19 z m 9,-84 c 7,-8 14,-12 23,-12 9,0 16,3 22,11 6,8 9,20 9,37 0,16 -3,28 -9,37 -7,8 -14,12 -23,12 -11,0 -19,-5 -26,-16 -3,-8 -5,-19 -5,-34 0,-15 3,-27 9,-35 z m 107,92 c 8,7 19,11 35,11 9,0 17,-2 24,-5 8,-4 13,-9 17,-15 4,-6 6,-13 6,-21 0,-8 -1,-14 -5,-18 -3,-5 -7,-9 -13,-12 -5,-2 -15,-6 -29,-10 -10,-2 -16,-4 -18,-5 -3,-1 -6,-3 -8,-6 -1,-2 -2,-4 -2,-7 0,-4 2,-8 6,-12 4,-3 10,-4 19,-4 8,0 14,2 18,5 5,4 7,9 8,16 l 20,-3 c -2,-9 -4,-15 -7,-20 -4,-5 -9,-9 -16,-12 -7,-2 -15,-4 -24,-4 -6,0 -12,1 -17,3 -6,1 -10,3 -13,6 -4,3 -7,7 -10,12 -2,5 -3,10 -3,15 0,6 1,12 4,17 3,5 7,9 13,12 6,3 16,7 30,10 11,3 18,6 21,8 4,2 6,6 6,11 0,7 -3,11 -7,15 -4,4 -11,6 -20,6 -10,0 -17,-2 -22,-7 -5,-4 -8,-11 -9,-20 l -20,3 c 2,15 7,25 16,31 z m 141,-10 c -3,0 -6,-1 -7,-2 -2,-1 -3,-2 -4,-4 0,-2 -1,-6 -1,-13 v -74 h 20 v -16 h -20 v -44 l -20,13 v 31 h -14 v 16 h 14 v 73 c 0,14 1,22 3,26 1,4 4,8 8,10 4,2 10,4 17,4 4,0 9,-1 15,-2 l -3,-19 c -3,0 -6,1 -8,1 z m 48,18 v -67 c 0,-9 1,-17 3,-25 2,-5 4,-9 8,-12 3,-2 7,-4 11,-4 5,0 10,2 15,5 l 7,-20 c -7,-5 -14,-7 -20,-7 -5,0 -9,2 -13,4 -4,3 -9,9 -13,18 v -19 h -18 v 127 z m 137,0 h 21 c -3,-5 -4,-10 -5,-15 -1,-5 -1,-18 -1,-39 v -28 c 0,-10 -1,-16 -1,-20 -2,-6 -4,-11 -7,-15 -3,-3 -7,-7 -14,-9 -6,-3 -14,-4 -24,-4 -10,0 -19,2 -27,4 -8,4 -14,8 -18,13 -4,6 -7,13 -9,22 l 20,3 c 2,-9 6,-15 10,-19 5,-3 11,-5 21,-5 10,0 18,2 23,7 4,4 5,10 5,18 0,1 0,3 0,6 -7,3 -19,5 -36,7 -7,1 -13,2 -17,3 -6,2 -10,4 -15,7 -4,4 -7,8 -10,13 -3,5 -4,11 -4,18 0,10 3,19 11,25 7,7 17,11 30,11 7,0 15,-2 22,-5 6,-2 14,-7 21,-14 1,6 2,11 4,16 z m -6,-56 c 0,9 -1,16 -3,22 -3,6 -7,11 -13,15 -6,3 -13,5 -21,5 -8,0 -14,-2 -17,-6 -5,-4 -7,-8 -7,-14 0,-5 1,-8 3,-11 2,-3 5,-5 8,-7 4,-2 9,-3 18,-4 14,-2 25,-5 32,-8 z m 86,38 c -3,0 -5,-1 -7,-2 -1,-1 -2,-2 -3,-4 -1,-2 -1,-6 -1,-13 v -74 h 20 v -16 h -20 v -44 l -20,13 v 31 h -15 v 16 h 15 v 73 c 0,14 1,22 2,26 2,4 5,8 9,10 4,2 9,4 17,4 4,0 9,-1 15,-2 l -3,-19 c -4,0 -7,1 -9,1 z m 97,-3 c -5,4 -11,6 -19,6 -10,0 -18,-4 -25,-11 -6,-7 -10,-19 -10,-33 h 88 c 0,-2 0,-4 0,-5 0,-21 -5,-37 -15,-49 -10,-11 -23,-17 -39,-17 -16,0 -29,6 -40,18 -10,11 -15,28 -15,49 0,20 5,37 15,49 10,11 24,17 41,17 14,0 25,-4 34,-11 9,-7 15,-17 18,-31 l -21,-3 c -3,10 -7,17 -12,21 z m -43,-81 c 6,-7 14,-10 23,-10 10,0 19,4 25,12 4,5 7,13 7,24 h -65 c 0,-11 4,-20 10,-26 z"
   id="path8207" />

      </g>

     </g>
      <g
         class="com.sun.star.drawing.ClosedBezierShape"
         id="g8217"
         style="fill-rule:evenodd;stroke-width:28.222;stroke-linejoin:round"
         transform="matrix(0.01,0,0,0.01,36.93713,56.031832)">
      <g
   id="id43">
       <rect
   class="BoundingBox"
   stroke="none"
   fill="none"
   x="4977"
   y="4739"
   width="3052"
   height="230"
   id="rect8212" />

       <path
   fill="#000000"
   stroke="none"
   d="m 4993,4906 c 10,9 22,14 36,14 16,0 29,-6 39,-16 11,-12 16,-25 16,-40 0,-11 -3,-20 -8,-28 -5,-7 -13,-12 -23,-15 8,-3 13,-8 17,-14 4,-6 6,-13 6,-21 0,-8 -2,-15 -6,-22 -4,-7 -10,-13 -17,-17 -8,-4 -16,-6 -25,-6 -13,0 -24,4 -32,12 -9,8 -14,19 -17,33 l 20,4 c 2,-10 5,-18 10,-24 5,-5 12,-7 20,-7 7,0 14,2 19,7 5,5 7,12 7,20 0,10 -3,17 -10,22 -7,4 -15,7 -23,7 l -3,-1 -2,19 c 5,-2 10,-2 14,-2 9,0 17,3 23,9 6,7 9,15 9,25 0,10 -4,19 -10,26 -7,7 -15,10 -24,10 -8,0 -15,-3 -20,-8 -6,-5 -10,-14 -12,-26 l -20,3 c 1,14 7,26 16,36 z m 118,-69 c -5,8 -8,17 -8,29 0,15 5,27 15,38 10,11 23,16 39,16 16,0 29,-5 39,-15 9,-12 14,-24 14,-39 0,-11 -2,-20 -7,-28 -5,-7 -13,-13 -23,-16 8,-4 14,-8 18,-14 4,-6 6,-13 6,-21 0,-13 -4,-24 -13,-33 -9,-9 -20,-13 -34,-13 -15,0 -26,4 -34,13 -9,9 -13,19 -13,32 0,8 2,16 6,22 4,6 10,10 18,14 -10,2 -17,8 -23,15 z m 27,-71 c 5,-5 11,-7 19,-7 8,0 14,2 19,8 5,5 7,12 7,19 0,8 -2,14 -7,19 -5,6 -11,8 -19,8 -8,0 -14,-2 -19,-8 -5,-5 -8,-12 -8,-20 0,-7 3,-13 8,-19 z m -5,75 c 6,-7 14,-10 23,-10 10,0 18,3 24,10 7,7 10,15 10,25 0,10 -3,19 -9,25 -6,7 -14,10 -24,10 -6,0 -12,-1 -17,-4 -6,-4 -10,-8 -12,-14 -3,-5 -4,-11 -4,-17 0,-10 3,-19 9,-25 z m 113,60 c 9,13 21,19 37,19 12,0 22,-4 30,-10 7,-7 13,-18 17,-31 4,-12 6,-29 6,-49 0,-17 -1,-31 -4,-41 -2,-10 -5,-19 -10,-26 -4,-7 -9,-12 -16,-16 -7,-4 -14,-6 -23,-6 -12,0 -22,3 -29,10 -8,7 -14,17 -18,29 -4,13 -6,29 -6,50 0,33 6,56 16,71 z m 15,-130 c 5,-8 13,-12 22,-12 9,0 17,4 23,14 6,9 10,28 10,57 0,29 -4,48 -10,57 -6,10 -14,14 -23,14 -9,0 -17,-4 -23,-14 -6,-9 -9,-28 -9,-57 0,-29 3,-48 10,-59 z m 184,146 v -70 c 0,-16 4,-27 10,-33 6,-6 13,-9 21,-9 6,0 10,2 14,4 4,3 7,6 9,11 1,4 2,11 2,19 v 78 h 20 v -79 c 0,-9 0,-16 -1,-20 -1,-6 -3,-12 -6,-16 -3,-5 -8,-8 -14,-11 -6,-3 -12,-4 -19,-4 -17,0 -29,7 -38,21 v -18 h -18 v 127 z m 127,0 v -67 c 0,-11 1,-20 3,-26 2,-6 6,-10 10,-14 5,-3 10,-5 16,-5 7,0 13,3 16,8 3,4 5,11 5,21 v 83 h 20 v -74 c 0,-13 3,-23 8,-29 6,-6 13,-9 21,-9 5,0 8,2 12,4 3,2 6,5 7,9 1,4 2,10 2,18 v 81 h 20 v -88 c 0,-14 -3,-25 -10,-32 -6,-7 -15,-10 -27,-10 -15,0 -27,7 -36,22 -3,-7 -6,-12 -12,-16 -6,-4 -13,-6 -22,-6 -7,0 -14,2 -20,6 -7,4 -12,8 -15,14 v -17 h -18 v 127 z m 255,0 v -149 l 47,149 h 20 l 47,-147 v 147 h 21 v -175 h -29 l -39,121 c -4,12 -7,21 -9,28 -1,-6 -4,-15 -8,-26 l -38,-123 h -32 v 175 z m 231,0 c 10,0 19,-1 26,-3 7,-2 13,-5 18,-9 5,-4 9,-10 12,-17 3,-7 5,-14 5,-23 0,-10 -3,-18 -8,-26 -5,-8 -13,-13 -23,-16 8,-4 13,-9 17,-16 4,-6 6,-13 6,-21 0,-8 -2,-15 -7,-23 -4,-7 -10,-12 -17,-16 -8,-4 -18,-5 -30,-5 h -61 v 175 z m -41,-155 h 33 c 12,0 20,1 25,3 4,1 8,4 11,9 2,4 4,9 4,15 0,6 -2,11 -4,15 -3,4 -8,7 -13,9 -4,1 -11,2 -20,2 h -36 z m 0,73 h 38 c 10,0 18,1 24,3 5,2 10,6 13,11 3,4 4,10 4,16 0,6 -1,11 -3,15 -2,4 -5,8 -8,10 -3,2 -7,4 -12,5 -3,0 -8,0 -15,0 h -41 z m 253,82 v -22 h -100 v -59 h 90 v -20 h -90 v -54 h 96 v -20 h -117 v 175 z m 100,41 c 8,7 20,10 34,10 12,0 22,-3 30,-7 8,-5 14,-11 17,-20 4,-8 6,-22 6,-42 v -109 h -18 v 15 c -9,-12 -21,-18 -35,-18 -10,0 -19,3 -27,8 -8,6 -14,14 -18,24 -4,10 -6,21 -6,33 0,18 5,32 13,45 9,14 22,20 38,20 13,0 24,-6 33,-18 0,15 -1,24 -2,29 -1,7 -5,12 -10,16 -5,4 -12,6 -21,6 -9,0 -16,-2 -21,-6 -3,-3 -6,-7 -6,-14 l -20,-3 c 0,14 4,24 13,31 z m 13,-142 c 6,-7 14,-11 23,-11 9,0 16,4 23,11 6,8 9,20 9,35 0,16 -3,28 -9,36 -6,7 -14,11 -23,11 -9,0 -17,-4 -23,-11 -6,-8 -9,-20 -9,-36 0,-16 3,-27 9,-35 z m 124,101 v -67 c 0,-9 1,-17 4,-25 1,-5 3,-9 7,-12 3,-2 7,-4 12,-4 4,0 9,2 14,5 l 7,-20 c -7,-5 -14,-7 -20,-7 -5,0 -9,1 -13,4 -4,3 -8,9 -13,18 v -19 h -18 v 127 z m 64,-15 c 10,12 24,18 40,18 10,0 20,-3 29,-8 8,-5 15,-13 19,-23 5,-9 7,-22 7,-38 0,-20 -5,-36 -15,-47 -10,-11 -24,-17 -40,-17 -15,0 -27,5 -37,14 -12,11 -18,29 -18,52 0,21 5,37 15,49 z m 15,-85 c 7,-8 15,-12 25,-12 10,0 18,4 25,12 6,8 10,20 10,35 0,17 -4,29 -10,37 -7,8 -15,12 -25,12 -10,0 -18,-4 -25,-12 -6,-8 -10,-20 -10,-36 0,-16 4,-28 10,-36 z m 146,100 24,-98 5,21 19,77 h 20 l 37,-127 h -19 l -21,73 -6,24 -6,-24 -18,-73 h -20 l -19,74 c -4,16 -6,24 -6,26 l -7,-28 -19,-72 h -21 l 36,127 z m 142,0 v -70 c 0,-16 3,-27 9,-33 6,-6 14,-9 22,-9 6,0 10,2 14,4 4,3 7,6 8,11 2,4 3,11 3,19 v 78 h 20 v -79 c 0,-9 -1,-16 -1,-20 -1,-6 -4,-12 -6,-16 -3,-5 -8,-8 -14,-11 -6,-3 -12,-4 -19,-4 -17,0 -29,7 -38,21 v -18 h -18 v 127 z m 165,0 18,-54 h 68 l 19,54 h 24 l -66,-175 h -24 l -62,175 z m 42,-124 c 3,-11 6,-22 9,-33 2,9 6,21 11,36 l 17,48 h -55 z m 102,124 h 20 v -175 h -20 z m 20,0 z m 54,0 v -138 l 85,138 h 22 v -175 h -21 v 136 l -85,-136 h -22 v 175 z m 223,-17 c 8,13 18,20 32,20 14,0 26,-6 36,-19 10,-12 15,-29 15,-50 0,-9 -1,-18 -3,-26 -3,-8 -6,-14 -10,-20 -4,-6 -10,-10 -16,-13 -7,-4 -13,-5 -21,-5 -13,0 -24,6 -32,17 v -62 h -20 v 175 h 19 z m 9,-83 c 6,-8 14,-12 22,-12 9,0 17,3 23,11 6,8 9,20 9,37 0,16 -3,28 -10,36 -6,8 -14,12 -22,12 -11,0 -20,-6 -26,-17 -4,-6 -6,-17 -6,-32 0,-15 4,-27 10,-35 z m 195,100 v -127 h -20 v 67 c 0,11 -1,19 -3,25 -3,5 -6,10 -12,13 -5,3 -11,5 -16,5 -7,0 -13,-2 -17,-5 -4,-3 -6,-7 -8,-13 0,-4 -1,-11 -1,-23 v -69 h -20 v 78 c 0,9 1,16 1,20 2,6 4,11 7,16 2,5 7,8 13,11 6,3 12,5 21,5 15,0 28,-8 37,-23 v 20 z m 56,0 v -111 h 23 v -16 h -23 v -12 c 0,-8 1,-13 4,-15 2,-3 6,-4 12,-4 4,0 8,0 12,1 l 3,-19 c -7,-1 -13,-2 -18,-2 -9,0 -16,2 -21,5 -5,3 -8,8 -10,13 -1,4 -2,11 -2,19 v 14 h -18 v 16 h 18 v 111 z m 59,0 v -111 h 23 v -16 h -23 v -12 c 0,-8 1,-13 4,-15 2,-3 6,-4 13,-4 3,0 7,0 11,1 l 3,-19 c -7,-1 -13,-2 -18,-2 -9,0 -16,2 -21,5 -5,3 -8,8 -10,13 -1,4 -2,11 -2,19 v 14 h -18 v 16 h 18 v 111 z m 107,-22 c -5,4 -12,6 -19,6 -10,0 -18,-4 -25,-11 -6,-7 -10,-18 -11,-32 h 88 c 0,-2 0,-4 0,-5 0,-21 -5,-37 -15,-49 -10,-11 -22,-17 -38,-17 -16,0 -30,6 -40,18 -10,11 -15,28 -15,49 0,20 5,36 15,48 10,12 24,18 41,18 14,0 25,-4 34,-11 8,-8 15,-18 18,-31 l -21,-3 c -3,9 -7,16 -12,20 z m -43,-81 c 6,-6 14,-9 23,-9 10,0 18,4 25,12 4,5 6,13 7,24 h -65 c 0,-11 4,-20 10,-27 z m 121,103 v -67 c 0,-9 1,-17 3,-25 2,-5 4,-9 8,-12 3,-2 7,-4 11,-4 5,0 10,2 15,5 l 7,-20 c -7,-5 -14,-7 -20,-7 -5,0 -10,1 -13,4 -4,3 -9,9 -13,18 v -19 h -18 v 127 z"
   id="path8214" />

      </g>

     </g>
      <g
         class="com.sun.star.drawing.PolyPolygonShape"
         id="g8224"
         style="fill-rule:evenodd;stroke-width:28.222;stroke-linejoin:round"
         transform="matrix(0.01,0,0,0.01,36.93713,56.031832)">
      <g
   id="id44">
       <rect
   class="BoundingBox"
   stroke="none"
   fill="none"
   x="2036"
   y="5372"
   width="314"
   height="27"
   id="rect8219" />

       <path
   fill="#000000"
   stroke="none"
   d="m 2036,5398 h 313 v -26 h -313 z"
   id="path8221" />

      </g>

     </g>
      <g
         class="com.sun.star.drawing.PolyPolygonShape"
         id="g8231"
         style="fill-rule:evenodd;stroke-width:28.222;stroke-linejoin:round"
         transform="matrix(0.01,0,0,0.01,36.93713,56.031832)">
      <g
   id="id45">
       <rect
   class="BoundingBox"
   stroke="none"
   fill="none"
   x="2179"
   y="4648"
   width="27"
   height="738"
   id="rect8226" />

       <path
   fill="#000000"
   stroke="none"
   d="m 2179,5385 h 26 v -737 h -26 z"
   id="path8228" />

      </g>

     </g>
      <g
         class="com.sun.star.drawing.ClosedBezierShape"
         id="g8238"
         style="fill-rule:evenodd;stroke-width:28.222;stroke-linejoin:round"
         transform="matrix(0.01,0,0,0.01,36.93713,56.031832)">
      <g
   id="id46">
       <rect
   class="BoundingBox"
   stroke="none"
   fill="none"
   x="2101"
   y="4447"
   width="184"
   height="301"
   id="rect8233" />

       <path
   fill="#000000"
   stroke="none"
   d="m 2192,4693 -89,54 -2,-3 58,-146 c 11,-50 22,-100 33,-151 11,51 22,101 33,151 l 58,146 -1,3 z"
   id="path8235" />

      </g>

     </g>
      <g
         class="com.sun.star.drawing.ClosedBezierShape"
         id="g8245"
         style="fill-rule:evenodd;stroke-width:28.222;stroke-linejoin:round"
         transform="matrix(0.01,0,0,0.01,36.93713,56.031832)">
      <g
   id="id47">
       <rect
   class="BoundingBox"
   stroke="none"
   fill="none"
   x="1861"
   y="4838"
   width="177"
   height="466"
   id="rect8240" />

       <path
   fill="#000000"
   stroke="none"
   d="m 2037,5282 h -150 l 150,-47 v -20 l -147,-47 h 147 v -21 h -176 v 29 l 122,39 c 12,4 22,7 29,9 -6,2 -16,4 -27,8 l -124,38 v 33 h 176 z m 0,-231 c 0,-10 -1,-19 -3,-26 -2,-7 -5,-13 -9,-18 -4,-5 -9,-9 -16,-12 -7,-3 -16,-5 -24,-5 -10,0 -19,3 -26,8 -8,6 -13,13 -16,23 -4,-8 -9,-13 -16,-17 -6,-4 -13,-6 -21,-6 -8,0 -16,2 -23,7 -7,4 -13,10 -16,17 -4,8 -6,18 -6,30 v 61 h 176 z m -155,41 v -33 c 0,-12 1,-20 2,-25 2,-4 5,-8 9,-11 5,-2 10,-4 16,-4 6,0 11,2 15,5 4,3 7,7 9,12 1,4 2,11 2,21 v 35 z m 73,0 v -38 c 0,-10 1,-18 3,-24 2,-5 5,-10 10,-13 5,-3 11,-4 17,-4 6,0 11,1 15,3 5,2 8,5 11,8 2,3 3,8 4,13 1,2 1,7 1,14 v 41 z m 82,-254 h -21 v 101 h -60 v -91 h -21 v 91 h -53 v -97 h -21 v 118 h 176 z"
   id="path8242" />

      </g>

     </g>
      <g
         class="com.sun.star.drawing.PolyPolygonShape"
         id="g8252"
         style="fill-rule:evenodd;stroke-width:28.222;stroke-linejoin:round"
         transform="matrix(0.01,0,0,0.01,36.93713,56.031832)">
      <g
   id="id48">
       <rect
   class="BoundingBox"
   stroke="none"
   fill="none"
   x="2435"
   y="3654"
   width="7967"
   height="27"
   id="rect8247" />

       <path
   fill="#000000"
   stroke="none"
   d="m 2435,3680 h 7966 v -26 H 2435 Z"
   id="path8249" />

      </g>

     </g>
      <g
         class="com.sun.star.drawing.PolyPolygonShape"
         id="g8259"
         style="fill-rule:evenodd;stroke-width:28.222;stroke-linejoin:round"
         transform="matrix(0.01,0,0,0.01,36.93713,56.031832)">
      <g
   id="id49">
       <rect
   class="BoundingBox"
   stroke="none"
   fill="none"
   x="2435"
   y="3411"
   width="7967"
   height="28"
   id="rect8254" />

       <path
   fill="#000000"
   stroke="none"
   d="m 2435,3437 h 7966 v -26 H 2435 Z"
   id="path8256" />

      </g>

     </g>
      <g
         class="com.sun.star.drawing.PolyPolygonShape"
         id="g8266"
         style="fill-rule:evenodd;stroke-width:28.222;stroke-linejoin:round"
         transform="matrix(0.01,0,0,0.01,36.93713,56.031832)">
      <g
   id="id50">
       <rect
   class="BoundingBox"
   stroke="none"
   fill="none"
   x="2435"
   y="3342"
   width="7967"
   height="26"
   id="rect8261" />

       <path
   fill="#000000"
   stroke="none"
   d="m 2435,3367 h 7966 v -25 H 2435 Z"
   id="path8263" />

      </g>

     </g>
      <g
         class="com.sun.star.drawing.PolyPolygonShape"
         id="g8273"
         style="fill-rule:evenodd;stroke-width:28.222;stroke-linejoin:round"
         transform="matrix(0.01,0,0,0.01,36.93713,56.031832)">
      <g
   id="id51">
       <rect
   class="BoundingBox"
   stroke="none"
   fill="none"
   x="2435"
   y="3185"
   width="7967"
   height="27"
   id="rect8268" />

       <path
   fill="#000000"
   stroke="none"
   d="m 2435,3211 h 7966 v -26 H 2435 Z"
   id="path8270" />

      </g>

     </g>
      <g
         class="com.sun.star.drawing.PolyPolygonShape"
         id="g8280"
         style="fill-rule:evenodd;stroke-width:28.222;stroke-linejoin:round"
         transform="matrix(0.01,0,0,0.01,36.93713,56.031832)">
      <g
   id="id52">
       <rect
   class="BoundingBox"
   stroke="none"
   fill="none"
   x="2435"
   y="2417"
   width="1407"
   height="2032"
   id="rect8275" />

       <path
   fill="#b2b3b3"
   stroke="none"
   d="M 2435,4448 H 3841 V 2417 H 2435 Z"
   id="path8277" />

      </g>

     </g>
      <g
         class="com.sun.star.drawing.PolyPolygonShape"
         id="g8287"
         style="fill-rule:evenodd;stroke-width:28.222;stroke-linejoin:round"
         transform="matrix(0.01,0,0,0.01,36.93713,56.031832)">
      <g
   id="id53">
       <rect
   class="BoundingBox"
   stroke="none"
   fill="none"
   x="2426"
   y="2408"
   width="1425"
   height="2050"
   id="rect8282" />

       <path
   fill="#b2b3b3"
   stroke="none"
   d="m 2435,4448 v -8 H 3833 V 2425 H 2443 v 2023 h -8 v -8 8 h -9 V 2408 H 3850 V 4457 H 2426 v -9 z"
   id="path8284" />

      </g>

     </g>
      <g
         class="com.sun.star.drawing.PolyPolygonShape"
         id="g8294"
         style="fill-rule:evenodd;stroke-width:28.222;stroke-linejoin:round"
         transform="matrix(0.01,0,0,0.01,36.93713,56.031832)">
      <g
   id="id54">
       <rect
   class="BoundingBox"
   stroke="none"
   fill="none"
   x="8995"
   y="2417"
   width="1407"
   height="2032"
   id="rect8289" />

       <path
   fill="#b2b3b3"
   stroke="none"
   d="m 8995,4448 h 1406 V 2417 H 8995 Z"
   id="path8291" />

      </g>

     </g>
      <g
         class="com.sun.star.drawing.PolyPolygonShape"
         id="g8301"
         style="fill-rule:evenodd;stroke-width:28.222;stroke-linejoin:round"
         transform="matrix(0.01,0,0,0.01,36.93713,56.031832)">
      <g
   id="id55">
       <rect
   class="BoundingBox"
   stroke="none"
   fill="none"
   x="8986"
   y="2408"
   width="1425"
   height="2050"
   id="rect8296" />

       <path
   fill="#b2b3b3"
   stroke="none"
   d="m 8995,4448 v -8 h 1398 V 2425 H 9003 v 2023 h -8 v -8 8 h -9 V 2408 h 1424 V 4457 H 8986 v -9 z"
   id="path8298" />

      </g>

     </g>
      <g
         class="com.sun.star.drawing.PolyPolygonShape"
         id="g8308"
         style="fill-rule:evenodd;stroke-width:28.222;stroke-linejoin:round"
         transform="matrix(0.01,0,0,0.01,36.93713,56.031832)">
      <g
   id="id56">
       <rect
   class="BoundingBox"
   stroke="none"
   fill="none"
   x="3840"
   y="3666"
   width="5157"
   height="315"
   id="rect8303" />

       <path
   fill="#b2b3b3"
   stroke="none"
   d="M 3840,3980 H 8996 V 3666 H 3840 Z"
   id="path8305" />

      </g>

     </g>
      <g
         class="com.sun.star.drawing.PolyPolygonShape"
         id="g8315"
         style="fill-rule:evenodd;stroke-width:28.222;stroke-linejoin:round"
         transform="matrix(0.01,0,0,0.01,36.93713,56.031832)">
      <g
   id="id57">
       <rect
   class="BoundingBox"
   stroke="none"
   fill="none"
   x="3840"
   y="3354"
   width="5157"
   height="80"
   id="rect8310" />

       <path
   fill="#b2b3b3"
   stroke="none"
   d="m 3840,3433 h 5156 v -79 H 3840 Z"
   id="path8312" />

      </g>

     </g>
      <g
         class="com.sun.star.drawing.ClosedBezierShape"
         id="g8322"
         style="fill-rule:evenodd;stroke-width:28.222;stroke-linejoin:round"
         transform="matrix(0.01,0,0,0.01,36.93713,56.031832)">
      <g
   id="id58">
       <rect
   class="BoundingBox"
   stroke="none"
   fill="none"
   x="5170"
   y="3784"
   width="2644"
   height="193"
   id="rect8317" />

       <path
   fill="#000000"
   stroke="none"
   d="m 5198,3942 c 2,-4 5,-8 9,-12 3,-3 11,-11 23,-22 14,-14 24,-24 31,-31 6,-8 10,-15 13,-21 2,-7 4,-14 4,-21 0,-14 -5,-25 -14,-35 -9,-9 -21,-13 -37,-13 -15,0 -28,4 -37,12 -9,9 -15,22 -16,38 l 21,2 c 0,-11 3,-19 8,-25 6,-7 14,-10 24,-10 9,0 16,3 22,9 6,6 8,13 8,21 0,8 -3,17 -9,26 -6,9 -18,22 -36,38 -11,10 -20,19 -26,26 -6,8 -11,16 -13,24 -2,4 -3,9 -3,14 h 108 v -20 z m 109,-59 c -5,7 -8,18 -8,29 0,15 6,28 15,38 10,10 23,15 39,15 16,0 29,-5 39,-15 10,-10 15,-23 15,-38 0,-10 -3,-20 -8,-28 -5,-8 -13,-14 -23,-17 8,-3 14,-8 18,-14 4,-6 6,-13 6,-21 0,-13 -4,-23 -13,-32 -9,-9 -20,-13 -34,-13 -14,0 -26,4 -34,12 -9,9 -13,20 -13,33 0,8 2,15 6,21 4,6 10,11 19,14 -10,3 -18,8 -24,16 z m 27,-71 c 5,-5 11,-8 19,-8 8,0 14,3 19,8 5,5 8,12 8,20 0,7 -3,14 -8,19 -5,5 -11,8 -19,8 -8,0 -14,-3 -19,-8 -5,-5 -7,-12 -7,-20 0,-7 2,-14 7,-19 z m -5,74 c 6,-6 14,-10 23,-10 10,0 18,4 25,10 6,7 9,17 9,27 0,10 -3,18 -9,25 -6,6 -14,10 -24,10 -6,0 -12,-2 -17,-5 -5,-3 -9,-7 -12,-13 -3,-6 -4,-12 -4,-18 0,-10 3,-19 9,-26 z m 186,76 v -69 c 0,-17 3,-28 9,-33 6,-6 14,-9 22,-9 6,0 10,1 14,4 4,2 7,6 8,10 2,4 3,11 3,20 v 77 h 20 v -78 c 0,-10 -1,-17 -1,-21 -2,-6 -4,-11 -7,-16 -3,-4 -7,-8 -13,-10 -6,-3 -13,-4 -20,-4 -16,0 -28,6 -37,20 v -18 h -18 v 127 z m 126,0 v -65 c 0,-12 2,-21 4,-27 2,-6 5,-11 10,-14 5,-3 10,-5 16,-5 7,0 12,2 15,7 4,5 5,12 5,21 v 83 h 21 v -74 c 0,-13 2,-22 8,-28 5,-6 12,-9 20,-9 5,0 9,1 12,3 4,3 6,6 8,9 1,4 2,10 2,19 v 80 h 20 v -87 c 0,-15 -4,-25 -10,-32 -6,-7 -15,-10 -27,-10 -15,0 -27,7 -37,22 -2,-7 -6,-13 -11,-17 -6,-4 -13,-5 -22,-5 -8,0 -15,1 -21,5 -6,4 -11,9 -15,15 v -18 h -18 v 127 z m 360,-69 v 34 c -5,4 -12,8 -21,12 -8,4 -18,6 -27,6 -11,0 -21,-3 -30,-8 -10,-5 -17,-13 -22,-23 -5,-11 -7,-25 -7,-40 0,-13 2,-24 6,-35 2,-6 6,-12 10,-17 4,-6 10,-10 17,-13 7,-3 16,-5 26,-5 8,0 16,2 22,5 7,3 12,7 16,12 4,5 6,12 9,21 l 19,-6 c -2,-12 -6,-21 -12,-29 -5,-7 -13,-12 -22,-17 -10,-4 -20,-6 -32,-6 -16,0 -31,4 -43,11 -13,7 -22,18 -29,33 -6,14 -10,30 -10,47 0,17 4,34 10,47 7,14 17,25 30,32 13,8 27,11 44,11 11,0 23,-2 34,-7 11,-4 22,-11 33,-20 v -65 h -69 v 20 z m 131,69 h 21 c -2,-5 -4,-10 -5,-15 -1,-5 -1,-18 -1,-37 v -30 c 0,-9 0,-16 -1,-20 -1,-5 -3,-10 -6,-14 -3,-4 -8,-7 -14,-10 -7,-2 -15,-3 -25,-3 -10,0 -19,1 -27,4 -7,3 -13,7 -17,13 -4,5 -7,12 -9,21 l 19,3 c 2,-9 6,-15 10,-18 5,-4 12,-6 21,-6 10,0 18,3 23,8 4,3 6,9 6,18 0,0 0,2 0,5 -8,3 -20,6 -36,8 -8,1 -14,2 -18,3 -5,1 -10,5 -14,8 -5,3 -8,7 -11,12 -2,5 -4,11 -4,17 0,10 4,19 11,26 7,7 17,10 30,10 8,0 15,-1 22,-4 7,-3 14,-8 21,-14 1,6 2,11 4,15 z m -5,-55 c 0,9 -1,16 -4,21 -2,6 -7,11 -13,15 -6,4 -13,5 -20,5 -8,0 -14,-2 -18,-5 -4,-4 -6,-9 -6,-15 0,-3 1,-7 3,-10 1,-3 4,-5 7,-7 4,-1 10,-3 18,-4 15,-2 25,-5 33,-8 z m 74,55 v -137 l 85,137 h 22 v -175 h -20 v 138 l -86,-138 h -22 v 175 z m 348,-48 c 5,-11 7,-25 7,-40 0,-17 -4,-33 -10,-46 -6,-14 -15,-25 -27,-32 -12,-8 -26,-12 -41,-12 -15,0 -28,4 -40,11 -12,8 -22,19 -28,33 -7,13 -10,29 -10,46 0,18 3,34 10,48 6,14 16,24 27,32 12,7 26,11 40,11 15,0 28,-3 40,-10 12,9 24,16 35,21 l 7,-16 c -9,-4 -18,-9 -28,-16 8,-9 14,-19 18,-30 z m -70,17 c 7,2 14,5 21,10 -7,3 -14,5 -22,5 -16,0 -30,-7 -40,-19 -10,-12 -16,-29 -16,-53 0,-23 6,-40 16,-52 11,-12 24,-18 40,-18 11,0 21,3 29,9 9,6 15,14 20,24 4,11 6,23 6,37 0,26 -6,45 -19,57 -8,-8 -18,-13 -30,-17 z m 199,31 v -127 h -20 v 68 c 0,11 -1,19 -3,25 -2,6 -6,10 -11,14 -5,3 -11,5 -17,5 -6,0 -11,-2 -15,-5 -4,-3 -7,-8 -8,-13 -2,-4 -2,-12 -2,-23 v -71 h -20 v 79 c 0,9 0,16 1,20 1,6 3,12 6,16 3,4 8,8 15,11 6,3 12,4 19,4 16,0 28,-7 37,-21 v 18 z m 113,0 h 21 c -3,-5 -4,-10 -5,-15 -1,-5 -1,-18 -1,-37 v -30 c 0,-9 -1,-16 -1,-20 -2,-5 -4,-10 -7,-14 -3,-4 -7,-7 -14,-10 -6,-2 -14,-3 -24,-3 -10,0 -19,1 -27,4 -8,3 -14,7 -18,13 -4,5 -7,12 -9,21 l 20,3 c 2,-9 5,-15 10,-18 5,-4 11,-6 21,-6 10,0 18,3 23,8 3,3 5,9 5,18 0,0 0,2 0,5 -7,3 -19,6 -36,8 -7,1 -13,2 -17,3 -6,1 -10,5 -15,8 -4,3 -7,7 -10,12 -3,5 -4,11 -4,17 0,10 3,19 10,26 7,7 18,10 30,10 8,0 16,-1 23,-4 6,-3 13,-8 21,-14 1,6 2,11 4,15 z m -6,-55 c 0,9 -1,16 -3,21 -3,6 -7,11 -13,15 -6,4 -13,5 -21,5 -8,0 -14,-2 -17,-5 -5,-4 -7,-9 -7,-15 0,-3 1,-7 3,-10 2,-3 5,-5 8,-7 3,-1 9,-3 18,-4 14,-2 25,-5 32,-8 z m 71,55 v -69 c 0,-17 4,-28 10,-33 6,-6 13,-9 21,-9 6,0 11,1 14,4 4,2 7,6 9,10 1,4 2,11 2,20 v 77 h 20 v -78 c 0,-10 0,-17 -1,-21 -1,-6 -3,-11 -6,-16 -3,-4 -8,-8 -14,-10 -6,-3 -12,-4 -19,-4 -17,0 -29,6 -38,20 v -18 h -18 v 127 z m 142,-18 c -3,0 -6,0 -7,-1 -2,-2 -3,-3 -4,-5 0,-1 -1,-5 -1,-11 v -75 h 20 v -17 h -20 v -44 l -20,13 v 31 h -15 v 17 h 15 v 73 c 0,13 1,22 3,26 1,4 4,7 8,9 4,3 10,4 17,4 4,0 9,-1 15,-2 l -3,-19 c -3,1 -6,1 -8,1 z m 123,18 v -127 h -20 v 68 c 0,11 -1,19 -3,25 -2,6 -6,10 -11,14 -5,3 -11,5 -17,5 -6,0 -11,-2 -15,-5 -4,-3 -7,-8 -8,-13 -1,-4 -1,-12 -1,-23 v -71 h -20 v 79 c 0,9 0,16 1,20 1,6 3,12 6,16 3,4 7,8 13,11 6,3 13,4 20,4 16,0 28,-7 37,-21 v 18 z m 52,0 v -65 c 0,-12 1,-21 3,-27 2,-6 5,-11 10,-14 5,-3 10,-5 16,-5 7,0 12,2 16,7 3,5 5,12 5,21 v 83 h 20 v -74 c 0,-13 2,-22 8,-28 5,-6 12,-9 21,-9 4,0 8,1 12,3 3,3 6,6 7,9 1,4 2,10 2,19 v 80 h 20 v -87 c 0,-15 -3,-25 -10,-32 -6,-7 -15,-10 -27,-10 -15,0 -27,7 -36,22 -3,-7 -7,-13 -12,-17 -6,-4 -13,-5 -22,-5 -8,0 -15,1 -21,5 -6,4 -11,9 -14,15 v -18 h -18 v 127 z m 285,0 35,-133 c 1,-6 3,-13 5,-21 0,3 2,10 5,21 l 34,133 h 21 l 45,-175 h -22 l -25,113 c -4,14 -7,27 -9,38 -3,-19 -7,-40 -12,-62 l -24,-89 h -26 l -31,119 c 0,3 -3,14 -7,32 -2,-12 -5,-24 -7,-35 l -25,-116 h -22 l 43,175 z m 226,-21 c -5,4 -11,7 -18,7 -10,0 -19,-4 -25,-11 -7,-8 -10,-18 -11,-32 h 88 c 0,-3 0,-5 0,-6 0,-22 -5,-38 -15,-49 -10,-12 -23,-17 -38,-17 -17,0 -30,5 -40,17 -11,12 -16,28 -16,50 0,21 5,37 16,48 10,11 23,17 41,17 13,0 24,-4 33,-11 9,-7 15,-17 18,-30 l -20,-3 c -3,9 -7,16 -13,20 z m -42,-81 c 6,-7 13,-10 23,-10 10,0 18,4 24,12 4,6 7,14 8,24 h -66 c 1,-11 4,-19 11,-26 z m 100,102 h 20 v -175 h -20 z m 20,0 z m 31,0 h 20 v -175 h -20 z"
   id="path8319" />

      </g>

     </g>
      <g
         class="com.sun.star.drawing.ClosedBezierShape"
         id="g8329"
         style="fill-rule:evenodd;stroke-width:28.222;stroke-linejoin:round"
         transform="matrix(0.01,0,0,0.01,36.93713,56.031832)">
      <g
   id="id59">
       <rect
   class="BoundingBox"
   stroke="none"
   fill="none"
   x="2905"
   y="2865"
   width="703"
   height="182"
   id="rect8324" />

       <path
   fill="#ffffff"
   stroke="none"
   d="m 2914,3018 c 6,9 14,16 24,21 10,4 22,6 37,6 11,0 22,-2 31,-6 9,-5 17,-11 21,-19 5,-9 8,-17 8,-27 0,-9 -2,-17 -7,-24 -4,-7 -11,-13 -21,-19 -6,-3 -18,-7 -36,-11 -17,-4 -28,-8 -32,-12 -5,-5 -7,-10 -7,-16 0,-7 3,-13 9,-18 6,-5 16,-8 29,-8 12,0 22,3 28,8 7,6 10,14 11,25 l 21,-1 c 0,-11 -3,-20 -8,-28 -5,-8 -12,-14 -21,-18 -9,-4 -20,-6 -32,-6 -11,0 -21,2 -30,5 -9,5 -16,10 -20,18 -5,8 -7,16 -7,25 0,8 1,15 5,21 4,7 10,12 18,17 6,4 16,8 31,11 15,4 25,7 29,9 7,3 12,6 15,10 3,4 4,9 4,14 0,6 -1,11 -4,15 -4,5 -8,8 -14,11 -7,3 -14,4 -22,4 -9,0 -18,-2 -25,-5 -8,-4 -13,-8 -16,-14 -4,-5 -6,-13 -7,-21 l -21,2 c 1,11 4,22 9,31 z m 156,10 c 10,12 23,17 40,17 10,0 19,-2 28,-8 9,-5 16,-12 21,-21 5,-9 7,-22 7,-38 0,-20 -5,-37 -17,-48 -10,-12 -23,-17 -39,-17 -15,0 -27,4 -38,14 -12,11 -18,29 -18,52 0,22 5,38 16,49 z m 15,-86 c 6,-8 15,-12 25,-12 10,0 18,4 24,12 7,8 10,21 10,37 0,16 -3,29 -10,37 -6,8 -14,12 -24,12 -10,0 -19,-4 -25,-12 -7,-8 -10,-20 -10,-36 0,-16 3,-30 10,-38 z m 199,101 v -128 h -20 v 69 c 0,11 -1,19 -3,24 -2,6 -6,10 -11,14 -5,3 -11,5 -17,5 -6,0 -11,-2 -15,-5 -4,-3 -7,-8 -8,-13 -1,-4 -1,-12 -1,-23 v -71 h -20 v 79 c 0,10 0,16 1,20 1,7 3,12 6,16 3,5 8,8 14,11 6,3 12,4 19,4 16,0 28,-7 37,-21 v 19 z m 52,0 v -66 c 0,-9 1,-18 3,-26 1,-5 4,-9 7,-12 4,-3 8,-4 12,-4 5,0 10,1 15,4 l 7,-19 c -7,-5 -14,-7 -21,-7 -5,0 -9,1 -13,4 -4,3 -8,9 -12,18 v -20 h -18 v 128 z m 123,-23 c -6,5 -12,8 -20,8 -10,0 -18,-4 -24,-12 -6,-8 -9,-20 -9,-37 0,-16 3,-30 10,-37 6,-8 14,-12 24,-12 7,0 13,2 17,7 5,4 8,10 10,20 l 19,-4 c -2,-13 -7,-23 -15,-30 -8,-7 -19,-10 -32,-10 -10,0 -19,2 -28,7 -8,5 -15,13 -19,23 -4,12 -6,23 -6,37 0,21 5,37 15,48 9,12 22,17 38,17 13,0 24,-4 33,-12 9,-8 14,-19 16,-34 l -19,-3 c -2,11 -5,19 -10,24 z m 115,1 c -6,5 -12,7 -19,7 -10,0 -18,-4 -25,-11 -6,-8 -10,-18 -11,-32 h 88 c 0,-3 0,-4 0,-6 0,-21 -5,-38 -15,-49 -10,-11 -22,-17 -38,-17 -17,0 -30,6 -40,17 -10,12 -15,29 -15,51 0,20 5,36 15,47 10,12 24,17 41,17 14,0 25,-3 34,-10 8,-8 14,-18 18,-30 l -21,-3 c -3,9 -7,15 -12,19 z m -43,-81 c 6,-6 14,-10 23,-10 10,0 18,4 25,13 4,5 6,14 7,24 h -66 c 1,-11 5,-20 11,-27 z"
   id="path8326" />

      </g>

     </g>
      <g
         class="com.sun.star.drawing.ClosedBezierShape"
         id="g8336"
         style="fill-rule:evenodd;stroke-width:28.222;stroke-linejoin:round"
         transform="matrix(0.01,0,0,0.01,36.93713,56.031832)">
      <g
   id="id60">
       <rect
   class="BoundingBox"
   stroke="none"
   fill="none"
   x="2818"
   y="3159"
   width="880"
   height="227"
   id="rect8331" />

       <path
   fill="#ffffff"
   stroke="none"
   d="m 2840,3334 v -78 h 25 c 5,0 9,0 12,1 3,1 6,2 10,4 3,3 6,7 11,13 3,5 9,13 15,24 l 22,36 h 26 l -28,-47 c -5,-10 -11,-17 -18,-23 -2,-4 -7,-7 -12,-10 15,-2 27,-8 34,-16 8,-9 11,-19 11,-32 0,-9 -2,-18 -7,-26 -4,-8 -10,-13 -18,-16 -7,-3 -18,-5 -33,-5 h -72 v 175 z m 0,-156 h 51 c 12,0 21,3 27,8 5,6 8,12 8,20 0,6 -1,11 -4,16 -3,5 -7,9 -13,11 -6,2 -13,3 -23,3 h -46 z m 208,135 c -6,4 -12,6 -19,6 -10,0 -18,-3 -25,-11 -6,-7 -10,-18 -11,-31 h 89 c 0,-3 0,-5 0,-6 0,-22 -5,-38 -15,-49 -11,-12 -23,-18 -39,-18 -16,0 -30,6 -40,18 -10,11 -15,28 -15,50 0,21 5,36 15,48 10,11 24,17 41,17 14,0 25,-4 34,-11 9,-7 15,-17 19,-30 l -22,-3 c -3,9 -7,16 -12,20 z m -43,-81 c 6,-7 14,-10 23,-10 10,0 18,4 25,12 4,6 6,13 7,24 h -66 c 1,-11 5,-20 11,-26 z m 111,143 c 8,7 20,10 34,10 12,0 22,-2 30,-7 8,-5 14,-11 18,-19 3,-9 5,-22 5,-42 v -110 h -18 v 16 c -9,-13 -21,-19 -35,-19 -10,0 -19,3 -27,9 -8,5 -14,13 -18,23 -4,10 -6,21 -6,34 0,18 5,33 13,45 10,13 22,19 38,19 13,0 24,-5 33,-16 0,13 -1,23 -2,27 -1,7 -5,12 -10,17 -5,3 -12,5 -21,5 -9,0 -16,-2 -21,-5 -3,-3 -6,-8 -6,-15 l -20,-2 c 0,13 4,23 13,30 z m 13,-141 c 6,-8 14,-12 23,-12 9,0 16,4 23,12 6,7 10,19 10,36 0,16 -4,27 -10,35 -6,7 -14,11 -23,11 -9,0 -17,-4 -23,-11 -6,-8 -9,-20 -9,-36 0,-16 3,-28 9,-35 z m 124,100 v -66 c 0,-10 1,-18 4,-26 1,-5 4,-9 7,-11 3,-3 7,-5 12,-5 5,0 9,2 14,5 l 7,-20 c -7,-5 -13,-7 -20,-7 -5,0 -9,2 -13,5 -4,2 -8,8 -13,17 v -19 h -18 v 127 z m 64,-14 c 10,11 24,17 40,17 11,0 20,-3 29,-8 8,-5 15,-12 20,-22 4,-9 6,-22 6,-38 0,-21 -5,-36 -15,-48 -10,-11 -23,-17 -40,-17 -14,0 -27,5 -37,14 -12,12 -18,29 -18,53 0,21 5,38 15,49 z m 15,-86 c 7,-8 15,-12 25,-12 10,0 18,4 25,12 7,8 10,20 10,36 0,17 -3,29 -10,37 -7,8 -15,12 -25,12 -10,0 -18,-4 -25,-12 -6,-8 -10,-20 -10,-36 0,-17 4,-29 10,-37 z m 146,100 24,-98 5,22 19,76 h 20 l 37,-127 h -19 l -21,74 -6,24 -6,-24 -18,-74 h -20 l -19,75 c -4,16 -6,24 -6,26 l -7,-27 -19,-74 h -20 l 35,127 z m 142,0 v -69 c 0,-17 3,-28 9,-33 7,-6 14,-9 22,-9 6,0 10,1 14,4 4,2 7,6 9,10 1,4 2,11 2,20 v 77 h 20 v -78 c 0,-10 -1,-17 -1,-21 -1,-6 -3,-12 -6,-16 -3,-4 -8,-8 -14,-11 -6,-2 -12,-4 -19,-4 -17,0 -29,7 -38,21 v -18 h -18 v 127 z"
   id="path8333" />

      </g>

     </g>
      <g
         class="com.sun.star.drawing.ClosedBezierShape"
         id="g8343"
         style="fill-rule:evenodd;stroke-width:28.222;stroke-linejoin:round"
         transform="matrix(0.01,0,0,0.01,36.93713,56.031832)">
      <g
   id="id61">
       <rect
   class="BoundingBox"
   stroke="none"
   fill="none"
   x="2901"
   y="3450"
   width="721"
   height="180"
   id="rect8338" />

       <path
   fill="#ffffff"
   stroke="none"
   d="m 2961,3450 h -13 c -4,8 -10,16 -18,24 -9,8 -18,15 -29,21 v 20 c 6,-2 13,-6 21,-11 7,-5 14,-10 19,-14 v 136 h 20 z m 67,161 c 9,12 21,18 37,18 12,0 22,-4 30,-11 7,-6 13,-16 17,-29 4,-12 6,-29 6,-49 0,-17 -1,-31 -4,-41 -2,-10 -6,-19 -10,-26 -4,-7 -9,-13 -16,-17 -7,-3 -14,-6 -23,-6 -12,0 -22,4 -29,11 -8,7 -14,16 -18,29 -4,13 -6,29 -6,50 0,32 6,56 16,71 z m 15,-130 c 5,-8 13,-12 22,-12 9,0 17,4 23,14 6,9 10,28 10,57 0,29 -4,48 -10,57 -6,9 -14,14 -23,14 -9,0 -17,-5 -23,-14 -6,-9 -9,-28 -9,-57 0,-29 3,-48 10,-59 z m 112,130 c 9,12 21,18 37,18 11,0 21,-4 29,-11 8,-6 14,-16 19,-29 4,-12 6,-29 6,-49 0,-17 -2,-31 -4,-41 -3,-10 -7,-19 -11,-26 -4,-7 -10,-13 -16,-17 -7,-3 -15,-6 -23,-6 -12,0 -22,4 -30,11 -8,7 -14,16 -18,29 -3,13 -5,29 -5,50 0,32 5,56 16,71 z m 14,-130 c 6,-8 13,-12 22,-12 10,0 17,4 24,14 6,9 9,28 9,57 0,29 -3,48 -9,57 -7,9 -14,14 -23,14 -10,0 -17,-5 -24,-14 -6,-9 -9,-28 -9,-57 0,-29 3,-48 10,-59 z m 186,145 v -69 c 0,-16 3,-27 9,-33 6,-6 14,-9 22,-9 5,0 10,2 14,4 4,3 7,6 8,10 2,5 3,11 3,20 v 77 h 20 v -78 c 0,-10 -1,-17 -2,-21 -1,-6 -3,-11 -6,-15 -3,-5 -7,-8 -13,-11 -6,-3 -13,-4 -20,-4 -16,0 -29,7 -37,20 v -18 h -18 v 127 z m 126,0 v -66 c 0,-11 1,-20 3,-26 3,-6 6,-11 11,-14 5,-3 10,-5 15,-5 8,0 13,3 16,7 4,5 5,12 5,22 v 82 h 20 v -74 c 0,-13 3,-22 9,-28 5,-6 12,-9 20,-9 5,0 9,2 12,4 4,2 6,5 7,9 2,4 2,10 2,18 v 80 h 20 v -87 c 0,-14 -3,-25 -9,-32 -6,-7 -15,-10 -27,-10 -15,0 -27,7 -37,22 -2,-7 -6,-12 -12,-16 -5,-4 -12,-6 -21,-6 -8,0 -15,2 -21,5 -6,4 -11,9 -15,15 v -18 h -18 v 127 z"
   id="path8340" />

      </g>

     </g>
      <g
         class="com.sun.star.drawing.ClosedBezierShape"
         id="g8350"
         style="fill-rule:evenodd;stroke-width:28.222;stroke-linejoin:round"
         transform="matrix(0.01,0,0,0.01,36.93713,56.031832)">
      <g
   id="id62">
       <rect
   class="BoundingBox"
   stroke="none"
   fill="none"
   x="2897"
   y="3787"
   width="97"
   height="131"
   id="rect8345" />

       <path
   fill="#ffffff"
   stroke="none"
   d="m 2918,3917 v -70 c 0,-16 3,-27 9,-32 6,-6 13,-9 22,-9 5,0 10,1 14,4 4,2 7,6 8,10 2,4 2,11 2,20 v 77 h 20 v -78 c 0,-10 0,-17 -1,-21 -1,-6 -3,-11 -6,-16 -3,-4 -7,-8 -13,-10 -6,-3 -13,-5 -20,-5 -16,0 -29,7 -37,21 v -18 h -19 v 127 z"
   id="path8347" />

      </g>

     </g>
      <g
         class="com.sun.star.drawing.PolyPolygonShape"
         id="g8357"
         style="fill-rule:evenodd;stroke-width:28.222;stroke-linejoin:round"
         transform="matrix(0.01,0,0,0.01,36.93713,56.031832)">
      <g
   id="id63">
       <rect
   class="BoundingBox"
   stroke="none"
   fill="none"
   x="3016"
   y="3751"
   width="64"
   height="70"
   id="rect8352" />

       <path
   fill="#ffffff"
   stroke="none"
   d="m 3052,3820 v -28 h 27 v -12 h -27 v -28 h -11 v 28 h -25 v 12 h 25 v 28 z"
   id="path8354" />

      </g>

     </g>
      <g
         class="com.sun.star.drawing.ClosedBezierShape"
         id="g8364"
         style="fill-rule:evenodd;stroke-width:28.222;stroke-linejoin:round"
         transform="matrix(0.01,0,0,0.01,36.93713,56.031832)">
      <g
   id="id64">
       <rect
   class="BoundingBox"
   stroke="none"
   fill="none"
   x="3093"
   y="3739"
   width="519"
   height="182"
   id="rect8359" />

       <path
   fill="#ffffff"
   stroke="none"
   d="m 3093,3865 h 62 v -22 h -62 z m 62,0 z m 148,-17 v 34 c -5,4 -11,8 -20,12 -9,4 -18,6 -28,6 -10,0 -20,-3 -30,-8 -9,-5 -17,-13 -22,-23 -5,-11 -7,-25 -7,-40 0,-13 2,-25 6,-35 2,-7 6,-12 10,-18 5,-5 10,-9 18,-12 7,-3 15,-5 25,-5 8,0 16,1 22,5 7,2 12,7 16,12 4,5 7,12 9,21 l 20,-6 c -3,-12 -7,-21 -13,-29 -5,-7 -13,-13 -22,-17 -10,-4 -20,-6 -32,-6 -16,0 -31,4 -43,11 -12,7 -22,18 -29,33 -6,14 -10,30 -10,47 0,17 4,34 10,47 7,14 17,25 30,32 13,8 28,11 44,11 12,0 23,-2 34,-7 11,-4 22,-11 33,-20 v -66 h -69 v 21 z m 132,69 h 21 c -2,-5 -4,-10 -5,-15 0,-5 -1,-18 -1,-38 v -29 c 0,-9 0,-16 -1,-20 -1,-5 -3,-10 -6,-14 -3,-4 -8,-7 -14,-10 -6,-2 -15,-4 -25,-4 -10,0 -19,2 -26,5 -8,3 -14,7 -19,13 -4,5 -7,12 -9,21 l 21,3 c 2,-9 5,-15 10,-19 4,-3 11,-5 20,-5 11,0 18,3 23,7 4,4 6,10 6,19 0,0 0,2 0,5 -8,3 -20,6 -36,8 -8,1 -14,2 -18,3 -5,1 -10,5 -14,8 -5,3 -9,7 -12,12 -2,5 -3,11 -3,17 0,10 3,19 10,26 8,7 18,10 31,10 8,0 15,-2 22,-4 7,-3 14,-8 22,-15 0,7 1,12 3,16 z m -5,-55 c 0,9 -1,16 -3,21 -3,6 -8,11 -14,15 -6,3 -12,5 -20,5 -8,0 -14,-2 -18,-5 -4,-4 -6,-9 -6,-15 0,-3 1,-7 3,-10 2,-3 4,-5 8,-7 3,-1 9,-3 17,-4 15,-2 26,-5 33,-8 z m 74,55 v -137 l 85,137 h 22 v -175 h -20 v 138 l -86,-138 h -22 v 175 z"
   id="path8361" />

      </g>

     </g>
      <g
         class="com.sun.star.drawing.ClosedBezierShape"
         id="g8371"
         style="fill-rule:evenodd;stroke-width:28.222;stroke-linejoin:round"
         transform="matrix(0.01,0,0,0.01,36.93713,56.031832)">
      <g
   id="id65">
       <rect
   class="BoundingBox"
   stroke="none"
   fill="none"
   x="9365"
   y="2867"
   width="513"
   height="179"
   id="rect8366" />

       <path
   fill="#ffffff"
   stroke="none"
   d="m 9424,3043 c 10,0 20,-1 27,-3 8,-2 14,-5 20,-9 5,-4 10,-9 14,-16 5,-7 9,-15 12,-25 3,-10 4,-22 4,-35 0,-16 -2,-30 -7,-42 -4,-13 -10,-23 -19,-30 -6,-7 -14,-11 -24,-13 -6,-2 -17,-3 -30,-3 h -56 v 176 z m -37,-155 h 34 c 13,0 23,1 29,4 8,3 15,9 20,20 6,10 9,24 9,42 0,13 -2,25 -5,34 -2,9 -7,16 -12,22 -3,4 -8,7 -14,9 -6,2 -16,3 -26,3 h -35 z m 161,155 v -66 c 0,-9 1,-18 3,-25 2,-5 4,-9 7,-12 4,-3 8,-4 12,-4 5,0 10,1 15,4 l 7,-19 c -7,-5 -14,-7 -21,-7 -4,0 -9,1 -13,4 -3,3 -8,9 -12,18 v -20 h -18 v 127 z m 137,0 h 21 c -3,-5 -4,-10 -5,-16 -1,-5 -1,-18 -1,-37 v -29 c 0,-9 -1,-16 -1,-19 -2,-6 -4,-11 -7,-15 -3,-4 -7,-7 -14,-9 -6,-3 -14,-4 -24,-4 -10,0 -19,1 -27,4 -8,3 -14,7 -18,13 -4,5 -7,13 -9,22 l 20,3 c 2,-9 5,-16 10,-19 4,-4 11,-6 21,-6 10,0 18,3 23,8 3,3 5,9 5,18 0,1 0,3 0,6 -7,2 -19,5 -36,7 -7,1 -13,2 -17,3 -6,2 -10,4 -15,7 -4,3 -7,7 -10,12 -3,5 -4,11 -4,17 0,11 3,19 10,26 7,7 17,10 30,10 8,0 16,-1 22,-4 7,-3 14,-7 22,-14 1,6 2,11 4,16 z m -6,-56 c 0,10 -1,17 -3,21 -3,7 -7,11 -13,15 -6,4 -13,5 -21,5 -8,0 -14,-2 -18,-5 -4,-4 -6,-9 -6,-15 0,-3 1,-7 3,-9 2,-4 5,-6 8,-8 3,-1 9,-2 18,-4 14,-2 25,-5 32,-8 z m 51,-95 h 20 v -25 h -20 z m 20,0 z m -20,151 h 20 v -127 h -20 z m 20,0 z m 51,0 v -69 c 0,-17 3,-27 9,-33 6,-6 14,-9 22,-9 5,0 10,1 14,4 4,3 7,6 8,10 2,5 3,11 3,20 v 77 h 20 v -78 c 0,-10 -1,-17 -2,-21 -1,-6 -3,-11 -6,-15 -3,-5 -7,-8 -13,-11 -6,-3 -13,-4 -20,-4 -16,0 -29,7 -37,20 v -18 h -18 v 127 z"
   id="path8368" />

      </g>

     </g>
      <g
         class="com.sun.star.drawing.ClosedBezierShape"
         id="g8378"
         style="fill-rule:evenodd;stroke-width:28.222;stroke-linejoin:round"
         transform="matrix(0.01,0,0,0.01,36.93713,56.031832)">
      <g
   id="id66">
       <rect
   class="BoundingBox"
   stroke="none"
   fill="none"
   x="9182"
   y="3159"
   width="879"
   height="227"
   id="rect8373" />

       <path
   fill="#ffffff"
   stroke="none"
   d="m 9205,3334 v -78 h 25 c 5,0 9,0 12,1 3,1 6,2 10,4 3,3 7,7 11,13 3,5 9,13 15,24 l 22,36 h 27 l -29,-47 c -5,-10 -11,-17 -17,-23 -3,-4 -8,-7 -13,-10 15,-2 27,-8 34,-16 8,-9 11,-19 11,-32 0,-9 -2,-18 -7,-26 -4,-8 -10,-13 -17,-16 -8,-4 -19,-5 -34,-5 h -73 v 175 z m 0,-156 h 51 c 12,0 21,3 27,8 5,6 8,12 8,20 0,6 -1,11 -4,16 -3,5 -7,9 -13,11 -5,2 -13,3 -23,3 h -46 z m 208,135 c -5,4 -12,6 -19,6 -10,0 -18,-3 -25,-11 -6,-7 -10,-18 -11,-31 h 88 c 0,-3 0,-5 0,-6 0,-22 -5,-38 -15,-49 -10,-12 -22,-18 -38,-18 -16,0 -30,6 -40,18 -10,11 -15,28 -15,50 0,21 5,36 15,48 10,11 24,17 41,17 14,0 25,-4 34,-11 8,-7 15,-17 18,-30 l -21,-3 c -3,9 -7,16 -12,20 z m -43,-81 c 6,-7 14,-10 23,-10 10,0 18,4 25,12 4,6 6,13 7,24 h -65 c 0,-11 4,-20 10,-26 z m 110,143 c 9,7 20,10 34,10 12,0 22,-2 30,-7 8,-5 14,-11 18,-19 4,-9 5,-22 5,-42 v -110 h -18 v 16 c -9,-13 -21,-19 -35,-19 -10,0 -19,3 -27,9 -7,5 -13,13 -17,23 -5,10 -7,21 -7,34 0,18 5,33 14,45 9,13 21,19 37,19 13,0 24,-6 33,-16 0,13 0,23 -1,27 -2,7 -6,12 -11,17 -5,3 -12,5 -21,5 -9,0 -16,-2 -20,-5 -4,-3 -6,-8 -7,-15 l -20,-2 c 0,13 4,23 13,30 z m 13,-141 c 6,-8 14,-12 23,-12 9,0 17,4 23,12 7,7 10,19 10,36 0,16 -3,27 -10,35 -6,7 -14,11 -23,11 -9,0 -17,-4 -23,-11 -6,-8 -9,-20 -9,-36 0,-16 3,-28 9,-35 z m 124,100 v -66 c 0,-10 2,-18 4,-26 1,-5 4,-9 7,-11 4,-3 8,-5 12,-5 5,0 10,2 15,5 l 7,-20 c -7,-5 -14,-7 -21,-7 -5,0 -9,2 -13,5 -4,2 -8,8 -13,17 v -19 h -18 v 127 z m 64,-14 c 10,11 24,17 40,17 11,0 20,-3 29,-8 9,-5 15,-12 20,-22 4,-9 7,-22 7,-38 0,-21 -6,-36 -16,-48 -10,-11 -23,-17 -40,-17 -14,0 -27,5 -37,14 -12,12 -18,29 -18,53 0,21 5,38 15,49 z m 15,-86 c 7,-8 15,-12 25,-12 10,0 18,4 25,12 7,8 10,20 10,36 0,17 -3,29 -10,37 -7,8 -15,12 -25,12 -10,0 -18,-4 -25,-12 -6,-8 -10,-20 -10,-36 0,-17 4,-29 10,-37 z m 147,100 23,-98 5,22 19,76 h 21 l 37,-127 h -20 l -20,74 -7,24 -6,-24 -18,-74 h -20 l -19,75 c -4,16 -6,24 -6,26 l -7,-27 -19,-74 h -20 l 35,127 z m 141,0 v -69 c 0,-17 3,-28 10,-33 6,-6 13,-9 21,-9 6,0 10,1 14,4 4,2 7,6 9,10 1,4 2,11 2,20 v 77 h 20 v -78 c 0,-10 0,-17 -1,-21 -1,-6 -3,-12 -6,-16 -3,-4 -8,-8 -14,-11 -6,-2 -12,-4 -19,-4 -17,0 -29,7 -38,21 v -18 h -18 v 127 z"
   id="path8375" />

      </g>

     </g>
      <g
         class="com.sun.star.drawing.ClosedBezierShape"
         id="g8385"
         style="fill-rule:evenodd;stroke-width:28.222;stroke-linejoin:round"
         transform="matrix(0.01,0,0,0.01,36.93713,56.031832)">
      <g
   id="id67">
       <rect
   class="BoundingBox"
   stroke="none"
   fill="none"
   x="9265"
   y="3450"
   width="722"
   height="180"
   id="rect8380" />

       <path
   fill="#ffffff"
   stroke="none"
   d="m 9325,3450 h -13 c -4,8 -10,16 -18,24 -8,8 -18,15 -29,21 v 20 c 6,-2 13,-6 21,-11 8,-5 14,-10 19,-14 v 136 h 20 z m 67,161 c 9,11 21,18 37,18 12,0 22,-4 30,-11 7,-6 13,-16 17,-29 4,-12 6,-29 6,-49 0,-17 -1,-31 -3,-41 -3,-10 -6,-19 -10,-26 -5,-7 -10,-13 -17,-17 -6,-3 -14,-6 -23,-6 -12,0 -21,4 -29,11 -8,7 -14,16 -18,29 -4,13 -6,29 -6,50 0,32 6,56 16,71 z m 15,-130 c 5,-8 13,-12 22,-12 9,0 17,4 23,14 7,9 10,28 10,57 0,28 -3,47 -10,57 -6,9 -14,14 -23,14 -9,0 -17,-5 -23,-14 -6,-10 -9,-29 -9,-57 0,-29 3,-48 10,-59 z m 112,130 c 9,11 21,18 37,18 12,0 22,-4 29,-11 8,-6 14,-16 18,-29 4,-12 6,-29 6,-49 0,-17 -1,-31 -4,-41 -2,-10 -6,-19 -10,-26 -4,-7 -10,-13 -16,-17 -7,-3 -15,-6 -23,-6 -12,0 -22,4 -30,11 -8,7 -13,16 -17,29 -4,13 -6,29 -6,50 0,32 5,56 16,71 z m 14,-130 c 6,-8 13,-12 23,-12 9,0 17,4 23,14 6,9 9,28 9,57 0,28 -3,47 -9,57 -6,9 -14,14 -23,14 -9,0 -17,-5 -23,-14 -7,-10 -10,-29 -10,-57 0,-29 4,-48 10,-59 z m 185,145 v -69 c 0,-16 4,-27 10,-33 6,-6 14,-9 22,-9 6,0 10,1 14,4 4,3 7,6 8,10 2,5 3,11 3,20 v 77 h 20 v -78 c 0,-10 -1,-17 -1,-21 -2,-6 -4,-11 -7,-15 -3,-5 -7,-8 -13,-11 -6,-3 -12,-4 -20,-4 -16,0 -28,7 -38,20 v -18 h -18 v 127 z m 128,0 v -66 c 0,-11 1,-20 3,-26 2,-6 5,-11 10,-14 5,-3 10,-5 16,-5 7,0 12,3 16,7 3,5 5,12 5,22 v 82 h 20 v -74 c 0,-13 2,-22 8,-28 5,-6 12,-9 20,-9 5,0 9,1 13,4 3,2 5,5 7,9 1,4 2,10 2,18 v 80 h 20 v -87 c 0,-14 -4,-25 -10,-32 -6,-7 -15,-10 -27,-10 -15,0 -27,7 -37,22 -2,-7 -6,-12 -11,-16 -6,-4 -13,-6 -22,-6 -8,0 -15,2 -21,5 -6,4 -11,9 -15,15 v -18 h -17 v 127 z"
   id="path8382" />

      </g>

     </g>
      <g
         class="com.sun.star.drawing.ClosedBezierShape"
         id="g8392"
         style="fill-rule:evenodd;stroke-width:28.222;stroke-linejoin:round"
         transform="matrix(0.01,0,0,0.01,36.93713,56.031832)">
      <g
   id="id68">
       <rect
   class="BoundingBox"
   stroke="none"
   fill="none"
   x="9260"
   y="3787"
   width="99"
   height="131"
   id="rect8387" />

       <path
   fill="#ffffff"
   stroke="none"
   d="m 9282,3917 v -70 c 0,-16 3,-27 9,-32 6,-6 14,-9 22,-9 5,0 10,1 14,4 4,2 7,6 8,10 2,4 3,11 3,20 v 77 h 20 v -78 c 0,-10 -1,-17 -2,-21 -1,-6 -3,-11 -6,-16 -3,-4 -7,-8 -13,-10 -6,-3 -13,-5 -20,-5 -16,0 -29,7 -37,21 v -18 h -19 v 127 z"
   id="path8389" />

      </g>

     </g>
      <g
         class="com.sun.star.drawing.PolyPolygonShape"
         id="g8399"
         style="fill-rule:evenodd;stroke-width:28.222;stroke-linejoin:round"
         transform="matrix(0.01,0,0,0.01,36.93713,56.031832)">
      <g
   id="id69">
       <rect
   class="BoundingBox"
   stroke="none"
   fill="none"
   x="9380"
   y="3751"
   width="64"
   height="70"
   id="rect8394" />

       <path
   fill="#ffffff"
   stroke="none"
   d="m 9418,3820 v -28 h 25 v -12 h -25 v -28 h -11 v 28 h -27 v 12 h 27 v 28 z"
   id="path8396" />

      </g>

     </g>
      <g
         class="com.sun.star.drawing.ClosedBezierShape"
         id="g8406"
         style="fill-rule:evenodd;stroke-width:28.222;stroke-linejoin:round"
         transform="matrix(0.01,0,0,0.01,36.93713,56.031832)">
      <g
   id="id70">
       <rect
   class="BoundingBox"
   stroke="none"
   fill="none"
   x="9457"
   y="3739"
   width="520"
   height="182"
   id="rect8401" />

       <path
   fill="#ffffff"
   stroke="none"
   d="m 9457,3865 h 62 v -22 h -62 z m 62,0 z m 149,-17 v 34 c -5,4 -11,8 -20,12 -9,4 -18,6 -28,6 -10,0 -20,-3 -30,-8 -9,-5 -17,-13 -22,-23 -6,-11 -8,-25 -8,-40 0,-13 2,-25 7,-35 2,-7 6,-12 10,-18 5,-5 10,-9 18,-12 7,-3 15,-5 25,-5 8,0 16,1 23,5 6,2 12,7 15,12 4,5 7,12 9,21 l 20,-6 c -3,-12 -7,-21 -13,-29 -5,-7 -13,-13 -22,-17 -9,-4 -20,-6 -32,-6 -16,0 -30,4 -43,11 -13,7 -23,18 -29,33 -7,14 -10,30 -10,47 0,17 3,34 10,47 6,14 16,25 30,32 13,8 28,11 44,11 12,0 23,-2 34,-7 12,-4 22,-11 33,-20 v -66 h -69 v 21 z m 131,69 h 21 c -2,-5 -4,-10 -5,-15 0,-5 -1,-18 -1,-38 v -29 c 0,-9 0,-16 -1,-20 -1,-5 -3,-10 -6,-14 -3,-4 -8,-7 -14,-10 -6,-2 -14,-4 -24,-4 -11,0 -20,2 -27,5 -8,3 -14,7 -18,13 -4,5 -7,12 -9,21 l 20,3 c 2,-9 5,-15 10,-19 4,-3 11,-5 21,-5 10,0 17,3 22,7 4,4 6,10 6,19 0,0 0,2 0,5 -8,3 -20,6 -36,8 -8,1 -14,2 -18,3 -5,1 -10,5 -14,8 -4,3 -8,7 -10,12 -3,5 -4,11 -4,17 0,10 3,19 10,26 7,7 17,10 30,10 8,0 15,-2 22,-4 7,-3 14,-8 22,-15 0,7 1,12 3,16 z m -5,-55 c 0,9 -1,16 -3,21 -3,6 -7,11 -14,15 -6,3 -12,5 -20,5 -8,0 -14,-2 -18,-5 -4,-4 -6,-9 -6,-15 0,-3 1,-7 3,-10 2,-3 4,-5 8,-7 3,-1 9,-3 17,-4 15,-2 26,-5 33,-8 z m 74,55 v -137 l 86,137 h 22 v -175 h -21 v 138 l -86,-138 h -22 v 175 z"
   id="path8403" />

      </g>

     </g>
      <g
         class="com.sun.star.drawing.ClosedBezierShape"
         id="g8413"
         style="fill-rule:evenodd;stroke-width:28.222;stroke-linejoin:round"
         transform="matrix(0.01,0,0,0.01,36.93713,56.031832)">
      <g
   id="id71">
       <rect
   class="BoundingBox"
   stroke="none"
   fill="none"
   x="7296"
   y="2572"
   width="1641"
   height="179"
   id="rect8408" />

       <path
   fill="#000000"
   stroke="none"
   d="m 7387,2583 c -8,-7 -19,-11 -32,-11 -17,0 -31,6 -41,20 -12,15 -18,39 -18,73 0,30 6,52 16,65 11,13 24,20 41,20 10,0 19,-2 27,-8 8,-5 14,-12 18,-21 5,-10 7,-20 7,-31 0,-17 -5,-30 -14,-41 -9,-10 -22,-16 -35,-16 -8,0 -15,2 -22,6 -7,4 -13,10 -18,18 0,-18 2,-31 6,-41 4,-9 9,-16 15,-21 5,-4 10,-6 17,-6 8,0 14,3 21,9 3,4 6,10 7,19 l 20,-2 c -1,-14 -6,-24 -15,-32 z m -58,80 c 6,-7 14,-11 23,-11 9,0 16,4 24,11 6,7 9,16 9,28 0,13 -3,23 -10,30 -7,7 -14,11 -22,11 -6,0 -12,-2 -17,-5 -5,-4 -9,-9 -12,-16 -3,-7 -5,-14 -5,-21 0,-11 4,-20 10,-27 z m 185,85 v -70 c 0,-17 3,-27 9,-33 6,-6 13,-9 22,-9 5,0 10,1 14,4 4,2 6,6 8,10 2,5 2,11 2,20 v 78 h 20 v -79 c 0,-10 0,-17 -1,-21 -1,-6 -3,-11 -6,-15 -3,-5 -8,-8 -13,-11 -6,-3 -13,-4 -20,-4 -16,0 -29,7 -38,20 v -18 h -17 v 128 z m 126,0 v -67 c 0,-11 1,-20 3,-26 3,-6 6,-11 11,-14 4,-3 10,-5 15,-5 8,0 13,3 16,7 4,5 5,12 5,22 v 83 h 20 v -75 c 0,-13 3,-22 8,-28 6,-6 13,-9 21,-9 5,0 9,1 12,4 3,2 6,5 7,9 1,3 2,10 2,18 v 81 h 20 v -88 c 0,-14 -3,-25 -9,-32 -7,-7 -16,-10 -27,-10 -15,0 -28,7 -37,22 -2,-7 -6,-13 -12,-16 -5,-4 -13,-6 -21,-6 -8,0 -15,2 -21,5 -6,4 -11,9 -15,15 v -18 h -18 v 128 z m 228,0 18,-54 h 68 l 19,54 h 24 l -66,-176 h -24 l -62,176 z m 42,-124 c 3,-11 6,-22 9,-34 2,10 6,22 11,37 l 17,48 h -55 z m 102,124 h 20 v -176 h -20 z m 20,0 z m 54,0 v -138 l 85,138 h 22 v -176 h -21 v 137 l -85,-137 h -22 v 176 z m 223,-17 c 7,12 18,19 32,19 14,0 26,-7 36,-19 10,-11 15,-28 15,-49 0,-10 -1,-18 -3,-26 -3,-8 -6,-15 -10,-21 -4,-5 -10,-10 -16,-13 -7,-3 -14,-4 -21,-4 -13,0 -24,5 -32,17 v -63 h -20 v 176 h 19 z m 9,-84 c 6,-8 14,-12 22,-12 9,0 17,4 23,12 6,8 9,20 9,36 0,16 -3,29 -10,37 -6,8 -14,12 -22,12 -11,0 -20,-6 -26,-17 -4,-6 -6,-17 -6,-32 0,-16 3,-28 10,-36 z m 180,101 h 21 c -3,-6 -5,-11 -5,-17 -1,-5 -2,-18 -2,-37 v -29 c 0,-9 0,-16 0,-19 -2,-6 -4,-11 -7,-15 -3,-4 -7,-7 -14,-9 -6,-3 -14,-4 -24,-4 -11,0 -19,1 -27,4 -8,3 -14,7 -18,13 -4,5 -7,13 -9,22 l 20,3 c 2,-9 5,-16 10,-19 4,-4 11,-6 21,-6 10,0 17,3 22,8 4,3 6,9 6,18 0,1 0,3 0,6 -8,2 -19,5 -36,7 -7,1 -13,2 -18,3 -5,2 -10,4 -14,7 -4,3 -8,7 -10,12 -3,5 -4,11 -4,17 0,11 3,19 10,26 7,8 17,11 30,11 8,0 16,-1 22,-4 7,-4 14,-8 22,-15 0,6 2,11 4,17 z m -6,-57 c 0,10 -1,17 -3,21 -3,7 -7,11 -13,15 -6,4 -13,5 -21,5 -8,0 -14,-2 -18,-5 -4,-4 -6,-9 -6,-14 0,-4 1,-8 3,-10 2,-4 4,-6 8,-8 3,-1 9,-2 17,-4 15,-2 26,-4 33,-8 z m 71,57 v -67 c 0,-9 1,-18 3,-25 2,-5 4,-9 8,-12 3,-3 7,-4 11,-4 5,0 10,1 15,4 l 7,-19 c -7,-5 -14,-7 -20,-7 -5,0 -9,1 -13,4 -4,3 -9,9 -13,18 v -20 h -18 v 128 z m 76,0 v -67 c 0,-9 1,-18 3,-25 2,-5 4,-9 7,-12 4,-3 8,-4 12,-4 5,0 10,1 15,4 l 7,-19 c -7,-5 -14,-7 -21,-7 -4,0 -9,1 -13,4 -3,3 -8,9 -12,18 v -20 h -18 v 128 z m 56,-151 h 20 v -25 h -20 z m 20,0 z m -20,151 h 20 v -128 h -20 z m 20,0 z m 99,-23 c -6,5 -12,7 -19,7 -10,0 -18,-4 -25,-11 -7,-8 -10,-18 -11,-32 h 88 c 0,-2 0,-4 0,-6 0,-21 -5,-37 -15,-48 -10,-11 -23,-17 -38,-17 -17,0 -30,6 -40,17 -10,12 -15,28 -15,50 0,20 5,36 15,47 10,13 24,18 41,18 14,0 25,-3 34,-11 8,-8 14,-18 18,-30 l -21,-3 c -3,9 -7,15 -12,19 z m -43,-80 c 6,-6 14,-10 23,-10 10,0 18,4 25,13 4,5 6,13 7,23 h -66 c 1,-11 4,-19 11,-26 z m 121,103 v -67 c 0,-9 1,-18 3,-25 1,-5 4,-9 7,-12 4,-3 8,-4 12,-4 5,0 10,1 15,4 l 7,-19 c -7,-5 -14,-7 -21,-7 -5,0 -9,1 -13,4 -4,3 -8,9 -12,18 v -20 h -18 v 128 z"
   id="path8410" />

      </g>

     </g>
      <g
         class="com.sun.star.drawing.ClosedBezierShape"
         id="g8420"
         style="fill-rule:evenodd;stroke-width:28.222;stroke-linejoin:round"
         transform="matrix(0.01,0,0,0.01,36.93713,56.031832)">
      <g
   id="id72">
       <rect
   class="BoundingBox"
   stroke="none"
   fill="none"
   x="7306"
   y="2257"
   width="1625"
   height="228"
   id="rect8415" />

       <path
   fill="#000000"
   stroke="none"
   d="m 7366,2259 h -13 c -3,8 -9,16 -18,24 -8,8 -18,15 -29,20 v 21 c 6,-3 13,-7 21,-11 8,-5 14,-10 19,-15 v 137 h 20 z m 63,176 h 22 v -24 h -22 z m 22,0 z m 46,-10 c 9,9 21,13 36,13 18,0 32,-7 42,-21 9,-12 13,-25 13,-41 0,-17 -4,-31 -14,-42 -10,-10 -22,-15 -36,-15 -11,0 -21,3 -31,11 l 9,-47 h 65 v -21 h -81 l -16,90 19,3 c 3,-5 7,-10 12,-13 5,-3 11,-4 18,-4 10,0 19,3 25,10 6,7 9,18 9,30 0,13 -3,23 -10,31 -6,8 -15,12 -24,12 -8,0 -15,-3 -21,-9 -5,-5 -9,-13 -10,-24 l -21,1 c 1,15 6,27 16,36 z m 199,10 v -69 c 0,-17 3,-28 9,-33 6,-6 14,-9 22,-9 5,0 10,1 14,4 4,2 7,6 8,10 2,4 3,11 3,20 v 77 h 20 v -78 c 0,-10 -1,-17 -2,-21 -1,-6 -3,-11 -6,-16 -3,-4 -7,-8 -13,-11 -6,-2 -13,-4 -20,-4 -16,0 -29,7 -37,21 v -18 h -18 v 127 z m 126,0 v -65 c 0,-13 2,-21 4,-27 2,-7 5,-11 10,-14 5,-4 10,-5 15,-5 8,0 13,2 16,7 4,5 5,12 5,21 v 83 h 20 v -74 c 0,-13 3,-22 9,-28 5,-6 12,-9 20,-9 5,0 9,1 12,3 4,3 6,6 7,9 2,4 2,10 2,19 v 80 h 21 v -87 c 0,-15 -4,-25 -10,-32 -6,-7 -15,-11 -27,-11 -15,0 -27,8 -37,22 -2,-7 -6,-12 -12,-16 -5,-4 -12,-6 -21,-6 -8,0 -15,2 -21,6 -6,4 -11,9 -15,15 v -18 h -18 v 127 z m 360,-68 v 32 c -5,5 -12,9 -21,13 -8,4 -18,6 -27,6 -11,0 -21,-3 -30,-8 -10,-5 -17,-13 -22,-23 -5,-11 -8,-25 -8,-40 0,-13 3,-25 7,-35 2,-7 6,-13 10,-18 4,-5 10,-9 17,-12 7,-3 16,-5 26,-5 8,0 16,1 22,4 7,3 12,8 16,13 3,5 6,12 9,21 l 19,-6 c -2,-12 -7,-21 -12,-29 -5,-7 -13,-13 -22,-17 -10,-4 -21,-6 -32,-6 -17,0 -31,4 -43,11 -13,7 -22,18 -29,32 -6,15 -10,31 -10,48 0,18 4,33 10,47 7,14 17,25 30,32 13,7 27,11 43,11 12,0 24,-2 35,-7 11,-4 22,-11 33,-20 v -66 h -69 v 22 z m 131,68 h 21 c -2,-5 -4,-10 -5,-15 -1,-5 -1,-18 -1,-38 v -29 c 0,-10 0,-16 -1,-20 -1,-6 -3,-10 -6,-14 -3,-4 -8,-7 -14,-10 -7,-2 -15,-4 -25,-4 -10,0 -19,2 -27,5 -7,3 -13,7 -17,13 -4,5 -7,12 -9,21 l 19,3 c 2,-9 6,-15 10,-19 5,-3 12,-5 21,-5 10,0 18,2 23,7 4,4 6,10 6,19 0,0 0,2 0,5 -8,3 -20,6 -36,7 -8,1 -14,4 -18,5 -5,1 -10,4 -14,7 -5,3 -8,7 -11,12 -2,5 -4,11 -4,17 0,10 4,19 11,26 7,6 17,10 30,10 8,0 15,-2 22,-4 7,-3 14,-8 21,-15 1,6 2,12 4,16 z m -5,-55 c 0,9 -1,16 -4,21 -2,6 -7,11 -13,15 -6,3 -13,5 -20,5 -8,0 -14,-2 -18,-6 -4,-3 -6,-8 -6,-14 0,-4 1,-7 2,-10 2,-3 5,-5 8,-7 4,-1 10,-3 18,-4 14,-2 25,-5 33,-8 z m 74,55 v -137 l 85,137 h 22 v -175 h -20 v 138 l -86,-138 h -22 v 175 z m 271,-22 c -5,5 -12,7 -19,7 -10,0 -18,-4 -24,-11 -6,-8 -9,-20 -9,-37 0,-18 3,-30 9,-38 6,-7 15,-11 25,-11 6,0 12,2 17,6 4,5 8,11 10,19 l 19,-3 c -2,-12 -7,-22 -16,-29 -8,-7 -18,-11 -31,-11 -10,0 -20,3 -28,8 -9,5 -15,13 -19,23 -5,10 -7,22 -7,36 0,22 5,38 15,49 10,11 23,17 39,17 13,0 24,-4 33,-12 8,-9 14,-20 16,-34 l -20,-3 c -1,11 -4,18 -10,24 z m 128,22 h 21 c -3,-5 -4,-10 -5,-15 -1,-5 -1,-18 -1,-38 v -29 c 0,-10 0,-16 -1,-20 -2,-6 -4,-10 -7,-14 -2,-4 -7,-7 -13,-10 -7,-2 -15,-4 -25,-4 -10,0 -19,2 -27,5 -8,3 -13,7 -18,13 -4,5 -7,12 -8,21 l 19,3 c 2,-9 6,-15 10,-19 5,-3 12,-5 21,-5 10,0 18,2 23,7 4,4 5,10 5,19 0,0 0,2 0,5 -7,3 -19,6 -35,7 -8,1 -14,4 -18,5 -5,1 -10,4 -15,7 -4,3 -7,7 -10,12 -2,5 -4,11 -4,17 0,10 4,19 11,26 7,6 17,10 30,10 7,0 15,-2 22,-4 7,-3 14,-8 21,-15 1,6 2,12 4,16 z m -6,-55 c 0,9 -1,16 -3,21 -3,6 -7,11 -13,15 -6,3 -13,5 -21,5 -8,0 -13,-2 -17,-6 -4,-3 -6,-8 -6,-14 0,-4 0,-7 2,-10 2,-3 5,-5 8,-7 4,-1 10,-3 18,-4 14,-2 25,-5 32,-8 z m 71,104 v -62 c 4,5 8,8 13,11 6,3 12,5 18,5 10,0 18,-3 27,-8 8,-6 14,-14 19,-24 5,-10 7,-22 7,-35 0,-13 -2,-24 -6,-34 -5,-10 -11,-18 -18,-23 -8,-6 -17,-9 -27,-9 -8,0 -14,2 -20,5 -5,3 -10,8 -14,15 v -17 h -19 v 176 z m 8,-149 c 7,-9 15,-13 23,-13 9,0 16,4 22,12 6,8 9,20 9,37 0,17 -3,29 -9,37 -6,8 -14,12 -23,12 -9,0 -16,-4 -22,-11 -6,-8 -9,-20 -9,-36 0,-17 3,-30 9,-38 z"
   id="path8417" />

      </g>

     </g>
      <g
         class="com.sun.star.drawing.ClosedBezierShape"
         id="g8427"
         style="fill-rule:evenodd;stroke-width:28.222;stroke-linejoin:round"
         transform="matrix(0.01,0,0,0.01,36.93713,56.031832)">
      <g
   id="id73">
       <rect
   class="BoundingBox"
   stroke="none"
   fill="none"
   x="7296"
   y="1948"
   width="1229"
   height="179"
   id="rect8422" />

       <path
   fill="#000000"
   stroke="none"
   d="m 7312,2112 c 10,9 22,14 37,14 18,0 32,-7 42,-21 9,-12 13,-26 13,-41 0,-17 -5,-30 -15,-42 -9,-10 -21,-16 -35,-16 -11,0 -21,4 -31,11 l 8,-47 h 65 v -20 h -80 l -16,90 19,3 c 3,-5 7,-9 12,-12 5,-3 11,-5 17,-5 11,0 19,4 25,11 7,7 10,16 10,29 0,13 -4,23 -10,30 -7,8 -15,12 -24,12 -9,0 -15,-3 -21,-8 -6,-5 -9,-14 -11,-25 l -21,2 c 2,15 7,27 16,35 z m 199,11 v -69 c 0,-16 4,-27 10,-34 6,-6 13,-9 22,-9 5,0 10,2 13,4 5,3 7,6 9,12 2,4 2,10 2,19 v 77 h 20 v -78 c 0,-10 0,-17 -1,-21 -1,-7 -3,-12 -6,-16 -3,-5 -8,-8 -13,-11 -6,-3 -13,-4 -20,-4 -16,0 -29,7 -38,21 v -18 h -18 v 127 z m 127,0 v -66 c 0,-11 1,-20 3,-26 2,-7 6,-12 11,-15 4,-3 10,-5 15,-5 8,0 13,3 16,7 3,5 5,13 5,23 v 82 h 20 v -73 c 0,-14 3,-23 8,-30 6,-6 13,-9 21,-9 5,0 9,2 12,4 3,2 6,5 7,9 1,5 2,11 2,19 v 80 h 20 v -87 c 0,-15 -3,-26 -9,-33 -7,-7 -16,-10 -28,-10 -15,0 -27,7 -36,22 -2,-7 -6,-12 -12,-16 -5,-4 -13,-6 -21,-6 -8,0 -15,2 -21,6 -6,3 -11,8 -15,14 v -17 h -18 v 127 z m 228,0 17,-53 h 69 l 20,53 h 24 l -67,-175 h -24 l -62,175 z m 42,-124 c 3,-11 6,-22 9,-33 2,9 6,21 11,36 l 17,49 h -55 z m 206,124 v -21 h -80 v -154 h -21 v 175 z m 85,0 c 10,0 18,-1 26,-3 8,-2 14,-5 19,-9 6,-4 11,-9 15,-16 5,-7 8,-15 11,-25 3,-10 5,-22 5,-35 0,-17 -2,-30 -7,-43 -4,-12 -10,-22 -19,-29 -7,-6 -15,-10 -24,-13 -7,-2 -16,-2 -29,-2 h -56 v 175 z m -37,-155 h 34 c 12,0 22,1 28,4 8,3 14,9 20,19 6,10 8,24 8,44 0,13 -1,24 -4,33 -3,9 -7,17 -12,22 -3,4 -8,7 -14,9 -6,2 -15,3 -26,3 h -34 z m 198,155 18,-53 h 68 l 19,53 h 25 l -67,-175 h -23 l -63,175 z m 42,-124 c 3,-11 7,-22 9,-33 2,9 6,21 12,36 l 17,49 h -56 z m 102,124 h 20 v -175 h -20 z"
   id="path8424" />

      </g>

     </g>
      <g
         class="com.sun.star.drawing.ClosedBezierShape"
         id="g8434"
         style="fill-rule:evenodd;stroke-width:28.222;stroke-linejoin:round"
         transform="matrix(0.01,0,0,0.01,36.93713,56.031832)">
      <g
   id="id74">
       <rect
   class="BoundingBox"
   stroke="none"
   fill="none"
   x="8544"
   y="2041"
   width="95"
   height="152"
   id="rect8429" />

       <path
   fill="#000000"
   stroke="none"
   d="m 8568,2175 c 2,-4 5,-7 8,-10 3,-3 9,-11 19,-20 14,-11 23,-20 28,-26 5,-7 9,-13 11,-18 2,-6 4,-12 4,-18 0,-12 -4,-22 -12,-30 -8,-8 -19,-12 -33,-12 -13,0 -24,4 -32,12 -8,7 -12,18 -13,32 l 17,1 c 0,-9 3,-16 8,-21 5,-6 11,-8 20,-8 8,0 15,2 20,7 5,5 7,11 7,19 0,6 -3,14 -8,22 -5,7 -17,18 -32,31 -9,9 -17,16 -22,23 -5,7 -9,14 -12,20 -1,4 -2,9 -2,13 h 94 v -17 z"
   id="path8431" />

      </g>

     </g>
      <g
         class="com.sun.star.drawing.ClosedBezierShape"
         id="g8441"
         style="fill-rule:evenodd;stroke-width:28.222;stroke-linejoin:round"
         transform="matrix(0.01,0,0,0.01,36.93713,56.031832)">
      <g
   id="id75">
       <rect
   class="BoundingBox"
   stroke="none"
   fill="none"
   x="8658"
   y="1945"
   width="158"
   height="182"
   id="rect8436" />

       <path
   fill="#000000"
   stroke="none"
   d="m 8667,2081 c 7,14 16,25 28,33 12,8 26,12 41,12 14,0 28,-4 41,-11 12,-7 21,-18 28,-32 7,-13 10,-30 10,-48 0,-17 -3,-33 -10,-47 -6,-13 -15,-24 -27,-32 -12,-7 -27,-11 -42,-11 -23,0 -41,8 -56,24 -15,17 -22,39 -22,68 0,15 3,31 9,44 z m 30,-100 c 11,-11 24,-16 39,-16 11,0 21,3 30,8 9,6 16,14 20,25 4,10 7,23 7,37 0,22 -6,41 -16,53 -11,12 -25,18 -41,18 -16,0 -29,-6 -40,-18 -10,-12 -16,-30 -16,-51 0,-26 6,-44 17,-56 z"
   id="path8438" />

      </g>

     </g>
      <g
         class="com.sun.star.drawing.ClosedBezierShape"
         id="g8448"
         style="fill-rule:evenodd;stroke-width:28.222;stroke-linejoin:round"
         transform="matrix(0.01,0,0,0.01,36.93713,56.031832)">
      <g
   id="id76">
       <rect
   class="BoundingBox"
   stroke="none"
   fill="none"
   x="8832"
   y="2041"
   width="94"
   height="156"
   id="rect8443" />

       <path
   fill="#000000"
   stroke="none"
   d="m 8846,2183 c 8,8 19,12 32,12 13,0 25,-5 34,-14 8,-9 13,-20 13,-33 0,-10 -3,-18 -7,-24 -4,-7 -11,-11 -19,-13 6,-3 11,-7 14,-12 3,-6 5,-12 5,-18 0,-7 -2,-13 -5,-19 -4,-6 -8,-12 -15,-15 -6,-4 -13,-6 -21,-6 -12,0 -21,4 -29,12 -7,6 -12,16 -14,28 l 17,4 c 2,-9 4,-16 9,-21 4,-4 10,-7 18,-7 6,0 12,3 16,7 4,5 6,10 6,17 0,8 -2,14 -8,19 -6,3 -13,6 -21,6 l -3,-1 -2,16 c 5,-1 10,-2 13,-2 8,0 15,3 20,9 5,5 8,12 8,20 0,9 -3,16 -9,23 -5,6 -12,8 -20,8 -8,0 -14,-2 -19,-6 -4,-5 -7,-12 -9,-23 l -18,3 c 2,12 6,22 14,30 z"
   id="path8445" />

      </g>

     </g>
      <g
         class="com.sun.star.drawing.PolyPolygonShape"
         id="g8455"
         style="fill-rule:evenodd;stroke-width:28.222;stroke-linejoin:round"
         transform="matrix(0.01,0,0,0.01,36.93713,56.031832)">
      <g
   id="id77">
       <rect
   class="BoundingBox"
   stroke="none"
   fill="none"
   x="3839"
   y="3706"
   width="38"
   height="27"
   id="rect8450" />

       <path
   fill="#000000"
   stroke="none"
   d="m 3840,3732 h 36 v -26 h -36 z"
   id="path8452" />

      </g>

     </g>
      <g
         class="com.sun.star.drawing.PolyPolygonShape"
         id="g8462"
         style="fill-rule:evenodd;stroke-width:28.222;stroke-linejoin:round"
         transform="matrix(0.01,0,0,0.01,36.93713,56.031832)">
      <g
   id="id78">
       <rect
   class="BoundingBox"
   stroke="none"
   fill="none"
   x="3945"
   y="3706"
   width="4947"
   height="27"
   id="rect8457" />

       <path
   fill="#000000"
   stroke="none"
   d="m 3945,3706 h 69 v 26 h -69 z m 139,0 h 70 v 26 h -70 z m 139,0 h 70 v 26 h -70 z m 140,0 h 69 v 26 h -69 z m 139,0 h 70 v 26 h -70 z m 139,0 h 70 v 26 h -70 z m 140,0 h 69 v 26 h -69 z m 139,0 h 70 v 26 h -70 z m 139,0 h 70 v 26 h -70 z m 140,0 h 69 v 26 h -69 z m 139,0 h 70 v 26 h -70 z m 139,0 h 70 v 26 h -70 z m 140,0 h 69 v 26 h -69 z m 139,0 h 69 v 26 h -69 z m 139,0 h 70 v 26 h -70 z m 139,0 h 70 v 26 h -70 z m 140,0 h 69 v 26 h -69 z m 139,0 h 70 v 26 h -70 z m 139,0 h 70 v 26 h -70 z m 140,0 h 69 v 26 h -69 z m 139,0 h 70 v 26 h -70 z m 139,0 h 70 v 26 h -70 z m 140,0 h 69 v 26 h -69 z m 139,0 h 70 v 26 h -70 z m 139,0 h 70 v 26 h -70 z m 141,0 h 69 v 26 h -69 z m 139,0 h 70 v 26 h -70 z m 139,0 h 70 v 26 h -70 z m 140,0 h 69 v 26 h -69 z m 139,0 h 70 v 26 h -70 z m 139,0 h 70 v 26 h -70 z m 139,0 h 70 v 26 h -70 z m 140,0 h 69 v 26 h -69 z m 139,0 h 70 v 26 h -70 z m 139,0 h 70 v 26 h -70 z m 140,0 h 69 v 26 h -69 z"
   id="path8459" />

      </g>

     </g>
      <g
         class="com.sun.star.drawing.PolyPolygonShape"
         id="g8469"
         style="fill-rule:evenodd;stroke-width:28.222;stroke-linejoin:round"
         transform="matrix(0.01,0,0,0.01,36.93713,56.031832)">
      <g
   id="id79">
       <rect
   class="BoundingBox"
   stroke="none"
   fill="none"
   x="8960"
   y="3706"
   width="37"
   height="27"
   id="rect8464" />

       <path
   fill="#000000"
   stroke="none"
   d="m 8960,3732 h 36 v -26 h -36 z"
   id="path8466" />

      </g>

     </g>
      <g
         class="com.sun.star.drawing.PolyPolygonShape"
         id="g8476"
         style="fill-rule:evenodd;stroke-width:28.222;stroke-linejoin:round"
         transform="matrix(0.01,0,0,0.01,36.93713,56.031832)">
      <g
   id="id80">
       <rect
   class="BoundingBox"
   stroke="none"
   fill="none"
   x="5401"
   y="2729"
   width="1253"
   height="471"
   id="rect8471" />

       <path
   fill="#666766"
   stroke="none"
   d="M 5402,3199 H 6653 V 2729 H 5402 Z"
   id="path8473" />

      </g>

     </g>
      <g
         class="com.sun.star.drawing.PolyPolygonShape"
         id="g8483"
         style="fill-rule:evenodd;stroke-width:28.222;stroke-linejoin:round"
         transform="matrix(0.01,0,0,0.01,36.93713,56.031832)">
      <g
   id="id81">
       <rect
   class="BoundingBox"
   stroke="none"
   fill="none"
   x="2435"
   y="1948"
   width="822"
   height="471"
   id="rect8478" />

       <path
   fill="#666766"
   stroke="none"
   d="m 2435,2418 h 821 v -470 h -821 z"
   id="path8480" />

      </g>

     </g>
      <g
         class="com.sun.star.drawing.PolyPolygonShape"
         id="g8490"
         style="fill-rule:evenodd;stroke-width:28.222;stroke-linejoin:round"
         transform="matrix(0.01,0,0,0.01,36.93713,56.031832)">
      <g
   id="id82">
       <rect
   class="BoundingBox"
   stroke="none"
   fill="none"
   x="2425"
   y="1940"
   width="841"
   height="487"
   id="rect8485" />

       <path
   fill="#666766"
   stroke="none"
   d="m 2435,2418 v -9 h 813 v -452 h -805 v 461 h -8 v -9 9 h -9 v -478 h 839 v 486 h -839 v -8 z"
   id="path8487" />

      </g>

     </g>
      <g
         class="com.sun.star.drawing.PolyPolygonShape"
         id="g8497"
         style="fill-rule:evenodd;stroke-width:28.222;stroke-linejoin:round"
         transform="matrix(0.01,0,0,0.01,36.93713,56.031832)">
      <g
   id="id83">
       <rect
   class="BoundingBox"
   stroke="none"
   fill="none"
   x="9619"
   y="1948"
   width="783"
   height="471"
   id="rect8492" />

       <path
   fill="#666766"
   stroke="none"
   d="m 9620,2418 h 781 v -470 h -781 z"
   id="path8494" />

      </g>

     </g>
      <g
         class="com.sun.star.drawing.PolyPolygonShape"
         id="g8504"
         style="fill-rule:evenodd;stroke-width:28.222;stroke-linejoin:round"
         transform="matrix(0.01,0,0,0.01,36.93713,56.031832)">
      <g
   id="id84">
       <rect
   class="BoundingBox"
   stroke="none"
   fill="none"
   x="9611"
   y="1940"
   width="800"
   height="487"
   id="rect8499" />

       <path
   fill="#666766"
   stroke="none"
   d="m 9620,2418 v -9 h 773 v -452 h -765 v 461 h -8 v -9 9 h -9 v -478 h 799 v 486 h -799 v -8 z"
   id="path8501" />

      </g>

     </g>
      <g
         class="com.sun.star.drawing.ClosedBezierShape"
         id="g8511"
         style="fill-rule:evenodd;stroke-width:28.222;stroke-linejoin:round"
         transform="matrix(0.01,0,0,0.01,36.93713,56.031832)">
      <g
   id="id85">
       <rect
   class="BoundingBox"
   stroke="none"
   fill="none"
   x="5488"
   y="2872"
   width="1086"
   height="183"
   id="rect8506" />

       <path
   fill="#ffffff"
   stroke="none"
   d="m 5617,2983 v 32 c -4,5 -11,9 -20,13 -9,4 -18,6 -27,6 -11,0 -21,-3 -31,-8 -9,-5 -16,-13 -21,-23 -5,-11 -8,-24 -8,-39 0,-14 2,-26 6,-36 3,-7 6,-12 11,-18 4,-5 10,-9 17,-12 7,-3 16,-5 25,-5 9,0 16,1 23,5 7,2 12,7 15,12 4,5 7,12 10,21 l 19,-6 c -3,-12 -7,-21 -12,-29 -6,-7 -13,-13 -23,-17 -9,-4 -20,-6 -32,-6 -16,0 -30,4 -43,11 -12,7 -22,18 -28,33 -7,14 -10,30 -10,48 0,17 3,33 10,46 6,14 16,25 29,32 13,8 28,11 44,11 12,0 24,-2 35,-7 11,-4 22,-11 32,-20 v -65 h -69 v 21 z m 132,68 h 21 c -3,-5 -4,-10 -5,-15 -1,-5 -1,-18 -1,-38 v -28 c 0,-9 -1,-17 -1,-21 -2,-5 -4,-10 -7,-14 -3,-4 -7,-7 -14,-10 -6,-2 -14,-4 -24,-4 -10,0 -19,2 -27,5 -8,3 -14,7 -18,13 -4,5 -7,12 -9,22 l 20,3 c 2,-9 5,-16 10,-20 5,-3 11,-5 21,-5 10,0 18,3 23,7 3,4 5,11 5,20 0,0 0,2 0,5 -7,3 -19,6 -36,8 -7,1 -13,2 -17,3 -6,1 -10,4 -15,7 -4,3 -7,7 -10,12 -3,5 -4,11 -4,17 0,10 3,19 10,26 7,7 18,10 30,10 8,0 16,-2 23,-4 6,-3 13,-8 21,-15 1,7 2,12 4,16 z m -6,-55 c 0,9 -1,16 -3,21 -3,6 -7,11 -13,15 -6,3 -13,5 -21,5 -8,0 -14,-2 -17,-5 -5,-4 -7,-9 -7,-15 0,-3 1,-7 3,-10 2,-3 5,-5 8,-7 3,-1 9,-3 18,-4 14,-2 25,-5 32,-8 z m 86,37 c -3,0 -5,0 -7,-1 -1,-2 -2,-3 -3,-5 -1,-2 -1,-5 -1,-12 v -74 h 20 v -17 h -20 v -44 l -20,13 v 31 h -15 v 17 h 15 v 73 c 0,13 1,21 2,26 2,3 5,7 9,9 4,3 9,4 16,4 5,0 10,-1 15,-2 l -2,-19 c -4,1 -7,1 -9,1 z m 97,-3 c -5,4 -12,6 -19,6 -10,0 -18,-3 -25,-11 -6,-7 -10,-18 -11,-31 h 88 c 0,-3 0,-5 0,-6 0,-21 -5,-38 -15,-49 -10,-12 -22,-18 -38,-18 -16,0 -30,6 -40,18 -10,12 -15,29 -15,50 0,21 5,36 15,48 10,11 24,17 41,17 14,0 25,-4 34,-11 8,-7 15,-17 18,-30 l -21,-3 c -3,9 -7,16 -12,20 z m -43,-81 c 6,-7 14,-10 23,-10 10,0 18,4 25,12 4,7 6,14 7,25 h -65 c 0,-11 4,-20 10,-27 z m 188,102 v -137 l 86,137 h 22 v -175 h -21 v 138 l -85,-138 h -22 v 175 z m 142,-151 h 20 v -24 h -20 z m 20,0 z m -20,151 h 20 v -127 h -20 z m 20,0 z m 31,3 48,-181 h -17 l -47,181 z m 70,-3 18,-53 h 68 l 19,53 h 25 l -67,-175 h -24 l -62,175 z m 42,-123 c 3,-11 7,-22 9,-34 2,10 6,22 11,37 l 18,49 h -56 z m 197,123 v -127 h -20 v 68 c 0,11 -1,19 -3,25 -2,6 -6,10 -11,14 -5,3 -11,4 -17,4 -6,0 -11,-1 -15,-4 -4,-4 -7,-8 -8,-14 -1,-3 -1,-11 -1,-22 v -71 h -20 v 79 c 0,9 0,16 1,20 1,6 3,12 6,16 3,4 7,8 13,11 7,2 13,4 20,4 16,0 28,-7 37,-21 v 18 z"
   id="path8508" />

      </g>

     </g>
      <g
         class="com.sun.star.drawing.ClosedBezierShape"
         id="g8518"
         style="fill-rule:evenodd;stroke-width:28.222;stroke-linejoin:round"
         transform="matrix(0.01,0,0,0.01,36.93713,56.031832)">
      <g
   id="id86">
       <rect
   class="BoundingBox"
   stroke="none"
   fill="none"
   x="2592"
   y="2110"
   width="503"
   height="182"
   id="rect8513" />

       <path
   fill="#ffffff"
   stroke="none"
   d="m 2668,2288 v -155 h 53 v -20 h -129 v 20 h 54 v 155 z m 65,-151 h 21 v -24 h -21 z m 21,0 z m -21,151 h 21 v -128 h -21 z m 21,0 z m 31,3 48,-181 h -16 l -48,181 z m 70,-3 18,-54 h 68 l 19,54 h 25 l -67,-175 h -23 l -63,175 z m 42,-124 c 3,-11 7,-22 9,-33 2,9 6,21 12,36 l 17,48 h -56 z m 197,124 v -128 h -20 v 68 c 0,12 -1,20 -3,26 -2,5 -6,10 -11,13 -5,3 -11,5 -17,5 -6,0 -11,-2 -15,-5 -4,-3 -7,-8 -8,-13 -1,-4 -1,-12 -1,-24 v -70 h -20 v 80 c 0,9 0,15 1,19 1,7 3,12 6,16 3,5 8,8 13,11 7,3 13,4 20,4 16,0 28,-7 37,-21 v 19 z"
   id="path8515" />

      </g>

     </g>
      <g
         class="com.sun.star.drawing.ClosedBezierShape"
         id="g8525"
         style="fill-rule:evenodd;stroke-width:28.222;stroke-linejoin:round"
         transform="matrix(0.01,0,0,0.01,36.93713,56.031832)">
      <g
   id="id87">
       <rect
   class="BoundingBox"
   stroke="none"
   fill="none"
   x="9745"
   y="2092"
   width="503"
   height="182"
   id="rect8520" />

       <path
   fill="#ffffff"
   stroke="none"
   d="m 9822,2270 v -154 h 53 v -21 h -130 v 21 h 55 v 154 z m 65,-150 h 20 v -25 h -20 z m 20,0 z m -20,150 h 20 v -127 h -20 z m 20,0 z m 31,3 48,-181 h -16 l -48,181 z m 70,-3 18,-53 h 68 l 19,53 h 25 l -67,-175 h -23 l -63,175 z m 42,-123 c 4,-11 7,-22 9,-34 3,10 6,22 12,37 l 17,48 h -56 z m 197,123 v -127 h -20 v 67 c 0,11 -1,19 -3,25 -2,7 -6,11 -11,15 -5,3 -11,4 -17,4 -6,0 -11,-1 -15,-4 -4,-4 -7,-8 -8,-15 -1,-3 -1,-11 -1,-22 v -70 h -20 v 78 c 0,9 0,16 1,21 1,6 3,12 6,16 3,4 8,8 14,11 6,2 12,4 19,4 16,0 28,-7 37,-21 v 18 z"
   id="path8522" />

      </g>

     </g>
      <g
         class="com.sun.star.drawing.ClosedBezierShape"
         id="g8532"
         style="fill-rule:evenodd;stroke-width:28.222;stroke-linejoin:round"
         transform="matrix(0.01,0,0,0.01,36.93713,56.031832)">
      <g
   id="id88">
       <rect
   class="BoundingBox"
   stroke="none"
   fill="none"
   x="7289"
   y="2865"
   width="1461"
   height="182"
   id="rect8527" />

       <path
   fill="#000000"
   stroke="none"
   d="m 7317,3022 c 3,-4 6,-8 9,-12 3,-3 11,-11 23,-21 14,-13 25,-24 31,-31 6,-9 11,-16 13,-22 3,-7 4,-14 4,-21 0,-13 -4,-25 -13,-34 -10,-10 -22,-14 -38,-14 -15,0 -28,4 -37,13 -9,8 -14,21 -16,37 l 21,2 c 0,-11 3,-19 9,-25 5,-6 13,-10 23,-10 9,0 17,3 22,9 6,6 9,13 9,22 0,8 -3,16 -10,25 -6,9 -18,23 -36,38 -11,10 -20,19 -26,27 -6,7 -10,15 -13,23 -2,4 -3,9 -2,15 h 107 v -21 z m 169,21 c 10,0 18,-1 26,-3 8,-2 14,-5 19,-9 6,-4 11,-9 15,-16 5,-7 8,-15 11,-25 3,-10 5,-22 5,-35 0,-17 -2,-31 -7,-43 -4,-12 -10,-22 -19,-29 -7,-7 -15,-11 -24,-13 -7,-2 -16,-3 -29,-3 h -56 v 176 z m -37,-155 h 34 c 12,0 22,1 28,4 8,3 14,9 20,19 6,10 8,24 8,42 0,14 -1,26 -4,35 -3,9 -7,16 -12,22 -3,4 -8,7 -14,9 -6,2 -15,3 -26,3 h -34 z m 264,155 v -21 h -100 v -59 h 90 v -22 h -90 v -53 h 96 v -21 h -117 v 176 z m 154,-69 v 33 c -5,4 -11,8 -20,12 -9,4 -18,6 -28,6 -10,0 -20,-2 -30,-8 -9,-5 -17,-12 -22,-23 -5,-10 -7,-23 -7,-39 0,-14 2,-25 6,-36 3,-6 6,-12 10,-17 5,-6 10,-10 18,-13 7,-3 15,-5 25,-5 8,0 16,2 23,5 6,3 12,7 15,12 4,5 7,12 9,21 l 20,-6 c -3,-12 -7,-21 -13,-28 -5,-8 -13,-13 -22,-17 -9,-5 -20,-6 -32,-6 -16,0 -30,3 -43,10 -12,7 -22,18 -28,33 -7,15 -10,30 -10,48 0,17 3,33 10,47 6,14 16,24 29,32 13,7 28,10 44,10 12,0 23,-2 34,-6 12,-5 22,-12 33,-21 v -65 h -69 v 21 z m 182,46 c -5,5 -12,8 -20,8 -9,0 -18,-4 -25,-12 -6,-8 -9,-20 -9,-37 0,-16 4,-30 10,-37 6,-8 15,-12 25,-12 7,0 13,2 18,7 4,4 8,10 9,20 l 20,-4 c -3,-13 -8,-23 -16,-30 -8,-7 -19,-10 -31,-10 -10,0 -21,2 -30,7 -8,5 -15,13 -19,23 -4,12 -6,23 -6,37 0,21 5,37 15,48 9,12 22,17 40,17 12,0 23,-4 32,-12 9,-8 14,-19 16,-34 l -19,-3 c -1,11 -5,19 -10,24 z m 67,23 v -69 c 0,-10 1,-18 3,-25 2,-5 6,-10 11,-13 5,-3 11,-5 17,-5 7,0 14,3 18,7 4,5 6,13 6,25 v 80 h 20 v -80 c 0,-14 -1,-23 -4,-30 -2,-6 -7,-11 -14,-15 -6,-3 -13,-5 -22,-5 -14,0 -26,6 -35,17 v -63 h -20 v 176 z m 187,0 h 21 c -3,-5 -4,-10 -5,-16 -1,-5 -1,-18 -1,-37 v -29 c 0,-10 0,-17 -1,-20 -1,-6 -3,-11 -6,-15 -3,-4 -8,-7 -14,-9 -7,-3 -15,-4 -25,-4 -10,0 -19,1 -27,4 -7,3 -13,7 -17,13 -5,5 -7,13 -9,22 l 19,4 c 2,-10 6,-17 10,-20 5,-4 12,-6 21,-6 10,0 18,3 23,8 4,3 6,9 6,19 0,1 0,3 0,6 -8,2 -20,5 -36,7 -8,1 -14,2 -18,3 -5,2 -10,4 -14,7 -5,3 -8,7 -11,12 -2,5 -4,11 -4,17 0,11 4,19 11,26 7,7 17,10 30,10 7,0 15,-1 22,-4 7,-3 14,-7 21,-14 1,6 2,11 4,16 z m -5,-56 c 0,10 -2,17 -4,21 -3,7 -7,11 -13,15 -6,4 -13,5 -20,5 -8,0 -14,-2 -18,-5 -4,-4 -6,-9 -6,-15 0,-3 1,-7 2,-9 2,-4 5,-6 8,-8 4,-1 10,-2 18,-4 14,-2 25,-5 33,-8 z m 71,56 v -69 c 0,-17 3,-28 9,-34 6,-6 13,-9 22,-9 5,0 10,1 14,4 4,3 6,6 8,10 2,5 2,12 2,21 v 77 h 20 v -78 c 0,-10 0,-18 -1,-22 -1,-6 -3,-11 -6,-15 -3,-5 -7,-8 -13,-11 -6,-3 -13,-4 -20,-4 -16,0 -29,7 -37,20 v -18 h -18 v 128 z m 126,0 v -69 c 0,-17 3,-28 9,-34 7,-6 14,-9 22,-9 6,0 10,1 14,4 4,3 7,6 9,10 1,5 2,12 2,21 v 77 h 20 v -78 c 0,-10 -1,-18 -1,-22 -1,-6 -3,-11 -6,-15 -3,-5 -8,-8 -14,-11 -6,-3 -12,-4 -19,-4 -17,0 -29,7 -38,20 v -18 h -18 v 128 z m 175,-22 c -5,4 -12,7 -19,7 -10,0 -18,-4 -25,-11 -6,-8 -10,-18 -11,-32 h 89 c 0,-3 0,-4 0,-6 0,-21 -5,-38 -16,-49 -10,-11 -22,-17 -38,-17 -16,0 -30,6 -40,17 -10,12 -15,29 -15,51 0,20 5,36 15,47 10,12 24,17 41,17 14,0 25,-3 34,-10 9,-8 15,-18 18,-30 l -21,-3 c -3,9 -7,15 -12,19 z m -43,-81 c 6,-6 14,-10 23,-10 10,0 18,4 25,13 4,5 6,14 7,24 h -65 c 0,-11 4,-20 10,-27 z m 101,103 h 20 v -176 h -20 z"
   id="path8529" />

      </g>

     </g>
      <g
         class="com.sun.star.drawing.PolyPolygonShape"
         id="g8539"
         style="fill-rule:evenodd;stroke-width:28.222;stroke-linejoin:round"
         transform="matrix(0.01,0,0,0.01,36.93713,56.031832)">
      <g
   id="id89">
       <rect
   class="BoundingBox"
   stroke="none"
   fill="none"
   x="8379"
   y="3048"
   width="193"
   height="675"
   id="rect8534" />

       <path
   fill="#000000"
   stroke="none"
   d="m 8396,3048 174,669 -17,5 -174,-670 z"
   id="path8536" />

      </g>

     </g>
      <g
         class="com.sun.star.drawing.PolyPolygonShape"
         id="g8546"
         style="fill-rule:evenodd;stroke-width:28.222;stroke-linejoin:round"
         transform="matrix(0.01,0,0,0.01,36.93713,56.031832)">
      <g
   id="id90">
       <rect
   class="BoundingBox"
   stroke="none"
   fill="none"
   x="7101"
   y="2745"
   width="198"
   height="841"
   id="rect8541" />

       <path
   fill="#000000"
   stroke="none"
   d="m 7298,2748 -180,836 -17,-3 180,-836 z"
   id="path8543" />

      </g>

     </g>
      <g
         class="com.sun.star.drawing.PolyPolygonShape"
         id="g8553"
         style="fill-rule:evenodd;stroke-width:28.222;stroke-linejoin:round"
         transform="matrix(0.01,0,0,0.01,36.93713,56.031832)">
      <g
   id="id91">
       <rect
   class="BoundingBox"
   stroke="none"
   fill="none"
   x="7025"
   y="2415"
   width="258"
   height="983"
   id="rect8548" />

       <path
   fill="#000000"
   stroke="none"
   d="m 7282,2419 -240,977 -17,-4 239,-977 z"
   id="path8550" />

      </g>

     </g>
      <g
         class="com.sun.star.drawing.PolyPolygonShape"
         id="g8560"
         style="fill-rule:evenodd;stroke-width:28.222;stroke-linejoin:round"
         transform="matrix(0.01,0,0,0.01,36.93713,56.031832)">
      <g
   id="id92">
       <rect
   class="BoundingBox"
   stroke="none"
   fill="none"
   x="6986"
   y="2120"
   width="309"
   height="1159"
   id="rect8555" />

       <path
   fill="#000000"
   stroke="none"
   d="m 7294,2124 -291,1154 -17,-5 291,-1153 z"
   id="path8557" />

      </g>

     </g>
    </g>
  </g>
</svg>
