<?xml version="1.0" encoding="UTF-8" standalone="no"?>
<svg
   xmlns:dc="http://purl.org/dc/elements/1.1/"
   xmlns:cc="http://creativecommons.org/ns#"
   xmlns:rdf="http://www.w3.org/1999/02/22-rdf-syntax-ns#"
   xmlns:svg="http://www.w3.org/2000/svg"
   xmlns="http://www.w3.org/2000/svg"
   xmlns:sodipodi="http://sodipodi.sourceforge.net/DTD/sodipodi-0.dtd"
   xmlns:inkscape="http://www.inkscape.org/namespaces/inkscape"
   version="1.1"
   id="svg867"
   xml:space="preserve"
   width="663.63837"
   height="559.4624"
   viewBox="0 0 663.63834 559.46237"
   sodipodi:docname="4.svg"
   inkscape:version="1.0 (1.0+r73+1)"><metadata
     id="metadata873"><rdf:RDF><cc:Work
         rdf:about=""><dc:format>image/svg+xml</dc:format><dc:type
           rdf:resource="http://purl.org/dc/dcmitype/StillImage" /><dc:title></dc:title></cc:Work></rdf:RDF></metadata><defs
     id="defs871" /><sodipodi:namedview
     fit-margin-bottom="0"
     fit-margin-right="0"
     fit-margin-left="0"
     fit-margin-top="0"
     inkscape:document-rotation="0"
     pagecolor="#ffffff"
     bordercolor="#666666"
     borderopacity="1"
     objecttolerance="10"
     gridtolerance="10"
     guidetolerance="10"
     inkscape:pageopacity="0"
     inkscape:pageshadow="2"
     inkscape:window-width="1861"
     inkscape:window-height="1025"
     id="namedview869"
     showgrid="false"
     inkscape:zoom="0.78706426"
     inkscape:cx="199.83787"
     inkscape:cy="411.71252"
     inkscape:window-x="59"
     inkscape:window-y="27"
     inkscape:window-maximized="1"
     inkscape:current-layer="g875" /><g
     id="g875"
     inkscape:groupmode="layer"
     inkscape:label="4"
     transform="matrix(1.3333333,0,0,1.3333333,-208.16213,-128.26882)"><g
       id="g1624"
       transform="matrix(2.4,0,0,2.4,-68.0336,-345.77278)"><path
         d="m 111.477,275.871 h 92 v 5.605 h -92 z"
         style="fill:#2aabe2;fill-opacity:1;fill-rule:nonzero;stroke:none"
         id="path1401" /><path
         d="m 111.477,267.457 h 92 v 5.605 h -92 z"
         style="fill:#2aabe2;fill-opacity:1;fill-rule:nonzero;stroke:none"
         id="path1403" /><path
         d="m 111.477,242.602 h 92 v 5.609 h -92 z"
         style="fill:#2aabe2;fill-opacity:1;fill-rule:nonzero;stroke:none"
         id="path1405" /><path
         d="m 111.477,234.188 h 92 v 5.609 h -92 z"
         style="fill:#2aabe2;fill-opacity:1;fill-rule:nonzero;stroke:none"
         id="path1407" /><path
         d="m 125.191,261.965 v -4.031 c 0,-1.571 -0.031,-2.707 -0.097,-3.895 l 0.039,-0.016 c 0.476,1.024 1.105,2.102 1.765,3.153 l 2.997,4.789 h 1.234 v -9.438 h -1.149 v 3.95 c 0,1.468 0.028,2.617 0.141,3.878 l -0.027,0.016 c -0.449,-0.969 -0.996,-1.965 -1.696,-3.07 l -3.027,-4.774 h -1.328 v 9.438 z m 10.989,0 h 1.23 v -9.945 h -1.23 z m 8.062,-4.16 c 0,-1.356 -0.504,-2.774 -2.574,-2.774 -0.856,0 -1.668,0.239 -2.227,0.602 l 0.278,0.816 c 0.476,-0.308 1.136,-0.508 1.765,-0.508 1.387,0 1.543,1.012 1.543,1.571 v 0.14 c -2.621,-0.015 -4.078,0.883 -4.078,2.524 0,0.976 0.699,1.945 2.074,1.945 0.965,0 1.696,-0.476 2.075,-1.008 h 0.039 l 0.097,0.852 h 1.121 c -0.082,-0.461 -0.113,-1.035 -0.113,-1.621 z m -1.187,1.879 -0.071,0.39 c -0.195,0.574 -0.757,1.137 -1.636,1.137 -0.633,0 -1.164,-0.379 -1.164,-1.176 0,-1.32 1.527,-1.558 2.871,-1.527 z m 2.168,-4.496 2.507,6.246 0.082,0.324 -0.097,0.293 c -0.277,0.629 -0.699,1.105 -1.035,1.371 -0.368,0.308 -0.774,0.508 -1.078,0.605 l 0.304,1.035 c 0.309,-0.054 0.914,-0.265 1.516,-0.796 0.84,-0.731 1.441,-1.922 2.324,-4.246 l 1.852,-4.832 h -1.305 l -1.344,3.976 c -0.168,0.488 -0.308,1.012 -0.433,1.414 h -0.032 c -0.109,-0.402 -0.277,-0.937 -0.433,-1.387 l -1.485,-4.003 z m 12.797,3.613 c 0.015,-0.125 0.042,-0.324 0.042,-0.574 0,-1.247 -0.589,-3.196 -2.8,-3.196 -1.977,0 -3.18,1.614 -3.18,3.657 0,2.046 1.246,3.433 3.332,3.433 1.078,0 1.82,-0.238 2.258,-0.433 l -0.211,-0.883 c -0.465,0.195 -0.996,0.347 -1.875,0.347 -1.234,0 -2.301,-0.683 -2.328,-2.351 z m -4.747,-0.883 c 0.098,-0.856 0.641,-2.004 1.891,-2.004 1.387,0 1.723,1.219 1.707,2.004 z m 6.313,4.047 h 1.219 v -3.613 c 0,-0.211 0.027,-0.407 0.054,-0.575 0.168,-0.922 0.786,-1.582 1.657,-1.582 l 0.418,0.043 v -1.164 l -0.348,-0.043 c -0.828,0 -1.57,0.574 -1.879,1.489 h -0.059 l -0.039,-1.332 h -1.078 c 0.039,0.628 0.055,1.316 0.055,2.113 z m 8.805,-9.438 h -1.219 v 9.442 h 1.219 z m 2.226,9.438 h 1.235 v -4.074 c 0,-0.211 0.027,-0.422 0.082,-0.575 0.211,-0.687 0.843,-1.261 1.656,-1.261 1.16,0 1.566,0.91 1.566,2.004 v 3.906 h 1.235 v -4.047 c 0,-2.324 -1.457,-2.887 -2.399,-2.887 -1.117,0 -1.902,0.629 -2.238,1.278 h -0.031 l -0.071,-1.121 h -1.09 c 0.043,0.558 0.055,1.132 0.055,1.835 z m 7.336,-0.461 c 0.504,0.336 1.5,0.617 2.41,0.617 2.227,0 3.305,-1.273 3.305,-2.734 0,-1.383 -0.813,-2.157 -2.406,-2.77 -1.305,-0.504 -1.879,-0.941 -1.879,-1.824 0,-0.645 0.488,-1.414 1.777,-1.414 0.856,0 1.485,0.281 1.793,0.449 l 0.336,-0.992 c -0.418,-0.238 -1.117,-0.465 -2.086,-0.465 -1.836,0 -3.055,1.094 -3.055,2.563 0,1.332 0.954,2.128 2.497,2.675 1.273,0.493 1.777,0.996 1.777,1.875 0,0.957 -0.727,1.614 -1.973,1.614 -0.844,0 -1.64,-0.282 -2.187,-0.618 z m 12.871,-2.703 c 0.016,-0.125 0.043,-0.324 0.043,-0.574 0,-1.247 -0.59,-3.196 -2.805,-3.196 -1.972,0 -3.179,1.614 -3.179,3.657 0,2.046 1.246,3.433 3.336,3.433 1.078,0 1.82,-0.238 2.254,-0.433 l -0.211,-0.883 c -0.461,0.195 -0.992,0.347 -1.875,0.347 -1.235,0 -2.297,-0.683 -2.328,-2.351 z m -4.75,-0.883 c 0.098,-0.856 0.645,-2.004 1.891,-2.004 1.387,0 1.723,1.219 1.711,2.004 h -3.602"
         style="fill:#000000;fill-opacity:1;fill-rule:nonzero;stroke:none"
         id="path1409" /><path
         d="m 102.301,236.992 h 1 v 39.723 h -1 z"
         style="fill:#231f20;fill-opacity:1;fill-rule:nonzero;stroke:none"
         id="path1411" /><path
         d="m 106.84,272.684 -8.078,-0.321 3.761,7.157 4.317,-6.836"
         style="fill:#231f20;fill-opacity:1;fill-rule:nonzero;stroke:none"
         id="path1413" /><path
         d="m 97.043,262.961 c -0.211,0 -0.422,-0.055 -0.617,-0.168 L 96.133,262.5 c -0.059,-0.141 -0.086,-0.461 -0.086,-0.926 v -6.008 c 0,-0.558 0.058,-0.91 0.168,-1.05 0.183,-0.223 0.449,-0.336 0.828,-0.336 h 0.336 v -0.25 h -3.981 v 0.25 h 0.336 c 0.211,0 0.422,0.054 0.633,0.168 l 0.278,0.293 c 0.058,0.14 0.085,0.464 0.085,0.925 v 6.008 c 0,0.563 -0.054,0.91 -0.168,1.051 -0.167,0.227 -0.449,0.336 -0.828,0.336 h -0.336 v 0.254 h 3.981 v -0.254 h -0.336"
         style="fill:#000000;fill-opacity:1;fill-rule:nonzero;stroke:none"
         id="path1415" /><path
         d="m 139.305,208.906 h 37.703 v 22.477 h -37.703 z"
         style="fill:#faaf41;fill-opacity:1;fill-rule:nonzero;stroke:none"
         id="path1417" /><path
         d="m 177.012,231.383 v 0.5 H 138.805 V 208.41 h 38.707 v 23.473 h -0.5 v -0.5 h -0.5 V 209.41 h -36.707 v 21.473 h 37.207 v 0.5 h -0.5 0.5"
         style="fill:#231f20;fill-opacity:1;fill-rule:nonzero;stroke:none"
         id="path1419" /><path
         d="m 148.715,223.375 c -0.492,0.238 -1.246,0.391 -1.992,0.391 -2.293,0 -3.625,-1.485 -3.625,-3.797 0,-2.481 1.468,-3.895 3.683,-3.895 0.785,0 1.442,0.168 1.907,0.395 l 0.292,-0.996 c -0.324,-0.168 -1.066,-0.418 -2.242,-0.418 -2.926,0 -4.929,2 -4.929,4.957 0,3.097 2.003,4.789 4.664,4.789 1.148,0 2.047,-0.239 2.492,-0.461 z m 1.687,1.273 h 1.223 v -3.613 c 0,-0.211 0.027,-0.406 0.055,-0.574 0.168,-0.926 0.785,-1.582 1.652,-1.582 l 0.422,0.043 v -1.164 l -0.352,-0.043 c -0.828,0 -1.566,0.574 -1.875,1.484 h -0.058 l -0.039,-1.332 h -1.082 c 0.043,0.633 0.054,1.321 0.054,2.117 z m 4.481,0.559 3.922,-10.152 h -0.95 l -3.91,10.152 z m 9.82,-3.527 1.008,2.968 h 1.301 l -3.223,-9.441 h -1.469 l -3.207,9.441 h 1.258 l 0.984,-2.968 z m -3.098,-0.953 0.926,-2.731 c 0.18,-0.574 0.336,-1.148 0.477,-1.711 h 0.027 c 0.141,0.547 0.277,1.106 0.488,1.727 l 0.926,2.715 z m 12.254,-2.86 h -1.234 v 4.164 c 0,0.223 -0.039,0.446 -0.109,0.629 -0.227,0.547 -0.801,1.121 -1.629,1.121 -1.117,0 -1.512,-0.871 -1.512,-2.16 v -3.754 h -1.234 v 3.969 c 0,2.379 1.277,2.965 2.339,2.965 1.208,0 1.922,-0.711 2.243,-1.258 h 0.031 l 0.066,1.105 h 1.094 c -0.043,-0.531 -0.055,-1.148 -0.055,-1.847 v -4.934"
         style="fill:#000000;fill-opacity:1;fill-rule:nonzero;stroke:none"
         id="path1421" /><path
         d="m 157.738,184.996 h 1.5 v 9.266 h -1.5 z"
         style="fill:#231f20;fill-opacity:1;fill-rule:nonzero;stroke:none"
         id="path1423" /><path
         d="m 147.438,199.211 h 22.797 v 1.5 h -22.797 z"
         style="fill:#231f20;fill-opacity:1;fill-rule:nonzero;stroke:none"
         id="path1425" /><path
         d="m 152.172,193.199 h 12.215 v 1.5 h -12.215 z"
         style="fill:#231f20;fill-opacity:1;fill-rule:nonzero;stroke:none"
         id="path1427" /><path
         d="m 157.527,199.246 h 1.5 v 9.266 h -1.5 z"
         style="fill:#231f20;fill-opacity:1;fill-rule:nonzero;stroke:none"
         id="path1429" /><path
         d="m 103.773,309.133 h 161.406 v 17.332 H 103.773 Z"
         style="fill:#d1d3d4;fill-opacity:1;fill-rule:nonzero;stroke:none"
         id="path1117" /><path
         d="m 265.18,326.465 v 0.5 H 103.273 V 308.633 H 265.68 v 18.332 h -0.5 v -0.5 h -0.5 V 309.633 H 104.273 v 16.332 H 265.18 v 0.5 h -0.5 0.5"
         style="fill:#231f20;fill-opacity:1;fill-rule:nonzero;stroke:none"
         id="path1119" /><path
         d="m 103.773,291.801 h 161.406 v 17.332 H 103.773 Z"
         style="fill:#ae5fa5;fill-opacity:1;fill-rule:nonzero;stroke:none"
         id="path1121" /><path
         d="m 265.18,309.133 v 0.5 H 103.273 V 291.301 H 265.68 v 18.332 h -0.5 v -0.5 h -0.5 V 292.301 H 104.273 v 16.332 H 265.18 v 0.5 h -0.5 0.5"
         style="fill:#231f20;fill-opacity:1;fill-rule:nonzero;stroke:none"
         id="path1123" /><path
         d="m 224.957,259.656 h 37.703 v 22.477 h -37.703 z"
         style="fill:#faaf41;fill-opacity:1;fill-rule:nonzero;stroke:none"
         id="path1125" /><path
         d="m 262.66,282.133 v 0.5 h -38.203 v -23.477 h 38.703 v 23.477 h -0.5 v -0.5 h -0.5 v -21.977 h -36.703 v 21.477 h 37.203 v 0.5 h -0.5 0.5"
         style="fill:#231f20;fill-opacity:1;fill-rule:nonzero;stroke:none"
         id="path1127" /><path
         d="m 103.773,286.465 h 161.406 v 1 H 103.773 Z"
         style="fill:#231f20;fill-opacity:1;fill-rule:nonzero;stroke:none"
         id="path1129" /><path
         d="m 116.977,286.965 c 0,-1.82 -1.481,-3.301 -3.301,-3.301 -1.824,0 -3.301,1.481 -3.301,3.301 0,1.824 1.477,3.305 3.301,3.305 1.82,0 3.301,-1.481 3.301,-3.305"
         style="fill:#ffffff;fill-opacity:1;fill-rule:nonzero;stroke:none"
         id="path1131" /><path
         d="m 116.977,286.965 h -0.5 c -0.004,-1.543 -1.254,-2.793 -2.801,-2.801 -1.547,0.008 -2.797,1.258 -2.801,2.801 0.004,1.551 1.254,2.801 2.801,2.805 1.547,-0.004 2.797,-1.254 2.801,-2.805 h 1 c 0,2.101 -1.7,3.805 -3.801,3.805 -2.102,0 -3.801,-1.704 -3.801,-3.805 0,-2.098 1.699,-3.801 3.801,-3.801 2.097,0 3.801,1.703 3.801,3.801 h -0.5"
         style="fill:#231f20;fill-opacity:1;fill-rule:nonzero;stroke:none"
         id="path1133" /><path
         d="m 130.41,286.965 c 0,-1.82 -1.476,-3.301 -3.297,-3.301 -1.824,0 -3.304,1.481 -3.304,3.301 0,1.824 1.48,3.305 3.304,3.305 1.821,0 3.297,-1.481 3.297,-3.305"
         style="fill:#ffffff;fill-opacity:1;fill-rule:nonzero;stroke:none"
         id="path1135" /><path
         d="m 130.41,286.965 h -0.5 c 0,-1.543 -1.254,-2.793 -2.797,-2.801 -1.551,0.008 -2.801,1.258 -2.804,2.801 0.003,1.551 1.253,2.801 2.804,2.805 1.543,-0.004 2.797,-1.254 2.797,-2.805 h 1 c 0,2.101 -1.699,3.805 -3.797,3.805 -2.101,0 -3.804,-1.704 -3.804,-3.805 0,-2.098 1.703,-3.801 3.804,-3.801 2.098,0 3.797,1.703 3.797,3.801 h -0.5"
         style="fill:#231f20;fill-opacity:1;fill-rule:nonzero;stroke:none"
         id="path1137" /><path
         d="m 156.977,286.965 c 0,-1.82 -1.481,-3.301 -3.301,-3.301 -1.824,0 -3.301,1.481 -3.301,3.301 0,1.824 1.477,3.305 3.301,3.305 1.82,0 3.301,-1.481 3.301,-3.305"
         style="fill:#ffffff;fill-opacity:1;fill-rule:nonzero;stroke:none"
         id="path1139" /><path
         d="m 156.977,286.965 h -0.5 c -0.004,-1.543 -1.254,-2.793 -2.801,-2.801 -1.547,0.008 -2.797,1.258 -2.801,2.801 0.004,1.551 1.254,2.801 2.801,2.805 1.547,-0.004 2.797,-1.254 2.801,-2.805 h 1 c 0,2.101 -1.704,3.805 -3.801,3.805 -2.102,0 -3.801,-1.704 -3.801,-3.805 0,-2.098 1.699,-3.801 3.801,-3.801 2.097,0 3.801,1.703 3.801,3.801 h -0.5"
         style="fill:#231f20;fill-opacity:1;fill-rule:nonzero;stroke:none"
         id="path1141" /><path
         d="m 170.41,286.965 c 0,-1.82 -1.476,-3.301 -3.297,-3.301 -1.824,0 -3.304,1.481 -3.304,3.301 0,1.824 1.48,3.305 3.304,3.305 1.821,0 3.297,-1.481 3.297,-3.305"
         style="fill:#ffffff;fill-opacity:1;fill-rule:nonzero;stroke:none"
         id="path1143" /><path
         d="m 170.41,286.965 h -0.5 c 0,-1.543 -1.254,-2.793 -2.797,-2.801 -1.551,0.008 -2.801,1.258 -2.804,2.801 0.003,1.551 1.253,2.801 2.804,2.805 1.543,-0.004 2.797,-1.254 2.797,-2.805 h 1 c 0,2.101 -1.699,3.805 -3.797,3.805 -2.101,0 -3.804,-1.704 -3.804,-3.805 0,-2.098 1.703,-3.801 3.804,-3.801 2.098,0 3.797,1.703 3.797,3.801 h -0.5"
         style="fill:#231f20;fill-opacity:1;fill-rule:nonzero;stroke:none"
         id="path1145" /><path
         d="m 196.977,286.965 c 0,-1.82 -1.481,-3.301 -3.301,-3.301 -1.824,0 -3.301,1.481 -3.301,3.301 0,1.824 1.477,3.305 3.301,3.305 1.82,0 3.301,-1.481 3.301,-3.305"
         style="fill:#ffffff;fill-opacity:1;fill-rule:nonzero;stroke:none"
         id="path1147" /><path
         d="m 196.977,286.965 h -0.5 c -0.004,-1.543 -1.254,-2.793 -2.801,-2.801 -1.547,0.008 -2.797,1.258 -2.801,2.801 0.004,1.551 1.254,2.801 2.801,2.805 1.547,-0.004 2.797,-1.254 2.801,-2.805 h 1 c 0,2.101 -1.704,3.805 -3.801,3.805 -2.102,0 -3.801,-1.704 -3.801,-3.805 0,-2.098 1.699,-3.801 3.801,-3.801 2.097,0 3.801,1.703 3.801,3.801 h -0.5"
         style="fill:#231f20;fill-opacity:1;fill-rule:nonzero;stroke:none"
         id="path1149" /><path
         d="m 210.41,286.965 c 0,-1.82 -1.476,-3.301 -3.297,-3.301 -1.824,0 -3.304,1.481 -3.304,3.301 0,1.824 1.48,3.305 3.304,3.305 1.821,0 3.297,-1.481 3.297,-3.305"
         style="fill:#ffffff;fill-opacity:1;fill-rule:nonzero;stroke:none"
         id="path1151" /><path
         d="m 210.41,286.965 h -0.5 c 0,-1.543 -1.254,-2.793 -2.797,-2.801 -1.551,0.008 -2.801,1.258 -2.804,2.801 0.003,1.551 1.253,2.801 2.804,2.805 1.543,-0.004 2.797,-1.254 2.797,-2.805 h 1 c 0,2.101 -1.699,3.805 -3.797,3.805 -2.101,0 -3.804,-1.704 -3.804,-3.805 0,-2.098 1.703,-3.801 3.804,-3.801 2.098,0 3.797,1.703 3.797,3.801 h -0.5"
         style="fill:#231f20;fill-opacity:1;fill-rule:nonzero;stroke:none"
         id="path1153" /><path
         d="m 236.977,286.965 c 0,-1.82 -1.481,-3.301 -3.301,-3.301 -1.824,0 -3.301,1.481 -3.301,3.301 0,1.824 1.477,3.305 3.301,3.305 1.82,0 3.301,-1.481 3.301,-3.305"
         style="fill:#ffffff;fill-opacity:1;fill-rule:nonzero;stroke:none"
         id="path1155" /><path
         d="m 236.977,286.965 h -0.5 c -0.004,-1.543 -1.254,-2.793 -2.801,-2.801 -1.547,0.008 -2.797,1.258 -2.801,2.801 0.004,1.551 1.254,2.801 2.801,2.805 1.547,-0.004 2.797,-1.254 2.801,-2.805 h 1 c 0,2.101 -1.704,3.805 -3.801,3.805 -2.102,0 -3.801,-1.704 -3.801,-3.805 0,-2.098 1.699,-3.801 3.801,-3.801 2.097,0 3.801,1.703 3.801,3.801 h -0.5"
         style="fill:#231f20;fill-opacity:1;fill-rule:nonzero;stroke:none"
         id="path1157" /><path
         d="m 250.41,286.965 c 0,-1.82 -1.476,-3.301 -3.297,-3.301 -1.824,0 -3.304,1.481 -3.304,3.301 0,1.824 1.48,3.305 3.304,3.305 1.821,0 3.297,-1.481 3.297,-3.305"
         style="fill:#ffffff;fill-opacity:1;fill-rule:nonzero;stroke:none"
         id="path1159" /><path
         d="m 250.41,286.965 h -0.5 c 0,-1.543 -1.254,-2.793 -2.797,-2.801 -1.551,0.008 -2.801,1.258 -2.804,2.801 0.003,1.551 1.253,2.801 2.804,2.805 1.543,-0.004 2.797,-1.254 2.797,-2.805 h 1 c 0,2.101 -1.699,3.805 -3.797,3.805 -2.101,0 -3.804,-1.704 -3.804,-3.805 0,-2.098 1.703,-3.801 3.804,-3.801 2.098,0 3.797,1.703 3.797,3.801 h -0.5"
         style="fill:#231f20;fill-opacity:1;fill-rule:nonzero;stroke:none"
         id="path1161" /><path
         d="m 234.367,274.125 c -0.488,0.238 -1.246,0.391 -1.988,0.391 -2.297,0 -3.629,-1.485 -3.629,-3.797 0,-2.481 1.473,-3.895 3.688,-3.895 0.781,0 1.441,0.168 1.902,0.395 l 0.293,-0.996 c -0.321,-0.168 -1.063,-0.418 -2.238,-0.418 -2.93,0 -4.934,2 -4.934,4.957 0,3.097 2.004,4.789 4.664,4.789 1.152,0 2.047,-0.239 2.496,-0.461 z m 1.692,1.273 h 1.218 v -3.613 c 0,-0.211 0.028,-0.406 0.059,-0.574 0.168,-0.926 0.781,-1.582 1.648,-1.582 l 0.422,0.043 v -1.164 l -0.351,-0.043 c -0.825,0 -1.567,0.574 -1.875,1.484 h -0.055 l -0.043,-1.328 h -1.078 c 0.039,0.629 0.055,1.317 0.055,2.113 z m 4.48,0.563 3.922,-10.156 h -0.953 l -3.906,10.156 z m 9.816,-3.531 1.008,2.968 h 1.301 l -3.219,-9.441 h -1.472 l -3.207,9.441 h 1.261 l 0.981,-2.968 z m -3.093,-0.953 0.922,-2.731 c 0.183,-0.574 0.336,-1.148 0.476,-1.711 h 0.028 c 0.14,0.547 0.281,1.106 0.492,1.727 l 0.925,2.715 z m 12.25,-2.856 h -1.231 v 4.16 c 0,0.223 -0.043,0.446 -0.113,0.629 -0.223,0.547 -0.801,1.121 -1.625,1.121 -1.121,0 -1.512,-0.871 -1.512,-2.156 v -3.754 h -1.234 v 3.965 c 0,2.379 1.273,2.965 2.34,2.965 1.203,0 1.918,-0.711 2.242,-1.258 h 0.027 l 0.071,1.105 h 1.089 c -0.039,-0.531 -0.054,-1.148 -0.054,-1.847 v -4.93"
         style="fill:#000000;fill-opacity:1;fill-rule:nonzero;stroke:none"
         id="path1163" /><path
         d="m 242.242,184.629 h 1.5 v 75.027 h -1.5 z"
         style="fill:#231f20;fill-opacity:1;fill-rule:nonzero;stroke:none"
         id="path1165" /><path
         d="m 292.727,184.156 h 1.5 v 162.918 h -1.5 z"
         style="fill:#231f20;fill-opacity:1;fill-rule:nonzero;stroke:none"
         id="path1167" /><path
         d="m 157.809,184.246 h 135.668 v 1.5 H 157.809 Z"
         style="fill:#231f20;fill-opacity:1;fill-rule:nonzero;stroke:none"
         id="path1169" /><path
         d="m 274.195,306.398 h 1.5 v 22.801 h -1.5 z"
         style="fill:#231f20;fill-opacity:1;fill-rule:nonzero;stroke:none"
         id="path1171" /><path
         d="m 280.207,311.133 h 1.5 v 12.215 h -1.5 z"
         style="fill:#231f20;fill-opacity:1;fill-rule:nonzero;stroke:none"
         id="path1173" /><path
         d="m 281.402,317.051 h 11.738 v 1.5 h -11.738 z"
         style="fill:#231f20;fill-opacity:1;fill-rule:nonzero;stroke:none"
         id="path1175" /><path
         d="m 293.477,357.488 -0.653,0.375 -6.66,-11.539 h 14.621 l -7.308,12.664 -0.653,-1.125 0.653,-0.375 -0.653,-0.375 5.364,-9.289 h -9.426 l 5.363,9.293 -0.648,0.371 -0.653,-0.375 0.653,0.375"
         style="fill:#231f20;fill-opacity:1;fill-rule:nonzero;stroke:none"
         id="path1177" /><path
         d="m 265.18,317.051 h 10.547 v 1.5 H 265.18 Z"
         style="fill:#231f20;fill-opacity:1;fill-rule:nonzero;stroke:none"
         id="path1179" /><path
         d="m 182.066,321.531 c 0.504,0.336 1.496,0.617 2.411,0.617 2.226,0 3.304,-1.273 3.304,-2.734 0,-1.383 -0.812,-2.152 -2.41,-2.769 -1.305,-0.504 -1.879,-0.942 -1.879,-1.825 0,-0.64 0.492,-1.414 1.781,-1.414 0.856,0 1.485,0.282 1.793,0.449 l 0.336,-0.992 c -0.422,-0.238 -1.121,-0.465 -2.086,-0.465 -1.836,0 -3.054,1.094 -3.054,2.563 0,1.332 0.953,2.133 2.496,2.676 1.273,0.492 1.777,0.996 1.777,1.879 0,0.953 -0.73,1.609 -1.976,1.609 -0.84,0 -1.637,-0.277 -2.184,-0.613 z m 7.336,0.461 h 1.235 v -6.777 h -1.235 z m 0.618,-9.453 c -0.45,0 -0.774,0.336 -0.774,0.77 0,0.421 0.309,0.757 0.742,0.757 0.492,0 0.801,-0.336 0.785,-0.757 0,-0.434 -0.293,-0.77 -0.753,-0.77"
         style="fill:#000000;fill-opacity:1;fill-rule:nonzero;stroke:none"
         id="path1181" /><path
         d="m 176.398,305.367 c 0.504,0.336 1.497,0.613 2.411,0.613 2.226,0 3.304,-1.273 3.304,-2.73 0,-1.387 -0.812,-2.156 -2.41,-2.773 -1.305,-0.504 -1.879,-0.938 -1.879,-1.821 0,-0.644 0.492,-1.414 1.781,-1.414 0.856,0 1.485,0.281 1.793,0.449 l 0.336,-0.996 c -0.422,-0.238 -1.121,-0.461 -2.086,-0.461 -1.836,0 -3.054,1.09 -3.054,2.563 0,1.332 0.953,2.129 2.496,2.676 1.273,0.488 1.777,0.992 1.777,1.879 0,0.949 -0.73,1.609 -1.976,1.609 -0.84,0 -1.637,-0.281 -2.184,-0.617 z m 7.336,0.461 h 1.231 v -6.781 h -1.231 z m 0.618,-9.453 c -0.45,0 -0.774,0.336 -0.774,0.77 0,0.417 0.309,0.753 0.742,0.753 0.492,0 0.801,-0.336 0.785,-0.753 0,-0.434 -0.293,-0.77 -0.753,-0.77 z m 6.523,-0.141 c -2.52,0 -4.383,1.961 -4.383,4.957 0,2.86 1.75,4.789 4.242,4.789 2.411,0 4.387,-1.718 4.387,-4.968 0,-2.805 -1.668,-4.778 -4.246,-4.778 z m -0.055,0.993 c 2.032,0 3.012,1.961 3.012,3.839 0,2.141 -1.094,3.922 -3.027,3.922 -1.918,0 -3.012,-1.808 -3.012,-3.824 0,-2.074 1.008,-3.937 3.027,-3.937"
         style="fill:#000000;fill-opacity:1;fill-rule:nonzero;stroke:none"
         id="path1183" /><path
         d="m 201.176,305.828 v -0.84 h -2.184 c -0.301,0 -0.683,0.012 -0.972,0.047 V 305 l 0.613,-0.445 c 1.258,-0.883 2.121,-1.711 2.121,-2.828 0,-1.188 -0.863,-1.872 -2.086,-1.872 -0.961,0 -1.754,0.422 -2.172,0.735 l 0.277,0.68 c 0.418,-0.29 1.008,-0.575 1.629,-0.575 0.746,0 1.297,0.395 1.297,1.176 0,0.973 -0.887,1.785 -2.699,2.973 l -0.574,0.41 v 0.574 h 4.75"
         style="fill:#000000;fill-opacity:1;fill-rule:nonzero;stroke:none"
         id="path1185" /></g></g></svg>
