<?xml version="1.0" encoding="UTF-8"?>
<!DOCTYPE svg PUBLIC "-//W3C//DTD SVG 1.1//EN" "http://www.w3.org/Graphics/SVG/1.1/DTD/svg11.dtd">
<svg width="160mm" height="90mm" viewBox="0 0 16000 9000" version="1.1" xmlns="http://www.w3.org/2000/svg" stroke-width="28.222" stroke-linejoin="round" xml:space="preserve">
 <path fill="rgb(255,255,255)" stroke="none" d="M 8000,8999 L 0,8999 0,0 15999,0 15999,8999 8000,8999 Z"/>
 <path fill="none" stroke="rgb(179,179,179)" stroke-linejoin="round" d="M 8270,8172 L 1709,8172 1709,379 14831,379 14831,8172 8270,8172 Z"/>
 <path fill="none" stroke="rgb(179,179,179)" stroke-linejoin="round" d="M 14830,8171 L 1708,8171"/>
 <path fill="none" stroke="rgb(179,179,179)" stroke-linejoin="round" d="M 14830,6872 L 1708,6872"/>
 <path fill="none" stroke="rgb(179,179,179)" stroke-linejoin="round" d="M 14830,5573 L 1708,5573"/>
 <path fill="none" stroke="rgb(179,179,179)" stroke-linejoin="round" d="M 14830,4275 L 1708,4275"/>
 <path fill="none" stroke="rgb(179,179,179)" stroke-linejoin="round" d="M 14830,2976 L 1708,2976"/>
 <path fill="none" stroke="rgb(179,179,179)" stroke-linejoin="round" d="M 14830,1677 L 1708,1677"/>
 <path fill="none" stroke="rgb(179,179,179)" stroke-linejoin="round" d="M 14830,378 L 1708,378"/>
 <path fill="none" stroke="rgb(179,179,179)" stroke-linejoin="round" d="M 1708,8321 L 1708,8171"/>
 <path fill="none" stroke="rgb(179,179,179)" stroke-linejoin="round" d="M 4333,8321 L 4333,8171"/>
 <path fill="none" stroke="rgb(179,179,179)" stroke-linejoin="round" d="M 6958,8321 L 6958,8171"/>
 <path fill="none" stroke="rgb(179,179,179)" stroke-linejoin="round" d="M 9581,8321 L 9581,8171"/>
 <path fill="none" stroke="rgb(179,179,179)" stroke-linejoin="round" d="M 12206,8321 L 12206,8171"/>
 <path fill="none" stroke="rgb(179,179,179)" stroke-linejoin="round" d="M 14830,8321 L 14830,8171"/>
 <path fill="none" stroke="rgb(179,179,179)" stroke-linejoin="round" d="M 1708,8171 L 14830,8171"/>
 <path fill="none" stroke="rgb(179,179,179)" stroke-linejoin="round" d="M 1558,8171 L 1708,8171"/>
 <path fill="none" stroke="rgb(179,179,179)" stroke-linejoin="round" d="M 1558,6872 L 1708,6872"/>
 <path fill="none" stroke="rgb(179,179,179)" stroke-linejoin="round" d="M 1558,5573 L 1708,5573"/>
 <path fill="none" stroke="rgb(179,179,179)" stroke-linejoin="round" d="M 1558,4275 L 1708,4275"/>
 <path fill="none" stroke="rgb(179,179,179)" stroke-linejoin="round" d="M 1558,2976 L 1708,2976"/>
 <path fill="none" stroke="rgb(179,179,179)" stroke-linejoin="round" d="M 1558,1677 L 1708,1677"/>
 <path fill="none" stroke="rgb(179,179,179)" stroke-linejoin="round" d="M 1558,378 L 1708,378"/>
 <path fill="none" stroke="rgb(179,179,179)" stroke-linejoin="round" d="M 1708,8171 L 1708,378"/>
 <path fill="rgb(0,69,134)" stroke="none" d="M 4339,8045 L 4339,8295 4589,8295 4589,8045 4339,8045 Z"/>
 <path fill="none" stroke="rgb(0,69,134)" stroke-linejoin="round" d="M 4339,8045 L 4339,8295 4589,8295 4589,8045 4339,8045 Z"/>
 <path fill="rgb(0,69,134)" stroke="none" d="M 4471,8045 L 4471,8295 4721,8295 4721,8045 4471,8045 Z"/>
 <path fill="none" stroke="rgb(0,69,134)" stroke-linejoin="round" d="M 4471,8045 L 4471,8295 4721,8295 4721,8045 4471,8045 Z"/>
 <path fill="rgb(0,69,134)" stroke="none" d="M 4602,8045 L 4602,8295 4852,8295 4852,8045 4602,8045 Z"/>
 <path fill="none" stroke="rgb(0,69,134)" stroke-linejoin="round" d="M 4602,8045 L 4602,8295 4852,8295 4852,8045 4602,8045 Z"/>
 <path fill="rgb(0,69,134)" stroke="none" d="M 4733,8045 L 4733,8295 4983,8295 4983,8045 4733,8045 Z"/>
 <path fill="none" stroke="rgb(0,69,134)" stroke-linejoin="round" d="M 4733,8045 L 4733,8295 4983,8295 4983,8045 4733,8045 Z"/>
 <path fill="rgb(0,69,134)" stroke="none" d="M 4864,8045 L 4864,8295 5114,8295 5114,8045 4864,8045 Z"/>
 <path fill="none" stroke="rgb(0,69,134)" stroke-linejoin="round" d="M 4864,8045 L 4864,8295 5114,8295 5114,8045 4864,8045 Z"/>
 <path fill="rgb(0,69,134)" stroke="none" d="M 4995,8045 L 4995,8295 5245,8295 5245,8045 4995,8045 Z"/>
 <path fill="none" stroke="rgb(0,69,134)" stroke-linejoin="round" d="M 4995,8045 L 4995,8295 5245,8295 5245,8045 4995,8045 Z"/>
 <path fill="rgb(0,69,134)" stroke="none" d="M 5127,8045 L 5127,8295 5377,8295 5377,8045 5127,8045 Z"/>
 <path fill="none" stroke="rgb(0,69,134)" stroke-linejoin="round" d="M 5127,8045 L 5127,8295 5377,8295 5377,8045 5127,8045 Z"/>
 <path fill="rgb(0,69,134)" stroke="none" d="M 5258,8045 L 5258,8295 5508,8295 5508,8045 5258,8045 Z"/>
 <path fill="none" stroke="rgb(0,69,134)" stroke-linejoin="round" d="M 5258,8045 L 5258,8295 5508,8295 5508,8045 5258,8045 Z"/>
 <path fill="rgb(0,69,134)" stroke="none" d="M 5389,8045 L 5389,8295 5639,8295 5639,8045 5389,8045 Z"/>
 <path fill="none" stroke="rgb(0,69,134)" stroke-linejoin="round" d="M 5389,8045 L 5389,8295 5639,8295 5639,8045 5389,8045 Z"/>
 <path fill="rgb(0,69,134)" stroke="none" d="M 5520,8045 L 5520,8295 5770,8295 5770,8045 5520,8045 Z"/>
 <path fill="none" stroke="rgb(0,69,134)" stroke-linejoin="round" d="M 5520,8045 L 5520,8295 5770,8295 5770,8045 5520,8045 Z"/>
 <path fill="rgb(0,69,134)" stroke="none" d="M 5652,8044 L 5652,8294 5902,8294 5902,8044 5652,8044 Z"/>
 <path fill="none" stroke="rgb(0,69,134)" stroke-linejoin="round" d="M 5652,8044 L 5652,8294 5902,8294 5902,8044 5652,8044 Z"/>
 <path fill="rgb(0,69,134)" stroke="none" d="M 5783,8044 L 5783,8294 6033,8294 6033,8044 5783,8044 Z"/>
 <path fill="none" stroke="rgb(0,69,134)" stroke-linejoin="round" d="M 5783,8044 L 5783,8294 6033,8294 6033,8044 5783,8044 Z"/>
 <path fill="rgb(0,69,134)" stroke="none" d="M 5914,8044 L 5914,8294 6164,8294 6164,8044 5914,8044 Z"/>
 <path fill="none" stroke="rgb(0,69,134)" stroke-linejoin="round" d="M 5914,8044 L 5914,8294 6164,8294 6164,8044 5914,8044 Z"/>
 <path fill="rgb(0,69,134)" stroke="none" d="M 6045,8044 L 6045,8294 6295,8294 6295,8044 6045,8044 Z"/>
 <path fill="none" stroke="rgb(0,69,134)" stroke-linejoin="round" d="M 6045,8044 L 6045,8294 6295,8294 6295,8044 6045,8044 Z"/>
 <path fill="rgb(0,69,134)" stroke="none" d="M 6177,8044 L 6177,8294 6427,8294 6427,8044 6177,8044 Z"/>
 <path fill="none" stroke="rgb(0,69,134)" stroke-linejoin="round" d="M 6177,8044 L 6177,8294 6427,8294 6427,8044 6177,8044 Z"/>
 <path fill="rgb(0,69,134)" stroke="none" d="M 6308,8044 L 6308,8294 6558,8294 6558,8044 6308,8044 Z"/>
 <path fill="none" stroke="rgb(0,69,134)" stroke-linejoin="round" d="M 6308,8044 L 6308,8294 6558,8294 6558,8044 6308,8044 Z"/>
 <path fill="rgb(0,69,134)" stroke="none" d="M 6439,8044 L 6439,8294 6689,8294 6689,8044 6439,8044 Z"/>
 <path fill="none" stroke="rgb(0,69,134)" stroke-linejoin="round" d="M 6439,8044 L 6439,8294 6689,8294 6689,8044 6439,8044 Z"/>
 <path fill="rgb(0,69,134)" stroke="none" d="M 6570,8044 L 6570,8294 6820,8294 6820,8044 6570,8044 Z"/>
 <path fill="none" stroke="rgb(0,69,134)" stroke-linejoin="round" d="M 6570,8044 L 6570,8294 6820,8294 6820,8044 6570,8044 Z"/>
 <path fill="rgb(0,69,134)" stroke="none" d="M 6701,8044 L 6701,8294 6951,8294 6951,8044 6701,8044 Z"/>
 <path fill="none" stroke="rgb(0,69,134)" stroke-linejoin="round" d="M 6701,8044 L 6701,8294 6951,8294 6951,8044 6701,8044 Z"/>
 <path fill="rgb(0,69,134)" stroke="none" d="M 6833,8044 L 6833,8294 7083,8294 7083,8044 6833,8044 Z"/>
 <path fill="none" stroke="rgb(0,69,134)" stroke-linejoin="round" d="M 6833,8044 L 6833,8294 7083,8294 7083,8044 6833,8044 Z"/>
 <path fill="rgb(0,69,134)" stroke="none" d="M 6964,8044 L 6964,8294 7214,8294 7214,8044 6964,8044 Z"/>
 <path fill="none" stroke="rgb(0,69,134)" stroke-linejoin="round" d="M 6964,8044 L 6964,8294 7214,8294 7214,8044 6964,8044 Z"/>
 <path fill="rgb(0,69,134)" stroke="none" d="M 7095,8044 L 7095,8294 7345,8294 7345,8044 7095,8044 Z"/>
 <path fill="none" stroke="rgb(0,69,134)" stroke-linejoin="round" d="M 7095,8044 L 7095,8294 7345,8294 7345,8044 7095,8044 Z"/>
 <path fill="rgb(0,69,134)" stroke="none" d="M 7226,8044 L 7226,8294 7476,8294 7476,8044 7226,8044 Z"/>
 <path fill="none" stroke="rgb(0,69,134)" stroke-linejoin="round" d="M 7226,8044 L 7226,8294 7476,8294 7476,8044 7226,8044 Z"/>
 <path fill="rgb(0,69,134)" stroke="none" d="M 7358,8044 L 7358,8294 7608,8294 7608,8044 7358,8044 Z"/>
 <path fill="none" stroke="rgb(0,69,134)" stroke-linejoin="round" d="M 7358,8044 L 7358,8294 7608,8294 7608,8044 7358,8044 Z"/>
 <path fill="rgb(0,69,134)" stroke="none" d="M 7489,8044 L 7489,8294 7739,8294 7739,8044 7489,8044 Z"/>
 <path fill="none" stroke="rgb(0,69,134)" stroke-linejoin="round" d="M 7489,8044 L 7489,8294 7739,8294 7739,8044 7489,8044 Z"/>
 <path fill="rgb(0,69,134)" stroke="none" d="M 7620,8044 L 7620,8294 7870,8294 7870,8044 7620,8044 Z"/>
 <path fill="none" stroke="rgb(0,69,134)" stroke-linejoin="round" d="M 7620,8044 L 7620,8294 7870,8294 7870,8044 7620,8044 Z"/>
 <path fill="rgb(0,69,134)" stroke="none" d="M 7751,8044 L 7751,8294 8000,8294 8000,8044 7751,8044 Z"/>
 <path fill="none" stroke="rgb(0,69,134)" stroke-linejoin="round" d="M 7751,8044 L 7751,8294 8000,8294 8000,8044 7751,8044 Z"/>
 <path fill="rgb(0,69,134)" stroke="none" d="M 7883,8044 L 7883,8294 8132,8294 8132,8044 7883,8044 Z"/>
 <path fill="none" stroke="rgb(0,69,134)" stroke-linejoin="round" d="M 7883,8044 L 7883,8294 8132,8294 8132,8044 7883,8044 Z"/>
 <path fill="rgb(0,69,134)" stroke="none" d="M 8013,8043 L 8013,8293 8263,8293 8263,8043 8013,8043 Z"/>
 <path fill="none" stroke="rgb(0,69,134)" stroke-linejoin="round" d="M 8013,8043 L 8013,8293 8263,8293 8263,8043 8013,8043 Z"/>
 <path fill="rgb(0,69,134)" stroke="none" d="M 8144,8043 L 8144,8293 8394,8293 8394,8043 8144,8043 Z"/>
 <path fill="none" stroke="rgb(0,69,134)" stroke-linejoin="round" d="M 8144,8043 L 8144,8293 8394,8293 8394,8043 8144,8043 Z"/>
 <path fill="rgb(0,69,134)" stroke="none" d="M 8275,8041 L 8275,8291 8525,8291 8525,8041 8275,8041 Z"/>
 <path fill="none" stroke="rgb(0,69,134)" stroke-linejoin="round" d="M 8275,8041 L 8275,8291 8525,8291 8525,8041 8275,8041 Z"/>
 <path fill="rgb(0,69,134)" stroke="none" d="M 8406,8040 L 8406,8290 8656,8290 8656,8040 8406,8040 Z"/>
 <path fill="none" stroke="rgb(0,69,134)" stroke-linejoin="round" d="M 8406,8040 L 8406,8290 8656,8290 8656,8040 8406,8040 Z"/>
 <path fill="rgb(0,69,134)" stroke="none" d="M 8538,8039 L 8538,8289 8788,8289 8788,8039 8538,8039 Z"/>
 <path fill="none" stroke="rgb(0,69,134)" stroke-linejoin="round" d="M 8538,8039 L 8538,8289 8788,8289 8788,8039 8538,8039 Z"/>
 <path fill="rgb(0,69,134)" stroke="none" d="M 8669,8034 L 8669,8284 8919,8284 8919,8034 8669,8034 Z"/>
 <path fill="none" stroke="rgb(0,69,134)" stroke-linejoin="round" d="M 8669,8034 L 8669,8284 8919,8284 8919,8034 8669,8034 Z"/>
 <path fill="rgb(0,69,134)" stroke="none" d="M 8800,8031 L 8800,8281 9050,8281 9050,8031 8800,8031 Z"/>
 <path fill="none" stroke="rgb(0,69,134)" stroke-linejoin="round" d="M 8800,8031 L 8800,8281 9050,8281 9050,8031 8800,8031 Z"/>
 <path fill="rgb(0,69,134)" stroke="none" d="M 8931,8025 L 8931,8275 9181,8275 9181,8025 8931,8025 Z"/>
 <path fill="none" stroke="rgb(0,69,134)" stroke-linejoin="round" d="M 8931,8025 L 8931,8275 9181,8275 9181,8025 8931,8025 Z"/>
 <path fill="rgb(0,69,134)" stroke="none" d="M 9063,8019 L 9063,8269 9313,8269 9313,8019 9063,8019 Z"/>
 <path fill="none" stroke="rgb(0,69,134)" stroke-linejoin="round" d="M 9063,8019 L 9063,8269 9313,8269 9313,8019 9063,8019 Z"/>
 <path fill="rgb(0,69,134)" stroke="none" d="M 9194,8010 L 9194,8260 9444,8260 9444,8010 9194,8010 Z"/>
 <path fill="none" stroke="rgb(0,69,134)" stroke-linejoin="round" d="M 9194,8010 L 9194,8260 9444,8260 9444,8010 9194,8010 Z"/>
 <path fill="rgb(0,69,134)" stroke="none" d="M 9325,8004 L 9325,8254 9575,8254 9575,8004 9325,8004 Z"/>
 <path fill="none" stroke="rgb(0,69,134)" stroke-linejoin="round" d="M 9325,8004 L 9325,8254 9575,8254 9575,8004 9325,8004 Z"/>
 <path fill="rgb(0,69,134)" stroke="none" d="M 9456,7997 L 9456,8247 9706,8247 9706,7997 9456,7997 Z"/>
 <path fill="none" stroke="rgb(0,69,134)" stroke-linejoin="round" d="M 9456,7997 L 9456,8247 9706,8247 9706,7997 9456,7997 Z"/>
 <path fill="rgb(0,69,134)" stroke="none" d="M 9588,7986 L 9588,8236 9838,8236 9838,7986 9588,7986 Z"/>
 <path fill="none" stroke="rgb(0,69,134)" stroke-linejoin="round" d="M 9588,7986 L 9588,8236 9838,8236 9838,7986 9588,7986 Z"/>
 <path fill="rgb(0,69,134)" stroke="none" d="M 9719,7969 L 9719,8219 9969,8219 9969,7969 9719,7969 Z"/>
 <path fill="none" stroke="rgb(0,69,134)" stroke-linejoin="round" d="M 9719,7969 L 9719,8219 9969,8219 9969,7969 9719,7969 Z"/>
 <path fill="rgb(0,69,134)" stroke="none" d="M 9850,7942 L 9850,8192 10100,8192 10100,7942 9850,7942 Z"/>
 <path fill="none" stroke="rgb(0,69,134)" stroke-linejoin="round" d="M 9850,7942 L 9850,8192 10100,8192 10100,7942 9850,7942 Z"/>
 <path fill="rgb(0,69,134)" stroke="none" d="M 9981,7908 L 9981,8158 10231,8158 10231,7908 9981,7908 Z"/>
 <path fill="none" stroke="rgb(0,69,134)" stroke-linejoin="round" d="M 9981,7908 L 9981,8158 10231,8158 10231,7908 9981,7908 Z"/>
 <path fill="rgb(0,69,134)" stroke="none" d="M 10112,7865 L 10112,8115 10362,8115 10362,7865 10112,7865 Z"/>
 <path fill="none" stroke="rgb(0,69,134)" stroke-linejoin="round" d="M 10112,7865 L 10112,8115 10362,8115 10362,7865 10112,7865 Z"/>
 <path fill="rgb(0,69,134)" stroke="none" d="M 10244,7845 L 10244,8095 10494,8095 10494,7845 10244,7845 Z"/>
 <path fill="none" stroke="rgb(0,69,134)" stroke-linejoin="round" d="M 10244,7845 L 10244,8095 10494,8095 10494,7845 10244,7845 Z"/>
 <path fill="rgb(0,69,134)" stroke="none" d="M 10375,7792 L 10375,8042 10625,8042 10625,7792 10375,7792 Z"/>
 <path fill="none" stroke="rgb(0,69,134)" stroke-linejoin="round" d="M 10375,7792 L 10375,8042 10625,8042 10625,7792 10375,7792 Z"/>
 <path fill="rgb(0,69,134)" stroke="none" d="M 10506,7704 L 10506,7954 10756,7954 10756,7704 10506,7704 Z"/>
 <path fill="none" stroke="rgb(0,69,134)" stroke-linejoin="round" d="M 10506,7704 L 10506,7954 10756,7954 10756,7704 10506,7704 Z"/>
 <path fill="rgb(0,69,134)" stroke="none" d="M 10637,7621 L 10637,7871 10887,7871 10887,7621 10637,7621 Z"/>
 <path fill="none" stroke="rgb(0,69,134)" stroke-linejoin="round" d="M 10637,7621 L 10637,7871 10887,7871 10887,7621 10637,7621 Z"/>
 <path fill="rgb(0,69,134)" stroke="none" d="M 10769,7528 L 10769,7778 11019,7778 11019,7528 10769,7528 Z"/>
 <path fill="none" stroke="rgb(0,69,134)" stroke-linejoin="round" d="M 10769,7528 L 10769,7778 11019,7778 11019,7528 10769,7528 Z"/>
 <path fill="rgb(0,69,134)" stroke="none" d="M 10900,7394 L 10900,7644 11150,7644 11150,7394 10900,7394 Z"/>
 <path fill="none" stroke="rgb(0,69,134)" stroke-linejoin="round" d="M 10900,7394 L 10900,7644 11150,7644 11150,7394 10900,7394 Z"/>
 <path fill="rgb(0,69,134)" stroke="none" d="M 11031,7307 L 11031,7557 11281,7557 11281,7307 11031,7307 Z"/>
 <path fill="none" stroke="rgb(0,69,134)" stroke-linejoin="round" d="M 11031,7307 L 11031,7557 11281,7557 11281,7307 11031,7307 Z"/>
 <path fill="rgb(0,69,134)" stroke="none" d="M 11162,7182 L 11162,7432 11412,7432 11412,7182 11162,7182 Z"/>
 <path fill="none" stroke="rgb(0,69,134)" stroke-linejoin="round" d="M 11162,7182 L 11162,7432 11412,7432 11412,7182 11162,7182 Z"/>
 <path fill="rgb(0,69,134)" stroke="none" d="M 11294,6996 L 11294,7246 11544,7246 11544,6996 11294,6996 Z"/>
 <path fill="none" stroke="rgb(0,69,134)" stroke-linejoin="round" d="M 11294,6996 L 11294,7246 11544,7246 11544,6996 11294,6996 Z"/>
 <path fill="rgb(0,69,134)" stroke="none" d="M 11425,6808 L 11425,7058 11675,7058 11675,6808 11425,6808 Z"/>
 <path fill="none" stroke="rgb(0,69,134)" stroke-linejoin="round" d="M 11425,6808 L 11425,7058 11675,7058 11675,6808 11425,6808 Z"/>
 <path fill="rgb(0,69,134)" stroke="none" d="M 11556,6531 L 11556,6781 11806,6781 11806,6531 11556,6531 Z"/>
 <path fill="none" stroke="rgb(0,69,134)" stroke-linejoin="round" d="M 11556,6531 L 11556,6781 11806,6781 11806,6531 11556,6531 Z"/>
 <path fill="rgb(0,69,134)" stroke="none" d="M 11687,6156 L 11687,6406 11937,6406 11937,6156 11687,6156 Z"/>
 <path fill="none" stroke="rgb(0,69,134)" stroke-linejoin="round" d="M 11687,6156 L 11687,6406 11937,6406 11937,6156 11687,6156 Z"/>
 <path fill="rgb(0,69,134)" stroke="none" d="M 11818,5826 L 11818,6076 12068,6076 12068,5826 11818,5826 Z"/>
 <path fill="none" stroke="rgb(0,69,134)" stroke-linejoin="round" d="M 11818,5826 L 11818,6076 12068,6076 12068,5826 11818,5826 Z"/>
 <path fill="rgb(0,69,134)" stroke="none" d="M 11950,5510 L 11950,5760 12200,5760 12200,5510 11950,5510 Z"/>
 <path fill="none" stroke="rgb(0,69,134)" stroke-linejoin="round" d="M 11950,5510 L 11950,5760 12200,5760 12200,5510 11950,5510 Z"/>
 <path fill="rgb(0,69,134)" stroke="none" d="M 12081,5169 L 12081,5419 12331,5419 12331,5169 12081,5169 Z"/>
 <path fill="none" stroke="rgb(0,69,134)" stroke-linejoin="round" d="M 12081,5169 L 12081,5419 12331,5419 12331,5169 12081,5169 Z"/>
 <path fill="rgb(0,69,134)" stroke="none" d="M 12212,4779 L 12212,5029 12462,5029 12462,4779 12212,4779 Z"/>
 <path fill="none" stroke="rgb(0,69,134)" stroke-linejoin="round" d="M 12212,4779 L 12212,5029 12462,5029 12462,4779 12212,4779 Z"/>
 <path fill="rgb(0,69,134)" stroke="none" d="M 12343,4218 L 12343,4468 12593,4468 12593,4218 12343,4218 Z"/>
 <path fill="none" stroke="rgb(0,69,134)" stroke-linejoin="round" d="M 12343,4218 L 12343,4468 12593,4468 12593,4218 12343,4218 Z"/>
 <path fill="rgb(0,69,134)" stroke="none" d="M 12475,3667 L 12475,3917 12725,3917 12725,3667 12475,3667 Z"/>
 <path fill="none" stroke="rgb(0,69,134)" stroke-linejoin="round" d="M 12475,3667 L 12475,3917 12725,3917 12725,3667 12475,3667 Z"/>
 <path fill="rgb(0,69,134)" stroke="none" d="M 12606,3088 L 12606,3338 12856,3338 12856,3088 12606,3088 Z"/>
 <path fill="none" stroke="rgb(0,69,134)" stroke-linejoin="round" d="M 12606,3088 L 12606,3338 12856,3338 12856,3088 12606,3088 Z"/>
 <path fill="rgb(0,69,134)" stroke="none" d="M 12737,2603 L 12737,2853 12987,2853 12987,2603 12737,2603 Z"/>
 <path fill="none" stroke="rgb(0,69,134)" stroke-linejoin="round" d="M 12737,2603 L 12737,2853 12987,2853 12987,2603 12737,2603 Z"/>
 <path fill="rgb(0,69,134)" stroke="none" d="M 12868,1835 L 12868,2085 13118,2085 13118,1835 12868,1835 Z"/>
 <path fill="none" stroke="rgb(0,69,134)" stroke-linejoin="round" d="M 12868,1835 L 12868,2085 13118,2085 13118,1835 12868,1835 Z"/>
 <path fill="rgb(0,69,134)" stroke="none" d="M 13000,1343 L 13000,1593 13250,1593 13250,1343 13000,1343 Z"/>
 <path fill="none" stroke="rgb(0,69,134)" stroke-linejoin="round" d="M 13000,1343 L 13000,1593 13250,1593 13250,1343 13000,1343 Z"/>
 <path fill="rgb(0,69,134)" stroke="none" d="M 13131,871 L 13131,1121 13381,1121 13381,871 13131,871 Z"/>
 <path fill="none" stroke="rgb(0,69,134)" stroke-linejoin="round" d="M 13131,871 L 13131,1121 13381,1121 13381,871 13131,871 Z"/>
 <path fill="none" stroke="rgb(0,69,134)" stroke-linejoin="round" d="M 4464,8170 L 4598,8170 4731,8170 4864,8170 4997,8170 5130,8170 5264,8170 5397,8170 5530,8170 5663,8170 5797,8170 5930,8170 6063,8170 6196,8170 6329,8170 6463,8169 6596,8169 6729,8169 6862,8169 6995,8168 7129,8168 7262,8168 7395,8167 7528,8166 7662,8166 7795,8165 7928,8164 8060,8162 8193,8161 8327,8159 8460,8157 8593,8154 8726,8151 8860,8147 8993,8142 9126,8137 9259,8131 9392,8123 9526,8114 9659,8103 9792,8090 9925,8075 10058,8057 10192,8035 10325,8009 10458,7979 10591,7942 10725,7898 10858,7846 10991,7784 11124,7710 11257,7622 11391,7517 11524,7392 11657,7243 11790,7066 11924,6855 12057,6603 12190,6304 12323,5947 12456,5522 12590,5015 12723,4413 12856,3694 12989,2838 13123,1818 13256,603"/>
 <text class="TextShape"><tspan class="TextParagraph" font-family="Liberation Sans, sans-serif" font-size="353px" font-weight="400"><tspan class="TextPosition" x="861" y="8739"><tspan fill="rgb(0,0,0)" stroke="none">10/01/2020</tspan></tspan></tspan></text>
 <text class="TextShape"><tspan class="TextParagraph" font-family="Liberation Sans, sans-serif" font-size="353px" font-weight="400"><tspan class="TextPosition" x="3486" y="8739"><tspan fill="rgb(0,0,0)" stroke="none">30/01/2020</tspan></tspan></tspan></text>
 <text class="TextShape"><tspan class="TextParagraph" font-family="Liberation Sans, sans-serif" font-size="353px" font-weight="400"><tspan class="TextPosition" x="6111" y="8739"><tspan fill="rgb(0,0,0)" stroke="none">19/02/2020</tspan></tspan></tspan></text>
 <text class="TextShape"><tspan class="TextParagraph" font-family="Liberation Sans, sans-serif" font-size="353px" font-weight="400"><tspan class="TextPosition" x="8735" y="8739"><tspan fill="rgb(0,0,0)" stroke="none">10/03/2020</tspan></tspan></tspan></text>
 <text class="TextShape"><tspan class="TextParagraph" font-family="Liberation Sans, sans-serif" font-size="353px" font-weight="400"><tspan class="TextPosition" x="11360" y="8739"><tspan fill="rgb(0,0,0)" stroke="none">30/03/2020</tspan></tspan></tspan></text>
 <text class="TextShape"><tspan class="TextParagraph" font-family="Liberation Sans, sans-serif" font-size="353px" font-weight="400"><tspan class="TextPosition" x="13984" y="8739"><tspan fill="rgb(0,0,0)" stroke="none">19/04/2020</tspan></tspan></tspan></text>
 <text class="TextShape"><tspan class="TextParagraph" font-family="Liberation Sans, sans-serif" font-size="353px" font-weight="400"><tspan class="TextPosition" x="637" y="8292"><tspan fill="rgb(0,0,0)" stroke="none">   </tspan><tspan fill="rgb(0,0,0)" stroke="none">,  0</tspan></tspan></tspan></text>
 <text class="TextShape"><tspan class="TextParagraph" font-family="Liberation Sans, sans-serif" font-size="353px" font-weight="400"><tspan class="TextPosition" x="320" y="6993"><tspan fill="rgb(0,0,0)" stroke="none"> </tspan><tspan fill="rgb(0,0,0)" stroke="none">10,000</tspan></tspan></tspan></text>
 <text class="TextShape"><tspan class="TextParagraph" font-family="Liberation Sans, sans-serif" font-size="353px" font-weight="400"><tspan class="TextPosition" x="320" y="5694"><tspan fill="rgb(0,0,0)" stroke="none"> </tspan><tspan fill="rgb(0,0,0)" stroke="none">20,000</tspan></tspan></tspan></text>
 <text class="TextShape"><tspan class="TextParagraph" font-family="Liberation Sans, sans-serif" font-size="353px" font-weight="400"><tspan class="TextPosition" x="320" y="4395"><tspan fill="rgb(0,0,0)" stroke="none"> </tspan><tspan fill="rgb(0,0,0)" stroke="none">30,000</tspan></tspan></tspan></text>
 <text class="TextShape"><tspan class="TextParagraph" font-family="Liberation Sans, sans-serif" font-size="353px" font-weight="400"><tspan class="TextPosition" x="320" y="3096"><tspan fill="rgb(0,0,0)" stroke="none"> </tspan><tspan fill="rgb(0,0,0)" stroke="none">40,000</tspan></tspan></tspan></text>
 <text class="TextShape"><tspan class="TextParagraph" font-family="Liberation Sans, sans-serif" font-size="353px" font-weight="400"><tspan class="TextPosition" x="320" y="1797"><tspan fill="rgb(0,0,0)" stroke="none"> </tspan><tspan fill="rgb(0,0,0)" stroke="none">50,000</tspan></tspan></tspan></text>
 <text class="TextShape"><tspan class="TextParagraph" font-family="Liberation Sans, sans-serif" font-size="353px" font-weight="400"><tspan class="TextPosition" x="320" y="498"><tspan fill="rgb(0,0,0)" stroke="none"> </tspan><tspan fill="rgb(0,0,0)" stroke="none">60,000</tspan></tspan></tspan></text>
 <text class="TextShape"><tspan class="TextParagraph" font-family="Liberation Sans, sans-serif" font-size="353px" font-weight="400"><tspan class="TextPosition" x="4714" y="1046"><tspan fill="rgb(0,0,0)" stroke="none">f(x) = exp( -7560.73514680085 + 0.172366324627455 x )</tspan></tspan></tspan></text>
</svg>