<?xml version="1.0" encoding="UTF-8"?>
<!DOCTYPE svg PUBLIC "-//W3C//DTD SVG 1.1//EN" "http://www.w3.org/Graphics/SVG/1.1/DTD/svg11.dtd">
<svg width="160mm" height="90mm" viewBox="0 0 16000 9000" version="1.1" xmlns="http://www.w3.org/2000/svg" stroke-width="28.222" stroke-linejoin="round" xml:space="preserve">
 <path fill="rgb(255,255,255)" stroke="none" d="M 8000,8999 L 0,8999 0,0 15999,0 15999,8999 8000,8999 Z"/>
 <path fill="none" stroke="rgb(179,179,179)" stroke-linejoin="round" d="M 8111,8172 L 1550,8172 1550,379 14672,379 14672,8172 8111,8172 Z"/>
 <path fill="none" stroke="rgb(179,179,179)" stroke-linejoin="round" d="M 14671,8171 L 1549,8171"/>
 <path fill="none" stroke="rgb(179,179,179)" stroke-linejoin="round" d="M 14671,6222 L 1549,6222"/>
 <path fill="none" stroke="rgb(179,179,179)" stroke-linejoin="round" d="M 14671,4275 L 1549,4275"/>
 <path fill="none" stroke="rgb(179,179,179)" stroke-linejoin="round" d="M 14671,2326 L 1549,2326"/>
 <path fill="none" stroke="rgb(179,179,179)" stroke-linejoin="round" d="M 14671,378 L 1549,378"/>
 <path fill="none" stroke="rgb(179,179,179)" stroke-linejoin="round" d="M 1549,8321 L 1549,8171"/>
 <path fill="none" stroke="rgb(179,179,179)" stroke-linejoin="round" d="M 4174,8321 L 4174,8171"/>
 <path fill="none" stroke="rgb(179,179,179)" stroke-linejoin="round" d="M 6799,8321 L 6799,8171"/>
 <path fill="none" stroke="rgb(179,179,179)" stroke-linejoin="round" d="M 9422,8321 L 9422,8171"/>
 <path fill="none" stroke="rgb(179,179,179)" stroke-linejoin="round" d="M 12047,8321 L 12047,8171"/>
 <path fill="none" stroke="rgb(179,179,179)" stroke-linejoin="round" d="M 14671,8321 L 14671,8171"/>
 <path fill="none" stroke="rgb(179,179,179)" stroke-linejoin="round" d="M 1549,8171 L 14671,8171"/>
 <path fill="none" stroke="rgb(179,179,179)" stroke-linejoin="round" d="M 1399,8171 L 1549,8171"/>
 <path fill="none" stroke="rgb(179,179,179)" stroke-linejoin="round" d="M 1399,6222 L 1549,6222"/>
 <path fill="none" stroke="rgb(179,179,179)" stroke-linejoin="round" d="M 1399,4275 L 1549,4275"/>
 <path fill="none" stroke="rgb(179,179,179)" stroke-linejoin="round" d="M 1399,2326 L 1549,2326"/>
 <path fill="none" stroke="rgb(179,179,179)" stroke-linejoin="round" d="M 1399,378 L 1549,378"/>
 <path fill="none" stroke="rgb(179,179,179)" stroke-linejoin="round" d="M 1549,8171 L 1549,378"/>
 <path fill="rgb(0,69,134)" stroke="none" d="M 4180,7459 L 4180,7709 4430,7709 4430,7459 4180,7459 Z"/>
 <path fill="none" stroke="rgb(0,69,134)" stroke-linejoin="round" d="M 4180,7459 L 4180,7709 4430,7709 4430,7459 4180,7459 Z"/>
 <path fill="rgb(0,69,134)" stroke="none" d="M 4968,8046 L 4968,8296 5218,8296 5218,8046 4968,8046 Z"/>
 <path fill="none" stroke="rgb(0,69,134)" stroke-linejoin="round" d="M 4968,8046 L 4968,8296 5218,8296 5218,8046 4968,8046 Z"/>
 <path fill="rgb(0,69,134)" stroke="none" d="M 5361,8046 L 5361,8296 5611,8296 5611,8046 5361,8046 Z"/>
 <path fill="none" stroke="rgb(0,69,134)" stroke-linejoin="round" d="M 5361,8046 L 5361,8296 5611,8296 5611,8046 5361,8046 Z"/>
 <path fill="rgb(0,69,134)" stroke="none" d="M 5493,6872 L 5493,7122 5743,7122 5743,6872 5493,6872 Z"/>
 <path fill="none" stroke="rgb(0,69,134)" stroke-linejoin="round" d="M 5493,6872 L 5493,7122 5743,7122 5743,6872 5493,6872 Z"/>
 <path fill="rgb(0,69,134)" stroke="none" d="M 5886,8046 L 5886,8296 6136,8296 6136,8046 5886,8046 Z"/>
 <path fill="none" stroke="rgb(0,69,134)" stroke-linejoin="round" d="M 5886,8046 L 5886,8296 6136,8296 6136,8046 5886,8046 Z"/>
 <path fill="rgb(0,69,134)" stroke="none" d="M 7330,6872 L 7330,7122 7580,7122 7580,6872 7330,6872 Z"/>
 <path fill="none" stroke="rgb(0,69,134)" stroke-linejoin="round" d="M 7330,6872 L 7330,7122 7580,7122 7580,6872 7330,6872 Z"/>
 <path fill="rgb(0,69,134)" stroke="none" d="M 7855,6529 L 7855,6779 8104,6779 8104,6529 7855,6529 Z"/>
 <path fill="none" stroke="rgb(0,69,134)" stroke-linejoin="round" d="M 7855,6529 L 7855,6779 8104,6779 8104,6529 7855,6529 Z"/>
 <path fill="rgb(0,69,134)" stroke="none" d="M 7986,6872 L 7986,7122 8235,7122 8235,6872 7986,6872 Z"/>
 <path fill="none" stroke="rgb(0,69,134)" stroke-linejoin="round" d="M 7986,6872 L 7986,7122 8235,7122 8235,6872 7986,6872 Z"/>
 <path fill="rgb(0,69,134)" stroke="none" d="M 8116,5943 L 8116,6193 8366,6193 8366,5943 8116,5943 Z"/>
 <path fill="none" stroke="rgb(0,69,134)" stroke-linejoin="round" d="M 8116,5943 L 8116,6193 8366,6193 8366,5943 8116,5943 Z"/>
 <path fill="rgb(0,69,134)" stroke="none" d="M 8247,6684 L 8247,6934 8497,6934 8497,6684 8247,6684 Z"/>
 <path fill="none" stroke="rgb(0,69,134)" stroke-linejoin="round" d="M 8247,6684 L 8247,6934 8497,6934 8497,6684 8247,6684 Z"/>
 <path fill="rgb(0,69,134)" stroke="none" d="M 8379,6016 L 8379,6266 8629,6266 8629,6016 8379,6016 Z"/>
 <path fill="none" stroke="rgb(0,69,134)" stroke-linejoin="round" d="M 8379,6016 L 8379,6266 8629,6266 8629,6016 8379,6016 Z"/>
 <path fill="rgb(0,69,134)" stroke="none" d="M 8510,5061 L 8510,5311 8760,5311 8760,5061 8510,5061 Z"/>
 <path fill="none" stroke="rgb(0,69,134)" stroke-linejoin="round" d="M 8510,5061 L 8510,5311 8760,5311 8760,5061 8510,5061 Z"/>
 <path fill="rgb(0,69,134)" stroke="none" d="M 8641,5196 L 8641,5446 8891,5446 8891,5196 8641,5196 Z"/>
 <path fill="none" stroke="rgb(0,69,134)" stroke-linejoin="round" d="M 8641,5196 L 8641,5446 8891,5446 8891,5196 8641,5196 Z"/>
 <path fill="rgb(0,69,134)" stroke="none" d="M 8772,4806 L 8772,5056 9022,5056 9022,4806 8772,4806 Z"/>
 <path fill="none" stroke="rgb(0,69,134)" stroke-linejoin="round" d="M 8772,4806 L 8772,5056 9022,5056 9022,4806 8772,4806 Z"/>
 <path fill="rgb(0,69,134)" stroke="none" d="M 8904,4806 L 8904,5056 9154,5056 9154,4806 8904,4806 Z"/>
 <path fill="none" stroke="rgb(0,69,134)" stroke-linejoin="round" d="M 8904,4806 L 8904,5056 9154,5056 9154,4806 8904,4806 Z"/>
 <path fill="rgb(0,69,134)" stroke="none" d="M 9035,4513 L 9035,4763 9285,4763 9285,4513 9035,4513 Z"/>
 <path fill="none" stroke="rgb(0,69,134)" stroke-linejoin="round" d="M 9035,4513 L 9035,4763 9285,4763 9285,4513 9035,4513 Z"/>
 <path fill="rgb(0,69,134)" stroke="none" d="M 9166,4735 L 9166,4985 9416,4985 9416,4735 9166,4735 Z"/>
 <path fill="none" stroke="rgb(0,69,134)" stroke-linejoin="round" d="M 9166,4735 L 9166,4985 9416,4985 9416,4735 9166,4735 Z"/>
 <path fill="rgb(0,69,134)" stroke="none" d="M 9297,4702 L 9297,4952 9547,4952 9547,4702 9297,4702 Z"/>
 <path fill="none" stroke="rgb(0,69,134)" stroke-linejoin="round" d="M 9297,4702 L 9297,4952 9547,4952 9547,4702 9297,4702 Z"/>
 <path fill="rgb(0,69,134)" stroke="none" d="M 9429,4307 L 9429,4556 9679,4556 9679,4307 9429,4307 Z"/>
 <path fill="none" stroke="rgb(0,69,134)" stroke-linejoin="round" d="M 9429,4307 L 9429,4556 9679,4556 9679,4307 9429,4307 Z"/>
 <path fill="rgb(0,69,134)" stroke="none" d="M 9560,3871 L 9560,4121 9810,4121 9810,3871 9560,3871 Z"/>
 <path fill="none" stroke="rgb(0,69,134)" stroke-linejoin="round" d="M 9560,3871 L 9560,4121 9810,4121 9810,3871 9560,3871 Z"/>
 <path fill="rgb(0,69,134)" stroke="none" d="M 9691,3534 L 9691,3784 9941,3784 9941,3534 9691,3534 Z"/>
 <path fill="none" stroke="rgb(0,69,134)" stroke-linejoin="round" d="M 9691,3534 L 9691,3784 9941,3784 9941,3534 9691,3534 Z"/>
 <path fill="rgb(0,69,134)" stroke="none" d="M 9822,3328 L 9822,3578 10072,3578 10072,3328 9822,3328 Z"/>
 <path fill="none" stroke="rgb(0,69,134)" stroke-linejoin="round" d="M 9822,3328 L 9822,3578 10072,3578 10072,3328 9822,3328 Z"/>
 <path fill="rgb(0,69,134)" stroke="none" d="M 9953,3139 L 9953,3389 10203,3389 10203,3139 9953,3139 Z"/>
 <path fill="none" stroke="rgb(0,69,134)" stroke-linejoin="round" d="M 9953,3139 L 9953,3389 10203,3389 10203,3139 9953,3139 Z"/>
 <path fill="rgb(0,69,134)" stroke="none" d="M 10085,3795 L 10085,4045 10335,4045 10335,3795 10085,3795 Z"/>
 <path fill="none" stroke="rgb(0,69,134)" stroke-linejoin="round" d="M 10085,3795 L 10085,4045 10335,4045 10335,3795 10085,3795 Z"/>
 <path fill="rgb(0,69,134)" stroke="none" d="M 10216,2962 L 10216,3212 10466,3212 10466,2962 10216,2962 Z"/>
 <path fill="none" stroke="rgb(0,69,134)" stroke-linejoin="round" d="M 10216,2962 L 10216,3212 10466,3212 10466,2962 10216,2962 Z"/>
 <path fill="rgb(0,69,134)" stroke="none" d="M 10347,2532 L 10347,2782 10597,2782 10597,2532 10347,2532 Z"/>
 <path fill="none" stroke="rgb(0,69,134)" stroke-linejoin="round" d="M 10347,2532 L 10347,2782 10597,2782 10597,2532 10347,2532 Z"/>
 <path fill="rgb(0,69,134)" stroke="none" d="M 10478,2575 L 10478,2825 10728,2825 10728,2575 10478,2575 Z"/>
 <path fill="none" stroke="rgb(0,69,134)" stroke-linejoin="round" d="M 10478,2575 L 10478,2825 10728,2825 10728,2575 10478,2575 Z"/>
 <path fill="rgb(0,69,134)" stroke="none" d="M 10610,2486 L 10610,2736 10860,2736 10860,2486 10610,2486 Z"/>
 <path fill="none" stroke="rgb(0,69,134)" stroke-linejoin="round" d="M 10610,2486 L 10610,2736 10860,2736 10860,2486 10610,2486 Z"/>
 <path fill="rgb(0,69,134)" stroke="none" d="M 10741,2172 L 10741,2422 10991,2422 10991,2172 10741,2172 Z"/>
 <path fill="none" stroke="rgb(0,69,134)" stroke-linejoin="round" d="M 10741,2172 L 10741,2422 10991,2422 10991,2172 10741,2172 Z"/>
 <path fill="rgb(0,69,134)" stroke="none" d="M 10872,2546 L 10872,2796 11122,2796 11122,2546 10872,2546 Z"/>
 <path fill="none" stroke="rgb(0,69,134)" stroke-linejoin="round" d="M 10872,2546 L 10872,2796 11122,2796 11122,2546 10872,2546 Z"/>
 <path fill="rgb(0,69,134)" stroke="none" d="M 11003,2229 L 11003,2479 11253,2479 11253,2229 11003,2229 Z"/>
 <path fill="none" stroke="rgb(0,69,134)" stroke-linejoin="round" d="M 11003,2229 L 11003,2479 11253,2479 11253,2229 11003,2229 Z"/>
 <path fill="rgb(0,69,134)" stroke="none" d="M 11135,1900 L 11135,2150 11385,2150 11385,1900 11135,1900 Z"/>
 <path fill="none" stroke="rgb(0,69,134)" stroke-linejoin="round" d="M 11135,1900 L 11135,2150 11385,2150 11385,1900 11135,1900 Z"/>
 <path fill="rgb(0,69,134)" stroke="none" d="M 11266,1885 L 11266,2135 11516,2135 11516,1885 11266,1885 Z"/>
 <path fill="none" stroke="rgb(0,69,134)" stroke-linejoin="round" d="M 11266,1885 L 11266,2135 11516,2135 11516,1885 11266,1885 Z"/>
 <path fill="rgb(0,69,134)" stroke="none" d="M 11397,1562 L 11397,1812 11647,1812 11647,1562 11397,1562 Z"/>
 <path fill="none" stroke="rgb(0,69,134)" stroke-linejoin="round" d="M 11397,1562 L 11397,1812 11647,1812 11647,1562 11397,1562 Z"/>
 <path fill="rgb(0,69,134)" stroke="none" d="M 11528,1304 L 11528,1554 11778,1554 11778,1304 11528,1304 Z"/>
 <path fill="none" stroke="rgb(0,69,134)" stroke-linejoin="round" d="M 11528,1304 L 11528,1554 11778,1554 11778,1304 11528,1304 Z"/>
 <path fill="rgb(0,69,134)" stroke="none" d="M 11659,1410 L 11659,1660 11909,1660 11909,1410 11659,1410 Z"/>
 <path fill="none" stroke="rgb(0,69,134)" stroke-linejoin="round" d="M 11659,1410 L 11659,1660 11909,1660 11909,1410 11659,1410 Z"/>
 <path fill="rgb(0,69,134)" stroke="none" d="M 11791,1449 L 11791,1699 12041,1699 12041,1449 11791,1449 Z"/>
 <path fill="none" stroke="rgb(0,69,134)" stroke-linejoin="round" d="M 11791,1449 L 11791,1699 12041,1699 12041,1449 11791,1449 Z"/>
 <path fill="rgb(0,69,134)" stroke="none" d="M 11922,1386 L 11922,1636 12172,1636 12172,1386 11922,1386 Z"/>
 <path fill="none" stroke="rgb(0,69,134)" stroke-linejoin="round" d="M 11922,1386 L 11922,1636 12172,1636 12172,1386 11922,1386 Z"/>
 <path fill="rgb(0,69,134)" stroke="none" d="M 12053,1269 L 12053,1519 12303,1519 12303,1269 12053,1269 Z"/>
 <path fill="none" stroke="rgb(0,69,134)" stroke-linejoin="round" d="M 12053,1269 L 12053,1519 12303,1519 12303,1269 12053,1269 Z"/>
 <path fill="rgb(0,69,134)" stroke="none" d="M 12184,962 L 12184,1212 12434,1212 12434,962 12184,962 Z"/>
 <path fill="none" stroke="rgb(0,69,134)" stroke-linejoin="round" d="M 12184,962 L 12184,1212 12434,1212 12434,962 12184,962 Z"/>
 <path fill="rgb(0,69,134)" stroke="none" d="M 12316,978 L 12316,1228 12566,1228 12566,978 12316,978 Z"/>
 <path fill="none" stroke="rgb(0,69,134)" stroke-linejoin="round" d="M 12316,978 L 12316,1228 12566,1228 12566,978 12316,978 Z"/>
 <path fill="rgb(0,69,134)" stroke="none" d="M 12447,938 L 12447,1188 12697,1188 12697,938 12447,938 Z"/>
 <path fill="none" stroke="rgb(0,69,134)" stroke-linejoin="round" d="M 12447,938 L 12447,1188 12697,1188 12697,938 12447,938 Z"/>
 <path fill="rgb(0,69,134)" stroke="none" d="M 12578,1086 L 12578,1336 12828,1336 12828,1086 12578,1086 Z"/>
 <path fill="none" stroke="rgb(0,69,134)" stroke-linejoin="round" d="M 12578,1086 L 12578,1336 12828,1336 12828,1086 12578,1086 Z"/>
 <path fill="rgb(0,69,134)" stroke="none" d="M 12709,697 L 12709,947 12959,947 12959,697 12709,697 Z"/>
 <path fill="none" stroke="rgb(0,69,134)" stroke-linejoin="round" d="M 12709,697 L 12709,947 12959,947 12959,697 12709,697 Z"/>
 <path fill="rgb(0,69,134)" stroke="none" d="M 12841,1071 L 12841,1321 13091,1321 13091,1071 12841,1071 Z"/>
 <path fill="none" stroke="rgb(0,69,134)" stroke-linejoin="round" d="M 12841,1071 L 12841,1321 13091,1321 13091,1071 12841,1071 Z"/>
 <path fill="rgb(0,69,134)" stroke="none" d="M 12972,1109 L 12972,1359 13222,1359 13222,1109 12972,1109 Z"/>
 <path fill="none" stroke="rgb(0,69,134)" stroke-linejoin="round" d="M 12972,1109 L 12972,1359 13222,1359 13222,1109 12972,1109 Z"/>
 <path fill="none" stroke="rgb(0,69,134)" stroke-linejoin="round" d="M 5565,8171 L 13097,604"/>
 <text class="TextShape"><tspan class="TextParagraph" font-family="Liberation Sans, sans-serif" font-size="353px" font-weight="400"><tspan class="TextPosition" x="702" y="8739"><tspan fill="rgb(0,0,0)" stroke="none">10/01/2020</tspan></tspan></tspan></text>
 <text class="TextShape"><tspan class="TextParagraph" font-family="Liberation Sans, sans-serif" font-size="353px" font-weight="400"><tspan class="TextPosition" x="3327" y="8739"><tspan fill="rgb(0,0,0)" stroke="none">30/01/2020</tspan></tspan></tspan></text>
 <text class="TextShape"><tspan class="TextParagraph" font-family="Liberation Sans, sans-serif" font-size="353px" font-weight="400"><tspan class="TextPosition" x="5952" y="8739"><tspan fill="rgb(0,0,0)" stroke="none">19/02/2020</tspan></tspan></tspan></text>
 <text class="TextShape"><tspan class="TextParagraph" font-family="Liberation Sans, sans-serif" font-size="353px" font-weight="400"><tspan class="TextPosition" x="8576" y="8739"><tspan fill="rgb(0,0,0)" stroke="none">10/03/2020</tspan></tspan></tspan></text>
 <text class="TextShape"><tspan class="TextParagraph" font-family="Liberation Sans, sans-serif" font-size="353px" font-weight="400"><tspan class="TextPosition" x="11201" y="8739"><tspan fill="rgb(0,0,0)" stroke="none">30/03/2020</tspan></tspan></tspan></text>
 <text class="TextShape"><tspan class="TextParagraph" font-family="Liberation Sans, sans-serif" font-size="353px" font-weight="400"><tspan class="TextPosition" x="13825" y="8739"><tspan fill="rgb(0,0,0)" stroke="none">19/04/2020</tspan></tspan></tspan></text>
 <text class="TextShape"><tspan class="TextParagraph" font-family="Liberation Sans, sans-serif" font-size="353px" font-weight="400"><tspan class="TextPosition" x="478" y="8292"><tspan fill="rgb(0,0,0)" stroke="none">   </tspan><tspan fill="rgb(0,0,0)" stroke="none">,  1</tspan></tspan></tspan></text>
 <text class="TextShape"><tspan class="TextParagraph" font-family="Liberation Sans, sans-serif" font-size="353px" font-weight="400"><tspan class="TextPosition" x="399" y="6343"><tspan fill="rgb(0,0,0)" stroke="none">   </tspan><tspan fill="rgb(0,0,0)" stroke="none">, 10</tspan></tspan></tspan></text>
 <text class="TextShape"><tspan class="TextParagraph" font-family="Liberation Sans, sans-serif" font-size="353px" font-weight="400"><tspan class="TextPosition" x="320" y="4395"><tspan fill="rgb(0,0,0)" stroke="none">   </tspan><tspan fill="rgb(0,0,0)" stroke="none">,100</tspan></tspan></tspan></text>
 <text class="TextShape"><tspan class="TextParagraph" font-family="Liberation Sans, sans-serif" font-size="353px" font-weight="400"><tspan class="TextPosition" x="240" y="2446"><tspan fill="rgb(0,0,0)" stroke="none">  </tspan><tspan fill="rgb(0,0,0)" stroke="none">1,000</tspan></tspan></tspan></text>
 <text class="TextShape"><tspan class="TextParagraph" font-family="Liberation Sans, sans-serif" font-size="353px" font-weight="400"><tspan class="TextPosition" x="161" y="498"><tspan fill="rgb(0,0,0)" stroke="none"> </tspan><tspan fill="rgb(0,0,0)" stroke="none">10,000</tspan></tspan></tspan></text>
</svg>