<?xml version="1.0" encoding="UTF-8"?>
<!DOCTYPE svg PUBLIC "-//W3C//DTD SVG 1.1//EN" "http://www.w3.org/Graphics/SVG/1.1/DTD/svg11.dtd">
<svg width="160mm" height="90mm" viewBox="0 0 16000 9000" version="1.1" xmlns="http://www.w3.org/2000/svg" stroke-width="28.222" stroke-linejoin="round" xml:space="preserve">
 <path fill="rgb(255,255,255)" stroke="none" d="M 7999,9005 L 0,9005 0,0 15997,0 15997,9005 7999,9005 Z"/>
 <path fill="none" stroke="rgb(179,179,179)" stroke-linejoin="round" d="M 7726,8178 L 1046,8178 1046,380 14405,380 14405,8178 7726,8178 Z"/>
 <path fill="none" stroke="rgb(179,179,179)" stroke-linejoin="round" d="M 14405,8177 L 1046,8177"/>
 <path fill="none" stroke="rgb(179,179,179)" stroke-linejoin="round" d="M 14405,6877 L 1046,6877"/>
 <path fill="none" stroke="rgb(179,179,179)" stroke-linejoin="round" d="M 14405,5577 L 1046,5577"/>
 <path fill="none" stroke="rgb(179,179,179)" stroke-linejoin="round" d="M 14405,4278 L 1046,4278"/>
 <path fill="none" stroke="rgb(179,179,179)" stroke-linejoin="round" d="M 14405,2978 L 1046,2978"/>
 <path fill="none" stroke="rgb(179,179,179)" stroke-linejoin="round" d="M 14405,1678 L 1046,1678"/>
 <path fill="none" stroke="rgb(179,179,179)" stroke-linejoin="round" d="M 14405,378 L 1046,378"/>
 <path fill="none" stroke="rgb(179,179,179)" stroke-linejoin="round" d="M 1046,8327 L 1046,8177"/>
 <path fill="none" stroke="rgb(179,179,179)" stroke-linejoin="round" d="M 3272,8327 L 3272,8177"/>
 <path fill="none" stroke="rgb(179,179,179)" stroke-linejoin="round" d="M 5499,8327 L 5499,8177"/>
 <path fill="none" stroke="rgb(179,179,179)" stroke-linejoin="round" d="M 7726,8327 L 7726,8177"/>
 <path fill="none" stroke="rgb(179,179,179)" stroke-linejoin="round" d="M 9951,8327 L 9951,8177"/>
 <path fill="none" stroke="rgb(179,179,179)" stroke-linejoin="round" d="M 12178,8327 L 12178,8177"/>
 <path fill="none" stroke="rgb(179,179,179)" stroke-linejoin="round" d="M 14405,8327 L 14405,8177"/>
 <path fill="none" stroke="rgb(179,179,179)" stroke-linejoin="round" d="M 1046,8177 L 14405,8177"/>
 <path fill="none" stroke="rgb(179,179,179)" stroke-linejoin="round" d="M 896,8177 L 1046,8177"/>
 <path fill="none" stroke="rgb(179,179,179)" stroke-linejoin="round" d="M 896,6877 L 1046,6877"/>
 <path fill="none" stroke="rgb(179,179,179)" stroke-linejoin="round" d="M 896,5577 L 1046,5577"/>
 <path fill="none" stroke="rgb(179,179,179)" stroke-linejoin="round" d="M 896,4278 L 1046,4278"/>
 <path fill="none" stroke="rgb(179,179,179)" stroke-linejoin="round" d="M 896,2978 L 1046,2978"/>
 <path fill="none" stroke="rgb(179,179,179)" stroke-linejoin="round" d="M 896,1678 L 1046,1678"/>
 <path fill="none" stroke="rgb(179,179,179)" stroke-linejoin="round" d="M 896,378 L 1046,378"/>
 <path fill="none" stroke="rgb(179,179,179)" stroke-linejoin="round" d="M 1046,8177 L 1046,378"/>
 <path fill="rgb(255,211,32)" stroke="none" d="M 921,8052 L 1046,8302 1171,8052 921,8052 Z"/>
 <path fill="none" stroke="rgb(255,211,32)" stroke-linejoin="round" d="M 921,8052 L 1046,8302 1171,8052 921,8052 Z"/>
 <path fill="rgb(255,211,32)" stroke="none" d="M 1032,8043 L 1157,8293 1282,8043 1032,8043 Z"/>
 <path fill="none" stroke="rgb(255,211,32)" stroke-linejoin="round" d="M 1032,8043 L 1157,8293 1282,8043 1032,8043 Z"/>
 <path fill="rgb(255,211,32)" stroke="none" d="M 1143,8032 L 1268,8282 1393,8032 1143,8032 Z"/>
 <path fill="none" stroke="rgb(255,211,32)" stroke-linejoin="round" d="M 1143,8032 L 1268,8282 1393,8032 1143,8032 Z"/>
 <path fill="rgb(255,211,32)" stroke="none" d="M 1255,8020 L 1380,8270 1505,8020 1255,8020 Z"/>
 <path fill="none" stroke="rgb(255,211,32)" stroke-linejoin="round" d="M 1255,8020 L 1380,8270 1505,8020 1255,8020 Z"/>
 <path fill="rgb(255,211,32)" stroke="none" d="M 1366,8005 L 1491,8255 1616,8005 1366,8005 Z"/>
 <path fill="none" stroke="rgb(255,211,32)" stroke-linejoin="round" d="M 1366,8005 L 1491,8255 1616,8005 1366,8005 Z"/>
 <path fill="rgb(255,211,32)" stroke="none" d="M 1477,7987 L 1602,8237 1727,7987 1477,7987 Z"/>
 <path fill="none" stroke="rgb(255,211,32)" stroke-linejoin="round" d="M 1477,7987 L 1602,8237 1727,7987 1477,7987 Z"/>
 <path fill="rgb(255,211,32)" stroke="none" d="M 1589,7966 L 1714,8216 1839,7966 1589,7966 Z"/>
 <path fill="none" stroke="rgb(255,211,32)" stroke-linejoin="round" d="M 1589,7966 L 1714,8216 1839,7966 1589,7966 Z"/>
 <path fill="rgb(255,211,32)" stroke="none" d="M 1700,7940 L 1825,8190 1950,7940 1700,7940 Z"/>
 <path fill="none" stroke="rgb(255,211,32)" stroke-linejoin="round" d="M 1700,7940 L 1825,8190 1950,7940 1700,7940 Z"/>
 <path fill="rgb(255,211,32)" stroke="none" d="M 1811,7910 L 1936,8160 2061,7910 1811,7910 Z"/>
 <path fill="none" stroke="rgb(255,211,32)" stroke-linejoin="round" d="M 1811,7910 L 1936,8160 2061,7910 1811,7910 Z"/>
 <path fill="rgb(255,211,32)" stroke="none" d="M 1923,7874 L 2048,8124 2173,7874 1923,7874 Z"/>
 <path fill="none" stroke="rgb(255,211,32)" stroke-linejoin="round" d="M 1923,7874 L 2048,8124 2173,7874 1923,7874 Z"/>
 <path fill="rgb(255,211,32)" stroke="none" d="M 2034,7832 L 2159,8082 2284,7832 2034,7832 Z"/>
 <path fill="none" stroke="rgb(255,211,32)" stroke-linejoin="round" d="M 2034,7832 L 2159,8082 2284,7832 2034,7832 Z"/>
 <path fill="rgb(255,211,32)" stroke="none" d="M 2145,7782 L 2270,8032 2395,7782 2145,7782 Z"/>
 <path fill="none" stroke="rgb(255,211,32)" stroke-linejoin="round" d="M 2145,7782 L 2270,8032 2395,7782 2145,7782 Z"/>
 <path fill="rgb(255,211,32)" stroke="none" d="M 2257,7724 L 2382,7974 2507,7724 2257,7724 Z"/>
 <path fill="none" stroke="rgb(255,211,32)" stroke-linejoin="round" d="M 2257,7724 L 2382,7974 2507,7724 2257,7724 Z"/>
 <path fill="rgb(255,211,32)" stroke="none" d="M 2368,7655 L 2493,7905 2618,7655 2368,7655 Z"/>
 <path fill="none" stroke="rgb(255,211,32)" stroke-linejoin="round" d="M 2368,7655 L 2493,7905 2618,7655 2368,7655 Z"/>
 <path fill="rgb(255,211,32)" stroke="none" d="M 2479,7576 L 2604,7826 2729,7576 2479,7576 Z"/>
 <path fill="none" stroke="rgb(255,211,32)" stroke-linejoin="round" d="M 2479,7576 L 2604,7826 2729,7576 2479,7576 Z"/>
 <path fill="rgb(255,211,32)" stroke="none" d="M 2591,7485 L 2716,7735 2841,7485 2591,7485 Z"/>
 <path fill="none" stroke="rgb(255,211,32)" stroke-linejoin="round" d="M 2591,7485 L 2716,7735 2841,7485 2591,7485 Z"/>
 <path fill="rgb(255,211,32)" stroke="none" d="M 2702,7380 L 2827,7630 2952,7380 2702,7380 Z"/>
 <path fill="none" stroke="rgb(255,211,32)" stroke-linejoin="round" d="M 2702,7380 L 2827,7630 2952,7380 2702,7380 Z"/>
 <path fill="rgb(255,211,32)" stroke="none" d="M 2813,7262 L 2938,7512 3063,7262 2813,7262 Z"/>
 <path fill="none" stroke="rgb(255,211,32)" stroke-linejoin="round" d="M 2813,7262 L 2938,7512 3063,7262 2813,7262 Z"/>
 <path fill="rgb(255,211,32)" stroke="none" d="M 2925,7129 L 3050,7379 3175,7129 2925,7129 Z"/>
 <path fill="none" stroke="rgb(255,211,32)" stroke-linejoin="round" d="M 2925,7129 L 3050,7379 3175,7129 2925,7129 Z"/>
 <path fill="rgb(255,211,32)" stroke="none" d="M 3036,6981 L 3161,7231 3286,6981 3036,6981 Z"/>
 <path fill="none" stroke="rgb(255,211,32)" stroke-linejoin="round" d="M 3036,6981 L 3161,7231 3286,6981 3036,6981 Z"/>
 <path fill="rgb(255,211,32)" stroke="none" d="M 3147,6818 L 3272,7068 3397,6818 3147,6818 Z"/>
 <path fill="none" stroke="rgb(255,211,32)" stroke-linejoin="round" d="M 3147,6818 L 3272,7068 3397,6818 3147,6818 Z"/>
 <path fill="rgb(255,211,32)" stroke="none" d="M 3259,6642 L 3384,6892 3509,6642 3259,6642 Z"/>
 <path fill="none" stroke="rgb(255,211,32)" stroke-linejoin="round" d="M 3259,6642 L 3384,6892 3509,6642 3259,6642 Z"/>
 <path fill="rgb(255,211,32)" stroke="none" d="M 3370,6453 L 3495,6703 3620,6453 3370,6453 Z"/>
 <path fill="none" stroke="rgb(255,211,32)" stroke-linejoin="round" d="M 3370,6453 L 3495,6703 3620,6453 3370,6453 Z"/>
 <path fill="rgb(255,211,32)" stroke="none" d="M 3481,6252 L 3606,6502 3731,6252 3481,6252 Z"/>
 <path fill="none" stroke="rgb(255,211,32)" stroke-linejoin="round" d="M 3481,6252 L 3606,6502 3731,6252 3481,6252 Z"/>
 <path fill="rgb(255,211,32)" stroke="none" d="M 3593,6043 L 3718,6293 3843,6043 3593,6043 Z"/>
 <path fill="none" stroke="rgb(255,211,32)" stroke-linejoin="round" d="M 3593,6043 L 3718,6293 3843,6043 3593,6043 Z"/>
 <path fill="rgb(255,211,32)" stroke="none" d="M 3704,5828 L 3829,6078 3954,5828 3704,5828 Z"/>
 <path fill="none" stroke="rgb(255,211,32)" stroke-linejoin="round" d="M 3704,5828 L 3829,6078 3954,5828 3704,5828 Z"/>
 <path fill="rgb(255,211,32)" stroke="none" d="M 3815,5608 L 3940,5858 4065,5608 3815,5608 Z"/>
 <path fill="none" stroke="rgb(255,211,32)" stroke-linejoin="round" d="M 3815,5608 L 3940,5858 4065,5608 3815,5608 Z"/>
 <path fill="rgb(255,211,32)" stroke="none" d="M 3927,5388 L 4052,5638 4177,5388 3927,5388 Z"/>
 <path fill="none" stroke="rgb(255,211,32)" stroke-linejoin="round" d="M 3927,5388 L 4052,5638 4177,5388 3927,5388 Z"/>
 <path fill="rgb(255,211,32)" stroke="none" d="M 4038,5169 L 4163,5419 4288,5169 4038,5169 Z"/>
 <path fill="none" stroke="rgb(255,211,32)" stroke-linejoin="round" d="M 4038,5169 L 4163,5419 4288,5169 4038,5169 Z"/>
 <path fill="rgb(255,211,32)" stroke="none" d="M 4149,4954 L 4274,5204 4399,4954 4149,4954 Z"/>
 <path fill="none" stroke="rgb(255,211,32)" stroke-linejoin="round" d="M 4149,4954 L 4274,5204 4399,4954 4149,4954 Z"/>
 <path fill="rgb(255,211,32)" stroke="none" d="M 4261,4745 L 4386,4995 4511,4745 4261,4745 Z"/>
 <path fill="none" stroke="rgb(255,211,32)" stroke-linejoin="round" d="M 4261,4745 L 4386,4995 4511,4745 4261,4745 Z"/>
 <path fill="rgb(255,211,32)" stroke="none" d="M 4372,4543 L 4497,4793 4622,4543 4372,4543 Z"/>
 <path fill="none" stroke="rgb(255,211,32)" stroke-linejoin="round" d="M 4372,4543 L 4497,4793 4622,4543 4372,4543 Z"/>
 <path fill="rgb(255,211,32)" stroke="none" d="M 4483,4351 L 4608,4600 4733,4351 4483,4351 Z"/>
 <path fill="none" stroke="rgb(255,211,32)" stroke-linejoin="round" d="M 4483,4351 L 4608,4600 4733,4351 4483,4351 Z"/>
 <path fill="rgb(255,211,32)" stroke="none" d="M 4595,4168 L 4720,4418 4845,4168 4595,4168 Z"/>
 <path fill="none" stroke="rgb(255,211,32)" stroke-linejoin="round" d="M 4595,4168 L 4720,4418 4845,4168 4595,4168 Z"/>
 <path fill="rgb(255,211,32)" stroke="none" d="M 4706,3996 L 4831,4246 4956,3996 4706,3996 Z"/>
 <path fill="none" stroke="rgb(255,211,32)" stroke-linejoin="round" d="M 4706,3996 L 4831,4246 4956,3996 4706,3996 Z"/>
 <path fill="rgb(255,211,32)" stroke="none" d="M 4817,3834 L 4942,4084 5067,3834 4817,3834 Z"/>
 <path fill="none" stroke="rgb(255,211,32)" stroke-linejoin="round" d="M 4817,3834 L 4942,4084 5067,3834 4817,3834 Z"/>
 <path fill="rgb(255,211,32)" stroke="none" d="M 4929,3683 L 5054,3933 5179,3683 4929,3683 Z"/>
 <path fill="none" stroke="rgb(255,211,32)" stroke-linejoin="round" d="M 4929,3683 L 5054,3933 5179,3683 4929,3683 Z"/>
 <path fill="rgb(255,211,32)" stroke="none" d="M 5040,3543 L 5165,3793 5290,3543 5040,3543 Z"/>
 <path fill="none" stroke="rgb(255,211,32)" stroke-linejoin="round" d="M 5040,3543 L 5165,3793 5290,3543 5040,3543 Z"/>
 <path fill="rgb(255,211,32)" stroke="none" d="M 5151,3413 L 5276,3663 5401,3413 5151,3413 Z"/>
 <path fill="none" stroke="rgb(255,211,32)" stroke-linejoin="round" d="M 5151,3413 L 5276,3663 5401,3413 5151,3413 Z"/>
 <path fill="rgb(255,211,32)" stroke="none" d="M 5263,3293 L 5388,3543 5513,3293 5263,3293 Z"/>
 <path fill="none" stroke="rgb(255,211,32)" stroke-linejoin="round" d="M 5263,3293 L 5388,3543 5513,3293 5263,3293 Z"/>
 <path fill="rgb(255,211,32)" stroke="none" d="M 5374,3183 L 5499,3433 5624,3183 5374,3183 Z"/>
 <path fill="none" stroke="rgb(255,211,32)" stroke-linejoin="round" d="M 5374,3183 L 5499,3433 5624,3183 5374,3183 Z"/>
 <path fill="rgb(255,211,32)" stroke="none" d="M 5485,3083 L 5610,3333 5735,3083 5485,3083 Z"/>
 <path fill="none" stroke="rgb(255,211,32)" stroke-linejoin="round" d="M 5485,3083 L 5610,3333 5735,3083 5485,3083 Z"/>
 <path fill="rgb(255,211,32)" stroke="none" d="M 5597,2990 L 5722,3240 5847,2990 5597,2990 Z"/>
 <path fill="none" stroke="rgb(255,211,32)" stroke-linejoin="round" d="M 5597,2990 L 5722,3240 5847,2990 5597,2990 Z"/>
 <path fill="rgb(255,211,32)" stroke="none" d="M 5708,2906 L 5833,3156 5958,2906 5708,2906 Z"/>
 <path fill="none" stroke="rgb(255,211,32)" stroke-linejoin="round" d="M 5708,2906 L 5833,3156 5958,2906 5708,2906 Z"/>
 <path fill="rgb(255,211,32)" stroke="none" d="M 5819,2829 L 5944,3079 6069,2829 5819,2829 Z"/>
 <path fill="none" stroke="rgb(255,211,32)" stroke-linejoin="round" d="M 5819,2829 L 5944,3079 6069,2829 5819,2829 Z"/>
 <path fill="rgb(255,211,32)" stroke="none" d="M 5931,2759 L 6056,3009 6181,2759 5931,2759 Z"/>
 <path fill="none" stroke="rgb(255,211,32)" stroke-linejoin="round" d="M 5931,2759 L 6056,3009 6181,2759 5931,2759 Z"/>
 <path fill="rgb(255,211,32)" stroke="none" d="M 6042,2696 L 6167,2946 6292,2696 6042,2696 Z"/>
 <path fill="none" stroke="rgb(255,211,32)" stroke-linejoin="round" d="M 6042,2696 L 6167,2946 6292,2696 6042,2696 Z"/>
 <path fill="rgb(255,211,32)" stroke="none" d="M 6153,2638 L 6278,2888 6403,2638 6153,2638 Z"/>
 <path fill="none" stroke="rgb(255,211,32)" stroke-linejoin="round" d="M 6153,2638 L 6278,2888 6403,2638 6153,2638 Z"/>
 <path fill="rgb(255,211,32)" stroke="none" d="M 6265,2586 L 6390,2836 6515,2586 6265,2586 Z"/>
 <path fill="none" stroke="rgb(255,211,32)" stroke-linejoin="round" d="M 6265,2586 L 6390,2836 6515,2586 6265,2586 Z"/>
 <path fill="rgb(255,211,32)" stroke="none" d="M 6376,2539 L 6501,2789 6626,2539 6376,2539 Z"/>
 <path fill="none" stroke="rgb(255,211,32)" stroke-linejoin="round" d="M 6376,2539 L 6501,2789 6626,2539 6376,2539 Z"/>
 <path fill="rgb(255,211,32)" stroke="none" d="M 6487,2496 L 6612,2746 6737,2496 6487,2496 Z"/>
 <path fill="none" stroke="rgb(255,211,32)" stroke-linejoin="round" d="M 6487,2496 L 6612,2746 6737,2496 6487,2496 Z"/>
 <path fill="rgb(255,211,32)" stroke="none" d="M 6599,2458 L 6724,2708 6849,2458 6599,2458 Z"/>
 <path fill="none" stroke="rgb(255,211,32)" stroke-linejoin="round" d="M 6599,2458 L 6724,2708 6849,2458 6599,2458 Z"/>
 <path fill="rgb(255,211,32)" stroke="none" d="M 6710,2423 L 6835,2673 6960,2423 6710,2423 Z"/>
 <path fill="none" stroke="rgb(255,211,32)" stroke-linejoin="round" d="M 6710,2423 L 6835,2673 6960,2423 6710,2423 Z"/>
 <path fill="rgb(255,211,32)" stroke="none" d="M 6821,2391 L 6946,2641 7071,2391 6821,2391 Z"/>
 <path fill="none" stroke="rgb(255,211,32)" stroke-linejoin="round" d="M 6821,2391 L 6946,2641 7071,2391 6821,2391 Z"/>
 <path fill="rgb(255,211,32)" stroke="none" d="M 6933,2363 L 7058,2613 7183,2363 6933,2363 Z"/>
 <path fill="none" stroke="rgb(255,211,32)" stroke-linejoin="round" d="M 6933,2363 L 7058,2613 7183,2363 6933,2363 Z"/>
 <path fill="rgb(255,211,32)" stroke="none" d="M 7044,2337 L 7169,2587 7294,2337 7044,2337 Z"/>
 <path fill="none" stroke="rgb(255,211,32)" stroke-linejoin="round" d="M 7044,2337 L 7169,2587 7294,2337 7044,2337 Z"/>
 <path fill="rgb(255,211,32)" stroke="none" d="M 7155,2314 L 7280,2564 7405,2314 7155,2314 Z"/>
 <path fill="none" stroke="rgb(255,211,32)" stroke-linejoin="round" d="M 7155,2314 L 7280,2564 7405,2314 7155,2314 Z"/>
 <path fill="rgb(255,211,32)" stroke="none" d="M 7267,2293 L 7392,2543 7517,2293 7267,2293 Z"/>
 <path fill="none" stroke="rgb(255,211,32)" stroke-linejoin="round" d="M 7267,2293 L 7392,2543 7517,2293 7267,2293 Z"/>
 <path fill="rgb(255,211,32)" stroke="none" d="M 7378,2274 L 7503,2524 7628,2274 7378,2274 Z"/>
 <path fill="none" stroke="rgb(255,211,32)" stroke-linejoin="round" d="M 7378,2274 L 7503,2524 7628,2274 7378,2274 Z"/>
 <path fill="rgb(255,211,32)" stroke="none" d="M 7489,2257 L 7614,2507 7739,2257 7489,2257 Z"/>
 <path fill="none" stroke="rgb(255,211,32)" stroke-linejoin="round" d="M 7489,2257 L 7614,2507 7739,2257 7489,2257 Z"/>
 <path fill="rgb(255,211,32)" stroke="none" d="M 7601,2242 L 7726,2492 7851,2242 7601,2242 Z"/>
 <path fill="none" stroke="rgb(255,211,32)" stroke-linejoin="round" d="M 7601,2242 L 7726,2492 7851,2242 7601,2242 Z"/>
 <path fill="rgb(255,211,32)" stroke="none" d="M 7712,2228 L 7837,2478 7962,2228 7712,2228 Z"/>
 <path fill="none" stroke="rgb(255,211,32)" stroke-linejoin="round" d="M 7712,2228 L 7837,2478 7962,2228 7712,2228 Z"/>
 <path fill="rgb(255,211,32)" stroke="none" d="M 7823,2216 L 7948,2466 8072,2216 7823,2216 Z"/>
 <path fill="none" stroke="rgb(255,211,32)" stroke-linejoin="round" d="M 7823,2216 L 7948,2466 8072,2216 7823,2216 Z"/>
 <path fill="rgb(255,211,32)" stroke="none" d="M 7935,2205 L 8059,2455 8184,2205 7935,2205 Z"/>
 <path fill="none" stroke="rgb(255,211,32)" stroke-linejoin="round" d="M 7935,2205 L 8059,2455 8184,2205 7935,2205 Z"/>
 <path fill="rgb(255,211,32)" stroke="none" d="M 8045,2195 L 8170,2445 8295,2195 8045,2195 Z"/>
 <path fill="none" stroke="rgb(255,211,32)" stroke-linejoin="round" d="M 8045,2195 L 8170,2445 8295,2195 8045,2195 Z"/>
 <path fill="rgb(255,211,32)" stroke="none" d="M 8156,2186 L 8281,2436 8406,2186 8156,2186 Z"/>
 <path fill="none" stroke="rgb(255,211,32)" stroke-linejoin="round" d="M 8156,2186 L 8281,2436 8406,2186 8156,2186 Z"/>
 <path fill="rgb(255,211,32)" stroke="none" d="M 8268,2178 L 8393,2428 8518,2178 8268,2178 Z"/>
 <path fill="none" stroke="rgb(255,211,32)" stroke-linejoin="round" d="M 8268,2178 L 8393,2428 8518,2178 8268,2178 Z"/>
 <path fill="rgb(255,211,32)" stroke="none" d="M 8379,2171 L 8504,2421 8629,2171 8379,2171 Z"/>
 <path fill="none" stroke="rgb(255,211,32)" stroke-linejoin="round" d="M 8379,2171 L 8504,2421 8629,2171 8379,2171 Z"/>
 <path fill="rgb(255,211,32)" stroke="none" d="M 8490,2164 L 8615,2414 8740,2164 8490,2164 Z"/>
 <path fill="none" stroke="rgb(255,211,32)" stroke-linejoin="round" d="M 8490,2164 L 8615,2414 8740,2164 8490,2164 Z"/>
 <path fill="rgb(255,211,32)" stroke="none" d="M 8602,2158 L 8727,2408 8852,2158 8602,2158 Z"/>
 <path fill="none" stroke="rgb(255,211,32)" stroke-linejoin="round" d="M 8602,2158 L 8727,2408 8852,2158 8602,2158 Z"/>
 <path fill="rgb(255,211,32)" stroke="none" d="M 8713,2153 L 8838,2403 8963,2153 8713,2153 Z"/>
 <path fill="none" stroke="rgb(255,211,32)" stroke-linejoin="round" d="M 8713,2153 L 8838,2403 8963,2153 8713,2153 Z"/>
 <path fill="rgb(255,211,32)" stroke="none" d="M 8824,2148 L 8949,2398 9074,2148 8824,2148 Z"/>
 <path fill="none" stroke="rgb(255,211,32)" stroke-linejoin="round" d="M 8824,2148 L 8949,2398 9074,2148 8824,2148 Z"/>
 <path fill="rgb(255,211,32)" stroke="none" d="M 8936,2144 L 9061,2394 9186,2144 8936,2144 Z"/>
 <path fill="none" stroke="rgb(255,211,32)" stroke-linejoin="round" d="M 8936,2144 L 9061,2394 9186,2144 8936,2144 Z"/>
 <path fill="rgb(255,211,32)" stroke="none" d="M 9047,2140 L 9172,2390 9297,2140 9047,2140 Z"/>
 <path fill="none" stroke="rgb(255,211,32)" stroke-linejoin="round" d="M 9047,2140 L 9172,2390 9297,2140 9047,2140 Z"/>
 <path fill="rgb(255,211,32)" stroke="none" d="M 9158,2137 L 9283,2387 9408,2137 9158,2137 Z"/>
 <path fill="none" stroke="rgb(255,211,32)" stroke-linejoin="round" d="M 9158,2137 L 9283,2387 9408,2137 9158,2137 Z"/>
 <path fill="rgb(255,211,32)" stroke="none" d="M 9270,2133 L 9395,2383 9520,2133 9270,2133 Z"/>
 <path fill="none" stroke="rgb(255,211,32)" stroke-linejoin="round" d="M 9270,2133 L 9395,2383 9520,2133 9270,2133 Z"/>
 <path fill="rgb(255,211,32)" stroke="none" d="M 9381,2131 L 9506,2381 9631,2131 9381,2131 Z"/>
 <path fill="none" stroke="rgb(255,211,32)" stroke-linejoin="round" d="M 9381,2131 L 9506,2381 9631,2131 9381,2131 Z"/>
 <path fill="rgb(255,211,32)" stroke="none" d="M 9492,2128 L 9617,2378 9742,2128 9492,2128 Z"/>
 <path fill="none" stroke="rgb(255,211,32)" stroke-linejoin="round" d="M 9492,2128 L 9617,2378 9742,2128 9492,2128 Z"/>
 <path fill="rgb(255,211,32)" stroke="none" d="M 9604,2126 L 9729,2376 9854,2126 9604,2126 Z"/>
 <path fill="none" stroke="rgb(255,211,32)" stroke-linejoin="round" d="M 9604,2126 L 9729,2376 9854,2126 9604,2126 Z"/>
 <path fill="rgb(255,211,32)" stroke="none" d="M 9715,2124 L 9840,2374 9965,2124 9715,2124 Z"/>
 <path fill="none" stroke="rgb(255,211,32)" stroke-linejoin="round" d="M 9715,2124 L 9840,2374 9965,2124 9715,2124 Z"/>
 <path fill="rgb(255,211,32)" stroke="none" d="M 9826,2122 L 9951,2372 10076,2122 9826,2122 Z"/>
 <path fill="none" stroke="rgb(255,211,32)" stroke-linejoin="round" d="M 9826,2122 L 9951,2372 10076,2122 9826,2122 Z"/>
 <path fill="rgb(255,211,32)" stroke="none" d="M 9938,2120 L 10063,2370 10188,2120 9938,2120 Z"/>
 <path fill="none" stroke="rgb(255,211,32)" stroke-linejoin="round" d="M 9938,2120 L 10063,2370 10188,2120 9938,2120 Z"/>
 <path fill="rgb(255,211,32)" stroke="none" d="M 10049,2119 L 10174,2369 10299,2119 10049,2119 Z"/>
 <path fill="none" stroke="rgb(255,211,32)" stroke-linejoin="round" d="M 10049,2119 L 10174,2369 10299,2119 10049,2119 Z"/>
 <path fill="rgb(255,211,32)" stroke="none" d="M 10160,2118 L 10285,2368 10410,2118 10160,2118 Z"/>
 <path fill="none" stroke="rgb(255,211,32)" stroke-linejoin="round" d="M 10160,2118 L 10285,2368 10410,2118 10160,2118 Z"/>
 <path fill="rgb(255,211,32)" stroke="none" d="M 10272,2116 L 10397,2366 10522,2116 10272,2116 Z"/>
 <path fill="none" stroke="rgb(255,211,32)" stroke-linejoin="round" d="M 10272,2116 L 10397,2366 10522,2116 10272,2116 Z"/>
 <path fill="rgb(255,211,32)" stroke="none" d="M 10383,2115 L 10508,2365 10633,2115 10383,2115 Z"/>
 <path fill="none" stroke="rgb(255,211,32)" stroke-linejoin="round" d="M 10383,2115 L 10508,2365 10633,2115 10383,2115 Z"/>
 <path fill="rgb(255,211,32)" stroke="none" d="M 10494,2114 L 10619,2364 10744,2114 10494,2114 Z"/>
 <path fill="none" stroke="rgb(255,211,32)" stroke-linejoin="round" d="M 10494,2114 L 10619,2364 10744,2114 10494,2114 Z"/>
 <path fill="rgb(255,211,32)" stroke="none" d="M 10606,2114 L 10731,2364 10856,2114 10606,2114 Z"/>
 <path fill="none" stroke="rgb(255,211,32)" stroke-linejoin="round" d="M 10606,2114 L 10731,2364 10856,2114 10606,2114 Z"/>
 <path fill="rgb(255,211,32)" stroke="none" d="M 10717,2113 L 10842,2363 10967,2113 10717,2113 Z"/>
 <path fill="none" stroke="rgb(255,211,32)" stroke-linejoin="round" d="M 10717,2113 L 10842,2363 10967,2113 10717,2113 Z"/>
 <path fill="rgb(255,211,32)" stroke="none" d="M 10828,2112 L 10953,2362 11078,2112 10828,2112 Z"/>
 <path fill="none" stroke="rgb(255,211,32)" stroke-linejoin="round" d="M 10828,2112 L 10953,2362 11078,2112 10828,2112 Z"/>
 <path fill="rgb(255,211,32)" stroke="none" d="M 10940,2111 L 11065,2361 11190,2111 10940,2111 Z"/>
 <path fill="none" stroke="rgb(255,211,32)" stroke-linejoin="round" d="M 10940,2111 L 11065,2361 11190,2111 10940,2111 Z"/>
 <path fill="rgb(255,211,32)" stroke="none" d="M 11051,2111 L 11176,2361 11301,2111 11051,2111 Z"/>
 <path fill="none" stroke="rgb(255,211,32)" stroke-linejoin="round" d="M 11051,2111 L 11176,2361 11301,2111 11051,2111 Z"/>
 <path fill="rgb(255,211,32)" stroke="none" d="M 11162,2110 L 11287,2360 11412,2110 11162,2110 Z"/>
 <path fill="none" stroke="rgb(255,211,32)" stroke-linejoin="round" d="M 11162,2110 L 11287,2360 11412,2110 11162,2110 Z"/>
 <path fill="rgb(255,211,32)" stroke="none" d="M 11274,2110 L 11399,2360 11524,2110 11274,2110 Z"/>
 <path fill="none" stroke="rgb(255,211,32)" stroke-linejoin="round" d="M 11274,2110 L 11399,2360 11524,2110 11274,2110 Z"/>
 <path fill="rgb(255,211,32)" stroke="none" d="M 11385,2110 L 11510,2360 11635,2110 11385,2110 Z"/>
 <path fill="none" stroke="rgb(255,211,32)" stroke-linejoin="round" d="M 11385,2110 L 11510,2360 11635,2110 11385,2110 Z"/>
 <path fill="rgb(255,211,32)" stroke="none" d="M 11496,2109 L 11621,2359 11746,2109 11496,2109 Z"/>
 <path fill="none" stroke="rgb(255,211,32)" stroke-linejoin="round" d="M 11496,2109 L 11621,2359 11746,2109 11496,2109 Z"/>
 <path fill="rgb(255,211,32)" stroke="none" d="M 11608,2109 L 11733,2359 11858,2109 11608,2109 Z"/>
 <path fill="none" stroke="rgb(255,211,32)" stroke-linejoin="round" d="M 11608,2109 L 11733,2359 11858,2109 11608,2109 Z"/>
 <path fill="rgb(255,211,32)" stroke="none" d="M 11719,2109 L 11844,2359 11969,2109 11719,2109 Z"/>
 <path fill="none" stroke="rgb(255,211,32)" stroke-linejoin="round" d="M 11719,2109 L 11844,2359 11969,2109 11719,2109 Z"/>
 <path fill="rgb(255,211,32)" stroke="none" d="M 11830,2108 L 11955,2358 12080,2108 11830,2108 Z"/>
 <path fill="none" stroke="rgb(255,211,32)" stroke-linejoin="round" d="M 11830,2108 L 11955,2358 12080,2108 11830,2108 Z"/>
 <path fill="rgb(255,211,32)" stroke="none" d="M 11942,2108 L 12067,2358 12192,2108 11942,2108 Z"/>
 <path fill="none" stroke="rgb(255,211,32)" stroke-linejoin="round" d="M 11942,2108 L 12067,2358 12192,2108 11942,2108 Z"/>
 <path fill="rgb(255,211,32)" stroke="none" d="M 12053,2108 L 12178,2358 12303,2108 12053,2108 Z"/>
 <path fill="none" stroke="rgb(255,211,32)" stroke-linejoin="round" d="M 12053,2108 L 12178,2358 12303,2108 12053,2108 Z"/>
 <path fill="rgb(255,66,14)" stroke="none" d="M 921,8112 L 1046,8237 1171,8112 1046,7987 921,8112 Z"/>
 <path fill="none" stroke="rgb(255,66,14)" stroke-linejoin="round" d="M 921,8112 L 1046,8237 1171,8112 1046,7987 921,8112 Z"/>
 <path fill="rgb(255,66,14)" stroke="none" d="M 1032,8099 L 1157,8224 1282,8099 1157,7974 1032,8099 Z"/>
 <path fill="none" stroke="rgb(255,66,14)" stroke-linejoin="round" d="M 1032,8099 L 1157,8224 1282,8099 1157,7974 1032,8099 Z"/>
 <path fill="rgb(255,66,14)" stroke="none" d="M 1143,8083 L 1268,8208 1393,8083 1268,7958 1143,8083 Z"/>
 <path fill="none" stroke="rgb(255,66,14)" stroke-linejoin="round" d="M 1143,8083 L 1268,8208 1393,8083 1268,7958 1143,8083 Z"/>
 <path fill="rgb(255,66,14)" stroke="none" d="M 1255,8065 L 1380,8190 1505,8065 1380,7940 1255,8065 Z"/>
 <path fill="none" stroke="rgb(255,66,14)" stroke-linejoin="round" d="M 1255,8065 L 1380,8190 1505,8065 1380,7940 1255,8065 Z"/>
 <path fill="rgb(255,66,14)" stroke="none" d="M 1366,8043 L 1491,8168 1616,8043 1491,7918 1366,8043 Z"/>
 <path fill="none" stroke="rgb(255,66,14)" stroke-linejoin="round" d="M 1366,8043 L 1491,8168 1616,8043 1491,7918 1366,8043 Z"/>
 <path fill="rgb(255,66,14)" stroke="none" d="M 1477,8017 L 1602,8142 1727,8017 1602,7892 1477,8017 Z"/>
 <path fill="none" stroke="rgb(255,66,14)" stroke-linejoin="round" d="M 1477,8017 L 1602,8142 1727,8017 1602,7892 1477,8017 Z"/>
 <path fill="rgb(255,66,14)" stroke="none" d="M 1589,7986 L 1714,8111 1839,7986 1714,7861 1589,7986 Z"/>
 <path fill="none" stroke="rgb(255,66,14)" stroke-linejoin="round" d="M 1589,7986 L 1714,8111 1839,7986 1714,7861 1589,7986 Z"/>
 <path fill="rgb(255,66,14)" stroke="none" d="M 1700,7950 L 1825,8075 1950,7950 1825,7825 1700,7950 Z"/>
 <path fill="none" stroke="rgb(255,66,14)" stroke-linejoin="round" d="M 1700,7950 L 1825,8075 1950,7950 1825,7825 1700,7950 Z"/>
 <path fill="rgb(255,66,14)" stroke="none" d="M 1811,7908 L 1936,8033 2061,7908 1936,7783 1811,7908 Z"/>
 <path fill="none" stroke="rgb(255,66,14)" stroke-linejoin="round" d="M 1811,7908 L 1936,8033 2061,7908 1936,7783 1811,7908 Z"/>
 <path fill="rgb(255,66,14)" stroke="none" d="M 1923,7859 L 2048,7984 2173,7859 2048,7734 1923,7859 Z"/>
 <path fill="none" stroke="rgb(255,66,14)" stroke-linejoin="round" d="M 1923,7859 L 2048,7984 2173,7859 2048,7734 1923,7859 Z"/>
 <path fill="rgb(255,66,14)" stroke="none" d="M 2034,7802 L 2159,7927 2284,7802 2159,7677 2034,7802 Z"/>
 <path fill="none" stroke="rgb(255,66,14)" stroke-linejoin="round" d="M 2034,7802 L 2159,7927 2284,7802 2159,7677 2034,7802 Z"/>
 <path fill="rgb(255,66,14)" stroke="none" d="M 2145,7738 L 2270,7863 2395,7738 2270,7613 2145,7738 Z"/>
 <path fill="none" stroke="rgb(255,66,14)" stroke-linejoin="round" d="M 2145,7738 L 2270,7863 2395,7738 2270,7613 2145,7738 Z"/>
 <path fill="rgb(255,66,14)" stroke="none" d="M 2257,7664 L 2382,7789 2507,7664 2382,7539 2257,7664 Z"/>
 <path fill="none" stroke="rgb(255,66,14)" stroke-linejoin="round" d="M 2257,7664 L 2382,7789 2507,7664 2382,7539 2257,7664 Z"/>
 <path fill="rgb(255,66,14)" stroke="none" d="M 2368,7582 L 2493,7707 2618,7582 2493,7457 2368,7582 Z"/>
 <path fill="none" stroke="rgb(255,66,14)" stroke-linejoin="round" d="M 2368,7582 L 2493,7707 2618,7582 2493,7457 2368,7582 Z"/>
 <path fill="rgb(255,66,14)" stroke="none" d="M 2479,7492 L 2604,7617 2729,7492 2604,7367 2479,7492 Z"/>
 <path fill="none" stroke="rgb(255,66,14)" stroke-linejoin="round" d="M 2479,7492 L 2604,7617 2729,7492 2604,7367 2479,7492 Z"/>
 <path fill="rgb(255,66,14)" stroke="none" d="M 2591,7393 L 2716,7518 2841,7393 2716,7268 2591,7393 Z"/>
 <path fill="none" stroke="rgb(255,66,14)" stroke-linejoin="round" d="M 2591,7393 L 2716,7518 2841,7393 2716,7268 2591,7393 Z"/>
 <path fill="rgb(255,66,14)" stroke="none" d="M 2702,7288 L 2827,7413 2952,7288 2827,7163 2702,7288 Z"/>
 <path fill="none" stroke="rgb(255,66,14)" stroke-linejoin="round" d="M 2702,7288 L 2827,7413 2952,7288 2827,7163 2702,7288 Z"/>
 <path fill="rgb(255,66,14)" stroke="none" d="M 2813,7179 L 2938,7304 3063,7179 2938,7054 2813,7179 Z"/>
 <path fill="none" stroke="rgb(255,66,14)" stroke-linejoin="round" d="M 2813,7179 L 2938,7304 3063,7179 2938,7054 2813,7179 Z"/>
 <path fill="rgb(255,66,14)" stroke="none" d="M 2925,7067 L 3050,7192 3175,7067 3050,6942 2925,7067 Z"/>
 <path fill="none" stroke="rgb(255,66,14)" stroke-linejoin="round" d="M 2925,7067 L 3050,7192 3175,7067 3050,6942 2925,7067 Z"/>
 <path fill="rgb(255,66,14)" stroke="none" d="M 3036,6957 L 3161,7082 3286,6957 3161,6832 3036,6957 Z"/>
 <path fill="none" stroke="rgb(255,66,14)" stroke-linejoin="round" d="M 3036,6957 L 3161,7082 3286,6957 3161,6832 3036,6957 Z"/>
 <path fill="rgb(255,66,14)" stroke="none" d="M 3147,6853 L 3272,6978 3397,6853 3272,6728 3147,6853 Z"/>
 <path fill="none" stroke="rgb(255,66,14)" stroke-linejoin="round" d="M 3147,6853 L 3272,6978 3397,6853 3272,6728 3147,6853 Z"/>
 <path fill="rgb(255,66,14)" stroke="none" d="M 3259,6757 L 3384,6882 3509,6757 3384,6632 3259,6757 Z"/>
 <path fill="none" stroke="rgb(255,66,14)" stroke-linejoin="round" d="M 3259,6757 L 3384,6882 3509,6757 3384,6632 3259,6757 Z"/>
 <path fill="rgb(255,66,14)" stroke="none" d="M 3370,6674 L 3495,6799 3620,6674 3495,6549 3370,6674 Z"/>
 <path fill="none" stroke="rgb(255,66,14)" stroke-linejoin="round" d="M 3370,6674 L 3495,6799 3620,6674 3495,6549 3370,6674 Z"/>
 <path fill="rgb(255,66,14)" stroke="none" d="M 3481,6608 L 3606,6733 3731,6608 3606,6483 3481,6608 Z"/>
 <path fill="none" stroke="rgb(255,66,14)" stroke-linejoin="round" d="M 3481,6608 L 3606,6733 3731,6608 3606,6483 3481,6608 Z"/>
 <path fill="rgb(255,66,14)" stroke="none" d="M 3593,6560 L 3718,6685 3843,6560 3718,6435 3593,6560 Z"/>
 <path fill="none" stroke="rgb(255,66,14)" stroke-linejoin="round" d="M 3593,6560 L 3718,6685 3843,6560 3718,6435 3593,6560 Z"/>
 <path fill="rgb(255,66,14)" stroke="none" d="M 3704,6532 L 3829,6657 3954,6532 3829,6407 3704,6532 Z"/>
 <path fill="none" stroke="rgb(255,66,14)" stroke-linejoin="round" d="M 3704,6532 L 3829,6657 3954,6532 3829,6407 3704,6532 Z"/>
 <path fill="rgb(255,66,14)" stroke="none" d="M 3815,6524 L 3940,6649 4065,6524 3940,6399 3815,6524 Z"/>
 <path fill="none" stroke="rgb(255,66,14)" stroke-linejoin="round" d="M 3815,6524 L 3940,6649 4065,6524 3940,6399 3815,6524 Z"/>
 <path fill="rgb(255,66,14)" stroke="none" d="M 3927,6535 L 4052,6660 4177,6535 4052,6410 3927,6535 Z"/>
 <path fill="none" stroke="rgb(255,66,14)" stroke-linejoin="round" d="M 3927,6535 L 4052,6660 4177,6535 4052,6410 3927,6535 Z"/>
 <path fill="rgb(255,66,14)" stroke="none" d="M 4038,6564 L 4163,6689 4288,6564 4163,6439 4038,6564 Z"/>
 <path fill="none" stroke="rgb(255,66,14)" stroke-linejoin="round" d="M 4038,6564 L 4163,6689 4288,6564 4163,6439 4038,6564 Z"/>
 <path fill="rgb(255,66,14)" stroke="none" d="M 4149,6608 L 4274,6733 4399,6608 4274,6483 4149,6608 Z"/>
 <path fill="none" stroke="rgb(255,66,14)" stroke-linejoin="round" d="M 4149,6608 L 4274,6733 4399,6608 4274,6483 4149,6608 Z"/>
 <path fill="rgb(255,66,14)" stroke="none" d="M 4261,6664 L 4386,6789 4511,6664 4386,6539 4261,6664 Z"/>
 <path fill="none" stroke="rgb(255,66,14)" stroke-linejoin="round" d="M 4261,6664 L 4386,6789 4511,6664 4386,6539 4261,6664 Z"/>
 <path fill="rgb(255,66,14)" stroke="none" d="M 4372,6731 L 4497,6856 4622,6731 4497,6606 4372,6731 Z"/>
 <path fill="none" stroke="rgb(255,66,14)" stroke-linejoin="round" d="M 4372,6731 L 4497,6856 4622,6731 4497,6606 4372,6731 Z"/>
 <path fill="rgb(255,66,14)" stroke="none" d="M 4483,6804 L 4608,6929 4733,6804 4608,6679 4483,6804 Z"/>
 <path fill="none" stroke="rgb(255,66,14)" stroke-linejoin="round" d="M 4483,6804 L 4608,6929 4733,6804 4608,6679 4483,6804 Z"/>
 <path fill="rgb(255,66,14)" stroke="none" d="M 4595,6882 L 4720,7007 4845,6882 4720,6757 4595,6882 Z"/>
 <path fill="none" stroke="rgb(255,66,14)" stroke-linejoin="round" d="M 4595,6882 L 4720,7007 4845,6882 4720,6757 4595,6882 Z"/>
 <path fill="rgb(255,66,14)" stroke="none" d="M 4706,6963 L 4831,7088 4956,6963 4831,6838 4706,6963 Z"/>
 <path fill="none" stroke="rgb(255,66,14)" stroke-linejoin="round" d="M 4706,6963 L 4831,7088 4956,6963 4831,6838 4706,6963 Z"/>
 <path fill="rgb(255,66,14)" stroke="none" d="M 4817,7044 L 4942,7169 5067,7044 4942,6919 4817,7044 Z"/>
 <path fill="none" stroke="rgb(255,66,14)" stroke-linejoin="round" d="M 4817,7044 L 4942,7169 5067,7044 4942,6919 4817,7044 Z"/>
 <path fill="rgb(255,66,14)" stroke="none" d="M 4929,7125 L 5054,7250 5179,7125 5054,7000 4929,7125 Z"/>
 <path fill="none" stroke="rgb(255,66,14)" stroke-linejoin="round" d="M 4929,7125 L 5054,7250 5179,7125 5054,7000 4929,7125 Z"/>
 <path fill="rgb(255,66,14)" stroke="none" d="M 5040,7203 L 5165,7328 5290,7203 5165,7078 5040,7203 Z"/>
 <path fill="none" stroke="rgb(255,66,14)" stroke-linejoin="round" d="M 5040,7203 L 5165,7328 5290,7203 5165,7078 5040,7203 Z"/>
 <path fill="rgb(255,66,14)" stroke="none" d="M 5151,7279 L 5276,7404 5401,7279 5276,7154 5151,7279 Z"/>
 <path fill="none" stroke="rgb(255,66,14)" stroke-linejoin="round" d="M 5151,7279 L 5276,7404 5401,7279 5276,7154 5151,7279 Z"/>
 <path fill="rgb(255,66,14)" stroke="none" d="M 5263,7352 L 5388,7477 5513,7352 5388,7227 5263,7352 Z"/>
 <path fill="none" stroke="rgb(255,66,14)" stroke-linejoin="round" d="M 5263,7352 L 5388,7477 5513,7352 5388,7227 5263,7352 Z"/>
 <path fill="rgb(255,66,14)" stroke="none" d="M 5374,7420 L 5499,7545 5624,7420 5499,7295 5374,7420 Z"/>
 <path fill="none" stroke="rgb(255,66,14)" stroke-linejoin="round" d="M 5374,7420 L 5499,7545 5624,7420 5499,7295 5374,7420 Z"/>
 <path fill="rgb(255,66,14)" stroke="none" d="M 5485,7485 L 5610,7610 5735,7485 5610,7360 5485,7485 Z"/>
 <path fill="none" stroke="rgb(255,66,14)" stroke-linejoin="round" d="M 5485,7485 L 5610,7610 5735,7485 5610,7360 5485,7485 Z"/>
 <path fill="rgb(255,66,14)" stroke="none" d="M 5597,7545 L 5722,7670 5847,7545 5722,7420 5597,7545 Z"/>
 <path fill="none" stroke="rgb(255,66,14)" stroke-linejoin="round" d="M 5597,7545 L 5722,7670 5847,7545 5722,7420 5597,7545 Z"/>
 <path fill="rgb(255,66,14)" stroke="none" d="M 5708,7601 L 5833,7726 5958,7601 5833,7476 5708,7601 Z"/>
 <path fill="none" stroke="rgb(255,66,14)" stroke-linejoin="round" d="M 5708,7601 L 5833,7726 5958,7601 5833,7476 5708,7601 Z"/>
 <path fill="rgb(255,66,14)" stroke="none" d="M 5819,7653 L 5944,7778 6069,7653 5944,7528 5819,7653 Z"/>
 <path fill="none" stroke="rgb(255,66,14)" stroke-linejoin="round" d="M 5819,7653 L 5944,7778 6069,7653 5944,7528 5819,7653 Z"/>
 <path fill="rgb(255,66,14)" stroke="none" d="M 5931,7701 L 6056,7826 6181,7701 6056,7576 5931,7701 Z"/>
 <path fill="none" stroke="rgb(255,66,14)" stroke-linejoin="round" d="M 5931,7701 L 6056,7826 6181,7701 6056,7576 5931,7701 Z"/>
 <path fill="rgb(255,66,14)" stroke="none" d="M 6042,7745 L 6167,7870 6292,7745 6167,7620 6042,7745 Z"/>
 <path fill="none" stroke="rgb(255,66,14)" stroke-linejoin="round" d="M 6042,7745 L 6167,7870 6292,7745 6167,7620 6042,7745 Z"/>
 <path fill="rgb(255,66,14)" stroke="none" d="M 6153,7785 L 6278,7910 6403,7785 6278,7660 6153,7785 Z"/>
 <path fill="none" stroke="rgb(255,66,14)" stroke-linejoin="round" d="M 6153,7785 L 6278,7910 6403,7785 6278,7660 6153,7785 Z"/>
 <path fill="rgb(255,66,14)" stroke="none" d="M 6265,7822 L 6390,7947 6515,7822 6390,7697 6265,7822 Z"/>
 <path fill="none" stroke="rgb(255,66,14)" stroke-linejoin="round" d="M 6265,7822 L 6390,7947 6515,7822 6390,7697 6265,7822 Z"/>
 <path fill="rgb(255,66,14)" stroke="none" d="M 6376,7856 L 6501,7981 6626,7856 6501,7731 6376,7856 Z"/>
 <path fill="none" stroke="rgb(255,66,14)" stroke-linejoin="round" d="M 6376,7856 L 6501,7981 6626,7856 6501,7731 6376,7856 Z"/>
 <path fill="rgb(255,66,14)" stroke="none" d="M 6487,7887 L 6612,8012 6737,7887 6612,7762 6487,7887 Z"/>
 <path fill="none" stroke="rgb(255,66,14)" stroke-linejoin="round" d="M 6487,7887 L 6612,8012 6737,7887 6612,7762 6487,7887 Z"/>
 <path fill="rgb(255,66,14)" stroke="none" d="M 6599,7915 L 6724,8040 6849,7915 6724,7790 6599,7915 Z"/>
 <path fill="none" stroke="rgb(255,66,14)" stroke-linejoin="round" d="M 6599,7915 L 6724,8040 6849,7915 6724,7790 6599,7915 Z"/>
 <path fill="rgb(255,66,14)" stroke="none" d="M 6710,7940 L 6835,8065 6960,7940 6835,7815 6710,7940 Z"/>
 <path fill="none" stroke="rgb(255,66,14)" stroke-linejoin="round" d="M 6710,7940 L 6835,8065 6960,7940 6835,7815 6710,7940 Z"/>
 <path fill="rgb(255,66,14)" stroke="none" d="M 6821,7963 L 6946,8088 7071,7963 6946,7838 6821,7963 Z"/>
 <path fill="none" stroke="rgb(255,66,14)" stroke-linejoin="round" d="M 6821,7963 L 6946,8088 7071,7963 6946,7838 6821,7963 Z"/>
 <path fill="rgb(255,66,14)" stroke="none" d="M 6933,7984 L 7058,8109 7183,7984 7058,7859 6933,7984 Z"/>
 <path fill="none" stroke="rgb(255,66,14)" stroke-linejoin="round" d="M 6933,7984 L 7058,8109 7183,7984 7058,7859 6933,7984 Z"/>
 <path fill="rgb(255,66,14)" stroke="none" d="M 7044,8003 L 7169,8128 7294,8003 7169,7878 7044,8003 Z"/>
 <path fill="none" stroke="rgb(255,66,14)" stroke-linejoin="round" d="M 7044,8003 L 7169,8128 7294,8003 7169,7878 7044,8003 Z"/>
 <path fill="rgb(255,66,14)" stroke="none" d="M 7155,8020 L 7280,8145 7405,8020 7280,7895 7155,8020 Z"/>
 <path fill="none" stroke="rgb(255,66,14)" stroke-linejoin="round" d="M 7155,8020 L 7280,8145 7405,8020 7280,7895 7155,8020 Z"/>
 <path fill="rgb(255,66,14)" stroke="none" d="M 7267,8036 L 7392,8161 7517,8036 7392,7911 7267,8036 Z"/>
 <path fill="none" stroke="rgb(255,66,14)" stroke-linejoin="round" d="M 7267,8036 L 7392,8161 7517,8036 7392,7911 7267,8036 Z"/>
 <path fill="rgb(255,66,14)" stroke="none" d="M 7378,8050 L 7503,8175 7628,8050 7503,7925 7378,8050 Z"/>
 <path fill="none" stroke="rgb(255,66,14)" stroke-linejoin="round" d="M 7378,8050 L 7503,8175 7628,8050 7503,7925 7378,8050 Z"/>
 <path fill="rgb(255,66,14)" stroke="none" d="M 7489,8062 L 7614,8187 7739,8062 7614,7937 7489,8062 Z"/>
 <path fill="none" stroke="rgb(255,66,14)" stroke-linejoin="round" d="M 7489,8062 L 7614,8187 7739,8062 7614,7937 7489,8062 Z"/>
 <path fill="rgb(255,66,14)" stroke="none" d="M 7601,8074 L 7726,8199 7851,8074 7726,7949 7601,8074 Z"/>
 <path fill="none" stroke="rgb(255,66,14)" stroke-linejoin="round" d="M 7601,8074 L 7726,8199 7851,8074 7726,7949 7601,8074 Z"/>
 <path fill="rgb(255,66,14)" stroke="none" d="M 7712,8084 L 7837,8209 7962,8084 7837,7959 7712,8084 Z"/>
 <path fill="none" stroke="rgb(255,66,14)" stroke-linejoin="round" d="M 7712,8084 L 7837,8209 7962,8084 7837,7959 7712,8084 Z"/>
 <path fill="rgb(255,66,14)" stroke="none" d="M 7823,8093 L 7948,8218 8072,8093 7948,7968 7823,8093 Z"/>
 <path fill="none" stroke="rgb(255,66,14)" stroke-linejoin="round" d="M 7823,8093 L 7948,8218 8072,8093 7948,7968 7823,8093 Z"/>
 <path fill="rgb(255,66,14)" stroke="none" d="M 7935,8102 L 8059,8227 8184,8102 8059,7977 7935,8102 Z"/>
 <path fill="none" stroke="rgb(255,66,14)" stroke-linejoin="round" d="M 7935,8102 L 8059,8227 8184,8102 8059,7977 7935,8102 Z"/>
 <path fill="rgb(255,66,14)" stroke="none" d="M 8045,8109 L 8170,8234 8295,8109 8170,7984 8045,8109 Z"/>
 <path fill="none" stroke="rgb(255,66,14)" stroke-linejoin="round" d="M 8045,8109 L 8170,8234 8295,8109 8170,7984 8045,8109 Z"/>
 <path fill="rgb(255,66,14)" stroke="none" d="M 8156,8116 L 8281,8241 8406,8116 8281,7991 8156,8116 Z"/>
 <path fill="none" stroke="rgb(255,66,14)" stroke-linejoin="round" d="M 8156,8116 L 8281,8241 8406,8116 8281,7991 8156,8116 Z"/>
 <path fill="rgb(255,66,14)" stroke="none" d="M 8268,8122 L 8393,8247 8518,8122 8393,7997 8268,8122 Z"/>
 <path fill="none" stroke="rgb(255,66,14)" stroke-linejoin="round" d="M 8268,8122 L 8393,8247 8518,8122 8393,7997 8268,8122 Z"/>
 <path fill="rgb(255,66,14)" stroke="none" d="M 8379,8127 L 8504,8252 8629,8127 8504,8002 8379,8127 Z"/>
 <path fill="none" stroke="rgb(255,66,14)" stroke-linejoin="round" d="M 8379,8127 L 8504,8252 8629,8127 8504,8002 8379,8127 Z"/>
 <path fill="rgb(255,66,14)" stroke="none" d="M 8490,8132 L 8615,8257 8740,8132 8615,8007 8490,8132 Z"/>
 <path fill="none" stroke="rgb(255,66,14)" stroke-linejoin="round" d="M 8490,8132 L 8615,8257 8740,8132 8615,8007 8490,8132 Z"/>
 <path fill="rgb(255,66,14)" stroke="none" d="M 8602,8137 L 8727,8262 8852,8137 8727,8012 8602,8137 Z"/>
 <path fill="none" stroke="rgb(255,66,14)" stroke-linejoin="round" d="M 8602,8137 L 8727,8262 8852,8137 8727,8012 8602,8137 Z"/>
 <path fill="rgb(255,66,14)" stroke="none" d="M 8713,8141 L 8838,8266 8963,8141 8838,8016 8713,8141 Z"/>
 <path fill="none" stroke="rgb(255,66,14)" stroke-linejoin="round" d="M 8713,8141 L 8838,8266 8963,8141 8838,8016 8713,8141 Z"/>
 <path fill="rgb(255,66,14)" stroke="none" d="M 8824,8144 L 8949,8269 9074,8144 8949,8019 8824,8144 Z"/>
 <path fill="none" stroke="rgb(255,66,14)" stroke-linejoin="round" d="M 8824,8144 L 8949,8269 9074,8144 8949,8019 8824,8144 Z"/>
 <path fill="rgb(255,66,14)" stroke="none" d="M 8936,8148 L 9061,8273 9186,8148 9061,8023 8936,8148 Z"/>
 <path fill="none" stroke="rgb(255,66,14)" stroke-linejoin="round" d="M 8936,8148 L 9061,8273 9186,8148 9061,8023 8936,8148 Z"/>
 <path fill="rgb(255,66,14)" stroke="none" d="M 9047,8151 L 9172,8276 9297,8151 9172,8026 9047,8151 Z"/>
 <path fill="none" stroke="rgb(255,66,14)" stroke-linejoin="round" d="M 9047,8151 L 9172,8276 9297,8151 9172,8026 9047,8151 Z"/>
 <path fill="rgb(255,66,14)" stroke="none" d="M 9158,8153 L 9283,8278 9408,8153 9283,8028 9158,8153 Z"/>
 <path fill="none" stroke="rgb(255,66,14)" stroke-linejoin="round" d="M 9158,8153 L 9283,8278 9408,8153 9283,8028 9158,8153 Z"/>
 <path fill="rgb(255,66,14)" stroke="none" d="M 9270,8156 L 9395,8281 9520,8156 9395,8031 9270,8156 Z"/>
 <path fill="none" stroke="rgb(255,66,14)" stroke-linejoin="round" d="M 9270,8156 L 9395,8281 9520,8156 9395,8031 9270,8156 Z"/>
 <path fill="rgb(255,66,14)" stroke="none" d="M 9381,8158 L 9506,8283 9631,8158 9506,8033 9381,8158 Z"/>
 <path fill="none" stroke="rgb(255,66,14)" stroke-linejoin="round" d="M 9381,8158 L 9506,8283 9631,8158 9506,8033 9381,8158 Z"/>
 <path fill="rgb(255,66,14)" stroke="none" d="M 9492,8160 L 9617,8285 9742,8160 9617,8035 9492,8160 Z"/>
 <path fill="none" stroke="rgb(255,66,14)" stroke-linejoin="round" d="M 9492,8160 L 9617,8285 9742,8160 9617,8035 9492,8160 Z"/>
 <path fill="rgb(255,66,14)" stroke="none" d="M 9604,8161 L 9729,8286 9854,8161 9729,8036 9604,8161 Z"/>
 <path fill="none" stroke="rgb(255,66,14)" stroke-linejoin="round" d="M 9604,8161 L 9729,8286 9854,8161 9729,8036 9604,8161 Z"/>
 <path fill="rgb(255,66,14)" stroke="none" d="M 9715,8163 L 9840,8288 9965,8163 9840,8038 9715,8163 Z"/>
 <path fill="none" stroke="rgb(255,66,14)" stroke-linejoin="round" d="M 9715,8163 L 9840,8288 9965,8163 9840,8038 9715,8163 Z"/>
 <path fill="rgb(255,66,14)" stroke="none" d="M 9826,8164 L 9951,8289 10076,8164 9951,8039 9826,8164 Z"/>
 <path fill="none" stroke="rgb(255,66,14)" stroke-linejoin="round" d="M 9826,8164 L 9951,8289 10076,8164 9951,8039 9826,8164 Z"/>
 <path fill="rgb(255,66,14)" stroke="none" d="M 9938,8165 L 10063,8290 10188,8165 10063,8040 9938,8165 Z"/>
 <path fill="none" stroke="rgb(255,66,14)" stroke-linejoin="round" d="M 9938,8165 L 10063,8290 10188,8165 10063,8040 9938,8165 Z"/>
 <path fill="rgb(255,66,14)" stroke="none" d="M 10049,8167 L 10174,8292 10299,8167 10174,8042 10049,8167 Z"/>
 <path fill="none" stroke="rgb(255,66,14)" stroke-linejoin="round" d="M 10049,8167 L 10174,8292 10299,8167 10174,8042 10049,8167 Z"/>
 <path fill="rgb(255,66,14)" stroke="none" d="M 10160,8168 L 10285,8293 10410,8168 10285,8043 10160,8168 Z"/>
 <path fill="none" stroke="rgb(255,66,14)" stroke-linejoin="round" d="M 10160,8168 L 10285,8293 10410,8168 10285,8043 10160,8168 Z"/>
 <path fill="rgb(255,66,14)" stroke="none" d="M 10272,8169 L 10397,8294 10522,8169 10397,8044 10272,8169 Z"/>
 <path fill="none" stroke="rgb(255,66,14)" stroke-linejoin="round" d="M 10272,8169 L 10397,8294 10522,8169 10397,8044 10272,8169 Z"/>
 <path fill="rgb(255,66,14)" stroke="none" d="M 10383,8169 L 10508,8294 10633,8169 10508,8044 10383,8169 Z"/>
 <path fill="none" stroke="rgb(255,66,14)" stroke-linejoin="round" d="M 10383,8169 L 10508,8294 10633,8169 10508,8044 10383,8169 Z"/>
 <path fill="rgb(255,66,14)" stroke="none" d="M 10494,8170 L 10619,8295 10744,8170 10619,8045 10494,8170 Z"/>
 <path fill="none" stroke="rgb(255,66,14)" stroke-linejoin="round" d="M 10494,8170 L 10619,8295 10744,8170 10619,8045 10494,8170 Z"/>
 <path fill="rgb(255,66,14)" stroke="none" d="M 10606,8171 L 10731,8296 10856,8171 10731,8046 10606,8171 Z"/>
 <path fill="none" stroke="rgb(255,66,14)" stroke-linejoin="round" d="M 10606,8171 L 10731,8296 10856,8171 10731,8046 10606,8171 Z"/>
 <path fill="rgb(255,66,14)" stroke="none" d="M 10717,8171 L 10842,8296 10967,8171 10842,8046 10717,8171 Z"/>
 <path fill="none" stroke="rgb(255,66,14)" stroke-linejoin="round" d="M 10717,8171 L 10842,8296 10967,8171 10842,8046 10717,8171 Z"/>
 <path fill="rgb(255,66,14)" stroke="none" d="M 10828,8172 L 10953,8297 11078,8172 10953,8047 10828,8172 Z"/>
 <path fill="none" stroke="rgb(255,66,14)" stroke-linejoin="round" d="M 10828,8172 L 10953,8297 11078,8172 10953,8047 10828,8172 Z"/>
 <path fill="rgb(255,66,14)" stroke="none" d="M 10940,8172 L 11065,8297 11190,8172 11065,8047 10940,8172 Z"/>
 <path fill="none" stroke="rgb(255,66,14)" stroke-linejoin="round" d="M 10940,8172 L 11065,8297 11190,8172 11065,8047 10940,8172 Z"/>
 <path fill="rgb(255,66,14)" stroke="none" d="M 11051,8173 L 11176,8298 11301,8173 11176,8048 11051,8173 Z"/>
 <path fill="none" stroke="rgb(255,66,14)" stroke-linejoin="round" d="M 11051,8173 L 11176,8298 11301,8173 11176,8048 11051,8173 Z"/>
 <path fill="rgb(255,66,14)" stroke="none" d="M 11162,8173 L 11287,8298 11412,8173 11287,8048 11162,8173 Z"/>
 <path fill="none" stroke="rgb(255,66,14)" stroke-linejoin="round" d="M 11162,8173 L 11287,8298 11412,8173 11287,8048 11162,8173 Z"/>
 <path fill="rgb(255,66,14)" stroke="none" d="M 11274,8173 L 11399,8298 11524,8173 11399,8048 11274,8173 Z"/>
 <path fill="none" stroke="rgb(255,66,14)" stroke-linejoin="round" d="M 11274,8173 L 11399,8298 11524,8173 11399,8048 11274,8173 Z"/>
 <path fill="rgb(255,66,14)" stroke="none" d="M 11385,8174 L 11510,8299 11635,8174 11510,8049 11385,8174 Z"/>
 <path fill="none" stroke="rgb(255,66,14)" stroke-linejoin="round" d="M 11385,8174 L 11510,8299 11635,8174 11510,8049 11385,8174 Z"/>
 <path fill="rgb(255,66,14)" stroke="none" d="M 11496,8174 L 11621,8299 11746,8174 11621,8049 11496,8174 Z"/>
 <path fill="none" stroke="rgb(255,66,14)" stroke-linejoin="round" d="M 11496,8174 L 11621,8299 11746,8174 11621,8049 11496,8174 Z"/>
 <path fill="rgb(255,66,14)" stroke="none" d="M 11608,8174 L 11733,8299 11858,8174 11733,8049 11608,8174 Z"/>
 <path fill="none" stroke="rgb(255,66,14)" stroke-linejoin="round" d="M 11608,8174 L 11733,8299 11858,8174 11733,8049 11608,8174 Z"/>
 <path fill="rgb(255,66,14)" stroke="none" d="M 11719,8175 L 11844,8300 11969,8175 11844,8050 11719,8175 Z"/>
 <path fill="none" stroke="rgb(255,66,14)" stroke-linejoin="round" d="M 11719,8175 L 11844,8300 11969,8175 11844,8050 11719,8175 Z"/>
 <path fill="rgb(255,66,14)" stroke="none" d="M 11830,8175 L 11955,8300 12080,8175 11955,8050 11830,8175 Z"/>
 <path fill="none" stroke="rgb(255,66,14)" stroke-linejoin="round" d="M 11830,8175 L 11955,8300 12080,8175 11955,8050 11830,8175 Z"/>
 <path fill="rgb(255,66,14)" stroke="none" d="M 11942,8175 L 12067,8300 12192,8175 12067,8050 11942,8175 Z"/>
 <path fill="none" stroke="rgb(255,66,14)" stroke-linejoin="round" d="M 11942,8175 L 12067,8300 12192,8175 12067,8050 11942,8175 Z"/>
 <path fill="rgb(255,66,14)" stroke="none" d="M 12053,8175 L 12178,8300 12303,8175 12178,8050 12053,8175 Z"/>
 <path fill="none" stroke="rgb(255,66,14)" stroke-linejoin="round" d="M 12053,8175 L 12178,8300 12303,8175 12178,8050 12053,8175 Z"/>
 <path fill="rgb(0,69,134)" stroke="none" d="M 921,1554 L 921,1804 1171,1804 1171,1554 921,1554 Z"/>
 <path fill="none" stroke="rgb(0,69,134)" stroke-linejoin="round" d="M 921,1554 L 921,1804 1171,1804 1171,1554 921,1554 Z"/>
 <path fill="rgb(0,69,134)" stroke="none" d="M 1032,1576 L 1032,1826 1282,1826 1282,1576 1032,1576 Z"/>
 <path fill="none" stroke="rgb(0,69,134)" stroke-linejoin="round" d="M 1032,1576 L 1032,1826 1282,1826 1282,1576 1032,1576 Z"/>
 <path fill="rgb(0,69,134)" stroke="none" d="M 1143,1602 L 1143,1852 1393,1852 1393,1602 1143,1602 Z"/>
 <path fill="none" stroke="rgb(0,69,134)" stroke-linejoin="round" d="M 1143,1602 L 1143,1852 1393,1852 1393,1602 1143,1602 Z"/>
 <path fill="rgb(0,69,134)" stroke="none" d="M 1255,1632 L 1255,1882 1505,1882 1505,1632 1255,1632 Z"/>
 <path fill="none" stroke="rgb(0,69,134)" stroke-linejoin="round" d="M 1255,1632 L 1255,1882 1505,1882 1505,1632 1255,1632 Z"/>
 <path fill="rgb(0,69,134)" stroke="none" d="M 1366,1669 L 1366,1919 1616,1919 1616,1669 1366,1669 Z"/>
 <path fill="none" stroke="rgb(0,69,134)" stroke-linejoin="round" d="M 1366,1669 L 1366,1919 1616,1919 1616,1669 1366,1669 Z"/>
 <path fill="rgb(0,69,134)" stroke="none" d="M 1477,1713 L 1477,1963 1727,1963 1727,1713 1477,1713 Z"/>
 <path fill="none" stroke="rgb(0,69,134)" stroke-linejoin="round" d="M 1477,1713 L 1477,1963 1727,1963 1727,1713 1477,1713 Z"/>
 <path fill="rgb(0,69,134)" stroke="none" d="M 1589,1765 L 1589,2015 1839,2015 1839,1765 1589,1765 Z"/>
 <path fill="none" stroke="rgb(0,69,134)" stroke-linejoin="round" d="M 1589,1765 L 1589,2015 1839,2015 1839,1765 1589,1765 Z"/>
 <path fill="rgb(0,69,134)" stroke="none" d="M 1700,1827 L 1700,2077 1950,2077 1950,1827 1700,1827 Z"/>
 <path fill="none" stroke="rgb(0,69,134)" stroke-linejoin="round" d="M 1700,1827 L 1700,2077 1950,2077 1950,1827 1700,1827 Z"/>
 <path fill="rgb(0,69,134)" stroke="none" d="M 1811,1899 L 1811,2149 2061,2149 2061,1899 1811,1899 Z"/>
 <path fill="none" stroke="rgb(0,69,134)" stroke-linejoin="round" d="M 1811,1899 L 1811,2149 2061,2149 2061,1899 1811,1899 Z"/>
 <path fill="rgb(0,69,134)" stroke="none" d="M 1923,1984 L 1923,2234 2173,2234 2173,1984 1923,1984 Z"/>
 <path fill="none" stroke="rgb(0,69,134)" stroke-linejoin="round" d="M 1923,1984 L 1923,2234 2173,2234 2173,1984 1923,1984 Z"/>
 <path fill="rgb(0,69,134)" stroke="none" d="M 2034,2083 L 2034,2333 2284,2333 2284,2083 2034,2083 Z"/>
 <path fill="none" stroke="rgb(0,69,134)" stroke-linejoin="round" d="M 2034,2083 L 2034,2333 2284,2333 2284,2083 2034,2083 Z"/>
 <path fill="rgb(0,69,134)" stroke="none" d="M 2145,2197 L 2145,2447 2395,2447 2395,2197 2145,2197 Z"/>
 <path fill="none" stroke="rgb(0,69,134)" stroke-linejoin="round" d="M 2145,2197 L 2145,2447 2395,2447 2395,2197 2145,2197 Z"/>
 <path fill="rgb(0,69,134)" stroke="none" d="M 2257,2329 L 2257,2579 2507,2579 2507,2329 2257,2329 Z"/>
 <path fill="none" stroke="rgb(0,69,134)" stroke-linejoin="round" d="M 2257,2329 L 2257,2579 2507,2579 2507,2329 2257,2329 Z"/>
 <path fill="rgb(0,69,134)" stroke="none" d="M 2368,2479 L 2368,2729 2618,2729 2618,2479 2368,2479 Z"/>
 <path fill="none" stroke="rgb(0,69,134)" stroke-linejoin="round" d="M 2368,2479 L 2368,2729 2618,2729 2618,2479 2368,2479 Z"/>
 <path fill="rgb(0,69,134)" stroke="none" d="M 2479,2649 L 2479,2899 2729,2899 2729,2649 2479,2649 Z"/>
 <path fill="none" stroke="rgb(0,69,134)" stroke-linejoin="round" d="M 2479,2649 L 2479,2899 2729,2899 2729,2649 2479,2649 Z"/>
 <path fill="rgb(0,69,134)" stroke="none" d="M 2591,2839 L 2591,3089 2841,3089 2841,2839 2591,2839 Z"/>
 <path fill="none" stroke="rgb(0,69,134)" stroke-linejoin="round" d="M 2591,2839 L 2591,3089 2841,3089 2841,2839 2591,2839 Z"/>
 <path fill="rgb(0,69,134)" stroke="none" d="M 2702,3049 L 2702,3299 2952,3299 2952,3049 2702,3049 Z"/>
 <path fill="none" stroke="rgb(0,69,134)" stroke-linejoin="round" d="M 2702,3049 L 2702,3299 2952,3299 2952,3049 2702,3049 Z"/>
 <path fill="rgb(0,69,134)" stroke="none" d="M 2813,3277 L 2813,3527 3063,3527 3063,3277 2813,3277 Z"/>
 <path fill="none" stroke="rgb(0,69,134)" stroke-linejoin="round" d="M 2813,3277 L 2813,3527 3063,3527 3063,3277 2813,3277 Z"/>
 <path fill="rgb(0,69,134)" stroke="none" d="M 2925,3521 L 2925,3771 3175,3771 3175,3521 2925,3521 Z"/>
 <path fill="none" stroke="rgb(0,69,134)" stroke-linejoin="round" d="M 2925,3521 L 2925,3771 3175,3771 3175,3521 2925,3521 Z"/>
 <path fill="rgb(0,69,134)" stroke="none" d="M 3036,3779 L 3036,4029 3286,4029 3286,3779 3036,3779 Z"/>
 <path fill="none" stroke="rgb(0,69,134)" stroke-linejoin="round" d="M 3036,3779 L 3036,4029 3286,4029 3286,3779 3036,3779 Z"/>
 <path fill="rgb(0,69,134)" stroke="none" d="M 3147,4046 L 3147,4296 3397,4296 3397,4046 3147,4046 Z"/>
 <path fill="none" stroke="rgb(0,69,134)" stroke-linejoin="round" d="M 3147,4046 L 3147,4296 3397,4296 3397,4046 3147,4046 Z"/>
 <path fill="rgb(0,69,134)" stroke="none" d="M 3259,4318 L 3259,4567 3509,4567 3509,4318 3259,4318 Z"/>
 <path fill="none" stroke="rgb(0,69,134)" stroke-linejoin="round" d="M 3259,4318 L 3259,4567 3509,4567 3509,4318 3259,4318 Z"/>
 <path fill="rgb(0,69,134)" stroke="none" d="M 3370,4589 L 3370,4839 3620,4839 3620,4589 3370,4589 Z"/>
 <path fill="none" stroke="rgb(0,69,134)" stroke-linejoin="round" d="M 3370,4589 L 3370,4839 3620,4839 3620,4589 3370,4589 Z"/>
 <path fill="rgb(0,69,134)" stroke="none" d="M 3481,4856 L 3481,5106 3731,5106 3731,4856 3481,4856 Z"/>
 <path fill="none" stroke="rgb(0,69,134)" stroke-linejoin="round" d="M 3481,4856 L 3481,5106 3731,5106 3731,4856 3481,4856 Z"/>
 <path fill="rgb(0,69,134)" stroke="none" d="M 3593,5113 L 3593,5363 3843,5363 3843,5113 3593,5113 Z"/>
 <path fill="none" stroke="rgb(0,69,134)" stroke-linejoin="round" d="M 3593,5113 L 3593,5363 3843,5363 3843,5113 3593,5113 Z"/>
 <path fill="rgb(0,69,134)" stroke="none" d="M 3704,5357 L 3704,5607 3954,5607 3954,5357 3704,5357 Z"/>
 <path fill="none" stroke="rgb(0,69,134)" stroke-linejoin="round" d="M 3704,5357 L 3704,5607 3954,5607 3954,5357 3704,5357 Z"/>
 <path fill="rgb(0,69,134)" stroke="none" d="M 3815,5584 L 3815,5834 4065,5834 4065,5584 3815,5584 Z"/>
 <path fill="none" stroke="rgb(0,69,134)" stroke-linejoin="round" d="M 3815,5584 L 3815,5834 4065,5834 4065,5584 3815,5584 Z"/>
 <path fill="rgb(0,69,134)" stroke="none" d="M 3927,5793 L 3927,6043 4177,6043 4177,5793 3927,5793 Z"/>
 <path fill="none" stroke="rgb(0,69,134)" stroke-linejoin="round" d="M 3927,5793 L 3927,6043 4177,6043 4177,5793 3927,5793 Z"/>
 <path fill="rgb(0,69,134)" stroke="none" d="M 4038,5983 L 4038,6233 4288,6233 4288,5983 4038,5983 Z"/>
 <path fill="none" stroke="rgb(0,69,134)" stroke-linejoin="round" d="M 4038,5983 L 4038,6233 4288,6233 4288,5983 4038,5983 Z"/>
 <path fill="rgb(0,69,134)" stroke="none" d="M 4149,6154 L 4149,6404 4399,6404 4399,6154 4149,6154 Z"/>
 <path fill="none" stroke="rgb(0,69,134)" stroke-linejoin="round" d="M 4149,6154 L 4149,6404 4399,6404 4399,6154 4149,6154 Z"/>
 <path fill="rgb(0,69,134)" stroke="none" d="M 4261,6307 L 4261,6557 4511,6557 4511,6307 4261,6307 Z"/>
 <path fill="none" stroke="rgb(0,69,134)" stroke-linejoin="round" d="M 4261,6307 L 4261,6557 4511,6557 4511,6307 4261,6307 Z"/>
 <path fill="rgb(0,69,134)" stroke="none" d="M 4372,6442 L 4372,6692 4622,6692 4622,6442 4372,6442 Z"/>
 <path fill="none" stroke="rgb(0,69,134)" stroke-linejoin="round" d="M 4372,6442 L 4372,6692 4622,6692 4622,6442 4372,6442 Z"/>
 <path fill="rgb(0,69,134)" stroke="none" d="M 4483,6562 L 4483,6812 4733,6812 4733,6562 4483,6562 Z"/>
 <path fill="none" stroke="rgb(0,69,134)" stroke-linejoin="round" d="M 4483,6562 L 4483,6812 4733,6812 4733,6562 4483,6562 Z"/>
 <path fill="rgb(0,69,134)" stroke="none" d="M 4595,6666 L 4595,6916 4845,6916 4845,6666 4595,6666 Z"/>
 <path fill="none" stroke="rgb(0,69,134)" stroke-linejoin="round" d="M 4595,6666 L 4595,6916 4845,6916 4845,6666 4595,6666 Z"/>
 <path fill="rgb(0,69,134)" stroke="none" d="M 4706,6758 L 4706,7008 4956,7008 4956,6758 4706,6758 Z"/>
 <path fill="none" stroke="rgb(0,69,134)" stroke-linejoin="round" d="M 4706,6758 L 4706,7008 4956,7008 4956,6758 4706,6758 Z"/>
 <path fill="rgb(0,69,134)" stroke="none" d="M 4817,6839 L 4817,7089 5067,7089 5067,6839 4817,6839 Z"/>
 <path fill="none" stroke="rgb(0,69,134)" stroke-linejoin="round" d="M 4817,6839 L 4817,7089 5067,7089 5067,6839 4817,6839 Z"/>
 <path fill="rgb(0,69,134)" stroke="none" d="M 4929,6909 L 4929,7159 5179,7159 5179,6909 4929,6909 Z"/>
 <path fill="none" stroke="rgb(0,69,134)" stroke-linejoin="round" d="M 4929,6909 L 4929,7159 5179,7159 5179,6909 4929,6909 Z"/>
 <path fill="rgb(0,69,134)" stroke="none" d="M 5040,6971 L 5040,7221 5290,7221 5290,6971 5040,6971 Z"/>
 <path fill="none" stroke="rgb(0,69,134)" stroke-linejoin="round" d="M 5040,6971 L 5040,7221 5290,7221 5290,6971 5040,6971 Z"/>
 <path fill="rgb(0,69,134)" stroke="none" d="M 5151,7025 L 5151,7275 5401,7275 5401,7025 5151,7025 Z"/>
 <path fill="none" stroke="rgb(0,69,134)" stroke-linejoin="round" d="M 5151,7025 L 5151,7275 5401,7275 5401,7025 5151,7025 Z"/>
 <path fill="rgb(0,69,134)" stroke="none" d="M 5263,7072 L 5263,7322 5513,7322 5513,7072 5263,7072 Z"/>
 <path fill="none" stroke="rgb(0,69,134)" stroke-linejoin="round" d="M 5263,7072 L 5263,7322 5513,7322 5513,7072 5263,7072 Z"/>
 <path fill="rgb(0,69,134)" stroke="none" d="M 5374,7114 L 5374,7364 5624,7364 5624,7114 5374,7114 Z"/>
 <path fill="none" stroke="rgb(0,69,134)" stroke-linejoin="round" d="M 5374,7114 L 5374,7364 5624,7364 5624,7114 5374,7114 Z"/>
 <path fill="rgb(0,69,134)" stroke="none" d="M 5485,7150 L 5485,7400 5735,7400 5735,7150 5485,7150 Z"/>
 <path fill="none" stroke="rgb(0,69,134)" stroke-linejoin="round" d="M 5485,7150 L 5485,7400 5735,7400 5735,7150 5485,7150 Z"/>
 <path fill="rgb(0,69,134)" stroke="none" d="M 5597,7182 L 5597,7432 5847,7432 5847,7182 5597,7182 Z"/>
 <path fill="none" stroke="rgb(0,69,134)" stroke-linejoin="round" d="M 5597,7182 L 5597,7432 5847,7432 5847,7182 5597,7182 Z"/>
 <path fill="rgb(0,69,134)" stroke="none" d="M 5708,7210 L 5708,7460 5958,7460 5958,7210 5708,7210 Z"/>
 <path fill="none" stroke="rgb(0,69,134)" stroke-linejoin="round" d="M 5708,7210 L 5708,7460 5958,7460 5958,7210 5708,7210 Z"/>
 <path fill="rgb(0,69,134)" stroke="none" d="M 5819,7235 L 5819,7485 6069,7485 6069,7235 5819,7235 Z"/>
 <path fill="none" stroke="rgb(0,69,134)" stroke-linejoin="round" d="M 5819,7235 L 5819,7485 6069,7485 6069,7235 5819,7235 Z"/>
 <path fill="rgb(0,69,134)" stroke="none" d="M 5931,7257 L 5931,7507 6181,7507 6181,7257 5931,7257 Z"/>
 <path fill="none" stroke="rgb(0,69,134)" stroke-linejoin="round" d="M 5931,7257 L 5931,7507 6181,7507 6181,7257 5931,7257 Z"/>
 <path fill="rgb(0,69,134)" stroke="none" d="M 6042,7276 L 6042,7526 6292,7526 6292,7276 6042,7276 Z"/>
 <path fill="none" stroke="rgb(0,69,134)" stroke-linejoin="round" d="M 6042,7276 L 6042,7526 6292,7526 6292,7276 6042,7276 Z"/>
 <path fill="rgb(0,69,134)" stroke="none" d="M 6153,7293 L 6153,7543 6403,7543 6403,7293 6153,7293 Z"/>
 <path fill="none" stroke="rgb(0,69,134)" stroke-linejoin="round" d="M 6153,7293 L 6153,7543 6403,7543 6403,7293 6153,7293 Z"/>
 <path fill="rgb(0,69,134)" stroke="none" d="M 6265,7309 L 6265,7559 6515,7559 6515,7309 6265,7309 Z"/>
 <path fill="none" stroke="rgb(0,69,134)" stroke-linejoin="round" d="M 6265,7309 L 6265,7559 6515,7559 6515,7309 6265,7309 Z"/>
 <path fill="rgb(0,69,134)" stroke="none" d="M 6376,7322 L 6376,7572 6626,7572 6626,7322 6376,7322 Z"/>
 <path fill="none" stroke="rgb(0,69,134)" stroke-linejoin="round" d="M 6376,7322 L 6376,7572 6626,7572 6626,7322 6376,7322 Z"/>
 <path fill="rgb(0,69,134)" stroke="none" d="M 6487,7334 L 6487,7584 6737,7584 6737,7334 6487,7334 Z"/>
 <path fill="none" stroke="rgb(0,69,134)" stroke-linejoin="round" d="M 6487,7334 L 6487,7584 6737,7584 6737,7334 6487,7334 Z"/>
 <path fill="rgb(0,69,134)" stroke="none" d="M 6599,7345 L 6599,7595 6849,7595 6849,7345 6599,7345 Z"/>
 <path fill="none" stroke="rgb(0,69,134)" stroke-linejoin="round" d="M 6599,7345 L 6599,7595 6849,7595 6849,7345 6599,7345 Z"/>
 <path fill="rgb(0,69,134)" stroke="none" d="M 6710,7354 L 6710,7604 6960,7604 6960,7354 6710,7354 Z"/>
 <path fill="none" stroke="rgb(0,69,134)" stroke-linejoin="round" d="M 6710,7354 L 6710,7604 6960,7604 6960,7354 6710,7354 Z"/>
 <path fill="rgb(0,69,134)" stroke="none" d="M 6821,7363 L 6821,7613 7071,7613 7071,7363 6821,7363 Z"/>
 <path fill="none" stroke="rgb(0,69,134)" stroke-linejoin="round" d="M 6821,7363 L 6821,7613 7071,7613 7071,7363 6821,7363 Z"/>
 <path fill="rgb(0,69,134)" stroke="none" d="M 6933,7370 L 6933,7620 7183,7620 7183,7370 6933,7370 Z"/>
 <path fill="none" stroke="rgb(0,69,134)" stroke-linejoin="round" d="M 6933,7370 L 6933,7620 7183,7620 7183,7370 6933,7370 Z"/>
 <path fill="rgb(0,69,134)" stroke="none" d="M 7044,7377 L 7044,7627 7294,7627 7294,7377 7044,7377 Z"/>
 <path fill="none" stroke="rgb(0,69,134)" stroke-linejoin="round" d="M 7044,7377 L 7044,7627 7294,7627 7294,7377 7044,7377 Z"/>
 <path fill="rgb(0,69,134)" stroke="none" d="M 7155,7383 L 7155,7633 7405,7633 7405,7383 7155,7383 Z"/>
 <path fill="none" stroke="rgb(0,69,134)" stroke-linejoin="round" d="M 7155,7383 L 7155,7633 7405,7633 7405,7383 7155,7383 Z"/>
 <path fill="rgb(0,69,134)" stroke="none" d="M 7267,7388 L 7267,7638 7517,7638 7517,7388 7267,7388 Z"/>
 <path fill="none" stroke="rgb(0,69,134)" stroke-linejoin="round" d="M 7267,7388 L 7267,7638 7517,7638 7517,7388 7267,7388 Z"/>
 <path fill="rgb(0,69,134)" stroke="none" d="M 7378,7393 L 7378,7643 7628,7643 7628,7393 7378,7393 Z"/>
 <path fill="none" stroke="rgb(0,69,134)" stroke-linejoin="round" d="M 7378,7393 L 7378,7643 7628,7643 7628,7393 7378,7393 Z"/>
 <path fill="rgb(0,69,134)" stroke="none" d="M 7489,7397 L 7489,7647 7739,7647 7739,7397 7489,7397 Z"/>
 <path fill="none" stroke="rgb(0,69,134)" stroke-linejoin="round" d="M 7489,7397 L 7489,7647 7739,7647 7739,7397 7489,7397 Z"/>
 <path fill="rgb(0,69,134)" stroke="none" d="M 7601,7401 L 7601,7651 7851,7651 7851,7401 7601,7401 Z"/>
 <path fill="none" stroke="rgb(0,69,134)" stroke-linejoin="round" d="M 7601,7401 L 7601,7651 7851,7651 7851,7401 7601,7401 Z"/>
 <path fill="rgb(0,69,134)" stroke="none" d="M 7712,7405 L 7712,7655 7962,7655 7962,7405 7712,7405 Z"/>
 <path fill="none" stroke="rgb(0,69,134)" stroke-linejoin="round" d="M 7712,7405 L 7712,7655 7962,7655 7962,7405 7712,7405 Z"/>
 <path fill="rgb(0,69,134)" stroke="none" d="M 7823,7408 L 7823,7658 8072,7658 8072,7408 7823,7408 Z"/>
 <path fill="none" stroke="rgb(0,69,134)" stroke-linejoin="round" d="M 7823,7408 L 7823,7658 8072,7658 8072,7408 7823,7408 Z"/>
 <path fill="rgb(0,69,134)" stroke="none" d="M 7935,7411 L 7935,7661 8184,7661 8184,7411 7935,7411 Z"/>
 <path fill="none" stroke="rgb(0,69,134)" stroke-linejoin="round" d="M 7935,7411 L 7935,7661 8184,7661 8184,7411 7935,7411 Z"/>
 <path fill="rgb(0,69,134)" stroke="none" d="M 8045,7413 L 8045,7663 8295,7663 8295,7413 8045,7413 Z"/>
 <path fill="none" stroke="rgb(0,69,134)" stroke-linejoin="round" d="M 8045,7413 L 8045,7663 8295,7663 8295,7413 8045,7413 Z"/>
 <path fill="rgb(0,69,134)" stroke="none" d="M 8156,7415 L 8156,7665 8406,7665 8406,7415 8156,7415 Z"/>
 <path fill="none" stroke="rgb(0,69,134)" stroke-linejoin="round" d="M 8156,7415 L 8156,7665 8406,7665 8406,7415 8156,7415 Z"/>
 <path fill="rgb(0,69,134)" stroke="none" d="M 8268,7417 L 8268,7667 8518,7667 8518,7417 8268,7417 Z"/>
 <path fill="none" stroke="rgb(0,69,134)" stroke-linejoin="round" d="M 8268,7417 L 8268,7667 8518,7667 8518,7417 8268,7417 Z"/>
 <path fill="rgb(0,69,134)" stroke="none" d="M 8379,7419 L 8379,7669 8629,7669 8629,7419 8379,7419 Z"/>
 <path fill="none" stroke="rgb(0,69,134)" stroke-linejoin="round" d="M 8379,7419 L 8379,7669 8629,7669 8629,7419 8379,7419 Z"/>
 <path fill="rgb(0,69,134)" stroke="none" d="M 8490,7421 L 8490,7671 8740,7671 8740,7421 8490,7421 Z"/>
 <path fill="none" stroke="rgb(0,69,134)" stroke-linejoin="round" d="M 8490,7421 L 8490,7671 8740,7671 8740,7421 8490,7421 Z"/>
 <path fill="rgb(0,69,134)" stroke="none" d="M 8602,7422 L 8602,7672 8852,7672 8852,7422 8602,7422 Z"/>
 <path fill="none" stroke="rgb(0,69,134)" stroke-linejoin="round" d="M 8602,7422 L 8602,7672 8852,7672 8852,7422 8602,7422 Z"/>
 <path fill="rgb(0,69,134)" stroke="none" d="M 8713,7423 L 8713,7673 8963,7673 8963,7423 8713,7423 Z"/>
 <path fill="none" stroke="rgb(0,69,134)" stroke-linejoin="round" d="M 8713,7423 L 8713,7673 8963,7673 8963,7423 8713,7423 Z"/>
 <path fill="rgb(0,69,134)" stroke="none" d="M 8824,7424 L 8824,7674 9074,7674 9074,7424 8824,7424 Z"/>
 <path fill="none" stroke="rgb(0,69,134)" stroke-linejoin="round" d="M 8824,7424 L 8824,7674 9074,7674 9074,7424 8824,7424 Z"/>
 <path fill="rgb(0,69,134)" stroke="none" d="M 8936,7425 L 8936,7675 9186,7675 9186,7425 8936,7425 Z"/>
 <path fill="none" stroke="rgb(0,69,134)" stroke-linejoin="round" d="M 8936,7425 L 8936,7675 9186,7675 9186,7425 8936,7425 Z"/>
 <path fill="rgb(0,69,134)" stroke="none" d="M 9047,7426 L 9047,7676 9297,7676 9297,7426 9047,7426 Z"/>
 <path fill="none" stroke="rgb(0,69,134)" stroke-linejoin="round" d="M 9047,7426 L 9047,7676 9297,7676 9297,7426 9047,7426 Z"/>
 <path fill="rgb(0,69,134)" stroke="none" d="M 9158,7427 L 9158,7677 9408,7677 9408,7427 9158,7427 Z"/>
 <path fill="none" stroke="rgb(0,69,134)" stroke-linejoin="round" d="M 9158,7427 L 9158,7677 9408,7677 9408,7427 9158,7427 Z"/>
 <path fill="rgb(0,69,134)" stroke="none" d="M 9270,7428 L 9270,7678 9520,7678 9520,7428 9270,7428 Z"/>
 <path fill="none" stroke="rgb(0,69,134)" stroke-linejoin="round" d="M 9270,7428 L 9270,7678 9520,7678 9520,7428 9270,7428 Z"/>
 <path fill="rgb(0,69,134)" stroke="none" d="M 9381,7429 L 9381,7679 9631,7679 9631,7429 9381,7429 Z"/>
 <path fill="none" stroke="rgb(0,69,134)" stroke-linejoin="round" d="M 9381,7429 L 9381,7679 9631,7679 9631,7429 9381,7429 Z"/>
 <path fill="rgb(0,69,134)" stroke="none" d="M 9492,7429 L 9492,7679 9742,7679 9742,7429 9492,7429 Z"/>
 <path fill="none" stroke="rgb(0,69,134)" stroke-linejoin="round" d="M 9492,7429 L 9492,7679 9742,7679 9742,7429 9492,7429 Z"/>
 <path fill="rgb(0,69,134)" stroke="none" d="M 9604,7430 L 9604,7680 9854,7680 9854,7430 9604,7430 Z"/>
 <path fill="none" stroke="rgb(0,69,134)" stroke-linejoin="round" d="M 9604,7430 L 9604,7680 9854,7680 9854,7430 9604,7430 Z"/>
 <path fill="rgb(0,69,134)" stroke="none" d="M 9715,7430 L 9715,7680 9965,7680 9965,7430 9715,7430 Z"/>
 <path fill="none" stroke="rgb(0,69,134)" stroke-linejoin="round" d="M 9715,7430 L 9715,7680 9965,7680 9965,7430 9715,7430 Z"/>
 <path fill="rgb(0,69,134)" stroke="none" d="M 9826,7431 L 9826,7681 10076,7681 10076,7431 9826,7431 Z"/>
 <path fill="none" stroke="rgb(0,69,134)" stroke-linejoin="round" d="M 9826,7431 L 9826,7681 10076,7681 10076,7431 9826,7431 Z"/>
 <path fill="rgb(0,69,134)" stroke="none" d="M 9938,7431 L 9938,7681 10188,7681 10188,7431 9938,7431 Z"/>
 <path fill="none" stroke="rgb(0,69,134)" stroke-linejoin="round" d="M 9938,7431 L 9938,7681 10188,7681 10188,7431 9938,7431 Z"/>
 <path fill="rgb(0,69,134)" stroke="none" d="M 10049,7431 L 10049,7681 10299,7681 10299,7431 10049,7431 Z"/>
 <path fill="none" stroke="rgb(0,69,134)" stroke-linejoin="round" d="M 10049,7431 L 10049,7681 10299,7681 10299,7431 10049,7431 Z"/>
 <path fill="rgb(0,69,134)" stroke="none" d="M 10160,7432 L 10160,7682 10410,7682 10410,7432 10160,7432 Z"/>
 <path fill="none" stroke="rgb(0,69,134)" stroke-linejoin="round" d="M 10160,7432 L 10160,7682 10410,7682 10410,7432 10160,7432 Z"/>
 <path fill="rgb(0,69,134)" stroke="none" d="M 10272,7432 L 10272,7682 10522,7682 10522,7432 10272,7432 Z"/>
 <path fill="none" stroke="rgb(0,69,134)" stroke-linejoin="round" d="M 10272,7432 L 10272,7682 10522,7682 10522,7432 10272,7432 Z"/>
 <path fill="rgb(0,69,134)" stroke="none" d="M 10383,7432 L 10383,7682 10633,7682 10633,7432 10383,7432 Z"/>
 <path fill="none" stroke="rgb(0,69,134)" stroke-linejoin="round" d="M 10383,7432 L 10383,7682 10633,7682 10633,7432 10383,7432 Z"/>
 <path fill="rgb(0,69,134)" stroke="none" d="M 10494,7433 L 10494,7683 10744,7683 10744,7433 10494,7433 Z"/>
 <path fill="none" stroke="rgb(0,69,134)" stroke-linejoin="round" d="M 10494,7433 L 10494,7683 10744,7683 10744,7433 10494,7433 Z"/>
 <path fill="rgb(0,69,134)" stroke="none" d="M 10606,7433 L 10606,7683 10856,7683 10856,7433 10606,7433 Z"/>
 <path fill="none" stroke="rgb(0,69,134)" stroke-linejoin="round" d="M 10606,7433 L 10606,7683 10856,7683 10856,7433 10606,7433 Z"/>
 <path fill="rgb(0,69,134)" stroke="none" d="M 10717,7433 L 10717,7683 10967,7683 10967,7433 10717,7433 Z"/>
 <path fill="none" stroke="rgb(0,69,134)" stroke-linejoin="round" d="M 10717,7433 L 10717,7683 10967,7683 10967,7433 10717,7433 Z"/>
 <path fill="rgb(0,69,134)" stroke="none" d="M 10828,7433 L 10828,7683 11078,7683 11078,7433 10828,7433 Z"/>
 <path fill="none" stroke="rgb(0,69,134)" stroke-linejoin="round" d="M 10828,7433 L 10828,7683 11078,7683 11078,7433 10828,7433 Z"/>
 <path fill="rgb(0,69,134)" stroke="none" d="M 10940,7433 L 10940,7683 11190,7683 11190,7433 10940,7433 Z"/>
 <path fill="none" stroke="rgb(0,69,134)" stroke-linejoin="round" d="M 10940,7433 L 10940,7683 11190,7683 11190,7433 10940,7433 Z"/>
 <path fill="rgb(0,69,134)" stroke="none" d="M 11051,7433 L 11051,7683 11301,7683 11301,7433 11051,7433 Z"/>
 <path fill="none" stroke="rgb(0,69,134)" stroke-linejoin="round" d="M 11051,7433 L 11051,7683 11301,7683 11301,7433 11051,7433 Z"/>
 <path fill="rgb(0,69,134)" stroke="none" d="M 11162,7433 L 11162,7683 11412,7683 11412,7433 11162,7433 Z"/>
 <path fill="none" stroke="rgb(0,69,134)" stroke-linejoin="round" d="M 11162,7433 L 11162,7683 11412,7683 11412,7433 11162,7433 Z"/>
 <path fill="rgb(0,69,134)" stroke="none" d="M 11274,7434 L 11274,7684 11524,7684 11524,7434 11274,7434 Z"/>
 <path fill="none" stroke="rgb(0,69,134)" stroke-linejoin="round" d="M 11274,7434 L 11274,7684 11524,7684 11524,7434 11274,7434 Z"/>
 <path fill="rgb(0,69,134)" stroke="none" d="M 11385,7434 L 11385,7684 11635,7684 11635,7434 11385,7434 Z"/>
 <path fill="none" stroke="rgb(0,69,134)" stroke-linejoin="round" d="M 11385,7434 L 11385,7684 11635,7684 11635,7434 11385,7434 Z"/>
 <path fill="rgb(0,69,134)" stroke="none" d="M 11496,7434 L 11496,7684 11746,7684 11746,7434 11496,7434 Z"/>
 <path fill="none" stroke="rgb(0,69,134)" stroke-linejoin="round" d="M 11496,7434 L 11496,7684 11746,7684 11746,7434 11496,7434 Z"/>
 <path fill="rgb(0,69,134)" stroke="none" d="M 11608,7434 L 11608,7684 11858,7684 11858,7434 11608,7434 Z"/>
 <path fill="none" stroke="rgb(0,69,134)" stroke-linejoin="round" d="M 11608,7434 L 11608,7684 11858,7684 11858,7434 11608,7434 Z"/>
 <path fill="rgb(0,69,134)" stroke="none" d="M 11719,7434 L 11719,7684 11969,7684 11969,7434 11719,7434 Z"/>
 <path fill="none" stroke="rgb(0,69,134)" stroke-linejoin="round" d="M 11719,7434 L 11719,7684 11969,7684 11969,7434 11719,7434 Z"/>
 <path fill="rgb(0,69,134)" stroke="none" d="M 11830,7434 L 11830,7684 12080,7684 12080,7434 11830,7434 Z"/>
 <path fill="none" stroke="rgb(0,69,134)" stroke-linejoin="round" d="M 11830,7434 L 11830,7684 12080,7684 12080,7434 11830,7434 Z"/>
 <path fill="rgb(0,69,134)" stroke="none" d="M 11942,7434 L 11942,7684 12192,7684 12192,7434 11942,7434 Z"/>
 <path fill="none" stroke="rgb(0,69,134)" stroke-linejoin="round" d="M 11942,7434 L 11942,7684 12192,7684 12192,7434 11942,7434 Z"/>
 <path fill="rgb(0,69,134)" stroke="none" d="M 12053,7434 L 12053,7684 12303,7684 12303,7434 12053,7434 Z"/>
 <path fill="none" stroke="rgb(0,69,134)" stroke-linejoin="round" d="M 12053,7434 L 12053,7684 12303,7684 12303,7434 12053,7434 Z"/>
 <text class="TextShape"><tspan class="TextParagraph" font-family="Liberation Sans, sans-serif" font-size="353px" font-weight="400"><tspan class="TextPosition" x="953" y="8745"><tspan fill="rgb(0,0,0)" stroke="none">0</tspan></tspan></tspan></text>
 <text class="TextShape"><tspan class="TextParagraph" font-family="Liberation Sans, sans-serif" font-size="353px" font-weight="400"><tspan class="TextPosition" x="3087" y="8745"><tspan fill="rgb(0,0,0)" stroke="none">20</tspan></tspan></tspan></text>
 <text class="TextShape"><tspan class="TextParagraph" font-family="Liberation Sans, sans-serif" font-size="353px" font-weight="400"><tspan class="TextPosition" x="5314" y="8745"><tspan fill="rgb(0,0,0)" stroke="none">40</tspan></tspan></tspan></text>
 <text class="TextShape"><tspan class="TextParagraph" font-family="Liberation Sans, sans-serif" font-size="353px" font-weight="400"><tspan class="TextPosition" x="7541" y="8745"><tspan fill="rgb(0,0,0)" stroke="none">60</tspan></tspan></tspan></text>
 <text class="TextShape"><tspan class="TextParagraph" font-family="Liberation Sans, sans-serif" font-size="353px" font-weight="400"><tspan class="TextPosition" x="9767" y="8745"><tspan fill="rgb(0,0,0)" stroke="none">80</tspan></tspan></tspan></text>
 <text class="TextShape"><tspan class="TextParagraph" font-family="Liberation Sans, sans-serif" font-size="353px" font-weight="400"><tspan class="TextPosition" x="11901" y="8745"><tspan fill="rgb(0,0,0)" stroke="none">100</tspan></tspan></tspan></text>
 <text class="TextShape"><tspan class="TextParagraph" font-family="Liberation Sans, sans-serif" font-size="353px" font-weight="400"><tspan class="TextPosition" x="14128" y="8745"><tspan fill="rgb(0,0,0)" stroke="none">120</tspan></tspan></tspan></text>
 <text class="TextShape"><tspan class="TextParagraph" font-family="Liberation Sans, sans-serif" font-size="353px" font-weight="400"><tspan class="TextPosition" x="611" y="8298"><tspan fill="rgb(0,0,0)" stroke="none">0</tspan></tspan></tspan></text>
 <text class="TextShape"><tspan class="TextParagraph" font-family="Liberation Sans, sans-serif" font-size="353px" font-weight="400"><tspan class="TextPosition" x="320" y="6998"><tspan fill="rgb(0,0,0)" stroke="none">0.2</tspan></tspan></tspan></text>
 <text class="TextShape"><tspan class="TextParagraph" font-family="Liberation Sans, sans-serif" font-size="353px" font-weight="400"><tspan class="TextPosition" x="320" y="5698"><tspan fill="rgb(0,0,0)" stroke="none">0.4</tspan></tspan></tspan></text>
 <text class="TextShape"><tspan class="TextParagraph" font-family="Liberation Sans, sans-serif" font-size="353px" font-weight="400"><tspan class="TextPosition" x="320" y="4398"><tspan fill="rgb(0,0,0)" stroke="none">0.6</tspan></tspan></tspan></text>
 <text class="TextShape"><tspan class="TextParagraph" font-family="Liberation Sans, sans-serif" font-size="353px" font-weight="400"><tspan class="TextPosition" x="320" y="3098"><tspan fill="rgb(0,0,0)" stroke="none">0.8</tspan></tspan></tspan></text>
 <text class="TextShape"><tspan class="TextParagraph" font-family="Liberation Sans, sans-serif" font-size="353px" font-weight="400"><tspan class="TextPosition" x="611" y="1798"><tspan fill="rgb(0,0,0)" stroke="none">1</tspan></tspan></tspan></text>
 <text class="TextShape"><tspan class="TextParagraph" font-family="Liberation Sans, sans-serif" font-size="353px" font-weight="400"><tspan class="TextPosition" x="320" y="498"><tspan fill="rgb(0,0,0)" stroke="none">1.2</tspan></tspan></tspan></text>
 <path fill="rgb(0,69,134)" stroke="none" d="M 15120,3899 L 15120,4110 15331,4110 15331,3899 15120,3899 Z"/>
 <path fill="none" stroke="rgb(0,69,134)" stroke-linejoin="round" d="M 15120,3899 L 15120,4110 15331,4110 15331,3899 15120,3899 Z"/>
 <path fill="rgb(255,66,14)" stroke="none" d="M 15120,4502 L 15225,4607 15331,4502 15225,4397 15120,4502 Z"/>
 <path fill="none" stroke="rgb(255,66,14)" stroke-linejoin="round" d="M 15120,4502 L 15225,4607 15331,4502 15225,4397 15120,4502 Z"/>
 <path fill="rgb(255,211,32)" stroke="none" d="M 15120,4894 L 15225,5105 15331,4894 15120,4894 Z"/>
 <path fill="none" stroke="rgb(255,211,32)" stroke-linejoin="round" d="M 15120,4894 L 15225,5105 15331,4894 15120,4894 Z"/>
 <text class="TextShape"><tspan class="TextParagraph" font-family="Liberation Sans, sans-serif" font-size="353px" font-weight="400"><tspan class="TextPosition" x="15431" y="4124"><tspan fill="rgb(0,0,0)" stroke="none">S</tspan></tspan></tspan></text>
 <text class="TextShape"><tspan class="TextParagraph" font-family="Liberation Sans, sans-serif" font-size="353px" font-weight="400"><tspan class="TextPosition" x="15431" y="4621"><tspan fill="rgb(0,0,0)" stroke="none">I</tspan></tspan></tspan></text>
 <text class="TextShape"><tspan class="TextParagraph" font-family="Liberation Sans, sans-serif" font-size="353px" font-weight="400"><tspan class="TextPosition" x="15431" y="5119"><tspan fill="rgb(0,0,0)" stroke="none">R</tspan></tspan></tspan></text>
</svg>