<svg class="main-svg" xmlns="http://www.w3.org/2000/svg" xmlns:xlink="http://www.w3.org/1999/xlink" width="914" height="450" style="background: rgb(255, 255, 255) none repeat scroll 0% 0%;"><defs id="defs-1a4a4f"><g class="clips"><clipPath id="clip1a4a4fxyplot" class="plotclip"><rect width="751" height="270"></rect></clipPath><clipPath class="axesclip" id="clip1a4a4fx"><rect x="80" y="0" width="751" height="450"></rect></clipPath><clipPath class="axesclip" id="clip1a4a4fy"><rect x="0" y="100" width="914" height="270"></rect></clipPath><clipPath class="axesclip" id="clip1a4a4fxy"><rect x="80" y="100" width="751" height="270"></rect></clipPath></g><g class="gradients"></g></defs><g class="bglayer"><rect width="100%" height="100%" style="fill:beige;"></rect></g><g class="layer-below"><g class="imagelayer"></g><g class="shapelayer"></g></g><g class="cartesianlayer"><g class="subplot xy"><g class="layer-subplot"><g class="shapelayer"></g><g class="imagelayer"></g></g><g class="gridlayer"><g class="x"><path class="xgrid crisp" transform="translate(230.2,0)" d="M0,100v270" style="stroke: rgb(229, 229, 206); stroke-opacity: 1; stroke-width: 1px;"></path><path class="xgrid crisp" transform="translate(380.4,0)" d="M0,100v270" style="stroke: rgb(229, 229, 206); stroke-opacity: 1; stroke-width: 1px;"></path><path class="xgrid crisp" transform="translate(530.6,0)" d="M0,100v270" style="stroke: rgb(229, 229, 206); stroke-opacity: 1; stroke-width: 1px;"></path><path class="xgrid crisp" transform="translate(680.8,0)" d="M0,100v270" style="stroke: rgb(229, 229, 206); stroke-opacity: 1; stroke-width: 1px;"></path></g><g class="y"><path class="ygrid crisp" transform="translate(0,333.36)" d="M80,0h751" style="stroke: rgb(229, 229, 206); stroke-opacity: 1; stroke-width: 1px;"></path><path class="ygrid crisp" transform="translate(0,296.71000000000004)" d="M80,0h751" style="stroke: rgb(229, 229, 206); stroke-opacity: 1; stroke-width: 1px;"></path><path class="ygrid crisp" transform="translate(0,260.07)" d="M80,0h751" style="stroke: rgb(229, 229, 206); stroke-opacity: 1; stroke-width: 1px;"></path><path class="ygrid crisp" transform="translate(0,223.43)" d="M80,0h751" style="stroke: rgb(229, 229, 206); stroke-opacity: 1; stroke-width: 1px;"></path><path class="ygrid crisp" transform="translate(0,186.79000000000002)" d="M80,0h751" style="stroke: rgb(229, 229, 206); stroke-opacity: 1; stroke-width: 1px;"></path><path class="ygrid crisp" transform="translate(0,150.14)" d="M80,0h751" style="stroke: rgb(229, 229, 206); stroke-opacity: 1; stroke-width: 1px;"></path><path class="ygrid crisp" transform="translate(0,113.5)" d="M80,0h751" style="stroke: rgb(229, 229, 206); stroke-opacity: 1; stroke-width: 1px;"></path></g></g><g class="zerolinelayer"><path class="xzl zl crisp" transform="translate(80,0)" d="M0,100v270" style="stroke: rgb(68, 68, 68); stroke-opacity: 1; stroke-width: 1px;"></path><path class="yzl zl crisp" transform="translate(0,370)" d="M80,0h751" style="stroke: rgb(68, 68, 68); stroke-opacity: 1; stroke-width: 1px;"></path></g><path class="xlines-below"></path><path class="ylines-below"></path><g class="overlines-below"></g><g class="xaxislayer-below"></g><g class="yaxislayer-below"></g><g class="overaxes-below"></g><g class="plot" transform="translate(80,100)" clip-path="url('#clip1a4a4fxyplot')"><g class="scatterlayer mlayer"><g class="trace scatter trace717e7f" style="stroke-miterlimit: 2; opacity: 1;"><g class="fills"></g><g class="errorbars"></g><g class="lines"><path class="js-line" style="vector-effect: non-scaling-stroke; fill: none; stroke: rgb(0, 0, 255); stroke-opacity: 1; stroke-width: 4px; opacity: 1;" d="M0,13.5L22.53,16.56L30.04,17.99L52.57,24.05L60.08,26.83L75.1,33.86L82.61,38.24L97.63,48.99L105.14,55.46L120.16,70.67L127.67,79.36L150.2,108.86L157.71,119.36L187.75,159.98L195.26,169L210.28,184.97L217.79,191.88L232.81,203.58L240.32,208.46L255.34,216.56L262.85,219.89L285.38,227.61L292.89,229.58L315.42,234.17L322.93,235.35L352.97,238.85L360.48,239.5L405.54,242.1L413.05,242.38L488.15,244.01L495.66,244.09L645.86,244.75L653.37,244.76L751,244.81"></path></g><g class="points"></g><g class="text"></g></g><g class="trace scatter tracef4c681" style="stroke-miterlimit: 2; opacity: 1;"><g class="fills"></g><g class="errorbars"></g><g class="lines"><path class="js-line" style="vector-effect: non-scaling-stroke; fill: none; stroke: rgb(255, 0, 0); stroke-opacity: 1; stroke-width: 4px; opacity: 1;" d="M0,267.44L30.04,264.77L37.55,263.77L60.08,259.61L67.59,257.75L90.12,250.37L97.63,247.26L120.16,236.09L127.67,231.92L157.71,215.61L165.22,212.32L180.24,207.59L187.75,206.3L202.77,206L210.28,206.9L225.3,210.43L232.81,212.86L262.85,224.74L270.36,227.85L300.4,239.43L307.91,241.99L337.95,250.61L345.46,252.38L375.5,258.11L383.01,259.24L420.56,263.54L428.07,264.18L480.64,267.19L488.15,267.47L563.25,269.12L570.76,269.21L728.47,269.92L735.98,269.92L751,269.94"></path></g><g class="points"></g><g class="text"></g></g><g class="trace scatter trace2bd870" style="stroke-miterlimit: 2; opacity: 1;"><g class="fills"></g><g class="errorbars"></g><g class="lines"><path class="js-line" style="vector-effect: non-scaling-stroke; fill: none; stroke: rgb(0, 128, 0); stroke-opacity: 1; stroke-width: 4px; opacity: 1;" d="M0,270L37.55,267.48L45.06,266.65L67.59,263.11L75.1,261.47L97.63,254.69L105.14,251.65L120.16,244.17L127.67,239.65L142.69,228.93L150.2,222.72L165.22,208.72L172.73,201.03L202.77,167.6L210.28,159.06L240.32,126.88L247.83,119.62L270.36,100.27L277.87,94.65L300.4,80.19L307.91,76.12L330.44,65.85L337.95,63.01L360.48,55.94L367.99,54.01L398.03,47.94L405.54,46.77L443.09,42.42L450.6,41.79L495.66,39.12L503.17,38.82L570.76,37.15L578.27,37.04L728.47,36.21L735.98,36.2L751,36.18"></path></g><g class="points"></g><g class="text"></g></g></g></g><g class="overplot"></g><path class="xlines-above crisp" style="fill: none;" d="M0,0"></path><path class="ylines-above crisp" style="fill: none;" d="M0,0"></path><g class="overlines-above"></g><g class="xaxislayer-above"><g class="xtick"><text text-anchor="middle" x="0" y="383" style="font-family: &quot;Open Sans&quot;, verdana, arial, sans-serif; font-size: 12px; fill: rgb(68, 68, 68); fill-opacity: 1; white-space: pre;" data-unformatted="0" data-math="N" transform="translate(80,0)">0</text></g><g class="xtick"><text text-anchor="middle" x="0" y="383" style="font-family: &quot;Open Sans&quot;, verdana, arial, sans-serif; font-size: 12px; fill: rgb(68, 68, 68); fill-opacity: 1; white-space: pre;" data-unformatted="20" data-math="N" transform="translate(230.2,0)">20</text></g><g class="xtick"><text text-anchor="middle" x="0" y="383" style="font-family: &quot;Open Sans&quot;, verdana, arial, sans-serif; font-size: 12px; fill: rgb(68, 68, 68); fill-opacity: 1; white-space: pre;" data-unformatted="40" data-math="N" transform="translate(380.4,0)">40</text></g><g class="xtick"><text text-anchor="middle" x="0" y="383" style="font-family: &quot;Open Sans&quot;, verdana, arial, sans-serif; font-size: 12px; fill: rgb(68, 68, 68); fill-opacity: 1; white-space: pre;" data-unformatted="60" data-math="N" transform="translate(530.6,0)">60</text></g><g class="xtick"><text text-anchor="middle" x="0" y="383" style="font-family: &quot;Open Sans&quot;, verdana, arial, sans-serif; font-size: 12px; fill: rgb(68, 68, 68); fill-opacity: 1; white-space: pre;" data-unformatted="80" data-math="N" transform="translate(680.8,0)">80</text></g><g class="xtick"><text text-anchor="middle" x="0" y="383" style="font-family: &quot;Open Sans&quot;, verdana, arial, sans-serif; font-size: 12px; fill: rgb(68, 68, 68); fill-opacity: 1; white-space: pre;" data-unformatted="100" data-math="N" transform="translate(831,0)">100</text></g></g><g class="yaxislayer-above"><g class="ytick"><text text-anchor="end" x="79" y="4.199999999999999" style="font-family: &quot;Open Sans&quot;, verdana, arial, sans-serif; font-size: 12px; fill: rgb(68, 68, 68); fill-opacity: 1; white-space: pre;" data-unformatted="0" data-math="N" transform="translate(0,370)">0</text></g><g class="ytick"><text text-anchor="end" x="79" y="4.199999999999999" style="font-family: &quot;Open Sans&quot;, verdana, arial, sans-serif; font-size: 12px; fill: rgb(68, 68, 68); fill-opacity: 1; white-space: pre;" data-unformatted="10M" data-math="N" transform="translate(0,333.36)">10M</text></g><g class="ytick"><text text-anchor="end" x="79" y="4.199999999999999" style="font-family: &quot;Open Sans&quot;, verdana, arial, sans-serif; font-size: 12px; fill: rgb(68, 68, 68); fill-opacity: 1; white-space: pre;" data-unformatted="20M" data-math="N" transform="translate(0,296.71000000000004)">20M</text></g><g class="ytick"><text text-anchor="end" x="79" y="4.199999999999999" style="font-family: &quot;Open Sans&quot;, verdana, arial, sans-serif; font-size: 12px; fill: rgb(68, 68, 68); fill-opacity: 1; white-space: pre;" data-unformatted="30M" data-math="N" transform="translate(0,260.07)">30M</text></g><g class="ytick"><text text-anchor="end" x="79" y="4.199999999999999" style="font-family: &quot;Open Sans&quot;, verdana, arial, sans-serif; font-size: 12px; fill: rgb(68, 68, 68); fill-opacity: 1; white-space: pre;" data-unformatted="40M" data-math="N" transform="translate(0,223.43)">40M</text></g><g class="ytick"><text text-anchor="end" x="79" y="4.199999999999999" style="font-family: &quot;Open Sans&quot;, verdana, arial, sans-serif; font-size: 12px; fill: rgb(68, 68, 68); fill-opacity: 1; white-space: pre;" data-unformatted="50M" data-math="N" transform="translate(0,186.79000000000002)">50M</text></g><g class="ytick"><text text-anchor="end" x="79" y="4.199999999999999" style="font-family: &quot;Open Sans&quot;, verdana, arial, sans-serif; font-size: 12px; fill: rgb(68, 68, 68); fill-opacity: 1; white-space: pre;" data-unformatted="60M" data-math="N" transform="translate(0,150.14)">60M</text></g><g class="ytick"><text text-anchor="end" x="79" y="4.199999999999999" style="font-family: &quot;Open Sans&quot;, verdana, arial, sans-serif; font-size: 12px; fill: rgb(68, 68, 68); fill-opacity: 1; white-space: pre;" data-unformatted="70M" data-math="N" transform="translate(0,113.5)">70M</text></g></g><g class="overaxes-above"></g></g></g><g class="polarlayer"></g><g class="ternarylayer"></g><g class="geolayer"></g><g class="funnelarealayer"></g><g class="pielayer"></g><g class="treemaplayer"></g><g class="sunburstlayer"></g><g class="glimages"></g><defs id="topdefs-1a4a4f"><g class="clips"></g><clipPath id="legend1a4a4f"><rect width="56" height="67" x="0" y="0"></rect></clipPath></defs><g class="indicatorlayer"></g><g class="layer-above"><g class="imagelayer"></g><g class="shapelayer"></g></g><g class="infolayer"><g class="legend" pointer-events="all" transform="translate(846.02,100)"><rect class="bg" shape-rendering="crispEdges" style="stroke: rgb(68, 68, 68); stroke-opacity: 1; fill: rgb(255, 255, 255); fill-opacity: 1; stroke-width: 0px;" width="56" height="67" x="0" y="0"></rect><g class="scrollbox" transform="" clip-path="url('#legend1a4a4f')"><g class="groups"><g class="traces" style="opacity: 1;" transform="translate(0,14.5)"><text class="legendtext" text-anchor="start" style="font-family: &quot;Open Sans&quot;, verdana, arial, sans-serif; font-size: 12px; fill: rgb(68, 68, 68); fill-opacity: 1; white-space: pre;" x="40" y="4.680000000000001" data-unformatted="S" data-math="N">S</text><g class="layers" style="opacity: 1;"><g class="legendfill"></g><g class="legendlines"><path class="js-line" d="M5,0h30" style="fill: none; stroke: rgb(0, 0, 255); stroke-opacity: 1; stroke-width: 4px;"></path></g><g class="legendsymbols"><g class="legendpoints"></g></g></g><rect class="legendtoggle" style="cursor: pointer; fill: rgb(0, 0, 0); fill-opacity: 0;" pointer-events="all" x="0" y="-9.5" width="50.383331298828125" height="19"></rect></g><g class="traces" style="opacity: 1;" transform="translate(0,33.5)"><text class="legendtext" text-anchor="start" style="font-family: &quot;Open Sans&quot;, verdana, arial, sans-serif; font-size: 12px; fill: rgb(68, 68, 68); fill-opacity: 1; white-space: pre;" x="40" y="4.680000000000001" data-unformatted="I" data-math="N">I</text><g class="layers" style="opacity: 1;"><g class="legendfill"></g><g class="legendlines"><path class="js-line" d="M5,0h30" style="fill: none; stroke: rgb(255, 0, 0); stroke-opacity: 1; stroke-width: 4px;"></path></g><g class="legendsymbols"><g class="legendpoints"></g></g></g><rect class="legendtoggle" style="cursor: pointer; fill: rgb(0, 0, 0); fill-opacity: 0;" pointer-events="all" x="0" y="-9.5" width="50.383331298828125" height="19"></rect></g><g class="traces" style="opacity: 1;" transform="translate(0,52.5)"><text class="legendtext" text-anchor="start" style="font-family: &quot;Open Sans&quot;, verdana, arial, sans-serif; font-size: 12px; fill: rgb(68, 68, 68); fill-opacity: 1; white-space: pre;" x="40" y="4.680000000000001" data-unformatted="R" data-math="N">R</text><g class="layers" style="opacity: 1;"><g class="legendfill"></g><g class="legendlines"><path class="js-line" d="M5,0h30" style="fill: none; stroke: rgb(0, 128, 0); stroke-opacity: 1; stroke-width: 4px;"></path></g><g class="legendsymbols"><g class="legendpoints"></g></g></g><rect class="legendtoggle" style="cursor: pointer; fill: rgb(0, 0, 0); fill-opacity: 0;" pointer-events="all" x="0" y="-9.5" width="50.383331298828125" height="19"></rect></g></g></g><rect class="scrollbar" rx="20" ry="3" width="0" height="0" style="fill: rgb(128, 139, 164); fill-opacity: 1;" x="0" y="0"></rect></g><g class="g-gtitle"><text class="gtitle" style="font-family: &quot;Open Sans&quot;, verdana, arial, sans-serif; font-size: 17px; fill: rgb(68, 68, 68); opacity: 1; font-weight: normal; white-space: pre;" x="457" y="50" text-anchor="middle" dy="0em" data-unformatted="SIR model" data-math="N">SIR model</text></g><g class="g-xtitle"><text class="xtitle" style="font-family: &quot;Open Sans&quot;, verdana, arial, sans-serif; font-size: 14px; fill: rgb(68, 68, 68); opacity: 1; font-weight: normal; white-space: pre;" x="455.5" y="422" text-anchor="middle" data-unformatted="t" data-math="N">t</text></g><g class="g-ytitle"></g></g><g class="menulayer"></g><g class="zoomlayer"></g><g class="hoverlayer"></g></svg>