<?xml version="1.0" encoding="UTF-8" standalone="no"?>
<svg
   xmlns:dc="http://purl.org/dc/elements/1.1/"
   xmlns:cc="http://creativecommons.org/ns#"
   xmlns:rdf="http://www.w3.org/1999/02/22-rdf-syntax-ns#"
   xmlns:svg="http://www.w3.org/2000/svg"
   xmlns="http://www.w3.org/2000/svg"
   xmlns:sodipodi="http://sodipodi.sourceforge.net/DTD/sodipodi-0.dtd"
   xmlns:inkscape="http://www.inkscape.org/namespaces/inkscape"
   inkscape:version="1.0 (1.0+r73+1)"
   sodipodi:docname="4.svg"
   viewBox="0 0 849.67727 497.53333"
   height="497.53333"
   width="849.67731"
   xml:space="preserve"
   id="svg901"
   version="1.1"><sodipodi:namedview
     inkscape:current-layer="svg901"
     inkscape:window-maximized="1"
     inkscape:window-y="27"
     inkscape:window-x="59"
     inkscape:cy="248.76666"
     inkscape:cx="424.83866"
     inkscape:zoom="1.0759804"
     fit-margin-bottom="0"
     fit-margin-right="0"
     fit-margin-left="0"
     fit-margin-top="0"
     showgrid="false"
     id="namedview129"
     inkscape:window-height="1025"
     inkscape:window-width="1861"
     inkscape:pageshadow="2"
     inkscape:pageopacity="0"
     guidetolerance="10"
     gridtolerance="10"
     objecttolerance="10"
     borderopacity="1"
     bordercolor="#666666"
     pagecolor="#ffffff" /><metadata
     id="metadata907"><rdf:RDF><cc:Work
         rdf:about=""><dc:format>image/svg+xml</dc:format><dc:type
           rdf:resource="http://purl.org/dc/dcmitype/StillImage" /><dc:title></dc:title></cc:Work></rdf:RDF></metadata><defs
     id="defs905"><clipPath
       id="clipPath1025"
       clipPathUnits="userSpaceOnUse"><path
         id="path1023"
         d="M 76.266,38.434 H 733.707 V 573.567 H 76.266 Z" /></clipPath><clipPath
       id="clipPath1035"
       clipPathUnits="userSpaceOnUse"><path
         id="path1033"
         d="M 0,0 H 810 V 612 H 0 Z" /></clipPath><clipPath
       id="clipPath1083"
       clipPathUnits="userSpaceOnUse"><path
         id="path1081"
         d="M 0,0 H 810 V 612 H 0 Z" /></clipPath><clipPath
       id="clipPath1111"
       clipPathUnits="userSpaceOnUse"><path
         id="path1109"
         d="M 0,0 H 810 V 612 H 0 Z" /></clipPath><clipPath
       id="clipPath1141"
       clipPathUnits="userSpaceOnUse"><path
         id="path1139"
         d="M 0,0 H 810 V 612 H 0 Z" /></clipPath><clipPath
       id="clipPath1401"
       clipPathUnits="userSpaceOnUse"><path
         id="path1399"
         d="M 467.242,329.242 H 720.215 V 532.984 H 467.242 Z" /></clipPath><clipPath
       id="clipPath1411"
       clipPathUnits="userSpaceOnUse"><path
         id="path1409"
         d="M 0,0 H 810 V 612 H 0 Z" /></clipPath><clipPath
       id="clipPath1421"
       clipPathUnits="userSpaceOnUse"><path
         id="path1419"
         d="M 76.266,38.434 H 733.707 V 573.567 H 76.266 Z" /></clipPath><clipPath
       id="clipPath1431"
       clipPathUnits="userSpaceOnUse"><path
         id="path1429"
         d="M 0,0 H 810 V 612 H 0 Z" /></clipPath><clipPath
       id="clipPath1447"
       clipPathUnits="userSpaceOnUse"><path
         id="path1445"
         d="M 0,0 H 810 V 612 H 0 Z" /></clipPath><clipPath
       id="clipPath1457"
       clipPathUnits="userSpaceOnUse"><path
         id="path1455"
         d="M 76.266,38.434 H 733.707 V 573.567 H 76.266 Z" /></clipPath><clipPath
       id="clipPath1467"
       clipPathUnits="userSpaceOnUse"><path
         id="path1465"
         d="M 0,0 H 810 V 612 H 0 Z" /></clipPath><clipPath
       id="clipPath1495"
       clipPathUnits="userSpaceOnUse"><path
         id="path1493"
         d="M 467.051,431.387 H 517.77 V 532.75 h -50.719 z" /></clipPath><clipPath
       id="clipPath1505"
       clipPathUnits="userSpaceOnUse"><path
         id="path1503"
         d="M 0,0 H 810 V 612 H 0 Z" /></clipPath><clipPath
       id="clipPath1515"
       clipPathUnits="userSpaceOnUse"><path
         id="path1513"
         d="M 76.266,38.434 H 733.707 V 573.567 H 76.266 Z" /></clipPath><clipPath
       id="clipPath1525"
       clipPathUnits="userSpaceOnUse"><path
         id="path1523"
         d="M 0,0 H 810 V 612 H 0 Z" /></clipPath><clipPath
       id="clipPath1737"
       clipPathUnits="userSpaceOnUse"><path
         id="path1735"
         d="M 127.379,327.953 H 378.477 V 530.207 H 127.379 Z" /></clipPath><clipPath
       id="clipPath1747"
       clipPathUnits="userSpaceOnUse"><path
         id="path1745"
         d="M 0,0 H 810 V 612 H 0 Z" /></clipPath><clipPath
       id="clipPath1757"
       clipPathUnits="userSpaceOnUse"><path
         id="path1755"
         d="M 76.266,38.434 H 733.707 V 573.567 H 76.266 Z" /></clipPath><clipPath
       id="clipPath1767"
       clipPathUnits="userSpaceOnUse"><path
         id="path1765"
         d="M 0,0 H 810 V 612 H 0 Z" /></clipPath><clipPath
       id="clipPath1783"
       clipPathUnits="userSpaceOnUse"><path
         id="path1781"
         d="M 0,0 H 810 V 612 H 0 Z" /></clipPath><clipPath
       id="clipPath1793"
       clipPathUnits="userSpaceOnUse"><path
         id="path1791"
         d="M 76.266,38.434 H 733.707 V 573.567 H 76.266 Z" /></clipPath><clipPath
       id="clipPath1803"
       clipPathUnits="userSpaceOnUse"><path
         id="path1801"
         d="M 0,0 H 810 V 612 H 0 Z" /></clipPath><clipPath
       id="clipPath1819"
       clipPathUnits="userSpaceOnUse"><path
         id="path1817"
         d="M 0,0 H 810 V 612 H 0 Z" /></clipPath><clipPath
       id="clipPath1829"
       clipPathUnits="userSpaceOnUse"><path
         id="path1827"
         d="M 76.266,38.434 H 733.707 V 573.567 H 76.266 Z" /></clipPath><clipPath
       id="clipPath1839"
       clipPathUnits="userSpaceOnUse"><path
         id="path1837"
         d="M 0,0 H 810 V 612 H 0 Z" /></clipPath><clipPath
       id="clipPath1855"
       clipPathUnits="userSpaceOnUse"><path
         id="path1853"
         d="M 76.266,38.434 H 733.707 V 573.567 H 76.266 Z" /></clipPath><clipPath
       id="clipPath1865"
       clipPathUnits="userSpaceOnUse"><path
         id="path1863"
         d="M 0,0 H 810 V 612 H 0 Z" /></clipPath><clipPath
       id="clipPath1881"
       clipPathUnits="userSpaceOnUse"><path
         id="path1879"
         d="m 127.223,429.742 h 49.898 v 100.973 h -49.898 z" /></clipPath><clipPath
       id="clipPath1891"
       clipPathUnits="userSpaceOnUse"><path
         id="path1889"
         d="M 0,0 H 810 V 612 H 0 Z" /></clipPath><clipPath
       id="clipPath1901"
       clipPathUnits="userSpaceOnUse"><path
         id="path1899"
         d="M 76.266,38.434 H 733.707 V 573.567 H 76.266 Z" /></clipPath><clipPath
       id="clipPath1911"
       clipPathUnits="userSpaceOnUse"><path
         id="path1909"
         d="M 0,0 H 810 V 612 H 0 Z" /></clipPath></defs><g
     transform="matrix(1.3333333,0,0,1.3333333,-115.14266,-159.23332)"
     id="g909"><g
       transform="matrix(2,0,0,2,-743.799,-31.47301)"
       id="g2466"><g
         id="g1027"><g
           id="g1029"><g
             id="g1031"
             clip-path="url(#clipPath1035)"><g
               id="g1037"><path
                 d="m 415.273,114.598 h 318.434 v 69.098 H 415.273 Z"
                 style="fill:#bdd7ee;fill-opacity:1;fill-rule:nonzero;stroke:none"
                 id="path1039" /></g></g></g></g><path
         d="m 458.375,123.309 c -0.613,-0.524 -1.387,-0.786 -2.324,-0.786 -1.332,0 -2.418,0.497 -3.25,1.493 -0.836,0.996 -1.254,2.625 -1.254,4.882 0,2.2 0.402,3.786 1.203,4.754 0.801,0.961 1.824,1.446 3.066,1.446 1.161,0 2.11,-0.379 2.848,-1.141 0.742,-0.762 1.109,-1.773 1.109,-3.031 0,-1.192 -0.351,-2.16 -1.054,-2.91 -0.703,-0.75 -1.547,-1.125 -2.531,-1.125 -0.876,0 -1.606,0.347 -2.196,1.043 0.09,-1.418 0.309,-2.352 0.653,-2.797 0.343,-0.449 0.765,-0.676 1.261,-0.676 0.379,0 0.684,0.113 0.918,0.336 0.238,0.226 0.383,0.574 0.438,1.043 l 2.285,-0.25 c -0.168,-0.996 -0.559,-1.758 -1.172,-2.281 z m -3.711,5.855 c 0.316,-0.355 0.699,-0.535 1.152,-0.535 0.469,0 0.864,0.187 1.176,0.559 0.313,0.371 0.473,0.957 0.473,1.761 0,0.778 -0.149,1.34 -0.438,1.68 -0.293,0.34 -0.656,0.512 -1.093,0.512 -0.454,0 -0.856,-0.207 -1.207,-0.625 -0.356,-0.418 -0.532,-1.008 -0.532,-1.778 0,-0.695 0.157,-1.218 0.469,-1.574 z m 7.652,-5.383 c -0.804,1.02 -1.207,2.692 -1.207,5.008 0,2.363 0.364,4.008 1.098,4.926 0.734,0.926 1.699,1.383 2.898,1.383 1.196,0 2.125,-0.418 2.79,-1.262 0.808,-1.016 1.21,-2.691 1.21,-5.02 0,-2.336 -0.398,-4.007 -1.203,-5.019 -0.672,-0.848 -1.601,-1.274 -2.797,-1.274 -1.191,0 -2.121,0.418 -2.789,1.258 z m 3.551,0.969 c 0.219,0.184 0.403,0.547 0.551,1.086 0.144,0.543 0.219,1.531 0.219,2.98 0,1.442 -0.082,2.469 -0.246,3.075 -0.121,0.468 -0.297,0.797 -0.52,0.976 -0.223,0.184 -0.476,0.274 -0.766,0.274 -0.285,0 -0.539,-0.09 -0.761,-0.266 -0.219,-0.184 -0.403,-0.543 -0.551,-1.082 -0.145,-0.539 -0.219,-1.535 -0.219,-2.977 0,-1.449 0.082,-2.472 0.246,-3.086 0.121,-0.468 0.297,-0.796 0.524,-0.98 0.222,-0.18 0.476,-0.27 0.761,-0.27 0.29,0 0.54,0.09 0.762,0.27 z m 18.195,4.594 c 0,-0.688 -0.042,-1.219 -0.132,-1.586 -0.086,-0.371 -0.239,-0.703 -0.461,-0.992 -0.219,-0.293 -0.547,-0.532 -0.977,-0.719 -0.433,-0.188 -0.91,-0.281 -1.43,-0.281 -1.179,0 -2.16,0.504 -2.941,1.511 v -1.312 h -2.191 v 8.922 h 2.359 v -4.039 c 0,-0.996 0.063,-1.68 0.184,-2.047 0.117,-0.371 0.343,-0.668 0.668,-0.895 0.32,-0.222 0.687,-0.336 1.101,-0.336 0.317,0 0.59,0.078 0.817,0.235 0.226,0.16 0.39,0.379 0.492,0.664 0.097,0.277 0.148,0.902 0.148,1.867 v 4.551 h 2.363 z m 2.219,5.543 h 2.364 v -4.332 c 0,-0.86 0.062,-1.473 0.187,-1.844 0.125,-0.367 0.336,-0.649 0.625,-0.848 0.293,-0.191 0.621,-0.293 0.984,-0.293 0.301,0 0.543,0.063 0.719,0.188 0.176,0.121 0.309,0.308 0.391,0.562 0.082,0.25 0.125,0.813 0.125,1.676 v 4.891 h 2.363 v -4.285 c 0,-0.84 0.063,-1.454 0.191,-1.84 0.129,-0.391 0.34,-0.688 0.629,-0.891 0.293,-0.199 0.606,-0.301 0.934,-0.301 0.453,0 0.789,0.168 1.008,0.504 0.164,0.258 0.246,0.832 0.246,1.715 v 5.098 h 2.359 v -5.703 c 0,-0.852 -0.082,-1.469 -0.246,-1.848 -0.222,-0.516 -0.558,-0.906 -1.012,-1.172 -0.457,-0.266 -1.011,-0.398 -1.668,-0.398 -0.511,0 -1,0.117 -1.453,0.351 -0.453,0.235 -0.875,0.594 -1.269,1.067 -0.266,-0.473 -0.613,-0.832 -1.031,-1.067 -0.418,-0.234 -0.918,-0.351 -1.489,-0.351 -1.074,0 -2,0.472 -2.777,1.418 v -1.219 h -2.18 z m 28.399,-5.543 c 0,-0.688 -0.043,-1.219 -0.129,-1.586 -0.086,-0.371 -0.239,-0.703 -0.461,-0.992 -0.223,-0.293 -0.547,-0.532 -0.981,-0.719 -0.429,-0.188 -0.906,-0.281 -1.425,-0.281 -1.184,0 -2.164,0.504 -2.942,1.511 v -1.312 h -2.191 v 8.922 h 2.359 v -4.039 c 0,-0.996 0.063,-1.68 0.18,-2.047 0.121,-0.371 0.344,-0.668 0.668,-0.895 0.324,-0.222 0.691,-0.336 1.101,-0.336 0.317,0 0.594,0.078 0.821,0.235 0.226,0.16 0.386,0.379 0.492,0.664 0.098,0.277 0.148,0.902 0.148,1.867 v 4.551 h 2.36 v -5.543"
         style="fill:#000000;fill-opacity:1;fill-rule:nonzero;stroke:none"
         id="path1041" /><path
         d="m 516.824,129.242 h 4.637 v 2.359 h -4.637 z"
         style="fill:#000000;fill-opacity:1;fill-rule:nonzero;stroke:none"
         id="path1043" /><path
         d="m 531.023,122.57 h -2.359 v 4.438 c -0.73,-0.832 -1.594,-1.246 -2.59,-1.246 -1.086,0 -1.984,0.394 -2.695,1.183 -0.715,0.785 -1.067,1.934 -1.067,3.446 0,1.48 0.364,2.632 1.094,3.457 0.731,0.828 1.61,1.238 2.633,1.238 0.508,0 1.004,-0.121 1.504,-0.371 0.492,-0.25 0.922,-0.629 1.285,-1.141 v 1.313 h 2.195 z m -5.734,5.668 c 0.379,-0.445 0.848,-0.672 1.406,-0.672 0.578,0 1.051,0.227 1.422,0.68 0.371,0.449 0.555,1.188 0.555,2.215 0,0.918 -0.192,1.609 -0.57,2.07 -0.383,0.461 -0.848,0.692 -1.391,0.692 -0.68,0 -1.215,-0.309 -1.594,-0.926 -0.265,-0.422 -0.394,-1.113 -0.394,-2.063 0,-0.886 0.187,-1.55 0.566,-1.996 z m 8.098,4.672 c 0.386,0.711 0.949,1.254 1.695,1.625 0.742,0.367 1.52,0.551 2.336,0.551 1.324,0 2.418,-0.441 3.293,-1.328 0.867,-0.891 1.305,-2.008 1.305,-3.36 0,-1.336 -0.43,-2.445 -1.297,-3.32 -0.86,-0.875 -1.965,-1.316 -3.317,-1.316 -0.871,0 -1.664,0.195 -2.375,0.582 -0.707,0.383 -1.254,0.945 -1.64,1.676 -0.387,0.734 -0.578,1.496 -0.578,2.281 0,1.023 0.191,1.89 0.578,2.609 z m 2.472,-4.519 c 0.418,-0.469 0.934,-0.703 1.551,-0.703 0.617,0 1.133,0.234 1.551,0.703 0.418,0.472 0.625,1.144 0.625,2.019 0,0.895 -0.207,1.578 -0.625,2.047 -0.418,0.473 -0.934,0.707 -1.551,0.707 -0.617,0 -1.133,-0.234 -1.551,-0.707 -0.421,-0.469 -0.632,-1.148 -0.632,-2.031 0,-0.883 0.211,-1.563 0.632,-2.035 z m 7.938,9.89 h 2.363 v -4.496 c 0.442,0.477 0.863,0.813 1.266,1.008 0.398,0.195 0.847,0.293 1.34,0.293 1.035,0 1.918,-0.41 2.644,-1.238 0.731,-0.825 1.094,-1.981 1.094,-3.473 0,-1.453 -0.363,-2.582 -1.086,-3.395 -0.723,-0.812 -1.602,-1.218 -2.637,-1.218 -0.593,0 -1.136,0.14 -1.621,0.422 -0.488,0.281 -0.875,0.644 -1.16,1.089 v -1.308 h -2.203 z m 2.91,-9.984 c 0.379,-0.445 0.859,-0.668 1.438,-0.668 0.55,0 1.015,0.226 1.39,0.68 0.375,0.453 0.567,1.148 0.567,2.082 0,1.004 -0.184,1.722 -0.547,2.164 -0.364,0.441 -0.821,0.66 -1.371,0.66 -0.571,0 -1.055,-0.238 -1.454,-0.719 -0.398,-0.48 -0.597,-1.219 -0.597,-2.223 0,-0.871 0.191,-1.535 0.574,-1.976 z m 12.27,4.726 c -0.254,0.2 -0.567,0.301 -0.938,0.301 -0.539,0 -0.996,-0.195 -1.359,-0.582 -0.364,-0.394 -0.555,-0.933 -0.571,-1.637 h 5.914 c 0.036,-1.808 -0.332,-3.152 -1.097,-4.027 -0.77,-0.875 -1.817,-1.316 -3.145,-1.316 -1.183,0 -2.16,0.418 -2.933,1.258 -0.77,0.835 -1.157,1.996 -1.157,3.472 0,1.238 0.293,2.262 0.879,3.074 0.746,1.016 1.895,1.52 3.446,1.52 0.98,0 1.796,-0.223 2.449,-0.672 0.652,-0.453 1.133,-1.109 1.433,-1.973 l -2.355,-0.394 c -0.125,0.449 -0.316,0.773 -0.566,0.976 z m -2.825,-3.363 c -0.007,-0.64 0.157,-1.152 0.496,-1.527 0.336,-0.375 0.762,-0.567 1.278,-0.567 0.48,0 0.89,0.18 1.226,0.536 0.336,0.355 0.512,0.875 0.528,1.558 z m 16.008,-7.09 h -2.359 v 4.438 c -0.727,-0.832 -1.59,-1.246 -2.59,-1.246 -1.082,0 -1.984,0.394 -2.695,1.183 -0.711,0.785 -1.067,1.934 -1.067,3.446 0,1.48 0.363,2.632 1.098,3.457 0.73,0.828 1.609,1.238 2.633,1.238 0.504,0 1.004,-0.121 1.5,-0.371 0.496,-0.25 0.925,-0.629 1.289,-1.141 v 1.313 h 2.191 z m -5.734,5.668 c 0.379,-0.445 0.847,-0.672 1.406,-0.672 0.578,0 1.051,0.227 1.422,0.68 0.371,0.449 0.555,1.188 0.555,2.215 0,0.918 -0.192,1.609 -0.571,2.07 -0.383,0.461 -0.843,0.692 -1.386,0.692 -0.684,0 -1.215,-0.309 -1.598,-0.926 -0.262,-0.422 -0.395,-1.113 -0.395,-2.063 0,-0.886 0.192,-1.55 0.567,-1.996"
         style="fill:#000000;fill-opacity:1;fill-rule:nonzero;stroke:none"
         id="path1045" /><path
         d="m 457.625,143.219 h -2.629 l -4.797,12.316 h 2.637 l 1.016,-2.797 h 4.921 l 1.079,2.797 h 2.707 z m -3.008,7.445 1.664,-4.57 1.699,4.57 z m 9.238,4.871 h 2.36 v -12.316 h -2.36 z"
         style="fill:#000000;fill-opacity:1;fill-rule:nonzero;stroke:none"
         id="path1047" /><path
         d="m 468.695,152.406 c -0.539,0.68 -0.808,1.793 -0.808,3.336 0,1.574 0.246,2.668 0.734,3.281 0.488,0.614 1.133,0.922 1.934,0.922 0.793,0 1.41,-0.281 1.851,-0.84 0.539,-0.679 0.809,-1.793 0.809,-3.347 0,-1.555 -0.266,-2.668 -0.801,-3.34 -0.445,-0.566 -1.066,-0.852 -1.859,-0.852 -0.797,0 -1.418,0.282 -1.86,0.84 z m 2.364,0.649 c 0.148,0.121 0.269,0.359 0.367,0.722 0.097,0.36 0.144,1.02 0.144,1.981 0,0.965 -0.054,1.644 -0.16,2.051 -0.086,0.312 -0.203,0.527 -0.351,0.648 -0.149,0.121 -0.317,0.184 -0.504,0.184 -0.196,0 -0.36,-0.063 -0.508,-0.18 -0.149,-0.117 -0.274,-0.359 -0.367,-0.719 -0.098,-0.359 -0.149,-1.019 -0.149,-1.984 0,-0.961 0.055,-1.645 0.164,-2.051 0.082,-0.312 0.2,-0.531 0.348,-0.652 0.148,-0.125 0.316,-0.184 0.512,-0.184 0.187,0 0.355,0.059 0.504,0.184 z m 3.543,6.75 h 1.57 v -1.575 h -1.57 z m 3.726,-0.473 c 0.481,0.41 1.094,0.613 1.852,0.613 0.949,0 1.687,-0.363 2.218,-1.086 0.395,-0.531 0.59,-1.132 0.59,-1.808 0,-0.809 -0.242,-1.469 -0.726,-1.977 -0.485,-0.504 -1.078,-0.758 -1.774,-0.758 -0.367,0 -0.722,0.086 -1.074,0.262 l 0.246,-1.394 h 2.965 v -1.469 h -4.156 l -0.809,4.269 1.278,0.184 c 0.359,-0.398 0.761,-0.598 1.214,-0.598 0.36,0 0.657,0.125 0.883,0.379 0.223,0.25 0.336,0.629 0.336,1.129 0,0.539 -0.113,0.942 -0.34,1.207 -0.23,0.27 -0.508,0.399 -0.836,0.399 -0.285,0 -0.539,-0.106 -0.757,-0.309 -0.219,-0.207 -0.352,-0.488 -0.399,-0.844 l -1.566,0.164 c 0.093,0.684 0.379,1.235 0.855,1.637 z m 5.801,-3.094 c -0.223,0.371 -0.328,0.778 -0.328,1.223 0,0.805 0.289,1.437 0.875,1.902 0.496,0.391 1.117,0.586 1.863,0.586 0.801,0 1.445,-0.238 1.93,-0.711 0.48,-0.472 0.722,-1.086 0.722,-1.847 0,-0.457 -0.121,-0.864 -0.355,-1.211 -0.238,-0.352 -0.582,-0.618 -1.039,-0.801 0.359,-0.156 0.637,-0.383 0.836,-0.68 0.195,-0.297 0.297,-0.637 0.297,-1.015 0,-0.614 -0.215,-1.118 -0.649,-1.516 -0.429,-0.398 -1.035,-0.602 -1.816,-0.602 -0.785,0 -1.391,0.204 -1.817,0.602 -0.429,0.398 -0.644,0.902 -0.644,1.516 0,0.359 0.094,0.687 0.277,0.988 0.184,0.297 0.481,0.535 0.887,0.707 -0.473,0.203 -0.82,0.488 -1.039,0.859 z m 1.633,-3.152 c 0.179,-0.18 0.418,-0.27 0.722,-0.27 0.289,0 0.524,0.09 0.7,0.266 0.179,0.176 0.269,0.414 0.269,0.707 0,0.313 -0.09,0.559 -0.269,0.734 -0.18,0.18 -0.418,0.27 -0.719,0.27 -0.293,0 -0.527,-0.09 -0.707,-0.266 -0.176,-0.175 -0.262,-0.418 -0.262,-0.73 0,-0.297 0.086,-0.531 0.266,-0.711 z m -0.133,3.359 c 0.191,-0.261 0.476,-0.394 0.859,-0.394 0.332,0 0.606,0.117 0.824,0.347 0.215,0.235 0.325,0.543 0.325,0.926 0,0.442 -0.106,0.778 -0.321,1.012 -0.211,0.234 -0.48,0.348 -0.804,0.348 -0.332,0 -0.61,-0.122 -0.832,-0.364 -0.219,-0.242 -0.332,-0.578 -0.332,-1.011 0,-0.309 0.093,-0.598 0.281,-0.864"
         style="fill:#000000;fill-opacity:1;fill-rule:nonzero;stroke:none"
         id="path1049" /><path
         d="m 499.516,151.008 v 1.562 c -0.375,0.293 -0.825,0.535 -1.348,0.742 -0.523,0.204 -1.043,0.309 -1.566,0.309 -1.051,0 -1.907,-0.367 -2.555,-1.098 -0.649,-0.73 -0.973,-1.828 -0.973,-3.289 0,-1.355 0.321,-2.379 0.961,-3.066 0.641,-0.688 1.508,-1.035 2.59,-1.035 0.719,0 1.316,0.176 1.793,0.523 0.48,0.352 0.809,0.832 0.98,1.434 l 2.473,-0.461 c -0.25,-1.129 -0.801,-2.016 -1.66,-2.66 -0.859,-0.641 -2.055,-0.961 -3.586,-0.961 -1.176,0 -2.16,0.203 -2.945,0.613 -1.039,0.531 -1.825,1.297 -2.364,2.293 -0.539,1 -0.804,2.137 -0.804,3.422 0,1.184 0.238,2.273 0.718,3.281 0.485,1.004 1.204,1.774 2.161,2.317 0.961,0.543 2.082,0.812 3.371,0.812 1.011,0 2.015,-0.191 3.004,-0.578 0.988,-0.383 1.742,-0.828 2.265,-1.328 v -4.91 h -5.363 v 2.078 z m 7.129,-2.543 c 0.234,-0.168 0.562,-0.246 0.98,-0.246 0.625,0 1.047,0.097 1.27,0.289 0.226,0.191 0.339,0.515 0.339,0.969 v 0.238 c -0.429,0.176 -1.191,0.371 -2.296,0.578 -0.817,0.156 -1.446,0.34 -1.876,0.551 -0.437,0.207 -0.773,0.511 -1.011,0.906 -0.242,0.395 -0.363,0.844 -0.363,1.348 0,0.761 0.265,1.39 0.792,1.89 0.532,0.5 1.254,0.75 2.172,0.75 0.52,0 1.012,-0.101 1.473,-0.297 0.457,-0.195 0.891,-0.488 1.293,-0.882 0.016,0.046 0.043,0.14 0.082,0.277 0.09,0.309 0.164,0.543 0.227,0.699 h 2.335 c -0.207,-0.426 -0.347,-0.824 -0.421,-1.195 -0.079,-0.375 -0.118,-0.953 -0.118,-1.738 l 0.028,-2.754 c 0,-1.028 -0.106,-1.731 -0.313,-2.114 -0.211,-0.382 -0.574,-0.699 -1.09,-0.949 -0.515,-0.25 -1.3,-0.375 -2.351,-0.375 -1.16,0 -2.035,0.207 -2.621,0.621 -0.59,0.418 -1.004,1.055 -1.246,1.918 l 2.144,0.387 c 0.145,-0.418 0.336,-0.707 0.571,-0.871 z m 2.589,3.254 c 0,0.566 -0.035,0.949 -0.097,1.152 -0.086,0.309 -0.274,0.567 -0.559,0.781 -0.387,0.282 -0.797,0.422 -1.219,0.422 -0.382,0 -0.695,-0.121 -0.941,-0.363 -0.246,-0.238 -0.371,-0.527 -0.371,-0.856 0,-0.335 0.152,-0.613 0.461,-0.832 0.203,-0.132 0.633,-0.273 1.289,-0.414 0.652,-0.136 1.133,-0.257 1.437,-0.359 v 0.469"
         style="fill:#000000;fill-opacity:1;fill-rule:nonzero;stroke:none"
         id="path1051" /><path
         d="m 513.93,152.406 c -0.535,0.68 -0.805,1.793 -0.805,3.336 0,1.574 0.246,2.668 0.734,3.281 0.489,0.614 1.129,0.922 1.93,0.922 0.793,0 1.41,-0.281 1.856,-0.84 0.535,-0.679 0.804,-1.793 0.804,-3.347 0,-1.555 -0.265,-2.668 -0.797,-3.34 -0.449,-0.566 -1.07,-0.852 -1.863,-0.852 -0.797,0 -1.414,0.282 -1.859,0.84 z m 2.363,0.649 c 0.148,0.121 0.269,0.359 0.367,0.722 0.098,0.36 0.145,1.02 0.145,1.981 0,0.965 -0.051,1.644 -0.16,2.051 -0.083,0.312 -0.2,0.527 -0.348,0.648 -0.149,0.121 -0.32,0.184 -0.508,0.184 -0.191,0 -0.359,-0.063 -0.508,-0.18 -0.148,-0.117 -0.269,-0.359 -0.367,-0.719 -0.098,-0.359 -0.144,-1.019 -0.144,-1.984 0,-0.961 0.05,-1.645 0.16,-2.051 0.086,-0.312 0.199,-0.531 0.347,-0.652 0.149,-0.125 0.321,-0.184 0.512,-0.184 0.188,0 0.356,0.059 0.504,0.184 z m 3.543,6.75 h 1.57 v -1.575 h -1.57 z m 7.453,0 v -1.653 h 1.02 v -1.382 h -1.02 v -5.204 h -1.32 l -3.559,5.211 v 1.375 h 3.36 v 1.653 z m -3.406,-3.035 1.887,-2.801 v 2.801 z m 7.359,1.574 c 0.086,-0.141 0.192,-0.289 0.324,-0.438 0.129,-0.148 0.446,-0.449 0.942,-0.906 0.496,-0.453 0.84,-0.801 1.031,-1.043 0.285,-0.367 0.496,-0.719 0.629,-1.051 0.133,-0.332 0.195,-0.687 0.195,-1.054 0,-0.649 -0.226,-1.192 -0.691,-1.629 -0.461,-0.438 -1.098,-0.657 -1.906,-0.657 -0.743,0 -1.356,0.192 -1.848,0.567 -0.492,0.379 -0.785,1 -0.879,1.863 l 1.566,0.16 c 0.032,-0.461 0.141,-0.789 0.336,-0.988 0.196,-0.195 0.457,-0.297 0.782,-0.297 0.332,0 0.593,0.094 0.781,0.285 0.187,0.188 0.285,0.457 0.285,0.809 0,0.312 -0.109,0.637 -0.324,0.961 -0.164,0.234 -0.594,0.679 -1.305,1.344 -0.879,0.816 -1.469,1.472 -1.769,1.964 -0.297,0.493 -0.477,1.02 -0.536,1.571 h 5.508 v -1.461 h -3.121"
         style="fill:#000000;fill-opacity:1;fill-rule:nonzero;stroke:none"
         id="path1053" /><path
         d="M 538.527,155.535 V 147.5 l 4.965,8.035 h 2.496 v -12.316 h -2.312 v 8.226 l -5.039,-8.226 h -2.422 v 12.316 h 2.312"
         style="fill:#000000;fill-opacity:1;fill-rule:nonzero;stroke:none"
         id="path1055" /><path
         d="m 456.23,179.652 v -1.855 h -1.941 v -12.074 h 1.941 v -1.856 h -4.187 v 15.785 z m 2.434,-4.328 c 0.836,0.719 2.031,1.078 3.59,1.078 1.066,0 1.961,-0.152 2.676,-0.449 0.718,-0.301 1.273,-0.758 1.664,-1.375 0.394,-0.617 0.59,-1.273 0.59,-1.98 0,-0.782 -0.164,-1.434 -0.493,-1.961 -0.328,-0.532 -0.781,-0.949 -1.359,-1.254 -0.582,-0.305 -1.477,-0.598 -2.684,-0.887 -1.21,-0.285 -1.972,-0.562 -2.285,-0.824 -0.25,-0.207 -0.371,-0.453 -0.371,-0.746 0,-0.321 0.129,-0.574 0.395,-0.766 0.41,-0.297 0.976,-0.445 1.695,-0.445 0.703,0 1.227,0.14 1.578,0.418 0.352,0.273 0.578,0.73 0.684,1.363 l 2.488,-0.109 c -0.039,-1.129 -0.449,-2.035 -1.23,-2.711 -0.786,-0.68 -1.95,-1.02 -3.493,-1.02 -0.945,0 -1.754,0.145 -2.425,0.43 -0.668,0.285 -1.18,0.703 -1.536,1.246 -0.355,0.547 -0.535,1.133 -0.535,1.762 0,0.972 0.379,1.801 1.137,2.476 0.535,0.481 1.473,0.891 2.805,1.219 1.035,0.258 1.699,0.438 1.992,0.539 0.422,0.149 0.723,0.328 0.894,0.531 0.172,0.207 0.254,0.453 0.254,0.746 0,0.454 -0.203,0.848 -0.605,1.188 -0.41,0.34 -1.012,0.508 -1.813,0.508 -0.757,0 -1.359,-0.192 -1.8,-0.571 -0.446,-0.382 -0.743,-0.976 -0.887,-1.789 l -2.422,0.235 c 0.164,1.379 0.664,2.426 1.496,3.148 z m 10.594,-9.273 h 2.363 v -2.184 h -2.363 z m 0,10.133 h 2.363 v -8.922 h -2.363 z"
         style="fill:#000000;fill-opacity:1;fill-rule:nonzero;stroke:none"
         id="path1057" /><path
         d="m 476.859,169.84 v -2.129 h 2.157 v -1.473 h -2.157 v -2.133 h -1.429 v 2.133 h -2.149 v 1.473 h 2.149 v 2.129 h 1.429"
         style="fill:#000000;fill-opacity:1;fill-rule:nonzero;stroke:none"
         id="path1059" /><path
         d="m 479.805,163.867 v 1.84 h 1.941 v 12.09 h -1.941 v 1.855 h 4.183 v -15.785 z m 10.953,5.461 h 8.609 v -2.168 h -8.609 z m 0,3.731 h 8.609 v -2.176 h -8.609 z m 21.711,3.125 v -2.477 H 514 v -2.078 h -1.531 v -7.813 h -1.985 l -5.343,7.821 v 2.07 h 5.043 v 2.477 z m -5.114,-4.555 2.829,-4.211 v 4.211 h -2.829"
         style="fill:#000000;fill-opacity:1;fill-rule:nonzero;stroke:none"
         id="path1061" /><path
         d="m 516.867,174.184 2.535,-2.539 2.563,2.562 1.566,-1.559 -2.562,-2.562 2.535,-2.539 -1.524,-1.531 -2.535,2.539 -2.554,-2.547 -1.563,1.562 2.555,2.547 -2.535,2.539 1.519,1.528"
         style="fill:#000000;fill-opacity:1;fill-rule:nonzero;stroke:none"
         id="path1063" /><path
         d="m 531.234,163.816 h -1.918 c -0.269,0.75 -0.765,1.407 -1.484,1.969 -0.727,0.563 -1.394,0.945 -2.012,1.145 v 2.144 c 1.172,-0.386 2.188,-0.98 3.051,-1.789 v 8.895 h 2.363 z m 4.727,1.262 c -0.809,1.016 -1.211,2.684 -1.211,5.004 0,2.363 0.367,4.008 1.102,4.926 0.734,0.926 1.699,1.383 2.898,1.383 1.191,0 2.121,-0.418 2.789,-1.258 0.809,-1.02 1.211,-2.695 1.211,-5.024 0,-2.336 -0.402,-4.011 -1.203,-5.015 -0.672,-0.852 -1.606,-1.278 -2.797,-1.278 -1.195,0 -2.121,0.422 -2.789,1.262 z m 3.551,0.969 c 0.218,0.183 0.402,0.543 0.55,1.086 0.141,0.539 0.215,1.527 0.215,2.976 0,1.446 -0.082,2.469 -0.242,3.071 -0.121,0.472 -0.297,0.8 -0.523,0.98 -0.223,0.184 -0.477,0.274 -0.762,0.274 -0.285,0 -0.539,-0.09 -0.758,-0.266 -0.222,-0.184 -0.406,-0.539 -0.551,-1.082 -0.148,-0.543 -0.218,-1.531 -0.218,-2.977 0,-1.449 0.078,-2.472 0.242,-3.082 0.125,-0.472 0.297,-0.797 0.519,-0.98 0.227,-0.184 0.481,-0.274 0.766,-0.274 0.285,0 0.539,0.09 0.762,0.274"
         style="fill:#000000;fill-opacity:1;fill-rule:nonzero;stroke:none"
         id="path1065" /><path
         d="m 548.125,162.785 h -1.277 c -0.18,0.5 -0.508,0.938 -0.989,1.313 -0.484,0.375 -0.929,0.629 -1.339,0.765 v 1.426 c 0.781,-0.258 1.457,-0.652 2.031,-1.191 v 5.925 h 1.574 z m 2.652,4.668 c -0.218,0.375 -0.328,0.781 -0.328,1.227 0,0.804 0.293,1.437 0.875,1.898 0.5,0.391 1.121,0.59 1.864,0.59 0.804,0 1.445,-0.238 1.929,-0.711 0.485,-0.477 0.727,-1.09 0.727,-1.848 0,-0.457 -0.121,-0.863 -0.356,-1.214 -0.238,-0.348 -0.586,-0.614 -1.039,-0.797 0.356,-0.157 0.637,-0.383 0.832,-0.684 0.199,-0.297 0.297,-0.633 0.297,-1.012 0,-0.613 -0.215,-1.117 -0.644,-1.515 -0.434,-0.399 -1.039,-0.602 -1.817,-0.602 -0.785,0 -1.394,0.203 -1.82,0.602 -0.426,0.398 -0.641,0.902 -0.641,1.515 0,0.36 0.094,0.688 0.278,0.989 0.183,0.297 0.48,0.535 0.886,0.707 -0.476,0.199 -0.82,0.488 -1.043,0.855 z m 1.633,-3.152 c 0.184,-0.176 0.422,-0.266 0.727,-0.266 0.289,0 0.523,0.09 0.699,0.266 0.176,0.176 0.266,0.414 0.266,0.707 0,0.312 -0.09,0.558 -0.266,0.734 -0.184,0.18 -0.422,0.266 -0.719,0.266 -0.297,0 -0.531,-0.086 -0.707,-0.262 -0.176,-0.176 -0.265,-0.418 -0.265,-0.73 0,-0.297 0.089,-0.536 0.265,-0.715 z m -0.129,3.363 c 0.188,-0.262 0.473,-0.394 0.86,-0.394 0.332,0 0.605,0.113 0.82,0.347 0.215,0.235 0.328,0.543 0.328,0.926 0,0.441 -0.109,0.777 -0.324,1.012 -0.207,0.23 -0.481,0.347 -0.805,0.347 -0.332,0 -0.605,-0.121 -0.828,-0.363 -0.223,-0.242 -0.332,-0.582 -0.332,-1.012 0,-0.312 0.094,-0.597 0.281,-0.863"
         style="fill:#000000;fill-opacity:1;fill-rule:nonzero;stroke:none"
         id="path1067" /><path
         d="m 568.777,167.762 c -0.64,-0.469 -1.504,-0.703 -2.589,-0.703 -1.329,0 -2.383,0.41 -3.161,1.23 -0.781,0.82 -1.168,1.969 -1.168,3.441 0,1.458 0.387,2.598 1.164,3.418 0.778,0.825 1.817,1.235 3.122,1.235 1.148,0 2.066,-0.27 2.746,-0.813 0.683,-0.543 1.144,-1.347 1.386,-2.414 l -2.32,-0.394 c -0.113,0.621 -0.316,1.062 -0.605,1.316 -0.282,0.254 -0.649,0.383 -1.098,0.383 -0.598,0 -1.078,-0.219 -1.434,-0.656 -0.355,-0.438 -0.531,-1.184 -0.531,-2.243 0,-0.953 0.172,-1.632 0.523,-2.035 0.352,-0.41 0.817,-0.613 1.407,-0.613 0.441,0 0.801,0.117 1.082,0.356 0.277,0.234 0.453,0.582 0.531,1.05 l 2.328,-0.422 c -0.281,-0.957 -0.742,-1.671 -1.383,-2.136 z m 2.993,8.422 h 2.359 v -4.336 c 0,-0.856 0.066,-1.473 0.191,-1.84 0.125,-0.371 0.332,-0.653 0.625,-0.848 0.293,-0.199 0.621,-0.297 0.985,-0.297 0.3,0 0.543,0.063 0.718,0.188 0.176,0.121 0.305,0.308 0.391,0.562 0.082,0.254 0.125,0.813 0.125,1.68 v 4.891 h 2.359 v -4.286 c 0,-0.839 0.067,-1.453 0.196,-1.843 0.129,-0.391 0.34,-0.684 0.629,-0.887 0.293,-0.199 0.601,-0.305 0.933,-0.305 0.453,0 0.789,0.168 1.008,0.508 0.164,0.254 0.242,0.828 0.242,1.711 v 5.102 h 2.364 v -5.704 c 0,-0.855 -0.083,-1.468 -0.247,-1.851 -0.222,-0.516 -0.562,-0.902 -1.015,-1.172 -0.453,-0.266 -1.008,-0.398 -1.66,-0.398 -0.516,0 -1.004,0.117 -1.457,0.351 -0.454,0.238 -0.875,0.594 -1.27,1.067 -0.266,-0.473 -0.613,-0.829 -1.031,-1.067 -0.422,-0.234 -0.914,-0.351 -1.488,-0.351 -1.075,0 -2.004,0.476 -2.782,1.418 v -1.215 h -2.175 v 8.922"
         style="fill:#000000;fill-opacity:1;fill-rule:nonzero;stroke:none"
         id="path1069" /><path
         d="m 586.648,167.262 h 3.09 v 1.574 h -3.09 z"
         style="fill:#000000;fill-opacity:1;fill-rule:nonzero;stroke:none"
         id="path1071" /><path
         d="m 591.125,170.523 c 0.492,0.426 1.105,0.637 1.848,0.637 0.785,0 1.441,-0.25 1.965,-0.758 0.523,-0.507 0.789,-1.121 0.789,-1.84 0,-0.496 -0.141,-0.921 -0.422,-1.273 -0.282,-0.348 -0.657,-0.574 -1.129,-0.676 0.789,-0.425 1.183,-1.004 1.183,-1.722 0,-0.504 -0.195,-0.961 -0.578,-1.364 -0.465,-0.492 -1.086,-0.742 -1.859,-0.742 -0.449,0 -0.86,0.086 -1.219,0.258 -0.367,0.168 -0.648,0.402 -0.851,0.699 -0.207,0.293 -0.356,0.692 -0.457,1.188 l 1.449,0.246 c 0.043,-0.356 0.156,-0.629 0.347,-0.817 0.188,-0.183 0.418,-0.281 0.688,-0.281 0.273,0 0.492,0.082 0.652,0.246 0.164,0.168 0.25,0.387 0.25,0.664 0,0.324 -0.113,0.582 -0.34,0.778 -0.222,0.195 -0.546,0.289 -0.968,0.277 l -0.176,1.281 c 0.281,-0.078 0.519,-0.117 0.723,-0.117 0.304,0 0.562,0.117 0.777,0.348 0.211,0.23 0.32,0.543 0.32,0.941 0,0.418 -0.113,0.75 -0.332,0.996 -0.226,0.246 -0.5,0.367 -0.824,0.367 -0.301,0 -0.559,-0.105 -0.77,-0.304 -0.214,-0.207 -0.343,-0.504 -0.39,-0.895 l -1.524,0.184 c 0.078,0.691 0.36,1.25 0.848,1.679"
         style="fill:#000000;fill-opacity:1;fill-rule:nonzero;stroke:none"
         id="path1073" /><g
         id="g1075"><g
           id="g1077"><g
             id="g1079"
             clip-path="url(#clipPath1083)"><g
               id="g1085"><path
                 d="M 415.273,182.797 H 733.707 V 223.27 H 415.273 Z"
                 style="fill:#8faadc;fill-opacity:1;fill-rule:nonzero;stroke:none"
                 id="path1087" /></g></g></g></g><path
         d="m 427.219,197.293 c -0.989,1.246 -1.477,3.285 -1.477,6.125 0,2.887 0.446,4.894 1.344,6.023 0.894,1.125 2.078,1.688 3.543,1.688 1.461,0 2.598,-0.512 3.41,-1.539 0.988,-1.246 1.481,-3.297 1.481,-6.145 0,-2.855 -0.493,-4.898 -1.469,-6.133 -0.824,-1.039 -1.961,-1.562 -3.422,-1.562 -1.461,0 -2.598,0.516 -3.41,1.543 z m 4.34,1.187 c 0.269,0.223 0.496,0.665 0.671,1.325 0.18,0.66 0.27,1.875 0.27,3.64 0,1.77 -0.102,3.024 -0.297,3.762 -0.152,0.574 -0.367,0.973 -0.637,1.195 -0.277,0.223 -0.586,0.332 -0.937,0.332 -0.348,0 -0.656,-0.105 -0.93,-0.324 -0.269,-0.219 -0.496,-0.66 -0.672,-1.32 -0.179,-0.664 -0.269,-1.875 -0.269,-3.645 0,-1.765 0.101,-3.023 0.301,-3.769 0.148,-0.574 0.363,-0.973 0.636,-1.196 0.274,-0.222 0.586,-0.335 0.934,-0.335 0.351,0 0.66,0.113 0.93,0.335 z m 6.503,12.395 h 2.887 v -2.887 h -2.887 z m 6.821,-0.867 c 0.875,0.75 2.012,1.121 3.398,1.121 1.742,0 3.098,-0.664 4.078,-1.992 0.723,-0.973 1.082,-2.078 1.082,-3.317 0,-1.484 -0.445,-2.695 -1.336,-3.629 -0.894,-0.929 -1.976,-1.398 -3.257,-1.398 -0.672,0 -1.328,0.164 -1.973,0.484 l 0.453,-2.554 h 5.442 v -2.703 h -7.629 l -1.481,7.835 2.34,0.34 c 0.66,-0.734 1.402,-1.097 2.23,-1.097 0.665,0 1.204,0.23 1.618,0.691 0.414,0.465 0.621,1.156 0.621,2.082 0,0.984 -0.207,1.727 -0.625,2.215 -0.418,0.488 -0.93,0.734 -1.532,0.734 -0.527,0 -0.992,-0.191 -1.394,-0.57 -0.406,-0.383 -0.648,-0.898 -0.73,-1.547 L 443.309,207 c 0.175,1.262 0.699,2.266 1.574,3.008"
         style="fill:#000000;fill-opacity:1;fill-rule:nonzero;stroke:none"
         id="path1089" /><path
         d="m 461.109,215.055 h 2.868 v -5.496 c 0.32,0.589 0.617,0.984 0.882,1.179 0.379,0.27 0.809,0.399 1.297,0.399 0.258,0 0.543,-0.071 0.856,-0.215 0.312,-0.145 0.558,-0.309 0.742,-0.5 0.187,-0.195 0.383,-0.481 0.586,-0.863 v 1.316 h 2.695 v -10.91 h -2.918 v 4.969 c 0,1.211 -0.082,2.039 -0.25,2.476 -0.164,0.438 -0.414,0.781 -0.758,1.028 -0.343,0.246 -0.707,0.371 -1.089,0.371 -0.711,0 -1.247,-0.332 -1.614,-0.997 -0.285,-0.515 -0.429,-1.484 -0.429,-2.91 v -4.937 h -2.868 v 15.09"
         style="fill:#000000;fill-opacity:1;fill-rule:nonzero;stroke:none"
         id="path1091" /><path
         d="m 473.383,210.875 h 2.887 v -5.301 c 0,-1.047 0.078,-1.801 0.23,-2.25 0.156,-0.453 0.41,-0.801 0.766,-1.039 0.355,-0.238 0.757,-0.359 1.199,-0.359 0.371,0 0.664,0.074 0.883,0.226 0.214,0.153 0.375,0.383 0.476,0.688 0.102,0.308 0.153,0.996 0.153,2.055 v 5.98 h 2.886 v -5.238 c 0,-1.032 0.078,-1.782 0.239,-2.258 0.156,-0.477 0.414,-0.836 0.769,-1.082 0.356,-0.246 0.734,-0.371 1.141,-0.371 0.554,0 0.965,0.207 1.234,0.617 0.195,0.312 0.297,1.012 0.297,2.098 v 6.234 h 2.887 v -6.977 c 0,-1.043 -0.102,-1.793 -0.297,-2.257 -0.278,-0.633 -0.692,-1.11 -1.246,-1.434 -0.555,-0.328 -1.231,-0.488 -2.032,-0.488 -0.632,0 -1.226,0.14 -1.777,0.429 -0.558,0.286 -1.074,0.723 -1.555,1.305 -0.324,-0.582 -0.746,-1.019 -1.261,-1.305 -0.516,-0.289 -1.117,-0.429 -1.817,-0.429 -1.316,0 -2.449,0.578 -3.402,1.734 v -1.488 h -2.66 z m 32.34,-15.063 h -3.215 l -5.867,15.063 h 3.226 l 1.242,-3.422 h 6.02 l 1.316,3.422 h 3.309 z m -3.68,9.102 2.035,-5.59 2.074,5.59 z m 11.328,5.961 h 2.883 v -15.063 h -2.883 z"
         style="fill:#000000;fill-opacity:1;fill-rule:nonzero;stroke:none"
         id="path1093" /><path
         d="m 519.27,207.008 c -0.661,0.832 -0.989,2.191 -0.989,4.086 0,1.926 0.301,3.269 0.899,4.019 0.597,0.754 1.386,1.129 2.367,1.129 0.969,0 1.73,-0.344 2.273,-1.031 0.657,-0.828 0.985,-2.195 0.985,-4.098 0,-1.906 -0.325,-3.269 -0.977,-4.093 -0.551,-0.692 -1.312,-1.043 -2.281,-1.043 -0.977,0 -1.735,0.343 -2.277,1.031 z m 2.894,0.789 c 0.18,0.148 0.332,0.445 0.449,0.887 0.121,0.441 0.18,1.25 0.18,2.429 0,1.18 -0.066,2.016 -0.199,2.508 -0.102,0.383 -0.246,0.652 -0.426,0.801 -0.184,0.148 -0.391,0.223 -0.621,0.223 -0.238,0 -0.442,-0.075 -0.621,-0.219 -0.184,-0.149 -0.332,-0.442 -0.449,-0.883 -0.122,-0.438 -0.18,-1.25 -0.18,-2.43 0,-1.179 0.066,-2.019 0.199,-2.515 0.098,-0.383 0.242,-0.653 0.426,-0.801 0.18,-0.149 0.387,-0.219 0.625,-0.219 0.23,0 0.437,0.07 0.617,0.219 z m 4.34,8.273 h 1.926 v -1.929 h -1.926 z m 4.59,-0.578 c 0.586,0.5 1.344,0.75 2.273,0.75 1.16,0 2.067,-0.445 2.719,-1.332 0.48,-0.648 0.719,-1.387 0.719,-2.215 0,-0.988 -0.297,-1.797 -0.891,-2.418 -0.594,-0.621 -1.316,-0.933 -2.172,-0.933 -0.449,0 -0.887,0.109 -1.316,0.324 l 0.301,-1.707 h 3.632 v -1.805 h -5.089 l -0.989,5.231 1.563,0.226 c 0.437,-0.488 0.933,-0.73 1.488,-0.73 0.441,0 0.801,0.152 1.078,0.461 0.278,0.308 0.418,0.773 0.418,1.386 0,0.661 -0.14,1.153 -0.422,1.477 -0.277,0.328 -0.621,0.492 -1.023,0.492 -0.348,0 -0.66,-0.125 -0.93,-0.379 -0.269,-0.254 -0.433,-0.601 -0.484,-1.031 l -1.922,0.195 c 0.113,0.844 0.465,1.512 1.047,2.008 z m 7.109,-3.793 c -0.273,0.453 -0.402,0.953 -0.402,1.5 0,0.985 0.355,1.762 1.074,2.328 0.605,0.481 1.367,0.719 2.281,0.719 0.985,0 1.77,-0.289 2.364,-0.867 0.589,-0.582 0.886,-1.336 0.886,-2.266 0,-0.558 -0.144,-1.058 -0.433,-1.488 -0.293,-0.426 -0.719,-0.754 -1.274,-0.977 0.438,-0.191 0.778,-0.472 1.02,-0.832 0.246,-0.367 0.367,-0.781 0.367,-1.246 0,-0.75 -0.266,-1.367 -0.797,-1.855 -0.523,-0.492 -1.266,-0.738 -2.219,-0.738 -0.968,0 -1.711,0.246 -2.234,0.738 -0.524,0.488 -0.781,1.105 -0.781,1.855 0,0.438 0.109,0.844 0.336,1.211 0.226,0.367 0.589,0.657 1.086,0.867 -0.579,0.247 -1.004,0.594 -1.274,1.051 z m 2,-3.863 c 0.219,-0.219 0.516,-0.328 0.883,-0.328 0.359,0 0.644,0.109 0.863,0.324 0.215,0.219 0.324,0.508 0.324,0.867 0,0.383 -0.109,0.688 -0.328,0.903 -0.218,0.214 -0.511,0.328 -0.875,0.328 -0.363,0 -0.652,-0.11 -0.871,-0.325 -0.215,-0.214 -0.324,-0.515 -0.324,-0.898 0,-0.359 0.109,-0.652 0.328,-0.871 z m -0.16,4.121 c 0.23,-0.324 0.582,-0.488 1.051,-0.488 0.406,0 0.746,0.144 1.008,0.429 0.265,0.286 0.398,0.664 0.398,1.137 0,0.535 -0.129,0.949 -0.391,1.235 -0.261,0.285 -0.589,0.429 -0.988,0.429 -0.406,0 -0.742,-0.148 -1.016,-0.445 -0.273,-0.297 -0.41,-0.711 -0.41,-1.242 0,-0.379 0.117,-0.731 0.348,-1.055"
         style="fill:#000000;fill-opacity:1;fill-rule:nonzero;stroke:none"
         id="path1095" /><path
         d="m 557.09,205.336 v 1.91 c -0.457,0.359 -1.008,0.66 -1.649,0.91 -0.64,0.25 -1.277,0.375 -1.914,0.375 -1.289,0 -2.332,-0.445 -3.125,-1.34 -0.793,-0.894 -1.191,-2.234 -1.191,-4.023 0,-1.656 0.391,-2.906 1.18,-3.746 0.781,-0.844 1.836,-1.266 3.164,-1.266 0.879,0 1.609,0.215 2.195,0.641 0.586,0.43 0.984,1.012 1.199,1.75 l 3.016,-0.563 c -0.297,-1.386 -0.977,-2.468 -2.027,-3.25 -1.051,-0.785 -2.512,-1.179 -4.383,-1.179 -1.434,0 -2.637,0.254 -3.602,0.754 -1.269,0.648 -2.23,1.582 -2.887,2.8 -0.66,1.223 -0.988,2.614 -0.988,4.184 0,1.445 0.293,2.781 0.883,4.012 0.59,1.226 1.469,2.172 2.641,2.836 1.171,0.66 2.546,0.988 4.121,0.988 1.238,0 2.465,-0.234 3.672,-0.703 1.207,-0.469 2.132,-1.012 2.769,-1.629 v -6 h -6.555 v 2.539 z m 8.695,-3.109 c 0.285,-0.2 0.688,-0.301 1.199,-0.301 0.762,0 1.278,0.117 1.551,0.355 0.277,0.235 0.414,0.629 0.414,1.184 v 0.289 c -0.519,0.219 -1.457,0.457 -2.804,0.711 -1.004,0.191 -1.766,0.414 -2.297,0.672 -0.532,0.258 -0.946,0.625 -1.239,1.109 -0.293,0.484 -0.441,1.031 -0.441,1.649 0,0.929 0.324,1.703 0.969,2.308 0.648,0.609 1.531,0.918 2.656,0.918 0.637,0 1.234,-0.121 1.797,-0.359 0.562,-0.242 1.09,-0.602 1.582,-1.082 0.023,0.058 0.058,0.172 0.105,0.34 0.11,0.375 0.2,0.664 0.278,0.855 h 2.855 c -0.254,-0.523 -0.426,-1.012 -0.519,-1.465 -0.094,-0.457 -0.141,-1.164 -0.141,-2.121 l 0.035,-3.371 c 0,-1.254 -0.133,-2.113 -0.387,-2.582 -0.257,-0.473 -0.699,-0.856 -1.332,-1.164 -0.628,-0.305 -1.586,-0.453 -2.875,-0.453 -1.418,0 -2.488,0.254 -3.207,0.758 -0.714,0.507 -1.222,1.289 -1.519,2.343 l 2.621,0.473 c 0.176,-0.508 0.41,-0.863 0.699,-1.066 z m 3.164,3.98 c 0,0.695 -0.039,1.16 -0.113,1.41 -0.109,0.375 -0.34,0.695 -0.688,0.953 -0.472,0.344 -0.972,0.516 -1.492,0.516 -0.465,0 -0.847,-0.148 -1.148,-0.441 -0.305,-0.297 -0.453,-0.645 -0.453,-1.047 0,-0.414 0.187,-0.754 0.566,-1.02 0.246,-0.164 0.77,-0.332 1.57,-0.504 0.801,-0.168 1.387,-0.316 1.758,-0.441 v 0.574"
         style="fill:#000000;fill-opacity:1;fill-rule:nonzero;stroke:none"
         id="path1097" /><path
         d="m 574.68,207.008 c -0.657,0.832 -0.989,2.191 -0.989,4.086 0,1.926 0.301,3.269 0.903,4.019 0.594,0.754 1.383,1.129 2.359,1.129 0.977,0 1.735,-0.344 2.277,-1.031 0.661,-0.828 0.989,-2.195 0.989,-4.098 0,-1.906 -0.328,-3.269 -0.981,-4.093 -0.547,-0.692 -1.308,-1.043 -2.285,-1.043 -0.973,0 -1.73,0.343 -2.273,1.031 z m 2.894,0.789 c 0.184,0.148 0.332,0.445 0.453,0.887 0.118,0.441 0.176,1.25 0.176,2.429 0,1.18 -0.066,2.016 -0.199,2.508 -0.098,0.383 -0.242,0.652 -0.422,0.801 -0.184,0.148 -0.394,0.223 -0.629,0.223 -0.23,0 -0.437,-0.075 -0.617,-0.219 -0.18,-0.149 -0.332,-0.442 -0.449,-0.883 -0.121,-0.438 -0.18,-1.25 -0.18,-2.43 0,-1.179 0.066,-2.019 0.199,-2.515 0.102,-0.383 0.242,-0.653 0.426,-0.801 0.184,-0.149 0.391,-0.219 0.621,-0.219 0.235,0 0.442,0.07 0.621,0.219 z m 4.344,8.273 h 1.926 v -1.929 h -1.926 z m 9.156,0 v -2.023 h 1.246 v -1.695 h -1.246 v -6.375 h -1.617 l -4.363,6.382 v 1.688 h 4.113 v 2.023 z m -4.176,-3.718 2.309,-3.434 v 3.434 z m 9.02,1.929 c 0.098,-0.176 0.23,-0.355 0.394,-0.535 0.161,-0.184 0.547,-0.555 1.153,-1.113 0.609,-0.555 1.031,-0.981 1.262,-1.278 0.351,-0.449 0.609,-0.878 0.773,-1.285 0.16,-0.41 0.242,-0.84 0.242,-1.293 0,-0.797 -0.285,-1.461 -0.851,-1.996 -0.567,-0.535 -1.344,-0.804 -2.336,-0.804 -0.907,0 -1.66,0.234 -2.262,0.695 -0.605,0.461 -0.965,1.223 -1.078,2.281 l 1.922,0.192 c 0.035,-0.559 0.172,-0.961 0.41,-1.207 0.238,-0.239 0.558,-0.36 0.961,-0.36 0.406,0 0.722,0.113 0.957,0.344 0.226,0.23 0.344,0.562 0.344,0.992 0,0.387 -0.133,0.781 -0.395,1.18 -0.199,0.285 -0.73,0.832 -1.602,1.644 -1.074,1 -1.8,1.805 -2.164,2.407 -0.367,0.605 -0.586,1.25 -0.66,1.925 h 6.754 v -1.789 h -3.824"
         style="fill:#000000;fill-opacity:1;fill-rule:nonzero;stroke:none"
         id="path1099" /><path
         d="m 604.875,210.875 v -9.82 l 6.07,9.82 h 3.051 v -15.063 h -2.824 v 10.059 l -6.164,-10.059 h -2.961 v 15.063 z m 21.687,1.418 c -0.367,-1.063 -0.652,-2.184 -0.859,-3.359 -0.211,-1.18 -0.312,-2.329 -0.312,-3.454 0,-1.628 0.175,-3.171 0.527,-4.628 0.352,-1.454 0.996,-3.219 1.937,-5.297 h -1.972 c -0.903,1.297 -1.653,2.711 -2.238,4.246 -0.68,1.765 -1.02,3.64 -1.02,5.617 0,1.598 0.273,3.246 0.824,4.953 0.547,1.703 1.344,3.348 2.391,4.93 h 1.984 c -0.605,-1.309 -1.023,-2.309 -1.262,-3.008 z m 13.344,-1.418 v -10.91 h -2.886 v 4.601 c 0,1.563 -0.075,2.543 -0.219,2.942 -0.145,0.402 -0.41,0.738 -0.801,1.008 -0.391,0.269 -0.832,0.406 -1.324,0.406 -0.434,0 -0.789,-0.102 -1.071,-0.305 -0.281,-0.199 -0.472,-0.472 -0.582,-0.82 -0.101,-0.348 -0.156,-1.285 -0.156,-2.82 v -5.012 h -2.887 v 6.902 c 0,1.028 0.133,1.832 0.391,2.414 0.258,0.582 0.68,1.035 1.266,1.36 0.582,0.32 1.238,0.48 1.968,0.48 0.723,0 1.407,-0.168 2.051,-0.504 0.649,-0.336 1.172,-0.793 1.567,-1.379 v 1.637 z m 12.914,-6.781 c 0,-0.844 -0.05,-1.492 -0.156,-1.942 -0.109,-0.453 -0.297,-0.855 -0.57,-1.211 -0.27,-0.359 -0.668,-0.648 -1.196,-0.879 -0.527,-0.23 -1.109,-0.343 -1.746,-0.343 -1.445,0 -2.644,0.613 -3.593,1.847 v -1.601 h -2.68 v 10.91 h 2.887 v -4.941 c 0,-1.223 0.07,-2.055 0.218,-2.508 0.149,-0.453 0.418,-0.813 0.817,-1.09 0.398,-0.274 0.844,-0.41 1.344,-0.41 0.39,0 0.726,0.097 1.003,0.289 0.278,0.191 0.477,0.457 0.602,0.805 0.125,0.343 0.184,1.109 0.184,2.285 v 5.57 h 2.886 z m 12.938,-8.282 h -2.887 v 5.426 c -0.891,-1.011 -1.945,-1.519 -3.164,-1.519 -1.328,0 -2.426,0.48 -3.297,1.441 -0.871,0.961 -1.308,2.371 -1.308,4.219 0,1.805 0.449,3.215 1.343,4.226 0.895,1.008 1.965,1.516 3.223,1.516 0.613,0 1.223,-0.152 1.832,-0.457 0.605,-0.305 1.129,-0.769 1.578,-1.394 v 1.605 h 2.68 z m -7.012,6.93 c 0.461,-0.543 1.035,-0.816 1.719,-0.816 0.707,0 1.285,0.277 1.738,0.828 0.453,0.551 0.68,1.453 0.68,2.707 0,1.121 -0.235,1.969 -0.699,2.531 -0.469,0.567 -1.032,0.848 -1.696,0.848 -0.836,0 -1.484,-0.379 -1.953,-1.129 -0.32,-0.523 -0.484,-1.363 -0.484,-2.527 0,-1.086 0.234,-1.899 0.695,-2.442 z m 9.926,5.711 c 0.473,0.875 1.164,1.539 2.074,1.988 0.906,0.454 1.859,0.68 2.859,0.68 1.618,0 2.957,-0.543 4.02,-1.629 1.066,-1.086 1.602,-2.453 1.602,-4.105 0,-1.637 -0.532,-2.989 -1.582,-4.059 -1.059,-1.074 -2.411,-1.609 -4.059,-1.609 -1.07,0 -2.035,0.234 -2.902,0.707 -0.868,0.472 -1.539,1.156 -2.012,2.054 -0.473,0.899 -0.707,1.829 -0.707,2.786 0,1.254 0.234,2.316 0.707,3.187 z m 3.023,-5.519 c 0.512,-0.575 1.149,-0.864 1.899,-0.864 0.754,0 1.386,0.289 1.898,0.864 0.508,0.574 0.762,1.394 0.762,2.464 0,1.098 -0.254,1.93 -0.762,2.504 -0.512,0.578 -1.144,0.868 -1.898,0.868 -0.75,0 -1.387,-0.29 -1.899,-0.868 -0.511,-0.574 -0.773,-1.398 -0.773,-2.484 0,-1.082 0.262,-1.91 0.773,-2.484 z m 9.707,12.089 h 2.891 v -5.496 c 0.539,0.582 1.055,0.993 1.543,1.235 0.492,0.238 1.039,0.359 1.641,0.359 1.265,0 2.347,-0.508 3.238,-1.516 0.887,-1.011 1.332,-2.425 1.332,-4.246 0,-1.777 -0.442,-3.156 -1.324,-4.152 -0.883,-0.992 -1.957,-1.488 -3.227,-1.488 -0.726,0 -1.387,0.172 -1.984,0.511 -0.594,0.344 -1.067,0.79 -1.414,1.336 v -1.601 h -2.696 z m 3.559,-12.211 c 0.465,-0.542 1.051,-0.812 1.758,-0.812 0.676,0 1.242,0.273 1.703,0.832 0.457,0.551 0.687,1.402 0.687,2.547 0,1.226 -0.222,2.105 -0.668,2.644 -0.445,0.536 -1.003,0.805 -1.671,0.805 -0.7,0 -1.293,-0.293 -1.782,-0.875 -0.484,-0.586 -0.726,-1.492 -0.726,-2.719 0,-1.066 0.23,-1.875 0.699,-2.422 z m 15.023,5.782 c -0.308,0.246 -0.691,0.367 -1.14,0.367 -0.664,0 -1.223,-0.238 -1.664,-0.711 -0.446,-0.477 -0.68,-1.145 -0.7,-2 h 7.231 c 0.043,-2.211 -0.406,-3.852 -1.344,-4.922 -0.941,-1.074 -2.219,-1.609 -3.844,-1.609 -1.441,0 -2.64,0.511 -3.585,1.535 -0.946,1.023 -1.418,2.441 -1.418,4.246 0,1.516 0.359,2.77 1.082,3.762 0.91,1.238 2.312,1.859 4.21,1.859 1.196,0 2.196,-0.277 2.997,-0.828 0.796,-0.551 1.379,-1.355 1.75,-2.41 l -2.875,-0.481 c -0.161,0.547 -0.395,0.946 -0.7,1.192 z m -3.453,-4.11 c -0.008,-0.789 0.196,-1.41 0.606,-1.871 0.414,-0.457 0.929,-0.687 1.562,-0.687 0.59,0 1.09,0.219 1.5,0.652 0.41,0.438 0.625,1.07 0.649,1.906 z m 19.535,-8.672 h -2.886 v 5.426 c -0.891,-1.011 -1.946,-1.519 -3.164,-1.519 -1.328,0 -2.426,0.48 -3.297,1.441 -0.867,0.961 -1.305,2.371 -1.305,4.219 0,1.805 0.445,3.215 1.34,4.226 0.894,1.008 1.969,1.516 3.223,1.516 0.613,0 1.226,-0.152 1.832,-0.457 0.609,-0.305 1.132,-0.769 1.578,-1.394 v 1.605 h 2.679 z m -7.007,6.93 c 0.461,-0.543 1.031,-0.816 1.718,-0.816 0.703,0 1.282,0.277 1.735,0.828 0.453,0.551 0.679,1.453 0.679,2.707 0,1.121 -0.234,1.969 -0.699,2.531 -0.465,0.567 -1.031,0.848 -1.695,0.848 -0.836,0 -1.485,-0.379 -1.949,-1.129 -0.325,-0.523 -0.485,-1.363 -0.485,-2.527 0,-1.086 0.231,-1.899 0.696,-2.442 z m 11.05,12.559 c 1.176,-1.785 2.02,-3.598 2.536,-5.434 0.453,-1.637 0.679,-3.172 0.679,-4.601 0,-1.7 -0.285,-3.375 -0.859,-5.024 -0.57,-1.652 -1.375,-3.211 -2.406,-4.687 h -1.965 c 0.937,2.078 1.582,3.843 1.929,5.297 0.352,1.457 0.524,3 0.524,4.628 0,0.801 -0.043,1.582 -0.141,2.348 -0.094,0.766 -0.242,1.57 -0.445,2.418 -0.195,0.848 -0.41,1.598 -0.645,2.25 -0.23,0.652 -0.632,1.586 -1.199,2.805 h 1.992"
         style="fill:#000000;fill-opacity:1;fill-rule:nonzero;stroke:none"
         id="path1101" /><g
         id="g1103"><g
           id="g1105"><g
             id="g1107"
             clip-path="url(#clipPath1111)"><g
               id="g1113"><path
                 d="m 415.273,223.27 h 318.434 v 38.754 H 415.273 Z"
                 style="fill:#f4b183;fill-opacity:1;fill-rule:nonzero;stroke:none"
                 id="path1115" /></g></g></g></g><path
         d="m 471.684,238.164 c 0.347,-0.352 0.757,-0.527 1.222,-0.527 0.457,0 0.84,0.156 1.137,0.472 0.297,0.317 0.445,0.727 0.445,1.235 0,0.312 -0.09,0.664 -0.265,1.058 -0.18,0.387 -0.508,0.848 -0.989,1.383 -0.269,0.297 -0.906,0.93 -1.922,1.903 -1.347,1.277 -2.277,2.207 -2.781,2.781 -0.508,0.578 -0.933,1.199 -1.269,1.867 -0.34,0.668 -0.555,1.371 -0.653,2.113 h 9.153 l 0.554,-2.695 h -5.218 c 0.273,-0.348 0.558,-0.68 0.859,-0.988 0.297,-0.313 0.902,-0.895 1.82,-1.746 0.922,-0.856 1.582,-1.516 1.985,-1.981 0.562,-0.656 0.965,-1.285 1.211,-1.887 0.25,-0.597 0.371,-1.195 0.371,-1.793 0,-1.168 -0.399,-2.132 -1.203,-2.894 -0.801,-0.758 -1.903,-1.141 -3.305,-1.141 -1.281,0 -2.348,0.375 -3.199,1.117 -0.856,0.743 -1.399,1.809 -1.629,3.207 l 2.887,0.434 c 0.175,-0.926 0.437,-1.562 0.789,-1.918"
         style="fill:#000000;fill-opacity:1;fill-rule:nonzero;stroke:none"
         id="path1117" /><path
         d="m 484.359,254.598 h 2.887 v -5.465 c 0.461,1.043 1.184,1.558 2.168,1.558 0.926,0 1.66,-0.515 2.199,-1.558 v 1.316 h 2.66 v -10.914 h -2.886 v 4.992 c 0,0.965 -0.051,1.68 -0.157,2.161 -0.101,0.48 -0.332,0.886 -0.691,1.222 -0.359,0.336 -0.785,0.504 -1.277,0.504 -0.473,0 -0.879,-0.16 -1.219,-0.484 -0.34,-0.325 -0.555,-0.742 -0.652,-1.262 -0.094,-0.523 -0.145,-1.246 -0.145,-2.168 v -4.965 h -2.887 v 15.063"
         style="fill:#000000;fill-opacity:1;fill-rule:nonzero;stroke:none"
         id="path1119" /><path
         d="m 497.051,250.449 h 2.887 v -5.301 c 0,-1.046 0.078,-1.8 0.23,-2.253 0.156,-0.45 0.41,-0.797 0.766,-1.036 0.355,-0.238 0.757,-0.359 1.203,-0.359 0.371,0 0.664,0.074 0.879,0.227 0.214,0.152 0.375,0.378 0.476,0.687 0.102,0.309 0.156,0.996 0.156,2.055 v 5.98 h 2.883 v -5.238 c 0,-1.031 0.078,-1.781 0.239,-2.258 0.156,-0.476 0.414,-0.836 0.769,-1.082 0.359,-0.246 0.738,-0.371 1.141,-0.371 0.554,0 0.965,0.203 1.234,0.617 0.195,0.313 0.297,1.012 0.297,2.094 v 6.238 h 2.887 v -6.976 c 0,-1.043 -0.102,-1.793 -0.297,-2.258 -0.278,-0.633 -0.692,-1.11 -1.242,-1.434 -0.559,-0.328 -1.235,-0.488 -2.036,-0.488 -0.628,0 -1.226,0.141 -1.777,0.43 -0.555,0.285 -1.074,0.722 -1.555,1.304 -0.324,-0.582 -0.746,-1.019 -1.261,-1.304 -0.512,-0.289 -1.118,-0.43 -1.817,-0.43 -1.316,0 -2.449,0.574 -3.402,1.734 v -1.492 h -2.66 z m 32.34,-15.062 h -3.215 l -5.867,15.062 h 3.226 l 1.242,-3.422 h 6.02 l 1.316,3.422 h 3.309 z m -3.676,9.101 2.031,-5.586 2.078,5.586 z m 11.324,5.961 h 2.887 v -15.062 h -2.887 z m 8.699,0 v -9.82 l 6.074,9.82 h 3.051 v -15.062 h -2.824 v 10.058 l -6.164,-10.058 h -2.961 v 15.062 z m 18.168,-2.422 c 0.473,0.875 1.16,1.539 2.067,1.989 0.906,0.453 1.863,0.675 2.863,0.675 1.617,0 2.957,-0.539 4.023,-1.625 1.063,-1.086 1.594,-2.453 1.594,-4.105 0,-1.637 -0.527,-2.988 -1.582,-4.063 -1.051,-1.07 -2.406,-1.605 -4.059,-1.605 -1.066,0 -2.035,0.234 -2.898,0.707 -0.867,0.473 -1.535,1.156 -2.008,2.055 -0.472,0.898 -0.711,1.828 -0.711,2.785 0,1.254 0.239,2.316 0.711,3.187 z m 3.02,-5.519 c 0.515,-0.574 1.144,-0.863 1.898,-0.863 0.754,0 1.387,0.289 1.895,0.863 0.511,0.574 0.769,1.394 0.769,2.465 0,1.093 -0.258,1.929 -0.769,2.504 -0.508,0.578 -1.141,0.863 -1.895,0.863 -0.754,0 -1.383,-0.285 -1.898,-0.863 -0.516,-0.575 -0.77,-1.403 -0.77,-2.485 0,-1.082 0.254,-1.91 0.77,-2.484 z m 19.715,1.16 c 0,-0.844 -0.051,-1.492 -0.157,-1.941 -0.109,-0.454 -0.296,-0.856 -0.566,-1.211 -0.273,-0.36 -0.668,-0.649 -1.199,-0.879 -0.528,-0.231 -1.11,-0.344 -1.742,-0.344 -1.45,0 -2.649,0.613 -3.598,1.848 v -1.606 h -2.68 v 10.914 h 2.887 v -4.941 c 0,-1.223 0.07,-2.055 0.219,-2.508 0.148,-0.453 0.418,-0.816 0.816,-1.09 0.399,-0.273 0.844,-0.41 1.348,-0.41 0.386,0 0.722,0.098 1,0.289 0.277,0.191 0.48,0.457 0.601,0.805 0.125,0.344 0.184,1.109 0.184,2.285 v 5.57 h 2.887 z m 9.859,5.727 c 1.02,0.878 2.484,1.32 4.387,1.32 1.308,0 2.402,-0.184 3.277,-0.551 0.875,-0.363 1.555,-0.926 2.035,-1.68 0.477,-0.754 0.719,-1.558 0.719,-2.425 0,-0.95 -0.203,-1.75 -0.602,-2.395 -0.402,-0.648 -0.957,-1.16 -1.664,-1.531 -0.707,-0.375 -1.804,-0.735 -3.281,-1.086 -1.48,-0.348 -2.41,-0.684 -2.797,-1.004 -0.301,-0.254 -0.453,-0.559 -0.453,-0.918 0,-0.387 0.164,-0.699 0.484,-0.934 0.5,-0.359 1.192,-0.543 2.079,-0.543 0.855,0 1.496,0.168 1.921,0.508 0.43,0.34 0.711,0.895 0.84,1.668 l 3.039,-0.133 c -0.046,-1.382 -0.546,-2.488 -1.504,-3.316 -0.957,-0.828 -2.378,-1.246 -4.269,-1.246 -1.156,0 -2.145,0.176 -2.965,0.523 -0.816,0.352 -1.445,0.86 -1.879,1.528 -0.433,0.668 -0.652,1.386 -0.652,2.152 0,1.191 0.465,2.203 1.387,3.031 0.66,0.59 1.8,1.086 3.433,1.489 1.266,0.316 2.078,0.535 2.434,0.66 0.519,0.183 0.883,0.402 1.093,0.652 0.208,0.246 0.313,0.551 0.313,0.906 0,0.559 -0.246,1.039 -0.742,1.457 -0.5,0.411 -1.235,0.621 -2.215,0.621 -0.926,0 -1.66,-0.234 -2.203,-0.699 -0.547,-0.465 -0.906,-1.199 -1.082,-2.187 l -2.961,0.285 c 0.195,1.683 0.808,2.969 1.828,3.848 z m 15.812,-7.594 c 0.286,-0.199 0.688,-0.301 1.2,-0.301 0.758,0 1.277,0.117 1.55,0.352 0.274,0.238 0.415,0.632 0.415,1.191 v 0.285 c -0.524,0.223 -1.457,0.457 -2.805,0.711 -1.004,0.191 -1.77,0.414 -2.297,0.672 -0.531,0.254 -0.945,0.625 -1.238,1.109 -0.297,0.485 -0.446,1.032 -0.446,1.649 0,0.933 0.325,1.703 0.973,2.312 0.648,0.61 1.531,0.91 2.656,0.91 0.637,0 1.235,-0.117 1.797,-0.355 0.563,-0.242 1.09,-0.602 1.582,-1.078 0.024,0.054 0.059,0.168 0.102,0.336 0.113,0.379 0.203,0.66 0.281,0.855 h 2.856 c -0.254,-0.523 -0.426,-1.008 -0.52,-1.465 -0.094,-0.457 -0.141,-1.164 -0.141,-2.121 l 0.032,-3.371 c 0,-1.254 -0.129,-2.113 -0.383,-2.582 -0.258,-0.469 -0.699,-0.859 -1.332,-1.164 -0.629,-0.301 -1.59,-0.453 -2.875,-0.453 -1.418,0 -2.489,0.25 -3.207,0.758 -0.719,0.508 -1.227,1.289 -1.52,2.344 l 2.621,0.472 c 0.176,-0.508 0.41,-0.863 0.699,-1.066 z m 3.165,3.984 c 0,0.692 -0.039,1.16 -0.114,1.406 -0.113,0.375 -0.34,0.696 -0.691,0.957 -0.473,0.34 -0.969,0.512 -1.488,0.512 -0.465,0 -0.848,-0.148 -1.153,-0.441 -0.301,-0.297 -0.449,-0.645 -0.449,-1.051 0,-0.41 0.188,-0.746 0.563,-1.012 0.246,-0.168 0.769,-0.332 1.574,-0.508 0.801,-0.168 1.386,-0.316 1.758,-0.437 z m 5.593,8.813 h 2.887 v -5.496 c 0.539,0.582 1.055,0.992 1.547,1.234 0.488,0.238 1.035,0.355 1.637,0.355 1.269,0 2.343,-0.503 3.234,-1.511 0.895,-1.012 1.34,-2.426 1.34,-4.25 0,-1.774 -0.445,-3.157 -1.328,-4.149 -0.883,-0.992 -1.961,-1.488 -3.227,-1.488 -0.726,0 -1.383,0.172 -1.98,0.512 -0.598,0.343 -1.071,0.789 -1.418,1.336 v -1.606 h -2.692 z m 3.551,-12.211 c 0.469,-0.543 1.055,-0.813 1.758,-0.813 0.68,0 1.25,0.274 1.707,0.828 0.461,0.555 0.691,1.407 0.691,2.551 0,1.227 -0.226,2.106 -0.672,2.645 -0.445,0.535 -1,0.804 -1.671,0.804 -0.7,0 -1.293,-0.293 -1.778,-0.875 -0.488,-0.586 -0.73,-1.496 -0.73,-2.718 0,-1.067 0.234,-1.875 0.695,-2.422 z m 9.305,12.211 h 2.886 v -5.496 c 0.54,0.582 1.055,0.992 1.547,1.234 0.489,0.238 1.032,0.355 1.637,0.355 1.266,0 2.344,-0.503 3.234,-1.511 0.891,-1.012 1.336,-2.426 1.336,-4.25 0,-1.774 -0.441,-3.157 -1.324,-4.149 -0.883,-0.992 -1.961,-1.488 -3.226,-1.488 -0.727,0 -1.387,0.172 -1.981,0.512 -0.597,0.343 -1.07,0.789 -1.418,1.336 v -1.606 h -2.691 z m 3.551,-12.211 c 0.468,-0.543 1.054,-0.813 1.757,-0.813 0.68,0 1.25,0.274 1.707,0.828 0.457,0.555 0.688,1.407 0.688,2.551 0,1.227 -0.223,2.106 -0.668,2.645 -0.445,0.535 -1.004,0.804 -1.676,0.804 -0.699,0 -1.289,-0.293 -1.773,-0.875 -0.489,-0.586 -0.731,-1.496 -0.731,-2.718 0,-1.067 0.231,-1.875 0.696,-2.422 z m 9.398,-7 v 15.062 h 2.887 v -5.465 c 0,-0.918 0.086,-1.613 0.261,-2.082 0.176,-0.468 0.45,-0.82 0.825,-1.054 0.379,-0.231 0.804,-0.348 1.285,-0.348 0.418,0 0.765,0.09 1.043,0.273 0.277,0.18 0.472,0.426 0.582,0.735 0.109,0.308 0.164,1.031 0.164,2.18 v 5.761 h 2.887 v -6.402 c 0,-0.977 -0.051,-1.703 -0.149,-2.168 -0.101,-0.465 -0.285,-0.891 -0.555,-1.274 -0.273,-0.382 -0.675,-0.699 -1.207,-0.945 -0.535,-0.246 -1.132,-0.367 -1.796,-0.367 -1.297,0 -2.411,0.543 -3.34,1.633 v -5.539 z m 12.863,2.672 h 2.887 v -2.668 h -2.887 z m 0,12.39 h 2.887 v -10.91 h -2.887 z m 8.61,-3.371 c 0,-1.855 0.082,-3.074 0.246,-3.656 0.156,-0.582 0.379,-0.984 0.66,-1.207 0.281,-0.223 0.625,-0.336 1.027,-0.336 0.418,0 0.871,0.156 1.356,0.473 l 0.894,-2.516 c -0.609,-0.363 -1.242,-0.543 -1.898,-0.543 -0.465,0 -0.887,0.113 -1.25,0.348 -0.367,0.234 -0.781,0.718 -1.238,1.449 v -1.555 h -2.68 v 10.914 h 2.883 z m 11.019,1.086 c -0.308,0.25 -0.687,0.371 -1.137,0.371 -0.664,0 -1.222,-0.238 -1.668,-0.711 -0.441,-0.476 -0.675,-1.144 -0.695,-2 h 7.231 c 0.039,-2.211 -0.41,-3.851 -1.344,-4.926 -0.942,-1.07 -2.223,-1.605 -3.844,-1.605 -1.445,0 -2.64,0.512 -3.586,1.535 -0.945,1.024 -1.418,2.442 -1.418,4.246 0,1.516 0.36,2.77 1.078,3.762 0.914,1.238 2.317,1.855 4.211,1.855 1.2,0 2.2,-0.273 2.996,-0.824 0.797,-0.551 1.383,-1.355 1.75,-2.41 l -2.875,-0.48 c -0.16,0.546 -0.39,0.945 -0.699,1.187 z m -3.449,-4.109 c -0.008,-0.785 0.195,-1.407 0.605,-1.867 0.411,-0.458 0.93,-0.688 1.563,-0.688 0.59,0 1.086,0.219 1.5,0.652 0.41,0.434 0.625,1.071 0.644,1.903 h -4.312"
         style="fill:#000000;fill-opacity:1;fill-rule:nonzero;stroke:none"
         id="path1121" /><path
         d="m 443.469,90.035 h 75.004 v 24.402 h -75.004 z"
         style="fill:#ffc000;fill-opacity:1;fill-rule:nonzero;stroke:none"
         id="path1123" /><path
         d="m 459.477,95.668 h -2.922 l -5.332,13.687 h 2.929 l 1.129,-3.109 h 5.473 l 1.195,3.109 h 3.008 z m -3.344,8.273 1.847,-5.078 1.887,5.078 z m 19.289,-0.75 c 0,-0.761 -0.051,-1.351 -0.149,-1.761 -0.093,-0.41 -0.265,-0.782 -0.511,-1.102 -0.246,-0.324 -0.61,-0.594 -1.086,-0.801 -0.481,-0.207 -1.012,-0.312 -1.59,-0.312 -1.313,0 -2.402,0.562 -3.266,1.683 v -1.46 h -2.437 v 9.917 h 2.621 v -4.492 c 0,-1.105 0.07,-1.867 0.203,-2.277 0.133,-0.41 0.379,-0.742 0.742,-0.988 0.36,-0.25 0.77,-0.375 1.223,-0.375 0.355,0 0.656,0.086 0.91,0.261 0.254,0.176 0.434,0.422 0.547,0.735 0.109,0.312 0.168,1.008 0.168,2.074 v 5.062 h 2.625 z m 2.699,3.965 c 0.43,0.793 1.055,1.395 1.883,1.805 0.824,0.414 1.687,0.621 2.598,0.621 1.468,0 2.687,-0.496 3.656,-1.48 0.969,-0.989 1.453,-2.231 1.453,-3.731 0,-1.488 -0.481,-2.719 -1.438,-3.695 -0.961,-0.973 -2.187,-1.461 -3.687,-1.461 -0.973,0 -1.852,0.215 -2.641,0.644 -0.785,0.43 -1.394,1.051 -1.824,1.868 -0.43,0.816 -0.644,1.66 -0.644,2.531 0,1.137 0.214,2.105 0.644,2.898 z m 2.746,-5.019 c 0.465,-0.52 1.043,-0.785 1.727,-0.785 0.683,0 1.258,0.265 1.722,0.785 0.461,0.523 0.696,1.273 0.696,2.242 0,0.996 -0.235,1.758 -0.696,2.277 -0.464,0.524 -1.039,0.785 -1.722,0.785 -0.684,0 -1.262,-0.261 -1.727,-0.785 -0.469,-0.519 -0.699,-1.273 -0.699,-2.261 0,-0.981 0.23,-1.735 0.699,-2.258 z m 17.996,-6.469 h -2.625 v 4.93 c -0.808,-0.922 -1.769,-1.383 -2.875,-1.383 -1.207,0 -2.207,0.437 -2.996,1.312 -0.793,0.875 -1.187,2.153 -1.187,3.832 0,1.645 0.406,2.926 1.218,3.844 0.813,0.918 1.786,1.379 2.926,1.379 0.563,0 1.117,-0.141 1.668,-0.418 0.551,-0.277 1.028,-0.699 1.434,-1.266 v 1.457 h 2.437 z m -6.371,6.297 c 0.418,-0.496 0.938,-0.742 1.563,-0.742 0.64,0 1.164,0.25 1.574,0.75 0.414,0.504 0.621,1.32 0.621,2.461 0,1.019 -0.215,1.789 -0.637,2.304 -0.422,0.512 -0.937,0.77 -1.539,0.77 -0.762,0 -1.351,-0.344 -1.777,-1.028 -0.293,-0.476 -0.438,-1.238 -0.438,-2.296 0,-0.985 0.211,-1.723 0.633,-2.219 z m 14.09,5.316 c -0.277,0.227 -0.625,0.336 -1.039,0.336 -0.602,0 -1.105,-0.215 -1.512,-0.648 -0.402,-0.43 -0.613,-1.035 -0.633,-1.817 h 6.575 c 0.039,-2.007 -0.371,-3.5 -1.223,-4.476 -0.852,-0.973 -2.016,-1.461 -3.492,-1.461 -1.313,0 -2.399,0.469 -3.262,1.394 -0.859,0.934 -1.285,2.219 -1.285,3.864 0,1.375 0.324,2.511 0.977,3.418 0.832,1.125 2.105,1.691 3.832,1.691 1.089,0 1.996,-0.254 2.718,-0.754 0.727,-0.5 1.258,-1.23 1.594,-2.191 l -2.613,-0.438 c -0.145,0.496 -0.356,0.86 -0.637,1.082 z m -3.137,-3.734 c -0.007,-0.715 0.176,-1.281 0.551,-1.699 0.375,-0.414 0.848,-0.625 1.418,-0.625 0.535,0 0.992,0.199 1.363,0.593 0.375,0.395 0.571,0.973 0.59,1.731 h -3.922"
         style="fill:#000000;fill-opacity:1;fill-rule:nonzero;stroke:none"
         id="path1125" /><path
         d="m 596.801,75.449 h 87.676 v 24.402 h -87.676 z"
         style="fill:#ffc000;fill-opacity:1;fill-rule:nonzero;stroke:none"
         id="path1127" /><path
         d="m 611.359,91.898 c -0.531,0.465 -1.164,0.7 -1.898,0.7 -0.996,0 -1.805,-0.368 -2.426,-1.102 -0.625,-0.734 -0.933,-1.965 -0.933,-3.695 0,-1.633 0.316,-2.813 0.945,-3.539 0.633,-0.731 1.457,-1.094 2.473,-1.094 0.734,0 1.359,0.207 1.871,0.617 0.511,0.41 0.851,0.969 1.011,1.68 l 2.735,-0.653 c -0.309,-1.093 -0.778,-1.937 -1.399,-2.519 -1.047,-0.992 -2.406,-1.488 -4.082,-1.488 -1.918,0 -3.465,0.633 -4.636,1.89 -1.18,1.262 -1.766,3.032 -1.766,5.309 0,2.156 0.586,3.851 1.754,5.094 1.172,1.242 2.664,1.863 4.48,1.863 1.469,0 2.684,-0.363 3.637,-1.09 0.957,-0.723 1.641,-1.832 2.051,-3.324 l -2.68,-0.852 c -0.23,1 -0.609,1.735 -1.137,2.203 z m 8.762,-5.027 c 0.262,-0.183 0.629,-0.277 1.09,-0.277 0.691,0 1.164,0.109 1.414,0.324 0.25,0.215 0.371,0.574 0.371,1.078 v 0.258 c -0.473,0.203 -1.32,0.418 -2.547,0.648 -0.91,0.172 -1.605,0.375 -2.086,0.61 -0.484,0.234 -0.859,0.57 -1.129,1.008 -0.265,0.437 -0.398,0.937 -0.398,1.5 0,0.843 0.293,1.546 0.879,2.101 0.59,0.551 1.394,0.832 2.414,0.832 0.582,0 1.125,-0.113 1.637,-0.328 0.511,-0.219 0.988,-0.547 1.437,-0.98 0.02,0.05 0.051,0.152 0.094,0.308 0.101,0.344 0.183,0.598 0.25,0.774 h 2.598 c -0.231,-0.473 -0.387,-0.918 -0.473,-1.329 -0.082,-0.414 -0.125,-1.058 -0.125,-1.929 l 0.027,-3.063 c 0,-1.136 -0.117,-1.922 -0.347,-2.347 -0.239,-0.426 -0.641,-0.778 -1.211,-1.055 -0.575,-0.277 -1.446,-0.418 -2.614,-0.418 -1.293,0 -2.261,0.234 -2.914,0.691 -0.652,0.461 -1.113,1.172 -1.383,2.129 l 2.383,0.43 c 0.16,-0.461 0.371,-0.781 0.633,-0.965 z m 2.875,3.617 c 0,0.629 -0.035,1.055 -0.101,1.282 -0.098,0.339 -0.309,0.628 -0.625,0.867 -0.43,0.308 -0.883,0.465 -1.356,0.465 -0.422,0 -0.769,-0.133 -1.043,-0.403 -0.277,-0.265 -0.414,-0.582 -0.414,-0.949 0,-0.375 0.172,-0.684 0.516,-0.926 0.226,-0.148 0.699,-0.304 1.429,-0.457 0.727,-0.156 1.262,-0.289 1.594,-0.402 z m 7.918,-5.676 v -3.503 l -2.637,1.535 v 1.968 h -1.203 v 2.09 h 1.203 v 4.325 c 0,0.929 0.032,1.543 0.086,1.847 0.071,0.43 0.192,0.77 0.367,1.024 0.18,0.254 0.458,0.457 0.84,0.617 0.379,0.16 0.805,0.238 1.278,0.238 0.769,0 1.461,-0.133 2.074,-0.394 l -0.227,-2.036 c -0.461,0.168 -0.812,0.254 -1.054,0.254 -0.172,0 -0.321,-0.047 -0.442,-0.132 -0.125,-0.086 -0.203,-0.2 -0.234,-0.333 -0.035,-0.132 -0.051,-0.601 -0.051,-1.414 v -3.996 h 1.789 v -2.09 z m 3.602,-3.773 v 13.688 h 2.625 v -4.969 c 0,-0.832 0.078,-1.461 0.238,-1.887 0.156,-0.43 0.41,-0.746 0.754,-0.961 0.34,-0.211 0.726,-0.316 1.164,-0.316 0.379,0 0.695,0.082 0.949,0.246 0.25,0.168 0.426,0.39 0.527,0.672 0.098,0.277 0.149,0.937 0.149,1.976 v 5.239 h 2.621 V 88.91 c 0,-0.89 -0.043,-1.547 -0.133,-1.969 -0.09,-0.425 -0.258,-0.808 -0.504,-1.16 -0.246,-0.347 -0.613,-0.633 -1.097,-0.855 -0.485,-0.227 -1.028,-0.34 -1.633,-0.34 -1.18,0 -2.188,0.496 -3.035,1.484 v -5.031 z m 11.73,11.488 c 0.43,0.793 1.059,1.395 1.883,1.809 0.824,0.41 1.691,0.617 2.601,0.617 1.469,0 2.684,-0.496 3.657,-1.48 0.965,-0.989 1.449,-2.231 1.449,-3.731 0,-1.488 -0.481,-2.719 -1.438,-3.695 -0.957,-0.973 -2.191,-1.461 -3.687,-1.461 -0.973,0 -1.852,0.215 -2.637,0.644 -0.789,0.43 -1.398,1.055 -1.828,1.872 -0.43,0.812 -0.644,1.656 -0.644,2.527 0,1.141 0.214,2.105 0.644,2.898 z m 2.746,-5.015 c 0.465,-0.524 1.043,-0.785 1.727,-0.785 0.683,0 1.261,0.261 1.722,0.785 0.465,0.519 0.696,1.269 0.696,2.238 0,0.996 -0.231,1.758 -0.696,2.277 -0.461,0.524 -1.039,0.785 -1.722,0.785 -0.684,0 -1.262,-0.261 -1.727,-0.785 -0.465,-0.519 -0.699,-1.273 -0.699,-2.257 0,-0.985 0.234,-1.739 0.699,-2.258 z m 18.02,-6.473 h -2.621 v 4.93 c -0.809,-0.922 -1.77,-1.383 -2.879,-1.383 -1.207,0 -2.203,0.437 -2.996,1.312 -0.789,0.875 -1.184,2.153 -1.184,3.836 0,1.641 0.406,2.922 1.215,3.84 0.812,0.918 1.793,1.379 2.93,1.379 0.558,0 1.117,-0.141 1.668,-0.418 0.55,-0.277 1.027,-0.699 1.433,-1.265 v 1.457 h 2.434 z m -6.371,6.297 c 0.421,-0.496 0.941,-0.742 1.562,-0.742 0.645,0 1.172,0.254 1.582,0.754 0.41,0.5 0.613,1.32 0.613,2.457 0,1.023 -0.21,1.793 -0.632,2.304 -0.426,0.512 -0.938,0.77 -1.543,0.77 -0.758,0 -1.348,-0.344 -1.774,-1.027 -0.293,-0.473 -0.437,-1.239 -0.437,-2.297 0,-0.985 0.207,-1.723 0.629,-2.219 z m 14.07,5.316 c -0.281,0.227 -0.625,0.34 -1.039,0.34 -0.602,0 -1.106,-0.219 -1.512,-0.652 -0.402,-0.43 -0.613,-1.035 -0.633,-1.813 h 6.571 c 0.039,-2.011 -0.368,-3.504 -1.223,-4.48 -0.852,-0.973 -2.016,-1.461 -3.488,-1.461 -1.317,0 -2.403,0.469 -3.262,1.394 -0.859,0.934 -1.285,2.223 -1.285,3.864 0,1.375 0.324,2.515 0.976,3.418 0.829,1.125 2.106,1.691 3.832,1.691 1.086,0 1.993,-0.254 2.719,-0.754 0.727,-0.5 1.258,-1.23 1.59,-2.187 l -2.613,-0.442 c -0.141,0.496 -0.352,0.86 -0.633,1.082 z m -3.137,-3.73 c -0.008,-0.719 0.176,-1.285 0.551,-1.699 0.371,-0.418 0.848,-0.629 1.418,-0.629 0.535,0 0.988,0.199 1.363,0.594 0.375,0.394 0.571,0.972 0.586,1.734 h -3.918"
         style="fill:#000000;fill-opacity:1;fill-rule:nonzero;stroke:none"
         id="path1129" /><path
         d="m 415.078,90.469 h 19.75 v 102.102 h -19.75 z"
         style="fill:#ffffff;fill-opacity:1;fill-rule:nonzero;stroke:none"
         id="path1131" /><g
         id="g1133"><g
           id="g1135"><g
             id="g1137"
             clip-path="url(#clipPath1141)"><g
               id="g1143"><path
                 d="m 713.336,90.391 h 20.367 v 102.062 h -20.367 z"
                 style="fill:#ffffff;fill-opacity:1;fill-rule:nonzero;stroke:none"
                 id="path1145" /></g></g></g></g><path
         d="m 684.902,114.281 -6.019,51.266 h -75.906 l -6.063,-51.266 h 87.988"
         style="fill:#bf9000;fill-opacity:1;fill-rule:evenodd;stroke:none"
         id="path1147" /><path
         d="m 596.918,99.773 h 87.441 v 14.508 h -87.441 z"
         style="fill:#bf9000;fill-opacity:1;fill-rule:nonzero;stroke:none"
         id="path1149" /><path
         d="m 626.52,111.59 v -7.535 l 1.898,7.535 h 1.859 l 1.899,-7.535 v 7.535 h 1.797 v -9.574 h -2.899 l -1.719,6.531 -1.738,-6.531 h -2.89 v 9.574 z m 9.378,0 h 3.258 c 1.231,-0.008 2.008,-0.031 2.332,-0.067 0.516,-0.054 0.946,-0.207 1.297,-0.453 0.348,-0.246 0.629,-0.574 0.828,-0.984 0.203,-0.414 0.305,-0.836 0.305,-1.274 0,-0.55 -0.156,-1.031 -0.469,-1.441 -0.316,-0.41 -0.761,-0.699 -1.347,-0.867 0.414,-0.188 0.742,-0.469 0.984,-0.844 0.238,-0.375 0.363,-0.785 0.363,-1.234 0,-0.414 -0.097,-0.789 -0.297,-1.121 -0.195,-0.332 -0.441,-0.598 -0.734,-0.797 -0.293,-0.203 -0.625,-0.332 -1,-0.399 -0.371,-0.062 -0.934,-0.093 -1.695,-0.093 h -3.825 z m 3.043,-7.981 c 0.911,0 1.461,0.008 1.653,0.036 0.32,0.035 0.562,0.148 0.73,0.332 0.16,0.187 0.242,0.429 0.242,0.722 0,0.309 -0.093,0.559 -0.285,0.746 -0.187,0.192 -0.449,0.305 -0.781,0.344 -0.18,0.023 -0.648,0.031 -1.402,0.031 h -1.266 v -2.211 z m 0.45,3.805 c 0.882,0 1.449,0.047 1.714,0.137 0.266,0.094 0.465,0.238 0.606,0.437 0.137,0.203 0.207,0.45 0.207,0.735 0,0.339 -0.09,0.609 -0.27,0.812 -0.179,0.203 -0.414,0.328 -0.703,0.383 -0.187,0.039 -0.629,0.059 -1.324,0.059 h -1.789 v -2.563 z m 13.437,4.176 v -1.613 h -5.348 v -2.606 h 4.805 v -1.613 h -4.805 v -2.121 h 5.165 v -1.621 h -7.098 v 9.574 h 7.281"
         style="fill:#000000;fill-opacity:1;fill-rule:nonzero;stroke:none"
         id="path1151" /><path
         d="m 615.004,125.469 c 0,-1.18 0.055,-1.953 0.156,-2.324 0.102,-0.372 0.242,-0.625 0.422,-0.766 0.176,-0.145 0.395,-0.215 0.652,-0.215 0.266,0 0.555,0.102 0.86,0.301 l 0.57,-1.598 c -0.387,-0.234 -0.789,-0.347 -1.207,-0.347 -0.297,0 -0.559,0.074 -0.793,0.222 -0.234,0.149 -0.496,0.453 -0.789,0.922 v -0.988 h -1.703 v 6.933 h 1.832 z m 7.023,0.691 c -0.199,0.156 -0.437,0.235 -0.726,0.235 -0.422,0 -0.778,-0.149 -1.059,-0.454 -0.281,-0.3 -0.43,-0.726 -0.445,-1.269 h 4.598 c 0.027,-1.406 -0.258,-2.449 -0.856,-3.129 -0.594,-0.684 -1.41,-1.023 -2.441,-1.023 -0.918,0 -1.676,0.324 -2.282,0.976 -0.597,0.649 -0.898,1.551 -0.898,2.699 0,0.965 0.227,1.762 0.684,2.391 0.582,0.789 1.472,1.184 2.679,1.184 0.762,0 1.395,-0.176 1.903,-0.528 0.507,-0.347 0.878,-0.859 1.113,-1.531 l -1.828,-0.305 c -0.102,0.348 -0.25,0.598 -0.442,0.754 z m -2.195,-2.609 c -0.008,-0.504 0.121,-0.899 0.383,-1.188 0.262,-0.293 0.594,-0.437 0.992,-0.437 0.375,0 0.695,0.136 0.957,0.414 0.258,0.277 0.395,0.68 0.41,1.211 z m 5.883,4.742 c 0,0.617 0.246,1.129 0.734,1.531 0.492,0.403 1.328,0.602 2.5,0.602 0.625,0 1.137,-0.063 1.547,-0.196 0.406,-0.128 0.731,-0.312 0.977,-0.542 0.242,-0.231 0.433,-0.547 0.566,-0.954 0.137,-0.406 0.203,-1.015 0.203,-1.832 v -6.226 h -1.719 v 0.972 c -0.554,-0.753 -1.261,-1.128 -2.121,-1.128 -0.832,0 -1.527,0.304 -2.086,0.921 -0.558,0.614 -0.839,1.5 -0.839,2.664 0,0.926 0.211,1.704 0.64,2.325 0.543,0.789 1.281,1.179 2.211,1.179 0.84,0 1.531,-0.371 2.082,-1.121 v 1.012 c 0,0.41 -0.031,0.691 -0.086,0.844 -0.086,0.211 -0.207,0.367 -0.367,0.465 -0.238,0.14 -0.598,0.214 -1.078,0.214 -0.375,0 -0.649,-0.066 -0.82,-0.199 -0.129,-0.09 -0.211,-0.258 -0.247,-0.5 l -2.093,-0.254 z m 2.07,-5.855 c 0.285,-0.344 0.649,-0.512 1.086,-0.512 0.457,0 0.828,0.172 1.125,0.519 0.297,0.348 0.445,0.883 0.445,1.602 0,0.687 -0.156,1.207 -0.464,1.558 -0.309,0.348 -0.688,0.524 -1.137,0.524 -0.418,0 -0.77,-0.172 -1.055,-0.512 -0.285,-0.34 -0.426,-0.883 -0.426,-1.617 0,-0.699 0.141,-1.223 0.426,-1.562 z m 8.031,3.031 c 0,-1.18 0.051,-1.953 0.157,-2.324 0.101,-0.372 0.242,-0.625 0.418,-0.766 0.179,-0.145 0.394,-0.215 0.656,-0.215 0.262,0 0.551,0.102 0.859,0.301 l 0.567,-1.598 c -0.387,-0.234 -0.789,-0.347 -1.207,-0.347 -0.297,0 -0.559,0.074 -0.793,0.222 -0.231,0.149 -0.493,0.453 -0.785,0.922 v -0.988 h -1.708 v 6.933 h 1.836 z m 3.473,0.605 c 0.301,0.555 0.738,0.977 1.316,1.266 0.579,0.285 1.18,0.43 1.821,0.43 1.023,0 1.879,-0.344 2.554,-1.036 0.676,-0.691 1.016,-1.562 1.016,-2.609 0,-1.043 -0.336,-1.902 -1.008,-2.582 -0.668,-0.684 -1.527,-1.023 -2.578,-1.023 -0.68,0 -1.293,0.148 -1.844,0.453 -0.55,0.297 -0.976,0.734 -1.277,1.304 -0.301,0.571 -0.449,1.161 -0.449,1.77 0,0.797 0.148,1.473 0.449,2.027 z m 1.918,-3.508 c 0.328,-0.367 0.731,-0.55 1.207,-0.55 0.481,0 0.883,0.183 1.207,0.55 0.324,0.364 0.488,0.887 0.488,1.563 0,0.699 -0.164,1.23 -0.488,1.594 -0.324,0.367 -0.726,0.55 -1.207,0.55 -0.476,0 -0.879,-0.183 -1.207,-0.55 -0.324,-0.364 -0.488,-0.891 -0.488,-1.578 0,-0.688 0.164,-1.215 0.488,-1.579 z m 9.305,5.043 1.172,-4.457 1.199,4.457 h 1.762 l 2.226,-6.933 h -1.809 l -1.324,4.547 -1.156,-4.547 h -1.773 l -1.196,4.547 -1.297,-4.547 h -1.781 l 2.192,6.933 z m 13.636,-4.308 c 0,-0.535 -0.035,-0.946 -0.101,-1.235 -0.07,-0.289 -0.188,-0.543 -0.359,-0.769 -0.172,-0.227 -0.426,-0.41 -0.762,-0.559 -0.336,-0.144 -0.707,-0.218 -1.11,-0.218 -0.918,0 -1.679,0.394 -2.285,1.175 v -1.019 h -1.703 v 6.933 h 1.832 v -3.136 c 0,-0.778 0.047,-1.309 0.141,-1.594 0.094,-0.289 0.269,-0.52 0.519,-0.695 0.254,-0.172 0.539,-0.258 0.856,-0.258 0.25,0 0.461,0.058 0.636,0.179 0.176,0.125 0.305,0.293 0.383,0.512 0.078,0.223 0.117,0.707 0.117,1.453 v 3.539 h 1.836 v -4.308"
         style="fill:#000000;fill-opacity:1;fill-rule:nonzero;stroke:none"
         id="path1153" /><path
         d="m 620.766,137.141 c -0.5,-0.368 -1.172,-0.547 -2.016,-0.547 -1.035,0 -1.852,0.32 -2.457,0.957 -0.605,0.64 -0.906,1.531 -0.906,2.676 0,1.128 0.301,2.015 0.902,2.656 0.606,0.64 1.414,0.961 2.43,0.961 0.89,0 1.601,-0.215 2.133,-0.637 0.531,-0.418 0.89,-1.047 1.078,-1.871 l -1.801,-0.309 c -0.094,0.485 -0.25,0.825 -0.473,1.024 -0.218,0.195 -0.508,0.297 -0.855,0.297 -0.465,0 -0.836,-0.172 -1.113,-0.512 -0.278,-0.34 -0.415,-0.918 -0.415,-1.742 0,-0.742 0.137,-1.266 0.407,-1.582 0.273,-0.317 0.64,-0.477 1.093,-0.477 0.348,0 0.625,0.094 0.84,0.277 0.219,0.184 0.356,0.454 0.418,0.813 l 1.809,-0.324 c -0.219,-0.742 -0.578,-1.297 -1.074,-1.66 z m 2.488,5.007 c 0.301,0.555 0.738,0.977 1.316,1.262 0.578,0.289 1.18,0.434 1.821,0.434 1.023,0 1.879,-0.348 2.554,-1.039 0.676,-0.688 1.016,-1.555 1.016,-2.606 0,-1.039 -0.336,-1.902 -1.008,-2.582 -0.668,-0.683 -1.531,-1.023 -2.578,-1.023 -0.68,0 -1.293,0.152 -1.844,0.449 -0.551,0.301 -0.976,0.734 -1.277,1.309 -0.301,0.57 -0.449,1.16 -0.449,1.769 0,0.797 0.148,1.469 0.449,2.027 z m 1.918,-3.511 c 0.328,-0.364 0.73,-0.547 1.207,-0.547 0.48,0 0.883,0.183 1.207,0.547 0.324,0.367 0.488,0.89 0.488,1.566 0,0.699 -0.164,1.231 -0.488,1.598 -0.324,0.363 -0.727,0.547 -1.207,0.547 -0.477,0 -0.879,-0.184 -1.207,-0.547 -0.324,-0.367 -0.488,-0.895 -0.488,-1.582 0,-0.688 0.164,-1.215 0.488,-1.582 z m 12.535,0.738 c 0,-0.535 -0.035,-0.945 -0.102,-1.234 -0.07,-0.286 -0.187,-0.543 -0.359,-0.77 -0.172,-0.226 -0.426,-0.414 -0.758,-0.559 -0.34,-0.144 -0.711,-0.218 -1.113,-0.218 -0.918,0 -1.68,0.39 -2.285,1.176 v -1.02 h -1.703 v 6.938 h 1.832 v -3.145 c 0,-0.773 0.051,-1.305 0.14,-1.594 0.094,-0.285 0.27,-0.515 0.524,-0.687 0.25,-0.176 0.535,-0.266 0.851,-0.266 0.25,0 0.461,0.063 0.637,0.184 0.18,0.125 0.305,0.293 0.383,0.515 0.078,0.219 0.117,0.703 0.117,1.453 v 3.54 h 1.836 z m 3.789,-2.625 v -2.449 l -1.844,1.074 v 1.375 h -0.84 v 1.465 h 0.84 v 3.023 c 0,0.649 0.024,1.078 0.063,1.293 0.047,0.301 0.133,0.539 0.258,0.711 0.125,0.18 0.316,0.324 0.582,0.434 0.269,0.109 0.566,0.168 0.898,0.168 0.535,0 1.02,-0.094 1.445,-0.278 l -0.156,-1.421 c -0.32,0.117 -0.566,0.175 -0.738,0.175 -0.121,0 -0.223,-0.031 -0.309,-0.09 l -0.164,-0.234 c -0.023,-0.09 -0.035,-0.422 -0.035,-0.988 v -2.793 h 1.254 v -1.465 z m 4.344,1.441 c 0.183,-0.129 0.437,-0.195 0.765,-0.195 0.481,0 0.809,0.078 0.985,0.227 0.172,0.152 0.262,0.402 0.262,0.754 v 0.183 c -0.332,0.141 -0.926,0.289 -1.786,0.449 -0.632,0.125 -1.121,0.266 -1.457,0.43 -0.339,0.16 -0.601,0.399 -0.789,0.703 -0.187,0.309 -0.281,0.656 -0.281,1.051 0,0.59 0.207,1.082 0.617,1.469 0.41,0.386 0.977,0.582 1.688,0.582 0.406,0 0.785,-0.078 1.144,-0.231 0.36,-0.152 0.692,-0.379 1.004,-0.683 l 0.067,0.215 c 0.07,0.238 0.129,0.417 0.175,0.543 h 1.817 c -0.16,-0.333 -0.274,-0.645 -0.328,-0.934 -0.059,-0.289 -0.09,-0.738 -0.09,-1.348 l 0.019,-2.14 c 0,-0.797 -0.082,-1.348 -0.242,-1.645 -0.164,-0.297 -0.445,-0.543 -0.848,-0.734 -0.402,-0.196 -1.011,-0.293 -1.828,-0.293 -0.902,0 -1.582,0.164 -2.035,0.484 -0.461,0.32 -0.781,0.817 -0.969,1.488 l 1.665,0.301 c 0.113,-0.324 0.261,-0.547 0.445,-0.676 z m 2.012,2.532 c 0,0.441 -0.024,0.738 -0.075,0.894 -0.07,0.238 -0.215,0.442 -0.437,0.606 -0.301,0.218 -0.613,0.328 -0.945,0.328 -0.297,0 -0.543,-0.094 -0.735,-0.281 -0.187,-0.188 -0.285,-0.411 -0.285,-0.668 0,-0.262 0.117,-0.473 0.359,-0.645 0.157,-0.105 0.489,-0.215 1,-0.32 0.508,-0.11 0.883,-0.203 1.118,-0.282 z m 8.578,-3.582 c -0.496,-0.368 -1.168,-0.547 -2.012,-0.547 -1.031,0 -1.852,0.32 -2.453,0.957 -0.606,0.64 -0.91,1.531 -0.91,2.676 0,1.128 0.3,2.015 0.902,2.656 0.605,0.64 1.414,0.961 2.43,0.961 0.89,0 1.601,-0.215 2.133,-0.637 0.531,-0.418 0.89,-1.047 1.078,-1.871 l -1.805,-0.309 c -0.086,0.485 -0.246,0.825 -0.469,1.024 -0.222,0.195 -0.508,0.297 -0.855,0.297 -0.465,0 -0.836,-0.172 -1.114,-0.512 -0.273,-0.34 -0.414,-0.918 -0.414,-1.742 0,-0.742 0.137,-1.266 0.411,-1.582 0.269,-0.317 0.632,-0.477 1.093,-0.477 0.344,0 0.621,0.094 0.84,0.277 0.211,0.184 0.352,0.454 0.41,0.813 l 1.813,-0.324 c -0.219,-0.742 -0.578,-1.297 -1.078,-1.66 z m 4.39,-0.391 v -2.449 l -1.84,1.074 v 1.375 h -0.843 v 1.465 h 0.843 v 3.023 c 0,0.649 0.02,1.078 0.059,1.293 0.047,0.301 0.133,0.539 0.258,0.711 0.125,0.18 0.316,0.324 0.586,0.434 0.265,0.109 0.562,0.168 0.894,0.168 0.539,0 1.024,-0.094 1.45,-0.278 l -0.157,-1.421 c -0.324,0.117 -0.566,0.175 -0.738,0.175 -0.121,0 -0.227,-0.031 -0.309,-0.09 l -0.168,-0.234 c -0.023,-0.09 -0.035,-0.422 -0.035,-0.988 v -2.793 h 1.254 v -1.465 h -1.254"
         style="fill:#000000;fill-opacity:1;fill-rule:nonzero;stroke:none"
         id="path1155" /><path
         d="m 624,159.375 h 1.836 v -9.574 H 624 Z m 5.535,-5.496 c 0.184,-0.129 0.438,-0.195 0.766,-0.195 0.484,0 0.808,0.078 0.984,0.226 0.176,0.149 0.262,0.402 0.262,0.754 v 0.184 c -0.332,0.14 -0.926,0.289 -1.781,0.453 -0.637,0.121 -1.121,0.261 -1.461,0.426 -0.336,0.164 -0.598,0.398 -0.789,0.703 -0.184,0.308 -0.278,0.656 -0.278,1.05 0,0.594 0.207,1.082 0.617,1.469 0.411,0.387 0.973,0.582 1.688,0.582 0.406,0 0.785,-0.078 1.141,-0.23 0.359,-0.153 0.695,-0.379 1.007,-0.688 l 0.067,0.219 c 0.07,0.238 0.129,0.422 0.176,0.543 h 1.816 c -0.164,-0.332 -0.273,-0.641 -0.332,-0.934 -0.059,-0.289 -0.086,-0.734 -0.086,-1.347 l 0.016,-2.141 c 0,-0.797 -0.078,-1.344 -0.243,-1.644 -0.164,-0.297 -0.445,-0.543 -0.847,-0.735 -0.399,-0.195 -1.008,-0.293 -1.828,-0.293 -0.903,0 -1.578,0.16 -2.039,0.485 -0.453,0.324 -0.778,0.816 -0.961,1.488 l 1.66,0.301 c 0.113,-0.321 0.262,-0.547 0.445,-0.676 z m 2.012,2.531 c 0,0.438 -0.024,0.735 -0.07,0.895 -0.071,0.238 -0.219,0.441 -0.438,0.605 -0.301,0.219 -0.617,0.328 -0.949,0.328 -0.293,0 -0.539,-0.093 -0.731,-0.281 -0.191,-0.187 -0.285,-0.41 -0.285,-0.668 0,-0.258 0.117,-0.477 0.356,-0.644 0.16,-0.106 0.492,-0.211 1,-0.321 0.511,-0.109 0.882,-0.203 1.117,-0.281 z m 5.379,2.985 c -0.106,0.386 -0.262,0.707 -0.469,0.957 -0.207,0.246 -0.519,0.375 -0.949,0.375 -0.227,0 -0.488,-0.032 -0.778,-0.086 l 0.165,1.437 c 0.339,0.074 0.687,0.11 1.039,0.11 0.347,0 0.66,-0.036 0.937,-0.11 0.277,-0.074 0.508,-0.176 0.699,-0.312 0.188,-0.133 0.356,-0.305 0.5,-0.52 0.149,-0.211 0.301,-0.519 0.465,-0.926 l 0.434,-1.207 2.449,-6.675 h -1.898 l -1.622,4.925 -1.656,-4.925 h -1.953 z m 9.242,-1.469 c -0.199,0.156 -0.441,0.234 -0.727,0.234 -0.421,0 -0.777,-0.152 -1.058,-0.453 -0.285,-0.305 -0.43,-0.727 -0.445,-1.269 h 4.597 c 0.027,-1.407 -0.258,-2.454 -0.855,-3.133 -0.594,-0.68 -1.41,-1.024 -2.442,-1.024 -0.918,0 -1.679,0.328 -2.281,0.977 -0.602,0.652 -0.898,1.551 -0.898,2.699 0,0.961 0.226,1.762 0.683,2.391 0.582,0.789 1.473,1.183 2.68,1.183 0.762,0 1.394,-0.176 1.902,-0.527 0.508,-0.352 0.879,-0.859 1.114,-1.531 l -1.829,-0.309 c -0.101,0.348 -0.25,0.602 -0.441,0.762 z m -2.195,-2.614 c -0.008,-0.5 0.121,-0.898 0.382,-1.191 0.262,-0.289 0.594,-0.437 0.993,-0.437 0.375,0 0.695,0.14 0.953,0.418 0.261,0.273 0.398,0.679 0.414,1.21 z m 7.789,1.922 c 0,-1.179 0.054,-1.957 0.156,-2.328 0.102,-0.367 0.242,-0.625 0.422,-0.769 0.176,-0.137 0.394,-0.207 0.652,-0.207 0.266,0 0.555,0.097 0.86,0.297 l 0.57,-1.602 c -0.387,-0.227 -0.789,-0.344 -1.207,-0.344 -0.297,0 -0.563,0.074 -0.793,0.223 -0.234,0.148 -0.496,0.453 -0.789,0.922 v -0.988 h -1.703 v 6.937 h 1.832 v -2.141"
         style="fill:#000000;fill-opacity:1;fill-rule:nonzero;stroke:none"
         id="path1157" /></g></g></svg>
