<?xml version="1.0" encoding="UTF-8"?>
<!DOCTYPE svg PUBLIC "-//W3C//DTD SVG 1.1//EN" "http://www.w3.org/Graphics/SVG/1.1/DTD/svg11.dtd">
<svg width="160mm" height="90mm" viewBox="0 0 16000 9000" version="1.1" xmlns="http://www.w3.org/2000/svg" stroke-width="28.222" stroke-linejoin="round" xml:space="preserve">
 <path fill="rgb(255,255,255)" stroke="none" d="M 8002,9011 L 2,9011 2,12 16001,12 16001,9011 8002,9011 Z"/>
 <path fill="none" stroke="rgb(179,179,179)" stroke-linejoin="round" d="M 9187,7203 L 2880,7203 2880,391 15495,391 15495,7203 9187,7203 Z"/>
 <path fill="none" stroke="rgb(179,179,179)" stroke-linejoin="round" d="M 15495,7202 L 2880,7202"/>
 <path fill="none" stroke="rgb(179,179,179)" stroke-linejoin="round" d="M 15495,5839 L 2880,5839"/>
 <path fill="none" stroke="rgb(179,179,179)" stroke-linejoin="round" d="M 15495,4477 L 2880,4477"/>
 <path fill="none" stroke="rgb(179,179,179)" stroke-linejoin="round" d="M 15495,3115 L 2880,3115"/>
 <path fill="none" stroke="rgb(179,179,179)" stroke-linejoin="round" d="M 15495,1752 L 2880,1752"/>
 <path fill="none" stroke="rgb(179,179,179)" stroke-linejoin="round" d="M 15495,390 L 2880,390"/>
 <path fill="none" stroke="rgb(179,179,179)" stroke-linejoin="round" d="M 2880,7352 L 2880,7202"/>
 <path fill="none" stroke="rgb(179,179,179)" stroke-linejoin="round" d="M 4982,7352 L 4982,7202"/>
 <path fill="none" stroke="rgb(179,179,179)" stroke-linejoin="round" d="M 7085,7352 L 7085,7202"/>
 <path fill="none" stroke="rgb(179,179,179)" stroke-linejoin="round" d="M 9187,7352 L 9187,7202"/>
 <path fill="none" stroke="rgb(179,179,179)" stroke-linejoin="round" d="M 11289,7352 L 11289,7202"/>
 <path fill="none" stroke="rgb(179,179,179)" stroke-linejoin="round" d="M 13392,7352 L 13392,7202"/>
 <path fill="none" stroke="rgb(179,179,179)" stroke-linejoin="round" d="M 15495,7352 L 15495,7202"/>
 <path fill="none" stroke="rgb(179,179,179)" stroke-linejoin="round" d="M 2880,7202 L 15495,7202"/>
 <path fill="none" stroke="rgb(179,179,179)" stroke-linejoin="round" d="M 2730,7202 L 2880,7202"/>
 <path fill="none" stroke="rgb(179,179,179)" stroke-linejoin="round" d="M 2730,5839 L 2880,5839"/>
 <path fill="none" stroke="rgb(179,179,179)" stroke-linejoin="round" d="M 2730,4477 L 2880,4477"/>
 <path fill="none" stroke="rgb(179,179,179)" stroke-linejoin="round" d="M 2730,3115 L 2880,3115"/>
 <path fill="none" stroke="rgb(179,179,179)" stroke-linejoin="round" d="M 2730,1752 L 2880,1752"/>
 <path fill="none" stroke="rgb(179,179,179)" stroke-linejoin="round" d="M 2730,390 L 2880,390"/>
 <path fill="none" stroke="rgb(179,179,179)" stroke-linejoin="round" d="M 2880,7202 L 2880,390"/>
 <path fill="none" stroke="rgb(0,69,134)" stroke-width="80" stroke-linejoin="round" d="M 2880,7201 L 3090,7201 3300,7201 3510,7201 3721,7201 3931,7201 4141,7201 4351,7201 4562,7201 4772,7201 4982,7201 5192,7201 5403,7201 5613,7201 5823,7201 6034,7201 6244,7201 6454,7201 6664,7201 6875,7201 7085,7201 7295,7201 7505,7200 7716,7200 7926,7199 8135,7198 8345,7197 8556,7196 8766,7194 8976,7191 9187,7188 9397,7183 9607,7176 9817,7167 10028,7154 10238,7137 10448,7115 10658,7084 10869,7042 11079,6985 11289,6908 11499,6803 11710,6661 11920,6469 12130,6208 12341,5854 12551,5374 12761,4723 12971,3841 13182,2645 13392,1021"/>
 <text class="TextShape"><tspan class="TextParagraph" font-family="Liberation Sans, sans-serif" font-size="353px" font-weight="400"><tspan class="TextPosition" x="2787" y="7770"><tspan fill="rgb(0,0,0)" stroke="none">0</tspan></tspan></tspan></text>
 <text class="TextShape"><tspan class="TextParagraph" font-family="Liberation Sans, sans-serif" font-size="353px" font-weight="400"><tspan class="TextPosition" x="4797" y="7770"><tspan fill="rgb(0,0,0)" stroke="none">10</tspan></tspan></tspan></text>
 <text class="TextShape"><tspan class="TextParagraph" font-family="Liberation Sans, sans-serif" font-size="353px" font-weight="400"><tspan class="TextPosition" x="6900" y="7770"><tspan fill="rgb(0,0,0)" stroke="none">20</tspan></tspan></tspan></text>
 <text class="TextShape"><tspan class="TextParagraph" font-family="Liberation Sans, sans-serif" font-size="353px" font-weight="400"><tspan class="TextPosition" x="9003" y="7770"><tspan fill="rgb(0,0,0)" stroke="none">30</tspan></tspan></tspan></text>
 <text class="TextShape"><tspan class="TextParagraph" font-family="Liberation Sans, sans-serif" font-size="353px" font-weight="400"><tspan class="TextPosition" x="11105" y="7770"><tspan fill="rgb(0,0,0)" stroke="none">40</tspan></tspan></tspan></text>
 <text class="TextShape"><tspan class="TextParagraph" font-family="Liberation Sans, sans-serif" font-size="353px" font-weight="400"><tspan class="TextPosition" x="13208" y="7770"><tspan fill="rgb(0,0,0)" stroke="none">50</tspan></tspan></tspan></text>
 <text class="TextShape"><tspan class="TextParagraph" font-family="Liberation Sans, sans-serif" font-size="353px" font-weight="400"><tspan class="TextPosition" x="15311" y="7770"><tspan fill="rgb(0,0,0)" stroke="none">60</tspan></tspan></tspan></text>
 <text class="TextShape"><tspan class="TextParagraph" font-family="Liberation Sans, sans-serif" font-size="353px" font-weight="400"><tspan class="TextPosition" x="2445" y="7323"><tspan fill="rgb(0,0,0)" stroke="none">0</tspan></tspan></tspan></text>
 <text class="TextShape"><tspan class="TextParagraph" font-family="Liberation Sans, sans-serif" font-size="353px" font-weight="400"><tspan class="TextPosition" x="1519" y="5960"><tspan fill="rgb(0,0,0)" stroke="none">500000</tspan></tspan></tspan></text>
 <text class="TextShape"><tspan class="TextParagraph" font-family="Liberation Sans, sans-serif" font-size="353px" font-weight="400"><tspan class="TextPosition" x="1334" y="4597"><tspan fill="rgb(0,0,0)" stroke="none">1000000</tspan></tspan></tspan></text>
 <text class="TextShape"><tspan class="TextParagraph" font-family="Liberation Sans, sans-serif" font-size="353px" font-weight="400"><tspan class="TextPosition" x="1334" y="3235"><tspan fill="rgb(0,0,0)" stroke="none">1500000</tspan></tspan></tspan></text>
 <text class="TextShape"><tspan class="TextParagraph" font-family="Liberation Sans, sans-serif" font-size="353px" font-weight="400"><tspan class="TextPosition" x="1334" y="1872"><tspan fill="rgb(0,0,0)" stroke="none">2000000</tspan></tspan></tspan></text>
 <text class="TextShape"><tspan class="TextParagraph" font-family="Liberation Sans, sans-serif" font-size="353px" font-weight="400"><tspan class="TextPosition" x="1334" y="510"><tspan fill="rgb(0,0,0)" stroke="none">2500000</tspan></tspan></tspan></text>
 <text class="TextShape"><tspan class="TextParagraph" font-family="Liberation Sans, sans-serif" font-size="318px" font-weight="400"><tspan class="TextPosition" x="8217" y="8417"><tspan fill="rgb(0,0,0)" stroke="none">Day</tspan></tspan></tspan></text>
 <text class="TextShape" transform="translate(839,5079) rotate(-90) translate(-839,-5079)"><tspan class="TextParagraph" font-family="Liberation Sans, sans-serif" font-size="318px" font-weight="400"><tspan class="TextPosition" x="839" y="5079"><tspan fill="rgb(0,0,0)" stroke="none">New infections</tspan></tspan></tspan></text>
</svg>