<?xml version="1.0" encoding="UTF-8"?>
<!DOCTYPE svg PUBLIC "-//W3C//DTD SVG 1.1//EN" "http://www.w3.org/Graphics/SVG/1.1/DTD/svg11.dtd">
<svg width="160mm" height="90mm" viewBox="0 0 16000 9000" version="1.1" xmlns="http://www.w3.org/2000/svg" stroke-width="28.222" stroke-linejoin="round" xml:space="preserve">
 <path fill="rgb(255,255,255)" stroke="none" d="M 8001,9011 L 1,9011 1,12 16000,12 16000,9011 8001,9011 Z"/>
 <path fill="none" stroke="rgb(179,179,179)" stroke-linejoin="round" d="M 8273,7203 L 2059,7203 2059,391 14487,391 14487,7203 8273,7203 Z"/>
 <path fill="none" stroke="rgb(179,179,179)" stroke-linejoin="round" d="M 14486,7202 L 2059,7202"/>
 <path fill="none" stroke="rgb(179,179,179)" stroke-linejoin="round" d="M 14486,6350 L 2059,6350"/>
 <path fill="none" stroke="rgb(179,179,179)" stroke-linejoin="round" d="M 14486,5498 L 2059,5498"/>
 <path fill="none" stroke="rgb(179,179,179)" stroke-linejoin="round" d="M 14486,4647 L 2059,4647"/>
 <path fill="none" stroke="rgb(179,179,179)" stroke-linejoin="round" d="M 14486,3796 L 2059,3796"/>
 <path fill="none" stroke="rgb(179,179,179)" stroke-linejoin="round" d="M 14486,2944 L 2059,2944"/>
 <path fill="none" stroke="rgb(179,179,179)" stroke-linejoin="round" d="M 14486,2093 L 2059,2093"/>
 <path fill="none" stroke="rgb(179,179,179)" stroke-linejoin="round" d="M 14486,1241 L 2059,1241"/>
 <path fill="none" stroke="rgb(179,179,179)" stroke-linejoin="round" d="M 14486,390 L 2059,390"/>
 <path fill="none" stroke="rgb(221,221,221)" stroke-linejoin="round" d="M 14486,6945 L 2059,6945"/>
 <path fill="none" stroke="rgb(221,221,221)" stroke-linejoin="round" d="M 14486,6795 L 2059,6795"/>
 <path fill="none" stroke="rgb(221,221,221)" stroke-linejoin="round" d="M 14486,6689 L 2059,6689"/>
 <path fill="none" stroke="rgb(221,221,221)" stroke-linejoin="round" d="M 14486,6606 L 2059,6606"/>
 <path fill="none" stroke="rgb(221,221,221)" stroke-linejoin="round" d="M 14486,6539 L 2059,6539"/>
 <path fill="none" stroke="rgb(221,221,221)" stroke-linejoin="round" d="M 14486,6482 L 2059,6482"/>
 <path fill="none" stroke="rgb(221,221,221)" stroke-linejoin="round" d="M 14486,6432 L 2059,6432"/>
 <path fill="none" stroke="rgb(221,221,221)" stroke-linejoin="round" d="M 14486,6389 L 2059,6389"/>
 <path fill="none" stroke="rgb(221,221,221)" stroke-linejoin="round" d="M 14486,6094 L 2059,6094"/>
 <path fill="none" stroke="rgb(221,221,221)" stroke-linejoin="round" d="M 14486,5944 L 2059,5944"/>
 <path fill="none" stroke="rgb(221,221,221)" stroke-linejoin="round" d="M 14486,5837 L 2059,5837"/>
 <path fill="none" stroke="rgb(221,221,221)" stroke-linejoin="round" d="M 14486,5755 L 2059,5755"/>
 <path fill="none" stroke="rgb(221,221,221)" stroke-linejoin="round" d="M 14486,5687 L 2059,5687"/>
 <path fill="none" stroke="rgb(221,221,221)" stroke-linejoin="round" d="M 14486,5630 L 2059,5630"/>
 <path fill="none" stroke="rgb(221,221,221)" stroke-linejoin="round" d="M 14486,5581 L 2059,5581"/>
 <path fill="none" stroke="rgb(221,221,221)" stroke-linejoin="round" d="M 14486,5537 L 2059,5537"/>
 <path fill="none" stroke="rgb(221,221,221)" stroke-linejoin="round" d="M 14486,5242 L 2059,5242"/>
 <path fill="none" stroke="rgb(221,221,221)" stroke-linejoin="round" d="M 14486,5092 L 2059,5092"/>
 <path fill="none" stroke="rgb(221,221,221)" stroke-linejoin="round" d="M 14486,4986 L 2059,4986"/>
 <path fill="none" stroke="rgb(221,221,221)" stroke-linejoin="round" d="M 14486,4903 L 2059,4903"/>
 <path fill="none" stroke="rgb(221,221,221)" stroke-linejoin="round" d="M 14486,4836 L 2059,4836"/>
 <path fill="none" stroke="rgb(221,221,221)" stroke-linejoin="round" d="M 14486,4779 L 2059,4779"/>
 <path fill="none" stroke="rgb(221,221,221)" stroke-linejoin="round" d="M 14486,4729 L 2059,4729"/>
 <path fill="none" stroke="rgb(221,221,221)" stroke-linejoin="round" d="M 14486,4686 L 2059,4686"/>
 <path fill="none" stroke="rgb(221,221,221)" stroke-linejoin="round" d="M 14486,4391 L 2059,4391"/>
 <path fill="none" stroke="rgb(221,221,221)" stroke-linejoin="round" d="M 14486,4241 L 2059,4241"/>
 <path fill="none" stroke="rgb(221,221,221)" stroke-linejoin="round" d="M 14486,4135 L 2059,4135"/>
 <path fill="none" stroke="rgb(221,221,221)" stroke-linejoin="round" d="M 14486,4052 L 2059,4052"/>
 <path fill="none" stroke="rgb(221,221,221)" stroke-linejoin="round" d="M 14486,3985 L 2059,3985"/>
 <path fill="none" stroke="rgb(221,221,221)" stroke-linejoin="round" d="M 14486,3928 L 2059,3928"/>
 <path fill="none" stroke="rgb(221,221,221)" stroke-linejoin="round" d="M 14486,3879 L 2059,3879"/>
 <path fill="none" stroke="rgb(221,221,221)" stroke-linejoin="round" d="M 14486,3835 L 2059,3835"/>
 <path fill="none" stroke="rgb(221,221,221)" stroke-linejoin="round" d="M 14486,3540 L 2059,3540"/>
 <path fill="none" stroke="rgb(221,221,221)" stroke-linejoin="round" d="M 14486,3390 L 2059,3390"/>
 <path fill="none" stroke="rgb(221,221,221)" stroke-linejoin="round" d="M 14486,3283 L 2059,3283"/>
 <path fill="none" stroke="rgb(221,221,221)" stroke-linejoin="round" d="M 14486,3201 L 2059,3201"/>
 <path fill="none" stroke="rgb(221,221,221)" stroke-linejoin="round" d="M 14486,3133 L 2059,3133"/>
 <path fill="none" stroke="rgb(221,221,221)" stroke-linejoin="round" d="M 14486,3076 L 2059,3076"/>
 <path fill="none" stroke="rgb(221,221,221)" stroke-linejoin="round" d="M 14486,3027 L 2059,3027"/>
 <path fill="none" stroke="rgb(221,221,221)" stroke-linejoin="round" d="M 14486,2983 L 2059,2983"/>
 <path fill="none" stroke="rgb(221,221,221)" stroke-linejoin="round" d="M 14486,2688 L 2059,2688"/>
 <path fill="none" stroke="rgb(221,221,221)" stroke-linejoin="round" d="M 14486,2538 L 2059,2538"/>
 <path fill="none" stroke="rgb(221,221,221)" stroke-linejoin="round" d="M 14486,2432 L 2059,2432"/>
 <path fill="none" stroke="rgb(221,221,221)" stroke-linejoin="round" d="M 14486,2349 L 2059,2349"/>
 <path fill="none" stroke="rgb(221,221,221)" stroke-linejoin="round" d="M 14486,2282 L 2059,2282"/>
 <path fill="none" stroke="rgb(221,221,221)" stroke-linejoin="round" d="M 14486,2225 L 2059,2225"/>
 <path fill="none" stroke="rgb(221,221,221)" stroke-linejoin="round" d="M 14486,2175 L 2059,2175"/>
 <path fill="none" stroke="rgb(221,221,221)" stroke-linejoin="round" d="M 14486,2132 L 2059,2132"/>
 <path fill="none" stroke="rgb(221,221,221)" stroke-linejoin="round" d="M 14486,1836 L 2059,1836"/>
 <path fill="none" stroke="rgb(221,221,221)" stroke-linejoin="round" d="M 14486,1686 L 2059,1686"/>
 <path fill="none" stroke="rgb(221,221,221)" stroke-linejoin="round" d="M 14486,1580 L 2059,1580"/>
 <path fill="none" stroke="rgb(221,221,221)" stroke-linejoin="round" d="M 14486,1497 L 2059,1497"/>
 <path fill="none" stroke="rgb(221,221,221)" stroke-linejoin="round" d="M 14486,1430 L 2059,1430"/>
 <path fill="none" stroke="rgb(221,221,221)" stroke-linejoin="round" d="M 14486,1373 L 2059,1373"/>
 <path fill="none" stroke="rgb(221,221,221)" stroke-linejoin="round" d="M 14486,1324 L 2059,1324"/>
 <path fill="none" stroke="rgb(221,221,221)" stroke-linejoin="round" d="M 14486,1280 L 2059,1280"/>
 <path fill="none" stroke="rgb(221,221,221)" stroke-linejoin="round" d="M 14486,985 L 2059,985"/>
 <path fill="none" stroke="rgb(221,221,221)" stroke-linejoin="round" d="M 14486,835 L 2059,835"/>
 <path fill="none" stroke="rgb(221,221,221)" stroke-linejoin="round" d="M 14486,728 L 2059,728"/>
 <path fill="none" stroke="rgb(221,221,221)" stroke-linejoin="round" d="M 14486,646 L 2059,646"/>
 <path fill="none" stroke="rgb(221,221,221)" stroke-linejoin="round" d="M 14486,578 L 2059,578"/>
 <path fill="none" stroke="rgb(221,221,221)" stroke-linejoin="round" d="M 14486,521 L 2059,521"/>
 <path fill="none" stroke="rgb(221,221,221)" stroke-linejoin="round" d="M 14486,472 L 2059,472"/>
 <path fill="none" stroke="rgb(221,221,221)" stroke-linejoin="round" d="M 14486,428 L 2059,428"/>
 <path fill="none" stroke="rgb(179,179,179)" stroke-linejoin="round" d="M 2059,7352 L 2059,7202"/>
 <path fill="none" stroke="rgb(179,179,179)" stroke-linejoin="round" d="M 4130,7352 L 4130,7202"/>
 <path fill="none" stroke="rgb(179,179,179)" stroke-linejoin="round" d="M 6201,7352 L 6201,7202"/>
 <path fill="none" stroke="rgb(179,179,179)" stroke-linejoin="round" d="M 8272,7352 L 8272,7202"/>
 <path fill="none" stroke="rgb(179,179,179)" stroke-linejoin="round" d="M 10343,7352 L 10343,7202"/>
 <path fill="none" stroke="rgb(179,179,179)" stroke-linejoin="round" d="M 12415,7352 L 12415,7202"/>
 <path fill="none" stroke="rgb(179,179,179)" stroke-linejoin="round" d="M 14486,7352 L 14486,7202"/>
 <path fill="none" stroke="rgb(179,179,179)" stroke-linejoin="round" d="M 2059,7202 L 14486,7202"/>
 <path fill="none" stroke="rgb(179,179,179)" stroke-linejoin="round" d="M 2059,6350 L 14486,6350"/>
 <path fill="none" stroke="rgb(179,179,179)" stroke-linejoin="round" d="M 1909,7202 L 2059,7202"/>
 <path fill="none" stroke="rgb(179,179,179)" stroke-linejoin="round" d="M 1909,6350 L 2059,6350"/>
 <path fill="none" stroke="rgb(179,179,179)" stroke-linejoin="round" d="M 1909,5498 L 2059,5498"/>
 <path fill="none" stroke="rgb(179,179,179)" stroke-linejoin="round" d="M 1909,4647 L 2059,4647"/>
 <path fill="none" stroke="rgb(179,179,179)" stroke-linejoin="round" d="M 1909,3796 L 2059,3796"/>
 <path fill="none" stroke="rgb(179,179,179)" stroke-linejoin="round" d="M 1909,2944 L 2059,2944"/>
 <path fill="none" stroke="rgb(179,179,179)" stroke-linejoin="round" d="M 1909,2093 L 2059,2093"/>
 <path fill="none" stroke="rgb(179,179,179)" stroke-linejoin="round" d="M 1909,1241 L 2059,1241"/>
 <path fill="none" stroke="rgb(179,179,179)" stroke-linejoin="round" d="M 1909,390 L 2059,390"/>
 <path fill="none" stroke="rgb(179,179,179)" stroke-linejoin="round" d="M 2059,7202 L 2059,390"/>
 <path fill="none" stroke="rgb(0,69,134)" stroke-width="80" stroke-linejoin="round" d="M 2059,6350 L 2266,6863 2473,6185 2680,6449 2887,6006 3094,6136 3301,5815 3509,5862 3716,5614 3923,5608 4130,5406 4337,5365 4544,5193 4751,5128 4959,4976 5166,4895 5373,4756 5580,4665 5787,4535 5994,4437 6202,4313 6409,4210 6616,4089 6823,3983 7030,3865 7237,3757 7444,3641 7652,3531 7859,3416 8065,3305 8272,3191 8479,3079 8686,2966 8893,2854 9101,2741 9308,2628 9515,2515 9722,2403 9929,2290 10136,2178 10344,2065 10551,1952 10758,1839 10965,1727 11172,1614 11379,1502 11586,1389 11794,1276 12001,1164 12208,1051 12415,938"/>
 <text class="TextShape"><tspan class="TextParagraph" font-family="Liberation Sans, sans-serif" font-size="353px" font-weight="400"><tspan class="TextPosition" x="1966" y="7770"><tspan fill="rgb(0,0,0)" stroke="none">0</tspan></tspan></tspan></text>
 <text class="TextShape"><tspan class="TextParagraph" font-family="Liberation Sans, sans-serif" font-size="353px" font-weight="400"><tspan class="TextPosition" x="3945" y="7770"><tspan fill="rgb(0,0,0)" stroke="none">10</tspan></tspan></tspan></text>
 <text class="TextShape"><tspan class="TextParagraph" font-family="Liberation Sans, sans-serif" font-size="353px" font-weight="400"><tspan class="TextPosition" x="6016" y="7770"><tspan fill="rgb(0,0,0)" stroke="none">20</tspan></tspan></tspan></text>
 <text class="TextShape"><tspan class="TextParagraph" font-family="Liberation Sans, sans-serif" font-size="353px" font-weight="400"><tspan class="TextPosition" x="8088" y="7770"><tspan fill="rgb(0,0,0)" stroke="none">30</tspan></tspan></tspan></text>
 <text class="TextShape"><tspan class="TextParagraph" font-family="Liberation Sans, sans-serif" font-size="353px" font-weight="400"><tspan class="TextPosition" x="10159" y="7770"><tspan fill="rgb(0,0,0)" stroke="none">40</tspan></tspan></tspan></text>
 <text class="TextShape"><tspan class="TextParagraph" font-family="Liberation Sans, sans-serif" font-size="353px" font-weight="400"><tspan class="TextPosition" x="12231" y="7770"><tspan fill="rgb(0,0,0)" stroke="none">50</tspan></tspan></tspan></text>
 <text class="TextShape"><tspan class="TextParagraph" font-family="Liberation Sans, sans-serif" font-size="353px" font-weight="400"><tspan class="TextPosition" x="14302" y="7770"><tspan fill="rgb(0,0,0)" stroke="none">60</tspan></tspan></tspan></text>
 <text class="TextShape"><tspan class="TextParagraph" font-family="Liberation Sans, sans-serif" font-size="353px" font-weight="400"><tspan class="TextPosition" x="1333" y="7323"><tspan fill="rgb(0,0,0)" stroke="none">0.1</tspan></tspan></tspan></text>
 <text class="TextShape"><tspan class="TextParagraph" font-family="Liberation Sans, sans-serif" font-size="353px" font-weight="400"><tspan class="TextPosition" x="1624" y="6471"><tspan fill="rgb(0,0,0)" stroke="none">1</tspan></tspan></tspan></text>
 <text class="TextShape"><tspan class="TextParagraph" font-family="Liberation Sans, sans-serif" font-size="353px" font-weight="400"><tspan class="TextPosition" x="1439" y="5619"><tspan fill="rgb(0,0,0)" stroke="none">10</tspan></tspan></tspan></text>
 <text class="TextShape"><tspan class="TextParagraph" font-family="Liberation Sans, sans-serif" font-size="353px" font-weight="400"><tspan class="TextPosition" x="1253" y="4768"><tspan fill="rgb(0,0,0)" stroke="none">100</tspan></tspan></tspan></text>
 <text class="TextShape"><tspan class="TextParagraph" font-family="Liberation Sans, sans-serif" font-size="353px" font-weight="400"><tspan class="TextPosition" x="1068" y="3916"><tspan fill="rgb(0,0,0)" stroke="none">1000</tspan></tspan></tspan></text>
 <text class="TextShape"><tspan class="TextParagraph" font-family="Liberation Sans, sans-serif" font-size="353px" font-weight="400"><tspan class="TextPosition" x="883" y="3064"><tspan fill="rgb(0,0,0)" stroke="none">10000</tspan></tspan></tspan></text>
 <text class="TextShape"><tspan class="TextParagraph" font-family="Liberation Sans, sans-serif" font-size="353px" font-weight="400"><tspan class="TextPosition" x="698" y="2213"><tspan fill="rgb(0,0,0)" stroke="none">100000</tspan></tspan></tspan></text>
 <text class="TextShape"><tspan class="TextParagraph" font-family="Liberation Sans, sans-serif" font-size="353px" font-weight="400"><tspan class="TextPosition" x="513" y="1361"><tspan fill="rgb(0,0,0)" stroke="none">1000000</tspan></tspan></tspan></text>
 <text class="TextShape"><tspan class="TextParagraph" font-family="Liberation Sans, sans-serif" font-size="353px" font-weight="400"><tspan class="TextPosition" x="327" y="510"><tspan fill="rgb(0,0,0)" stroke="none">10000000</tspan></tspan></tspan></text>
 <text class="TextShape"><tspan class="TextParagraph" font-family="Liberation Sans, sans-serif" font-size="318px" font-weight="400"><tspan class="TextPosition" x="8216" y="8417"><tspan fill="rgb(0,0,0)" stroke="none">Day</tspan></tspan></tspan></text>
 <text class="TextShape" transform="translate(838,5079) rotate(-90) translate(-838,-5079)"><tspan class="TextParagraph" font-family="Liberation Sans, sans-serif" font-size="318px" font-weight="400"><tspan class="TextPosition" x="838" y="5079"><tspan fill="rgb(0,0,0)" stroke="none">New infections</tspan></tspan></tspan></text>
</svg>