<?xml version="1.0" encoding="UTF-8" standalone="no"?>
<svg
   height="95.800285pt"
   version="1.1"
   viewBox="0 0 379.85312 95.800285"
   width="379.85312pt"
   id="svg206"
   sodipodi:docname="B1p.svg"
   inkscape:version="1.1 (c68e22c387, 2021-05-23)"
   xmlns:inkscape="http://www.inkscape.org/namespaces/inkscape"
   xmlns:sodipodi="http://sodipodi.sourceforge.net/DTD/sodipodi-0.dtd"
   xmlns:xlink="http://www.w3.org/1999/xlink"
   xmlns="http://www.w3.org/2000/svg"
   xmlns:svg="http://www.w3.org/2000/svg"
   xmlns:rdf="http://www.w3.org/1999/02/22-rdf-syntax-ns#"
   xmlns:cc="http://creativecommons.org/ns#"
   xmlns:dc="http://purl.org/dc/elements/1.1/">
  <sodipodi:namedview
     id="namedview208"
     pagecolor="#ffffff"
     bordercolor="#666666"
     borderopacity="1.0"
     inkscape:pageshadow="2"
     inkscape:pageopacity="0.0"
     inkscape:pagecheckerboard="0"
     inkscape:document-units="pt"
     showgrid="false"
     fit-margin-top="0"
     fit-margin-left="0"
     fit-margin-right="0"
     fit-margin-bottom="0"
     inkscape:zoom="2"
     inkscape:cx="184.75"
     inkscape:cy="46.5"
     inkscape:window-width="1920"
     inkscape:window-height="981"
     inkscape:window-x="0"
     inkscape:window-y="28"
     inkscape:window-maximized="1"
     inkscape:current-layer="svg206" />
  <metadata
     id="metadata2">
    <rdf:RDF>
      <cc:Work>
        <dc:type
           rdf:resource="http://purl.org/dc/dcmitype/StillImage" />
        <dc:date>2021-08-09T15:19:19.231211</dc:date>
        <dc:format>image/svg+xml</dc:format>
        <dc:creator>
          <cc:Agent>
            <dc:title>Matplotlib v3.4.2, https://matplotlib.org/</dc:title>
          </cc:Agent>
        </dc:creator>
      </cc:Work>
    </rdf:RDF>
  </metadata>
  <defs
     id="defs6">
    <style
       type="text/css"
       id="style4">*{stroke-linecap:butt;stroke-linejoin:round;}</style>
    <defs
       id="defs166">
      <path
         d="M 1259,2228 V 519 h 1013 q 509,0 754,211 246,211 246,645 0,438 -246,645 -245,208 -754,208 z m 0,1919 V 2741 h 935 q 462,0 688,173 227,174 227,530 0,353 -227,528 -226,175 -688,175 z m -631,519 h 1613 q 722,0 1112,-300 391,-300 391,-853 0,-429 -200,-682 -200,-253 -588,-315 466,-100 724,-418 258,-317 258,-792 0,-625 -425,-966 Q 3088,0 2303,0 H 628 Z"
         id="DejaVuSans-42"
         transform="scale(0.015625)" />
      <path
         d="M 1159,525 V -1331 H 581 v 4831 h 578 v -531 q 182,312 458,463 277,152 661,152 638,0 1036,-506 399,-506 399,-1331 0,-825 -399,-1332 -398,-506 -1036,-506 -384,0 -661,152 -276,152 -458,464 z m 1957,1222 q 0,634 -261,995 -261,361 -717,361 -457,0 -718,-361 -261,-361 -261,-995 0,-634 261,-995 261,-361 718,-361 456,0 717,361 261,361 261,995 z"
         id="DejaVuSans-70"
         transform="scale(0.015625)" />
    </defs>
  </defs>
  <g
     id="patch_2"
     transform="translate(-9.346875,-109.06803)">
    <path
       d="M 54,176.59176 H 388.8 V 109.96824 H 54 Z"
       style="fill:#ffffff"
       id="path11" />
  </g>
  <g
     id="xtick_1"
     transform="translate(-9.346875,-109.06803)">
    <g
       id="line2d_1">
      <defs
         id="defs15">
        <path
           d="M 0,0 V 3.5"
           id="md802ec13c3"
           style="stroke:#000000;stroke-width:0.8" />
      </defs>
      <g
         id="g19">
        <use
           style="stroke:#000000;stroke-width:0.8"
           x="69.218185"
           xlink:href="#md802ec13c3"
           y="176.59177"
           id="use17"
           width="100%"
           height="100%" />
      </g>
    </g>
    <g
       id="text_1">
      <!-- 0 -->
      <g
         transform="matrix(0.1,0,0,-0.1,66.036932,191.1902)"
         id="g27">
        <defs
           id="defs23">
          <path
             d="m 2034,4250 q -487,0 -733,-480 -245,-479 -245,-1442 0,-959 245,-1439 246,-480 733,-480 491,0 736,480 246,480 246,1439 0,963 -246,1442 -245,480 -736,480 z m 0,500 q 785,0 1199,-621 414,-620 414,-1801 0,-1178 -414,-1799 -414,-620 -1199,-620 -784,0 -1198,620 -414,621 -414,1799 0,1181 414,1801 414,621 1198,621 z"
             id="DejaVuSans-30"
             transform="scale(0.015625)" />
        </defs>
        <use
           xlink:href="#DejaVuSans-30"
           id="use25"
           x="0"
           y="0"
           width="100%"
           height="100%" />
      </g>
    </g>
  </g>
  <g
     id="xtick_2"
     transform="translate(-9.346875,-109.06803)">
    <g
       id="line2d_2">
      <g
         id="g33">
        <use
           style="stroke:#000000;stroke-width:0.8"
           x="130.09091"
           xlink:href="#md802ec13c3"
           y="176.59177"
           id="use31"
           width="100%"
           height="100%" />
      </g>
    </g>
    <g
       id="text_2">
      <!-- 1 -->
      <g
         transform="matrix(0.1,0,0,-0.1,126.90966,191.1902)"
         id="g41">
        <defs
           id="defs37">
          <path
             d="M 794,531 H 1825 V 4091 L 703,3866 v 575 l 1116,225 h 631 V 531 H 3481 V 0 H 794 Z"
             id="DejaVuSans-31"
             transform="scale(0.015625)" />
        </defs>
        <use
           xlink:href="#DejaVuSans-31"
           id="use39"
           x="0"
           y="0"
           width="100%"
           height="100%" />
      </g>
    </g>
  </g>
  <g
     id="xtick_3"
     transform="translate(-9.346875,-109.06803)">
    <g
       id="line2d_3">
      <g
         id="g47">
        <use
           style="stroke:#000000;stroke-width:0.8"
           x="190.96364"
           xlink:href="#md802ec13c3"
           y="176.59177"
           id="use45"
           width="100%"
           height="100%" />
      </g>
    </g>
    <g
       id="text_3">
      <!-- 2 -->
      <g
         transform="matrix(0.1,0,0,-0.1,187.78239,191.1902)"
         id="g55">
        <defs
           id="defs51">
          <path
             d="M 1228,531 H 3431 V 0 H 469 v 531 q 359,372 979,998 621,627 780,809 303,340 423,576 121,236 121,464 0,372 -261,606 -261,235 -680,235 -297,0 -627,-103 -329,-103 -704,-313 v 638 q 381,153 712,231 332,78 607,78 725,0 1156,-363 431,-362 431,-968 0,-288 -108,-546 -107,-257 -392,-607 -78,-91 -497,-524 Q 1991,1309 1228,531 Z"
             id="DejaVuSans-32"
             transform="scale(0.015625)" />
        </defs>
        <use
           xlink:href="#DejaVuSans-32"
           id="use53"
           x="0"
           y="0"
           width="100%"
           height="100%" />
      </g>
    </g>
  </g>
  <g
     id="xtick_4"
     transform="translate(-9.346875,-109.06803)">
    <g
       id="line2d_4">
      <g
         id="g61">
        <use
           style="stroke:#000000;stroke-width:0.8"
           x="251.83636"
           xlink:href="#md802ec13c3"
           y="176.59177"
           id="use59"
           width="100%"
           height="100%" />
      </g>
    </g>
    <g
       id="text_4">
      <!-- 3 -->
      <g
         transform="matrix(0.1,0,0,-0.1,248.65511,191.1902)"
         id="g69">
        <defs
           id="defs65">
          <path
             d="m 2597,2516 q 453,-97 707,-404 255,-306 255,-756 0,-690 -475,-1069 -475,-378 -1350,-378 -293,0 -604,58 -311,58 -642,174 v 609 q 262,-153 574,-231 313,-78 654,-78 593,0 904,234 311,234 311,681 0,413 -289,645 -289,233 -804,233 h -544 v 519 h 569 q 465,0 712,186 247,186 247,536 0,359 -255,551 -254,193 -729,193 -260,0 -557,-57 -297,-56 -653,-174 v 562 q 360,100 674,150 314,50 592,50 719,0 1137,-327 419,-326 419,-882 0,-388 -222,-655 -222,-267 -631,-370 z"
             id="DejaVuSans-33"
             transform="scale(0.015625)" />
        </defs>
        <use
           xlink:href="#DejaVuSans-33"
           id="use67"
           x="0"
           y="0"
           width="100%"
           height="100%" />
      </g>
    </g>
  </g>
  <g
     id="xtick_5"
     transform="translate(-9.346875,-109.06803)">
    <g
       id="line2d_5">
      <g
         id="g75">
        <use
           style="stroke:#000000;stroke-width:0.8"
           x="312.70908"
           xlink:href="#md802ec13c3"
           y="176.59177"
           id="use73"
           width="100%"
           height="100%" />
      </g>
    </g>
    <g
       id="text_5">
      <!-- 4 -->
      <g
         transform="matrix(0.1,0,0,-0.1,309.52784,191.1902)"
         id="g83">
        <defs
           id="defs79">
          <path
             d="M 2419,4116 825,1625 h 1594 z m -166,550 h 794 V 1625 h 666 V 1100 H 3047 V 0 H 2419 V 1100 H 313 v 609 z"
             id="DejaVuSans-34"
             transform="scale(0.015625)" />
        </defs>
        <use
           xlink:href="#DejaVuSans-34"
           id="use81"
           x="0"
           y="0"
           width="100%"
           height="100%" />
      </g>
    </g>
  </g>
  <g
     id="xtick_6"
     transform="translate(-9.346875,-109.06803)">
    <g
       id="line2d_6">
      <g
         id="g89">
        <use
           style="stroke:#000000;stroke-width:0.8"
           x="373.58182"
           xlink:href="#md802ec13c3"
           y="176.59177"
           id="use87"
           width="100%"
           height="100%" />
      </g>
    </g>
    <g
       id="text_6">
      <!-- 5 -->
      <g
         transform="matrix(0.1,0,0,-0.1,370.40057,191.1902)"
         id="g97">
        <defs
           id="defs93">
          <path
             d="M 691,4666 H 3169 V 4134 H 1269 V 2991 q 137,47 274,70 138,23 276,23 781,0 1237,-428 457,-428 457,-1159 Q 3513,744 3044,326 2575,-91 1722,-91 1428,-91 1123,-41 819,9 494,109 v 635 q 281,-153 581,-228 300,-75 634,-75 541,0 856,284 316,284 316,772 0,487 -316,771 -315,285 -856,285 -253,0 -505,-56 -251,-56 -513,-175 z"
             id="DejaVuSans-35"
             transform="scale(0.015625)" />
        </defs>
        <use
           xlink:href="#DejaVuSans-35"
           id="use95"
           x="0"
           y="0"
           width="100%"
           height="100%" />
      </g>
    </g>
  </g>
  <g
     id="ytick_1"
     transform="translate(-9.346875,-109.06803)">
    <g
       id="line2d_7">
      <defs
         id="defs111">
        <path
           d="M 0,0 H -3.5"
           id="m9d33f8f4ec"
           style="stroke:#000000;stroke-width:0.8" />
      </defs>
      <g
         id="g115">
        <use
           style="stroke:#000000;stroke-width:0.8"
           x="54"
           xlink:href="#m9d33f8f4ec"
           y="173.56342"
           id="use113"
           width="100%"
           height="100%" />
      </g>
    </g>
    <g
       id="text_8">
      <!-- −0.5 -->
      <g
         transform="matrix(0.1,0,0,-0.1,22.717187,177.36264)"
         id="g130">
        <defs
           id="defs120">
          <path
             d="M 678,2272 H 4684 V 1741 H 678 Z"
             id="DejaVuSans-2212"
             transform="scale(0.015625)" />
          <path
             d="m 684,794 h 660 V 0 H 684 Z"
             id="DejaVuSans-2e"
             transform="scale(0.015625)" />
        </defs>
        <use
           xlink:href="#DejaVuSans-2212"
           id="use122"
           x="0"
           y="0"
           width="100%"
           height="100%" />
        <use
           x="83.789062"
           xlink:href="#DejaVuSans-30"
           id="use124"
           y="0"
           width="100%"
           height="100%" />
        <use
           x="147.41211"
           xlink:href="#DejaVuSans-2e"
           id="use126"
           y="0"
           width="100%"
           height="100%" />
        <use
           x="179.19922"
           xlink:href="#DejaVuSans-35"
           id="use128"
           y="0"
           width="100%"
           height="100%" />
      </g>
    </g>
  </g>
  <g
     id="ytick_2"
     transform="translate(-9.346875,-109.06803)">
    <g
       id="line2d_8">
      <g
         id="g136">
        <use
           style="stroke:#000000;stroke-width:0.8"
           x="54"
           xlink:href="#m9d33f8f4ec"
           y="143.12706"
           id="use134"
           width="100%"
           height="100%" />
      </g>
    </g>
    <g
       id="text_9">
      <!-- 0.0 -->
      <g
         transform="matrix(0.1,0,0,-0.1,31.096875,146.92627)"
         id="g145">
        <use
           xlink:href="#DejaVuSans-30"
           id="use139"
           x="0"
           y="0"
           width="100%"
           height="100%" />
        <use
           x="63.623047"
           xlink:href="#DejaVuSans-2e"
           id="use141"
           y="0"
           width="100%"
           height="100%" />
        <use
           x="95.410156"
           xlink:href="#DejaVuSans-30"
           id="use143"
           y="0"
           width="100%"
           height="100%" />
      </g>
    </g>
  </g>
  <g
     id="ytick_3"
     transform="translate(-9.346875,-109.06803)">
    <g
       id="line2d_9">
      <g
         id="g151">
        <use
           style="stroke:#000000;stroke-width:0.8"
           x="54"
           xlink:href="#m9d33f8f4ec"
           y="112.69069"
           id="use149"
           width="100%"
           height="100%" />
      </g>
    </g>
    <g
       id="text_10">
      <!-- 0.5 -->
      <g
         transform="matrix(0.1,0,0,-0.1,31.096875,116.48991)"
         id="g160">
        <use
           xlink:href="#DejaVuSans-30"
           id="use154"
           x="0"
           y="0"
           width="100%"
           height="100%" />
        <use
           x="63.623047"
           xlink:href="#DejaVuSans-2e"
           id="use156"
           y="0"
           width="100%"
           height="100%" />
        <use
           x="95.410156"
           xlink:href="#DejaVuSans-35"
           id="use158"
           y="0"
           width="100%"
           height="100%" />
      </g>
    </g>
  </g>
  <g
     id="line2d_10"
     transform="translate(-9.346875,-109.06803)">
    <path
       clip-path="url(#pc745ab4176)"
       d="M 54,143.12705 H 388.8"
       style="fill:none;stroke:#000000;stroke-width:1.5;stroke-linecap:square"
       id="path178" />
  </g>
  <g
     id="line2d_11"
     transform="translate(-9.346875,-109.06803)">
    <path
       clip-path="url(#pc745ab4176)"
       d="M 69.218182,176.59176 V 109.96824"
       style="fill:none;stroke:#000000;stroke-width:1.5;stroke-linecap:square"
       id="path181" />
  </g>
  <g
     id="line2d_12"
     transform="translate(-9.346875,-109.06803)">
    <path
       clip-path="url(#pc745ab4176)"
       d="m 69.218182,173.56342 59.649158,-59.64916 1.52946,59.34326 59.64916,-59.64915 1.52946,59.34326 59.64916,-59.64915 1.52946,59.34326 59.64916,-59.64916 1.52946,59.34326 58.11969,-58.11968 1.52947,59.34326 v 0"
       style="fill:none;stroke:#1f77b4;stroke-width:1.5;stroke-linecap:square"
       id="path184" />
  </g>
  <g
     id="patch_3"
     transform="translate(-9.346875,-109.06803)">
    <path
       d="M 54,176.59176 V 109.96824"
       style="fill:none;stroke:#000000;stroke-width:0.8;stroke-linecap:square;stroke-linejoin:miter"
       id="path187" />
  </g>
  <g
     id="patch_4"
     transform="translate(-9.346875,-109.06803)">
    <path
       d="M 388.8,176.59176 V 109.96824"
       style="fill:none;stroke:#000000;stroke-width:0.8;stroke-linecap:square;stroke-linejoin:miter"
       id="path190" />
  </g>
  <g
     id="patch_5"
     transform="translate(-9.346875,-109.06803)">
    <path
       d="M 54,176.59176 H 388.8"
       style="fill:none;stroke:#000000;stroke-width:0.8;stroke-linecap:square;stroke-linejoin:miter"
       id="path193" />
  </g>
  <g
     id="patch_6"
     transform="translate(-9.346875,-109.06803)">
    <path
       d="M 54,109.96824 H 388.8"
       style="fill:none;stroke:#000000;stroke-width:0.8;stroke-linecap:square;stroke-linejoin:miter"
       id="path196" />
  </g>
  <defs
     id="defs204">
    <clipPath
       id="pc745ab4176">
      <rect
         height="66.62352"
         width="334.79999"
         x="54"
         y="109.96824"
         id="rect201" />
    </clipPath>
  </defs>
  <text
     xml:space="preserve"
     style="font-size:12.6px;line-height:1.25;font-family:'Times New Roman';-inkscape-font-specification:'Times New Roman, Normal';font-variant-ligatures:none;letter-spacing:-2.625px;word-spacing:0px;stroke-width:0.525;stroke-linecap:butt;stroke-linejoin:round"
     x="-38.151077"
     y="14.527642"
     id="text23329"
     transform="rotate(-90)"><tspan
       sodipodi:role="line"
       id="tspan23327"
       style="stroke-width:0.525"
       x="-38.151077"
       y="14.527642"><tspan
         style="font-style:italic;font-variant:normal;font-weight:normal;font-stretch:normal;font-size:12.6px;font-family:'Times New Roman';-inkscape-font-specification:'Times New Roman, Italic';font-variant-ligatures:none;font-variant-caps:normal;font-variant-numeric:normal;font-variant-east-asian:normal;stroke-width:0.525"
         id="tspan27431">P</tspan><tspan
         style="font-size:8.19px;baseline-shift:sub;stroke-width:0.525"
         id="tspan24519">1</tspan></tspan></text>
  <text
     xml:space="preserve"
     style="font-size:12.6px;line-height:1.25;font-family:'Times New Roman';-inkscape-font-specification:'Times New Roman, Normal';font-variant-ligatures:none;stroke-width:0.525;stroke-linecap:butt;stroke-linejoin:round"
     x="209.51836"
     y="90.618378"
     id="text44186"><tspan
       sodipodi:role="line"
       id="tspan44184"
       style="font-style:italic;font-variant:normal;font-weight:normal;font-stretch:normal;font-size:12.6px;font-family:'Times New Roman';-inkscape-font-specification:'Times New Roman, Italic';font-variant-ligatures:none;font-variant-caps:normal;font-variant-numeric:normal;font-variant-east-asian:normal;stroke-width:0.525"
       x="209.51836"
       y="90.618378">x</tspan></text>
</svg>
