<?xml version="1.0" encoding="UTF-8" standalone="no"?>
<svg
   xmlns:dc="http://purl.org/dc/elements/1.1/"
   xmlns:cc="http://creativecommons.org/ns#"
   xmlns:rdf="http://www.w3.org/1999/02/22-rdf-syntax-ns#"
   xmlns:svg="http://www.w3.org/2000/svg"
   xmlns="http://www.w3.org/2000/svg"
   xmlns:sodipodi="http://sodipodi.sourceforge.net/DTD/sodipodi-0.dtd"
   xmlns:inkscape="http://www.inkscape.org/namespaces/inkscape"
   width="1001"
   height="965"
   viewBox="1.5 1.5 163.29192 157.41913"
   version="1.0"
   id="svg2"
   inkscape:version="1.0.1 (3bc2e813f5, 2020-09-07)"
   sodipodi:docname="Venn_diagram_gr_la_ru.svg">
  <defs
     id="defs126" />
  <sodipodi:namedview
     pagecolor="#ffffff"
     bordercolor="#666666"
     borderopacity="1"
     objecttolerance="10"
     gridtolerance="10"
     guidetolerance="10"
     inkscape:pageopacity="0"
     inkscape:pageshadow="2"
     inkscape:window-width="1920"
     inkscape:window-height="981"
     id="namedview124"
     showgrid="false"
     inkscape:zoom="0.75054816"
     inkscape:cx="272.8996"
     inkscape:cy="399.5089"
     inkscape:window-x="0"
     inkscape:window-y="28"
     inkscape:window-maximized="1"
     inkscape:current-layer="layer1"
     inkscape:document-rotation="0" />
  <metadata
     id="metadata4">
    <rdf:RDF>
      <cc:Work
         rdf:about="">
        <dc:format>image/svg+xml</dc:format>
        <dc:type
           rdf:resource="http://purl.org/dc/dcmitype/StillImage" />
        <dc:title></dc:title>
      </cc:Work>
    </rdf:RDF>
  </metadata>
  <g
     inkscape:groupmode="layer"
     id="layer1"
     inkscape:label="Layer 1"
     style="display:inline"
     sodipodi:insensitive="true">
    <ellipse
       id="ellipse118"
       ry="51.12603"
       rx="51.020672"
       cy="58.695595"
       cx="108.44547"
       style="fill:#0000ff;stroke:#222222;stroke-width:1.8;stroke-linecap:round;stroke-linejoin:miter;stroke-miterlimit:4;stroke-dasharray:none;stroke-dashoffset:0;stroke-opacity:1;opacity:0.33" />
    <ellipse
       id="ellipse120"
       ry="51.12603"
       rx="51.020672"
       cy="58.695595"
       cx="57.406773"
       style="fill:#008000;stroke:#222222;stroke-width:1.8;stroke-linecap:round;stroke-linejoin:miter;stroke-miterlimit:4;stroke-dasharray:none;stroke-dashoffset:0;stroke-opacity:1;opacity:0.33" />
    <ellipse
       id="ellipse122"
       style="opacity:0.33;fill:#ff0000;stroke:#222222;stroke-width:1.8;stroke-linecap:round;stroke-linejoin:miter;stroke-miterlimit:4;stroke-dasharray:none;stroke-dashoffset:0;stroke-opacity:1"
       ry="51.12603"
       rx="51.020672"
       cy="102.77959"
       cx="82.769974" />
  </g>
  <g
     inkscape:groupmode="layer"
     id="layer2"
     inkscape:label="Layer 2"
     style="display:inline">
    <path
       inkscape:connector-curvature="0"
       id="path4476"
       style="font-style:normal;font-variant:normal;font-weight:normal;font-stretch:normal;font-size:medium;line-height:125%;font-family:Ubuntu;-inkscape-font-specification:Ubuntu;letter-spacing:0px;word-spacing:0px;opacity:1;fill:#000000;fill-opacity:1;stroke:none;stroke-width:1px;stroke-linecap:butt;stroke-linejoin:miter;stroke-opacity:1"
       d="m 114.72764,95.254023 q -0.7681,0 -1.39944,-0.252534 -0.63131,-0.252525 -1.08376,-0.736537 -0.45244,-0.484013 -0.70496,-1.188989 -0.24201,-0.715492 -0.24201,-1.630911 0,-0.91541 0.27357,-1.620387 0.2841,-0.715491 0.75758,-1.199504 0.47349,-0.484021 1.10481,-0.736537 0.63133,-0.252534 1.34682,-0.252534 0.45245,0 0.8102,0.0631 0.36826,0.0631 0.63131,0.147313 0.27358,0.08417 0.44193,0.168341 0.16835,0.08417 0.23148,0.126267 l -0.29462,0.841767 q -0.0947,-0.0632 -0.27357,-0.13679 -0.17888,-0.07367 -0.41035,-0.147304 -0.22096,-0.07368 -0.49453,-0.115744 -0.26306,-0.05262 -0.53663,-0.05262 -0.57872,0 -1.04168,0.199919 -0.46297,0.199919 -0.78915,0.578711 -0.32618,0.378791 -0.50505,0.925933 -0.16836,0.536626 -0.16836,1.210035 0,0.652362 0.14731,1.188981 0.15783,0.536627 0.46297,0.925942 0.30514,0.378792 0.75758,0.589234 0.46297,0.210432 1.07325,0.210432 0.70498,0 1.16794,-0.147303 0.46297,-0.147304 0.69445,-0.263048 l 0.26306,0.841757 q -0.0737,0.05262 -0.26306,0.13679 -0.18939,0.07367 -0.47349,0.147304 -0.2841,0.07367 -0.66289,0.126267 -0.37879,0.05261 -0.82071,0.05261 z" />
    <path
       inkscape:connector-curvature="0"
       id="path4478"
       style="font-style:normal;font-variant:normal;font-weight:normal;font-stretch:normal;font-size:medium;line-height:125%;font-family:Ubuntu;-inkscape-font-specification:Ubuntu;letter-spacing:0px;word-spacing:0px;opacity:1;fill:#000000;fill-opacity:1;stroke:none;stroke-width:1px;stroke-linecap:butt;stroke-linejoin:miter;stroke-opacity:1"
       d="m 146.84121,40.619599 q 0,0.946987 -0.29461,1.651956 -0.29462,0.694454 -0.83125,1.15742 -0.53662,0.452453 -1.28367,0.683932 -0.74706,0.220965 -1.64144,0.220965 -0.44192,0 -0.97855,-0.04204 -0.52609,-0.03156 -0.9575,-0.136791 l 0,-7.070782 q 0.43141,-0.105229 0.9575,-0.136789 0.53663,-0.04204 0.97855,-0.04204 0.89438,0 1.64144,0.231487 0.74705,0.220956 1.28367,0.683923 0.53663,0.452452 0.83125,1.157429 0.29461,0.694445 0.29461,1.641424 z m -3.96679,2.819899 q 1.45204,0 2.16752,-0.736537 0.7155,-0.74706 0.7155,-2.083362 0,-1.336294 -0.7155,-2.072831 -0.71548,-0.74706 -2.16752,-0.74706 -0.43141,0 -0.67341,0.01049 -0.23149,0.01057 -0.32619,0.02106 l 0,5.57667 q 0.0947,0.01057 0.32619,0.02106 0.242,0.01057 0.67341,0.01057 z" />
    <path
       inkscape:connector-curvature="0"
       id="path4480"
       style="font-style:normal;font-variant:normal;font-weight:normal;font-stretch:normal;font-size:medium;line-height:125%;font-family:Ubuntu;-inkscape-font-specification:Ubuntu;letter-spacing:0px;word-spacing:0px;opacity:1;fill:#000000;fill-opacity:1;stroke:none;stroke-width:1px;stroke-linecap:butt;stroke-linejoin:miter;stroke-opacity:1"
       d="m 81.030871,97.084868 0,-7.291755 4.450807,0 0,0.873336 -3.430172,0 0,2.16752 3.051381,0 0,0.852289 -3.051381,0 0,2.525274 3.693222,0 0,0.873336 -4.713857,0 z" />
    <path
       inkscape:connector-curvature="0"
       id="path4482"
       style="font-style:normal;font-variant:normal;font-weight:normal;font-stretch:normal;font-size:medium;line-height:125%;font-family:Ubuntu;-inkscape-font-specification:Ubuntu;letter-spacing:0px;word-spacing:0px;opacity:1;fill:#000000;fill-opacity:1;stroke:none;stroke-width:1px;stroke-linecap:butt;stroke-linejoin:miter;stroke-opacity:1"
       d="m 130.6676,75.13065 0,-7.291755 4.39819,0 0,0.873336 -3.37756,0 0,2.199089 2.99876,0 0,0.862803 -2.99876,0 0,3.356527 -1.02063,0 z" />
    <path
       inkscape:connector-curvature="0"
       id="path4484"
       style="font-style:normal;font-variant:normal;font-weight:normal;font-stretch:normal;font-size:medium;line-height:125%;font-family:Ubuntu;-inkscape-font-specification:Ubuntu;letter-spacing:0px;word-spacing:0px;opacity:1;fill:#000000;fill-opacity:1;stroke:none;stroke-width:1px;stroke-linecap:butt;stroke-linejoin:miter;stroke-opacity:1"
       d="m 129.93294,24.746718 1.02064,0 0,3.409134 q -0.12626,0.04203 -0.36827,0.0947 -0.23149,0.05262 -0.54715,0.105222 -0.30513,0.05261 -0.67341,0.08417 -0.36826,0.04203 -0.74705,0.04203 -0.76811,0 -1.39943,-0.252525 -0.63133,-0.252534 -1.08377,-0.736537 -0.45244,-0.484012 -0.70498,-1.18899 -0.242,-0.704977 -0.242,-1.620387 0,-0.91541 0.27357,-1.620387 0.2841,-0.7155 0.75759,-1.199513 0.47348,-0.484012 1.10481,-0.736537 0.64184,-0.252525 1.36785,-0.252525 0.49454,0 0.87333,0.0631 0.38932,0.0631 0.66289,0.147304 0.27358,0.08417 0.44193,0.16835 0.17887,0.08416 0.242,0.126266 l -0.32618,0.852282 q -0.30514,-0.199919 -0.8102,-0.326186 -0.50506,-0.136781 -1.03115,-0.136781 -0.55767,0 -1.02064,0.199919 -0.45245,0.199918 -0.77863,0.57871 -0.31566,0.378792 -0.49452,0.925933 -0.17888,0.536628 -0.17888,1.210027 0,0.652371 0.1473,1.18899 0.15783,0.536618 0.46297,0.925933 0.31567,0.3788 0.7681,0.589233 0.46297,0.210442 1.08377,0.210442 0.44192,0 0.74707,-0.04203 0.31566,-0.05261 0.45244,-0.09471 l 0,-2.714679 z" />
    <path
       inkscape:connector-curvature="0"
       id="path4488"
       style="font-style:normal;font-variant:normal;font-weight:normal;font-stretch:normal;font-size:medium;line-height:125%;font-family:Ubuntu;-inkscape-font-specification:Ubuntu;letter-spacing:0px;word-spacing:0px;opacity:1;fill:#000000;fill-opacity:1;stroke:none;stroke-width:1px;stroke-linecap:butt;stroke-linejoin:miter;stroke-opacity:1"
       d="m 82.322359,22.358891 1.020634,0 0,7.291756 -1.020634,0 0,-7.291756 z" />
    <path
       inkscape:connector-curvature="0"
       id="path4490"
       style="font-style:normal;font-variant:normal;font-weight:normal;font-stretch:normal;font-size:medium;line-height:125%;font-family:Ubuntu;-inkscape-font-specification:Ubuntu;letter-spacing:0px;word-spacing:0px;opacity:1;fill:#000000;fill-opacity:1;stroke:none;stroke-width:1px;stroke-linecap:butt;stroke-linejoin:miter;stroke-opacity:1"
       d="m 101.72211,17.953764 q 0,0.526095 -0.11575,0.978548 -0.10522,0.452443 -0.38931,0.799665 -0.27357,0.33671 -0.74706,0.536629 -0.46296,0.189396 -1.167936,0.189396 -0.357749,0 -0.662885,-0.0631 -0.294621,-0.05261 -0.536618,-0.13679 -0.242015,-0.0947 -0.420881,-0.189396 -0.178876,-0.10522 -0.284096,-0.199919 l 0.399832,-0.810189 q 0.220956,0.157827 0.568192,0.336699 0.357742,0.16835 0.88385,0.16835 0.757582,0 1.104802,-0.378791 0.34723,-0.389314 0.34723,-1.32577 l 0,-4.850648 1.02063,0 0,4.945345 z" />
    <path
       inkscape:connector-curvature="0"
       id="path4494"
       style="font-style:normal;font-variant:normal;font-weight:normal;font-stretch:normal;font-size:medium;line-height:125%;font-family:Ubuntu;-inkscape-font-specification:Ubuntu;letter-spacing:0px;word-spacing:0px;opacity:1;fill:#000000;fill-opacity:1;stroke:none;stroke-width:1px;stroke-linecap:butt;stroke-linejoin:miter;stroke-opacity:1"
       d="m 150.46195,77.439695 0,0.883859 -4.38768,0 0,-7.291755 1.02063,0 0,6.407896 3.36705,0 z" />
    <path
       inkscape:connector-curvature="0"
       id="path4498"
       style="font-style:normal;font-variant:normal;font-weight:normal;font-stretch:normal;font-size:medium;line-height:125%;font-family:Ubuntu;-inkscape-font-specification:Ubuntu;letter-spacing:0px;word-spacing:0px;opacity:1;fill:#000000;fill-opacity:1;stroke:none;stroke-width:1px;stroke-linecap:butt;stroke-linejoin:miter;stroke-opacity:1"
       d="M 74.055541,45.324641 Q 73.824057,44.935326 73.518918,44.451305 73.224303,43.967293 72.877076,43.45172 72.529851,42.925616 72.151058,42.388997 71.782788,41.85237 71.414517,41.357844 71.046248,40.852785 70.699021,40.410855 70.351797,39.968935 70.05718,39.632226 l 0,5.692415 -0.999591,0 0,-7.291756 0.810194,0 q 0.494535,0.526104 1.052201,1.231073 0.568187,0.694454 1.115332,1.441523 0.557666,0.736537 1.041679,1.452038 0.494533,0.715482 0.831237,1.273155 l 0,-5.397789 0.99959,0 0,7.291756 -0.852281,0 z" />
    <path
       inkscape:connector-curvature="0"
       id="path4474"
       style="font-style:normal;font-variant:normal;font-weight:normal;font-stretch:normal;font-size:medium;line-height:125%;font-family:Ubuntu;-inkscape-font-specification:Ubuntu;letter-spacing:0px;word-spacing:0px;opacity:1;fill:#000000;fill-opacity:1;stroke:none;stroke-width:1px;stroke-linecap:butt;stroke-linejoin:miter;stroke-opacity:1"
       d="m 74.302181,89.948838 q -0.220962,0 -0.484012,-0.01049 -0.252528,-0.01057 -0.515578,-0.03156 -0.252528,-0.02107 -0.505056,-0.05262 -0.252529,-0.03156 -0.462969,-0.08416 l 0,-7.07079 q 0.21044,-0.05262 0.462969,-0.08417 0.252528,-0.03156 0.505056,-0.05262 0.26305,-0.02107 0.515578,-0.03156 0.252528,-0.01057 0.473489,-0.01057 0.631321,0 1.178465,0.09471 0.557666,0.0947 0.957502,0.326185 0.410358,0.220957 0.641842,0.589225 0.231484,0.368269 0.231484,0.904887 0,0.599757 -0.284094,0.989071 -0.284093,0.378792 -0.757583,0.568196 0.641841,0.189396 1.020634,0.599748 0.378792,0.41036 0.378792,1.157421 0,1.094291 -0.810194,1.651955 -0.799673,0.547151 -2.546325,0.547151 z m -0.957503,-3.461738 0,2.567365 q 0.115743,0.01049 0.273573,0.02107 0.136785,0.01057 0.315659,0.02107 0.189396,0 0.431404,0 0.452445,0 0.852281,-0.05261 0.410357,-0.0631 0.715496,-0.210442 0.305138,-0.147313 0.484012,-0.410361 0.189395,-0.263056 0.189395,-0.662885 0,-0.357746 -0.136784,-0.599757 -0.136787,-0.252524 -0.399837,-0.399837 -0.252528,-0.147304 -0.610276,-0.210442 -0.357748,-0.0631 -0.799673,-0.0631 l -1.31525,0 z m 0,-0.820721 1.073244,0 q 0.378793,0 0.715497,-0.05261 0.336704,-0.05262 0.57871,-0.189404 0.252528,-0.136781 0.389314,-0.357738 0.147308,-0.220974 0.147308,-0.557672 0,-0.315663 -0.147308,-0.526105 -0.147308,-0.220956 -0.410358,-0.347223 -0.252528,-0.136781 -0.599755,-0.199918 -0.347225,-0.0631 -0.736539,-0.0631 -0.389314,0 -0.610277,0.01049 -0.220961,0.01058 -0.399836,0.03156 l 0,2.251711 z" />
    <path
       inkscape:connector-curvature="0"
       id="path4496"
       style="font-style:normal;font-variant:normal;font-weight:normal;font-stretch:normal;font-size:medium;line-height:125%;font-family:Ubuntu;-inkscape-font-specification:Ubuntu;letter-spacing:0px;word-spacing:0px;opacity:1;fill:#000000;fill-opacity:1;stroke:none;stroke-width:1px;stroke-linecap:butt;stroke-linejoin:miter;stroke-opacity:1"
       d="M 76.9024,62.19545 Q 76.797179,61.942916 76.618305,61.55361 76.449954,61.164295 76.250036,60.711843 76.050117,60.2594 75.818632,59.78591 75.59767,59.301898 75.397753,58.881014 75.197835,58.449616 75.01896,58.112916 q -0.168352,-0.336717 -0.273571,-0.51558 -0.115743,1.241595 -0.189396,2.693623 -0.07366,1.441515 -0.126264,2.914607 l -0.99959,0 q 0.04208,-0.946988 0.0947,-1.90449 0.05261,-0.968025 0.115742,-1.893958 0.07366,-0.936456 0.147309,-1.820305 0.08417,-0.883851 0.178874,-1.673003 l 0.894369,0 q 0.284095,0.462967 0.610277,1.094292 0.326181,0.631316 0.652365,1.325771 0.326182,0.683931 0.631319,1.378385 0.305138,0.683923 0.557666,1.252118 0.252529,-0.568195 0.557667,-1.252118 0.305138,-0.694454 0.631319,-1.378385 0.326183,-0.694455 0.652365,-1.325771 0.326181,-0.631325 0.610277,-1.094292 l 0.89437,0 q 0.357748,3.524877 0.536621,7.291756 l -0.99959,0 q -0.05261,-1.473092 -0.126264,-2.914607 -0.07366,-1.452028 -0.189396,-2.693623 -0.105219,0.178863 -0.284094,0.51558 -0.168352,0.3367 -0.36827,0.768098 -0.199918,0.420884 -0.431401,0.904896 -0.220962,0.47349 -0.420881,0.925933 -0.199918,0.452452 -0.378792,0.841767 -0.168352,0.389306 -0.273573,0.64184 l -0.820715,0 z" />
    <path
       inkscape:connector-curvature="0"
       id="path4500"
       style="font-style:normal;font-variant:normal;font-weight:normal;font-stretch:normal;font-size:medium;line-height:125%;font-family:Ubuntu;-inkscape-font-specification:Ubuntu;letter-spacing:0px;word-spacing:0px;opacity:1;fill:#000000;fill-opacity:1;stroke:none;stroke-width:1px;stroke-linecap:butt;stroke-linejoin:miter;stroke-opacity:1"
       d="m 61.583774,63.197171 q 0,-0.936457 0.273572,-1.651956 0.284093,-0.715492 0.757584,-1.188981 0.484012,-0.484012 1.115331,-0.726024 0.641843,-0.242002 1.357339,-0.242002 0.704974,0 1.325772,0.242002 0.63132,0.242012 1.104811,0.726024 0.473491,0.473489 0.747062,1.188981 0.284093,0.715499 0.284093,1.651956 0,0.936464 -0.284093,1.651955 -0.273571,0.7155 -0.747062,1.199504 -0.473491,0.473499 -1.104811,0.7155 -0.620798,0.242011 -1.325772,0.242011 -0.715496,0 -1.357339,-0.242011 -0.631319,-0.242002 -1.115331,-0.7155 -0.473491,-0.484003 -0.757584,-1.199504 -0.273572,-0.71549 -0.273572,-1.651955 z m 1.073244,0 q 0,0.662885 0.168352,1.210034 0.168352,0.536619 0.47349,0.91541 0.31566,0.378793 0.757583,0.589234 0.452447,0.199919 1.010113,0.199919 0.557666,0 0.99959,-0.199919 0.441924,-0.210441 0.747062,-0.589234 0.31566,-0.378791 0.484013,-0.91541 0.168352,-0.54715 0.168352,-1.210034 0,-0.662885 -0.168352,-1.199504 -0.168353,-0.547141 -0.484013,-0.925942 -0.305138,-0.378792 -0.747062,-0.57871 -0.441924,-0.210442 -0.99959,-0.210442 -0.557666,0 -1.010113,0.210442 -0.441923,0.199918 -0.757583,0.57871 -0.305138,0.378801 -0.47349,0.925942 -0.168352,0.536619 -0.168352,1.199504 z" />
    <path
       inkscape:connector-curvature="0"
       id="path4502"
       style="font-style:normal;font-variant:normal;font-weight:normal;font-stretch:normal;font-size:medium;line-height:125%;font-family:Ubuntu;-inkscape-font-specification:Ubuntu;letter-spacing:0px;word-spacing:0px;opacity:1;fill:#000000;fill-opacity:1;stroke:none;stroke-width:1px;stroke-linecap:butt;stroke-linejoin:miter;stroke-opacity:1"
       d="m 92.558865,82.551869 q 1.5362,0 2.35693,0.589234 0.83124,0.57871 0.83124,1.736122 0,0.631325 -0.23149,1.083777 -0.22096,0.441921 -0.65237,0.726014 -0.42087,0.273572 -1.03115,0.399838 -0.61028,0.126267 -1.37839,0.126267 l -0.810191,0 0,2.704156 -1.020646,0 0,-7.186535 q 0.431408,-0.105221 0.957516,-0.136781 0.536626,-0.04204 0.978551,-0.04204 z m 0.0842,0.894373 q -0.652365,0 -0.999592,0.03156 l 0,2.861983 0.768112,0 q 0.5261,0 0.94698,-0.0631 0.42087,-0.07367 0.70497,-0.231488 0.29461,-0.168358 0.45245,-0.452452 0.15782,-0.284093 0.15782,-0.726014 0,-0.420884 -0.16834,-0.694454 -0.15784,-0.273571 -0.44193,-0.431398 -0.27357,-0.16835 -0.64184,-0.231488 -0.36828,-0.0631 -0.77863,-0.0631 z" />
    <path
       inkscape:connector-curvature="0"
       id="path4504"
       style="font-style:normal;font-variant:normal;font-weight:normal;font-stretch:normal;font-size:medium;line-height:125%;font-family:Ubuntu;-inkscape-font-specification:Ubuntu;letter-spacing:0px;word-spacing:0px;opacity:1;fill:#000000;fill-opacity:1;stroke:none;stroke-width:1px;stroke-linecap:butt;stroke-linejoin:miter;stroke-opacity:1"
       d="m 121.28592,41.844158 q 0,-0.936456 0.27357,-1.651957 0.28408,-0.715491 0.75758,-1.18898 0.48401,-0.484013 1.11534,-0.726024 0.64183,-0.242001 1.35734,-0.242001 0.70496,0 1.32576,0.242001 0.63132,0.242011 1.10481,0.726024 0.4735,0.473489 0.74707,1.18898 0.28409,0.715501 0.28409,1.651957 0,0.820721 -0.21044,1.46256 -0.21044,0.64184 -0.58923,1.115329 -0.36827,0.462967 -0.87333,0.757592 -0.49453,0.284093 -1.06272,0.389315 0.0105,0.242001 0.21044,0.420874 0.21045,0.189396 0.52611,0.315663 0.31565,0.126266 0.70496,0.210442 0.38932,0.08416 0.77863,0.126258 l -0.242,0.799675 q -0.54715,-0.07368 -1.0522,-0.199919 -0.49453,-0.115744 -0.9049,-0.315663 -0.39983,-0.199919 -0.6734,-0.515581 -0.27357,-0.305131 -0.36828,-0.768098 -0.66287,-0.04204 -1.25211,-0.305139 -0.58924,-0.273571 -1.02063,-0.74706 -0.43141,-0.484013 -0.68393,-1.167944 -0.25253,-0.683932 -0.25253,-1.578304 z m 1.07324,0 q 0,0.662885 0.16835,1.210035 0.16836,0.536619 0.47349,0.915411 0.31566,0.378791 0.75758,0.589233 0.45246,0.199919 1.01012,0.199919 0.55766,0 0.99959,-0.199919 0.44193,-0.210442 0.74706,-0.589233 0.31565,-0.378792 0.48401,-0.915411 0.16836,-0.54715 0.16836,-1.210035 0,-0.662886 -0.16836,-1.199504 -0.16836,-0.547142 -0.48401,-0.925942 -0.30513,-0.378791 -0.74706,-0.57871 -0.44193,-0.210442 -0.99959,-0.210442 -0.55766,0 -1.01012,0.210442 -0.44192,0.199919 -0.75758,0.57871 -0.30513,0.3788 -0.47349,0.925942 -0.16835,0.536618 -0.16835,1.199504 z" />
    <path
       inkscape:connector-curvature="0"
       id="path4506"
       style="font-style:normal;font-variant:normal;font-weight:normal;font-stretch:normal;font-size:medium;line-height:125%;font-family:Ubuntu;-inkscape-font-specification:Ubuntu;letter-spacing:0px;word-spacing:0px;opacity:1;fill:#000000;fill-opacity:1;stroke:none;stroke-width:1px;stroke-linecap:butt;stroke-linejoin:miter;stroke-opacity:1"
       d="m 140.56395,89.764473 q 0.16836,0.210442 0.42088,0.557665 0.26304,0.336708 0.53662,0.757583 0.27357,0.410369 0.53662,0.862804 0.27357,0.452452 0.46297,0.873335 l -1.11532,0 q -0.21045,-0.399837 -0.46298,-0.810205 -0.242,-0.410352 -0.49454,-0.778622 -0.25252,-0.378791 -0.50504,-0.704976 -0.24202,-0.326176 -0.44193,-0.568187 -0.13679,0.01057 -0.2841,0.01057 -0.13678,0 -0.2841,0 l -0.9154,0 0,2.851468 -1.02064,0 0,-7.186526 q 0.4314,-0.105222 0.9575,-0.13679 0.53662,-0.04203 0.97854,-0.04203 1.53622,0 2.33589,0.578711 0.81019,0.57871 0.81019,1.725608 0,0.726023 -0.3893,1.241596 -0.37881,0.515581 -1.12586,0.768106 z m -1.54674,-3.419647 q -0.65236,0 -0.99958,0.03156 l 0,2.746248 0.72601,0 q 0.52611,0 0.94698,-0.05262 0.42088,-0.05262 0.70498,-0.199919 0.29462,-0.147304 0.45244,-0.41036 0.15784,-0.273571 0.15784,-0.715492 0,-0.41036 -0.15784,-0.683931 -0.15782,-0.27358 -0.43139,-0.431407 -0.26305,-0.157827 -0.63133,-0.220955 -0.35775,-0.0631 -0.76811,-0.0631 z" />
    <path
       inkscape:connector-curvature="0"
       id="path4508"
       style="font-style:normal;font-variant:normal;font-weight:normal;font-stretch:normal;font-size:medium;line-height:125%;font-family:Ubuntu;-inkscape-font-specification:Ubuntu;letter-spacing:0px;word-spacing:0px;opacity:1;fill:#000000;fill-opacity:1;stroke:none;stroke-width:1px;stroke-linecap:butt;stroke-linejoin:miter;stroke-opacity:1"
       d="m 110.82119,36.267331 q 1.59933,0 1.59933,-1.094292 0,-0.3367 -0.1473,-0.568187 -0.13679,-0.242002 -0.37879,-0.410361 -0.24201,-0.178863 -0.55767,-0.305131 -0.30513,-0.126266 -0.65237,-0.252533 -0.39982,-0.136781 -0.75758,-0.305139 -0.35774,-0.178873 -0.62079,-0.410352 -0.26305,-0.242011 -0.42088,-0.568196 -0.14731,-0.326177 -0.14731,-0.789152 0,-0.957494 0.65236,-1.494121 0.65236,-0.536618 1.79926,-0.536618 0.66289,0 1.19952,0.147304 0.54714,0.136789 0.79966,0.305148 l -0.32617,0.831227 q -0.22097,-0.136781 -0.66289,-0.263049 -0.43141,-0.136781 -1.01012,-0.136781 -0.29462,0 -0.54714,0.0631 -0.25252,0.0631 -0.44192,0.189396 -0.1894,0.126267 -0.30514,0.326186 -0.10522,0.189396 -0.10522,0.452443 0,0.294617 0.11575,0.494536 0.11573,0.199909 0.32617,0.357746 0.21045,0.147312 0.48402,0.27357 0.28408,0.126267 0.62079,0.252533 0.47349,0.189388 0.86281,0.378784 0.39983,0.189396 0.68394,0.452452 0.29461,0.263047 0.45243,0.631325 0.15783,0.357737 0.15783,0.873319 0,0.957501 -0.70497,1.473082 -0.69445,0.515582 -1.96761,0.515582 -0.4314,0 -0.79968,-0.0631 -0.35775,-0.05261 -0.64184,-0.126258 -0.28409,-0.08416 -0.49453,-0.16835 -0.19993,-0.09471 -0.31567,-0.157836 l 0.30514,-0.841767 q 0.24201,0.136791 0.73655,0.305149 0.49452,0.16835 1.21003,0.16835 z" />
    <path
       inkscape:connector-curvature="0"
       id="path4472"
       style="font-style:normal;font-variant:normal;font-weight:normal;font-stretch:normal;font-size:medium;line-height:125%;font-family:Ubuntu;-inkscape-font-specification:Ubuntu;letter-spacing:0px;word-spacing:0px;opacity:1;fill:#000000;fill-opacity:1;stroke:none;stroke-width:1px;stroke-linecap:butt;stroke-linejoin:miter;stroke-opacity:1"
       d="m 70.473928,78.809761 q -0.178875,-0.473498 -0.336702,-0.925942 -0.157834,-0.462966 -0.326182,-0.936464 l -3.303909,0 -0.662886,1.862406 -1.062722,0 q 0.420878,-1.15743 0.789152,-2.135978 0.368265,-0.989061 0.71549,-1.872912 0.357751,-0.883841 0.704976,-1.683524 0.347224,-0.81019 0.726019,-1.599342 l 0.936457,0 q 0.378794,0.789152 0.726018,1.599342 0.347224,0.799683 0.694455,1.683524 0.357746,0.883851 0.726016,1.872912 0.36827,0.978548 0.78915,2.135978 l -1.115332,0 z m -0.957504,-2.704156 q -0.336703,-0.915419 -0.673407,-1.7677 -0.326182,-0.862804 -0.683928,-1.651956 -0.368273,0.789152 -0.704975,1.651956 -0.326184,0.852281 -0.652366,1.7677 l 2.714676,0 z" />
    <path
       inkscape:connector-curvature="0"
       id="path4486"
       style="font-style:normal;font-variant:normal;font-weight:normal;font-stretch:normal;font-size:medium;line-height:125%;font-family:Ubuntu;-inkscape-font-specification:Ubuntu;letter-spacing:0px;word-spacing:0px;opacity:1;fill:#000000;fill-opacity:1;stroke:none;stroke-width:1px;stroke-linecap:butt;stroke-linejoin:miter;stroke-opacity:1"
       d="m 99.983012,70.911757 1.020638,0 0,7.291756 -1.020638,0 0,-3.367041 -3.566956,0 0,3.367041 -1.020629,0 0,-7.291756 1.020629,0 0,3.040856 3.566956,0 0,-3.040856 z" />
    <path
       inkscape:connector-curvature="0"
       id="path4492"
       style="font-style:normal;font-variant:normal;font-weight:normal;font-stretch:normal;font-size:medium;line-height:125%;font-family:Ubuntu;-inkscape-font-specification:Ubuntu;letter-spacing:0px;word-spacing:0px;opacity:1;fill:#000000;fill-opacity:1;stroke:none;stroke-width:1px;stroke-linecap:butt;stroke-linejoin:miter;stroke-opacity:1"
       d="m 92.3376,55.755572 q -0.326181,0.357754 -0.73654,0.799675 -0.410357,0.431397 -0.862803,0.894372 -0.441924,0.452445 -0.883849,0.894365 -0.441924,0.441929 -0.831237,0.820721 0.452445,0.315663 0.957502,0.778629 0.505055,0.462967 0.989068,0.989071 0.484012,0.526095 0.904892,1.073237 0.431402,0.547141 0.715495,1.041685 l -1.199507,0 Q 91.074961,62.552783 90.664603,62.058256 90.254244,61.553199 89.791277,61.100746 89.33883,60.637779 88.86534,60.248465 88.402372,59.85915 87.960447,59.58558 l 0,3.461747 -1.020633,0 0,-7.291755 1.020633,0 0,3.219737 q 0.368271,-0.347223 0.810196,-0.778629 0.441924,-0.44192 0.873325,-0.88385 0.431402,-0.441929 0.810194,-0.841758 0.389314,-0.410361 0.652365,-0.7155 l 1.231073,0 z" />
    <path
       inkscape:connector-curvature="0"
       id="path4510"
       style="font-style:normal;font-variant:normal;font-weight:normal;font-stretch:normal;font-size:medium;line-height:125%;font-family:Ubuntu;-inkscape-font-specification:Ubuntu;letter-spacing:0px;word-spacing:0px;opacity:1;fill:#000000;fill-opacity:1;stroke:none;stroke-width:1px;stroke-linecap:butt;stroke-linejoin:miter;stroke-opacity:1"
       d="m 103.51693,59.797219 0,0.88385 -2.29379,0 0,6.407906 -1.02064,0 0,-6.407906 -2.293788,0 0,-0.88385 5.608218,0 z" />
    <path
       inkscape:connector-curvature="0"
       id="path4512"
       style="font-style:normal;font-variant:normal;font-weight:normal;font-stretch:normal;font-size:medium;line-height:125%;font-family:Ubuntu;-inkscape-font-specification:Ubuntu;letter-spacing:0px;word-spacing:0px;opacity:1;fill:#000000;fill-opacity:1;stroke:none;stroke-width:1px;stroke-linecap:butt;stroke-linejoin:miter;stroke-opacity:1"
       d="m 120.40253,60.995386 q -0.71549,0 -1.24159,-0.220965 -0.5261,-0.220964 -0.86281,-0.599747 -0.3367,-0.389314 -0.50505,-0.915419 -0.15784,-0.526104 -0.15784,-1.136375 l 0,-4.577076 1.02064,0 0,4.461333 q 0,1.094283 0.48401,1.588818 0.48402,0.494535 1.26264,0.494535 0.38932,0 0.70498,-0.115735 0.32617,-0.126267 0.55767,-0.3788 0.23149,-0.252525 0.35774,-0.641839 0.12627,-0.399838 0.12627,-0.946979 l 0,-4.461333 1.02063,0 0,4.577076 q 0,0.610271 -0.16835,1.136375 -0.15783,0.526105 -0.50506,0.915419 -0.3367,0.378783 -0.8628,0.599747 -0.51558,0.220965 -1.23108,0.220965 z" />
    <path
       inkscape:connector-curvature="0"
       id="path4514"
       style="font-style:normal;font-variant:normal;font-weight:normal;font-stretch:normal;font-size:medium;line-height:125%;font-family:Ubuntu;-inkscape-font-specification:Ubuntu;letter-spacing:0px;word-spacing:0px;opacity:1;fill:#000000;fill-opacity:1;stroke:none;stroke-width:1px;stroke-linecap:butt;stroke-linejoin:miter;stroke-opacity:1"
       d="m 137.20259,53.624717 q -0.39984,1.157421 -0.76811,2.146492 -0.35774,0.978548 -0.70498,1.862397 -0.34722,0.883841 -0.69444,1.694039 -0.33671,0.799675 -0.69445,1.588827 l -0.95751,0 q -0.35775,-0.789152 -0.70498,-1.588827 -0.33669,-0.810198 -0.69445,-1.694039 -0.34722,-0.883849 -0.7155,-1.862397 -0.36826,-0.989071 -0.75758,-2.146492 l 1.12586,0 q 0.56818,1.662479 1.11532,3.198691 0.54716,1.536212 1.12586,2.883029 0.57872,-1.336294 1.12585,-2.872506 0.54715,-1.546735 1.10481,-3.209214 l 1.0943,0 z" />
    <path
       inkscape:connector-curvature="0"
       id="path4516"
       style="font-style:normal;font-variant:normal;font-weight:normal;font-stretch:normal;font-size:medium;line-height:125%;font-family:Ubuntu;-inkscape-font-specification:Ubuntu;letter-spacing:0px;word-spacing:0px;opacity:1;fill:#000000;fill-opacity:1;stroke:none;stroke-width:1px;stroke-linecap:butt;stroke-linejoin:miter;stroke-opacity:1"
       d="m 148.81524,55.971127 q -0.44193,1.409945 -0.89436,2.609449 -0.45246,1.199513 -0.90491,2.335896 l -1.02062,0 q -0.55767,-1.609873 -0.98907,-3.39861 -0.42089,-1.788746 -0.78916,-3.893145 l 1.07325,0 q 0.14731,0.820721 0.30514,1.641432 0.15783,0.820721 0.32618,1.599342 0.16835,0.768115 0.3367,1.473083 0.16835,0.704978 0.34723,1.304725 0.42088,-1.104806 0.89437,-2.420054 0.47349,-1.32577 0.88385,-2.735725 l 0.88384,0 q 0.41036,1.409955 0.89437,2.735725 0.48401,1.315248 0.9049,2.420054 0.16835,-0.589234 0.3367,-1.294202 0.16836,-0.704977 0.32618,-1.473083 0.16835,-0.778621 0.32618,-1.599342 0.15784,-0.831234 0.30515,-1.651955 l 1.04167,0 q -0.37879,2.104399 -0.81019,3.893145 -0.42088,1.788737 -0.96803,3.39861 l -1.02064,0 q -0.46296,-1.136383 -0.90488,-2.335896 -0.44192,-1.199504 -0.88385,-2.609449 z" />
    <path
       inkscape:connector-curvature="0"
       id="path4522"
       style="font-style:normal;font-variant:normal;font-weight:normal;font-stretch:normal;font-size:medium;line-height:125%;font-family:Ubuntu;-inkscape-font-specification:Ubuntu;letter-spacing:0px;word-spacing:0px;opacity:1;fill:#000000;fill-opacity:1;stroke:none;stroke-width:1px;stroke-linecap:butt;stroke-linejoin:miter;stroke-opacity:1"
       d="m 95.401724,38.843082 q -0.242006,0.273571 -0.568192,0.662887 -0.315661,0.37879 -0.673403,0.85228 -0.357751,0.462967 -0.736543,0.989063 -0.378792,0.515581 -0.747058,1.052199 -0.357752,0.526105 -0.683928,1.052209 -0.326186,0.526095 -0.589233,0.999585 l 4.103577,0 0,0.873336 -5.292566,0 0,-0.68394 q 0.220956,-0.420875 0.515577,-0.925933 0.305136,-0.50505 0.641838,-1.031154 0.347235,-0.526096 0.715502,-1.062723 0.368267,-0.536627 0.726009,-1.031154 0.368276,-0.494544 0.704978,-0.925941 0.347235,-0.431407 0.631322,-0.757575 l -3.745835,0 0,-0.873336 4.997955,0 0,0.810198 z" />
    <path
       inkscape:connector-curvature="0"
       id="path4429"
       style="font-style:normal;font-variant:normal;font-weight:normal;font-stretch:normal;font-size:medium;line-height:125%;font-family:Ubuntu;-inkscape-font-specification:Ubuntu;letter-spacing:0px;word-spacing:0px;opacity:1;fill:#000000;fill-opacity:1;stroke:none;stroke-width:1px;stroke-linecap:butt;stroke-linejoin:miter;stroke-opacity:1"
       d="m 66.677585,96.833629 0,0.88385 -3.26182,0 0,6.407901 -1.020635,0 0,-7.291751 4.282455,0 z" />
    <path
       inkscape:connector-curvature="0"
       id="path4431"
       style="font-style:normal;font-variant:normal;font-weight:normal;font-stretch:normal;font-size:medium;line-height:125%;font-family:Ubuntu;-inkscape-font-specification:Ubuntu;letter-spacing:0px;word-spacing:0px;opacity:1;fill:#000000;fill-opacity:1;stroke:none;stroke-width:1px;stroke-linecap:butt;stroke-linejoin:miter;stroke-opacity:1"
       d="m 21.786978,87.404158 q 0.357747,-1.136375 0.694451,-2.093877 0.347226,-0.957502 0.694452,-1.820306 0.347226,-0.873335 0.704974,-1.694048 0.36827,-0.820712 0.778628,-1.683516 l 0.936458,0 q 0.410359,0.862804 0.768107,1.683516 0.36827,0.820713 0.715495,1.694048 0.347228,0.862804 0.683932,1.820306 0.347226,0.957502 0.704973,2.093877 l -6.68147,0 z m 3.314429,-6.123812 q -0.231483,0.473489 -0.757584,1.757177 -0.5261,1.273164 -1.262641,3.503831 l 4.029928,0 q -0.73654,-2.230667 -1.26264,-3.503831 -0.526101,-1.283688 -0.747063,-1.757177 z" />
    <path
       inkscape:connector-curvature="0"
       id="path4439"
       style="font-style:normal;font-variant:normal;font-weight:normal;font-stretch:normal;font-size:medium;line-height:125%;font-family:Ubuntu;-inkscape-font-specification:Ubuntu;letter-spacing:0px;word-spacing:0px;opacity:1;fill:#000000;fill-opacity:1;stroke:none;stroke-width:1px;stroke-linecap:butt;stroke-linejoin:miter;stroke-opacity:1"
       d="m 29.174983,29.049924 q 0,-0.936465 0.273572,-1.651956 0.284095,-0.715492 0.757585,-1.188981 0.484012,-0.484021 1.115331,-0.726023 0.641842,-0.242002 1.357339,-0.242002 0.704974,0 1.325772,0.242002 0.631321,0.242002 1.104811,0.726023 0.47349,0.473489 0.747061,1.188981 0.284095,0.715491 0.284095,1.651956 0,0.936456 -0.284095,1.651956 -0.273571,0.715491 -0.747061,1.199504 -0.47349,0.473489 -1.104811,0.7155 -0.620798,0.242002 -1.325772,0.242002 -0.715497,0 -1.357339,-0.242002 -0.631319,-0.242011 -1.115331,-0.7155 -0.47349,-0.484013 -0.757585,-1.199504 -0.273572,-0.7155 -0.273572,-1.651956 z m 1.073244,0 q 0,0.662885 0.168353,1.210027 0.168351,0.536627 0.473489,0.915419 0.31566,0.378792 0.757586,0.589233 0.452444,0.199919 1.010111,0.199919 0.547144,0 0.989068,-0.199919 0.452446,-0.210441 0.757585,-0.589233 0.315659,-0.378792 0.484011,-0.915419 0.168352,-0.547142 0.168352,-1.210027 0,-0.662885 -0.168352,-1.199512 -0.168352,-0.547142 -0.484011,-0.925933 -0.305139,-0.378792 -0.757585,-0.578711 -0.441924,-0.210433 -0.989068,-0.210433 -0.557667,0 -1.010111,0.210433 -0.441926,0.199919 -0.757586,0.578711 -0.305138,0.378791 -0.473489,0.925933 -0.168353,0.536627 -0.168353,1.199512 z m 0.852282,-0.441921 3.103991,0 0,0.841759 -3.103991,0 0,-0.841759 z" />
    <path
       inkscape:connector-curvature="0"
       id="path4445"
       style="font-style:normal;font-variant:normal;font-weight:normal;font-stretch:normal;font-size:medium;line-height:125%;font-family:Ubuntu;-inkscape-font-specification:Ubuntu;letter-spacing:0px;word-spacing:0px;opacity:1;fill:#000000;fill-opacity:1;stroke:none;stroke-width:1px;stroke-linecap:butt;stroke-linejoin:miter;stroke-opacity:1"
       d="m 37.827786,100.57198 q 0.389313,-1.157413 0.757584,-2.135961 0.368269,-0.989062 0.715495,-1.872921 0.347226,-0.883841 0.683931,-1.683516 0.347226,-0.810189 0.704974,-1.599341 l 0.957502,0 q 0.357749,0.789152 0.694452,1.599341 0.347227,0.799675 0.694452,1.683516 0.357749,0.883859 0.715497,1.872921 0.36827,0.978548 0.768106,2.135961 l -1.125854,0 q -0.568189,-1.662472 -1.115333,-3.198684 -0.547144,-1.536212 -1.125854,-2.883029 -0.578711,1.336294 -1.125854,2.883029 -0.547145,1.536212 -1.104811,3.198684 l -1.094287,0 z" />
    <path
       inkscape:connector-curvature="0"
       id="path4451"
       style="font-style:normal;font-variant:normal;font-weight:normal;font-stretch:normal;font-size:medium;line-height:125%;font-family:Ubuntu;-inkscape-font-specification:Ubuntu;letter-spacing:0px;word-spacing:0px;opacity:1;fill:#000000;fill-opacity:1;stroke:none;stroke-width:1px;stroke-linecap:butt;stroke-linejoin:miter;stroke-opacity:1"
       d="m 55.517814,26.287899 -4.819078,0 0,-0.883849 4.819078,0 0,0.883849 z m -4.924297,5.524047 5.029518,0 0,0.883851 -5.029518,0 0,-0.883851 z m 0.568188,-3.377563 3.893141,0 0,0.883848 -3.893141,0 0,-0.883848 z" />
    <path
       inkscape:connector-curvature="0"
       id="path4455"
       style="font-style:normal;font-variant:normal;font-weight:normal;font-stretch:normal;font-size:medium;line-height:125%;font-family:Ubuntu;-inkscape-font-specification:Ubuntu;letter-spacing:0px;word-spacing:0px;opacity:1;fill:#000000;fill-opacity:1;stroke:none;stroke-width:1px;stroke-linecap:butt;stroke-linejoin:miter;stroke-opacity:1"
       d="m 56.894191,86.941796 0,7.291747 -1.020634,0 0,-6.41842 -3.503826,0 0,6.41842 -1.020635,0 0,-7.291747 5.545095,0 z" />
    <path
       inkscape:connector-curvature="0"
       id="path4459"
       style="font-style:normal;font-variant:normal;font-weight:normal;font-stretch:normal;font-size:medium;line-height:125%;font-family:Ubuntu;-inkscape-font-specification:Ubuntu;letter-spacing:0px;word-spacing:0px;opacity:1;fill:#000000;fill-opacity:1;stroke:none;stroke-width:1px;stroke-linecap:butt;stroke-linejoin:miter;stroke-opacity:1"
       d="m 20.54092,50.784541 q -0.57871,0.757593 -1.231074,1.49413 -0.652364,0.726014 -1.146898,1.430991 l 3.966795,0 0,0.873328 -5.15578,0 0,-0.768107 q 0.199918,-0.326186 0.473489,-0.683931 0.284094,-0.357754 0.599754,-0.736538 0.326182,-0.389314 0.662886,-0.789152 0.336704,-0.399837 0.652365,-0.810188 -0.305138,-0.399838 -0.631321,-0.799685 -0.315659,-0.399837 -0.620798,-0.768097 -0.294616,-0.3788 -0.557666,-0.704977 -0.252529,-0.326185 -0.431403,-0.589234 l 0,-0.641839 4.997952,0 0,0.873327 -3.651135,0 q 0.147309,0.220956 0.378792,0.526096 0.242006,0.294617 0.515579,0.641839 0.284094,0.336708 0.589231,0.7155 0.305139,0.368269 0.589232,0.736537 z" />
    <path
       inkscape:connector-curvature="0"
       id="path4467"
       style="font-style:normal;font-variant:normal;font-weight:normal;font-stretch:normal;font-size:medium;line-height:125%;font-family:Ubuntu;-inkscape-font-specification:Ubuntu;letter-spacing:0px;word-spacing:0px;opacity:1;fill:#000000;fill-opacity:1;stroke:none;stroke-width:1px;stroke-linecap:butt;stroke-linejoin:miter;stroke-opacity:1"
       d="m 35.101803,71.315132 -0.999593,0 0,-1.86239 q -0.852282,0 -1.441515,-0.220973 -0.589234,-0.231479 -0.968025,-0.620793 -0.368269,-0.399838 -0.536619,-0.946979 -0.157827,-0.54715 -0.157827,-1.178467 l 0,-2.462146 0.989063,0 0,2.325365 q 0,1.188981 0.557664,1.704562 0.568196,0.50505 1.557259,0.50505 l 0,-4.534977 0.999593,0 0,4.534977 q 0.989071,0 1.546736,-0.50505 0.568187,-0.515581 0.568187,-1.704562 l 0,-2.325365 0.989071,0 0,2.462146 q 0,0.631317 -0.168359,1.178467 -0.157827,0.547141 -0.536619,0.946979 -0.368268,0.389314 -0.957502,0.620793 -0.589233,0.220973 -1.441514,0.220973 l 0,1.86239 z" />
    <path
       inkscape:connector-curvature="0"
       id="path4469"
       style="font-style:normal;font-variant:normal;font-weight:normal;font-stretch:normal;font-size:medium;line-height:125%;font-family:Ubuntu;-inkscape-font-specification:Ubuntu;letter-spacing:0px;word-spacing:0px;opacity:1;fill:#000000;fill-opacity:1;stroke:none;stroke-width:1px;stroke-linecap:butt;stroke-linejoin:miter;stroke-opacity:1"
       d="m 49.10424,49.910214 q 0.673417,0 1.294201,0.231488 0.620802,0.220956 1.083769,0.6734 0.473498,0.441921 0.747069,1.104806 0.284085,0.662885 0.284085,1.536221 0,0.494527 -0.115744,0.946979 -0.115735,0.452443 -0.305131,0.841758 -0.189396,0.389314 -0.431407,0.7155 -0.24201,0.315654 -0.484012,0.547142 l 1.504652,0 0,0.862803 -2.809376,0 0,-0.715499 q 0.326176,-0.263049 0.61027,-0.589234 0.294625,-0.326176 0.505059,-0.715491 0.210441,-0.389315 0.326185,-0.85229 0.126267,-0.473481 0.126267,-1.041668 0,-0.620802 -0.168359,-1.115338 -0.16835,-0.494535 -0.473489,-0.831235 -0.30514,-0.347222 -0.736538,-0.526105 -0.431398,-0.178863 -0.957501,-0.178863 -0.526096,0 -0.957502,0.178863 -0.431407,0.178883 -0.736538,0.526105 -0.30514,0.3367 -0.47349,0.831235 -0.16835,0.494536 -0.16835,1.115338 0,0.568187 0.115745,1.041668 0.126258,0.462975 0.336699,0.85229 0.210442,0.389315 0.494527,0.715491 0.284103,0.326185 0.620802,0.589234 l 0,0.715499 -2.809377,0 0,-0.862803 1.504653,0 q -0.242011,-0.231488 -0.484013,-0.547142 -0.242011,-0.326186 -0.431407,-0.7155 -0.189395,-0.389315 -0.305131,-0.841758 -0.115743,-0.452452 -0.115743,-0.946979 0,-0.873336 0.27357,-1.536221 0.284095,-0.662885 0.747061,-1.104806 0.473498,-0.452444 1.083769,-0.6734 0.620793,-0.231488 1.304725,-0.231488 z" />
    <path
       inkscape:connector-curvature="0"
       id="path4360"
       style="font-style:normal;font-variant:normal;font-weight:normal;font-stretch:normal;font-size:medium;line-height:125%;font-family:Ubuntu;-inkscape-font-specification:Ubuntu;letter-spacing:0px;word-spacing:0px;opacity:1;fill:#000000;fill-opacity:1;stroke:none;stroke-width:1px;stroke-linecap:butt;stroke-linejoin:miter;stroke-opacity:1"
       d="m 98.303936,133.89937 0,1.85188 0.904896,0 q 0.768103,0 1.367858,0.12625 0.61027,0.12627 1.03115,0.41037 0.42088,0.27358 0.64184,0.71549 0.22097,0.4314 0.22097,1.06272 0,1.15743 -0.84176,1.74665 -0.84177,0.57871 -2.377975,0.57871 -0.220958,0 -0.484011,-0.0106 -0.25253,-0.0106 -0.515572,-0.0315 -0.252531,-0.0211 -0.50506,-0.0526 -0.252529,-0.0315 -0.462968,-0.0842 l 0,-7.18653 4.503416,0 0,0.87332 -3.482784,0 z m 1.031162,5.5977 q 0.410347,0 0.778622,-0.0631 0.37879,-0.0631 0.66288,-0.22096 0.2841,-0.16835 0.45245,-0.44191 0.16835,-0.27357 0.16835,-0.69447 0,-0.4419 -0.15783,-0.72601 -0.14731,-0.2841 -0.4314,-0.45244 -0.28409,-0.16836 -0.70497,-0.23149 -0.410355,-0.0737 -0.936458,-0.0737 l -0.862806,0 0,2.87251 q 0.115744,0.0105 0.273571,0.0211 0.136792,0.0106 0.326185,0.0106 0.189396,0 0.431406,0 z" />
    <path
       inkscape:connector-curvature="0"
       id="path4370"
       style="font-style:normal;font-variant:normal;font-weight:normal;font-stretch:normal;font-size:medium;line-height:125%;font-family:Ubuntu;-inkscape-font-specification:Ubuntu;letter-spacing:0px;word-spacing:0px;opacity:1;fill:#000000;fill-opacity:1;stroke:none;stroke-width:1px;stroke-linecap:butt;stroke-linejoin:miter;stroke-opacity:1"
       d="m 83.765539,116.92276 0,-7.29175 4.450807,0 0,0.87333 -3.430172,0 0,2.16753 3.05138,0 0,0.85229 -3.05138,0 0,2.52527 3.693222,0 0,0.87333 -4.713857,0 z m 1.220553,-8.12298 q -0.242007,0 -0.431403,-0.16835 -0.178875,-0.17888 -0.178875,-0.45245 0,-0.27357 0.178875,-0.44192 0.189396,-0.17888 0.431403,-0.17888 0.242006,0 0.42088,0.17888 0.189395,0.16835 0.189395,0.44192 0,0.27357 -0.189395,0.45245 -0.178874,0.16835 -0.42088,0.16835 z m 1.99918,0 q -0.242006,0 -0.431403,-0.16835 -0.178873,-0.17888 -0.178873,-0.45245 0,-0.27357 0.178873,-0.44192 0.189397,-0.17888 0.431403,-0.17888 0.242005,0 0.42088,0.17888 0.189396,0.16835 0.189396,0.44192 0,0.27357 -0.189396,0.45245 -0.178875,0.16835 -0.42088,0.16835 z" />
    <path
       inkscape:connector-curvature="0"
       id="path4372"
       style="font-style:normal;font-variant:normal;font-weight:normal;font-stretch:normal;font-size:medium;line-height:125%;font-family:Ubuntu;-inkscape-font-specification:Ubuntu;letter-spacing:0px;word-spacing:0px;opacity:1;fill:#000000;fill-opacity:1;stroke:none;stroke-width:1px;stroke-linecap:butt;stroke-linejoin:miter;stroke-opacity:1"
       d="m 94.716145,124.16147 q -0.315661,-0.36828 -0.704975,-0.8102 -0.378792,-0.45244 -0.768106,-0.90489 -0.378792,-0.46297 -0.747062,-0.90489 -0.357748,-0.44193 -0.641843,-0.79967 l 1.188987,0 q 0.231485,0.29461 0.547144,0.69445 0.326183,0.39983 0.683931,0.84175 0.36827,0.43141 0.73654,0.88386 0.378793,0.44192 0.715495,0.83123 l 0,-3.25129 0.978546,0 0,3.25129 q 0.326184,-0.38931 0.694453,-0.83123 0.378793,-0.45245 0.736541,-0.89437 0.36827,-0.44193 0.694452,-0.83124 0.326181,-0.39984 0.557665,-0.69445 l 1.178467,0 q -0.2841,0.35774 -0.652366,0.79967 -0.357748,0.44192 -0.747063,0.90489 -0.378792,0.45245 -0.757584,0.89437 -0.378792,0.44192 -0.694452,0.8102 0.420881,0.37878 0.84176,0.85228 0.420881,0.46296 0.810194,0.96802 0.399836,0.50506 0.747061,1.03116 0.34723,0.5261 0.6208,1.03115 l -1.15742,0 q -0.284094,-0.48401 -0.641843,-0.96801 -0.357747,-0.49455 -0.73654,-0.947 -0.378792,-0.46296 -0.768106,-0.8628 -0.378792,-0.39983 -0.726019,-0.70497 l 0,3.48278 -0.978546,0 0,-3.48278 q -0.347225,0.30514 -0.73654,0.70497 -0.389314,0.39984 -0.768106,0.8628 -0.378791,0.45245 -0.736539,0.947 -0.347226,0.484 -0.631322,0.96801 l -1.146897,0 q 0.26305,-0.50505 0.610276,-1.03115 0.347226,-0.5261 0.736539,-1.03116 0.399838,-0.50506 0.820718,-0.96802 0.431401,-0.46297 0.84176,-0.84176 z" />
    <path
       inkscape:connector-curvature="0"
       id="path4374"
       style="font-style:normal;font-variant:normal;font-weight:normal;font-stretch:normal;font-size:medium;line-height:125%;font-family:Ubuntu;-inkscape-font-specification:Ubuntu;letter-spacing:0px;word-spacing:0px;opacity:1;fill:#000000;fill-opacity:1;stroke:none;stroke-width:1px;stroke-linecap:butt;stroke-linejoin:miter;stroke-opacity:1"
       d="m 56.687151,120.83186 0.547152,0 q 0.347217,0 0.704968,-0.0526 0.357751,-0.0526 0.65236,-0.18939 0.294621,-0.14731 0.484012,-0.38932 0.189399,-0.242 0.189399,-0.61028 0,-0.47349 -0.410355,-0.76809 -0.399839,-0.30515 -1.073242,-0.30515 -0.578717,0 -1.041679,0.13679 -0.462972,0.12626 -0.683928,0.26305 l -0.326186,-0.83124 q 0.126261,-0.0842 0.336701,-0.15783 0.220966,-0.0842 0.484012,-0.14731 0.273572,-0.0631 0.589233,-0.0947 0.315661,-0.0421 0.652363,-0.0421 0.547151,0 1.010111,0.11574 0.46297,0.11574 0.799671,0.35774 0.336702,0.23149 0.526102,0.59976 0.189401,0.35775 0.189401,0.85228 0,0.50506 -0.326186,0.94698 -0.315662,0.44193 -0.936457,0.64185 0.315659,0.0842 0.599755,0.242 0.294612,0.14731 0.505052,0.38931 0.220966,0.23149 0.347227,0.54715 0.136785,0.31566 0.136785,0.73654 0,0.57871 -0.220965,0.99958 -0.210441,0.41037 -0.599748,0.67342 -0.378792,0.26305 -0.925942,0.3788 -0.547139,0.12625 -1.210027,0.12625 -0.399832,0 -0.757583,-0.0631 -0.357742,-0.0526 -0.641838,-0.12626 -0.284096,-0.0842 -0.494537,-0.17888 -0.210441,-0.0947 -0.326186,-0.15783 l 0.305146,-0.84176 q 0.115736,0.0631 0.305136,0.14731 0.199916,0.0842 0.441922,0.15784 0.242006,0.0737 0.536627,0.12626 0.294612,0.0526 0.620798,0.0526 0.894366,0 1.388902,-0.29461 0.505051,-0.30515 0.505051,-1.02064 0,-0.42088 -0.178876,-0.68393 -0.16835,-0.27357 -0.473485,-0.43139 -0.294621,-0.15785 -0.704975,-0.21045 -0.399832,-0.0631 -0.873328,-0.0631 l -0.652363,0 0,-0.83122 z" />
    <path
       inkscape:connector-curvature="0"
       id="path4376"
       style="font-style:normal;font-variant:normal;font-weight:normal;font-stretch:normal;font-size:medium;line-height:125%;font-family:Ubuntu;-inkscape-font-specification:Ubuntu;letter-spacing:0px;word-spacing:0px;opacity:1;fill:#000000;fill-opacity:1;stroke:none;stroke-width:1px;stroke-linecap:butt;stroke-linejoin:miter;stroke-opacity:1"
       d="m 68.9369,128.10819 0,-7.29175 0.99959,0 0,5.39779 q 0.336705,-0.55767 0.820717,-1.27317 0.494534,-0.71548 1.041678,-1.45204 0.557666,-0.74705 1.115332,-1.4415 0.568187,-0.70497 1.062722,-1.23108 l 0.810194,0 0,7.29175 -0.99959,0 0,-5.69241 q -0.294616,0.33671 -0.641842,0.77863 -0.347226,0.44193 -0.715496,0.94698 -0.36827,0.49454 -0.747062,1.03116 -0.36827,0.53662 -0.715496,1.06273 -0.347226,0.51558 -0.652364,0.99958 -0.294616,0.48401 -0.5261,0.87333 l -0.852283,0 z" />
    <path
       inkscape:connector-curvature="0"
       id="path4378"
       style="font-style:normal;font-variant:normal;font-weight:normal;font-stretch:normal;font-size:medium;line-height:125%;font-family:Ubuntu;-inkscape-font-specification:Ubuntu;letter-spacing:0px;word-spacing:0px;opacity:1;fill:#000000;fill-opacity:1;stroke:none;stroke-width:1px;stroke-linecap:butt;stroke-linejoin:miter;stroke-opacity:1"
       d="m 77.932863,128.10819 0,-7.29175 0.99959,0 0,5.39779 q 0.336704,-0.55767 0.820717,-1.27317 0.494533,-0.71548 1.041678,-1.45204 0.557666,-0.74705 1.115333,-1.4415 0.568188,-0.70497 1.062721,-1.23108 l 0.810196,0 0,7.29175 -0.999592,0 0,-5.69241 q -0.294616,0.33671 -0.641841,0.77863 -0.347228,0.44193 -0.715498,0.94698 -0.36827,0.49454 -0.747061,1.03116 -0.368271,0.53662 -0.715496,1.06273 -0.347227,0.51558 -0.652365,0.99958 -0.294615,0.48401 -0.526099,0.87333 l -0.852283,0 z m 2.935639,-7.99672 q -0.662886,0 -1.083766,-0.33671 -0.410359,-0.33671 -0.494534,-0.93645 l 0.747061,-0.19992 q 0.08417,0.3367 0.284095,0.54714 0.199918,0.21044 0.547144,0.21044 0.347226,0 0.547144,-0.21044 0.199918,-0.21044 0.284095,-0.54714 l 0.73654,0.19992 q -0.08417,0.59974 -0.494535,0.93645 -0.410358,0.33671 -1.073244,0.33671 z" />
    <path
       inkscape:connector-curvature="0"
       id="path4400"
       style="font-style:normal;font-variant:normal;font-weight:normal;font-stretch:normal;font-size:medium;line-height:125%;font-family:Ubuntu;-inkscape-font-specification:Ubuntu;letter-spacing:0px;word-spacing:0px;opacity:1;fill:#000000;fill-opacity:1;stroke:none;stroke-width:1px;stroke-linecap:butt;stroke-linejoin:miter;stroke-opacity:1"
       d="m 49.44384,78.743461 q 0.505059,0 0.936466,-0.136781 0.44192,-0.147313 0.757574,-0.420883 0.326186,-0.284095 0.515581,-0.683932 0.189396,-0.410361 0.189396,-0.936456 0,-0.526104 -0.189396,-0.925941 -0.189395,-0.410353 -0.515581,-0.683923 -0.315654,-0.284094 -0.757574,-0.420883 -0.431407,-0.147314 -0.936466,-0.147314 l 0,4.356113 z m -0.98907,0.841758 q -0.673408,0 -1.304725,-0.19991 -0.620802,-0.199919 -1.104806,-0.578719 -0.473498,-0.389315 -0.768106,-0.94697 -0.284103,-0.568197 -0.284103,-1.294211 0,-0.726023 0.284103,-1.283687 0.294608,-0.557665 0.768106,-0.936456 0.484004,-0.389315 1.104806,-0.589234 0.631317,-0.199918 1.304725,-0.210433 l 0,-0.841767 0.98907,0 0,0.841767 q 0.673409,0.01058 1.294202,0.210433 0.620802,0.199919 1.104815,0.589234 0.484012,0.378791 0.768115,0.936456 0.294608,0.557664 0.294608,1.283687 0,0.726014 -0.294608,1.294211 -0.284103,0.557655 -0.768115,0.94697 -0.484013,0.3788 -1.104815,0.578719 -0.620793,0.19991 -1.294202,0.19991 l 0,0.88385 -0.98907,0 0,-0.88385 z m 0,-5.197871 q -0.50505,0 -0.946979,0.147314 -0.431398,0.136789 -0.757584,0.420883 -0.315662,0.27357 -0.505058,0.683923 -0.189395,0.399837 -0.189395,0.925941 0,0.526095 0.189395,0.936456 0.189396,0.399837 0.505058,0.683932 0.326186,0.27357 0.757584,0.420883 0.441929,0.136781 0.946979,0.136781 l 0,-4.356113 z" />
    <path
       inkscape:connector-curvature="0"
       id="path4404"
       style="font-style:normal;font-variant:normal;font-weight:normal;font-stretch:normal;font-size:medium;line-height:125%;font-family:Ubuntu;-inkscape-font-specification:Ubuntu;letter-spacing:0px;word-spacing:0px;opacity:1;fill:#000000;fill-opacity:1;stroke:none;stroke-width:1px;stroke-linecap:butt;stroke-linejoin:miter;stroke-opacity:1"
       d="m 88.678488,138.22233 0.915418,0 0,2.81989 -0.968015,0 0,-1.94657 -5.492488,0 0,-7.29175 1.020632,0 0,6.41843 3.503822,0 0,-6.41843 1.020631,0 0,6.41843 z" />
    <path
       inkscape:connector-curvature="0"
       id="path4406"
       style="font-style:normal;font-variant:normal;font-weight:normal;font-stretch:normal;font-size:medium;line-height:125%;font-family:Ubuntu;-inkscape-font-specification:Ubuntu;letter-spacing:0px;word-spacing:0px;opacity:1;fill:#000000;fill-opacity:1;stroke:none;stroke-width:1px;stroke-linecap:butt;stroke-linejoin:miter;stroke-opacity:1"
       d="m 70.924604,144.74266 q 0,0.44193 0.07367,0.77863 0.08416,0.32619 0.273571,0.54715 0.199919,0.21044 0.526095,0.31566 0.336709,0.10522 0.841767,0.10522 0.199919,0 0.399838,-0.0106 0.210433,-0.0211 0.399829,-0.0421 0.189396,-0.0211 0.336708,-0.0526 0.147304,-0.0316 0.242002,-0.0526 l 0,-3.69322 1.02064,0 0,7.29174 -1.02064,0 0,-2.71468 q -0.19991,0.0526 -0.620802,0.10522 -0.410352,0.0526 -0.883841,0.0526 -0.799675,0 -1.304734,-0.17887 -0.50505,-0.18941 -0.799666,-0.52611 -0.284094,-0.34722 -0.389314,-0.83123 -0.105222,-0.49453 -0.105222,-1.09429 l 0,-2.1044 1.010117,0 0,2.1044 z" />
    <path
       inkscape:connector-curvature="0"
       id="path4408"
       style="font-style:normal;font-variant:normal;font-weight:normal;font-stretch:normal;font-size:medium;line-height:125%;font-family:Ubuntu;-inkscape-font-specification:Ubuntu;letter-spacing:0px;word-spacing:0px;opacity:1;fill:#000000;fill-opacity:1;stroke:none;stroke-width:1px;stroke-linecap:butt;stroke-linejoin:miter;stroke-opacity:1"
       d="m 58.45042,139.09565 0,-7.29175 1.020631,0 0,6.41843 2.735725,0 0,-6.41843 1.020631,0 0,6.41843 2.735724,0 0,-6.41843 1.020632,0 0,7.29175 -8.533343,0 z" />
    <path
       inkscape:connector-curvature="0"
       id="path4410"
       style="font-style:normal;font-variant:normal;font-weight:normal;font-stretch:normal;font-size:medium;line-height:125%;font-family:Ubuntu;-inkscape-font-specification:Ubuntu;letter-spacing:0px;word-spacing:0px;opacity:1;fill:#000000;fill-opacity:1;stroke:none;stroke-width:1px;stroke-linecap:butt;stroke-linejoin:miter;stroke-opacity:1"
       d="m 70.631438,139.09565 0,-7.29175 1.02063,0 0,6.41843 2.735734,0 0,-6.41843 1.020631,0 0,6.41843 2.735716,0 0,-6.41843 1.02064,0 0,6.41843 0.91541,0 0,2.81989 -0.968025,0 0,-1.94657 -8.480736,0 z" />
    <path
       inkscape:connector-curvature="0"
       id="path4412"
       style="font-style:normal;font-variant:normal;font-weight:normal;font-stretch:normal;font-size:medium;line-height:125%;font-family:Ubuntu;-inkscape-font-specification:Ubuntu;letter-spacing:0px;word-spacing:0px;opacity:1;fill:#000000;fill-opacity:1;stroke:none;stroke-width:1px;stroke-linecap:butt;stroke-linejoin:miter;stroke-opacity:1"
       d="m 89.08985,147.60979 q 0,1.17847 -0.852288,1.7677 -0.852282,0.58923 -2.39902,0.58923 -0.441929,0 -0.968025,-0.042 -0.526096,-0.0316 -0.968025,-0.13679 l 0,-6.31321 -1.893958,0 0,-0.87332 2.91459,0 0,2.65154 q 0.21045,-0.0211 0.420883,-0.0211 0.220965,-0.0106 0.431397,-0.0106 3.314446,0 3.314446,2.38849 z m -1.073254,0 q 0,-0.44192 -0.168351,-0.73653 -0.168351,-0.29462 -0.47349,-0.46297 -0.294617,-0.16836 -0.715492,-0.23149 -0.410369,-0.0737 -0.915418,-0.0737 -0.199919,0 -0.410353,0 -0.199918,0 -0.410368,0.0211 l 0,2.9146 q 0.189395,0.0211 0.420883,0.0316 0.242001,0 0.57871,0 0.410361,0 0.789143,-0.0631 0.378801,-0.0631 0.662895,-0.23149 0.294624,-0.16834 0.462965,-0.44191 0.178876,-0.28411 0.178876,-0.72602 z" />
    <path
       inkscape:connector-curvature="0"
       id="path4414"
       style="font-style:normal;font-variant:normal;font-weight:normal;font-stretch:normal;font-size:medium;line-height:125%;font-family:Ubuntu;-inkscape-font-specification:Ubuntu;letter-spacing:0px;word-spacing:0px;opacity:1;fill:#000000;fill-opacity:1;stroke:none;stroke-width:1px;stroke-linecap:butt;stroke-linejoin:miter;stroke-opacity:1"
       d="m 111.99278,131.70275 q 0,-0.44192 -0.15783,-0.73654 -0.15783,-0.29461 -0.45246,-0.46296 -0.2946,-0.16836 -0.70497,-0.23149 -0.39984,-0.0737 -0.88384,-0.0737 -0.17888,0 -0.38931,0 -0.19993,0 -0.38932,0.0211 l 0,2.9146 q 0.35774,0.0316 0.53662,0.0316 0.17887,0 0.42088,0 0.38931,0 0.75758,-0.0631 0.36827,-0.0631 0.64184,-0.23149 0.2841,-0.16835 0.45246,-0.44192 0.16835,-0.28411 0.16835,-0.72602 z m 1.07324,0 q 0,0.58923 -0.22096,1.03115 -0.22097,0.44193 -0.63132,0.73655 -0.41037,0.29461 -0.9996,0.44192 -0.58923,0.1473 -1.32577,0.1473 -0.44191,0 -0.94698,-0.042 -0.50506,-0.0316 -0.94697,-0.13679 l 0,-7.18652 1.02063,0 0,2.65154 q 0.18939,-0.0211 0.39983,-0.0211 0.22097,-0.0106 0.41037,-0.0106 3.24077,0 3.24077,2.38849 z m 1.10481,-5.00848 1.02064,0 0,7.29175 -1.02064,0 0,-7.29175 z" />
    <path
       inkscape:connector-curvature="0"
       id="path4416"
       style="font-style:normal;font-variant:normal;font-weight:normal;font-stretch:normal;font-size:medium;line-height:125%;font-family:Ubuntu;-inkscape-font-specification:Ubuntu;letter-spacing:0px;word-spacing:0px;opacity:1;fill:#000000;fill-opacity:1;stroke:none;stroke-width:1px;stroke-linecap:butt;stroke-linejoin:miter;stroke-opacity:1"
       d="m 97.728979,147.60979 q 0,1.17847 -0.852279,1.7677 -0.852291,0.58923 -2.399022,0.58923 -0.441922,0 -0.968024,-0.042 -0.526102,-0.0316 -0.968034,-0.13679 l 0,-7.18653 1.020639,0 0,2.65154 q 0.21045,-0.0211 0.420882,-0.0211 0.220965,-0.0106 0.431406,-0.0106 3.314432,0 3.314432,2.38849 z m -1.073254,0 q 0,-0.44192 -0.168353,-0.73653 -0.168342,-0.29462 -0.473488,-0.46297 -0.294611,-0.16836 -0.715493,-0.23149 -0.410366,-0.0737 -0.915418,-0.0737 -0.199916,0 -0.410348,0 -0.199916,0 -0.410366,0.0211 l 0,2.9146 q 0.189391,0.0211 0.420882,0.0316 0.241997,0 0.578707,0 0.410357,0 0.789149,-0.0631 0.378791,-0.0631 0.662887,-0.23149 0.294621,-0.16834 0.462972,-0.44191 0.178869,-0.28411 0.178869,-0.72602 z" />
    <path
       inkscape:connector-curvature="0"
       id="path4418"
       style="font-style:normal;font-variant:normal;font-weight:normal;font-stretch:normal;font-size:medium;line-height:125%;font-family:Ubuntu;-inkscape-font-specification:Ubuntu;letter-spacing:0px;word-spacing:0px;opacity:1;fill:#000000;fill-opacity:1;stroke:none;stroke-width:1px;stroke-linecap:butt;stroke-linejoin:miter;stroke-opacity:1"
       d="m 79.600125,113.1138 q 0,0.89437 -0.252525,1.60986 -0.242001,0.70498 -0.694454,1.19951 -0.452444,0.48402 -1.083769,0.74706 -0.620793,0.25253 -1.388899,0.25253 -0.441921,0 -0.820721,-0.0526 -0.378792,-0.0526 -0.673399,-0.12626 -0.284103,-0.0737 -0.47349,-0.14731 -0.189396,-0.0842 -0.263057,-0.13679 l 0.263057,-0.84176 q 0.231479,0.11574 0.683922,0.26306 0.462967,0.14731 1.157421,0.14731 0.568187,0 0.999594,-0.17889 0.441921,-0.18938 0.74706,-0.52609 0.315663,-0.33671 0.484013,-0.79968 0.178873,-0.47349 0.220955,-1.05219 l -3.219728,0 0,-0.86281 3.198692,0 q -0.05262,-0.54715 -0.23148,-0.98907 -0.168358,-0.44192 -0.473498,-0.75759 -0.305139,-0.31565 -0.736537,-0.484 -0.431407,-0.17888 -0.989071,-0.17888 -0.694454,0 -1.146898,0.14731 -0.441929,0.13678 -0.673408,0.25252 l -0.263048,-0.81018 q 0.07367,-0.0526 0.252525,-0.13679 0.189404,-0.0842 0.473489,-0.15784 0.284094,-0.0842 0.652371,-0.13678 0.378784,-0.0526 0.820713,-0.0526 0.768106,0 1.399422,0.26305 0.631325,0.25253 1.083769,0.74707 0.452453,0.48401 0.694454,1.18899 0.252525,0.70497 0.252525,1.60986 z" />
    <path
       inkscape:connector-curvature="0"
       id="path4420"
       style="font-style:normal;font-variant:normal;font-weight:normal;font-stretch:normal;font-size:medium;line-height:125%;font-family:Ubuntu;-inkscape-font-specification:Ubuntu;letter-spacing:0px;word-spacing:0px;opacity:1;fill:#000000;fill-opacity:1;stroke:none;stroke-width:1px;stroke-linecap:butt;stroke-linejoin:miter;stroke-opacity:1"
       d="m 112.91871,114.91919 q 0.67342,0 1.27317,0.24201 0.61028,0.24201 1.06272,0.72601 0.46297,0.47349 0.72603,1.18899 0.27357,0.70498 0.27357,1.64143 0,0.93646 -0.26306,1.65196 -0.26304,0.70497 -0.72602,1.18899 -0.45245,0.47349 -1.06272,0.71549 -0.59975,0.24201 -1.28369,0.24201 -0.66288,0 -1.25211,-0.22096 -0.58923,-0.23148 -1.04168,-0.67341 -0.44192,-0.44193 -0.72602,-1.09429 -0.27357,-0.66289 -0.31566,-1.53621 l -1.63091,0 0,3.37755 -1.02063,0 0,-7.29174 1.02063,0 0,3.04086 1.66248,0 q 0.0842,-0.78914 0.3788,-1.3889 0.29461,-0.59976 0.73653,-0.9996 0.44192,-0.39982 0.99958,-0.59975 0.5682,-0.21044 1.18899,-0.21044 z m 0,6.70252 q 0.53664,0 0.95751,-0.19992 0.42088,-0.21044 0.70498,-0.58923 0.29461,-0.37879 0.44192,-0.91541 0.15783,-0.53663 0.15783,-1.19952 0,-0.66288 -0.15783,-1.1995 -0.14731,-0.53663 -0.44192,-0.91542 -0.2841,-0.37879 -0.70498,-0.57871 -0.42087,-0.21044 -0.95751,-0.21044 -0.53662,0 -0.9575,0.21044 -0.42087,0.19992 -0.71549,0.57871 -0.29461,0.37879 -0.45245,0.91542 -0.14731,0.53662 -0.14731,1.1995 0,0.66289 0.14731,1.19952 0.15784,0.53662 0.45245,0.91541 0.29462,0.37879 0.71549,0.58923 0.42088,0.19992 0.9575,0.19992 z" />
    <path
       inkscape:connector-curvature="0"
       id="path4422"
       style="font-style:normal;font-variant:normal;font-weight:normal;font-stretch:normal;font-size:medium;line-height:125%;font-family:Ubuntu;-inkscape-font-specification:Ubuntu;letter-spacing:0px;word-spacing:0px;opacity:1;fill:#000000;fill-opacity:1;stroke:none;stroke-width:1px;stroke-linecap:butt;stroke-linejoin:miter;stroke-opacity:1"
       d="m 125.3492,112.31187 q -0.39983,0 -0.7681,0.0631 -0.35775,0.0631 -0.64185,0.22098 -0.28409,0.15782 -0.45244,0.43139 -0.16836,0.27357 -0.16836,0.68393 0,0.77862 0.49455,1.08377 0.50505,0.29461 1.50464,0.29461 l 1.0522,0 0,-2.74624 q -0.11575,0 -0.27358,-0.0106 -0.13678,-0.0106 -0.32617,-0.0106 -0.17888,-0.0106 -0.42089,-0.0106 z m 0.0842,-0.89437 q 0.22097,0 0.47349,0.0106 0.25252,0.0106 0.50506,0.0316 0.26305,0.0211 0.51557,0.0526 0.25253,0.0316 0.46297,0.0842 l 0,7.18652 -1.02063,0 0,-2.85146 -0.87333,0 q -0.14731,0 -0.31565,0 -0.15784,-0.0106 -0.43141,-0.042 -0.18939,0.25253 -0.41036,0.58924 -0.22095,0.3367 -0.44193,0.71549 -0.22096,0.37879 -0.44191,0.78916 -0.21045,0.41034 -0.38932,0.79966 l -1.07325,0 q 0.16836,-0.41036 0.39984,-0.85228 0.23149,-0.44192 0.4735,-0.84176 0.25251,-0.39983 0.47348,-0.73653 0.23148,-0.34724 0.39983,-0.5682 -0.242,-0.0737 -0.50506,-0.21044 -0.26304,-0.13678 -0.484,-0.37879 -0.22097,-0.242 -0.36828,-0.59976 -0.13677,-0.36827 -0.13677,-0.87332 0,-0.56819 0.22095,-0.99958 0.22096,-0.43141 0.63133,-0.71551 0.42087,-0.29461 1.0101,-0.44193 0.58923,-0.1473 1.32578,-0.1473 z" />
    <path
       inkscape:connector-curvature="0"
       id="path4518"
       style="font-style:normal;font-variant:normal;font-weight:normal;font-stretch:normal;font-size:medium;line-height:125%;font-family:Ubuntu;-inkscape-font-specification:Ubuntu;letter-spacing:0px;word-spacing:0px;opacity:1;fill:#000000;fill-opacity:1;stroke:none;stroke-width:1px;stroke-linecap:butt;stroke-linejoin:miter;stroke-opacity:1"
       d="M 80.99356,76.83278 Q 80.835733,76.517117 80.614768,76.138317 80.393803,75.749002 80.130756,75.33865 79.8677,74.917776 79.583615,74.507406 q -0.284094,-0.420874 -0.547142,-0.789152 -0.263056,0.368278 -0.547141,0.789152 -0.284103,0.41037 -0.547151,0.831244 -0.252534,0.410352 -0.484012,0.799667 -0.220956,0.3788 -0.378792,0.694463 l -1.125861,0 q 0.47349,-0.925942 1.094293,-1.883444 0.631316,-0.957502 1.336293,-1.967619 l -2.335879,-3.440693 1.178458,0 1.799269,2.714679 1.778214,-2.714679 1.167944,0 -2.293804,3.39861 q 0.715499,1.020631 1.346825,1.988656 0.631317,0.968025 1.115329,1.90449 l -1.146898,0 z" />
    <path
       inkscape:connector-curvature="0"
       id="path4520-3-5-2"
       style="font-style:normal;font-variant:normal;font-weight:normal;font-stretch:normal;font-size:medium;line-height:125%;font-family:Ubuntu;-inkscape-font-specification:Ubuntu;letter-spacing:0px;word-spacing:0px;display:inline;opacity:1;fill:#000000;fill-opacity:1;stroke:none;stroke-width:1px;stroke-linecap:butt;stroke-linejoin:miter;stroke-opacity:1"
       d="m 85.616458,76.831879 c 0.634157,-0.987855 1.225453,-1.935778 1.866576,-3.010982 -0.484013,-0.750574 -0.869823,-1.402945 -1.297725,-2.132473 -0.427893,-0.729536 -0.831234,-1.445027 -1.210026,-2.1465 l 1.199503,0 c 0.266562,0.575205 0.564683,1.160934 0.894374,1.757186 0.32969,0.589233 0.669903,1.15742 1.02063,1.704562 0.343728,-0.547142 0.680428,-1.115329 1.010117,-1.704562 0.32969,-0.596252 0.631325,-1.181981 0.904896,-1.757186 l 1.136375,0 c -0.3788,0.701473 -1.0445,1.954814 -1.472393,2.684342 -1.319477,2.13409 -1.884719,2.970071 -2.932681,4.605273 z"
       sodipodi:nodetypes="ccscccccccccc" />
    <path
       style="font-style:normal;font-variant:normal;font-weight:normal;font-stretch:normal;font-size:medium;line-height:125%;font-family:Ubuntu;-inkscape-font-specification:Ubuntu;letter-spacing:0px;word-spacing:0px;display:inline;opacity:1;fill:#000000;fill-opacity:1;stroke:none;stroke-width:1px;stroke-linecap:butt;stroke-linejoin:miter;stroke-opacity:1"
       d="m 43.017292,112.47489 c -0.238497,0.5261 -0.473602,1.05898 -0.705085,1.5991 -0.22447,0.53312 -0.452255,1.09432 -0.683739,1.68354 -0.231483,0.58924 -0.470087,1.21374 -0.715601,1.87312 -0.148873,0.39558 -0.301263,0.82036 -0.455294,1.25979 l -0.943088,0 0,2.81938 0.970489,0 0,-1.9432 0.764666,0 c 2.94e-4,-8.8e-4 6.63e-4,-0.002 9.56e-4,-0.003 l 1.345813,0 1.80971,0 1.314269,0 c 2.99e-4,8.7e-4 6.58e-4,0.002 9.56e-4,0.003 l 0.796209,0 0,1.9432 0.970487,0 0,-2.81938 -0.94914,0 c -0.15661,-0.43942 -0.310884,-0.86422 -0.459756,-1.25979 -0.2385,-0.65938 -0.477102,-1.28388 -0.7156,-1.87312 -0.231484,-0.58922 -0.462768,-1.15042 -0.694253,-1.68354 -0.224469,-0.54012 -0.456072,-1.073 -0.694573,-1.5991 l -0.957426,0 z m 0.462943,1.21008 c 0.385807,0.89788 0.761208,1.85865 1.125971,2.88279 0.266787,0.74906 0.538483,1.52859 0.812776,2.32268 l -1.012863,0 -1.80971,0 -1.04855,0 c 0.270536,-0.79407 0.539622,-1.57363 0.806405,-2.32268 0.36476,-1.03116 0.740162,-1.99193 1.125971,-2.88279 z"
       id="path4445-62"
       inkscape:connector-curvature="0" />
  </g>
</svg>
