<?xml version="1.0" encoding="UTF-8"?>
<svg width="147.84mm" height="109.64mm" version="1.1" viewBox="0 0 558.74 414.39" xml:space="preserve" xmlns="http://www.w3.org/2000/svg" xmlns:cc="http://creativecommons.org/ns#" xmlns:dc="http://purl.org/dc/elements/1.1/" xmlns:rdf="http://www.w3.org/1999/02/22-rdf-syntax-ns#"><metadata><rdf:RDF><cc:Work rdf:about=""><dc:format>image/svg+xml</dc:format><dc:type rdf:resource="http://purl.org/dc/dcmitype/StillImage"/><dc:title/></cc:Work></rdf:RDF></metadata><defs><clipPath id="clipPath5282"><path d="m313.44 629.89h139.69v104.02h-139.69z" clip-rule="evenodd"/></clipPath><clipPath id="clipPath5290"><path d="m313.44 733.49h139.69v-103.6h-139.69z"/></clipPath><clipPath id="clipPath5366"><path d="m313.44 629.89h139.69v104.02h-139.69z" clip-rule="evenodd"/></clipPath><clipPath id="clipPath5374"><path d="m313.44 733.49h139.69v-103.6h-139.69z"/></clipPath><clipPath id="clipPath5406"><path d="m313.44 629.89h139.69v104.02h-139.69z" clip-rule="evenodd"/></clipPath><clipPath id="clipPath5414"><path d="m313.44 733.49h139.69v-103.6h-139.69z"/></clipPath><clipPath id="clipPath5436"><path d="m313.44 629.89h139.69v104.02h-139.69z" clip-rule="evenodd"/></clipPath><clipPath id="clipPath5444"><path d="m313.44 733.49h139.69v-103.6h-139.69z"/></clipPath><clipPath id="clipPath5624"><path d="m313.44 629.89h139.69v104.02h-139.69z" clip-rule="evenodd"/></clipPath><clipPath id="clipPath5632"><path d="m313.44 733.49h139.69v-103.6h-139.69z"/></clipPath><clipPath id="clipPath5660"><path d="m313.44 629.89h139.69v104.02h-139.69z" clip-rule="evenodd"/></clipPath><clipPath id="clipPath5668"><path d="m313.44 733.49h139.69v-103.6h-139.69z"/></clipPath><clipPath id="clipPath5688"><path d="m313.44 629.89h139.69v104.02h-139.69z" clip-rule="evenodd"/></clipPath><clipPath id="clipPath5696"><path d="m313.44 733.49h139.69v-103.6h-139.69z"/></clipPath><clipPath id="clipPath5734"><path d="m313.44 629.89h139.69v104.02h-139.69z" clip-rule="evenodd"/></clipPath><clipPath id="clipPath5742"><path d="m313.44 733.49h139.69v-103.6h-139.69z"/></clipPath><clipPath id="clipPath5758"><path d="m313.44 629.89h139.69v104.02h-139.69z" clip-rule="evenodd"/></clipPath><clipPath id="clipPath5766"><path d="m313.44 733.49h139.69v-103.6h-139.69z"/></clipPath><clipPath id="clipPath5786"><path d="m313.44 629.89h139.69v104.02h-139.69z" clip-rule="evenodd"/></clipPath><clipPath id="clipPath5794"><path d="m313.44 733.49h139.69v-103.6h-139.69z"/></clipPath></defs><g transform="translate(-73.738 -166.71)"><g transform="matrix(3.9999,0,0,-3.9999,-1180,3100.6)" font-size="9.9626px"><g font-family="BLEX"><text transform="scale(1,-1)" x="98.400391" y="-692.45966"><tspan x="98.400391" y="-692.45966"/></text><text transform="scale(1,-1)" x="142.08" y="-694.5"><tspan x="142.08" y="-694.5"/></text><text transform="scale(1,-1)" x="198.36078" y="-694.49994"><tspan x="198.36078" y="-694.49994"/></text></g><text transform="scale(1,-1)" x="147.24001" y="-671.82013" font-family="RBLMI" font-style="italic"><tspan x="147.24001" y="-671.82013"/></text><text transform="scale(1,-1)" x="106.56" y="-644.09998" font-family="RBLMI" font-style="italic"><tspan x="106.56" y="-644.09998"/></text><text transform="scale(1,-1)" x="149.76022" y="-659.09967" font-family="BLEX"><tspan x="149.76022" y="-659.09967"/></text><text transform="scale(1,-1)" x="188.99944" y="-659.09991" font-family="BLEX"><tspan x="188.99944" y="-659.09991"/></text><text transform="scale(1,-1)" x="213.24001" y="-644.09998" font-family="RBLMI" font-style="italic"><tspan x="213.24001" y="-644.09998"/></text><g font-family="BLEX"><text transform="scale(1,-1)" x="156.24036" y="-618.78015"><tspan x="156.24036" y="-618.78015"/></text><text transform="scale(1,-1)" x="141.48036" y="-552.5401"><tspan x="141.48036" y="-552.5401"/></text><text transform="scale(1,-1)" x="177.48" y="-546.90002"><tspan x="177.48" y="-546.90002"/></text><text transform="scale(1,-1)" x="209.52" y="-546.90002"><tspan x="209.52" y="-546.90002"/></text></g></g><g transform="matrix(3.9999,0,0,-3.9999,-1180,3100.6)" clip-path="url(#clipPath5282)"><g clip-path="url(#clipPath5290)"><path d="m313.44 629.89h139.69v103.61h-139.69z" fill="#fff"/></g></g><path d="m117.49 557.52h362.23v-40.967h-362.23z" fill="#7c7c7c" stroke-width="3.9999"/><g transform="matrix(3.9999,0,0,-3.9999,479.72,516.52)"><path d="M 0,0 30.458,30.536 V 20.293 L 0,-10.242 V 0" fill="#646464" fill-rule="evenodd"/></g><g transform="matrix(3.9999,0,0,-3.9999,117.49,516.52)"><path d="m 0,0 30.46,30.536 h 90.56 L 90.562,0 H 0" fill="#969696" fill-rule="evenodd"/></g><path d="m117.89 515.76h362.23v-40.967h-362.23z" fill="#b4c7e7" stroke-width="3.9999"/><g transform="matrix(3.9999,0,0,-3.9999,480.12,474.8)"><path d="M 0,0 30.458,30.537 V 20.294 L 0,-10.242 V 0" fill="#91a0ba" fill-rule="evenodd"/></g><g transform="matrix(3.9999,0,0,-3.9999,117.89,474.8)"><path d="m 0,0 30.461,30.537 h 90.558 L 90.561,0 H 0" fill="#c3d2ec" fill-rule="evenodd"/></g><path d="m117.49 474.8h362.77v-40.787h-362.77z" fill="#b4c7e7" stroke-width="3.9999"/><g transform="matrix(3.9999,0,0,-3.9999,480.28,434)"><path d="M 0,0 30.325,30.4 V 20.204 L 0,-10.197 V 0" fill="#91a0ba" fill-rule="evenodd"/></g><g transform="matrix(3.9999,0,0,-3.9999,117.49,434)"><path d="M 0,0 30.325,30.4 H 121.02 L 90.695,0 H 0" fill="#c3d2ec" fill-rule="evenodd"/></g><g transform="matrix(3.9999,0,0,-3.9999,116.93,433.76)"><path d="m0 0 30.407 30.481h90.889v-10.394l-30.405-30.482h-90.891zm0.277-10.255-0.139 0.138h90.695l-0.097-0.04 30.324 30.4-0.041-0.097v10.196l0.139-0.139h-90.695l0.1 0.039-30.327-30.398 0.041 0.097zm-0.139 10.336h90.695l-0.097-0.042 30.324 30.4 0.197-0.197-30.366-30.439h-90.753zm90.556-0.14h0.27698v-10.197h-0.27698z"/></g><path d="m117.89 434.12h362.66v-62.178h-362.66z" fill="#203864" stroke-width="3.9999"/><g transform="matrix(3.9999,0,0,-3.9999,480.56,371.96)"><path d="M 0,0 30.294,30.37 V 14.825 L 0,-15.544 V 0" fill="#1a2d50" fill-rule="evenodd"/></g><g transform="matrix(3.9999,0,0,-3.9999,117.89,371.96)"><path d="m 0,0 30.295,30.37 h 90.666 L 90.667,0 H 0" fill="#4c5f82" fill-rule="evenodd"/></g><g transform="matrix(3.9999,0,0,-3.9999,117.33,371.72)"><path d="m0 0 30.374 30.45h90.864v-15.742l-30.375-30.45h-90.863zm0.277-15.603-0.139 0.139h90.668l-0.098-0.042 30.293 30.37-0.041-0.097v15.545l0.14-0.14h-90.667l0.097 0.042-30.294-30.37 0.041 0.097zm-0.139 15.684h90.668l-0.098-0.039 30.293 30.367 0.196-0.195-30.334-30.412h-90.725zm90.529-0.14h0.27701v-15.544h-0.27701z"/></g><g transform="matrix(3.9999,0,0,-3.9999,481.72,487.6)"><path d="m0 0h-19.296c-3.407 0-6.167 2.767-6.167 6.182v24.263h25.463v-30.445" fill="#4472c4" fill-rule="evenodd"/></g><g transform="matrix(3.9999,0,0,-3.9999,117.53,487.6)"><path d="m 0,0 h 15.381 c 2.714,0 4.915,2.206 4.915,4.926 V 29.861 H 0 V 0" fill="#4472c4" fill-rule="evenodd"/></g><path d="m116.77 369.84h73.742v-30.638h-73.742z" fill="#ffd966" stroke-width="3.9999"/><g transform="matrix(3.9999,0,0,-3.9999,190.49,339.2)"><path d="M 0,0 30.103,30.175 V 22.516 L 0,-7.66 V 0" fill="#cdae52" fill-rule="evenodd"/></g><g transform="matrix(3.9999,0,0,-3.9999,116.77,339.2)"><path d="M 0,0 30.102,30.175 H 48.539 L 18.436,0 H 0" fill="#ffe084" fill-rule="evenodd"/></g><g transform="matrix(3.9999,0,0,-3.9999,-1180,3100.6)" clip-path="url(#clipPath5366)"><g clip-path="url(#clipPath5374)"><g transform="translate(332.2,684.63)"><path d="m0 0c0.284-0.246 0.691-0.368 1.22-0.368 0.365 0 0.668 0.051 0.912 0.153s0.432 0.258 0.566 0.468c0.133 0.211 0.2 0.436 0.2 0.677 0 0.265-0.055 0.488-0.167 0.669-0.111 0.18-0.266 0.322-0.463 0.427-0.197 0.103-0.501 0.204-0.914 0.302-0.411 0.097-0.67 0.191-0.777 0.281-0.083 0.07-0.125 0.155-0.125 0.255 0 0.108 0.045 0.195 0.134 0.26 0.139 0.102 0.331 0.152 0.577 0.152 0.238 0 0.417-0.047 0.536-0.142 0.119-0.094 0.197-0.249 0.233-0.466l0.846 0.038c-0.013 0.386-0.153 0.694-0.418 0.926-0.266 0.231-0.662 0.346-1.188 0.346-0.322 0-0.597-0.048-0.825-0.146-0.227-0.097-0.402-0.239-0.523-0.426-0.121-0.186-0.181-0.386-0.181-0.599 0-0.333 0.128-0.615 0.385-0.846 0.183-0.165 0.502-0.303 0.955-0.416 0.353-0.088 0.578-0.148 0.678-0.183 0.144-0.052 0.246-0.111 0.304-0.182 0.058-0.069 0.087-0.154 0.087-0.253 0-0.155-0.069-0.29-0.207-0.406-0.139-0.115-0.344-0.173-0.616-0.173-0.257 0-0.462 0.065-0.613 0.195-0.152 0.129-0.252 0.333-0.302 0.61l-0.823-0.08c0.055-0.47 0.225-0.828 0.509-1.073"/></g></g></g><path d="m180.25 373.12h229.03v-31.222h-229.03z" fill="#adb9ca" stroke-width="3.9999"/><g transform="matrix(3.9999,0,0,-3.9999,409.28,341.92)"><path d="M 0,0 30.832,30.906 V 23.102 L 0,-7.807 V 0" fill="#8b95a2" fill-rule="evenodd"/></g><g transform="matrix(3.9999,0,0,-3.9999,180.25,341.92)"><path d="M 0,0 30.83,30.906 H 88.092 L 57.26,0 H 0" fill="#bdc7d4" fill-rule="evenodd"/></g><path d="m400.24 370.32h80.106v-31.864h-80.106z" fill="#ffd966" stroke-width="3.9999"/><g transform="matrix(3.9999,0,0,-3.9999,480.36,338.44)"><path d="M 0,0 30.846,30.922 V 22.957 L 0,-7.966 V 0" fill="#cdae52" fill-rule="evenodd"/></g><g transform="matrix(3.9999,0,0,-3.9999,400.24,338.44)"><path d="M 0,0 30.846,30.922 H 50.871 L 20.025,0 H 0" fill="#ffe084" fill-rule="evenodd"/></g><g transform="matrix(3.9999,0,0,-3.9999,-1180,3100.6)" clip-path="url(#clipPath5406)"><g clip-path="url(#clipPath5414)"><g transform="translate(403.72,684.77)"><path d="m0 0h1.303c0.255 0 0.46 0.024 0.613 0.073 0.204 0.065 0.366 0.157 0.486 0.274 0.159 0.155 0.281 0.357 0.367 0.607 0.07 0.205 0.105 0.449 0.105 0.732 0 0.321-0.037 0.592-0.112 0.812-0.075 0.219-0.184 0.405-0.327 0.557-0.144 0.151-0.316 0.257-0.517 0.316-0.15 0.044-0.368 0.066-0.653 0.066h-1.265zm1.004 2.856c0.282 0 0.471-0.012 0.568-0.034 0.129-0.027 0.236-0.082 0.32-0.161 0.085-0.08 0.15-0.191 0.196-0.333 0.047-0.142 0.071-0.346 0.071-0.612s-0.024-0.476-0.071-0.629c-0.046-0.154-0.107-0.265-0.181-0.332s-0.167-0.115-0.279-0.143c-0.086-0.022-0.226-0.033-0.419-0.033h-0.517v2.277h0.312"/></g></g></g><path d="m223.89 341.44h83.966v-34.01h-83.966z" fill="#ffd966" stroke-width="3.9999"/><g transform="matrix(3.9999,0,0,-3.9999,307.89,307.41)"><path d="M 0,0 30.713,30.787 V 22.285 L 0,-8.504 V 0" fill="#cdae52" fill-rule="evenodd"/></g><g transform="matrix(3.9999,0,0,-3.9999,223.89,307.41)"><path d="M 0,0 30.713,30.787 H 51.706 L 20.993,0 H 0" fill="#ffe084" fill-rule="evenodd"/></g><g transform="matrix(3.9999,0,0,-3.9999,-1180,3100.6)" clip-path="url(#clipPath5436)"><g clip-path="url(#clipPath5444)"><g transform="translate(362.37,693.52)"><path d="m0 0v-0.435c-0.104-0.083-0.229-0.151-0.375-0.208-0.146-0.058-0.292-0.086-0.437-0.086-0.293 0-0.53 0.102-0.71 0.306-0.182 0.204-0.272 0.51-0.272 0.918 0 0.378 0.089 0.663 0.268 0.856 0.178 0.191 0.419 0.288 0.721 0.288 0.2 0 0.366-0.049 0.5-0.147 0.133-0.098 0.223-0.231 0.272-0.4l0.687 0.13c-0.068 0.315-0.222 0.562-0.461 0.741-0.239 0.18-0.572 0.269-0.998 0.269-0.327 0-0.601-0.057-0.82-0.171-0.289-0.148-0.508-0.362-0.658-0.64-0.149-0.278-0.224-0.596-0.224-0.955 0-0.329 0.067-0.634 0.201-0.915 0.134-0.28 0.334-0.496 0.601-0.647 0.266-0.151 0.579-0.226 0.938-0.226 0.282 0 0.56 0.054 0.836 0.161 0.275 0.106 0.485 0.23 0.63 0.371v1.369h-1.492v-0.579h0.793"/></g><g transform="translate(341.2,639.92)"><path d="m0 0c-0.073 0.216-0.131 0.442-0.173 0.682-0.043 0.238-0.064 0.472-0.064 0.7 0 0.33 0.035 0.643 0.107 0.938s0.202 0.654 0.392 1.074h-0.399c-0.183-0.262-0.334-0.549-0.453-0.86-0.138-0.359-0.206-0.739-0.206-1.14 0-0.324 0.055-0.658 0.166-1.004s0.273-0.679 0.484-1h0.402c-0.122 0.265-0.208 0.468-0.256 0.61zm0.877 3.042c-0.2-0.252-0.299-0.667-0.299-1.242 0-0.586 0.091-0.993 0.272-1.222 0.182-0.228 0.421-0.343 0.717-0.343 0.295 0 0.525 0.105 0.69 0.313 0.2 0.253 0.3 0.668 0.3 1.246 0 0.579-0.099 0.994-0.297 1.244-0.167 0.211-0.398 0.317-0.693 0.317s-0.525-0.105-0.69-0.313zm0.878-0.24c0.055-0.046 0.1-0.135 0.137-0.269 0.036-0.134 0.053-0.38 0.053-0.739 0-0.358-0.019-0.612-0.059-0.762-0.031-0.117-0.074-0.198-0.13-0.243l-0.189-0.068-0.188 0.067c-0.055 0.044-0.1 0.133-0.136 0.267-0.036 0.135-0.054 0.381-0.054 0.739 0 0.359 0.021 0.613 0.061 0.765 0.03 0.117 0.073 0.197 0.128 0.243l0.189 0.067zm2.686 0.553h-0.473c-0.067-0.186-0.189-0.349-0.368-0.489-0.179-0.139-0.345-0.234-0.497-0.284v-0.532c0.29 0.096 0.542 0.244 0.755 0.444v-2.206h0.583zm1.17-0.313c-0.199-0.252-0.299-0.667-0.299-1.242 0-0.586 0.09-0.993 0.273-1.222 0.181-0.228 0.42-0.343 0.716-0.343s0.526 0.105 0.691 0.313c0.199 0.253 0.299 0.668 0.299 1.246 0 0.579-0.099 0.994-0.297 1.244-0.167 0.211-0.397 0.317-0.693 0.317-0.295 0-0.525-0.105-0.69-0.313zm0.879-0.24c0.054-0.046 0.1-0.135 0.135-0.269 0.037-0.134 0.055-0.38 0.055-0.739 0-0.358-0.02-0.612-0.061-0.762-0.03-0.117-0.073-0.198-0.128-0.243l-0.19-0.068-0.188 0.067c-0.054 0.044-0.1 0.133-0.135 0.267-0.037 0.135-0.055 0.381-0.055 0.739 0 0.359 0.02 0.613 0.061 0.765 0.03 0.117 0.073 0.197 0.128 0.243l0.189 0.067zm1.557-3.412c0.238 0.362 0.41 0.729 0.514 1.102 0.091 0.332 0.137 0.643 0.137 0.933 0 0.345-0.058 0.684-0.174 1.019-0.115 0.335-0.278 0.652-0.487 0.95h-0.397c0.19-0.42 0.32-0.779 0.39-1.074 0.071-0.295 0.106-0.608 0.106-0.938 0-0.163-9e-3 -0.322-0.028-0.477-0.02-0.155-0.05-0.318-0.09-0.49s-0.084-0.325-0.131-0.457c-0.048-0.132-0.128-0.321-0.243-0.568zm2.941 0.898v1.298h1.272v0.516h-1.272v0.724h1.474v0.516h-2.089v-3.054zm3.115 0.462c-0.063-0.05-0.14-0.075-0.231-0.075-0.135 0-0.247 0.048-0.337 0.145-0.09 0.096-0.137 0.231-0.141 0.406h1.463c9e-3 0.448-0.082 0.781-0.272 0.998-0.19 0.218-0.449 0.327-0.777 0.327-0.293 0-0.535-0.104-0.726-0.312s-0.287-0.495-0.287-0.861c0-0.308 0.073-0.562 0.218-0.763 0.185-0.252 0.469-0.378 0.853-0.378 0.242 0 0.445 0.057 0.606 0.168 0.161 0.112 0.279 0.275 0.354 0.489l-0.582 0.098c-0.032-0.111-0.079-0.192-0.141-0.242zm-0.699 0.834c-1e-3 0.159 0.039 0.286 0.123 0.379 0.083 0.093 0.188 0.139 0.316 0.139 0.119 0 0.221-0.043 0.304-0.132 0.082-0.088 0.126-0.217 0.13-0.386zm5.137 1.758h-0.584v-1.1c-0.181 0.206-0.393 0.309-0.641 0.309-0.269 0-0.491-0.098-0.667-0.293s-0.264-0.481-0.264-0.856c0-0.366 0.091-0.652 0.271-0.857 0.181-0.205 0.399-0.308 0.652-0.308 0.125 0 0.249 0.032 0.371 0.093 0.123 0.062 0.229 0.156 0.32 0.282v-0.324h0.542zm-1.419-1.405c0.094 0.11 0.21 0.165 0.349 0.165 0.142 0 0.259-0.056 0.351-0.167 0.091-0.112 0.137-0.295 0.137-0.549 0-0.228-0.047-0.399-0.141-0.514s-0.209-0.172-0.343-0.172c-0.17 0-0.301 0.076-0.395 0.23-0.066 0.105-0.098 0.276-0.098 0.512 0 0.22 0.047 0.384 0.14 0.495zm2.004-1.159c0.095-0.176 0.235-0.311 0.418-0.403 0.184-0.092 0.377-0.138 0.58-0.138 0.327 0 0.598 0.111 0.814 0.331 0.215 0.22 0.323 0.497 0.323 0.832 0 0.332-0.107 0.607-0.321 0.824-0.213 0.218-0.487 0.327-0.821 0.327-0.216 0-0.412-0.048-0.587-0.145-0.175-0.095-0.311-0.234-0.406-0.416-0.096-0.182-0.143-0.37-0.143-0.565 0-0.254 0.047-0.47 0.143-0.647zm0.611 1.12c0.104 0.117 0.232 0.175 0.384 0.175 0.153 0 0.281-0.058 0.384-0.175s0.155-0.283 0.155-0.5c0-0.222-0.052-0.392-0.155-0.508-0.103-0.117-0.231-0.175-0.384-0.175-0.152 0-0.28 0.058-0.384 0.175-0.104 0.116-0.156 0.285-0.156 0.504 0 0.22 0.052 0.387 0.156 0.504zm1.965-2.452h0.584v1.115c0.11-0.119 0.213-0.202 0.313-0.25 0.099-0.049 0.21-0.074 0.332-0.074 0.256 0 0.474 0.103 0.654 0.308 0.181 0.205 0.27 0.492 0.27 0.862 0 0.36-0.089 0.64-0.268 0.841-0.178 0.202-0.396 0.303-0.652 0.303-0.147 0-0.281-0.035-0.401-0.105-0.121-0.069-0.217-0.159-0.287-0.271v0.325h-0.545zm0.719 2.476c0.094 0.111 0.213 0.166 0.356 0.166 0.137 0 0.252-0.056 0.345-0.169 0.093-0.112 0.139-0.285 0.139-0.517 0-0.248-0.045-0.427-0.135-0.536-0.09-0.11-0.203-0.164-0.339-0.164-0.141 0-0.261 0.059-0.36 0.178-0.098 0.119-0.147 0.303-0.147 0.552 0 0.216 0.047 0.38 0.141 0.49zm3.015-1.172c-0.062-0.05-0.14-0.075-0.231-0.075-0.135 0-0.247 0.048-0.337 0.145-0.09 0.096-0.137 0.231-0.141 0.406h1.463c9e-3 0.448-0.082 0.781-0.272 0.998-0.19 0.218-0.449 0.327-0.778 0.327-0.292 0-0.534-0.104-0.725-0.312s-0.287-0.495-0.287-0.861c0-0.308 0.073-0.562 0.219-0.763 0.184-0.252 0.467-0.378 0.852-0.378 0.242 0 0.444 0.057 0.606 0.168 0.161 0.112 0.279 0.275 0.354 0.489l-0.582 0.098c-0.032-0.111-0.079-0.192-0.141-0.242zm-0.699 0.834c-1e-3 0.159 0.04 0.286 0.123 0.379s0.188 0.139 0.316 0.139c0.119 0 0.22-0.043 0.303-0.132 0.084-0.088 0.127-0.217 0.131-0.386zm3.953 1.758h-0.584v-1.1c-0.18 0.206-0.394 0.309-0.64 0.309-0.269 0-0.491-0.098-0.668-0.293-0.175-0.195-0.263-0.481-0.263-0.856 0-0.366 0.09-0.652 0.271-0.857 0.18-0.205 0.398-0.308 0.651-0.308 0.125 0 0.249 0.032 0.372 0.093 0.122 0.062 0.228 0.156 0.319 0.282v-0.324h0.542zm-1.418-1.405c0.093 0.11 0.209 0.165 0.348 0.165 0.142 0 0.259-0.056 0.351-0.167 0.092-0.112 0.137-0.295 0.137-0.549 0-0.228-0.047-0.399-0.141-0.514s-0.209-0.172-0.343-0.172c-0.169 0-0.301 0.076-0.396 0.23-0.064 0.105-0.097 0.276-0.097 0.512 0 0.22 0.047 0.384 0.141 0.495zm3.282-1.516c0.176-0.122 0.414-0.184 0.715-0.184 0.331 0 0.581 0.074 0.75 0.22 0.169 0.145 0.253 0.319 0.253 0.522 0 0.186-0.06 0.332-0.182 0.436-0.124 0.103-0.341 0.189-0.652 0.261-0.312 0.07-0.493 0.125-0.546 0.164l-0.058 0.106 0.066 0.119c0.067 0.043 0.177 0.064 0.331 0.064 0.122 0 0.216-0.022 0.281-0.068l0.135-0.198 0.55 0.102c-0.054 0.193-0.156 0.339-0.302 0.438-0.147 0.098-0.373 0.148-0.675 0.148-0.317 0-0.551-0.066-0.702-0.196-0.151-0.131-0.226-0.292-0.226-0.484 0-0.212 0.087-0.378 0.261-0.498 0.127-0.086 0.425-0.181 0.896-0.285 0.102-0.024 0.166-0.049 0.196-0.077l0.042-0.111-0.078-0.156c-0.076-0.056-0.19-0.084-0.34-0.084-0.138 0-0.244 0.03-0.321 0.089-0.076 0.059-0.126 0.146-0.152 0.259l-0.585-0.089c0.053-0.21 0.168-0.376 0.343-0.498zm4.225-0.133v2.212h-0.585v-0.933c0-0.317-0.014-0.516-0.043-0.597l-0.162-0.204c-0.079-0.055-0.169-0.082-0.268-0.082l-0.216 0.061-0.118 0.167c-0.022 0.07-0.032 0.26-0.032 0.571v1.017h-0.584v-1.4c0-0.208 0.026-0.372 0.079-0.49 0.052-0.117 0.137-0.209 0.255-0.274 0.118-0.066 0.252-0.099 0.4-0.099 0.145 0 0.284 0.034 0.414 0.103 0.131 0.068 0.237 0.161 0.317 0.279v-0.331zm1.123 0v0.324c0.089-0.123 0.194-0.217 0.317-0.28 0.122-0.063 0.247-0.095 0.373-0.095 0.257 0 0.474 0.103 0.654 0.307 0.179 0.204 0.269 0.495 0.269 0.873 0 0.365-0.088 0.646-0.264 0.841s-0.398 0.293-0.668 0.293c-0.246 0-0.459-0.103-0.639-0.309v1.1h-0.584v-3.054zm0.177 1.651c0.092 0.109 0.209 0.163 0.349 0.163 0.143 0 0.26-0.056 0.351-0.167 0.092-0.112 0.138-0.294 0.138-0.547 0-0.238-0.046-0.412-0.137-0.522s-0.2-0.166-0.329-0.166c-0.168 0-0.303 0.078-0.404 0.234-0.071 0.109-0.108 0.279-0.108 0.508 0 0.223 0.047 0.388 0.14 0.497zm2.024-1.518c0.175-0.122 0.413-0.184 0.714-0.184 0.331 0 0.581 0.074 0.75 0.22 0.169 0.145 0.254 0.319 0.254 0.522 0 0.186-0.062 0.332-0.183 0.436-0.124 0.103-0.341 0.189-0.652 0.261-0.311 0.07-0.493 0.125-0.546 0.164l-0.058 0.106 0.067 0.119c0.066 0.043 0.177 0.064 0.33 0.064 0.122 0 0.216-0.022 0.282-0.068l0.134-0.198 0.551 0.102c-0.056 0.193-0.157 0.339-0.304 0.438-0.147 0.098-0.371 0.148-0.673 0.148-0.318 0-0.552-0.066-0.703-0.196-0.151-0.131-0.226-0.292-0.226-0.484 0-0.212 0.087-0.378 0.262-0.498 0.126-0.086 0.424-0.181 0.896-0.285 0.101-0.024 0.166-0.049 0.195-0.077l0.041-0.111-0.076-0.156c-0.077-0.056-0.191-0.084-0.341-0.084-0.138 0-0.244 0.03-0.32 0.089-0.077 0.059-0.127 0.146-0.152 0.259l-0.587-0.089c0.055-0.21 0.169-0.376 0.345-0.498zm2.842 2.079v0.782l-0.587-0.342v-0.44h-0.268v-0.466h0.268v-0.965c0-0.207 7e-3 -0.344 0.02-0.413 0.014-0.095 0.042-0.172 0.082-0.228l0.185-0.138c0.084-0.035 0.18-0.053 0.285-0.053 0.172 0 0.325 0.03 0.462 0.088l-0.05 0.454c-0.103-0.037-0.181-0.056-0.235-0.056l-0.099 0.029-0.052 0.074c-8e-3 0.03-0.011 0.135-0.011 0.316v0.892h0.399v0.466zm1.363-1.529c0 0.376 0.017 0.624 0.049 0.742 0.033 0.118 0.077 0.2 0.134 0.245l0.208 0.067c0.084 0 0.176-0.031 0.274-0.096l0.181 0.511c-0.123 0.074-0.251 0.111-0.384 0.111-0.095 0-0.179-0.024-0.253-0.072-0.074-0.046-0.158-0.145-0.25-0.293v0.314h-0.543v-2.212h0.584zm1.683 1.07c0.059 0.041 0.139 0.061 0.243 0.061 0.155 0 0.259-0.023 0.315-0.072 0.055-0.048 0.083-0.128 0.083-0.24v-0.058c-0.106-0.045-0.295-0.093-0.568-0.144-0.202-0.039-0.357-0.085-0.464-0.137-0.108-0.052-0.191-0.127-0.25-0.224-0.06-0.099-0.09-0.21-0.09-0.335 0-0.189 0.065-0.345 0.196-0.469s0.31-0.186 0.538-0.186c0.129 0 0.25 0.025 0.364 0.074 0.113 0.048 0.22 0.121 0.319 0.218l0.021-0.068 0.056-0.173h0.578c-0.051 0.105-0.086 0.204-0.104 0.296-0.02 0.093-0.029 0.236-0.029 0.431l6e-3 0.683c0 0.255-0.025 0.429-0.077 0.524s-0.142 0.174-0.27 0.236c-0.127 0.061-0.321 0.093-0.582 0.093-0.287 0-0.503-0.052-0.648-0.155s-0.248-0.261-0.308-0.475l0.53-0.096c0.036 0.103 0.084 0.175 0.141 0.216zm0.641-0.807c0-0.141-8e-3 -0.236-0.023-0.286l-0.139-0.194c-0.096-0.069-0.196-0.104-0.302-0.104-0.094 0-0.172 0.03-0.233 0.09l-0.091 0.212 0.114 0.207c0.05 0.033 0.156 0.067 0.318 0.102 0.163 0.034 0.281 0.064 0.356 0.089zm1.762 1.266v0.782l-0.586-0.342v-0.44h-0.268v-0.466h0.268v-0.965c0-0.207 6e-3 -0.344 0.019-0.413 0.014-0.095 0.042-0.172 0.082-0.228l0.185-0.138c0.085-0.035 0.18-0.053 0.285-0.053 0.172 0 0.326 0.03 0.462 0.088l-0.05 0.454c-0.102-0.037-0.181-0.056-0.235-0.056l-0.099 0.029-0.052 0.074c-8e-3 0.03-0.011 0.135-0.011 0.316v0.892h0.399v0.466zm1.941-1.75c-0.062-0.05-0.139-0.075-0.231-0.075-0.134 0-0.246 0.048-0.336 0.145-0.09 0.096-0.137 0.231-0.142 0.406h1.464c9e-3 0.448-0.083 0.781-0.273 0.998-0.189 0.218-0.448 0.327-0.777 0.327-0.292 0-0.534-0.104-0.726-0.312-0.19-0.208-0.286-0.495-0.286-0.861 0-0.308 0.073-0.562 0.218-0.763 0.185-0.252 0.468-0.378 0.852-0.378 0.243 0 0.445 0.057 0.607 0.168 0.161 0.112 0.279 0.275 0.354 0.489l-0.582 0.098c-0.032-0.111-0.079-0.192-0.142-0.242zm-0.698 0.834c-1e-3 0.159 0.04 0.286 0.123 0.379s0.188 0.139 0.316 0.139c0.119 0 0.22-0.043 0.303-0.132 0.083-0.088 0.127-0.217 0.131-0.386h-0.873"/></g><g transform="translate(350.37,650.44)"><path d="m0 0c0.155-0.132 0.356-0.199 0.603-0.199 0.309 0 0.549 0.118 0.724 0.354 0.127 0.173 0.191 0.37 0.191 0.591 0 0.263-0.079 0.479-0.237 0.644-0.158 0.166-0.351 0.248-0.577 0.248-0.12 0-0.237-0.028-0.351-0.085l0.081 0.454h0.965v0.481h-1.354l-0.262-1.394 0.416-0.06c0.116 0.13 0.248 0.195 0.395 0.195 0.117 0 0.213-0.041 0.287-0.123 0.073-0.082 0.11-0.205 0.11-0.37 0-0.175-0.037-0.306-0.111-0.393-0.074-0.088-0.165-0.131-0.271-0.131-0.094 0-0.177 0.034-0.248 0.101-0.072 0.068-0.115 0.159-0.13 0.275l-0.51-0.053c0.03-0.224 0.123-0.402 0.279-0.535zm2.038 2.261c-0.175-0.222-0.262-0.584-0.262-1.088 0-0.514 0.079-0.871 0.239-1.072 0.158-0.2 0.368-0.3 0.628-0.3 0.259 0 0.46 0.091 0.605 0.274 0.175 0.221 0.262 0.586 0.262 1.092 0 0.508-0.086 0.871-0.261 1.091-0.145 0.185-0.347 0.277-0.606 0.277s-0.46-0.091-0.605-0.274zm0.77-0.211c0.047-0.039 0.088-0.118 0.119-0.235 0.031-0.118 0.048-0.334 0.048-0.648s-0.018-0.537-0.053-0.668c-0.027-0.103-0.065-0.174-0.113-0.213l-0.166-0.06-0.165 0.059c-0.048 0.039-0.088 0.117-0.119 0.234-0.032 0.118-0.048 0.334-0.048 0.648s0.018 0.537 0.053 0.67c0.027 0.103 0.065 0.174 0.113 0.213l0.166 0.06zm1.294 0.211c-0.175-0.222-0.263-0.584-0.263-1.088 0-0.514 0.08-0.871 0.239-1.072 0.159-0.2 0.369-0.3 0.629-0.3 0.258 0 0.46 0.091 0.604 0.274 0.175 0.221 0.263 0.586 0.263 1.092 0 0.508-0.087 0.871-0.261 1.091-0.146 0.185-0.348 0.277-0.606 0.277-0.259 0-0.461-0.091-0.605-0.274zm0.77-0.211c0.047-0.039 0.087-0.118 0.119-0.235 0.031-0.118 0.048-0.334 0.048-0.648s-0.019-0.537-0.053-0.668c-0.028-0.103-0.065-0.174-0.113-0.213l-0.166-0.06-0.165 0.059c-0.048 0.039-0.088 0.117-0.12 0.234-0.031 0.118-0.047 0.334-0.047 0.648s0.018 0.537 0.053 0.67c0.027 0.103 0.064 0.174 0.113 0.213l0.166 0.06zm3.996-0.998c0 0.15-0.01 0.265-0.028 0.345l-0.101 0.216c-0.048 0.063-0.118 0.115-0.212 0.156-0.093 0.041-0.197 0.061-0.31 0.061-0.256 0-0.468-0.109-0.638-0.329v0.285h-0.475v-1.939h0.512v0.878c0 0.217 0.013 0.366 0.039 0.446l0.145 0.193 0.239 0.074 0.177-0.052 0.107-0.143c0.022-0.061 0.033-0.197 0.033-0.406v-0.99h0.512zm0.463-1.205h0.512v0.942c0 0.186 0.013 0.32 0.041 0.4l0.135 0.184 0.214 0.065 0.156-0.041 0.084-0.122c0.019-0.055 0.028-0.177 0.028-0.365v-1.063h0.512v0.931c0 0.182 0.014 0.316 0.041 0.401l0.137 0.193 0.203 0.066c0.098 0 0.171-0.037 0.218-0.11 0.035-0.056 0.053-0.181 0.053-0.373v-1.108h0.512v1.24c0 0.185-0.018 0.319-0.053 0.401-0.049 0.112-0.122 0.197-0.22 0.255-0.099 0.058-0.219 0.087-0.361 0.087-0.112 0-0.217-0.025-0.315-0.077-0.099-0.051-0.19-0.128-0.276-0.232-0.058 0.104-0.133 0.181-0.224 0.232-0.091 0.052-0.198 0.077-0.322 0.077-0.234 0-0.435-0.103-0.603-0.309v0.265h-0.472zm4.423 1.249c0-0.3 0.017-0.526 0.053-0.679 0.024-0.104 0.074-0.203 0.151-0.297 0.077-0.095 0.181-0.171 0.312-0.23 0.132-0.06 0.326-0.089 0.581-0.089 0.211 0 0.382 0.027 0.514 0.081 0.131 0.054 0.236 0.127 0.314 0.218 0.078 0.092 0.132 0.204 0.161 0.336 0.029 0.133 0.044 0.36 0.044 0.682v1.406h-0.539v-1.481c0-0.212-9e-3 -0.363-0.024-0.455-0.016-0.091-0.063-0.169-0.141-0.231-0.077-0.063-0.193-0.094-0.346-0.094-0.15 0-0.269 0.033-0.356 0.1-0.086 0.066-0.142 0.154-0.165 0.263-0.013 0.069-0.02 0.218-0.02 0.448v1.45h-0.539zm2.682-1.249h0.53952v2.6779h-0.53952zm0.539 0m0.512 0h1.015c0.2 0 0.359 0.019 0.477 0.056 0.16 0.051 0.287 0.122 0.38 0.214 0.124 0.12 0.219 0.278 0.286 0.473 0.055 0.16 0.082 0.349 0.082 0.57 0 0.251-0.029 0.462-0.087 0.632-0.059 0.172-0.144 0.316-0.256 0.434-0.112 0.119-0.246 0.201-0.403 0.247-0.116 0.034-0.286 0.051-0.508 0.051h-0.986zm0.782 2.224c0.22 0 0.368-8e-3 0.443-0.025 0.101-0.023 0.184-0.064 0.25-0.127 0.065-0.061 0.116-0.148 0.153-0.258 0.036-0.112 0.054-0.27 0.054-0.477 0-0.208-0.018-0.371-0.054-0.491-0.037-0.12-0.084-0.206-0.141-0.259l-0.218-0.111c-0.068-0.016-0.176-0.025-0.326-0.025h-0.403v1.773zm4.828-1.24v-0.34c-0.082-0.063-0.179-0.117-0.293-0.162-0.114-0.044-0.227-0.066-0.34-0.066-0.228 0-0.413 0.08-0.554 0.238-0.141 0.159-0.211 0.398-0.211 0.715 0 0.295 0.069 0.517 0.208 0.667 0.14 0.15 0.327 0.225 0.563 0.225 0.155 0 0.285-0.038 0.389-0.114s0.174-0.18 0.212-0.312l0.536 0.101c-0.054 0.245-0.174 0.438-0.36 0.578-0.186 0.139-0.446 0.209-0.777 0.209-0.256 0-0.469-0.045-0.64-0.133-0.225-0.116-0.395-0.282-0.512-0.499-0.116-0.217-0.175-0.464-0.175-0.744 0-0.256 0.052-0.494 0.157-0.713 0.104-0.218 0.261-0.386 0.468-0.504 0.208-0.117 0.451-0.176 0.731-0.176 0.22 0 0.437 0.042 0.651 0.125 0.214 0.084 0.378 0.18 0.492 0.289v1.067h-1.163v-0.451zm1.545 0.552c0.051 0.036 0.123 0.055 0.213 0.055 0.135 0 0.227-0.021 0.275-0.064 0.049-0.041 0.074-0.112 0.074-0.211v-0.051c-0.093-0.039-0.259-0.08-0.498-0.126-0.177-0.034-0.313-0.074-0.407-0.119-0.094-0.046-0.168-0.112-0.22-0.198s-0.079-0.183-0.079-0.293c0-0.165 0.058-0.302 0.173-0.411 0.115-0.108 0.272-0.162 0.471-0.162 0.113 0 0.219 0.021 0.319 0.064 0.1 0.042 0.193 0.106 0.281 0.192l0.018-0.061 0.049-0.151h0.506c-0.045 0.092-0.075 0.179-0.091 0.26-0.017 0.081-0.025 0.207-0.025 0.377l5e-3 0.599c0 0.223-0.022 0.376-0.068 0.459-0.045 0.084-0.124 0.153-0.236 0.207s-0.282 0.081-0.51 0.081c-0.252 0-0.441-0.045-0.568-0.135-0.128-0.09-0.218-0.229-0.27-0.416l0.465-0.085c0.031 0.091 0.072 0.154 0.123 0.189zm0.562-0.707c0-0.123-7e-3 -0.207-0.02-0.251l-0.123-0.169c-0.083-0.061-0.172-0.092-0.264-0.092l-0.204 0.079-0.08 0.186 0.1 0.181c0.044 0.029 0.137 0.059 0.279 0.09 0.142 0.03 0.246 0.056 0.312 0.078v-0.102"/></g><g transform="translate(376.89,649.7)"><path d="m0 0 0.07 0.095c0.029 0.033 0.097 0.099 0.205 0.198s0.182 0.176 0.224 0.228l0.137 0.229 0.044 0.23c0 0.142-0.051 0.261-0.152 0.356-0.1 0.095-0.239 0.143-0.415 0.143-0.16 0-0.295-0.041-0.402-0.124-0.107-0.082-0.171-0.217-0.191-0.406l0.341-0.035c6e-3 0.101 0.031 0.172 0.073 0.215l0.17 0.065 0.17-0.061 0.062-0.177-0.071-0.21c-0.035-0.051-0.129-0.149-0.284-0.293-0.191-0.179-0.319-0.321-0.384-0.429-0.066-0.108-0.104-0.222-0.118-0.342h1.201v0.318h-0.68"/></g><g transform="translate(378.22,650.61)"><path d="m0 0c0.235-0.243 0.55-0.365 0.948-0.365 0.392 0 0.706 0.123 0.94 0.367 0.235 0.244 0.352 0.582 0.352 1.015 0 0.435-0.118 0.776-0.355 1.021-0.236 0.244-0.551 0.366-0.945 0.366-0.217 0-0.409-0.035-0.575-0.106-0.125-0.052-0.24-0.132-0.346-0.241-0.105-0.108-0.187-0.23-0.248-0.367-0.082-0.185-0.123-0.414-0.123-0.687 0-0.425 0.118-0.76 0.352-1.003zm0.408 1.713c0.136 0.153 0.316 0.229 0.538 0.229s0.401-0.075 0.534-0.226c0.135-0.152 0.202-0.38 0.202-0.687 0-0.31-0.069-0.543-0.207-0.698-0.138-0.156-0.314-0.233-0.529-0.233-0.216 0-0.393 0.078-0.532 0.235-0.14 0.155-0.21 0.386-0.21 0.689 0 0.308 0.069 0.538 0.204 0.691"/></g><g transform="translate(380.88,649.49)"><path d="m0 0c0.106-0.094 0.24-0.14 0.402-0.14 0.17 0 0.312 0.055 0.427 0.166s0.172 0.245 0.172 0.402c0 0.108-0.031 0.2-0.092 0.277-0.061 0.076-0.143 0.126-0.246 0.148 0.172 0.093 0.257 0.218 0.257 0.376 0 0.11-0.041 0.21-0.125 0.297-0.101 0.108-0.236 0.162-0.404 0.162-0.098 0-0.187-0.019-0.267-0.056l-0.185-0.153c-0.044-0.065-0.077-0.151-0.099-0.259l0.316-0.054 0.075 0.179 0.15 0.061 0.142-0.054 0.054-0.144-0.073-0.17c-0.048-0.043-0.119-0.063-0.212-0.061l-0.038-0.28 0.157 0.026 0.169-0.076 0.07-0.205c0-0.091-0.024-0.163-0.072-0.217l-0.179-0.081-0.168 0.067-0.085 0.195-0.331-0.041c0.017-0.15 0.078-0.272 0.185-0.365"/></g><g transform="translate(347,660.91)"><path d="m0 0c0.136-0.12 0.308-0.179 0.515-0.179 0.218 0 0.4 0.071 0.547 0.212 0.146 0.142 0.22 0.314 0.22 0.515 0 0.138-0.039 0.256-0.118 0.355-0.078 0.098-0.183 0.161-0.314 0.189 0.219 0.119 0.329 0.28 0.329 0.481 0 0.142-0.054 0.269-0.161 0.381-0.13 0.138-0.303 0.207-0.517 0.207-0.126 0-0.24-0.024-0.341-0.072-0.101-0.047-0.18-0.112-0.237-0.195s-0.099-0.194-0.127-0.332l0.404-0.069c0.011 0.1 0.043 0.176 0.096 0.229l0.192 0.077 0.182-0.068 0.069-0.185c0-0.09-0.031-0.163-0.093-0.217-0.063-0.056-0.153-0.082-0.272-0.078l-0.048-0.358 0.201 0.033 0.217-0.097c0.059-0.065 0.089-0.152 0.089-0.263 0-0.116-0.031-0.209-0.093-0.278s-0.138-0.103-0.228-0.103l-0.216 0.086c-0.059 0.057-0.095 0.141-0.109 0.248l-0.424-0.051c0.022-0.193 0.101-0.348 0.237-0.468zm1.764 1.926c-0.149-0.19-0.224-0.5-0.224-0.931 0-0.44 0.068-0.745 0.204-0.917 0.136-0.171 0.316-0.257 0.538-0.257 0.221 0 0.394 0.078 0.517 0.235 0.15 0.189 0.225 0.501 0.225 0.934 0 0.434-0.074 0.745-0.223 0.933-0.125 0.158-0.298 0.238-0.519 0.238s-0.394-0.079-0.518-0.235zm0.659-0.18c0.041-0.034 0.075-0.102 0.102-0.202 0.027-0.101 0.041-0.285 0.041-0.554s-0.015-0.46-0.046-0.572l-0.097-0.182-0.141-0.051-0.141 0.05c-0.041 0.033-0.075 0.1-0.102 0.201s-0.041 0.285-0.041 0.554 0.015 0.46 0.045 0.574l0.097 0.182 0.142 0.05zm3.374-0.854c0 0.128-8e-3 0.226-0.024 0.295l-0.085 0.185-0.182 0.133c-0.08 0.034-0.168 0.052-0.265 0.052-0.219 0-0.401-0.094-0.546-0.281v0.244h-0.407v-1.66h0.438v0.752c0 0.185 0.011 0.312 0.034 0.381l0.124 0.166 0.204 0.062 0.152-0.043 0.092-0.123c0.018-0.053 0.027-0.169 0.027-0.347v-0.848h0.438zm0.422-1.032h0.438v0.807c0 0.159 0.012 0.273 0.035 0.342l0.116 0.158 0.183 0.054 0.133-0.034 0.072-0.105c0.016-0.047 0.024-0.151 0.024-0.313v-0.909h0.438v0.797c0 0.156 0.012 0.271 0.036 0.344l0.117 0.164 0.173 0.056 0.187-0.094c0.03-0.047 0.045-0.154 0.045-0.318v-0.949h0.439v1.061c0 0.159-0.016 0.273-0.046 0.344-0.042 0.096-0.104 0.169-0.189 0.218-0.084 0.05-0.187 0.074-0.308 0.074-0.096 0-0.186-0.021-0.27-0.066l-0.235-0.198-0.192 0.198c-0.078 0.045-0.17 0.066-0.276 0.066-0.199 0-0.372-0.088-0.516-0.264v0.227h-0.404zm5.348 0.843v-0.291c-0.07-0.054-0.153-0.101-0.251-0.139-0.097-0.038-0.194-0.057-0.291-0.057-0.195 0-0.353 0.068-0.473 0.204-0.121 0.137-0.181 0.34-0.181 0.612 0 0.253 0.059 0.443 0.178 0.57 0.119 0.129 0.28 0.193 0.481 0.193 0.133 0 0.244-0.033 0.333-0.098s0.15-0.154 0.182-0.266l0.458 0.086c-0.045 0.21-0.148 0.375-0.308 0.494-0.159 0.119-0.381 0.179-0.665 0.179-0.218 0-0.401-0.038-0.547-0.114-0.193-0.099-0.338-0.241-0.438-0.427-0.1-0.185-0.15-0.397-0.15-0.636 0-0.22 0.045-0.423 0.134-0.61 0.09-0.187 0.224-0.33 0.401-0.431 0.177-0.1 0.386-0.151 0.625-0.151 0.188 0 0.374 0.035 0.558 0.107 0.183 0.072 0.323 0.153 0.42 0.247v0.913h-0.995v-0.385zm1.329 0.472 0.182 0.046c0.115 0 0.194-0.018 0.236-0.053l0.062-0.181v-0.044c-0.079-0.033-0.221-0.07-0.426-0.108-0.152-0.029-0.268-0.063-0.348-0.102l-0.188-0.169c-0.045-0.073-0.067-0.157-0.067-0.25 0-0.143 0.049-0.26 0.147-0.352 0.098-0.093 0.233-0.139 0.403-0.139 0.097 0 0.188 0.018 0.273 0.054l0.24 0.164 0.016-0.051 0.042-0.13h0.433l-0.079 0.222c-0.013 0.07-0.021 0.178-0.021 0.324l5e-3 0.512c0 0.19-0.019 0.322-0.058 0.393-0.039 0.072-0.107 0.13-0.203 0.177-0.095 0.046-0.24 0.069-0.436 0.069-0.215 0-0.377-0.039-0.486-0.115-0.109-0.078-0.186-0.196-0.231-0.357l0.398-0.072zm0.48-0.606c0-0.105-6e-3 -0.176-0.018-0.213l-0.104-0.146-0.226-0.078-0.174 0.067-0.069 0.16 0.086 0.154c0.037 0.025 0.117 0.051 0.238 0.077 0.122 0.026 0.211 0.048 0.267 0.067v-0.088"/></g><g transform="translate(361.51,660.28)"><path d="m0 0 0.06 0.081c0.025 0.028 0.083 0.085 0.175 0.169 0.092 0.085 0.156 0.15 0.191 0.195l0.117 0.195 0.037 0.196c0 0.121-0.043 0.222-0.129 0.304-0.086 0.081-0.204 0.122-0.354 0.122-0.137 0-0.252-0.035-0.344-0.106-0.091-0.07-0.146-0.185-0.163-0.347l0.291-0.029 0.063 0.183 0.145 0.056 0.145-0.053 0.053-0.15-0.06-0.179c-0.03-0.044-0.111-0.127-0.243-0.251-0.163-0.152-0.273-0.274-0.328-0.365-0.055-0.093-0.089-0.19-0.1-0.293h1.024v0.272h-0.58"/></g><g transform="translate(362.65,661.04)"><path d="m0 0c0.201-0.207 0.471-0.311 0.81-0.311 0.336 0 0.604 0.104 0.805 0.313 0.201 0.208 0.301 0.497 0.301 0.868 0 0.373-0.101 0.664-0.303 0.874-0.202 0.209-0.471 0.313-0.809 0.313-0.186 0-0.35-0.03-0.492-0.09-0.107-0.045-0.206-0.114-0.295-0.207-0.091-0.092-0.162-0.197-0.213-0.314-0.07-0.158-0.105-0.354-0.105-0.587 0-0.365 0.1-0.651 0.301-0.859zm0.35 1.466c0.115 0.13 0.269 0.196 0.459 0.196s0.343-0.065 0.458-0.194 0.172-0.325 0.172-0.588c0-0.265-0.059-0.465-0.177-0.597-0.118-0.133-0.269-0.2-0.453-0.2s-0.336 0.067-0.455 0.202c-0.12 0.134-0.18 0.33-0.18 0.589 0 0.264 0.059 0.461 0.176 0.592"/></g><g transform="translate(364.95,660.1)"><path d="m0 0c0.091-0.08 0.205-0.12 0.343-0.12 0.145 0 0.267 0.048 0.364 0.142 0.098 0.095 0.147 0.209 0.147 0.343 0 0.093-0.026 0.172-0.078 0.237l-0.21 0.126c0.146 0.08 0.22 0.187 0.22 0.32 0 0.095-0.035 0.18-0.107 0.255-0.087 0.092-0.202 0.137-0.346 0.137l-0.226-0.047-0.158-0.13c-0.038-0.055-0.067-0.13-0.085-0.222l0.269-0.046 0.064 0.153 0.128 0.052 0.122-0.046 0.046-0.123-0.063-0.145-0.18-0.052-0.033-0.239 0.135 0.022 0.144-0.065 0.059-0.174-0.062-0.186-0.152-0.068-0.144 0.057-0.072 0.166-0.283-0.035c0.015-0.128 0.067-0.232 0.158-0.312"/></g><g transform="translate(367.23,660.56)"><path d="m0 0c-0.055 0.162-0.099 0.332-0.13 0.511-0.032 0.18-0.047 0.355-0.047 0.526 0 0.248 0.026 0.482 0.08 0.704 0.053 0.221 0.151 0.49 0.294 0.805h-0.3c-0.137-0.197-0.25-0.412-0.34-0.646-0.102-0.268-0.154-0.553-0.154-0.854 0-0.243 0.041-0.494 0.125-0.754 0.083-0.259 0.204-0.509 0.363-0.75h0.301c-0.091 0.2-0.156 0.353-0.192 0.458zm0.68 0.347c0.133-0.114 0.305-0.17 0.516-0.17 0.264 0 0.471 0.101 0.619 0.304 0.109 0.147 0.164 0.315 0.164 0.504 0 0.226-0.068 0.41-0.204 0.552-0.134 0.141-0.299 0.212-0.493 0.212-0.102 0-0.202-0.024-0.3-0.073l0.069 0.389h0.826v0.411h-1.158l-0.225-1.193 0.356-0.051c0.099 0.111 0.212 0.167 0.339 0.167 0.1 0 0.182-0.035 0.245-0.105 0.063-0.071 0.094-0.176 0.094-0.317 0-0.15-0.032-0.262-0.095-0.337-0.063-0.074-0.141-0.112-0.233-0.112l-0.211 0.087c-0.062 0.058-0.098 0.137-0.111 0.236l-0.437-0.046c0.026-0.191 0.106-0.344 0.239-0.458zm1.914-0.131 0.34 0.514 0.336-0.514h0.538l-0.613 0.874 0.562 0.786h-0.515l-0.308-0.456-0.293 0.456h-0.536l0.573-0.805-0.597-0.855zm2.487 2.301h-0.355c-0.05-0.14-0.142-0.262-0.276-0.367-0.135-0.105-0.259-0.176-0.373-0.213v-0.399c0.217 0.072 0.406 0.183 0.566 0.333v-1.655h0.438zm0.865-0.235c-0.15-0.19-0.225-0.5-0.225-0.931 0-0.44 0.068-0.745 0.204-0.917 0.136-0.171 0.316-0.257 0.538-0.257s0.394 0.078 0.518 0.235c0.15 0.189 0.224 0.501 0.224 0.934 0 0.434-0.074 0.745-0.223 0.933-0.125 0.158-0.297 0.238-0.519 0.238-0.221 0-0.394-0.079-0.517-0.235zm0.658-0.18c0.042-0.034 0.075-0.102 0.102-0.202 0.027-0.101 0.041-0.285 0.041-0.554s-0.015-0.46-0.045-0.572l-0.097-0.182-0.142-0.051-0.141 0.05c-0.041 0.033-0.075 0.1-0.102 0.201s-0.041 0.285-0.041 0.554 0.015 0.46 0.046 0.574l0.096 0.182 0.142 0.05 0.141-0.05"/></g><g transform="translate(375.43,663.27)"><path d="m0 0h-0.237c-0.033-0.094-0.094-0.175-0.184-0.245-0.089-0.069-0.172-0.117-0.248-0.142v-0.265c0.144 0.048 0.271 0.122 0.377 0.221v-1.103h0.292zm0.507-0.87-0.061-0.228c0-0.149 0.054-0.267 0.163-0.354 0.092-0.072 0.208-0.109 0.346-0.109 0.149 0 0.269 0.044 0.359 0.132 0.089 0.089 0.134 0.203 0.134 0.344l-0.066 0.226-0.193 0.149 0.155 0.127 0.055 0.189c0 0.114-0.04 0.208-0.12 0.282s-0.193 0.112-0.338 0.112c-0.146 0-0.258-0.038-0.338-0.112-0.079-0.074-0.119-0.168-0.119-0.282l0.052-0.184 0.164-0.132zm0.304 0.587 0.134 0.05 0.131-0.049 0.049-0.132-0.05-0.137-0.134-0.05-0.131 0.05-0.049 0.136zm-0.024-0.626 0.159 0.075 0.153-0.066 0.06-0.172-0.059-0.189-0.15-0.065-0.155 0.068-0.061 0.189 0.053 0.16"/></g><g transform="translate(379.3,662.34)"><path d="m0 0c-0.119 0.087-0.279 0.13-0.481 0.13-0.247 0-0.442-0.076-0.586-0.228-0.145-0.153-0.217-0.366-0.217-0.64 0-0.271 0.072-0.483 0.216-0.637 0.144-0.153 0.337-0.229 0.579-0.229 0.213 0 0.383 0.05 0.51 0.151 0.126 0.101 0.212 0.251 0.257 0.449l-0.43 0.073c-0.022-0.115-0.059-0.197-0.112-0.244l-0.205-0.071c-0.111 0-0.2 0.041-0.265 0.121-0.066 0.082-0.099 0.221-0.099 0.417 0 0.178 0.032 0.304 0.097 0.379 0.065 0.077 0.152 0.114 0.261 0.114l0.201-0.066 0.099-0.195 0.431 0.079c-0.051 0.177-0.137 0.31-0.256 0.397zm0.542-1.567h0.439v0.807c0 0.159 0.012 0.273 0.035 0.342l0.116 0.158 0.183 0.054 0.133-0.034 0.072-0.105c0.016-0.047 0.024-0.151 0.024-0.312v-0.91h0.438v0.797c0 0.156 0.012 0.271 0.036 0.344l0.116 0.164 0.174 0.056 0.187-0.093c0.029-0.048 0.045-0.155 0.045-0.319v-0.949h0.438v1.061c0 0.159-0.015 0.273-0.045 0.344-0.042 0.096-0.105 0.169-0.189 0.219-0.084 0.049-0.187 0.073-0.308 0.073-0.096 0-0.186-0.021-0.27-0.065l-0.235-0.198-0.192 0.198c-0.078 0.044-0.171 0.065-0.277 0.065-0.199 0-0.371-0.088-0.515-0.263v0.226h-0.405v-1.66"/></g><path d="m382.59 662.15h0.5737v0.29285h-0.5737z"/><g transform="translate(383.41,661.83)"><path d="m0 0c0.091-0.079 0.205-0.119 0.343-0.119 0.146 0 0.267 0.047 0.364 0.142 0.098 0.094 0.147 0.208 0.147 0.343 0 0.092-0.026 0.171-0.078 0.236l-0.21 0.126c0.146 0.08 0.22 0.187 0.22 0.321 0 0.095-0.035 0.179-0.107 0.254-0.087 0.092-0.202 0.138-0.346 0.138l-0.227-0.047-0.157-0.131c-0.038-0.056-0.067-0.129-0.085-0.221l0.269-0.046 0.065 0.152 0.127 0.052 0.122-0.046 0.046-0.123-0.063-0.145-0.18-0.052-0.033-0.238 0.135 0.022 0.144-0.065 0.059-0.175-0.062-0.186-0.152-0.068-0.143 0.057-0.074 0.166-0.282-0.035c0.014-0.128 0.067-0.232 0.158-0.312"/></g><g transform="translate(384.78,660.1)"><path d="m0 0c0.179 0.272 0.307 0.547 0.385 0.827 0.068 0.249 0.103 0.482 0.103 0.699 0 0.259-0.044 0.514-0.131 0.765-0.086 0.252-0.208 0.489-0.365 0.712h-0.298c0.142-0.315 0.24-0.584 0.293-0.805s0.079-0.456 0.079-0.704c0-0.122-6e-3 -0.241-0.021-0.357s-0.037-0.239-0.067-0.368-0.063-0.244-0.099-0.342c-0.035-0.099-0.095-0.241-0.182-0.427h0.303"/></g><g transform="translate(345.42,667.87)"><path d="m0 0c0.111-0.095 0.254-0.142 0.43-0.142 0.22 0 0.392 0.084 0.516 0.252 0.091 0.124 0.137 0.265 0.137 0.421 0 0.188-0.057 0.342-0.169 0.46-0.113 0.118-0.25 0.177-0.412 0.177l-0.25-0.061 0.057 0.324h0.688v0.343h-0.964l-0.187-0.994 0.296-0.043c0.083 0.093 0.177 0.14 0.281 0.14l0.205-0.088c0.053-0.06 0.079-0.147 0.079-0.264 0-0.125-0.026-0.219-0.08-0.281l-0.193-0.093-0.177 0.073-0.092 0.196-0.364-0.039c0.022-0.159 0.088-0.287 0.199-0.381zm2.593 0.75c0 0.107-7e-3 0.189-0.021 0.246l-0.071 0.154-0.151 0.111-0.221 0.044c-0.183 0-0.335-0.078-0.455-0.235v0.204h-0.34v-1.384h0.366v0.627c0 0.154 9e-3 0.26 0.028 0.318l0.103 0.138 0.17 0.052 0.127-0.037 0.076-0.102c0.016-0.044 0.024-0.14 0.024-0.29v-0.706h0.365zm0.343-0.86h0.365v0.673c0 0.132 0.01 0.228 0.029 0.285l0.097 0.131 0.152 0.046 0.111-0.029 0.06-0.087c0.014-0.039 0.02-0.126 0.02-0.26v-0.759h0.365v0.665c0 0.13 0.01 0.225 0.03 0.285l0.097 0.138 0.145 0.047 0.156-0.078c0.025-0.04 0.037-0.129 0.037-0.266v-0.791h0.365v0.884c0 0.133-0.012 0.229-0.037 0.287l-0.157 0.182c-0.071 0.041-0.156 0.062-0.258 0.062l-0.224-0.054-0.197-0.166-0.159 0.166-0.23 0.054c-0.167 0-0.31-0.073-0.431-0.22v0.189h-0.336zm3.57-0.179c-0.046 0.134-0.082 0.277-0.109 0.425-0.026 0.15-0.039 0.296-0.039 0.439 0 0.206 0.022 0.402 0.067 0.586 0.044 0.185 0.126 0.408 0.245 0.672h-0.25c-0.114-0.165-0.209-0.344-0.283-0.538-0.085-0.225-0.129-0.462-0.129-0.713 0-0.203 0.035-0.412 0.104-0.628 0.07-0.216 0.171-0.424 0.303-0.625h0.251c-0.076 0.166-0.129 0.293-0.16 0.382zm1.406 2.089h-0.407l-0.741-1.91h0.407l0.158 0.434h0.761l0.166-0.434h0.419zm-0.465-1.154 0.257 0.708 0.262-0.708zm1.336-0.756h0.36469v1.9095h-0.36469z" fill="#fff"/></g><g transform="translate(354.95,668.27)"><path d="m0 0c-0.083-0.104-0.124-0.276-0.124-0.514 0-0.243 0.038-0.411 0.113-0.506s0.175-0.142 0.297-0.142 0.217 0.043 0.286 0.129c0.083 0.105 0.124 0.277 0.124 0.516 0 0.24-0.041 0.412-0.124 0.515-0.068 0.088-0.164 0.131-0.286 0.131s-0.217-0.043-0.286-0.129zm0.364-0.1 0.056-0.111c0.015-0.055 0.023-0.157 0.023-0.306 0-0.148-9e-3 -0.253-0.025-0.315l-0.053-0.101-0.079-0.028-0.078 0.027-0.056 0.112c-0.015 0.055-0.023 0.157-0.023 0.305 0 0.149 9e-3 0.255 0.025 0.317l0.054 0.1 0.078 0.028zm0.529-1.04h0.24219v0.24219h-0.24219zm0.242 0m0.54 0.225 0.05 0.067 0.145 0.14 0.158 0.161 0.097 0.162 0.03 0.163c0 0.1-0.035 0.183-0.106 0.251-0.071 0.067-0.169 0.1-0.294 0.1-0.114 0-0.208-0.028-0.284-0.086-0.075-0.059-0.121-0.155-0.135-0.288l0.241-0.024 0.052 0.152 0.12 0.045 0.12-0.043 0.044-0.125-0.05-0.148c-0.025-0.036-0.092-0.106-0.201-0.207-0.135-0.126-0.226-0.227-0.272-0.303l-0.082-0.242h0.847v0.225zm1.178 0.797c-0.114-0.143-0.205-0.306-0.273-0.488-0.067-0.182-0.104-0.359-0.108-0.534h0.234c-1e-3 0.111 0.017 0.238 0.054 0.38 0.037 0.141 0.091 0.275 0.161 0.401 0.071 0.126 0.14 0.223 0.209 0.29v0.176h-0.827v-0.225h0.55" fill="#fff"/></g><g transform="translate(359.66,668.46)"><path d="m0 0v-0.242l-0.209-0.115-0.242-0.048c-0.163 0-0.294 0.057-0.395 0.17-0.1 0.113-0.15 0.283-0.15 0.51 0 0.21 0.049 0.369 0.148 0.475 0.099 0.107 0.233 0.16 0.401 0.16 0.111 0 0.203-0.027 0.278-0.081 0.073-0.054 0.124-0.128 0.151-0.222l0.382 0.072c-0.038 0.175-0.124 0.313-0.257 0.412s-0.317 0.149-0.554 0.149c-0.182 0-0.334-0.032-0.456-0.095-0.16-0.082-0.282-0.201-0.365-0.355-0.083-0.155-0.125-0.332-0.125-0.531 0-0.183 0.038-0.352 0.112-0.509 0.074-0.155 0.186-0.275 0.334-0.358 0.148-0.085 0.322-0.126 0.521-0.126 0.157 0 0.312 0.029 0.465 0.088 0.152 0.06 0.269 0.129 0.349 0.207v0.761h-0.828v-0.322zm1.094 0.394 0.153 0.039c0.096 0 0.161-0.015 0.195-0.045l0.053-0.151v-0.036c-0.066-0.028-0.185-0.058-0.355-0.09-0.126-0.025-0.224-0.053-0.29-0.085l-0.157-0.141-0.056-0.209c0-0.118 0.041-0.216 0.123-0.293 0.081-0.078 0.194-0.116 0.336-0.116l0.227 0.046 0.2 0.136 0.013-0.043 0.035-0.108h0.362l-0.066 0.186c-0.012 0.058-0.018 0.147-0.018 0.268l4e-3 0.428c0 0.159-0.016 0.268-0.049 0.328l-0.168 0.147c-0.08 0.038-0.201 0.058-0.364 0.058-0.179 0-0.314-0.033-0.405-0.097s-0.155-0.163-0.192-0.297l0.331-0.06zm0.401-0.505-0.015-0.178-0.087-0.121-0.188-0.065-0.145 0.056-0.058 0.133 0.071 0.128c0.032 0.021 0.098 0.043 0.199 0.064 0.102 0.022 0.176 0.041 0.223 0.056v-0.073" fill="#fff"/></g><g transform="translate(361.86,668.27)"><path d="m0 0c-0.083-0.104-0.124-0.276-0.124-0.514 0-0.243 0.038-0.411 0.113-0.506s0.174-0.142 0.297-0.142c0.122 0 0.217 0.043 0.285 0.129 0.083 0.105 0.124 0.277 0.124 0.516 0 0.24-0.041 0.412-0.123 0.515-0.069 0.088-0.164 0.131-0.286 0.131s-0.218-0.043-0.286-0.129zm0.364-0.1 0.056-0.111c0.015-0.055 0.022-0.157 0.022-0.306 0-0.148-8e-3 -0.253-0.025-0.315l-0.053-0.101-0.078-0.028-0.078 0.027-0.057 0.112c-0.015 0.055-0.022 0.157-0.022 0.305 0 0.149 8e-3 0.255 0.025 0.317l0.054 0.1 0.078 0.028zm0.529-1.04h0.24219v0.24219h-0.24219zm0.242 0m0.753 1.022c-0.113-0.143-0.204-0.306-0.272-0.488-0.069-0.182-0.104-0.359-0.108-0.534h0.233c-1e-3 0.111 0.018 0.238 0.054 0.38 0.038 0.141 0.091 0.275 0.162 0.401s0.14 0.223 0.208 0.29v0.176h-0.827v-0.225zm0.536-0.945c0.076-0.066 0.171-0.099 0.285-0.099 0.12 0 0.221 0.039 0.302 0.118 0.081 0.078 0.121 0.172 0.121 0.283l-0.065 0.196-0.173 0.104c0.121 0.066 0.181 0.155 0.181 0.266l-0.088 0.211c-0.072 0.076-0.167 0.113-0.286 0.113l-0.188-0.039-0.131-0.107-0.07-0.184 0.223-0.038 0.053 0.126 0.106 0.043 0.101-0.038 0.038-0.102-0.052-0.12-0.15-0.043-0.027-0.197 0.111 0.018 0.12-0.054 0.049-0.144-0.051-0.154-0.126-0.057-0.119 0.047-0.06 0.138-0.234-0.029c0.012-0.106 0.056-0.193 0.13-0.258" fill="#fff"/></g><g transform="translate(365.4,667.2)"><path d="m0 0c0.148 0.227 0.255 0.457 0.32 0.689 0.058 0.207 0.086 0.402 0.086 0.584 0 0.215-0.036 0.427-0.109 0.636-0.071 0.21-0.173 0.408-0.304 0.594h-0.248c0.118-0.263 0.2-0.486 0.244-0.671 0.044-0.184 0.066-0.38 0.066-0.586 0-0.103-5e-3 -0.201-0.018-0.298-0.012-0.097-0.031-0.199-0.056-0.307s-0.052-0.203-0.081-0.285c-0.03-0.083-0.081-0.201-0.153-0.356h0.253" fill="#fff"/></g><g transform="translate(366.37,667.35)"><path d="m0 0 0.05 0.067 0.145 0.14 0.158 0.161 0.097 0.162 0.03 0.163c0 0.1-0.035 0.183-0.106 0.251-0.072 0.067-0.169 0.101-0.294 0.101-0.114 0-0.209-0.029-0.284-0.087-0.076-0.058-0.121-0.155-0.135-0.288l0.241-0.024 0.052 0.152 0.12 0.045 0.12-0.043 0.044-0.125-0.05-0.148c-0.025-0.036-0.092-0.106-0.201-0.207-0.135-0.126-0.226-0.227-0.272-0.303l-0.083-0.242h0.848v0.225h-0.48" fill="#fff"/></g><g transform="translate(367.29,667.99)"><path d="m0 0c0.167-0.173 0.393-0.26 0.676-0.26 0.28 0 0.503 0.087 0.67 0.262 0.167 0.173 0.251 0.415 0.251 0.723 0 0.311-0.084 0.553-0.253 0.728-0.168 0.174-0.393 0.262-0.674 0.262-0.155 0-0.292-0.026-0.41-0.076-0.09-0.037-0.171-0.095-0.246-0.172s-0.135-0.164-0.178-0.261c-0.058-0.132-0.086-0.296-0.086-0.49 0-0.304 0.083-0.543 0.25-0.716zm0.291 1.222c0.097 0.109 0.225 0.163 0.383 0.163 0.159 0 0.286-0.054 0.382-0.161 0.095-0.108 0.143-0.271 0.143-0.49 0-0.222-0.049-0.387-0.147-0.498s-0.224-0.167-0.378-0.167c-0.153 0-0.279 0.056-0.379 0.168s-0.149 0.275-0.149 0.492c0 0.219 0.048 0.384 0.145 0.493" fill="#fff"/></g><g transform="translate(369.18,667.2)"><path d="m0 0c0.075-0.066 0.169-0.099 0.284-0.099 0.121 0 0.221 0.039 0.302 0.117 0.081 0.079 0.121 0.173 0.121 0.284l-0.065 0.196-0.173 0.104c0.121 0.066 0.182 0.155 0.182 0.266l-0.09 0.211c-0.071 0.076-0.166 0.113-0.285 0.113l-0.188-0.039-0.13-0.107-0.071-0.184 0.223-0.038 0.054 0.126 0.105 0.043 0.101-0.038 0.038-0.102-0.052-0.12-0.149-0.043-0.027-0.197 0.111 0.018 0.12-0.054 0.049-0.144-0.051-0.154-0.127-0.057-0.118 0.047-0.061 0.138-0.234-0.029c0.012-0.106 0.056-0.193 0.131-0.258" fill="#fff"/></g><g transform="translate(371.25,667.58)"><path d="m0 0c-0.046 0.135-0.082 0.277-0.108 0.426-0.027 0.149-0.04 0.295-0.04 0.438 0 0.206 0.022 0.402 0.067 0.586 0.044 0.185 0.126 0.409 0.245 0.672h-0.249c-0.115-0.164-0.209-0.343-0.284-0.538-0.085-0.224-0.128-0.462-0.128-0.712 0-0.203 0.034-0.412 0.104-0.628 0.069-0.216 0.17-0.425 0.302-0.625h0.251c-0.076 0.166-0.129 0.293-0.16 0.381zm0.575 0.289c0.111-0.094 0.254-0.142 0.43-0.142 0.22 0 0.392 0.084 0.515 0.253 0.091 0.123 0.137 0.264 0.137 0.421 0 0.188-0.056 0.341-0.169 0.46-0.113 0.117-0.25 0.177-0.412 0.177l-0.249-0.061 0.057 0.324h0.688v0.342h-0.965l-0.187-0.994 0.296-0.043c0.083 0.093 0.178 0.14 0.282 0.14l0.205-0.088c0.052-0.059 0.078-0.146 0.078-0.264 0-0.125-0.026-0.218-0.079-0.28l-0.193-0.094-0.177 0.073-0.092 0.196-0.364-0.038c0.021-0.16 0.088-0.287 0.199-0.382zm1.589-0.109 0.283 0.429 0.281-0.429h0.448l-0.51 0.728 0.467 0.655h-0.428l-0.258-0.38-0.244 0.38h-0.446l0.477-0.67-0.497-0.713zm2.068 1.917h-0.296c-0.042-0.117-0.119-0.218-0.23-0.305-0.112-0.088-0.216-0.147-0.311-0.178v-0.332c0.181 0.06 0.338 0.153 0.472 0.277v-1.379h0.365zm0.715-0.195c-0.125-0.158-0.187-0.417-0.187-0.776 0-0.367 0.056-0.622 0.17-0.764 0.113-0.143 0.263-0.215 0.448-0.215s0.328 0.066 0.432 0.196c0.125 0.158 0.187 0.418 0.187 0.779 0 0.362-0.062 0.621-0.186 0.777-0.104 0.132-0.248 0.198-0.433 0.198-0.184 0-0.328-0.065-0.431-0.195zm0.549-0.151 0.085-0.167c0.022-0.084 0.034-0.238 0.034-0.462s-0.013-0.383-0.038-0.477l-0.08-0.152-0.119-0.042-0.117 0.042-0.086 0.167c-0.022 0.084-0.033 0.238-0.033 0.462s0.012 0.383 0.037 0.478l0.081 0.151 0.118 0.042 0.118-0.042" fill="#fff"/></g><g transform="translate(378.06,669.83)"><path d="m0 0h-0.196l-0.153-0.203-0.206-0.117v-0.221c0.121 0.04 0.224 0.101 0.313 0.184v-0.914h0.242zm0.393-0.72-0.051-0.189c0-0.124 0.045-0.222 0.135-0.293 0.076-0.061 0.172-0.091 0.287-0.091 0.123 0 0.222 0.037 0.296 0.11s0.112 0.168 0.112 0.284l-0.055 0.188-0.16 0.123 0.128 0.105 0.046 0.157c0 0.094-0.033 0.172-0.099 0.234-0.066 0.061-0.16 0.092-0.28 0.092s-0.214-0.031-0.279-0.092c-0.066-0.062-0.099-0.14-0.099-0.234l0.042-0.153 0.137-0.109zm0.251 0.486 0.111 0.042 0.108-0.041 0.041-0.11-0.041-0.114-0.111-0.04-0.109 0.04-0.041 0.113zm-0.02-0.519 0.132 0.061 0.127-0.054 0.049-0.142-0.049-0.156-0.124-0.054-0.127 0.056-0.051 0.156 0.043 0.133" fill="#fff"/></g><g transform="translate(381.31,669.07)"><path d="m0 0c-0.099 0.072-0.233 0.109-0.401 0.109-0.205 0-0.368-0.064-0.489-0.192-0.12-0.127-0.18-0.304-0.18-0.533 0-0.225 0.06-0.402 0.18-0.53 0.12-0.127 0.281-0.191 0.482-0.191 0.179 0 0.32 0.042 0.426 0.127 0.105 0.083 0.177 0.208 0.214 0.373l-0.358 0.062c-0.019-0.097-0.05-0.165-0.095-0.205l-0.17-0.059c-0.092 0-0.166 0.034-0.221 0.102-0.055 0.067-0.083 0.183-0.083 0.348 0 0.147 0.028 0.253 0.082 0.315 0.054 0.063 0.126 0.095 0.218 0.095l0.167-0.055 0.082-0.163 0.36 0.066c-0.044 0.148-0.115 0.258-0.214 0.331zm0.447-1.306h0.364v0.672c0 0.133 0.01 0.228 0.03 0.285l0.097 0.132 0.152 0.046 0.111-0.029 0.06-0.087c0.013-0.04 0.02-0.127 0.02-0.261v-0.758h0.365v0.664c0 0.131 0.01 0.226 0.03 0.286l0.097 0.138 0.145 0.047 0.155-0.079c0.026-0.039 0.038-0.128 0.038-0.266v-0.79h0.365v0.884c0 0.133-0.013 0.228-0.037 0.287l-0.158 0.182c-0.07 0.041-0.156 0.062-0.257 0.062l-0.225-0.055-0.196-0.165-0.16 0.165-0.23 0.055c-0.166 0-0.31-0.074-0.43-0.22v0.188h-0.336v-1.383" fill="#fff"/></g><path d="m384.06 668.9h0.4751v0.24268h-0.4751z" fill="#fff"/><g transform="translate(384.75,668.64)"><path d="m0 0c0.076-0.066 0.17-0.099 0.285-0.099 0.12 0 0.221 0.039 0.301 0.117 0.081 0.079 0.122 0.173 0.122 0.284l-0.065 0.196-0.173 0.104c0.12 0.067 0.181 0.155 0.181 0.266l-0.088 0.211c-0.072 0.076-0.167 0.114-0.286 0.114l-0.188-0.04-0.132-0.108-0.069-0.183 0.222-0.038 0.054 0.126 0.106 0.043 0.101-0.037 0.037-0.102-0.051-0.121-0.15-0.043-0.026-0.197 0.11 0.018 0.12-0.053 0.049-0.145-0.051-0.154-0.126-0.057-0.119 0.047-0.06 0.138-0.234-0.029c0.012-0.107 0.055-0.193 0.13-0.258" fill="#fff"/></g><g transform="translate(385.86,667.2)"><path d="m0 0c0.149 0.227 0.255 0.457 0.32 0.689 0.058 0.207 0.086 0.402 0.086 0.584 0 0.215-0.036 0.427-0.109 0.636-0.071 0.21-0.173 0.408-0.304 0.594h-0.248c0.118-0.263 0.2-0.486 0.244-0.671 0.045-0.184 0.066-0.38 0.066-0.586 0-0.103-5e-3 -0.201-0.017-0.298-0.013-0.097-0.032-0.199-0.056-0.307-0.026-0.108-0.053-0.203-0.082-0.285-0.03-0.083-0.081-0.201-0.152-0.356h0.252" fill="#fff"/></g><g transform="translate(346.05,677.03)"><path d="m0 0h-0.356c-0.05-0.14-0.142-0.262-0.276-0.366-0.134-0.105-0.258-0.176-0.372-0.214v-0.398c0.217 0.072 0.405 0.182 0.566 0.333v-1.656h0.438zm0.886-2.169c0.133-0.114 0.305-0.17 0.516-0.17 0.264 0 0.47 0.1 0.619 0.303 0.109 0.148 0.164 0.316 0.164 0.505 0 0.225-0.068 0.409-0.203 0.551s-0.3 0.213-0.494 0.213c-0.102 0-0.202-0.025-0.299-0.074l0.068 0.389h0.827v0.411h-1.159l-0.225-1.192 0.356-0.051c0.1 0.111 0.213 0.166 0.338 0.166 0.101 0 0.183-0.034 0.246-0.105 0.063-0.07 0.094-0.175 0.094-0.316 0-0.151-0.031-0.263-0.095-0.337-0.064-0.075-0.141-0.112-0.232-0.112l-0.212 0.087c-0.061 0.058-0.099 0.136-0.11 0.235l-0.437-0.045c0.025-0.192 0.105-0.345 0.238-0.458zm4.011 0.9c0 0.128-8e-3 0.227-0.023 0.295l-0.086 0.184-0.182 0.135c-0.08 0.034-0.168 0.052-0.265 0.052-0.219 0-0.402-0.094-0.546-0.282v0.244h-0.407v-1.66h0.438v0.752c0 0.186 0.011 0.313 0.034 0.382l0.124 0.166 0.204 0.061 0.152-0.043 0.091-0.122c0.019-0.053 0.028-0.169 0.028-0.349v-0.847h0.438zm0.422-1.032h0.438v0.807c0 0.159 0.012 0.273 0.036 0.342l0.116 0.158 0.182 0.054 0.133-0.034 0.073-0.105c0.015-0.046 0.023-0.15 0.023-0.312v-0.91h0.438v0.798c0 0.156 0.012 0.271 0.036 0.343l0.117 0.165 0.172 0.055 0.188-0.093c0.03-0.048 0.045-0.154 0.045-0.319v-0.949h0.438v1.062c0 0.158-0.015 0.273-0.044 0.344-0.042 0.095-0.105 0.168-0.19 0.217-0.084 0.05-0.187 0.075-0.308 0.075-0.096 0-0.186-0.022-0.27-0.066l-0.235-0.198-0.192 0.198c-0.078 0.044-0.17 0.066-0.276 0.066-0.199 0-0.372-0.088-0.516-0.264v0.226h-0.404zm3.753 1.069c0-0.256 0.014-0.45 0.045-0.581l0.129-0.253c0.066-0.082 0.155-0.147 0.268-0.198 0.113-0.05 0.278-0.075 0.496-0.075 0.181 0 0.328 0.023 0.44 0.069s0.202 0.109 0.269 0.187 0.113 0.174 0.138 0.287c0.024 0.114 0.037 0.308 0.037 0.583v1.203h-0.461v-1.267c0-0.181-7e-3 -0.311-0.02-0.389l-0.12-0.198c-0.067-0.053-0.166-0.08-0.296-0.08s-0.231 0.028-0.306 0.085c-0.074 0.057-0.121 0.132-0.141 0.226-0.011 0.058-0.017 0.186-0.017 0.383v1.24h-0.461zm2.284-1.069h0.46149v2.291h-0.46149zm0.462 0m0.445 0h0.868c0.171 0 0.307 0.017 0.409 0.048 0.136 0.045 0.244 0.105 0.324 0.184 0.106 0.103 0.188 0.238 0.245 0.404 0.047 0.137 0.07 0.3 0.07 0.488 0 0.215-0.025 0.395-0.075 0.542-0.05 0.146-0.123 0.27-0.218 0.371s-0.211 0.171-0.344 0.211c-0.1 0.029-0.245 0.043-0.436 0.043h-0.843zm0.669 1.904c0.188 0 0.314-7e-3 0.379-0.022l0.213-0.108c0.057-0.053 0.1-0.127 0.131-0.222 0.032-0.095 0.047-0.23 0.047-0.407 0-0.178-0.015-0.318-0.047-0.42-0.031-0.103-0.071-0.177-0.121-0.221l-0.186-0.096c-0.057-0.014-0.15-0.022-0.279-0.022h-0.344v1.518zm3.054-2.119c-0.055 0.162-0.098 0.332-0.13 0.511s-0.048 0.354-0.048 0.525c0 0.248 0.027 0.483 0.081 0.704 0.053 0.221 0.151 0.49 0.294 0.805h-0.3c-0.137-0.196-0.25-0.411-0.34-0.645-0.103-0.269-0.154-0.553-0.154-0.855 0-0.242 0.041-0.494 0.124-0.753 0.084-0.259 0.205-0.509 0.364-0.75h0.301c-0.092 0.199-0.156 0.351-0.192 0.458zm1.678 2.506h-0.489l-0.889-2.291h0.489l0.189 0.521h0.913l0.2-0.521h0.502zm-0.559-1.384 0.309 0.85 0.315-0.85zm1.638-0.907h0.43802v2.291h-0.43802z" fill="#fff"/></g><g transform="translate(365.73,675.34)"><path d="m0 0c-0.1-0.126-0.149-0.333-0.149-0.621 0-0.293 0.044-0.497 0.135-0.611s0.211-0.171 0.359-0.171 0.262 0.052 0.345 0.156c0.1 0.126 0.15 0.334 0.15 0.623 0 0.29-0.05 0.497-0.149 0.622-0.083 0.106-0.198 0.158-0.346 0.158-0.147 0-0.263-0.052-0.345-0.156zm0.439-0.121 0.068-0.134c0.018-0.067 0.027-0.19 0.027-0.369s-0.01-0.306-0.03-0.381l-0.064-0.122-0.095-0.034-0.094 0.034-0.068 0.133c-0.018 0.068-0.027 0.191-0.027 0.37s0.01 0.307 0.03 0.382l0.064 0.121 0.095 0.035zm0.671-1.256h0.29199v0.29303h-0.29199zm0.292 0m0.648 0.272 0.06 0.081c0.024 0.027 0.083 0.084 0.175 0.169 0.092 0.084 0.156 0.149 0.191 0.194l0.117 0.196 0.037 0.196c0 0.121-0.043 0.222-0.129 0.303-0.086 0.082-0.204 0.122-0.354 0.122-0.137 0-0.252-0.035-0.343-0.105-0.092-0.07-0.146-0.186-0.163-0.347l0.291-0.029 0.062 0.183 0.146 0.056 0.145-0.053 0.052-0.15-0.06-0.18c-0.03-0.044-0.111-0.127-0.242-0.25-0.164-0.152-0.273-0.274-0.329-0.366-0.055-0.092-0.088-0.189-0.099-0.292h1.023v0.272zm1.454 0.962c-0.137-0.173-0.247-0.369-0.329-0.588-0.082-0.22-0.126-0.435-0.131-0.646h0.283c-1e-3 0.134 0.021 0.287 0.065 0.459 0.045 0.171 0.11 0.333 0.195 0.485 0.086 0.152 0.169 0.269 0.252 0.35v0.212h-0.999v-0.272h0.664" fill="#fff"/></g><g transform="translate(371.5,675.58)"><path d="m0 0v-0.291c-0.069-0.054-0.153-0.1-0.25-0.138-0.098-0.038-0.194-0.057-0.291-0.057-0.196 0-0.353 0.068-0.474 0.204-0.12 0.136-0.181 0.34-0.181 0.612 0 0.251 0.06 0.442 0.178 0.57 0.12 0.128 0.28 0.192 0.481 0.192 0.134 0 0.245-0.033 0.334-0.097 0.089-0.065 0.149-0.154 0.181-0.267l0.459 0.086c-0.046 0.21-0.149 0.375-0.308 0.495-0.16 0.119-0.382 0.178-0.666 0.178-0.217 0-0.4-0.037-0.546-0.114-0.192-0.098-0.339-0.241-0.438-0.426-0.1-0.186-0.15-0.397-0.15-0.636 0-0.22 0.045-0.424 0.134-0.61 0.089-0.187 0.223-0.331 0.401-0.432 0.177-0.101 0.386-0.15 0.625-0.15 0.188 0 0.373 0.035 0.557 0.106 0.184 0.072 0.324 0.154 0.42 0.248v0.913h-0.995v-0.386zm1.333 0.473 0.182 0.045c0.116 0 0.194-0.017 0.236-0.053l0.062-0.181v-0.043c-0.079-0.033-0.221-0.07-0.425-0.108-0.152-0.029-0.268-0.063-0.349-0.103l-0.188-0.168c-0.044-0.074-0.067-0.157-0.067-0.251 0-0.142 0.049-0.26 0.148-0.352 0.098-0.092 0.232-0.139 0.403-0.139 0.096 0 0.187 0.018 0.272 0.055l0.24 0.164 0.016-0.051 0.042-0.131h0.433l-0.078 0.223c-0.014 0.069-0.021 0.177-0.021 0.323l4e-3 0.513c0 0.19-0.019 0.321-0.058 0.393-0.039 0.071-0.106 0.13-0.202 0.176-0.095 0.046-0.241 0.069-0.436 0.069-0.215 0-0.378-0.038-0.486-0.115-0.11-0.077-0.187-0.196-0.232-0.356l0.398-0.072zm0.48-0.606c0-0.105-6e-3 -0.177-0.017-0.214l-0.104-0.146-0.227-0.077-0.174 0.066-0.069 0.16 0.086 0.155c0.038 0.025 0.117 0.05 0.239 0.076 0.121 0.026 0.21 0.048 0.266 0.068v-0.088" fill="#fff"/></g><g transform="translate(374.18,675.34)"><path d="m0 0c-0.1-0.126-0.15-0.333-0.15-0.621 0-0.293 0.046-0.497 0.137-0.611s0.21-0.171 0.358-0.171 0.263 0.052 0.345 0.156c0.1 0.126 0.15 0.334 0.15 0.623 0 0.29-0.05 0.497-0.149 0.622-0.083 0.106-0.198 0.158-0.346 0.158s-0.262-0.052-0.345-0.156zm0.439-0.121 0.068-0.134c0.018-0.067 0.027-0.19 0.027-0.369s-0.01-0.306-0.03-0.381l-0.064-0.122-0.095-0.034-0.094 0.034-0.068 0.133c-0.018 0.068-0.027 0.191-0.027 0.37s0.01 0.307 0.03 0.382l0.065 0.121 0.094 0.035zm0.671-1.256h0.29199v0.29303h-0.29199zm0.292 0m0.906 1.234c-0.137-0.173-0.247-0.369-0.329-0.588-0.082-0.22-0.126-0.435-0.131-0.646h0.282c-1e-3 0.134 0.021 0.287 0.066 0.459 0.045 0.171 0.11 0.333 0.195 0.485 0.086 0.152 0.169 0.269 0.252 0.35v0.212h-0.999v-0.272zm0.68-1.141c0.09-0.08 0.205-0.119 0.343-0.119 0.145 0 0.267 0.047 0.365 0.141 0.098 0.095 0.146 0.209 0.146 0.343 0 0.092-0.026 0.172-0.078 0.237l-0.21 0.125c0.146 0.081 0.219 0.187 0.219 0.322 0 0.094-0.035 0.179-0.106 0.254-0.087 0.092-0.203 0.137-0.346 0.137l-0.227-0.047-0.158-0.13c-0.038-0.056-0.066-0.129-0.084-0.222l0.269-0.045 0.064 0.152 0.128 0.052 0.122-0.046 0.045-0.123-0.062-0.145-0.181-0.052-0.032-0.238 0.134 0.021 0.144-0.064 0.06-0.176-0.062-0.185-0.152-0.069-0.144 0.058-0.073 0.166-0.282-0.035c0.014-0.129 0.067-0.233 0.158-0.312" fill="#fff"/></g><g transform="translate(378.54,674.06)"><path d="m0 0c0.179 0.272 0.307 0.548 0.385 0.827 0.069 0.249 0.103 0.482 0.103 0.7 0 0.259-0.043 0.513-0.13 0.764s-0.208 0.489-0.366 0.713h-0.298c0.143-0.316 0.241-0.584 0.293-0.806 0.054-0.221 0.08-0.456 0.08-0.704 0-0.122-7e-3 -0.24-0.022-0.357-0.015-0.116-0.037-0.239-0.067-0.368s-0.062-0.244-0.098-0.342c-0.035-0.099-0.096-0.241-0.183-0.427h0.303" fill="#fff"/></g><g transform="translate(379.69,674.24)"><path d="m0 0 0.06 0.081c0.024 0.027 0.083 0.084 0.175 0.169 0.093 0.084 0.156 0.149 0.191 0.194l0.117 0.196 0.037 0.196c0 0.121-0.043 0.222-0.129 0.303-0.085 0.082-0.204 0.122-0.354 0.122-0.138 0-0.252-0.035-0.343-0.105-0.092-0.07-0.146-0.186-0.163-0.347l0.291-0.029 0.062 0.183 0.145 0.056 0.145-0.053 0.053-0.15-0.06-0.18c-0.03-0.044-0.111-0.127-0.242-0.25-0.164-0.152-0.274-0.274-0.329-0.366s-0.089-0.189-0.1-0.292h1.024v0.272h-0.58" fill="#fff"/></g><g transform="translate(380.83,675.01)"><path d="m0 0c0.201-0.208 0.471-0.312 0.811-0.312 0.335 0 0.604 0.105 0.804 0.314 0.201 0.209 0.301 0.498 0.301 0.868 0 0.373-0.101 0.664-0.303 0.873-0.202 0.21-0.472 0.314-0.809 0.314-0.186 0-0.35-0.03-0.492-0.09-0.107-0.045-0.206-0.113-0.296-0.206-0.09-0.094-0.161-0.198-0.213-0.315-0.07-0.158-0.104-0.354-0.104-0.587 0-0.365 0.1-0.651 0.301-0.859zm0.349 1.466c0.116 0.131 0.27 0.196 0.46 0.196s0.342-0.064 0.458-0.193c0.114-0.13 0.172-0.326 0.172-0.588 0-0.266-0.06-0.465-0.177-0.598-0.118-0.133-0.269-0.2-0.453-0.2s-0.336 0.068-0.455 0.202c-0.12 0.134-0.18 0.33-0.18 0.59 0 0.263 0.058 0.46 0.175 0.591" fill="#fff"/></g><g transform="translate(383.12,674.06)"><path d="m0 0c0.09-0.079 0.205-0.119 0.343-0.119 0.145 0 0.267 0.047 0.364 0.141 0.098 0.095 0.147 0.209 0.147 0.343 0 0.093-0.026 0.172-0.078 0.237l-0.21 0.126c0.146 0.08 0.22 0.187 0.22 0.321 0 0.095-0.037 0.179-0.107 0.254-0.087 0.092-0.202 0.137-0.346 0.137l-0.226-0.047-0.159-0.13c-0.037-0.055-0.066-0.129-0.084-0.221l0.269-0.046 0.064 0.152 0.128 0.052 0.122-0.046 0.046-0.123-0.063-0.145-0.181-0.052-0.032-0.238 0.134 0.022 0.145-0.065 0.059-0.175-0.062-0.186-0.152-0.068-0.144 0.057-0.073 0.166-0.282-0.035c0.015-0.128 0.067-0.232 0.158-0.312" fill="#fff"/></g><g transform="translate(331.5,659.05)"><path d="m0 0c0 0.214-0.013 0.378-0.04 0.492-0.027 0.115-0.075 0.217-0.143 0.308-0.069 0.09-0.17 0.164-0.303 0.223-0.133 0.058-0.281 0.086-0.442 0.086-0.365 0-0.668-0.155-0.909-0.468v0.406h-0.678v-2.766h0.73v1.253c0 0.309 0.019 0.521 0.056 0.635 0.037 0.115 0.106 0.208 0.207 0.276 0.1 0.07 0.213 0.105 0.34 0.105 0.099 0 0.183-0.025 0.253-0.073l0.152-0.204c0.031-0.088 0.047-0.282 0.047-0.58v-1.412h0.73zm2.243-1.169v0.992h1.001v0.685h-1.001v0.992h-0.665v-0.992h-0.998v-0.685h0.998v-0.992zm3.108 0v0.992h1.001v0.685h-1.001v0.992h-0.665v-0.992h-0.997v-0.685h0.997v-0.992h0.665"/></g><g transform="translate(398.86,659.21)"><path d="m0 0c0 0.214-0.014 0.378-0.04 0.492-0.027 0.115-0.075 0.217-0.143 0.308-0.068 0.09-0.17 0.164-0.303 0.222-0.133 0.059-0.28 0.087-0.442 0.087-0.365 0-0.668-0.156-0.909-0.468v0.406h-0.678v-2.766h0.73v1.253c0 0.309 0.018 0.521 0.056 0.635 0.037 0.115 0.106 0.207 0.206 0.276 0.101 0.07 0.214 0.105 0.341 0.105 0.099 0 0.183-0.025 0.253-0.073l0.152-0.205c0.031-0.087 0.047-0.281 0.047-0.58v-1.411h0.73zm2.243-1.169v0.992h1.001v0.685h-1.001v0.992h-0.665v-0.992h-0.998v-0.685h0.998v-0.992zm3.108 0v0.992h1v0.685h-1v0.992h-0.665v-0.992h-0.998v-0.685h0.998v-0.992h0.665"/></g><g transform="translate(353.1,683.03)"><path d="m0 0c0.182 0 0.336 0.016 0.462 0.048 0.125 0.032 0.229 0.079 0.312 0.141 0.083 0.063 0.153 0.152 0.209 0.267 0.057 0.115 0.085 0.24 0.085 0.374 0 0.167-0.046 0.312-0.139 0.434-0.093 0.123-0.226 0.209-0.399 0.26 0.134 0.066 0.234 0.154 0.301 0.261 0.066 0.108 0.099 0.224 0.099 0.346 0 0.132-0.037 0.258-0.113 0.378-0.074 0.121-0.177 0.21-0.309 0.268s-0.307 0.087-0.526 0.087h-1.071v-2.864zm-0.711 2.526h0.571c0.206 0 0.35-0.014 0.434-0.04l0.195-0.149c0.046-0.072 0.069-0.156 0.069-0.251 0-0.1-0.025-0.183-0.074-0.25-0.048-0.066-0.121-0.113-0.217-0.143-0.073-0.021-0.193-0.032-0.36-0.032h-0.618zm0-1.203h0.66c0.182 0 0.322-0.016 0.418-0.048 0.097-0.032 0.173-0.087 0.228-0.167 0.054-0.078 0.081-0.171 0.081-0.278 0-0.091-0.019-0.171-0.056-0.241l-0.144-0.159-0.219-0.078c-0.049-0.01-0.135-0.014-0.257-0.014h-0.711zm3.675-1.323h0.367l-0.089 0.249c-0.015 0.086-0.022 0.294-0.022 0.62v0.469c0 0.156-6e-3 0.264-0.018 0.325-0.02 0.096-0.057 0.175-0.109 0.239-0.052 0.063-0.133 0.116-0.244 0.157-0.11 0.042-0.253 0.063-0.43 0.063-0.178 0-0.335-0.025-0.47-0.074-0.135-0.048-0.238-0.118-0.31-0.209-0.071-0.091-0.122-0.209-0.154-0.356l0.343-0.047c0.038 0.147 0.096 0.25 0.175 0.307 0.078 0.058 0.2 0.088 0.365 0.088 0.177 0 0.31-0.04 0.4-0.12 0.066-0.058 0.099-0.159 0.099-0.303l-2e-3 -0.092c-0.134-0.046-0.343-0.086-0.626-0.12-0.138-0.017-0.242-0.035-0.312-0.053-0.093-0.026-0.177-0.064-0.252-0.116l-0.181-0.202c-0.046-0.084-0.069-0.177-0.069-0.278 0-0.174 0.061-0.316 0.183-0.427s0.297-0.167 0.524-0.167c0.138 0 0.267 0.023 0.387 0.069 0.12 0.045 0.245 0.123 0.376 0.234 9e-3 -0.098 0.033-0.183 0.069-0.256zm-0.099 0.912c0-0.155-0.019-0.272-0.057-0.351-0.049-0.103-0.126-0.185-0.231-0.243-0.106-0.06-0.226-0.089-0.361-0.089-0.136 0-0.24 0.031-0.311 0.094-0.071 0.062-0.106 0.14-0.106 0.234l0.049 0.167 0.138 0.114c0.06 0.026 0.162 0.05 0.306 0.07 0.255 0.037 0.446 0.081 0.573 0.134zm2.048-0.912v2.526h0.945v0.338h-2.265v-0.338h0.942v-2.526zm1.154 2.459h0.35107v0.4043h-0.35107zm0.351 0m-0.351-2.459h0.35107v2.0748h-0.35107zm0.351 0m0.635 0.68c0.11-0.225 0.27-0.404 0.482-0.533 0.212-0.13 0.452-0.196 0.721-0.196 0.247 0 0.479 0.059 0.693 0.177 0.215 0.118 0.38 0.291 0.497 0.52 0.118 0.23 0.176 0.49 0.176 0.78 0 0.286-0.056 0.543-0.167 0.769-0.111 0.225-0.272 0.402-0.484 0.528s-0.449 0.189-0.714 0.189c-0.402 0-0.731-0.134-0.985-0.403-0.255-0.269-0.382-0.641-0.382-1.116 0-0.252 0.054-0.49 0.163-0.715zm0.516 1.632c0.193 0.184 0.423 0.276 0.69 0.276 0.189 0 0.359-0.047 0.51-0.143s0.267-0.231 0.345-0.405c0.078-0.173 0.118-0.377 0.118-0.61 0-0.369-0.092-0.653-0.276-0.854-0.184-0.2-0.417-0.301-0.702-0.301-0.28 0-0.512 0.1-0.697 0.298-0.185 0.199-0.277 0.471-0.277 0.816 0 0.431 0.096 0.738 0.289 0.923"/></g><g transform="translate(363.2,682.18)"><path d="m0 0c0.11-0.1 0.25-0.149 0.417-0.149 0.185 0 0.338 0.057 0.459 0.173 0.122 0.116 0.182 0.258 0.182 0.424 0 0.123-0.031 0.226-0.093 0.308-0.063 0.082-0.15 0.136-0.263 0.163l0.196 0.161 0.067 0.225-0.07 0.246-0.201 0.183c-0.087 0.045-0.183 0.067-0.287 0.067-0.151 0-0.276-0.043-0.378-0.13-0.101-0.086-0.166-0.207-0.194-0.364l0.233-0.042c0.018 0.114 0.057 0.2 0.117 0.258 0.061 0.057 0.137 0.085 0.228 0.085s0.167-0.028 0.225-0.084l0.087-0.213c0-0.109-0.04-0.19-0.121-0.242-0.079-0.051-0.168-0.078-0.268-0.078l-0.038 3e-3 -0.026-0.206 0.166 0.026c0.107 0 0.197-0.035 0.267-0.104 0.07-0.071 0.105-0.16 0.105-0.267 0-0.113-0.038-0.208-0.114-0.284-0.075-0.076-0.168-0.115-0.278-0.115-0.093 0-0.171 0.03-0.236 0.088-0.065 0.059-0.11 0.155-0.137 0.287l-0.234-0.03c0.016-0.159 0.079-0.289 0.189-0.389"/></g><g transform="translate(366.68,682.19)"><path d="m0 0c-0.389 0.625-0.583 1.252-0.583 1.878 0 0.246 0.028 0.491 0.084 0.734 0.046 0.196 0.108 0.383 0.187 0.563 0.051 0.116 0.154 0.309 0.312 0.58h-0.251c-0.245-0.327-0.425-0.655-0.542-0.984-0.1-0.285-0.15-0.582-0.15-0.891 0-0.352 0.067-0.692 0.2-1.02 0.134-0.329 0.298-0.615 0.492-0.86zm1.732 3.331c-0.178-0.203-0.345-0.453-0.503-0.75-0.158-0.296-0.279-0.603-0.364-0.922-0.084-0.319-0.129-0.592-0.133-0.817h0.361c0.019 0.285 0.064 0.548 0.135 0.787 0.097 0.341 0.235 0.671 0.414 0.993 0.178 0.322 0.358 0.58 0.54 0.774v0.273h-1.849v-0.338zm1.082-2.314c0.166-0.15 0.374-0.225 0.625-0.225 0.278 0 0.508 0.086 0.69 0.26s0.273 0.386 0.273 0.637c0 0.184-0.047 0.338-0.141 0.461-0.093 0.123-0.225 0.205-0.393 0.243 0.13 0.06 0.228 0.141 0.294 0.242 0.066 0.102 0.099 0.215 0.099 0.339 0 0.13-0.034 0.253-0.104 0.369-0.07 0.115-0.17 0.207-0.301 0.274-0.131 0.068-0.274 0.101-0.431 0.101-0.226 0-0.415-0.065-0.567-0.195-0.151-0.129-0.249-0.312-0.292-0.547l0.351-0.063c0.026 0.172 0.084 0.301 0.175 0.387s0.205 0.129 0.341 0.129c0.138 0 0.251-0.042 0.337-0.127 0.087-0.085 0.131-0.192 0.131-0.321 0-0.163-0.06-0.283-0.179-0.361-0.12-0.078-0.255-0.117-0.404-0.117l-0.057 4e-3 -0.038-0.309c0.098 0.026 0.181 0.039 0.247 0.039 0.163 0 0.297-0.052 0.402-0.157s0.158-0.238 0.158-0.4c0-0.169-0.057-0.311-0.171-0.425-0.114-0.115-0.253-0.173-0.418-0.173-0.139 0-0.257 0.045-0.354 0.132-0.097 0.089-0.165 0.232-0.206 0.432l-0.35-0.047c0.023-0.239 0.118-0.434 0.283-0.582zm3.507-0.175v1.134c0 0.265 0.055 0.445 0.163 0.541 0.109 0.095 0.238 0.142 0.387 0.142 0.094 0 0.175-0.021 0.245-0.063l0.145-0.17c0.028-0.071 0.041-0.179 0.041-0.322v-1.262h0.351v1.276c0 0.162-7e-3 0.276-0.02 0.342-0.021 0.1-0.057 0.187-0.109 0.26s-0.13 0.132-0.234 0.177c-0.105 0.044-0.22 0.067-0.345 0.067-0.287 0-0.506-0.114-0.658-0.342v0.295h-0.316v-2.075zm2.22 0v1.076c0 0.189 0.019 0.334 0.057 0.434 0.037 0.101 0.098 0.177 0.182 0.229 0.083 0.052 0.175 0.078 0.273 0.078 0.131 0 0.224-0.039 0.281-0.117s0.086-0.196 0.086-0.352v-1.348h0.35v1.205c0 0.214 0.049 0.37 0.145 0.467s0.216 0.145 0.362 0.145l0.211-0.057 0.123-0.149c0.023-0.062 0.034-0.164 0.034-0.304v-1.307h0.35v1.425c0 0.236-0.056 0.412-0.166 0.526-0.111 0.114-0.268 0.171-0.474 0.171-0.262 0-0.476-0.121-0.639-0.363-0.04 0.114-0.11 0.203-0.208 0.267s-0.223 0.096-0.377 0.096c-0.137 0-0.26-0.031-0.368-0.093s-0.195-0.144-0.259-0.245v0.291h-0.314v-2.075zm3.694 0.018c0.134 0.328 0.202 0.668 0.202 1.02 0 0.309-0.051 0.606-0.15 0.891-0.118 0.329-0.298 0.657-0.542 0.984h-0.252c0.159-0.274 0.263-0.469 0.314-0.586 0.079-0.18 0.141-0.367 0.185-0.563 0.056-0.241 0.084-0.484 0.084-0.728 0-0.626-0.195-1.253-0.583-1.878h0.252c0.192 0.245 0.356 0.531 0.49 0.86"/></g></g></g><g transform="matrix(3.9999,0,0,-3.9999,301.33,240.09)"><path d="m0 0h13.196v-0.48627h-13.196zm0.277-1.078-1.663 0.833 1.663 0.834zm12.642 1.667 1.663-0.834-1.663-0.833v1.667"/></g><g transform="matrix(3.9999,0,0,-3.9999,-1180,3100.6)" clip-path="url(#clipPath5624)"><g clip-path="url(#clipPath5632)"><g transform="translate(380.66,717.84)"><path d="m0 0v0.805h-2.391v3.929h-0.961v-4.734h3.352"/></g><g transform="translate(383.38,717.38)"><path d="m0 0v-0.403c-0.097-0.075-0.212-0.139-0.347-0.191-0.135-0.053-0.269-0.079-0.403-0.079-0.271 0-0.49 0.094-0.657 0.282s-0.25 0.471-0.25 0.848c0 0.349 0.082 0.612 0.247 0.79s0.388 0.267 0.667 0.267c0.184 0 0.338-0.046 0.46-0.136 0.124-0.09 0.208-0.213 0.252-0.369l0.635 0.119c-0.064 0.291-0.206 0.52-0.426 0.685-0.222 0.166-0.528 0.248-0.921 0.248-0.303 0-0.556-0.052-0.759-0.158-0.266-0.137-0.468-0.334-0.606-0.591-0.139-0.257-0.208-0.551-0.208-0.881 0-0.305 0.062-0.587 0.186-0.846s0.309-0.458 0.555-0.597 0.535-0.209 0.866-0.209c0.261 0 0.518 0.049 0.772 0.148s0.448 0.214 0.582 0.343v1.265h-1.377v-0.535h0.732"/></g></g></g><g transform="matrix(3.9999,0,0,-3.9999,315.33,334.24)"><path d="m0 0 14.986 0.033v0.487l-14.986-0.034zm0.277 1.078-1.663-0.839 1.666-0.828zm14.432-1.637 1.663 0.839-1.665 0.828 2e-3 -1.667"/></g><g transform="matrix(3.9999,0,0,-3.9999,382.6,370.2)"><path d="m-0.624 0h0.6235v0.625h-0.6235zm0.624 0m-0.624 1.25h0.6235v0.62506h-0.6235zm0.624 0m-0.624 1.25h0.6235v0.62494h-0.6235zm0.624 0m-0.624 1.25h0.6235v0.625h-0.6235zm0.624 0m-0.624 1.25h0.6235v0.625h-0.6235zm0.624 0m-0.624 1.25h0.6235v0.62555h-0.6235zm0.624 0m-0.624 1.252h0.6235v0.09705h-0.6235z"/></g><g transform="matrix(3.9999,0,0,-3.9999,380.84,340.2)"><path d="m0 0 0.438 0.447-0.446 0.439-0.438-0.448zm0.875 0.892 0.438 0.444-0.446 0.439-0.438-0.444zm0.876 0.889 0.438 0.444-0.446 0.44-0.438-0.445zm0.877 0.892 0.437 0.444-0.446 0.439-0.438-0.444zm0.875 0.889 0.438 0.444-0.446 0.439-0.438-0.445zm0.876 0.889 0.438 0.447-0.446 0.439-0.438-0.447zm0.876 0.892 0.438 0.444-0.446 0.439-0.438-0.444zm0.876 0.889 0.438 0.444-0.446 0.439-0.438-0.444zm0.875 0.892 0.438 0.444-0.446 0.439-0.438-0.444zm0.876 0.889 0.438 0.444-0.443 0.439-0.441-0.444zm0.876 0.889 0.438 0.447-0.444 0.439-0.437-0.447zm0.876 0.891 0.438 0.445-0.444 0.439-0.438-0.444zm0.876 0.889 0.438 0.445-0.444 0.439-0.438-0.445zm0.876 0.89 0.438 0.447-0.444 0.439-0.438-0.445zm0.876 0.891 0.438 0.445-0.444 0.439-0.438-0.445zm0.876 0.889 0.437 0.445-0.443 0.439-0.438-0.445zm0.875 0.892 0.438 0.445-0.443 0.439-0.438-0.445zm0.876 0.889 0.438 0.445-0.444 0.439-0.437-0.445zm0.876 0.89 0.438 0.447-0.444 0.439-0.438-0.447zm0.876 0.891 0.438 0.445-0.444 0.439-0.438-0.445zm0.876 0.889 0.438 0.445-0.444 0.439-0.438-0.445zm0.876 0.892 0.438 0.445-0.444 0.439-0.438-0.445zm0.876 0.889 0.437 0.444-0.443 0.44-0.438-0.444zm0.875 0.889 0.438 0.447-0.443 0.439-0.438-0.447zm0.876 0.892 0.438 0.445-0.443 0.439-0.438-0.445zm0.876 0.889 0.438 0.445-0.443 0.439-0.438-0.445zm0.876 0.892 0.438 0.444-0.443 0.439-0.438-0.444zm0.876 0.889 0.438 0.444-0.443 0.44-0.438-0.445zm0.876 0.889 0.438 0.445-0.444 0.442-0.438-0.448zm0.876 0.892 0.438 0.445-0.444 0.438-0.438-0.444zm0.876 0.889 0.438 0.444-0.444 0.439-0.438-0.444zm0.876 0.889 0.438 0.448-0.444 0.438-0.438-0.447zm0.876 0.892 0.438 0.445-0.444 0.439-0.438-0.445zm0.875 0.889 0.438 0.444-0.443 0.439-0.438-0.443 0.443-0.44"/></g><g transform="matrix(3.9999,0,0,-3.9999,-1180,3100.6)" clip-path="url(#clipPath5660)"><g clip-path="url(#clipPath5668)"><g transform="translate(379.56,694.81)"><path d="m0 0-0.025 0.107-0.041 0.059-0.056 0.018h-1.323v3.393l-0.021 0.059-0.07 0.042-0.131 0.026-0.208 0.01-0.206-0.01-0.132-0.026-0.07-0.042-0.021-0.059v-3.83c0-0.096 0.025-0.164 0.073-0.207l0.181-0.063h1.928l0.056 0.019 0.041 0.064 0.025 0.111 8e-3 0.164-8e-3 0.165"/></g><g transform="translate(382.03,695.19)"><path d="m0 0-0.042 0.086-0.103 0.071-0.185 0.077c-0.074 0.024-0.161 0.044-0.261 0.061-0.099 0.017-0.209 0.025-0.33 0.025-0.221 0-0.421-0.034-0.6-0.102-0.18-0.068-0.333-0.166-0.461-0.294-0.126-0.128-0.224-0.283-0.293-0.466-0.07-0.183-0.104-0.389-0.104-0.619 0-0.223 0.032-0.422 0.097-0.598 0.065-0.175 0.159-0.324 0.281-0.446 0.123-0.123 0.272-0.216 0.449-0.28s0.377-0.096 0.6-0.096l0.228 0.01 0.226 0.033 0.215 0.052 0.174 0.058 0.093 0.077 0.022 0.114v1.117l-0.01 0.077-0.032 0.058-0.047 0.035-0.062 0.013h-0.945l-0.035-0.013-0.025-0.036-0.017-0.067-5e-3 -0.102 0.022-0.165 0.06-0.049h0.53v-0.651l-0.173-0.065-0.188-0.021c-0.13 0-0.249 0.02-0.356 0.062-0.108 0.042-0.2 0.104-0.276 0.187-0.076 0.082-0.136 0.185-0.179 0.307-0.042 0.122-0.063 0.263-0.063 0.424 0 0.146 0.021 0.279 0.063 0.4 0.041 0.121 0.101 0.224 0.179 0.31s0.172 0.152 0.281 0.199c0.11 0.047 0.232 0.071 0.368 0.071 0.127 0 0.239-0.013 0.334-0.039 0.096-0.026 0.178-0.055 0.248-0.085l0.167-0.084 0.091-0.039 0.033 0.01 0.023 0.038 0.016 0.073 5e-3 0.108zm2.827-0.502c-0.061 0.169-0.153 0.311-0.271 0.426-0.119 0.115-0.266 0.202-0.439 0.261-0.175 0.058-0.386 0.087-0.635 0.087h-0.718l-0.121-0.042-0.048-0.138v-2.446l0.048-0.137 0.121-0.043h0.668c0.248 0 0.461 0.027 0.641 0.082 0.18 0.054 0.332 0.139 0.458 0.255 0.125 0.115 0.222 0.264 0.288 0.447 0.068 0.183 0.101 0.403 0.101 0.661 0 0.222-0.031 0.418-0.093 0.587zm-0.548-1.032c-0.036-0.121-0.089-0.223-0.16-0.305-0.072-0.081-0.161-0.142-0.267-0.183-0.107-0.04-0.238-0.061-0.394-0.061h-0.297v1.908h0.289c0.174 0 0.315-0.023 0.422-0.07 0.108-0.047 0.196-0.112 0.264-0.196 0.069-0.084 0.118-0.183 0.149-0.297s0.047-0.238 0.047-0.371c0-0.162-0.018-0.304-0.053-0.425"/></g></g></g><g transform="matrix(3.9999,0,0,-3.9999,108.89,476.32)"><path d="m-0.624 0h0.62402v24.111h-0.62402zm0.624 0m-1.248 0.313 0.936-1.877 0.936 1.877zm1.872 23.488-0.936 1.875-0.936-1.875h1.872"/></g><g transform="matrix(3.9999,0,0,-3.9999,-1180,3100.6)" clip-path="url(#clipPath5688)"><g clip-path="url(#clipPath5696)"><g transform="translate(318.42,655.72)"><path d="m0 0c-0.137 0.065-0.242 0.142-0.314 0.228-0.071 0.085-0.107 0.185-0.107 0.299 0 0.137 0.082 0.333 0.245 0.59 0.164 0.257 0.246 0.486 0.246 0.686 0 0.207-0.07 0.384-0.212 0.529-0.141 0.146-0.28 0.252-0.42 0.319l-0.126-0.187c0.148-0.091 0.258-0.181 0.328-0.27s0.105-0.2 0.105-0.333c0-0.134-0.082-0.331-0.246-0.591-0.164-0.259-0.245-0.483-0.245-0.67 0-0.18 0.061-0.335 0.183-0.466 0.123-0.131 0.276-0.237 0.46-0.317l0.103 0.183"/></g><g transform="translate(316.01,661.87)"><path d="m0 0v-0.534c0.209-0.075 0.392-0.214 0.549-0.415 0.157-0.202 0.263-0.388 0.319-0.561h0.596c-0.107 0.327-0.274 0.611-0.498 0.852h2.477v0.658zm0.351 1.317c0.284-0.225 0.749-0.337 1.394-0.337 0.658 0 1.115 0.102 1.371 0.307 0.257 0.205 0.385 0.474 0.385 0.809 0 0.333-0.117 0.592-0.351 0.778-0.283 0.225-0.75 0.337-1.399 0.337s-1.115-0.111-1.395-0.335c-0.237-0.187-0.356-0.447-0.356-0.78s0.117-0.593 0.351-0.779zm0.271 0.991c0.05 0.062 0.15 0.112 0.301 0.153 0.15 0.041 0.427 0.061 0.828 0.061 0.403 0 0.688-0.022 0.857-0.068 0.131-0.034 0.222-0.082 0.272-0.145l0.077-0.213-0.076-0.213c-0.049-0.061-0.15-0.112-0.3-0.153-0.151-0.041-0.427-0.061-0.83-0.061-0.401 0-0.687 0.022-0.857 0.068-0.131 0.034-0.222 0.083-0.272 0.145l-0.077 0.214zm-0.271 1.676c0.284-0.225 0.749-0.337 1.394-0.337 0.658 0 1.115 0.102 1.371 0.307 0.257 0.205 0.385 0.474 0.385 0.809 0 0.333-0.117 0.592-0.351 0.778-0.283 0.225-0.75 0.337-1.399 0.337s-1.115-0.111-1.395-0.335c-0.237-0.188-0.356-0.447-0.356-0.78s0.117-0.593 0.351-0.779zm0.271 0.991c0.05 0.062 0.15 0.113 0.301 0.153 0.15 0.041 0.427 0.061 0.828 0.061 0.403 0 0.688-0.022 0.857-0.068 0.131-0.034 0.222-0.082 0.272-0.145l0.077-0.213-0.076-0.213c-0.049-0.061-0.15-0.112-0.3-0.153-0.151-0.041-0.427-0.061-0.83-0.061-0.401 0-0.687 0.023-0.857 0.068-0.131 0.034-0.222 0.083-0.272 0.145l-0.077 0.214zm1.277 5.079c-0.191 0-0.339-0.012-0.442-0.036-0.103-0.025-0.195-0.068-0.276-0.129-0.081-0.062-0.147-0.153-0.2-0.273-0.052-0.121-0.078-0.254-0.078-0.399 0-0.33 0.14-0.603 0.421-0.82h-0.365v-0.612h2.484v0.658h-1.125c-0.278 0-0.468 0.017-0.571 0.051-0.102 0.033-0.185 0.096-0.247 0.186-0.063 0.091-0.094 0.193-0.094 0.307l0.065 0.229 0.184 0.138c0.079 0.027 0.252 0.042 0.52 0.042h1.268v0.658zm1.544 0.617v0.659h-1.207c-0.239 0-0.409 0.018-0.512 0.053s-0.182 0.094-0.236 0.175c-0.055 0.081-0.082 0.172-0.082 0.274l0.051 0.2 0.157 0.109c0.07 0.024 0.226 0.036 0.468 0.036h1.361v0.658h-1.193c-0.234 0-0.405 0.019-0.513 0.054-0.109 0.036-0.191 0.095-0.247 0.176-0.056 0.082-0.084 0.168-0.084 0.26 0 0.127 0.047 0.22 0.14 0.281 0.072 0.046 0.231 0.069 0.477 0.069h1.42v0.658h-1.589c-0.236 0-0.408-0.023-0.514-0.067-0.143-0.063-0.252-0.158-0.326-0.285-0.074-0.126-0.111-0.281-0.111-0.463 0-0.145 0.033-0.279 0.098-0.406s0.165-0.245 0.297-0.354c-0.132-0.075-0.232-0.171-0.297-0.288-0.065-0.118-0.098-0.256-0.098-0.415 0-0.301 0.132-0.559 0.395-0.776h-0.339v-0.608h2.484"/></g></g></g><g transform="matrix(3.9999,0,0,-3.9999,469.88,447.32)"><path d="m0 0h-14.462c-1.6 0-2.895 1.3-2.895 2.901v16.962h17.357v-19.863" fill="#ffd966" fill-rule="evenodd"/></g><g transform="matrix(3.9999,0,0,-3.9999,116.85,449.32)"><path d="m 0,0 h 13.185 c 1.456,0 2.636,1.184 2.636,2.642 v 17.22 H 0 V 0" fill="#ffd966" fill-rule="evenodd"/></g><path d="m468.56 447.32h14.058v-110.89h-14.058z" fill="#ffd966" stroke-width="3.9999"/><g transform="matrix(3.9999,0,0,-3.9999,482.64,336.44)"><path d="M 0,0 30.122,30.198 V 2.476 L 0,-27.722 V 0" fill="#cdae52" fill-rule="evenodd"/></g><g transform="matrix(3.9999,0,0,-3.9999,468.56,336.44)"><path d="m 0,0 30.122,30.198 h 3.515 L 3.515,0 H 0" fill="#ffe084" fill-rule="evenodd"/></g><g transform="matrix(3.9999,0,0,-3.9999,115.57,329.72)"><path d="m0 0 27.047 26.764-0.241 0.244-27.05-26.76zm-0.508 0.914-0.6-1.765 1.768 0.578zm27.821 25.183 0.599 1.764-1.766-0.578 1.167-1.186"/></g><g transform="matrix(3.9999,0,0,-3.9999,-1180,3100.6)" clip-path="url(#clipPath5734)"><g clip-path="url(#clipPath5742)"><g transform="translate(334.92,708.45)"><path d="m0 0 0.515 1.959 0.524-1.959h0.772l0.976 3.046h-0.793l-0.58-1.996-0.507 1.996h-0.775l-0.524-1.996-0.569 1.996h-0.782l0.962-3.046h0.781"/></g></g></g><g transform="matrix(3.9999,0,0,-3.9999,198.49,343.8)"><path d="m0 0h1.6631v-0.55554h-1.6631zm2.217 0h1.6631v-0.55554h-1.6631zm2.218 0h1.6631v-0.55554h-1.6631zm2.217 0h1.6626v-0.55554h-1.6626zm2.217 0h1.6626v-0.55554h-1.6626zm2.217 0h1.663v-0.55554h-1.663zm2.218 0h1.6626v-0.55554h-1.6626zm2.217 0h1.6631v-0.55554h-1.6631zm2.218 0h1.6626v-0.55554h-1.6626zm2.217 0h1.6631v-0.55554h-1.6631zm2.217 0h1.6626v-0.55554h-1.6626zm2.218 0h1.663v-0.55554h-1.663zm2.217 0h1.6626v-0.55554h-1.6626zm2.217 0h1.6631v-0.55554h-1.6631zm2.217 0h1.6626v-0.55554h-1.6626zm2.218 0h1.6631v-0.55554h-1.6631zm2.217 0h1.6631v-0.55554h-1.6631zm2.217 0h1.6631v-0.55554h-1.6631zm2.218 0h1.663v-0.55554h-1.663zm2.217 0h1.6631v-0.55554h-1.6631zm2.217 0h1.2364v-0.55554h-1.2364z"/></g><g transform="matrix(3.9999,0,0,-3.9999,-1180,3100.6)" clip-path="url(#clipPath5758)"><g clip-path="url(#clipPath5766)"><g transform="translate(342.63,691.33)"><path d="m0 0h-0.732l-1.335-3.437h0.734l0.283 0.781h1.37l0.3-0.781h0.753zm-0.837-2.077 0.463 1.275 0.472-1.275h-0.935"/></g><g transform="translate(394.01,690.89)"><path d="m0 0h-0.732l-1.335-3.437h0.735l0.282 0.781h1.371l0.299-0.781h0.753zm-0.837-2.077 0.463 1.275 0.473-1.275zm2.156 1.409h0.319c-4e-3 -0.133-0.034-0.238-0.089-0.314-0.056-0.077-0.151-0.137-0.283-0.181l0.129-0.272c0.14 0.05 0.255 0.119 0.347 0.207 0.091 0.087 0.153 0.186 0.186 0.296 0.032 0.111 0.049 0.261 0.049 0.452v0.471h-0.658v-0.659"/></g></g></g><g transform="matrix(3.9999,0,0,-3.9999,198.49,377.4)"><path d="m0 0h1.663l-3e-3 -0.556h-1.663zm2.217 0 1.663-3e-3 -2e-3 -0.555-1.664 2e-3zm2.218-3e-3 1.663-2e-3 -3e-3 -0.556-1.663 3e-3zm2.217-2e-3 1.662-3e-3 -2e-3 -0.556-1.663 3e-3zm2.217-3e-3h1.663l-3e-3 -0.556h-1.663zm2.217-3e-3h1.663l-2e-3 -0.556h-1.664zm2.218 0 1.662-3e-3 -2e-3 -0.555-1.663 2e-3zm2.217-3e-3 1.663-3e-3 -3e-3 -0.555-1.663 3e-3zm2.218-3e-3 1.662-2e-3 -2e-3 -0.556-1.663 3e-3zm2.217-2e-3 1.663-3e-3 -3e-3 -0.556-1.663 3e-3zm2.217-3e-3h1.663l-3e-3 -0.556h-1.663zm2.218-3e-3h1.663l-3e-3 -0.555h-1.663zm2.217 0 1.662-3e-3 -2e-3 -0.555-1.663 3e-3zm2.217-3e-3 1.663-2e-3 -3e-3 -0.556-1.663 3e-3zm2.217-2e-3 1.663-3e-3 -2e-3 -0.556-1.663 3e-3zm2.218-3e-3h1.663l-3e-3 -0.556h-1.663zm2.217-3e-3h1.663l-3e-3 -0.555h-1.662zm2.217 0 1.664-3e-3 -3e-3 -0.555-1.663 3e-3zm2.218-3e-3 1.663-3e-3 -3e-3 -0.555-1.663 3e-3zm2.217-3e-3 1.664-2e-3 -3e-3 -0.556-1.664 3e-3zm2.217-2e-3 1.663-3e-3 -3e-3 -0.555-1.663 2e-3 3e-3 0.556" fill="#fff"/></g><g transform="matrix(3.9999,0,0,-3.9999,-1180,3100.6)" clip-path="url(#clipPath5786)"><g clip-path="url(#clipPath5794)"><g transform="translate(341.16,678.99)"><path d="m0 0h1.167c0.441 3e-3 0.719 0.011 0.835 0.023 0.184 0.021 0.338 0.075 0.464 0.163 0.125 0.088 0.225 0.207 0.297 0.354 0.073 0.148 0.109 0.3 0.109 0.457 0 0.197-0.056 0.371-0.168 0.518-0.113 0.146-0.273 0.25-0.482 0.311 0.148 0.067 0.265 0.168 0.351 0.302 0.087 0.135 0.131 0.283 0.131 0.443 0 0.149-0.036 0.283-0.106 0.403-0.07 0.119-0.158 0.215-0.263 0.287s-0.224 0.119-0.357 0.141c-0.134 0.023-0.336 0.034-0.607 0.034h-1.371zm1.09 2.865c0.326 0 0.523-5e-3 0.592-0.013 0.115-0.013 0.202-0.053 0.26-0.12 0.059-0.067 0.088-0.152 0.088-0.259 0-0.111-0.034-0.2-0.102-0.268s-0.161-0.109-0.28-0.124c-0.065-7e-3 -0.232-0.011-0.502-0.011h-0.454v0.795zm0.161-1.367c0.315 0 0.52-0.016 0.614-0.049 0.095-0.033 0.166-0.085 0.216-0.157s0.075-0.16 0.075-0.263c0-0.122-0.032-0.219-0.097-0.292s-0.148-0.118-0.251-0.137c-0.068-0.014-0.225-0.021-0.475-0.021h-0.641v0.919h0.559"/></g><g transform="translate(392.6,678.92)"><path d="m0 0h1.168c0.442 3e-3 0.721 0.011 0.836 0.024 0.185 0.02 0.34 0.074 0.465 0.163 0.126 0.088 0.225 0.206 0.298 0.354 0.072 0.148 0.109 0.3 0.109 0.457 0 0.199-0.057 0.372-0.169 0.519s-0.273 0.251-0.482 0.312c0.148 0.067 0.265 0.168 0.352 0.303 0.087 0.134 0.13 0.282 0.13 0.444 0 0.148-0.035 0.282-0.105 0.402-0.071 0.12-0.158 0.216-0.264 0.288-0.105 0.071-0.224 0.119-0.358 0.142-0.134 0.022-0.336 0.034-0.608 0.034h-1.372zm1.091 2.869c0.327 0 0.524-4e-3 0.593-0.012 0.115-0.014 0.202-0.054 0.261-0.121 0.058-0.066 0.087-0.153 0.087-0.259 0-0.111-0.033-0.201-0.101-0.269s-0.161-0.109-0.28-0.123c-0.065-8e-3 -0.233-0.012-0.504-0.012h-0.454v0.796zm0.162-1.369c0.315 0 0.52-0.016 0.615-0.049 0.094-0.033 0.166-0.086 0.216-0.157 0.05-0.072 0.075-0.16 0.075-0.263 0-0.122-0.032-0.22-0.097-0.293-0.065-0.072-0.149-0.118-0.252-0.137-0.067-0.014-0.225-0.021-0.475-0.021h-0.642v0.92zm2.183 1.273h0.318c-3e-3 -0.133-0.033-0.238-0.089-0.315s-0.151-0.137-0.283-0.181l0.128-0.272c0.141 0.05 0.257 0.119 0.348 0.206 0.092 0.088 0.154 0.187 0.186 0.298 0.034 0.11 0.05 0.26 0.05 0.451v0.472h-0.658v-0.659"/></g></g></g></g></svg>
