<?xml version="1.0" encoding="UTF-8"?>
<!DOCTYPE svg PUBLIC "-//W3C//DTD SVG 1.1//EN" "http://www.w3.org/Graphics/SVG/1.1/DTD/svg11.dtd">
<svg width="160mm" height="90mm" viewBox="0 0 16000 9000" version="1.1" xmlns="http://www.w3.org/2000/svg" stroke-width="28.222" stroke-linejoin="round" xml:space="preserve">
 <path fill="rgb(255,255,255)" stroke="none" d="M 8000,8999 L 0,8999 0,0 15999,0 15999,8999 8000,8999 Z"/>
 <path fill="none" stroke="rgb(179,179,179)" stroke-linejoin="round" d="M 8230,8172 L 1630,8172 1630,379 14831,379 14831,8172 8230,8172 Z"/>
 <path fill="none" stroke="rgb(179,179,179)" stroke-linejoin="round" d="M 14831,8171 L 1630,8171"/>
 <path fill="none" stroke="rgb(179,179,179)" stroke-linejoin="round" d="M 14831,7057 L 1630,7057"/>
 <path fill="none" stroke="rgb(179,179,179)" stroke-linejoin="round" d="M 14831,5944 L 1630,5944"/>
 <path fill="none" stroke="rgb(179,179,179)" stroke-linejoin="round" d="M 14831,4830 L 1630,4830"/>
 <path fill="none" stroke="rgb(179,179,179)" stroke-linejoin="round" d="M 14831,3718 L 1630,3718"/>
 <path fill="none" stroke="rgb(179,179,179)" stroke-linejoin="round" d="M 14831,2604 L 1630,2604"/>
 <path fill="none" stroke="rgb(179,179,179)" stroke-linejoin="round" d="M 14831,1491 L 1630,1491"/>
 <path fill="none" stroke="rgb(179,179,179)" stroke-linejoin="round" d="M 14831,378 L 1630,378"/>
 <path fill="none" stroke="rgb(179,179,179)" stroke-linejoin="round" d="M 1630,8321 L 1630,8171"/>
 <path fill="none" stroke="rgb(179,179,179)" stroke-linejoin="round" d="M 4270,8321 L 4270,8171"/>
 <path fill="none" stroke="rgb(179,179,179)" stroke-linejoin="round" d="M 6910,8321 L 6910,8171"/>
 <path fill="none" stroke="rgb(179,179,179)" stroke-linejoin="round" d="M 9550,8321 L 9550,8171"/>
 <path fill="none" stroke="rgb(179,179,179)" stroke-linejoin="round" d="M 12190,8321 L 12190,8171"/>
 <path fill="none" stroke="rgb(179,179,179)" stroke-linejoin="round" d="M 14831,8321 L 14831,8171"/>
 <path fill="none" stroke="rgb(179,179,179)" stroke-linejoin="round" d="M 1630,8171 L 14831,8171"/>
 <path fill="none" stroke="rgb(179,179,179)" stroke-linejoin="round" d="M 1480,8171 L 1630,8171"/>
 <path fill="none" stroke="rgb(179,179,179)" stroke-linejoin="round" d="M 1480,7057 L 1630,7057"/>
 <path fill="none" stroke="rgb(179,179,179)" stroke-linejoin="round" d="M 1480,5944 L 1630,5944"/>
 <path fill="none" stroke="rgb(179,179,179)" stroke-linejoin="round" d="M 1480,4830 L 1630,4830"/>
 <path fill="none" stroke="rgb(179,179,179)" stroke-linejoin="round" d="M 1480,3718 L 1630,3718"/>
 <path fill="none" stroke="rgb(179,179,179)" stroke-linejoin="round" d="M 1480,2604 L 1630,2604"/>
 <path fill="none" stroke="rgb(179,179,179)" stroke-linejoin="round" d="M 1480,1491 L 1630,1491"/>
 <path fill="none" stroke="rgb(179,179,179)" stroke-linejoin="round" d="M 1480,378 L 1630,378"/>
 <path fill="none" stroke="rgb(179,179,179)" stroke-linejoin="round" d="M 1630,8171 L 1630,378"/>
 <path fill="rgb(0,69,134)" stroke="none" d="M 4277,8043 L 4277,8293 4527,8293 4527,8043 4277,8043 Z"/>
 <path fill="none" stroke="rgb(0,69,134)" stroke-linejoin="round" d="M 4277,8043 L 4277,8293 4527,8293 4527,8043 4277,8043 Z"/>
 <path fill="rgb(0,69,134)" stroke="none" d="M 4409,8046 L 4409,8296 4659,8296 4659,8046 4409,8046 Z"/>
 <path fill="none" stroke="rgb(0,69,134)" stroke-linejoin="round" d="M 4409,8046 L 4409,8296 4659,8296 4659,8046 4409,8046 Z"/>
 <path fill="rgb(0,69,134)" stroke="none" d="M 4541,8046 L 4541,8296 4791,8296 4791,8046 4541,8046 Z"/>
 <path fill="none" stroke="rgb(0,69,134)" stroke-linejoin="round" d="M 4541,8046 L 4541,8296 4791,8296 4791,8046 4541,8046 Z"/>
 <path fill="rgb(0,69,134)" stroke="none" d="M 4673,8046 L 4673,8296 4923,8296 4923,8046 4673,8046 Z"/>
 <path fill="none" stroke="rgb(0,69,134)" stroke-linejoin="round" d="M 4673,8046 L 4673,8296 4923,8296 4923,8046 4673,8046 Z"/>
 <path fill="rgb(0,69,134)" stroke="none" d="M 4805,8046 L 4805,8296 5055,8296 5055,8046 4805,8046 Z"/>
 <path fill="none" stroke="rgb(0,69,134)" stroke-linejoin="round" d="M 4805,8046 L 4805,8296 5055,8296 5055,8046 4805,8046 Z"/>
 <path fill="rgb(0,69,134)" stroke="none" d="M 4937,8046 L 4937,8296 5187,8296 5187,8046 4937,8046 Z"/>
 <path fill="none" stroke="rgb(0,69,134)" stroke-linejoin="round" d="M 4937,8046 L 4937,8296 5187,8296 5187,8046 4937,8046 Z"/>
 <path fill="rgb(0,69,134)" stroke="none" d="M 5069,8044 L 5069,8294 5319,8294 5319,8044 5069,8044 Z"/>
 <path fill="none" stroke="rgb(0,69,134)" stroke-linejoin="round" d="M 5069,8044 L 5069,8294 5319,8294 5319,8044 5069,8044 Z"/>
 <path fill="rgb(0,69,134)" stroke="none" d="M 5201,8046 L 5201,8296 5451,8296 5451,8046 5201,8046 Z"/>
 <path fill="none" stroke="rgb(0,69,134)" stroke-linejoin="round" d="M 5201,8046 L 5201,8296 5451,8296 5451,8046 5201,8046 Z"/>
 <path fill="rgb(0,69,134)" stroke="none" d="M 5333,8046 L 5333,8296 5583,8296 5583,8046 5333,8046 Z"/>
 <path fill="none" stroke="rgb(0,69,134)" stroke-linejoin="round" d="M 5333,8046 L 5333,8296 5583,8296 5583,8046 5333,8046 Z"/>
 <path fill="rgb(0,69,134)" stroke="none" d="M 5465,8044 L 5465,8294 5715,8294 5715,8044 5465,8044 Z"/>
 <path fill="none" stroke="rgb(0,69,134)" stroke-linejoin="round" d="M 5465,8044 L 5465,8294 5715,8294 5715,8044 5465,8044 Z"/>
 <path fill="rgb(0,69,134)" stroke="none" d="M 5597,8041 L 5597,8291 5847,8291 5847,8041 5597,8041 Z"/>
 <path fill="none" stroke="rgb(0,69,134)" stroke-linejoin="round" d="M 5597,8041 L 5597,8291 5847,8291 5847,8041 5597,8041 Z"/>
 <path fill="rgb(0,69,134)" stroke="none" d="M 5729,8046 L 5729,8296 5979,8296 5979,8046 5729,8046 Z"/>
 <path fill="none" stroke="rgb(0,69,134)" stroke-linejoin="round" d="M 5729,8046 L 5729,8296 5979,8296 5979,8046 5729,8046 Z"/>
 <path fill="rgb(0,69,134)" stroke="none" d="M 5861,8046 L 5861,8296 6111,8296 6111,8046 5861,8046 Z"/>
 <path fill="none" stroke="rgb(0,69,134)" stroke-linejoin="round" d="M 5861,8046 L 5861,8296 6111,8296 6111,8046 5861,8046 Z"/>
 <path fill="rgb(0,69,134)" stroke="none" d="M 5993,8044 L 5993,8294 6243,8294 6243,8044 5993,8044 Z"/>
 <path fill="none" stroke="rgb(0,69,134)" stroke-linejoin="round" d="M 5993,8044 L 5993,8294 6243,8294 6243,8044 5993,8044 Z"/>
 <path fill="rgb(0,69,134)" stroke="none" d="M 6125,8046 L 6125,8296 6375,8296 6375,8046 6125,8046 Z"/>
 <path fill="none" stroke="rgb(0,69,134)" stroke-linejoin="round" d="M 6125,8046 L 6125,8296 6375,8296 6375,8046 6125,8046 Z"/>
 <path fill="rgb(0,69,134)" stroke="none" d="M 6257,8046 L 6257,8296 6507,8296 6507,8046 6257,8046 Z"/>
 <path fill="none" stroke="rgb(0,69,134)" stroke-linejoin="round" d="M 6257,8046 L 6257,8296 6507,8296 6507,8046 6257,8046 Z"/>
 <path fill="rgb(0,69,134)" stroke="none" d="M 6389,8046 L 6389,8296 6639,8296 6639,8046 6389,8046 Z"/>
 <path fill="none" stroke="rgb(0,69,134)" stroke-linejoin="round" d="M 6389,8046 L 6389,8296 6639,8296 6639,8046 6389,8046 Z"/>
 <path fill="rgb(0,69,134)" stroke="none" d="M 6521,8046 L 6521,8296 6771,8296 6771,8046 6521,8046 Z"/>
 <path fill="none" stroke="rgb(0,69,134)" stroke-linejoin="round" d="M 6521,8046 L 6521,8296 6771,8296 6771,8046 6521,8046 Z"/>
 <path fill="rgb(0,69,134)" stroke="none" d="M 6653,8046 L 6653,8296 6903,8296 6903,8046 6653,8046 Z"/>
 <path fill="none" stroke="rgb(0,69,134)" stroke-linejoin="round" d="M 6653,8046 L 6653,8296 6903,8296 6903,8046 6653,8046 Z"/>
 <path fill="rgb(0,69,134)" stroke="none" d="M 6785,8046 L 6785,8296 7035,8296 7035,8046 6785,8046 Z"/>
 <path fill="none" stroke="rgb(0,69,134)" stroke-linejoin="round" d="M 6785,8046 L 6785,8296 7035,8296 7035,8046 6785,8046 Z"/>
 <path fill="rgb(0,69,134)" stroke="none" d="M 6917,8046 L 6917,8296 7167,8296 7167,8046 6917,8046 Z"/>
 <path fill="none" stroke="rgb(0,69,134)" stroke-linejoin="round" d="M 6917,8046 L 6917,8296 7167,8296 7167,8046 6917,8046 Z"/>
 <path fill="rgb(0,69,134)" stroke="none" d="M 7049,8046 L 7049,8296 7299,8296 7299,8046 7049,8046 Z"/>
 <path fill="none" stroke="rgb(0,69,134)" stroke-linejoin="round" d="M 7049,8046 L 7049,8296 7299,8296 7299,8046 7049,8046 Z"/>
 <path fill="rgb(0,69,134)" stroke="none" d="M 7181,8046 L 7181,8296 7431,8296 7431,8046 7181,8046 Z"/>
 <path fill="none" stroke="rgb(0,69,134)" stroke-linejoin="round" d="M 7181,8046 L 7181,8296 7431,8296 7431,8046 7181,8046 Z"/>
 <path fill="rgb(0,69,134)" stroke="none" d="M 7313,8046 L 7313,8296 7563,8296 7563,8046 7313,8046 Z"/>
 <path fill="none" stroke="rgb(0,69,134)" stroke-linejoin="round" d="M 7313,8046 L 7313,8296 7563,8296 7563,8046 7313,8046 Z"/>
 <path fill="rgb(0,69,134)" stroke="none" d="M 7445,8041 L 7445,8291 7695,8291 7695,8041 7445,8041 Z"/>
 <path fill="none" stroke="rgb(0,69,134)" stroke-linejoin="round" d="M 7445,8041 L 7445,8291 7695,8291 7695,8041 7445,8041 Z"/>
 <path fill="rgb(0,69,134)" stroke="none" d="M 7577,8046 L 7577,8296 7827,8296 7827,8046 7577,8046 Z"/>
 <path fill="none" stroke="rgb(0,69,134)" stroke-linejoin="round" d="M 7577,8046 L 7577,8296 7827,8296 7827,8046 7577,8046 Z"/>
 <path fill="rgb(0,69,134)" stroke="none" d="M 7709,8046 L 7709,8296 7959,8296 7959,8046 7709,8046 Z"/>
 <path fill="none" stroke="rgb(0,69,134)" stroke-linejoin="round" d="M 7709,8046 L 7709,8296 7959,8296 7959,8046 7709,8046 Z"/>
 <path fill="rgb(0,69,134)" stroke="none" d="M 7841,8046 L 7841,8296 8090,8296 8090,8046 7841,8046 Z"/>
 <path fill="none" stroke="rgb(0,69,134)" stroke-linejoin="round" d="M 7841,8046 L 7841,8296 8090,8296 8090,8046 7841,8046 Z"/>
 <path fill="rgb(0,69,134)" stroke="none" d="M 7973,8039 L 7973,8289 8222,8289 8222,8039 7973,8039 Z"/>
 <path fill="none" stroke="rgb(0,69,134)" stroke-linejoin="round" d="M 7973,8039 L 7973,8289 8222,8289 8222,8039 7973,8039 Z"/>
 <path fill="rgb(0,69,134)" stroke="none" d="M 8105,8041 L 8105,8291 8355,8291 8355,8041 8105,8041 Z"/>
 <path fill="none" stroke="rgb(0,69,134)" stroke-linejoin="round" d="M 8105,8041 L 8105,8291 8355,8291 8355,8041 8105,8041 Z"/>
 <path fill="rgb(0,69,134)" stroke="none" d="M 8237,8032 L 8237,8282 8487,8282 8487,8032 8237,8032 Z"/>
 <path fill="none" stroke="rgb(0,69,134)" stroke-linejoin="round" d="M 8237,8032 L 8237,8282 8487,8282 8487,8032 8237,8032 Z"/>
 <path fill="rgb(0,69,134)" stroke="none" d="M 8369,8040 L 8369,8290 8619,8290 8619,8040 8369,8040 Z"/>
 <path fill="none" stroke="rgb(0,69,134)" stroke-linejoin="round" d="M 8369,8040 L 8369,8290 8619,8290 8619,8040 8369,8040 Z"/>
 <path fill="rgb(0,69,134)" stroke="none" d="M 8501,8033 L 8501,8283 8751,8283 8751,8033 8501,8033 Z"/>
 <path fill="none" stroke="rgb(0,69,134)" stroke-linejoin="round" d="M 8501,8033 L 8501,8283 8751,8283 8751,8033 8501,8033 Z"/>
 <path fill="rgb(0,69,134)" stroke="none" d="M 8633,8008 L 8633,8258 8883,8258 8883,8008 8633,8008 Z"/>
 <path fill="none" stroke="rgb(0,69,134)" stroke-linejoin="round" d="M 8633,8008 L 8633,8258 8883,8258 8883,8008 8633,8008 Z"/>
 <path fill="rgb(0,69,134)" stroke="none" d="M 8765,8013 L 8765,8263 9015,8263 9015,8013 8765,8013 Z"/>
 <path fill="none" stroke="rgb(0,69,134)" stroke-linejoin="round" d="M 8765,8013 L 8765,8263 9015,8263 9015,8013 8765,8013 Z"/>
 <path fill="rgb(0,69,134)" stroke="none" d="M 8897,7994 L 8897,8244 9147,8244 9147,7994 8897,7994 Z"/>
 <path fill="none" stroke="rgb(0,69,134)" stroke-linejoin="round" d="M 8897,7994 L 8897,8244 9147,8244 9147,7994 8897,7994 Z"/>
 <path fill="rgb(0,69,134)" stroke="none" d="M 9029,7994 L 9029,8244 9279,8244 9279,7994 9029,7994 Z"/>
 <path fill="none" stroke="rgb(0,69,134)" stroke-linejoin="round" d="M 9029,7994 L 9029,8244 9279,8244 9279,7994 9029,7994 Z"/>
 <path fill="rgb(0,69,134)" stroke="none" d="M 9161,7973 L 9161,8223 9411,8223 9411,7973 9161,7973 Z"/>
 <path fill="none" stroke="rgb(0,69,134)" stroke-linejoin="round" d="M 9161,7973 L 9161,8223 9411,8223 9411,7973 9161,7973 Z"/>
 <path fill="rgb(0,69,134)" stroke="none" d="M 9293,7990 L 9293,8240 9543,8240 9543,7990 9293,7990 Z"/>
 <path fill="none" stroke="rgb(0,69,134)" stroke-linejoin="round" d="M 9293,7990 L 9293,8240 9543,8240 9543,7990 9293,7990 Z"/>
 <path fill="rgb(0,69,134)" stroke="none" d="M 9425,7988 L 9425,8238 9675,8238 9675,7988 9425,7988 Z"/>
 <path fill="none" stroke="rgb(0,69,134)" stroke-linejoin="round" d="M 9425,7988 L 9425,8238 9675,8238 9675,7988 9425,7988 Z"/>
 <path fill="rgb(0,69,134)" stroke="none" d="M 9557,7953 L 9557,8203 9807,8203 9807,7953 9557,7953 Z"/>
 <path fill="none" stroke="rgb(0,69,134)" stroke-linejoin="round" d="M 9557,7953 L 9557,8203 9807,8203 9807,7953 9557,7953 Z"/>
 <path fill="rgb(0,69,134)" stroke="none" d="M 9689,7891 L 9689,8141 9939,8141 9939,7891 9689,7891 Z"/>
 <path fill="none" stroke="rgb(0,69,134)" stroke-linejoin="round" d="M 9689,7891 L 9689,8141 9939,8141 9939,7891 9689,7891 Z"/>
 <path fill="rgb(0,69,134)" stroke="none" d="M 9821,7815 L 9821,8065 10071,8065 10071,7815 9821,7815 Z"/>
 <path fill="none" stroke="rgb(0,69,134)" stroke-linejoin="round" d="M 9821,7815 L 9821,8065 10071,8065 10071,7815 9821,7815 Z"/>
 <path fill="rgb(0,69,134)" stroke="none" d="M 9953,7752 L 9953,8002 10203,8002 10203,7752 9953,7752 Z"/>
 <path fill="none" stroke="rgb(0,69,134)" stroke-linejoin="round" d="M 9953,7752 L 9953,8002 10203,8002 10203,7752 9953,7752 Z"/>
 <path fill="rgb(0,69,134)" stroke="none" d="M 10085,7678 L 10085,7928 10335,7928 10335,7678 10085,7678 Z"/>
 <path fill="none" stroke="rgb(0,69,134)" stroke-linejoin="round" d="M 10085,7678 L 10085,7928 10335,7928 10335,7678 10085,7678 Z"/>
 <path fill="rgb(0,69,134)" stroke="none" d="M 10217,7876 L 10217,8126 10467,8126 10467,7876 10217,7876 Z"/>
 <path fill="none" stroke="rgb(0,69,134)" stroke-linejoin="round" d="M 10217,7876 L 10217,8126 10467,8126 10467,7876 10217,7876 Z"/>
 <path fill="rgb(0,69,134)" stroke="none" d="M 10349,7592 L 10349,7842 10599,7842 10599,7592 10349,7592 Z"/>
 <path fill="none" stroke="rgb(0,69,134)" stroke-linejoin="round" d="M 10349,7592 L 10349,7842 10599,7842 10599,7592 10349,7592 Z"/>
 <path fill="rgb(0,69,134)" stroke="none" d="M 10481,7293 L 10481,7543 10731,7543 10731,7293 10481,7293 Z"/>
 <path fill="none" stroke="rgb(0,69,134)" stroke-linejoin="round" d="M 10481,7293 L 10481,7543 10731,7543 10731,7293 10481,7293 Z"/>
 <path fill="rgb(0,69,134)" stroke="none" d="M 10613,7330 L 10613,7580 10863,7580 10863,7330 10613,7330 Z"/>
 <path fill="none" stroke="rgb(0,69,134)" stroke-linejoin="round" d="M 10613,7330 L 10613,7580 10863,7580 10863,7330 10613,7330 Z"/>
 <path fill="rgb(0,69,134)" stroke="none" d="M 10745,7251 L 10745,7501 10995,7501 10995,7251 10745,7251 Z"/>
 <path fill="none" stroke="rgb(0,69,134)" stroke-linejoin="round" d="M 10745,7251 L 10745,7501 10995,7501 10995,7251 10745,7251 Z"/>
 <path fill="rgb(0,69,134)" stroke="none" d="M 10877,6893 L 10877,7143 11127,7143 11127,6893 10877,6893 Z"/>
 <path fill="none" stroke="rgb(0,69,134)" stroke-linejoin="round" d="M 10877,6893 L 10877,7143 11127,7143 11127,6893 10877,6893 Z"/>
 <path fill="rgb(0,69,134)" stroke="none" d="M 11009,7305 L 11009,7555 11259,7555 11259,7305 11009,7305 Z"/>
 <path fill="none" stroke="rgb(0,69,134)" stroke-linejoin="round" d="M 11009,7305 L 11009,7555 11259,7555 11259,7305 11009,7305 Z"/>
 <path fill="rgb(0,69,134)" stroke="none" d="M 11141,6969 L 11141,7219 11391,7219 11391,6969 11141,6969 Z"/>
 <path fill="none" stroke="rgb(0,69,134)" stroke-linejoin="round" d="M 11141,6969 L 11141,7219 11391,7219 11391,6969 11141,6969 Z"/>
 <path fill="rgb(0,69,134)" stroke="none" d="M 11273,6457 L 11273,6707 11523,6707 11523,6457 11273,6457 Z"/>
 <path fill="none" stroke="rgb(0,69,134)" stroke-linejoin="round" d="M 11273,6457 L 11273,6707 11523,6707 11523,6457 11273,6457 Z"/>
 <path fill="rgb(0,69,134)" stroke="none" d="M 11405,6429 L 11405,6679 11655,6679 11655,6429 11405,6429 Z"/>
 <path fill="none" stroke="rgb(0,69,134)" stroke-linejoin="round" d="M 11405,6429 L 11405,6679 11655,6679 11655,6429 11405,6429 Z"/>
 <path fill="rgb(0,69,134)" stroke="none" d="M 11537,5675 L 11537,5925 11787,5925 11787,5675 11537,5675 Z"/>
 <path fill="none" stroke="rgb(0,69,134)" stroke-linejoin="round" d="M 11537,5675 L 11537,5925 11787,5925 11787,5675 11537,5675 Z"/>
 <path fill="rgb(0,69,134)" stroke="none" d="M 11669,4833 L 11669,5083 11919,5083 11919,4833 11669,4833 Z"/>
 <path fill="none" stroke="rgb(0,69,134)" stroke-linejoin="round" d="M 11669,4833 L 11669,5083 11919,5083 11919,4833 11669,4833 Z"/>
 <path fill="rgb(0,69,134)" stroke="none" d="M 11801,5211 L 11801,5461 12051,5461 12051,5211 11801,5211 Z"/>
 <path fill="none" stroke="rgb(0,69,134)" stroke-linejoin="round" d="M 11801,5211 L 11801,5461 12051,5461 12051,5211 11801,5211 Z"/>
 <path fill="rgb(0,69,134)" stroke="none" d="M 11933,5337 L 11933,5587 12183,5587 12183,5337 11933,5337 Z"/>
 <path fill="none" stroke="rgb(0,69,134)" stroke-linejoin="round" d="M 11933,5337 L 11933,5587 12183,5587 12183,5337 11933,5337 Z"/>
 <path fill="rgb(0,69,134)" stroke="none" d="M 12065,5129 L 12065,5379 12315,5379 12315,5129 12065,5129 Z"/>
 <path fill="none" stroke="rgb(0,69,134)" stroke-linejoin="round" d="M 12065,5129 L 12065,5379 12315,5379 12315,5129 12065,5129 Z"/>
 <path fill="rgb(0,69,134)" stroke="none" d="M 12197,4695 L 12197,4945 12447,4945 12447,4695 12197,4695 Z"/>
 <path fill="none" stroke="rgb(0,69,134)" stroke-linejoin="round" d="M 12197,4695 L 12197,4945 12447,4945 12447,4695 12197,4695 Z"/>
 <path fill="rgb(0,69,134)" stroke="none" d="M 12329,3232 L 12329,3482 12579,3482 12579,3232 12329,3232 Z"/>
 <path fill="none" stroke="rgb(0,69,134)" stroke-linejoin="round" d="M 12329,3232 L 12329,3482 12579,3482 12579,3232 12329,3232 Z"/>
 <path fill="rgb(0,69,134)" stroke="none" d="M 12461,3321 L 12461,3571 12711,3571 12711,3321 12461,3321 Z"/>
 <path fill="none" stroke="rgb(0,69,134)" stroke-linejoin="round" d="M 12461,3321 L 12461,3571 12711,3571 12711,3321 12461,3321 Z"/>
 <path fill="rgb(0,69,134)" stroke="none" d="M 12593,3092 L 12593,3342 12843,3342 12843,3092 12593,3092 Z"/>
 <path fill="none" stroke="rgb(0,69,134)" stroke-linejoin="round" d="M 12593,3092 L 12593,3342 12843,3342 12843,3092 12593,3092 Z"/>
 <path fill="rgb(0,69,134)" stroke="none" d="M 12725,3888 L 12725,4138 12975,4138 12975,3888 12725,3888 Z"/>
 <path fill="none" stroke="rgb(0,69,134)" stroke-linejoin="round" d="M 12725,3888 L 12725,4138 12975,4138 12975,3888 12725,3888 Z"/>
 <path fill="rgb(0,69,134)" stroke="none" d="M 12857,1462 L 12857,1712 13107,1712 13107,1462 12857,1462 Z"/>
 <path fill="none" stroke="rgb(0,69,134)" stroke-linejoin="round" d="M 12857,1462 L 12857,1712 13107,1712 13107,1462 12857,1462 Z"/>
 <path fill="rgb(0,69,134)" stroke="none" d="M 12989,3813 L 12989,4063 13239,4063 13239,3813 12989,3813 Z"/>
 <path fill="none" stroke="rgb(0,69,134)" stroke-linejoin="round" d="M 12989,3813 L 12989,4063 13239,4063 13239,3813 12989,3813 Z"/>
 <path fill="rgb(0,69,134)" stroke="none" d="M 13121,4000 L 13121,4250 13371,4250 13371,4000 13121,4000 Z"/>
 <path fill="none" stroke="rgb(0,69,134)" stroke-linejoin="round" d="M 13121,4000 L 13121,4250 13371,4250 13371,4000 13121,4000 Z"/>
 <path fill="none" stroke="rgb(0,69,134)" stroke-linejoin="round" d="M 4402,8170 L 4536,8170 4670,8170 4804,8170 4938,8170 5072,8170 5206,8170 5340,8170 5474,8170 5608,8169 5742,8169 5876,8169 6010,8169 6144,8169 6278,8168 6412,8168 6546,8167 6680,8167 6814,8166 6948,8165 7082,8165 7216,8164 7350,8162 7484,8161 7618,8159 7752,8157 7886,8155 8019,8153 8153,8150 8288,8146 8422,8142 8556,8137 8690,8131 8824,8124 8958,8117 9092,8107 9226,8096 9360,8084 9494,8069 9628,8051 9762,8031 9896,8007 10030,7979 10164,7946 10298,7908 10432,7863 10566,7810 10700,7749 10834,7676 10968,7592 11102,7492 11236,7376 11370,7240 11504,7081 11638,6894 11772,6675 11906,6419 12040,6119 12174,5768 12308,5356 12442,4874 12576,4310 12710,3648 12844,2873 12978,1965 13112,902 13169,378"/>
 <text class="TextShape"><tspan class="TextParagraph" font-family="Liberation Sans, sans-serif" font-size="353px" font-weight="400"><tspan class="TextPosition" x="783" y="8739"><tspan fill="rgb(0,0,0)" stroke="none">10/01/2020</tspan></tspan></tspan></text>
 <text class="TextShape"><tspan class="TextParagraph" font-family="Liberation Sans, sans-serif" font-size="353px" font-weight="400"><tspan class="TextPosition" x="3423" y="8739"><tspan fill="rgb(0,0,0)" stroke="none">30/01/2020</tspan></tspan></tspan></text>
 <text class="TextShape"><tspan class="TextParagraph" font-family="Liberation Sans, sans-serif" font-size="353px" font-weight="400"><tspan class="TextPosition" x="6063" y="8739"><tspan fill="rgb(0,0,0)" stroke="none">19/02/2020</tspan></tspan></tspan></text>
 <text class="TextShape"><tspan class="TextParagraph" font-family="Liberation Sans, sans-serif" font-size="353px" font-weight="400"><tspan class="TextPosition" x="8704" y="8739"><tspan fill="rgb(0,0,0)" stroke="none">10/03/2020</tspan></tspan></tspan></text>
 <text class="TextShape"><tspan class="TextParagraph" font-family="Liberation Sans, sans-serif" font-size="353px" font-weight="400"><tspan class="TextPosition" x="11344" y="8739"><tspan fill="rgb(0,0,0)" stroke="none">30/03/2020</tspan></tspan></tspan></text>
 <text class="TextShape"><tspan class="TextParagraph" font-family="Liberation Sans, sans-serif" font-size="353px" font-weight="400"><tspan class="TextPosition" x="13985" y="8739"><tspan fill="rgb(0,0,0)" stroke="none">19/04/2020</tspan></tspan></tspan></text>
 <text class="TextShape"><tspan class="TextParagraph" font-family="Liberation Sans, sans-serif" font-size="353px" font-weight="400"><tspan class="TextPosition" x="559" y="8292"><tspan fill="rgb(0,0,0)" stroke="none">   </tspan><tspan fill="rgb(0,0,0)" stroke="none">,  0</tspan></tspan></tspan></text>
 <text class="TextShape"><tspan class="TextParagraph" font-family="Liberation Sans, sans-serif" font-size="353px" font-weight="400"><tspan class="TextPosition" x="321" y="7178"><tspan fill="rgb(0,0,0)" stroke="none">  </tspan><tspan fill="rgb(0,0,0)" stroke="none">1,000</tspan></tspan></tspan></text>
 <text class="TextShape"><tspan class="TextParagraph" font-family="Liberation Sans, sans-serif" font-size="353px" font-weight="400"><tspan class="TextPosition" x="321" y="6065"><tspan fill="rgb(0,0,0)" stroke="none">  </tspan><tspan fill="rgb(0,0,0)" stroke="none">2,000</tspan></tspan></tspan></text>
 <text class="TextShape"><tspan class="TextParagraph" font-family="Liberation Sans, sans-serif" font-size="353px" font-weight="400"><tspan class="TextPosition" x="321" y="4951"><tspan fill="rgb(0,0,0)" stroke="none">  </tspan><tspan fill="rgb(0,0,0)" stroke="none">3,000</tspan></tspan></tspan></text>
 <text class="TextShape"><tspan class="TextParagraph" font-family="Liberation Sans, sans-serif" font-size="353px" font-weight="400"><tspan class="TextPosition" x="321" y="3838"><tspan fill="rgb(0,0,0)" stroke="none">  </tspan><tspan fill="rgb(0,0,0)" stroke="none">4,000</tspan></tspan></tspan></text>
 <text class="TextShape"><tspan class="TextParagraph" font-family="Liberation Sans, sans-serif" font-size="353px" font-weight="400"><tspan class="TextPosition" x="321" y="2724"><tspan fill="rgb(0,0,0)" stroke="none">  </tspan><tspan fill="rgb(0,0,0)" stroke="none">5,000</tspan></tspan></tspan></text>
 <text class="TextShape"><tspan class="TextParagraph" font-family="Liberation Sans, sans-serif" font-size="353px" font-weight="400"><tspan class="TextPosition" x="321" y="1611"><tspan fill="rgb(0,0,0)" stroke="none">  </tspan><tspan fill="rgb(0,0,0)" stroke="none">6,000</tspan></tspan></tspan></text>
 <text class="TextShape"><tspan class="TextParagraph" font-family="Liberation Sans, sans-serif" font-size="353px" font-weight="400"><tspan class="TextPosition" x="321" y="498"><tspan fill="rgb(0,0,0)" stroke="none">  </tspan><tspan fill="rgb(0,0,0)" stroke="none">7,000</tspan></tspan></tspan></text>
 <text class="TextShape"><tspan class="TextParagraph" font-family="Liberation Sans, sans-serif" font-size="353px" font-weight="400"><tspan class="TextPosition" x="4652" y="821"><tspan fill="rgb(0,0,0)" stroke="none">f(x) = exp( -6834.43870956311 + 0.155786306768942 x )</tspan></tspan></tspan></text>
</svg>